<?xml version="1.0" standalone="no"?>
<!DOCTYPE svg PUBLIC "-//W3C//DTD SVG 1.1//EN" "http://www.w3.org/Graphics/SVG/1.1/DTD/svg11.dtd" >
<svg xmlns="http://www.w3.org/2000/svg" xmlns:xlink="http://www.w3.org/1999/xlink" version="1.1">
<metadata>
Created by FontForge 20201107 at Mon Jun 15 20:27:52 2020
 By 
Copyright 2020 The Kanit Project Authors (https://github.com/cadsondemak/kanit)
</metadata>
<defs>
<font id="Kanit-Black" horiz-adv-x="0" >
  <font-face 
    font-family="Kanit Black"
    font-weight="900"
    font-stretch="normal"
    units-per-em="1000"
    panose-1="0 0 0 0 0 0 0 0 0 0"
    ascent="800"
    descent="-200"
    x-height="474"
    cap-height="644"
    bbox="-725 -391 1445 1174"
    underline-thickness="50"
    underline-position="-125"
    unicode-range="U+000D-FB02"
  />
<missing-glyph horiz-adv-x="441" 
d="M15 0v714h411v-714h-411zM66 51h309v612h-309v-612z" />
    <glyph glyph-name="fi" unicode="fi" horiz-adv-x="620" 
d="M51 0v300h-56v174h56v10q0 53 25.5 100t78 76.5t132.5 29.5q46 0 84 -5.5t69 -17.5v-154q-27 10 -60 10q-41 0 -64 -13t-23 -30v-6h292v-474h-242v300h-50v-300h-242z" />
    <glyph glyph-name="fl" unicode="fl" horiz-adv-x="620" 
d="M51 0v300h-56v174h56v10q0 57 27.5 103.5t80 74.5t128.5 28q41 0 77.5 -6t66.5 -16h154v-668h-237v300h-60v-300h-237zM286 474h66v48q-29 0 -47.5 -9.5t-18.5 -32.5v-6z" />
    <glyph glyph-name="uni0E240E45" unicode="&#xe24;&#xe45;" horiz-adv-x="970" 
d="M365 -160v470q0 38 -14.5 55t-55.5 17q-22 0 -41.5 -4.5t-34.5 -11.5v-2l99 -36v-95q-46 -15 -46 -59v-9q0 -25 25 -25h23v-140h-188q-50 0 -78.5 29t-28.5 75v65q0 32 19 63t52 44l-81 29v155q50 33 125 61.5t169 28.5q64 0 112.5 -10.5t83.5 -29.5q31 17 80.5 28.5
t99.5 11.5q130 0 190 -58.5t60 -171.5v-480h-221v442q0 37 -17.5 54.5t-59.5 17.5h-11.5t-10.5 -1q1 -7 1.5 -14t0.5 -14v-485h-252z" />
    <glyph glyph-name="uni0E260E45" unicode="&#xe26;&#xe45;" horiz-adv-x="993" 
d="M388 -160v470q0 38 -14.5 55t-55.5 17q-22 0 -41.5 -4.5t-34.5 -11.5v-2l99 -36v-95q-20 -7 -27 -20t-7 -36v-73q0 -46 -28.5 -75t-78.5 -29h-185v150h20q25 0 25 25v11q0 32 13 54.5t46 35.5l-81 29v155q50 33 125 61.5t169 28.5q64 0 112.5 -10.5t83.5 -29.5
q31 17 80.5 28.5t99.5 11.5q130 0 190 -58.5t60 -171.5v-480h-221v442q0 37 -17.5 54.5t-59.5 17.5h-11.5t-10.5 -1q1 -7 1.5 -14t0.5 -14v-485h-252z" />
    <glyph glyph-name=".notdef" horiz-adv-x="441" 
d="M15 0v714h411v-714h-411zM66 51h309v612h-309v-612z" />
    <glyph glyph-name=".null" horiz-adv-x="500" 
 />
    <glyph glyph-name=".null" horiz-adv-x="500" 
 />
    <glyph glyph-name="nonmarkingreturn" horiz-adv-x="333" 
 />
    <glyph glyph-name="CR" unicode="&#xd;" horiz-adv-x="195" 
 />
    <glyph glyph-name="space" unicode=" " horiz-adv-x="195" 
 />
    <glyph glyph-name="exclam" unicode="!" horiz-adv-x="280" 
d="M26 199l-7 265v180h242v-180l-7 -265h-228zM15 0v167h250v-167h-250z" />
    <glyph glyph-name="quotedbl" unicode="&#x22;" horiz-adv-x="449" 
d="M240 395v249h194l-16 -249h-178zM15 395v249h194l-17 -249h-177z" />
    <glyph glyph-name="numbersign" unicode="#" horiz-adv-x="722" 
d="M22 0l42 136h-49v153h97l22 68h-81v154h129l42 133h206l-42 -133h72l42 133h205l-42 -133h42v-154h-90l-22 -68h75v-153h-123l-42 -136h-205l42 136h-72l-43 -136h-205zM318 289h72l22 68h-73z" />
    <glyph glyph-name="dollar" unicode="$" horiz-adv-x="560" 
d="M185 -86v80q-48 5 -90.5 15t-73.5 26v181q47 -23 106 -38t105 -15q30 0 47 7.5t17 21.5q0 18 -32 28t-84 29q-62 24 -98 50t-51.5 62.5t-15.5 91.5q0 156 170 191v86h210v-84q32 -4 62.5 -10t52.5 -13v-182q-55 23 -97 31t-74 8q-25 0 -51 -4.5t-26 -20.5q0 -13 23 -20.5
t73 -21.5q80 -22 120 -52.5t53.5 -72t13.5 -95.5q0 -67 -38 -114.5t-112 -70.5v-94h-210z" />
    <glyph glyph-name="percent" unicode="%" horiz-adv-x="808" 
d="M175 334q-77 0 -118.5 43t-41.5 110q0 77 41.5 122t118.5 45t118.5 -45t41.5 -122q0 -67 -41.5 -110t-118.5 -43zM123 0l334 644h228l-334 -644h-228zM175 452q38 0 38 40q0 44 -38 44t-38 -44q0 -40 38 -40zM633 -10q-77 0 -118.5 43t-41.5 110q0 77 41.5 122t118.5 45
t118.5 -45t41.5 -122q0 -67 -41.5 -110t-118.5 -43zM633 108q38 0 38 40q0 44 -38 44t-38 -44q0 -40 38 -40z" />
    <glyph glyph-name="ampersand" unicode="&#x26;" horiz-adv-x="707" 
d="M539 -24l-57 58q-34 -22 -85 -33t-105 -11q-85 0 -147 23.5t-96 66.5t-34 101q0 64 30 109t87 76q-25 25 -37.5 51.5t-12.5 63.5q0 80 60 126.5t159 46.5q67 0 117 -21t78.5 -59.5t28.5 -92.5q0 -45 -16.5 -78t-51.5 -63l62 -64q4 5 5.5 12.5t1.5 15.5v14h176v-23
q0 -40 -14 -80.5t-36 -66.5l35 -37zM303 429q15 9 23 18.5t8 22.5t-8 21t-22 8q-16 0 -23.5 -8.5t-7.5 -20.5q0 -13 8 -22.5t22 -18.5zM292 152q26 0 44 10l-59 60q-30 -8 -30 -35q0 -16 11.5 -25.5t33.5 -9.5z" />
    <glyph glyph-name="quotesingle" unicode="'" horiz-adv-x="224" 
d="M15 395v249h194l-17 -249h-177z" />
    <glyph glyph-name="parenleft" unicode="(" horiz-adv-x="406" 
d="M137 -72q-57 65 -89.5 159t-32.5 216t32.5 216.5t89.5 158.5h274q-81 -76 -115 -172t-34 -203t34 -202.5t115 -172.5h-274z" />
    <glyph glyph-name="parenright" unicode=")" horiz-adv-x="406" 
d="M-5 -72q81 77 115 172.5t34 202.5t-34 203t-115 172h274q57 -64 89.5 -158.5t32.5 -216.5t-32.5 -216t-89.5 -159h-274z" />
    <glyph glyph-name="asterisk" unicode="*" horiz-adv-x="458" 
d="M172 266l-135 98l71 66l-93 39l70 142l63 -39l-7 72h176l-7 -72l63 39l70 -142l-93 -39l71 -66l-135 -98l-57 82z" />
    <glyph glyph-name="plus" unicode="+" horiz-adv-x="454" 
d="M135 100v105h-120v184h120v105h184v-105h120v-184h-120v-105h-184z" />
    <glyph glyph-name="comma" unicode="," horiz-adv-x="266" 
d="M15 -120l37 249h199l-65 -249h-171z" />
    <glyph glyph-name="hyphen" unicode="-" horiz-adv-x="434" 
d="M15 205v184h404v-184h-404z" />
    <glyph glyph-name="period" unicode="." horiz-adv-x="216" 
d="M15 0v169h186v-169h-186z" />
    <glyph glyph-name="slash" unicode="/" horiz-adv-x="512" 
d="M15 0l234 662h248l-234 -662h-248z" />
    <glyph glyph-name="zero" unicode="0" horiz-adv-x="680" 
d="M340 -10q-173 0 -249 86t-76 246q0 161 76 246.5t249 85.5t249 -85.5t76 -246.5q0 -160 -76 -246t-249 -86zM340 196q43 0 60.5 31t17.5 95t-17.5 95t-60.5 31t-60.5 -31t-17.5 -95t17.5 -95t60.5 -31z" />
    <glyph glyph-name="one" unicode="1" horiz-adv-x="401" 
d="M124 0v419l-109 -16v201l351 50v-654h-242z" />
    <glyph glyph-name="two" unicode="2" horiz-adv-x="535" 
d="M15 0v107q29 47 65 86.5t82 79.5q56 48 81 74t25 54q0 47 -69 47q-45 0 -86.5 -10t-78.5 -26v201q44 19 104 30t125 11q128 0 190 -58t62 -152q0 -41 -9 -71t-29.5 -56.5t-55.5 -57.5q-20 -18 -44 -38.5t-35 -36.5h178v-184h-505z" />
    <glyph glyph-name="three" unicode="3" horiz-adv-x="550" 
d="M245 -10q-28 0 -71.5 5t-86.5 14t-72 20v183q45 -22 98 -31t92 -9q41 0 62 8t21 33q0 15 -13.5 24.5t-44.5 9.5h-118l15 153h97q29 0 41 9t12 28q0 16 -19 25.5t-61 9.5q-46 0 -93.5 -11.5t-79.5 -28.5v182q42 17 101 28.5t120 11.5q87 0 149.5 -25.5t96 -69t33.5 -98.5
q0 -43 -14 -78t-37 -60q28 -17 45 -48t17 -80q0 -72 -38.5 -117t-104 -66.5t-147.5 -21.5z" />
    <glyph glyph-name="four" unicode="4" horiz-adv-x="559" 
d="M268 0v108h-273v153l308 383h207v-342h54v-194h-54v-108h-242zM228 292h85v93z" />
    <glyph glyph-name="five" unicode="5" horiz-adv-x="535" 
d="M237 -10q-28 0 -67.5 4t-80 12.5t-71.5 21.5v184q24 -11 58.5 -20t68 -13.5t52.5 -4.5q41 0 58.5 12t17.5 34t-13.5 31.5t-45.5 9.5h-199v95l17 288h451l-15 -184h-228l-3 -41h49q117 0 175.5 -53.5t58.5 -154.5q0 -64 -30.5 -114t-93 -78.5t-159.5 -28.5z" />
    <glyph glyph-name="six" unicode="6" horiz-adv-x="604" 
d="M304 -10q-146 0 -217.5 69t-71.5 200v110q0 81 38 145.5t110.5 102t175.5 37.5q57 0 100.5 -6.5t84.5 -23.5v-175q-37 17 -75 24t-83 7q-61 0 -93.5 -19.5t-32.5 -39.5v-6q19 11 52.5 18t63.5 7q123 0 178 -55t55 -161q0 -67 -27.5 -120t-90 -83.5t-167.5 -30.5zM306 156
q68 0 68 59q0 29 -14.5 44.5t-51.5 15.5q-16 0 -33.5 -5t-34.5 -13v-32q0 -38 16.5 -53.5t49.5 -15.5z" />
    <glyph glyph-name="seven" unicode="7" horiz-adv-x="504" 
d="M30 0l195 460h-220v184h494v-133l-217 -511h-252z" />
    <glyph glyph-name="eight" unicode="8" horiz-adv-x="628" 
d="M313 -10q-157 0 -227.5 52t-70.5 154q0 41 18.5 79t46.5 59q-23 22 -36.5 52.5t-13.5 62.5q0 63 28.5 109t90.5 71t164 25q105 0 167.5 -25t90 -71t27.5 -109q0 -31 -13 -63.5t-36 -54.5q29 -23 46.5 -57.5t17.5 -77.5q0 -102 -71 -154t-229 -52zM336 393q33 15 33 51
q0 20 -13 32t-43 12q-54 0 -54 -44q0 -36 31 -42zM313 156q38 0 54.5 13t16.5 32q0 17 -10 29t-35 17l-58 12q-17 -5 -27 -17t-10 -33q0 -25 16 -39t53 -14z" />
    <glyph glyph-name="nine" unicode="9" horiz-adv-x="604" 
d="M265 -10q-57 0 -99.5 5.5t-83.5 21.5v175q38 -16 74.5 -22t81.5 -6q66 0 96 20t30 39v6q-19 -10 -52.5 -17.5t-63.5 -7.5q-123 0 -178 55t-55 161q0 67 27.5 120t90.5 83.5t167 30.5q155 0 222 -69t67 -200v-110q0 -80 -38 -145t-110.5 -102.5t-175.5 -37.5zM296 369
q17 0 34 5t34 13v32q0 38 -15.5 53.5t-50.5 15.5q-68 0 -68 -59q0 -29 14.5 -44.5t51.5 -15.5z" />
    <glyph glyph-name="colon" unicode=":" horiz-adv-x="215" 
d="M15 311v171h185v-171h-185zM15 14v171h185v-171h-185z" />
    <glyph glyph-name="semicolon" unicode=";" horiz-adv-x="266" 
d="M61 311v171h185v-171h-185zM15 -120l37 249h199l-65 -249h-171z" />
    <glyph glyph-name="less" unicode="&#x3c;" horiz-adv-x="539" 
d="M524 0l-509 221v198l509 221v-223l-252 -97l252 -97v-223z" />
    <glyph glyph-name="equal" unicode="=" horiz-adv-x="434" 
d="M15 316v164h404v-164h-404zM15 108v164h404v-164h-404z" />
    <glyph glyph-name="greater" unicode="&#x3e;" horiz-adv-x="539" 
d="M15 0v223l252 97l-252 97v223l509 -221v-198z" />
    <glyph glyph-name="question" unicode="?" horiz-adv-x="510" 
d="M110 199v15q0 31 6.5 51.5t22 38.5t43.5 42q34 29 50 44t16 40q0 51 -86 51q-43 0 -82.5 -12.5t-64.5 -27.5v167q43 23 100.5 34.5t117.5 11.5q126 0 194 -51.5t68 -143.5q0 -53 -16.5 -89.5t-63.5 -74.5q-20 -16 -39.5 -30t-32.5 -27.5t-13 -30.5v-8h-220zM95 0v167h250
v-167h-250z" />
    <glyph glyph-name="at" unicode="@" horiz-adv-x="754" 
d="M389 -132q-114 0 -198 35.5t-130 107t-46 177.5q0 117 49 191.5t134.5 110t196.5 35.5q104 0 181.5 -32.5t120 -93t42.5 -146.5q0 -96 -57 -149t-170 -53h-70q-19 -10 -46 -17t-68 -7q-48 0 -82.5 27t-34.5 84q0 110 140 110h69v3q0 19 -58 19q-54 0 -110 -17v89
q26 11 65.5 17.5t77.5 6.5q80 0 118.5 -33t38.5 -103v-68q12 0 19.5 19t7.5 60q0 76 -47.5 115t-136.5 39q-106 0 -163 -51t-57 -158q0 -95 52 -141.5t160 -46.5q110 0 173 19v-131q-31 -7 -75 -12.5t-96 -5.5zM383 116q24 0 37 16v33h-30q-30 0 -30 -26q0 -23 23 -23z" />
    <glyph glyph-name="A" unicode="A" horiz-adv-x="777" 
d="M15 0l248 644h251l248 -644h-252l-46 120h-151l-46 -120h-252zM339 285h98l-49 123z" />
    <glyph glyph-name="B" unicode="B" horiz-adv-x="657" 
d="M35 0v644h382q99 0 153.5 -47t54.5 -135q0 -48 -16.5 -82t-43.5 -54q38 -18 60 -46.5t22 -84.5q0 -91 -59.5 -143t-166.5 -52h-386zM262 397h90q48 0 48 43q0 40 -48 40h-90v-83zM262 164h90q48 0 48 43q0 40 -48 40h-90v-83z" />
    <glyph glyph-name="C" unicode="C" horiz-adv-x="618" 
d="M400 -10q-190 0 -287.5 84t-97.5 248t96.5 248t286.5 84q62 0 109.5 -9t93.5 -26v-211q-91 42 -187 42q-70 0 -111 -27.5t-41 -100.5t42 -100.5t112 -27.5q96 0 187 42v-211q-46 -16 -93.5 -25.5t-109.5 -9.5z" />
    <glyph glyph-name="D" unicode="D" horiz-adv-x="685" 
d="M35 0v644h306q102 0 177 -32.5t116 -104t41 -189.5q0 -112 -40.5 -182t-115 -103t-178.5 -33h-306zM277 184h36q36 0 62 10t40 39t14 85t-13 83.5t-38.5 36t-64.5 8.5h-36v-262z" />
    <glyph glyph-name="E" unicode="E" horiz-adv-x="555" 
d="M35 0v644h515v-174h-273v-58h235v-180h-235v-58h273v-174h-515z" />
    <glyph glyph-name="F" unicode="F" horiz-adv-x="550" 
d="M35 0v644h515v-174h-273v-58h235v-180h-235v-232h-242z" />
    <glyph glyph-name="G" unicode="G" horiz-adv-x="673" 
d="M390 -10q-182 0 -278.5 84t-96.5 248t101 248t291 84q62 0 111.5 -6.5t95.5 -22.5v-206q-46 18 -93.5 24.5t-97.5 6.5q-70 0 -115.5 -27.5t-45.5 -100.5t32.5 -100.5t93.5 -27.5q32 0 60 7v39h-107v146h307v-333q-41 -25 -105 -44t-153 -19z" />
    <glyph glyph-name="H" unicode="H" horiz-adv-x="715" 
d="M35 0v644h242v-210h161v210h242v-644h-242v210h-161v-210h-242z" />
    <glyph glyph-name="I" unicode="I" horiz-adv-x="312" 
d="M35 0v644h242v-644h-242z" />
    <glyph glyph-name="J" unicode="J" horiz-adv-x="467" 
d="M162 -10q-43 0 -83 5t-79 18v201q25 -10 54 -14.5t58 -4.5q45 0 64 18t19 62v369h242v-428q0 -113 -71 -169.5t-204 -56.5z" />
    <glyph glyph-name="K" unicode="K" horiz-adv-x="711" 
d="M35 0v644h242v-180l141 180h273l-220 -267l240 -377h-256l-132 224l-46 -56v-168h-242z" />
    <glyph glyph-name="L" unicode="L" horiz-adv-x="540" 
d="M35 0v644h242v-460h263v-184h-505z" />
    <glyph glyph-name="M" unicode="M" horiz-adv-x="791" 
d="M35 0v644h230l131 -266l130 266h230v-644h-242v226l-57 -116h-123l-57 116v-226h-242z" />
    <glyph glyph-name="N" unicode="N" horiz-adv-x="695" 
d="M35 0v644h203l180 -252v252h242v-644h-204l-179 252v-252h-242z" />
    <glyph glyph-name="O" unicode="O" horiz-adv-x="720" 
d="M360 -10q-109 0 -186 32.5t-118 105.5t-41 194q0 122 41 194.5t118 105t186 32.5t186 -32.5t118 -105t41 -194.5q0 -121 -41 -194t-118 -105.5t-186 -32.5zM360 195q53 0 75.5 28.5t22.5 98.5t-22.5 98.5t-75.5 28.5t-75.5 -28.5t-22.5 -98.5t22.5 -98.5t75.5 -28.5z" />
    <glyph glyph-name="P" unicode="P" horiz-adv-x="636" 
d="M35 0v644h362q83 0 137 -34t80.5 -91t26.5 -126q0 -70 -30.5 -126.5t-86 -89.5t-131.5 -33h-116v-144h-242zM277 333h59q29 0 44 16t15 44q0 62 -55 62h-63v-122z" />
    <glyph glyph-name="Q" unicode="Q" horiz-adv-x="720" 
d="M445 -172q-97 0 -141 47t-48 123q-115 20 -178 96.5t-63 227.5q0 122 41 194.5t118 105t186 32.5t186 -32.5t118 -105t41 -194.5q0 -155 -66 -232t-188 -94q7 -30 55 -30q38 0 72 12v-134q-20 -6 -56 -11t-77 -5zM360 195q53 0 75.5 28.5t22.5 98.5t-22.5 98.5
t-75.5 28.5t-75.5 -28.5t-22.5 -98.5t22.5 -98.5t75.5 -28.5z" />
    <glyph glyph-name="R" unicode="R" horiz-adv-x="656" 
d="M35 0v644h362q83 0 137 -31.5t80.5 -86t26.5 -123.5q0 -65 -33.5 -114t-80.5 -81q11 -7 17 -15.5t10 -17.5l76 -175h-252l-63 143q-5 12 -11 16.5t-17 4.5h-10v-164h-242zM277 353h59q59 0 59 50q0 28 -13.5 40t-41.5 12h-63v-102z" />
    <glyph glyph-name="S" unicode="S" horiz-adv-x="560" 
d="M258 -10q-68 0 -131 11.5t-106 33.5v181q47 -23 106 -38t105 -15q30 0 47 7.5t17 21.5q0 18 -32 28t-84 29q-62 24 -98 50t-51.5 62.5t-15.5 91.5q0 201 283 201q32 0 71.5 -4.5t77 -11.5t63.5 -15v-182q-55 23 -97 31t-74 8q-25 0 -51 -4.5t-26 -20.5q0 -13 23 -20.5
t73 -21.5q80 -22 120 -52.5t53.5 -72t13.5 -95.5q0 -92 -72 -147.5t-215 -55.5z" />
    <glyph glyph-name="T" unicode="T" horiz-adv-x="570" 
d="M164 0v470h-164v174h570v-174h-164v-470h-242z" />
    <glyph glyph-name="U" unicode="U" horiz-adv-x="704" 
d="M352 -10q-91 0 -164 30t-115.5 89t-42.5 145v390h242v-359q0 -90 80 -90t80 90v359h242v-390q0 -86 -42.5 -145t-115.5 -89t-164 -30z" />
    <glyph glyph-name="V" unicode="V" horiz-adv-x="777" 
d="M263 0l-248 644h252l121 -358l122 358h252l-248 -644h-251z" />
    <glyph glyph-name="W" unicode="W" horiz-adv-x="913" 
d="M165 0l-150 644h236l49 -246l37 137v109h197l72 -247l55 247h235l-149 -644h-211l-77 254l-83 -254h-211z" />
    <glyph glyph-name="X" unicode="X" horiz-adv-x="809" 
d="M15 0l244 329l-232 315h289l88 -119l89 119h289l-232 -315l244 -329h-293l-97 131l-96 -131h-293z" />
    <glyph glyph-name="Y" unicode="Y" horiz-adv-x="728" 
d="M243 0v234l-233 410h252l102 -205l102 205h252l-233 -410v-234h-242z" />
    <glyph glyph-name="Z" unicode="Z" horiz-adv-x="586" 
d="M15 0v119l236 327h-222v198h541v-137l-233 -323h239v-184h-561z" />
    <glyph glyph-name="bracketleft" unicode="[" horiz-adv-x="396" 
d="M15 -99v805h369l6 -184h-133v-437h134l-6 -184h-370z" />
    <glyph glyph-name="backslash" unicode="\" horiz-adv-x="534" 
d="M268 -54l-253 716h252l252 -716h-251z" />
    <glyph glyph-name="bracketright" unicode="]" horiz-adv-x="396" 
d="M11 -99l-6 184h134v437h-133l6 184h369v-805h-370z" />
    <glyph glyph-name="asciicircum" unicode="^" horiz-adv-x="566" 
d="M15 363l182 261h161l193 -261h-221l-47 87l-46 -87h-222z" />
    <glyph glyph-name="underscore" unicode="_" horiz-adv-x="508" 
d="M15 -154v154h478v-154h-478z" />
    <glyph glyph-name="grave" unicode="`" horiz-adv-x="332" 
d="M130 522l-105 226h186l96 -226h-177z" />
    <glyph glyph-name="a" unicode="a" horiz-adv-x="587" 
d="M182 -10q-45 0 -83 16t-61 51t-23 91q0 80 50.5 121t155.5 41h106v5q0 11 -21 19.5t-64 8.5q-38 0 -82.5 -6.5t-84.5 -18.5v130q39 17 99.5 26.5t115.5 9.5q79 0 139 -21.5t94 -66t34 -113.5v-283h-212l-10 34q-24 -19 -61.5 -31.5t-91.5 -12.5zM273 122q19 0 31.5 6
t22.5 16v44h-44q-45 0 -45 -33t35 -33z" />
    <glyph glyph-name="b" unicode="b" horiz-adv-x="628" 
d="M389 -10q-43 0 -75 11t-58 30l-11 -31h-210v674h242v-208q19 8 48 13t55 5q110 0 171.5 -55t61.5 -188q0 -127 -61.5 -189t-162.5 -62zM319 163q22 0 34.5 15.5t12.5 58.5t-12.5 58.5t-34.5 15.5q-24 0 -42 -15v-118q10 -7 19.5 -11t22.5 -4z" />
    <glyph glyph-name="c" unicode="c" horiz-adv-x="520" 
d="M312 -10q-87 0 -154 26.5t-105 81.5t-38 139q0 85 37.5 139.5t104 81t153.5 26.5q56 0 103 -7.5t90 -27.5v-168q-32 16 -67 23t-72 7q-52 0 -77 -16.5t-25 -57.5q0 -40 26 -57t78 -17q37 0 72 10.5t67 27.5v-176q-43 -19 -90 -27t-103 -8z" />
    <glyph glyph-name="d" unicode="d" horiz-adv-x="628" 
d="M239 -10q-67 0 -117.5 23t-78.5 74t-28 135q0 89 30 147t82.5 86.5t120.5 28.5q26 0 55 -5t48 -13v208h242v-674h-210l-11 31q-26 -19 -57.5 -30t-75.5 -11zM309 163q14 0 23 4t19 11v118q-18 15 -42 15q-22 0 -34.5 -22t-12.5 -65t12.5 -52t34.5 -9z" />
    <glyph glyph-name="e" unicode="e" horiz-adv-x="567" 
d="M310 -10q-84 0 -150.5 28t-105.5 82.5t-39 134.5q0 113 67.5 181t201.5 68q122 0 195 -60t73 -171v-81h-316q15 -19 49.5 -29.5t89.5 -10.5q45 0 87 7.5t66 16.5v-130q-75 -36 -218 -36zM236 293h109v9q0 14 -11 26.5t-42 12.5q-30 0 -43 -14t-13 -34z" />
    <glyph glyph-name="f" unicode="f" horiz-adv-x="425" 
d="M66 0v300h-56v174h56v15q0 58 22.5 103t67.5 71.5t112 26.5q46 0 81 -6.5t66 -20.5v-150q-29 10 -60 10q-47 0 -47 -40v-9h103l-10 -174h-93v-300h-242z" />
    <glyph glyph-name="g" unicode="g" horiz-adv-x="591" 
d="M258 -176q-35 0 -79 2.5t-84 8t-63 13.5v138q27 -9 64 -14.5t76 -8t71 -2.5q38 0 67 3t29 13q0 8 -11.5 9.5t-30.5 1.5h-114q-83 0 -125.5 22t-42.5 71q0 35 21 58.5t58 34.5q-40 21 -58 51t-18 79q0 93 68 136.5t191 43.5q18 0 40.5 -1.5t42 -4t28.5 -4.5h193l-4 -143
h-52q2 -6 4 -14.5t2 -15.5q0 -73 -39.5 -114.5t-131.5 -41.5q-10 0 -25 0.5t-26 1.5q-14 -1 -25.5 -4.5t-11.5 -13.5q0 -8 7 -10.5t19 -2.5h84q74 0 119 -32.5t45 -102.5q0 -69 -67.5 -113t-220.5 -44zM279 275q28 0 38.5 9t10.5 30q0 22 -11.5 31.5t-37.5 9.5
q-49 0 -49 -41q0 -20 11 -29.5t38 -9.5z" />
    <glyph glyph-name="h" unicode="h" horiz-adv-x="626" 
d="M35 0v674h242v-218q20 11 53.5 19.5t70.5 8.5q101 0 148 -47t47 -145v-292h-242v272q0 34 -33 34q-10 0 -23.5 -6t-20.5 -14v-286h-242z" />
    <glyph glyph-name="i" unicode="i" horiz-adv-x="363" 
d="M69 513v167h259v-167h-259zM86 0v300h-66l20 174h288v-474h-242z" />
    <glyph glyph-name="j" unicode="j" horiz-adv-x="384" 
d="M90 513v167h259v-167h-259zM147 -234q-46 0 -80.5 7t-66.5 20v150q29 -10 60 -10q47 0 47 40v327h-66l20 174h288v-517q0 -55 -20.5 -98t-65 -68t-116.5 -25z" />
    <glyph glyph-name="k" unicode="k" horiz-adv-x="656" 
d="M35 0v674h242v-295l87 95h272l-187 -205l197 -269h-256l-91 143l-22 -25v-118h-242z" />
    <glyph glyph-name="l" unicode="l" horiz-adv-x="367" 
d="M225 -10q-105 0 -147.5 42t-42.5 130v512h242v-480q0 -19 7.5 -28t27.5 -9q28 0 50 9v-150q-31 -13 -59 -19.5t-78 -6.5z" />
    <glyph glyph-name="m" unicode="m" horiz-adv-x="869" 
d="M35 0v474h224l5 -29q28 16 64 27.5t82 11.5q42 0 66.5 -11t40.5 -33q32 20 70.5 32t90.5 12q85 0 123 -44.5t38 -134.5v-305h-237v276q0 16 -5.5 23t-22.5 7q-16 0 -28 -13v-293h-223v282q0 24 -22 24q-19 0 -34 -18v-288h-232z" />
    <glyph glyph-name="n" unicode="n" horiz-adv-x="626" 
d="M35 0v474h227l5 -27q26 14 70.5 25.5t96.5 11.5q85 0 123.5 -44.5t38.5 -134.5v-305h-242v274q0 32 -33 32q-10 0 -23.5 -6t-20.5 -14v-286h-242z" />
    <glyph glyph-name="o" unicode="o" horiz-adv-x="627" 
d="M313 -10q-151 0 -224.5 62t-73.5 185t73.5 185t224.5 62q299 0 299 -247t-299 -247zM313 163q26 0 39 16t13 58t-13 58t-39 16q-25 0 -38 -16t-13 -58t13 -58t38 -16z" />
    <glyph glyph-name="p" unicode="p" horiz-adv-x="628" 
d="M35 -200v674h210l11 -31q26 19 58 30t75 11q107 0 165.5 -57t58.5 -184t-61.5 -190t-171.5 -63q-26 0 -55 5.5t-48 12.5v-208h-242zM319 163q22 0 34.5 17t12.5 60t-12.5 57t-34.5 14q-13 0 -22.5 -3.5t-19.5 -11.5v-118q18 -15 42 -15z" />
    <glyph glyph-name="q" unicode="q" horiz-adv-x="623" 
d="M536 -242q-97 0 -141 42t-44 130v78q-19 -7 -48 -12.5t-55 -5.5q-109 0 -171 55.5t-62 182.5t62 191.5t165 64.5q44 0 74 -11t56 -30l11 31h210v-512q0 -19 6.5 -28t23.5 -9q28 0 50 9v-150q-31 -13 -59 -19.5t-78 -6.5zM309 163q24 0 42 15v118q-10 8 -17.5 11.5
t-21.5 3.5q-22 0 -36 -18t-14 -61t12.5 -56t34.5 -13z" />
    <glyph glyph-name="r" unicode="r" horiz-adv-x="444" 
d="M35 0v474h237l5 -27q26 14 68.5 25.5t88.5 11.5v-178q-37 0 -83 -5t-74 -15v-286h-242z" />
    <glyph glyph-name="s" unicode="s" horiz-adv-x="507" 
d="M239 -10q-68 0 -128 10t-92 24v153q24 -12 56 -21t63.5 -14t52.5 -5q23 0 38.5 1t15.5 10q0 8 -16 13t-40.5 11t-50.5 15q-65 24 -94 54.5t-29 87.5q0 76 63 115.5t193 39.5q32 0 70 -3.5t71.5 -8.5t53.5 -12v-152q-32 14 -69 21.5t-65 7.5q-14 0 -30.5 -0.5t-28 -3
t-11.5 -9.5q0 -10 30.5 -15.5t67.5 -16.5q52 -15 80.5 -33.5t40 -45t11.5 -65.5q0 -73 -64 -115.5t-189 -42.5z" />
    <glyph glyph-name="t" unicode="t" horiz-adv-x="406" 
d="M259 -10q-109 0 -155.5 53t-46.5 143v114h-57v174h57v93l242 49v-142h97l-5 -174h-92v-101q0 -42 47 -42q31 0 60 10v-150q-31 -13 -66 -20t-81 -7z" />
    <glyph glyph-name="u" unicode="u" horiz-adv-x="626" 
d="M204 -10q-80 0 -127 47t-47 137v300h242v-274q0 -32 33 -32q11 0 24 6t20 14v286h242v-474h-227l-5 27q-26 -16 -66.5 -26.5t-88.5 -10.5z" />
    <glyph glyph-name="v" unicode="v" horiz-adv-x="657" 
d="M203 0l-188 474h252l61 -218l62 218h252l-188 -474h-251z" />
    <glyph glyph-name="w" unicode="w" horiz-adv-x="814" 
d="M141 0l-126 474h230l40 -162l30 88v74h174l42 -162l38 162h230l-126 -474h-213l-52 153l-52 -153h-215z" />
    <glyph glyph-name="x" unicode="x" horiz-adv-x="652" 
d="M10 0l185 241l-177 233h261l47 -62l47 62h261l-177 -233l185 -241h-264l-52 68l-52 -68h-264z" />
    <glyph glyph-name="y" unicode="y" horiz-adv-x="677" 
d="M229 -176q-49 0 -79.5 5t-61.5 18v154q29 -10 60 -10q30 0 50 4.5t34 19.5l-217 459h253l83 -236l79 236h252l-163 -417q-43 -109 -112 -171t-178 -62z" />
    <glyph glyph-name="z" unicode="z" horiz-adv-x="506" 
d="M15 0v127l159 162h-154v185h463v-140l-151 -160h159v-174h-476z" />
    <glyph glyph-name="braceleft" unicode="{" horiz-adv-x="349" 
d="M197 -104q-73 0 -111 42.5t-38 118.5v101q0 35 -13 51.5t-40 20.5v136q27 4 40 21t13 52v101q0 77 38 119t111 42h147v-184h-33q-31 0 -31 -33v-90q0 -34 -12 -56.5t-30 -39.5q18 -16 30 -38.5t12 -57.5v-89q0 -33 31 -33h33v-184h-147z" />
    <glyph glyph-name="bar" unicode="|" horiz-adv-x="272" 
d="M15 -120v855h242v-855h-242z" />
    <glyph glyph-name="braceright" unicode="}" horiz-adv-x="349" 
d="M5 -104v184h33q31 0 31 33v89q0 35 12 57.5t30 38.5q-18 17 -30 39.5t-12 56.5v90q0 33 -31 33h-33v184h147q73 0 111 -42t38 -119v-101q0 -35 13 -52t40 -21v-136q-27 -4 -40 -20.5t-13 -51.5v-101q0 -76 -38 -118.5t-111 -42.5h-147z" />
    <glyph glyph-name="asciitilde" unicode="~" horiz-adv-x="517" 
d="M382 173q-33 0 -63.5 9.5t-60 22t-60 22t-62.5 9.5q-38 0 -67.5 -12.5t-53.5 -43.5v203q17 23 50.5 35.5t70.5 12.5q34 0 65 -9.5t61 -22t59.5 -22t60.5 -9.5q38 0 67 12.5t53 43.5v-203q-17 -24 -49.5 -36t-70.5 -12z" />
    <glyph glyph-name="uni00A0" unicode="&#xa0;" horiz-adv-x="195" 
 />
    <glyph glyph-name="exclamdown" unicode="&#xa1;" horiz-adv-x="280" 
d="M15 307v167h250v-167h-250zM19 -170v180l7 265h228l7 -265v-180h-242z" />
    <glyph glyph-name="cent" unicode="&#xa2;" horiz-adv-x="520" 
d="M184 -86v93q-78 23 -123.5 80t-45.5 150t45.5 150t123.5 80v93h210v-81q58 -7 109 -30v-168q-32 16 -67 23t-72 7q-52 0 -77 -16.5t-25 -57.5q0 -40 26 -57t78 -17q37 0 72 10.5t67 27.5v-176q-26 -12 -53.5 -19t-57.5 -11v-81h-210z" />
    <glyph glyph-name="sterling" unicode="&#xa3;" horiz-adv-x="481" 
d="M15 0v174h23q20 0 26.5 9.5t6.5 22.5v33h-56v174h56v40q0 58 22.5 103t67.5 71.5t112 26.5q46 0 81 -6.5t66 -20.5v-150q-29 10 -60 10q-47 0 -47 -40v-34h103l-10 -174h-93v-17q0 -17 -4 -27.5t-14 -20.5h171v-174h-451z" />
    <glyph glyph-name="currency" unicode="&#xa4;" horiz-adv-x="574" 
d="M119 23l-104 126l74 54q-11 33 -11 66t11 66l-73 55l103 125l79 -63q39 18 88 18q51 0 90 -19l80 62l103 -124l-76 -54q12 -31 12 -66q0 -16 -3.5 -33t-8.5 -32l74 -57l-101 -123l-81 62q-41 -19 -88 -19q-23 0 -45.5 5t-42.5 13zM286 224q20 0 33.5 13.5t13.5 32.5
q0 20 -13.5 33.5t-33.5 13.5q-19 0 -32.5 -13.5t-13.5 -33.5q0 -19 13.5 -32.5t32.5 -13.5z" />
    <glyph glyph-name="yen" unicode="&#xa5;" horiz-adv-x="738" 
d="M248 0v55h-123v113h123v46h-123v113h70l-180 317h252l102 -205l102 205h252l-180 -317h68v-113h-121v-46h121v-113h-121v-55h-242z" />
    <glyph glyph-name="brokenbar" unicode="&#xa6;" horiz-adv-x="272" 
d="M15 363v372h242v-372h-242zM15 -120v372h242v-372h-242z" />
    <glyph glyph-name="section" unicode="&#xa7;" horiz-adv-x="560" 
d="M258 -10q-68 0 -131 11.5t-106 33.5v181q47 -23 106 -38t105 -15q30 0 47 7.5t17 21.5q0 18 -32 28t-84 29q-62 24 -98 48t-51.5 57.5t-15.5 83.5q0 20 7.5 40t16.5 33q-9 13 -16 33t-7 42q0 179 282 179q32 0 71.5 -4.5t77 -11.5t63.5 -15v-182q-55 23 -97 31t-74 8
q-25 0 -51 -4.5t-26 -20.5q0 -13 23 -20.5t73 -21.5q80 -22 120 -47.5t53.5 -59t13.5 -80.5q0 -24 -7 -47t-18 -35q25 -28 25 -71q0 -92 -72 -143t-215 -51zM371 335q3 5 3 11q0 15 -24.5 28t-63.5 22q-19 5 -43 13t-32 16q-2 -6 -2 -12q0 -16 22.5 -26.5t59.5 -19.5
q22 -5 47 -14t33 -18z" />
    <glyph glyph-name="dieresis" unicode="&#xa8;" horiz-adv-x="441" 
d="M250 540v161h176v-161h-176zM15 540v161h176v-161h-176z" />
    <glyph glyph-name="copyright" unicode="&#xa9;" horiz-adv-x="694" 
d="M347 -10q-69 0 -129 26t-105.5 71.5t-71.5 105.5t-26 129t26 129t71.5 105.5t105.5 71.5t129 26t129 -26t105.5 -71.5t71.5 -105.5t26 -129t-26 -129t-71.5 -105.5t-105.5 -71.5t-129 -26zM347 108q59 0 106.5 27t75 75t27.5 112t-27.5 112t-75 75t-106.5 27t-106.5 -27
t-75 -75t-27.5 -112t27.5 -112t75 -75t106.5 -27zM351 141q-51 0 -91.5 22t-64 63t-23.5 97q0 57 23 98t63.5 63t91.5 22q41 0 70.5 -11.5t55.5 -31.5v-100q-43 27 -86 27q-22 0 -43.5 -13t-21.5 -54q0 -42 21 -54t43 -12q51 0 89 32v-106q-27 -19 -58.5 -30.5t-68.5 -11.5z
" />
    <glyph glyph-name="ordfeminine" unicode="&#xaa;" horiz-adv-x="331" 
d="M108 380q-38 0 -65.5 21t-27.5 67q0 89 114 89h59v3q0 16 -47 16q-21 0 -45.5 -3.5t-47.5 -10.5v72q22 9 55.5 14.5t64.5 5.5q65 0 106.5 -27t41.5 -84v-157h-118l-6 18q-13 -10 -33.5 -17t-50.5 -7zM158 453q11 0 18 3.5t12 8.5v25h-24q-25 0 -25 -18q0 -19 19 -19z" />
    <glyph glyph-name="guillemotleft" unicode="&#xab;" horiz-adv-x="718" 
d="M613 37l-278 205v82l278 205l90 -131l-156 -115l156 -115zM293 37l-278 205v82l278 205l90 -131l-156 -115l156 -115z" />
    <glyph glyph-name="logicalnot" unicode="&#xac;" horiz-adv-x="494" 
d="M295 102v103h-280v184h464v-287h-184z" />
    <glyph glyph-name="uni00AD" unicode="&#xad;" horiz-adv-x="434" 
d="M15 205v184h404v-184h-404z" />
    <glyph glyph-name="registered" unicode="&#xae;" horiz-adv-x="694" 
d="M347 -10q-69 0 -129 26t-105.5 71.5t-71.5 105.5t-26 129t26 129t71.5 105.5t105.5 71.5t129 26t129 -26t105.5 -71.5t71.5 -105.5t26 -129t-26 -129t-71.5 -105.5t-105.5 -71.5t-129 -26zM347 108q59 0 106.5 27t75 75t27.5 112t-27.5 112t-75 75t-106.5 27t-106.5 -27
t-75 -75t-27.5 -112t27.5 -112t75 -75t106.5 -27zM211 169v314h186q60 0 89.5 -33.5t29.5 -83.5q0 -68 -62 -99q7 -6 11 -17l26 -81h-119l-20 70q-3 11 -12 11h-4v-81h-125zM336 342h26q29 0 29 24t-26 24h-29v-48z" />
    <glyph glyph-name="macron" unicode="&#xaf;" horiz-adv-x="297" 
d="M-25 554v140h349v-140h-349z" />
    <glyph glyph-name="degree" unicode="&#xb0;" horiz-adv-x="285" 
d="M142 490q-33 0 -62 14.5t-47 42t-18 65.5q0 59 38.5 91t88.5 32q52 0 90 -32t38 -91q0 -58 -38 -90t-90 -32zM142 580q14 0 23 9.5t9 22.5q0 14 -9 23t-23 9q-13 0 -22.5 -9t-9.5 -23q0 -13 9.5 -22.5t22.5 -9.5z" />
    <glyph glyph-name="plusminus" unicode="&#xb1;" horiz-adv-x="454" 
d="M135 221v105h-120v184h120v105h184v-105h120v-184h-120v-105h-184zM15 0v184h424v-184h-424z" />
    <glyph glyph-name="uni00B2" unicode="&#xb2;" horiz-adv-x="314" 
d="M15 370v61q15 17 27.5 27t33.5 24q27 18 33 25t6 17q0 11 -9 14t-23 3q-13 0 -32 -5.5t-33 -13.5v109q22 8 61 15.5t79 7.5q68 0 103.5 -24t35.5 -65q0 -25 -8 -39.5t-23 -27.5l-27 -22h60v-106h-284z" />
    <glyph glyph-name="uni00B3" unicode="&#xb3;" horiz-adv-x="319" 
d="M146 362q-12 0 -38.5 2t-53 6t-39.5 9v85q20 -10 43.5 -14t39.5 -4q37 0 37 15q0 12 -26 12h-51l5 71h44q13 0 18 2t5 9q0 13 -35 13q-44 0 -76 -17v85q13 5 35.5 9t47.5 6.5t44 2.5q80 0 116.5 -25.5t36.5 -61.5q0 -35 -22 -59q13 -7 20 -20t7 -35q0 -46 -40.5 -68.5
t-117.5 -22.5z" />
    <glyph glyph-name="acute" unicode="&#xb4;" horiz-adv-x="332" 
d="M25 522l96 226h186l-105 -226h-177z" />
    <glyph glyph-name="uni00B5" unicode="&#xb5;" horiz-adv-x="631" 
d="M35 -143v617h242v-274q0 -32 33 -32q11 0 24 6t20 14v286h242v-474h-227l-5 27q-13 -15 -37 -26t-50 -11v-133h-242z" />
    <glyph glyph-name="paragraph" unicode="&#xb6;" horiz-adv-x="678" 
d="M211 -77v330q-85 0 -140.5 55.5t-55.5 168.5q0 81 32.5 132.5t88.5 76t125 24.5h402v-787h-202v613h-52v-613h-198z" />
    <glyph glyph-name="periodcentered" unicode="&#xb7;" horiz-adv-x="216" 
d="M15 203v169h186v-169h-186z" />
    <glyph glyph-name="cedilla" unicode="&#xb8;" horiz-adv-x="228" 
d="M82 -240q-12 0 -30 1t-34 3t-24 4v77q29 -8 58 -8q67 0 67 35q0 16 -10 22t-27 6h-74l28 100h121l-13 -37q50 0 79 -27.5t29 -68.5q0 -49 -42.5 -78t-127.5 -29z" />
    <glyph glyph-name="uni00B9" unicode="&#xb9;" horiz-adv-x="232" 
d="M62 370v123l-47 -10v128l222 43v-284h-175z" />
    <glyph glyph-name="ordmasculine" unicode="&#xba;" horiz-adv-x="361" 
d="M180 380q-165 0 -165 137t165 137q166 0 166 -137t-166 -137zM180 476q14 0 21.5 9t7.5 32t-7.5 32t-21.5 9t-21 -9t-7 -32t7 -32t21 -9z" />
    <glyph glyph-name="guillemotright" unicode="&#xbb;" horiz-adv-x="718" 
d="M425 37l-90 131l156 115l-156 115l90 131l278 -205v-82zM105 37l-90 131l156 115l-156 115l90 131l278 -205v-82z" />
    <glyph glyph-name="onequarter" unicode="&#xbc;" horiz-adv-x="713" 
d="M62 370v123l-47 -10v128l222 43v-284h-175zM71 0l334 644h228l-334 -644h-228zM507 0v34h-117v97l122 153h157v-145h29v-105h-29v-34h-162zM518 130h39v48z" />
    <glyph glyph-name="onehalf" unicode="&#xbd;" horiz-adv-x="746" 
d="M62 370v123l-47 -10v128l222 43v-284h-175zM71 0l334 644h228l-334 -644h-228zM447 0v61q15 17 27.5 27t33.5 24q27 18 33 25t6 17q0 11 -9 14t-23 3q-13 0 -32 -5.5t-33 -13.5v109q22 8 61 15.5t79 7.5q68 0 103.5 -24t35.5 -65q0 -25 -8 -39.5t-23 -27.5l-27 -22h60
v-106h-284z" />
    <glyph glyph-name="threequarters" unicode="&#xbe;" horiz-adv-x="739" 
d="M146 362q-12 0 -38.5 2t-53 6t-39.5 9v85q20 -10 43.5 -14t39.5 -4q37 0 37 15q0 12 -26 12h-51l5 71h44q13 0 18 2t5 9q0 13 -35 13q-44 0 -76 -17v85q13 5 35.5 9t47.5 6.5t44 2.5q80 0 116.5 -25.5t36.5 -61.5q0 -35 -22 -59q13 -7 20 -20t7 -35q0 -46 -40.5 -68.5
t-117.5 -22.5zM97 0l334 644h228l-334 -644h-228zM533 0v34h-117v97l122 153h157v-145h29v-105h-29v-34h-162zM544 130h39v48z" />
    <glyph glyph-name="questiondown" unicode="&#xbf;" horiz-adv-x="510" 
d="M165 307v167h250v-167h-250zM277 -180q-126 0 -194 51.5t-68 143.5q0 53 17 89.5t63 74.5q20 17 39.5 30.5t32.5 27t13 30.5v8h220v-15q0 -31 -6.5 -51.5t-22 -38.5t-43.5 -42q-34 -29 -50 -44t-16 -40q0 -51 86 -51q43 0 82.5 12.5t64.5 27.5v-167q-43 -22 -100.5 -34
t-117.5 -12z" />
    <glyph glyph-name="Agrave" unicode="&#xc0;" horiz-adv-x="777" 
d="M297 688l-105 226h186l96 -226h-177zM15 0l248 644h251l248 -644h-252l-46 120h-151l-46 -120h-252zM339 285h98l-49 123z" />
    <glyph glyph-name="Aacute" unicode="&#xc1;" horiz-adv-x="777" 
d="M296 688l96 226h186l-105 -226h-177zM15 0l248 644h251l248 -644h-252l-46 120h-151l-46 -120h-252zM339 285h98l-49 123z" />
    <glyph glyph-name="Acircumflex" unicode="&#xc2;" horiz-adv-x="777" 
d="M143 688l175 216h141l175 -216h-168l-77 107l-73 -107h-173zM15 0l248 644h251l248 -644h-252l-46 120h-151l-46 -120h-252zM339 285h98l-49 123z" />
    <glyph glyph-name="Atilde" unicode="&#xc3;" horiz-adv-x="777" 
d="M494 693q-36 0 -70.5 11t-67 22t-63.5 11q-34 0 -60.5 -11.5t-44.5 -29.5v141q15 14 43 24.5t59 10.5q37 0 69.5 -11l65 -22t66.5 -11q35 0 60.5 12.5t37.5 28.5v-141q-10 -13 -36.5 -24t-58.5 -11zM15 0l248 644h251l248 -644h-252l-46 120h-151l-46 -120h-252zM339 285
h98l-49 123z" />
    <glyph glyph-name="Adieresis" unicode="&#xc4;" horiz-adv-x="777" 
d="M193 717v141h156v-141h-156zM428 717v141h156v-141h-156zM15 0l248 644h251l248 -644h-252l-46 120h-151l-46 -120h-252zM339 285h98l-49 123z" />
    <glyph glyph-name="Aring" unicode="&#xc5;" horiz-adv-x="777" 
d="M15 0l248 643q-28 36 -28 88q0 61 39 102.5t114 41.5q76 0 115 -41.5t39 -102.5q0 -52 -28 -88l248 -643h-252l-46 120h-151l-46 -120h-252zM388 680q28 0 41 15.5t13 35.5t-13 35.5t-41 15.5t-41 -15.5t-13 -35.5t13 -35.5t41 -15.5zM339 285h98l-49 123z" />
    <glyph glyph-name="AE" unicode="&#xc6;" horiz-adv-x="874" 
d="M15 0l248 644h596v-174h-223v-58h185v-180h-185v-58h223v-174h-455v120h-91l-46 -120h-252zM339 285h65v185h-6z" />
    <glyph glyph-name="Ccedilla" unicode="&#xc7;" horiz-adv-x="618" 
d="M372 -240q-12 0 -30 1t-34 3t-24 4v77q29 -8 58 -8q67 0 67 35q0 16 -10 22t-27 6h-74l26 94q-152 16 -230.5 98.5t-78.5 229.5q0 164 96.5 248t286.5 84q62 0 109.5 -9t93.5 -26v-211q-91 42 -187 42q-70 0 -111 -27.5t-41 -100.5t42 -100.5t112 -27.5q96 0 187 42v-211
q-37 -13 -75 -22t-84 -12l-10 -28q50 0 79 -27.5t29 -68.5q0 -49 -42.5 -78t-127.5 -29z" />
    <glyph glyph-name="Egrave" unicode="&#xc8;" horiz-adv-x="555" 
d="M222 688l-105 226h186l96 -226h-177zM35 0v644h515v-174h-273v-58h235v-180h-235v-58h273v-174h-515z" />
    <glyph glyph-name="Eacute" unicode="&#xc9;" horiz-adv-x="555" 
d="M178 688l96 226h186l-105 -226h-177zM35 0v644h515v-174h-273v-58h235v-180h-235v-58h273v-174h-515z" />
    <glyph glyph-name="Ecircumflex" unicode="&#xca;" horiz-adv-x="555" 
d="M48 688l175 216h141l175 -216h-168l-77 107l-73 -107h-173zM35 0v644h515v-174h-273v-58h235v-180h-235v-58h273v-174h-515z" />
    <glyph glyph-name="Edieresis" unicode="&#xcb;" horiz-adv-x="555" 
d="M101 718v141h156v-141h-156zM336 718v141h156v-141h-156zM35 0v644h515v-174h-273v-58h235v-180h-235v-58h273v-174h-515z" />
    <glyph glyph-name="Igrave" unicode="&#xcc;" horiz-adv-x="312" 
d="M66 688l-105 226h186l96 -226h-177zM35 0v644h242v-644h-242z" />
    <glyph glyph-name="Iacute" unicode="&#xcd;" horiz-adv-x="312" 
d="M63 688l96 226h186l-105 -226h-177zM35 0v644h242v-644h-242z" />
    <glyph glyph-name="Icircumflex" unicode="&#xce;" horiz-adv-x="312" 
d="M-89 688l175 216h141l175 -216h-168l-77 107l-73 -107h-173zM35 0v644h242v-644h-242z" />
    <glyph glyph-name="Idieresis" unicode="&#xcf;" horiz-adv-x="312" 
d="M-39 728v141h156v-141h-156zM196 728v141h156v-141h-156zM35 0v644h242v-644h-242z" />
    <glyph glyph-name="Eth" unicode="&#xd0;" horiz-adv-x="734" 
d="M79 0v238h-84v154h84v252h306q102 0 177 -32.5t116 -104t41 -189.5q0 -112 -40.5 -182t-115 -103t-178.5 -33h-306zM321 184h36q36 0 62 10t40 39t14 85t-13 83.5t-38.5 36t-64.5 8.5h-36v-54h61v-154h-61v-54z" />
    <glyph glyph-name="Ntilde" unicode="&#xd1;" horiz-adv-x="695" 
d="M459 693q-36 0 -70.5 11t-67 22t-63.5 11q-34 0 -60.5 -11.5t-44.5 -29.5v141q15 14 43 24.5t59 10.5q37 0 69.5 -11l65 -22t66.5 -11q35 0 60.5 12.5t37.5 28.5v-141q-10 -13 -36.5 -24t-58.5 -11zM35 0v644h203l180 -252v252h242v-644h-204l-179 252v-252h-242z" />
    <glyph glyph-name="Ograve" unicode="&#xd2;" horiz-adv-x="720" 
d="M277 688l-105 226h186l96 -226h-177zM360 -10q-109 0 -186 32.5t-118 105.5t-41 194q0 122 41 194.5t118 105t186 32.5t186 -32.5t118 -105t41 -194.5q0 -121 -41 -194t-118 -105.5t-186 -32.5zM360 195q53 0 75.5 28.5t22.5 98.5t-22.5 98.5t-75.5 28.5t-75.5 -28.5
t-22.5 -98.5t22.5 -98.5t75.5 -28.5z" />
    <glyph glyph-name="Oacute" unicode="&#xd3;" horiz-adv-x="720" 
d="M252 688l96 226h186l-105 -226h-177zM360 -10q-109 0 -186 32.5t-118 105.5t-41 194q0 122 41 194.5t118 105t186 32.5t186 -32.5t118 -105t41 -194.5q0 -121 -41 -194t-118 -105.5t-186 -32.5zM360 195q53 0 75.5 28.5t22.5 98.5t-22.5 98.5t-75.5 28.5t-75.5 -28.5
t-22.5 -98.5t22.5 -98.5t75.5 -28.5z" />
    <glyph glyph-name="Ocircumflex" unicode="&#xd4;" horiz-adv-x="720" 
d="M115 688l175 216h141l175 -216h-168l-77 107l-73 -107h-173zM360 -10q-109 0 -186 32.5t-118 105.5t-41 194q0 122 41 194.5t118 105t186 32.5t186 -32.5t118 -105t41 -194.5q0 -121 -41 -194t-118 -105.5t-186 -32.5zM360 195q53 0 75.5 28.5t22.5 98.5t-22.5 98.5
t-75.5 28.5t-75.5 -28.5t-22.5 -98.5t22.5 -98.5t75.5 -28.5z" />
    <glyph glyph-name="Otilde" unicode="&#xd5;" horiz-adv-x="720" 
d="M466 713q-36 0 -70.5 11t-67 22t-63.5 11q-34 0 -60.5 -11.5t-44.5 -29.5v141q15 14 43 24.5t59 10.5q37 0 69.5 -11l65 -22t66.5 -11q35 0 60.5 12.5t37.5 28.5v-141q-10 -13 -36.5 -24t-58.5 -11zM360 -10q-109 0 -186 32.5t-118 105.5t-41 194q0 122 41 194.5t118 105
t186 32.5t186 -32.5t118 -105t41 -194.5q0 -121 -41 -194t-118 -105.5t-186 -32.5zM360 195q53 0 75.5 28.5t22.5 98.5t-22.5 98.5t-75.5 28.5t-75.5 -28.5t-22.5 -98.5t22.5 -98.5t75.5 -28.5z" />
    <glyph glyph-name="Odieresis" unicode="&#xd6;" horiz-adv-x="720" 
d="M165 718v141h156v-141h-156zM400 718v141h156v-141h-156zM360 -10q-109 0 -186 32.5t-118 105.5t-41 194q0 122 41 194.5t118 105t186 32.5t186 -32.5t118 -105t41 -194.5q0 -121 -41 -194t-118 -105.5t-186 -32.5zM360 195q53 0 75.5 28.5t22.5 98.5t-22.5 98.5
t-75.5 28.5t-75.5 -28.5t-22.5 -98.5t22.5 -98.5t75.5 -28.5z" />
    <glyph glyph-name="multiply" unicode="&#xd7;" horiz-adv-x="439" 
d="M310 48l-89 90l-87 -86l-116 115l87 86l-90 90l116 116l87 -91l91 89l115 -115l-90 -90l90 -90z" />
    <glyph glyph-name="Oslash" unicode="&#xd8;" horiz-adv-x="720" 
d="M168 -53l27 67q-87 30 -133.5 104t-46.5 204q0 122 41 194.5t118 105t186 32.5q25 0 48 -1.5t45 -5.5l19 46h77l-26 -63q88 -30 135 -104t47 -204q0 -121 -41 -194t-118 -105.5t-186 -32.5q-25 0 -49 1.5t-46 5.5l-20 -50h-77zM279 220l95 234q-3 1 -6.5 1h-7.5
q-56 0 -79.5 -29.5t-23.5 -103.5q0 -36 5 -61t17 -41zM343 189h17q56 0 79.5 30t23.5 103q0 72 -24 103z" />
    <glyph glyph-name="Ugrave" unicode="&#xd9;" horiz-adv-x="704" 
d="M264 688l-105 226h186l96 -226h-177zM352 -10q-91 0 -164 30t-115.5 89t-42.5 145v390h242v-359q0 -90 80 -90t80 90v359h242v-390q0 -86 -42.5 -145t-115.5 -89t-164 -30z" />
    <glyph glyph-name="Uacute" unicode="&#xda;" horiz-adv-x="704" 
d="M264 688l96 226h186l-105 -226h-177zM352 -10q-91 0 -164 30t-115.5 89t-42.5 145v390h242v-359q0 -90 80 -90t80 90v359h242v-390q0 -86 -42.5 -145t-115.5 -89t-164 -30z" />
    <glyph glyph-name="Ucircumflex" unicode="&#xdb;" horiz-adv-x="704" 
d="M107 688l175 216h141l175 -216h-168l-77 107l-73 -107h-173zM352 -10q-91 0 -164 30t-115.5 89t-42.5 145v390h242v-359q0 -90 80 -90t80 90v359h242v-390q0 -86 -42.5 -145t-115.5 -89t-164 -30z" />
    <glyph glyph-name="Udieresis" unicode="&#xdc;" horiz-adv-x="704" 
d="M157 718v141h156v-141h-156zM392 718v141h156v-141h-156zM352 -10q-91 0 -164 30t-115.5 89t-42.5 145v390h242v-359q0 -90 80 -90t80 90v359h242v-390q0 -86 -42.5 -145t-115.5 -89t-164 -30z" />
    <glyph glyph-name="Yacute" unicode="&#xdd;" horiz-adv-x="738" 
d="M280 688l96 226h186l-105 -226h-177zM248 0v234l-233 410h252l102 -205l102 205h252l-233 -410v-234h-242z" />
    <glyph glyph-name="Thorn" unicode="&#xde;" horiz-adv-x="636" 
d="M35 0v644h242v-72h120q83 0 137 -34t80.5 -91t26.5 -126q0 -70 -30.5 -126.5t-86 -89.5t-131.5 -33h-116v-72h-242zM277 261h59q29 0 44 16t15 44q0 62 -55 62h-63v-122z" />
    <glyph glyph-name="germandbls" unicode="&#xdf;" horiz-adv-x="657" 
d="M416 -10q-38 0 -73.5 6t-55.5 16v154q11 -4 29.5 -6.5t31.5 -2.5q27 0 37 14t10 36q0 19 -12 29.5t-41 10.5h-54v150h42q65 0 65 52q0 21 -16.5 34t-51.5 13q-40 0 -55 -20t-15 -46v-430h-227v448q0 76 33.5 132.5t97.5 88t154 31.5q103 0 170.5 -35t101 -89.5
t33.5 -113.5q0 -48 -16.5 -82t-43.5 -54q38 -18 60 -46.5t22 -84.5q0 -91 -59.5 -148t-166.5 -57z" />
    <glyph glyph-name="agrave" unicode="&#xe0;" horiz-adv-x="587" 
d="M217 522l-105 226h186l96 -226h-177zM182 -10q-45 0 -83 16t-61 51t-23 91q0 80 50.5 121t155.5 41h106v5q0 11 -21 19.5t-64 8.5q-38 0 -82.5 -6.5t-84.5 -18.5v130q39 17 99.5 26.5t115.5 9.5q79 0 139 -21.5t94 -66t34 -113.5v-283h-212l-10 34q-24 -19 -61.5 -31.5
t-91.5 -12.5zM273 122q19 0 31.5 6t22.5 16v44h-44q-45 0 -45 -33t35 -33z" />
    <glyph glyph-name="aacute" unicode="&#xe1;" horiz-adv-x="587" 
d="M207 522l96 226h186l-105 -226h-177zM182 -10q-45 0 -83 16t-61 51t-23 91q0 80 50.5 121t155.5 41h106v5q0 11 -21 19.5t-64 8.5q-38 0 -82.5 -6.5t-84.5 -18.5v130q39 17 99.5 26.5t115.5 9.5q79 0 139 -21.5t94 -66t34 -113.5v-283h-212l-10 34q-24 -19 -61.5 -31.5
t-91.5 -12.5zM273 122q19 0 31.5 6t22.5 16v44h-44q-45 0 -45 -33t35 -33z" />
    <glyph glyph-name="acircumflex" unicode="&#xe2;" horiz-adv-x="587" 
d="M58 522l175 216h141l175 -216h-168l-77 107l-73 -107h-173zM182 -10q-45 0 -83 16t-61 51t-23 91q0 80 50.5 121t155.5 41h106v5q0 11 -21 19.5t-64 8.5q-38 0 -82.5 -6.5t-84.5 -18.5v130q39 17 99.5 26.5t115.5 9.5q79 0 139 -21.5t94 -66t34 -113.5v-283h-212l-10 34
q-24 -19 -61.5 -31.5t-91.5 -12.5zM273 122q19 0 31.5 6t22.5 16v44h-44q-45 0 -45 -33t35 -33z" />
    <glyph glyph-name="atilde" unicode="&#xe3;" horiz-adv-x="587" 
d="M423 527q-36 0 -70.5 11t-67 22t-63.5 11q-34 0 -60.5 -11.5t-44.5 -29.5v141q15 14 43 24.5t59 10.5q37 0 69.5 -11l65 -22t66.5 -11q35 0 60.5 12.5t37.5 28.5v-141q-10 -13 -36.5 -24t-58.5 -11zM182 -10q-45 0 -83 16t-61 51t-23 91q0 80 50.5 121t155.5 41h106v5
q0 11 -21 19.5t-64 8.5q-38 0 -82.5 -6.5t-84.5 -18.5v130q39 17 99.5 26.5t115.5 9.5q79 0 139 -21.5t94 -66t34 -113.5v-283h-212l-10 34q-24 -19 -61.5 -31.5t-91.5 -12.5zM273 122q19 0 31.5 6t22.5 16v44h-44q-45 0 -45 -33t35 -33z" />
    <glyph glyph-name="adieresis" unicode="&#xe4;" horiz-adv-x="587" 
d="M121 552v141h156v-141h-156zM356 552v141h156v-141h-156zM182 -10q-45 0 -83 16t-61 51t-23 91q0 80 50.5 121t155.5 41h106v5q0 11 -21 19.5t-64 8.5q-38 0 -82.5 -6.5t-84.5 -18.5v130q39 17 99.5 26.5t115.5 9.5q79 0 139 -21.5t94 -66t34 -113.5v-283h-212l-10 34
q-24 -19 -61.5 -31.5t-91.5 -12.5zM273 122q19 0 31.5 6t22.5 16v44h-44q-45 0 -45 -33t35 -33z" />
    <glyph glyph-name="aring" unicode="&#xe5;" horiz-adv-x="587" 
d="M319 522q-75 0 -114 41.5t-39 101.5q0 61 39 102.5t114 41.5q76 0 115 -41.5t39 -102.5q0 -60 -39 -101.5t-115 -41.5zM319 614q28 0 41 15.5t13 35.5t-13 35.5t-41 15.5t-41 -15.5t-13 -35.5t13 -35.5t41 -15.5zM182 -10q-45 0 -83 16t-61 51t-23 91q0 80 50.5 121
t155.5 41h106v5q0 11 -21 19.5t-64 8.5q-38 0 -82.5 -6.5t-84.5 -18.5v130q39 17 99.5 26.5t115.5 9.5q79 0 139 -21.5t94 -66t34 -113.5v-283h-212l-10 34q-24 -19 -61.5 -31.5t-91.5 -12.5zM273 122q19 0 31.5 6t22.5 16v44h-44q-45 0 -45 -33t35 -33z" />
    <glyph glyph-name="ae" unicode="&#xe6;" horiz-adv-x="889" 
d="M221 -10q-55 0 -102 16t-75.5 51t-28.5 91q0 80 50.5 121t155.5 41h106v5q0 11 -21 19.5t-64 8.5q-38 0 -82.5 -6.5t-84.5 -18.5v130q39 17 99.5 26.5t115.5 9.5q45 0 87 -12t70 -35q29 21 71 34t88 13q122 0 195 -60t73 -171v-81h-316q15 -19 49.5 -29.5t89.5 -10.5
q45 0 87 7.5t66 16.5v-130q-37 -18 -88.5 -27t-123.5 -9q-34 0 -70.5 8.5t-68.5 24.5t-52 39q-37 -31 -87 -51.5t-139 -20.5zM558 293h109v9q0 14 -11 26.5t-42 12.5q-30 0 -43 -14t-13 -34zM273 122q36 0 54 22v44h-44q-45 0 -45 -33t35 -33z" />
    <glyph glyph-name="ccedilla" unicode="&#xe7;" horiz-adv-x="520" 
d="M290 -240q-12 0 -30 1t-34 3t-24 4v77q29 -8 58 -8q67 0 67 35q0 16 -10 22t-27 6h-74l26 95q-102 14 -164.5 73.5t-62.5 168.5q0 85 37.5 139.5t104 81t153.5 26.5q56 0 103 -7.5t90 -27.5v-168q-32 16 -67 23t-72 7q-52 0 -77 -16.5t-25 -57.5q0 -40 26 -57t78 -17
q37 0 72 10.5t67 27.5v-176q-33 -15 -68 -23t-75 -10l-10 -29q50 0 79 -27.5t29 -68.5q0 -49 -42.5 -78t-127.5 -29z" />
    <glyph glyph-name="egrave" unicode="&#xe8;" horiz-adv-x="567" 
d="M200 522l-105 226h186l96 -226h-177zM310 -10q-84 0 -150.5 28t-105.5 82.5t-39 134.5q0 113 67.5 181t201.5 68q122 0 195 -60t73 -171v-81h-316q15 -19 49.5 -29.5t89.5 -10.5q45 0 87 7.5t66 16.5v-130q-75 -36 -218 -36zM236 293h109v9q0 14 -11 26.5t-42 12.5
q-30 0 -43 -14t-13 -34z" />
    <glyph glyph-name="eacute" unicode="&#xe9;" horiz-adv-x="567" 
d="M206 522l96 226h186l-105 -226h-177zM310 -10q-84 0 -150.5 28t-105.5 82.5t-39 134.5q0 113 67.5 181t201.5 68q122 0 195 -60t73 -171v-81h-316q15 -19 49.5 -29.5t89.5 -10.5q45 0 87 7.5t66 16.5v-130q-75 -36 -218 -36zM236 293h109v9q0 14 -11 26.5t-42 12.5
q-30 0 -43 -14t-13 -34z" />
    <glyph glyph-name="ecircumflex" unicode="&#xea;" horiz-adv-x="567" 
d="M43 522l175 216h141l175 -216h-168l-77 107l-73 -107h-173zM310 -10q-84 0 -150.5 28t-105.5 82.5t-39 134.5q0 113 67.5 181t201.5 68q122 0 195 -60t73 -171v-81h-316q15 -19 49.5 -29.5t89.5 -10.5q45 0 87 7.5t66 16.5v-130q-75 -36 -218 -36zM236 293h109v9
q0 14 -11 26.5t-42 12.5q-30 0 -43 -14t-13 -34z" />
    <glyph glyph-name="edieresis" unicode="&#xeb;" horiz-adv-x="567" 
d="M93 552v141h156v-141h-156zM328 552v141h156v-141h-156zM310 -10q-84 0 -150.5 28t-105.5 82.5t-39 134.5q0 113 67.5 181t201.5 68q122 0 195 -60t73 -171v-81h-316q15 -19 49.5 -29.5t89.5 -10.5q45 0 87 7.5t66 16.5v-130q-75 -36 -218 -36zM236 293h109v9
q0 14 -11 26.5t-42 12.5q-30 0 -43 -14t-13 -34z" />
    <glyph glyph-name="igrave" unicode="&#xec;" horiz-adv-x="378" 
d="M128 522l-105 226h186l96 -226h-177zM101 0v300h-66l20 174h288v-474h-242z" />
    <glyph glyph-name="iacute" unicode="&#xed;" horiz-adv-x="378" 
d="M117 522l96 226h186l-105 -226h-177zM101 0v300h-66l20 174h288v-474h-242z" />
    <glyph glyph-name="icircumflex" unicode="&#xee;" horiz-adv-x="378" 
d="M-41 522l175 216h141l175 -216h-168l-77 107l-73 -107h-173zM101 0v300h-66l20 174h288v-474h-242z" />
    <glyph glyph-name="idieresis" unicode="&#xef;" horiz-adv-x="378" 
d="M2 552v141h156v-141h-156zM237 552v141h156v-141h-156zM101 0v300h-66l20 174h288v-474h-242z" />
    <glyph glyph-name="eth" unicode="&#xf0;" horiz-adv-x="619" 
d="M300 -10q-104 0 -167 26t-90.5 74t-27.5 115q0 106 62 155.5t171 49.5q30 0 63.5 -7t52.5 -18v13q0 17 -2 33.5t-10 30.5l-88 -38v55l43 18q-12 4 -26.5 6t-32.5 2q-40 0 -75 -8.5t-73 -25.5v152q41 17 90 24t100 7q70 0 122.5 -19.5t89.5 -53.5l83 36v-55l-48 -21
q26 -37 39 -84.5t13 -98.5v-99q0 -131 -71.5 -200t-217.5 -69zM298 146q33 0 49.5 15.5t16.5 53.5v32q-17 8 -34 13t-34 5q-37 0 -51.5 -15.5t-14.5 -44.5q0 -59 68 -59z" />
    <glyph glyph-name="ntilde" unicode="&#xf1;" horiz-adv-x="626" 
d="M416 527q-36 0 -70.5 11t-67 22t-63.5 11q-34 0 -60.5 -11.5t-44.5 -29.5v141q15 14 43 24.5t59 10.5q37 0 69.5 -11l65 -22t66.5 -11q35 0 60.5 12.5t37.5 28.5v-141q-10 -13 -36.5 -24t-58.5 -11zM35 0v474h227l5 -27q26 14 70.5 25.5t96.5 11.5q85 0 123.5 -44.5
t38.5 -134.5v-305h-242v274q0 32 -33 32q-10 0 -23.5 -6t-20.5 -14v-286h-242z" />
    <glyph glyph-name="ograve" unicode="&#xf2;" horiz-adv-x="627" 
d="M221 522l-105 226h186l96 -226h-177zM313 -10q-151 0 -224.5 62t-73.5 185t73.5 185t224.5 62q299 0 299 -247t-299 -247zM313 163q26 0 39 16t13 58t-13 58t-39 16q-25 0 -38 -16t-13 -58t13 -58t38 -16z" />
    <glyph glyph-name="oacute" unicode="&#xf3;" horiz-adv-x="627" 
d="M203 522l96 226h186l-105 -226h-177zM313 -10q-151 0 -224.5 62t-73.5 185t73.5 185t224.5 62q299 0 299 -247t-299 -247zM313 163q26 0 39 16t13 58t-13 58t-39 16q-25 0 -38 -16t-13 -58t13 -58t38 -16z" />
    <glyph glyph-name="ocircumflex" unicode="&#xf4;" horiz-adv-x="627" 
d="M68 522l175 216h141l175 -216h-168l-77 107l-73 -107h-173zM313 -10q-151 0 -224.5 62t-73.5 185t73.5 185t224.5 62q299 0 299 -247t-299 -247zM313 163q26 0 39 16t13 58t-13 58t-39 16q-25 0 -38 -16t-13 -58t13 -58t38 -16z" />
    <glyph glyph-name="otilde" unicode="&#xf5;" horiz-adv-x="627" 
d="M419 547q-36 0 -70.5 11t-67 22t-63.5 11q-34 0 -60.5 -11.5t-44.5 -29.5v141q15 14 43 24.5t59 10.5q37 0 69.5 -11l65 -22t66.5 -11q35 0 60.5 12.5t37.5 28.5v-141q-10 -13 -36.5 -24t-58.5 -11zM313 -10q-151 0 -224.5 62t-73.5 185t73.5 185t224.5 62
q299 0 299 -247t-299 -247zM313 163q26 0 39 16t13 58t-13 58t-39 16q-25 0 -38 -16t-13 -58t13 -58t38 -16z" />
    <glyph glyph-name="odieresis" unicode="&#xf6;" horiz-adv-x="627" 
d="M118 552v141h156v-141h-156zM353 552v141h156v-141h-156zM313 -10q-151 0 -224.5 62t-73.5 185t73.5 185t224.5 62q299 0 299 -247t-299 -247zM313 163q26 0 39 16t13 58t-13 58t-39 16q-25 0 -38 -16t-13 -58t13 -58t38 -16z" />
    <glyph glyph-name="divide" unicode="&#xf7;" horiz-adv-x="434" 
d="M141 426v140h151v-140h-151zM15 205v184h404v-184h-404zM141 29v140h151v-140h-151z" />
    <glyph glyph-name="oslash" unicode="&#xf8;" horiz-adv-x="627" 
d="M156 -54l24 60q-165 46 -165 231q0 123 73.5 185t224.5 62q33 0 61 -3l19 47h77l-25 -60q167 -46 167 -231q0 -247 -299 -247q-32 0 -61 3l-19 -47h-77zM251 179l62 152q-32 0 -52 -20.5t-20 -73.5q0 -38 10 -58zM313 143q33 0 53 20.5t20 73.5q0 35 -11 59z" />
    <glyph glyph-name="ugrave" unicode="&#xf9;" horiz-adv-x="626" 
d="M244 522l-105 226h186l96 -226h-177zM204 -10q-80 0 -127 47t-47 137v300h242v-274q0 -32 33 -32q11 0 24 6t20 14v286h242v-474h-227l-5 27q-26 -16 -66.5 -26.5t-88.5 -10.5z" />
    <glyph glyph-name="uacute" unicode="&#xfa;" horiz-adv-x="626" 
d="M199 522l96 226h186l-105 -226h-177zM204 -10q-80 0 -127 47t-47 137v300h242v-274q0 -32 33 -32q11 0 24 6t20 14v286h242v-474h-227l-5 27q-26 -16 -66.5 -26.5t-88.5 -10.5z" />
    <glyph glyph-name="ucircumflex" unicode="&#xfb;" horiz-adv-x="626" 
d="M64 522l175 216h141l175 -216h-168l-77 107l-73 -107h-173zM204 -10q-80 0 -127 47t-47 137v300h242v-274q0 -32 33 -32q11 0 24 6t20 14v286h242v-474h-227l-5 27q-26 -16 -66.5 -26.5t-88.5 -10.5z" />
    <glyph glyph-name="udieresis" unicode="&#xfc;" horiz-adv-x="626" 
d="M117 552v141h156v-141h-156zM352 552v141h156v-141h-156zM204 -10q-80 0 -127 47t-47 137v300h242v-274q0 -32 33 -32q11 0 24 6t20 14v286h242v-474h-227l-5 27q-26 -16 -66.5 -26.5t-88.5 -10.5z" />
    <glyph glyph-name="yacute" unicode="&#xfd;" horiz-adv-x="677" 
d="M260 522l96 226h186l-105 -226h-177zM229 -176q-49 0 -79.5 5t-61.5 18v154q29 -10 60 -10q30 0 50 4.5t34 19.5l-217 459h253l83 -236l79 236h252l-163 -417q-43 -109 -112 -171t-178 -62z" />
    <glyph glyph-name="thorn" unicode="&#xfe;" horiz-adv-x="628" 
d="M35 -216v916h242v-234q19 8 52.5 13t59.5 5q107 0 165.5 -60.5t58.5 -187.5t-61.5 -186.5t-171.5 -59.5q-26 0 -55 5.5t-48 12.5v-224h-242zM319 163q22 0 34.5 17t12.5 60t-12.5 57t-34.5 14q-13 0 -22.5 -3.5t-19.5 -11.5v-118q18 -15 42 -15z" />
    <glyph glyph-name="ydieresis" unicode="&#xff;" horiz-adv-x="677" 
d="M156 580v141h156v-141h-156zM391 580v141h156v-141h-156zM229 -176q-49 0 -79.5 5t-61.5 18v154q29 -10 60 -10q30 0 50 4.5t34 19.5l-217 459h253l83 -236l79 236h252l-163 -417q-43 -109 -112 -171t-178 -62z" />
    <glyph glyph-name="Amacron" unicode="&#x100;" horiz-adv-x="777" 
d="M214 698v140h349v-140h-349zM15 0l248 644h251l248 -644h-252l-46 120h-151l-46 -120h-252zM339 285h98l-49 123z" />
    <glyph glyph-name="amacron" unicode="&#x101;" horiz-adv-x="587" 
d="M149 532v140h349v-140h-349zM182 -10q-45 0 -83 16t-61 51t-23 91q0 80 50.5 121t155.5 41h106v5q0 11 -21 19.5t-64 8.5q-38 0 -82.5 -6.5t-84.5 -18.5v130q39 17 99.5 26.5t115.5 9.5q79 0 139 -21.5t94 -66t34 -113.5v-283h-212l-10 34q-24 -19 -61.5 -31.5
t-91.5 -12.5zM273 122q19 0 31.5 6t22.5 16v44h-44q-45 0 -45 -33t35 -33z" />
    <glyph glyph-name="Abreve" unicode="&#x102;" horiz-adv-x="777" 
d="M388 688q-100 0 -160 56.5t-60 163.5h155q0 -34 14 -61t51 -27q38 0 52 27t14 61h155q0 -107 -60 -163.5t-161 -56.5zM15 0l248 644h251l248 -644h-252l-46 120h-151l-46 -120h-252zM339 285h98l-49 123z" />
    <glyph glyph-name="abreve" unicode="&#x103;" horiz-adv-x="587" 
d="M313 522q-100 0 -160 56.5t-60 163.5h155q0 -34 14 -61t51 -27q38 0 52 27t14 61h155q0 -107 -60 -163.5t-161 -56.5zM182 -10q-45 0 -83 16t-61 51t-23 91q0 80 50.5 121t155.5 41h106v5q0 11 -21 19.5t-64 8.5q-38 0 -82.5 -6.5t-84.5 -18.5v130q39 17 99.5 26.5
t115.5 9.5q79 0 139 -21.5t94 -66t34 -113.5v-283h-212l-10 34q-24 -19 -61.5 -31.5t-91.5 -12.5zM273 122q19 0 31.5 6t22.5 16v44h-44q-45 0 -45 -33t35 -33z" />
    <glyph glyph-name="Aogonek" unicode="&#x104;" horiz-adv-x="777" 
d="M15 0l248 644h251l248 -644h-57q-21 -16 -35 -35t-14 -41q0 -19 12.5 -25t34.5 -6q13 0 27.5 3t23.5 8v-106q-17 -6 -49.5 -12t-70.5 -6q-68 0 -108 25t-40 79q0 39 22 69t53 47h-51l-46 120h-151l-46 -120h-252zM339 285h98l-49 123z" />
    <glyph glyph-name="aogonek" unicode="&#x105;" horiz-adv-x="587" 
d="M182 -10q-45 0 -83 16t-61 51t-23 91q0 80 50.5 121t155.5 41h106v5q0 11 -21 19.5t-64 8.5q-38 0 -82.5 -6.5t-84.5 -18.5v130q39 17 99.5 26.5t115.5 9.5q79 0 139 -21.5t94 -66t34 -113.5v-283h-68q-21 -16 -35 -35t-14 -41q0 -19 12.5 -25t34.5 -6q13 0 27.5 3
t23.5 8v-106q-17 -6 -49.5 -12t-70.5 -6q-68 0 -108 25t-40 79q0 39 22 69t53 47l-10 34q-24 -19 -61.5 -31.5t-91.5 -12.5zM273 122q19 0 31.5 6t22.5 16v44h-44q-45 0 -45 -33t35 -33z" />
    <glyph glyph-name="Cacute" unicode="&#x106;" horiz-adv-x="618" 
d="M289 688l96 226h186l-105 -226h-177zM400 -10q-190 0 -287.5 84t-97.5 248t96.5 248t286.5 84q62 0 109.5 -9t93.5 -26v-211q-91 42 -187 42q-70 0 -111 -27.5t-41 -100.5t42 -100.5t112 -27.5q96 0 187 42v-211q-46 -16 -93.5 -25.5t-109.5 -9.5z" />
    <glyph glyph-name="cacute" unicode="&#x107;" horiz-adv-x="520" 
d="M203 522l96 226h186l-105 -226h-177zM312 -10q-87 0 -154 26.5t-105 81.5t-38 139q0 85 37.5 139.5t104 81t153.5 26.5q56 0 103 -7.5t90 -27.5v-168q-32 16 -67 23t-72 7q-52 0 -77 -16.5t-25 -57.5q0 -40 26 -57t78 -17q37 0 72 10.5t67 27.5v-176q-43 -19 -90 -27
t-103 -8z" />
    <glyph glyph-name="Ccircumflex" unicode="&#x108;" horiz-adv-x="618" 
d="M101 688l175 216h141l175 -216h-168l-77 107l-73 -107h-173zM400 -10q-190 0 -287.5 84t-97.5 248t96.5 248t286.5 84q62 0 109.5 -9t93.5 -26v-211q-91 42 -187 42q-70 0 -111 -27.5t-41 -100.5t42 -100.5t112 -27.5q96 0 187 42v-211q-46 -16 -93.5 -25.5t-109.5 -9.5z
" />
    <glyph glyph-name="ccircumflex" unicode="&#x109;" horiz-adv-x="520" 
d="M31 522l175 216h141l175 -216h-168l-77 107l-73 -107h-173zM312 -10q-87 0 -154 26.5t-105 81.5t-38 139q0 85 37.5 139.5t104 81t153.5 26.5q56 0 103 -7.5t90 -27.5v-168q-32 16 -67 23t-72 7q-52 0 -77 -16.5t-25 -57.5q0 -40 26 -57t78 -17q37 0 72 10.5t67 27.5
v-176q-43 -19 -90 -27t-103 -8z" />
    <glyph glyph-name="Cdotaccent" unicode="&#x10a;" horiz-adv-x="618" 
d="M288 718v141h156v-141h-156zM400 -10q-190 0 -287.5 84t-97.5 248t96.5 248t286.5 84q62 0 109.5 -9t93.5 -26v-211q-91 42 -187 42q-70 0 -111 -27.5t-41 -100.5t42 -100.5t112 -27.5q96 0 187 42v-211q-46 -16 -93.5 -25.5t-109.5 -9.5z" />
    <glyph glyph-name="cdotaccent" unicode="&#x10b;" horiz-adv-x="520" 
d="M200 552v141h156v-141h-156zM312 -10q-87 0 -154 26.5t-105 81.5t-38 139q0 85 37.5 139.5t104 81t153.5 26.5q56 0 103 -7.5t90 -27.5v-168q-32 16 -67 23t-72 7q-52 0 -77 -16.5t-25 -57.5q0 -40 26 -57t78 -17q37 0 72 10.5t67 27.5v-176q-43 -19 -90 -27t-103 -8z
" />
    <glyph glyph-name="Ccaron" unicode="&#x10c;" horiz-adv-x="618" 
d="M314 688l-175 216h173l73 -107l77 107h168l-175 -216h-141zM400 -10q-190 0 -287.5 84t-97.5 248t96.5 248t286.5 84q62 0 109.5 -9t93.5 -26v-211q-91 42 -187 42q-70 0 -111 -27.5t-41 -100.5t42 -100.5t112 -27.5q96 0 187 42v-211q-46 -16 -93.5 -25.5t-109.5 -9.5z
" />
    <glyph glyph-name="ccaron" unicode="&#x10d;" horiz-adv-x="520" 
d="M220 522l-175 216h173l73 -107l77 107h168l-175 -216h-141zM312 -10q-87 0 -154 26.5t-105 81.5t-38 139q0 85 37.5 139.5t104 81t153.5 26.5q56 0 103 -7.5t90 -27.5v-168q-32 16 -67 23t-72 7q-52 0 -77 -16.5t-25 -57.5q0 -40 26 -57t78 -17q37 0 72 10.5t67 27.5
v-176q-43 -19 -90 -27t-103 -8z" />
    <glyph glyph-name="Dcaron" unicode="&#x10e;" horiz-adv-x="690" 
d="M236 688l-175 216h173l73 -107l77 107h168l-175 -216h-141zM35 0v644h306q102 0 177 -32.5t116 -104t41 -189.5q0 -112 -40.5 -182t-115 -103t-178.5 -33h-306zM277 184h36q36 0 62 10t40 39t14 85t-13 83.5t-38.5 36t-64.5 8.5h-36v-262z" />
    <glyph glyph-name="dcaron" unicode="&#x10f;" horiz-adv-x="862" 
d="M239 -10q-67 0 -117.5 23t-78.5 74t-28 135q0 89 30 147t82.5 86.5t120.5 28.5q26 0 55 -5t48 -13v208h242v-674h-210l-11 31q-26 -19 -57.5 -30t-75.5 -11zM646 425l37 249h179l-65 -249h-151zM309 163q14 0 23 4t19 11v118q-18 15 -42 15q-22 0 -34.5 -22t-12.5 -65
t12.5 -52t34.5 -9z" />
    <glyph glyph-name="Dcroat" unicode="&#x110;" horiz-adv-x="724" 
d="M69 0v238h-84v154h84v252h306q102 0 177 -32.5t116 -104t41 -189.5q0 -112 -40.5 -182t-115 -103t-178.5 -33h-306zM311 184h36q36 0 62 10t40 39t14 85t-13 83.5t-38.5 36t-64.5 8.5h-36v-54h61v-154h-61v-54z" />
    <glyph glyph-name="dcroat" unicode="&#x111;" horiz-adv-x="631" 
d="M239 -10q-67 0 -117.5 23t-78.5 74t-28 135q0 89 30 147t82.5 86.5t120.5 28.5q26 0 55 -5t48 -13v40h-112v135h112v33h242v-33h33v-135h-33v-506h-210l-11 31q-26 -19 -57.5 -30t-75.5 -11zM309 163q14 0 23 4t19 11v118q-18 15 -42 15q-22 0 -34.5 -22t-12.5 -65
t12.5 -52t34.5 -9z" />
    <glyph glyph-name="Emacron" unicode="&#x112;" horiz-adv-x="555" 
d="M103 728v140h349v-140h-349zM35 0v644h515v-174h-273v-58h235v-180h-235v-58h273v-174h-515z" />
    <glyph glyph-name="emacron" unicode="&#x113;" horiz-adv-x="567" 
d="M110 562v140h349v-140h-349zM310 -10q-84 0 -150.5 28t-105.5 82.5t-39 134.5q0 113 67.5 181t201.5 68q122 0 195 -60t73 -171v-81h-316q15 -19 49.5 -29.5t89.5 -10.5q45 0 87 7.5t66 16.5v-130q-75 -36 -218 -36zM236 293h109v9q0 14 -11 26.5t-42 12.5q-30 0 -43 -14
t-13 -34z" />
    <glyph glyph-name="Ebreve" unicode="&#x114;" horiz-adv-x="555" 
d="M294 688q-100 0 -160 56.5t-60 163.5h155q0 -34 14 -61t51 -27q38 0 52 27t14 61h155q0 -107 -60 -163.5t-161 -56.5zM35 0v644h515v-174h-273v-58h235v-180h-235v-58h273v-174h-515z" />
    <glyph glyph-name="ebreve" unicode="&#x115;" horiz-adv-x="567" 
d="M291 522q-100 0 -160 56.5t-60 163.5h155q0 -34 14 -61t51 -27q38 0 52 27t14 61h155q0 -107 -60 -163.5t-161 -56.5zM310 -10q-84 0 -150.5 28t-105.5 82.5t-39 134.5q0 113 67.5 181t201.5 68q122 0 195 -60t73 -171v-81h-316q15 -19 49.5 -29.5t89.5 -10.5
q45 0 87 7.5t66 16.5v-130q-75 -36 -218 -36zM236 293h109v9q0 14 -11 26.5t-42 12.5q-30 0 -43 -14t-13 -34z" />
    <glyph glyph-name="Edotaccent" unicode="&#x116;" horiz-adv-x="555" 
d="M209 718v141h156v-141h-156zM35 0v644h515v-174h-273v-58h235v-180h-235v-58h273v-174h-515z" />
    <glyph glyph-name="edotaccent" unicode="&#x117;" horiz-adv-x="567" 
d="M212 552v141h156v-141h-156zM310 -10q-84 0 -150.5 28t-105.5 82.5t-39 134.5q0 113 67.5 181t201.5 68q122 0 195 -60t73 -171v-81h-316q15 -19 49.5 -29.5t89.5 -10.5q45 0 87 7.5t66 16.5v-130q-75 -36 -218 -36zM236 293h109v9q0 14 -11 26.5t-42 12.5q-30 0 -43 -14
t-13 -34z" />
    <glyph glyph-name="Eogonek" unicode="&#x118;" horiz-adv-x="555" 
d="M35 0v644h515v-174h-273v-58h235v-180h-235v-58h273v-174h-65q-21 -16 -35 -35t-14 -41q0 -19 12.5 -25t34.5 -6q13 0 27.5 3t23.5 8v-106q-17 -6 -49.5 -12t-70.5 -6q-68 0 -108 25t-40 79q0 39 22 69t53 47h-306z" />
    <glyph glyph-name="eogonek" unicode="&#x119;" horiz-adv-x="567" 
d="M346 -220q-68 0 -108 25t-40 79q0 35 18 63t45 46q-72 7 -127.5 37t-87 81.5t-31.5 123.5q0 113 67.5 181t201.5 68q122 0 195 -60t73 -171v-81h-316q15 -19 49.5 -29.5t89.5 -10.5q45 0 87 7.5t66 16.5v-130q-46 -22 -117 -31q-19 -15 -31 -33t-12 -38q0 -19 12.5 -25
t34.5 -6q13 0 27.5 3t23.5 8v-106q-17 -6 -49.5 -12t-70.5 -6zM236 293h109v9q0 14 -11 26.5t-42 12.5q-30 0 -43 -14t-13 -34z" />
    <glyph glyph-name="Ecaron" unicode="&#x11a;" horiz-adv-x="555" 
d="M226 688l-175 216h173l73 -107l77 107h168l-175 -216h-141zM35 0v644h515v-174h-273v-58h235v-180h-235v-58h273v-174h-515z" />
    <glyph glyph-name="ecaron" unicode="&#x11b;" horiz-adv-x="567" 
d="M224 522l-175 216h173l73 -107l77 107h168l-175 -216h-141zM310 -10q-84 0 -150.5 28t-105.5 82.5t-39 134.5q0 113 67.5 181t201.5 68q122 0 195 -60t73 -171v-81h-316q15 -19 49.5 -29.5t89.5 -10.5q45 0 87 7.5t66 16.5v-130q-75 -36 -218 -36zM236 293h109v9
q0 14 -11 26.5t-42 12.5q-30 0 -43 -14t-13 -34z" />
    <glyph glyph-name="Gcircumflex" unicode="&#x11c;" horiz-adv-x="663" 
d="M123 688l175 216h141l175 -216h-168l-77 107l-73 -107h-173zM390 -10q-182 0 -278.5 84t-96.5 248t101 248t291 84q62 0 111.5 -6.5t95.5 -22.5v-206q-46 18 -93.5 24.5t-97.5 6.5q-70 0 -115.5 -27.5t-45.5 -100.5t32.5 -100.5t93.5 -27.5q32 0 60 7v39h-107v146h307
v-333q-41 -25 -105 -44t-153 -19z" />
    <glyph glyph-name="gcircumflex" unicode="&#x11d;" horiz-adv-x="586" 
d="M56 522l175 216h141l175 -216h-168l-77 107l-73 -107h-173zM258 -176q-35 0 -79 2.5t-84 8t-63 13.5v138q27 -9 64 -14.5t76 -8t71 -2.5q38 0 67 3t29 13q0 8 -11.5 9.5t-30.5 1.5h-114q-83 0 -125.5 22t-42.5 71q0 35 21 58.5t58 34.5q-40 21 -58 51t-18 79
q0 93 68 136.5t191 43.5q18 0 40.5 -1.5t42 -4t28.5 -4.5h193l-4 -143h-52q2 -6 4 -14.5t2 -15.5q0 -73 -39.5 -114.5t-131.5 -41.5q-10 0 -25 0.5t-26 1.5q-14 -1 -25.5 -4.5t-11.5 -13.5q0 -8 7 -10.5t19 -2.5h84q74 0 119 -32.5t45 -102.5q0 -69 -67.5 -113t-220.5 -44z
M279 275q28 0 38.5 9t10.5 30q0 22 -11.5 31.5t-37.5 9.5q-49 0 -49 -41q0 -20 11 -29.5t38 -9.5z" />
    <glyph glyph-name="Gbreve" unicode="&#x11e;" horiz-adv-x="663" 
d="M387 688q-100 0 -160 56.5t-60 163.5h155q0 -34 14 -61t51 -27q38 0 52 27t14 61h155q0 -107 -60 -163.5t-161 -56.5zM390 -10q-182 0 -278.5 84t-96.5 248t101 248t291 84q62 0 111.5 -6.5t95.5 -22.5v-206q-46 18 -93.5 24.5t-97.5 6.5q-70 0 -115.5 -27.5
t-45.5 -100.5t32.5 -100.5t93.5 -27.5q32 0 60 7v39h-107v146h307v-333q-41 -25 -105 -44t-153 -19z" />
    <glyph glyph-name="gbreve" unicode="&#x11f;" horiz-adv-x="586" 
d="M301 522q-100 0 -160 56.5t-60 163.5h155q0 -34 14 -61t51 -27q38 0 52 27t14 61h155q0 -107 -60 -163.5t-161 -56.5zM258 -176q-35 0 -79 2.5t-84 8t-63 13.5v138q27 -9 64 -14.5t76 -8t71 -2.5q38 0 67 3t29 13q0 8 -11.5 9.5t-30.5 1.5h-114q-83 0 -125.5 22t-42.5 71
q0 35 21 58.5t58 34.5q-40 21 -58 51t-18 79q0 93 68 136.5t191 43.5q18 0 40.5 -1.5t42 -4t28.5 -4.5h193l-4 -143h-52q2 -6 4 -14.5t2 -15.5q0 -73 -39.5 -114.5t-131.5 -41.5q-10 0 -25 0.5t-26 1.5q-14 -1 -25.5 -4.5t-11.5 -13.5q0 -8 7 -10.5t19 -2.5h84
q74 0 119 -32.5t45 -102.5q0 -69 -67.5 -113t-220.5 -44zM279 275q28 0 38.5 9t10.5 30q0 22 -11.5 31.5t-37.5 9.5q-49 0 -49 -41q0 -20 11 -29.5t38 -9.5z" />
    <glyph glyph-name="Gdotaccent" unicode="&#x120;" horiz-adv-x="663" 
d="M321 718v141h156v-141h-156zM390 -10q-182 0 -278.5 84t-96.5 248t101 248t291 84q62 0 111.5 -6.5t95.5 -22.5v-206q-46 18 -93.5 24.5t-97.5 6.5q-70 0 -115.5 -27.5t-45.5 -100.5t32.5 -100.5t93.5 -27.5q32 0 60 7v39h-107v146h307v-333q-41 -25 -105 -44t-153 -19z
" />
    <glyph glyph-name="gdotaccent" unicode="&#x121;" horiz-adv-x="586" 
d="M213 532v141h156v-141h-156zM258 -176q-35 0 -79 2.5t-84 8t-63 13.5v138q27 -9 64 -14.5t76 -8t71 -2.5q38 0 67 3t29 13q0 8 -11.5 9.5t-30.5 1.5h-114q-83 0 -125.5 22t-42.5 71q0 35 21 58.5t58 34.5q-40 21 -58 51t-18 79q0 93 68 136.5t191 43.5q18 0 40.5 -1.5
t42 -4t28.5 -4.5h193l-4 -143h-52q2 -6 4 -14.5t2 -15.5q0 -73 -39.5 -114.5t-131.5 -41.5q-10 0 -25 0.5t-26 1.5q-14 -1 -25.5 -4.5t-11.5 -13.5q0 -8 7 -10.5t19 -2.5h84q74 0 119 -32.5t45 -102.5q0 -69 -67.5 -113t-220.5 -44zM279 275q28 0 38.5 9t10.5 30
q0 22 -11.5 31.5t-37.5 9.5q-49 0 -49 -41q0 -20 11 -29.5t38 -9.5z" />
    <glyph glyph-name="uni0122" unicode="&#x122;" horiz-adv-x="663" 
d="M390 -10q-182 0 -278.5 84t-96.5 248t101 248t291 84q62 0 111.5 -6.5t95.5 -22.5v-206q-46 18 -93.5 24.5t-97.5 6.5q-70 0 -115.5 -27.5t-45.5 -100.5t32.5 -100.5t93.5 -27.5q32 0 60 7v39h-107v146h307v-333q-41 -25 -105 -44t-153 -19zM276 -286l37 249h179
l-65 -249h-151z" />
    <glyph glyph-name="uni0123" unicode="&#x123;" horiz-adv-x="586" 
d="M196 522l65 249h151l-37 -249h-179zM258 -176q-35 0 -79 2.5t-84 8t-63 13.5v138q27 -9 64 -14.5t76 -8t71 -2.5q38 0 67 3t29 13q0 8 -11.5 9.5t-30.5 1.5h-114q-83 0 -125.5 22t-42.5 71q0 35 21 58.5t58 34.5q-40 21 -58 51t-18 79q0 93 68 136.5t191 43.5
q18 0 40.5 -1.5t42 -4t28.5 -4.5h193l-4 -143h-52q2 -6 4 -14.5t2 -15.5q0 -73 -39.5 -114.5t-131.5 -41.5q-10 0 -25 0.5t-26 1.5q-14 -1 -25.5 -4.5t-11.5 -13.5q0 -8 7 -10.5t19 -2.5h84q74 0 119 -32.5t45 -102.5q0 -69 -67.5 -113t-220.5 -44zM279 275q28 0 38.5 9
t10.5 30q0 22 -11.5 31.5t-37.5 9.5q-49 0 -49 -41q0 -20 11 -29.5t38 -9.5z" />
    <glyph glyph-name="Hcircumflex" unicode="&#x124;" horiz-adv-x="715" 
d="M111 688l175 216h141l175 -216h-168l-77 107l-73 -107h-173zM35 0v644h242v-210h161v210h242v-644h-242v210h-161v-210h-242z" />
    <glyph glyph-name="hcircumflex" unicode="&#x125;" horiz-adv-x="626" 
d="M43 712l175 216h141l175 -216h-168l-77 107l-73 -107h-173zM35 0v674h242v-218q20 11 53.5 19.5t70.5 8.5q101 0 148 -47t47 -145v-292h-242v272q0 34 -33 34q-10 0 -23.5 -6t-20.5 -14v-286h-242z" />
    <glyph glyph-name="Hbar" unicode="&#x126;" horiz-adv-x="737" 
d="M46 0v480h-31v115h31v49h242v-49h161v49h242v-49h31v-115h-31v-480h-242v210h-161v-210h-242zM288 434h161v46h-161v-46z" />
    <glyph glyph-name="hbar" unicode="&#x127;" horiz-adv-x="636" 
d="M45 0v520h-35v98h35v56h242v-56h87v-98h-87v-64q20 11 53.5 19.5t70.5 8.5q101 0 148 -47t47 -145v-292h-242v272q0 34 -33 34q-10 0 -23.5 -6t-20.5 -14v-286h-242z" />
    <glyph glyph-name="Itilde" unicode="&#x128;" horiz-adv-x="312" 
d="M262 723q-36 0 -70.5 11t-67 22t-63.5 11q-34 0 -60.5 -11.5t-44.5 -29.5v141q15 14 43 24.5t59 10.5q37 0 69.5 -11l65 -22t66.5 -11q35 0 60.5 12.5t37.5 28.5v-141q-10 -13 -36.5 -24t-58.5 -11zM35 0v644h242v-644h-242z" />
    <glyph glyph-name="itilde" unicode="&#x129;" horiz-adv-x="378" 
d="M298 555q-36 0 -70.5 11t-67 22t-63.5 11q-34 0 -60.5 -11.5t-44.5 -29.5v141q15 14 43 24.5t59 10.5q37 0 69.5 -11l65 -22t66.5 -11q35 0 60.5 12.5t37.5 28.5v-141q-10 -13 -36.5 -24t-58.5 -11zM101 0v300h-66l20 174h288v-474h-242z" />
    <glyph glyph-name="Imacron" unicode="&#x12a;" horiz-adv-x="312" 
d="M-18 728v140h349v-140h-349zM35 0v644h242v-644h-242z" />
    <glyph glyph-name="imacron" unicode="&#x12b;" horiz-adv-x="378" 
d="M21 590v140h349v-140h-349zM101 0v300h-66l20 174h288v-474h-242z" />
    <glyph glyph-name="Ibreve" unicode="&#x12c;" horiz-adv-x="312" 
d="M156 714q-100 0 -160 56.5t-60 163.5h155q0 -34 14 -61t51 -27q38 0 52 27t14 61h155q0 -107 -60 -163.5t-161 -56.5zM35 0v644h242v-644h-242z" />
    <glyph glyph-name="ibreve" unicode="&#x12d;" horiz-adv-x="378" 
d="M200 522q-100 0 -160 56.5t-60 163.5h155q0 -34 14 -61t51 -27q38 0 52 27t14 61h155q0 -107 -60 -163.5t-161 -56.5zM101 0v300h-66l20 174h288v-474h-242z" />
    <glyph glyph-name="Iogonek" unicode="&#x12e;" horiz-adv-x="312" 
d="M35 0v644h242v-644h-49q-21 -16 -35 -35t-14 -41q0 -19 12.5 -25t34.5 -6q13 0 27.5 3t23.5 8v-106q-17 -6 -49.5 -12t-70.5 -6q-68 0 -108 25t-40 79q0 39 22 69t53 47h-49z" />
    <glyph glyph-name="iogonek" unicode="&#x12f;" horiz-adv-x="363" 
d="M69 513v167h259v-167h-259zM86 0v300h-66l20 174h288v-474h-46q-21 -16 -35 -35t-14 -41q0 -19 12.5 -25t34.5 -6q13 0 27.5 3t23.5 8v-106q-17 -6 -49.5 -12t-70.5 -6q-68 0 -108 25t-40 79q0 39 22 69t53 47h-52z" />
    <glyph glyph-name="Idotaccent" unicode="&#x130;" horiz-adv-x="312" 
d="M78 728v141h156v-141h-156zM35 0v644h242v-644h-242z" />
    <glyph glyph-name="dotlessi" unicode="&#x131;" horiz-adv-x="363" 
d="M86 0v300h-66l20 174h288v-474h-242z" />
    <glyph glyph-name="IJ" unicode="&#x132;" horiz-adv-x="770" 
d="M465 -10q-43 0 -83 5t-79 18v201q25 -10 54 -14.5t58 -4.5q45 0 64 18t19 62v369h242v-428q0 -113 -71 -169.5t-204 -56.5zM35 0v644h242v-644h-242z" />
    <glyph glyph-name="ij" unicode="&#x133;" horiz-adv-x="699" 
d="M69 513v167h259v-167h-259zM405 513v167h259v-167h-259zM462 -234q-46 0 -80.5 7t-66.5 20v150q29 -10 60 -10q47 0 47 40v327h-66l20 174h288v-517q0 -55 -20.5 -98t-65 -68t-116.5 -25zM86 0v300h-66l20 174h288v-474h-242z" />
    <glyph glyph-name="Jcircumflex" unicode="&#x134;" horiz-adv-x="462" 
d="M71 688l175 216h141l175 -216h-168l-77 107l-73 -107h-173zM157 -10q-43 0 -83 5t-79 18v201q25 -10 54 -14.5t58 -4.5q45 0 64 18t19 62v369h242v-428q0 -113 -71 -169.5t-204 -56.5z" />
    <glyph glyph-name="jcircumflex" unicode="&#x135;" horiz-adv-x="378" 
d="M-47 522l175 216h141l175 -216h-168l-77 107l-73 -107h-173zM142 -234q-46 0 -80.5 7t-66.5 20v150q29 -10 60 -10q47 0 47 40v327h-66l20 174h288v-517q0 -55 -20.5 -98t-65 -68t-116.5 -25z" />
    <glyph glyph-name="uni0136" unicode="&#x136;" horiz-adv-x="726" 
d="M35 0v644h242v-180l141 180h273l-220 -267l240 -377h-256l-132 224l-46 -56v-168h-242zM250 -286l37 249h179l-65 -249h-151z" />
    <glyph glyph-name="uni0137" unicode="&#x137;" horiz-adv-x="661" 
d="M35 0v674h242v-295l87 95h272l-187 -205l197 -269h-256l-91 143l-22 -25v-118h-242zM191 -286l37 249h179l-65 -249h-151z" />
    <glyph glyph-name="kgreenlandic" unicode="&#x138;" horiz-adv-x="661" 
d="M35 0v474h242v-105l87 105h272l-187 -215l197 -259h-256l-91 133l-22 -25v-108h-242z" />
    <glyph glyph-name="Lacute" unicode="&#x139;" horiz-adv-x="535" 
d="M70 688l96 226h186l-105 -226h-177zM35 0v644h242v-460h263v-184h-505z" />
    <glyph glyph-name="lacute" unicode="&#x13a;" horiz-adv-x="367" 
d="M70 756l96 226h186l-105 -226h-177zM225 -10q-105 0 -147.5 42t-42.5 130v512h242v-480q0 -19 7.5 -28t27.5 -9q28 0 50 9v-150q-31 -13 -59 -19.5t-78 -6.5z" />
    <glyph glyph-name="uni013B" unicode="&#x13b;" horiz-adv-x="535" 
d="M35 0v644h242v-460h263v-184h-505zM202 -286l37 249h179l-65 -249h-151z" />
    <glyph glyph-name="uni013C" unicode="&#x13c;" horiz-adv-x="367" 
d="M225 -10q-105 0 -147.5 42t-42.5 130v512h242v-480q0 -19 7.5 -28t27.5 -9q28 0 50 9v-150q-31 -13 -59 -19.5t-78 -6.5zM95 -286l37 249h179l-65 -249h-151z" />
    <glyph glyph-name="Lcaron" unicode="&#x13d;" horiz-adv-x="554" 
d="M35 0v644h242v-460h263v-184h-505zM348 395l37 249h179l-65 -249h-151z" />
    <glyph glyph-name="lcaron" unicode="&#x13e;" horiz-adv-x="547" 
d="M225 -10q-105 0 -147.5 42t-42.5 130v512h242v-480q0 -19 7.5 -28t27.5 -9q28 0 50 9v-150q-31 -13 -59 -19.5t-78 -6.5zM331 425l37 249h179l-65 -249h-151z" />
    <glyph glyph-name="Ldot" unicode="&#x13f;" horiz-adv-x="535" 
d="M35 0v644h242v-460h263v-184h-505zM345 310v141h156v-141h-156z" />
    <glyph glyph-name="ldot" unicode="&#x140;" horiz-adv-x="478" 
d="M225 -10q-105 0 -147.5 42t-42.5 130v512h242v-480q0 -19 7.5 -28t27.5 -9q28 0 50 9v-150q-31 -13 -59 -19.5t-78 -6.5zM317 310v141h156v-141h-156z" />
    <glyph glyph-name="Lslash" unicode="&#x141;" horiz-adv-x="576" 
d="M76 0v214l-61 -27v169l61 27v261h242v-155l69 30v-169l-69 -30v-136h263v-184h-505z" />
    <glyph glyph-name="lslash" unicode="&#x142;" horiz-adv-x="367" 
d="M-29 198v169l64 28v279h242v-173l66 29v-169l-66 -29v-138q0 -19 7.5 -28t27.5 -9q28 0 50 9v-150q-31 -13 -59 -19.5t-78 -6.5q-105 0 -147.5 42t-42.5 130v64z" />
    <glyph glyph-name="Nacute" unicode="&#x143;" horiz-adv-x="695" 
d="M226 688l96 226h186l-105 -226h-177zM35 0v644h203l180 -252v252h242v-644h-204l-179 252v-252h-242z" />
    <glyph glyph-name="nacute" unicode="&#x144;" horiz-adv-x="626" 
d="M183 522l96 226h186l-105 -226h-177zM35 0v474h227l5 -27q26 14 70.5 25.5t96.5 11.5q85 0 123.5 -44.5t38.5 -134.5v-305h-242v274q0 32 -33 32q-10 0 -23.5 -6t-20.5 -14v-286h-242z" />
    <glyph glyph-name="uni0145" unicode="&#x145;" horiz-adv-x="695" 
d="M35 0v644h203l180 -252v252h242v-644h-204l-179 252v-252h-242zM240 -286l37 249h179l-65 -249h-151z" />
    <glyph glyph-name="uni0146" unicode="&#x146;" horiz-adv-x="626" 
d="M35 0v474h227l5 -27q26 14 70.5 25.5t96.5 11.5q85 0 123.5 -44.5t38.5 -134.5v-305h-242v274q0 32 -33 32q-10 0 -23.5 -6t-20.5 -14v-286h-242zM201 -286l37 249h179l-65 -249h-151z" />
    <glyph glyph-name="Ncaron" unicode="&#x147;" horiz-adv-x="695" 
d="M271 688l-175 216h173l73 -107l77 107h168l-175 -216h-141zM35 0v644h203l180 -252v252h242v-644h-204l-179 252v-252h-242z" />
    <glyph glyph-name="ncaron" unicode="&#x148;" horiz-adv-x="626" 
d="M221 522l-175 216h173l73 -107l77 107h168l-175 -216h-141zM35 0v474h227l5 -27q26 14 70.5 25.5t96.5 11.5q85 0 123.5 -44.5t38.5 -134.5v-305h-242v274q0 32 -33 32q-10 0 -23.5 -6t-20.5 -14v-286h-242z" />
    <glyph glyph-name="napostrophe" unicode="&#x149;" horiz-adv-x="631" 
d="M-164 391l37 249h179l-65 -249h-151zM40 0v474h227l5 -27q26 14 70.5 25.5t96.5 11.5q85 0 123.5 -44.5t38.5 -134.5v-305h-242v274q0 32 -33 32q-10 0 -23.5 -6t-20.5 -14v-286h-242z" />
    <glyph glyph-name="Eng" unicode="&#x14a;" horiz-adv-x="695" 
d="M458 -234q-46 0 -80.5 7t-66.5 20v150q29 -10 60 -10q47 0 47 40v80l-141 199v-252h-242v644h203l180 -252v252h242v-687q0 -55 -20.5 -98t-65 -68t-116.5 -25z" />
    <glyph glyph-name="eng" unicode="&#x14b;" horiz-adv-x="626" 
d="M394 -234q-46 0 -80.5 7t-66.5 20v150q29 -10 60 -10q47 0 47 40v301q0 32 -33 32q-10 0 -23.5 -6t-20.5 -14v-286h-242v474h227l5 -27q26 14 70.5 25.5t96.5 11.5q85 0 123.5 -44.5t38.5 -134.5v-348q0 -55 -20.5 -98t-65 -68t-116.5 -25z" />
    <glyph glyph-name="Omacron" unicode="&#x14c;" horiz-adv-x="720" 
d="M179 729v140h349v-140h-349zM360 -10q-109 0 -186 32.5t-118 105.5t-41 194q0 122 41 194.5t118 105t186 32.5t186 -32.5t118 -105t41 -194.5q0 -121 -41 -194t-118 -105.5t-186 -32.5zM360 195q53 0 75.5 28.5t22.5 98.5t-22.5 98.5t-75.5 28.5t-75.5 -28.5t-22.5 -98.5
t22.5 -98.5t75.5 -28.5z" />
    <glyph glyph-name="omacron" unicode="&#x14d;" horiz-adv-x="627" 
d="M129 562v140h349v-140h-349zM313 -10q-151 0 -224.5 62t-73.5 185t73.5 185t224.5 62q299 0 299 -247t-299 -247zM313 163q26 0 39 16t13 58t-13 58t-39 16q-25 0 -38 -16t-13 -58t13 -58t38 -16z" />
    <glyph glyph-name="Obreve" unicode="&#x14e;" horiz-adv-x="720" 
d="M360 688q-100 0 -160 56.5t-60 163.5h155q0 -34 14 -61t51 -27q38 0 52 27t14 61h155q0 -107 -60 -163.5t-161 -56.5zM360 -10q-109 0 -186 32.5t-118 105.5t-41 194q0 122 41 194.5t118 105t186 32.5t186 -32.5t118 -105t41 -194.5q0 -121 -41 -194t-118 -105.5
t-186 -32.5zM360 195q53 0 75.5 28.5t22.5 98.5t-22.5 98.5t-75.5 28.5t-75.5 -28.5t-22.5 -98.5t22.5 -98.5t75.5 -28.5z" />
    <glyph glyph-name="obreve" unicode="&#x14f;" horiz-adv-x="627" 
d="M313 522q-100 0 -160 56.5t-60 163.5h155q0 -34 14 -61t51 -27q38 0 52 27t14 61h155q0 -107 -60 -163.5t-161 -56.5zM313 -10q-151 0 -224.5 62t-73.5 185t73.5 185t224.5 62q299 0 299 -247t-299 -247zM313 163q26 0 39 16t13 58t-13 58t-39 16q-25 0 -38 -16t-13 -58
t13 -58t38 -16z" />
    <glyph glyph-name="Ohungarumlaut" unicode="&#x150;" horiz-adv-x="720" 
d="M90 688l95 203h206l-114 -203h-187zM360 688l95 203h206l-114 -203h-187zM360 -10q-109 0 -186 32.5t-118 105.5t-41 194q0 122 41 194.5t118 105t186 32.5t186 -32.5t118 -105t41 -194.5q0 -121 -41 -194t-118 -105.5t-186 -32.5zM360 195q53 0 75.5 28.5t22.5 98.5
t-22.5 98.5t-75.5 28.5t-75.5 -28.5t-22.5 -98.5t22.5 -98.5t75.5 -28.5z" />
    <glyph glyph-name="ohungarumlaut" unicode="&#x151;" horiz-adv-x="627" 
d="M56 522l95 203h206l-114 -203h-187zM326 522l95 203h206l-114 -203h-187zM313 -10q-151 0 -224.5 62t-73.5 185t73.5 185t224.5 62q299 0 299 -247t-299 -247zM313 163q26 0 39 16t13 58t-13 58t-39 16q-25 0 -38 -16t-13 -58t13 -58t38 -16z" />
    <glyph glyph-name="OE" unicode="&#x152;" horiz-adv-x="991" 
d="M360 -10q-109 0 -186 32.5t-118 105.5t-41 194q0 122 41 194.5t118 105t186 32.5q63 0 114 -10h502v-174h-273v-58h235v-180h-235v-58h273v-174h-502q-51 -10 -114 -10zM360 195q53 0 75.5 28.5t22.5 98.5t-22.5 98.5t-75.5 28.5t-75.5 -28.5t-22.5 -98.5t22.5 -98.5
t75.5 -28.5z" />
    <glyph glyph-name="oe" unicode="&#x153;" horiz-adv-x="954" 
d="M313 -10q-151 0 -224.5 62t-73.5 185t73.5 185t224.5 62q121 0 193 -40q31 19 72.5 29.5t92.5 10.5q122 0 195 -60t73 -171v-81h-316q15 -19 49.5 -29.5t89.5 -10.5q45 0 87 7.5t66 16.5v-130q-75 -36 -218 -36q-109 0 -184 44q-73 -44 -200 -44zM623 293h109v9
q0 14 -11 26.5t-42 12.5q-30 0 -43 -14t-13 -34zM313 163q26 0 39 16t13 58t-13 58t-39 16q-25 0 -38 -16t-13 -58t13 -58t38 -16z" />
    <glyph glyph-name="Racute" unicode="&#x154;" horiz-adv-x="656" 
d="M199 688l96 226h186l-105 -226h-177zM35 0v644h362q83 0 137 -31.5t80.5 -86t26.5 -123.5q0 -65 -33.5 -114t-80.5 -81q11 -7 17 -15.5t10 -17.5l76 -175h-252l-63 143q-5 12 -11 16.5t-17 4.5h-10v-164h-242zM277 353h59q59 0 59 50q0 28 -13.5 40t-41.5 12h-63v-102z
" />
    <glyph glyph-name="racute" unicode="&#x155;" horiz-adv-x="429" 
d="M60 522l96 226h186l-105 -226h-177zM35 0v474h237l5 -27q26 14 68.5 25.5t88.5 11.5v-178q-37 0 -83 -5t-74 -15v-286h-242z" />
    <glyph glyph-name="uni0156" unicode="&#x156;" horiz-adv-x="656" 
d="M35 0v644h362q83 0 137 -31.5t80.5 -86t26.5 -123.5q0 -65 -33.5 -114t-80.5 -81q11 -7 17 -15.5t10 -17.5l76 -175h-252l-63 143q-5 12 -11 16.5t-17 4.5h-10v-164h-242zM277 353h59q59 0 59 50q0 28 -13.5 40t-41.5 12h-63v-102zM203 -286l37 249h179l-65 -249h-151z
" />
    <glyph glyph-name="uni0157" unicode="&#x157;" horiz-adv-x="429" 
d="M35 0v474h237l5 -27q26 14 68.5 25.5t88.5 11.5v-178q-37 0 -83 -5t-74 -15v-286h-242zM25 -286l37 249h179l-65 -249h-151z" />
    <glyph glyph-name="Rcaron" unicode="&#x158;" horiz-adv-x="656" 
d="M234 688l-175 216h173l73 -107l77 107h168l-175 -216h-141zM35 0v644h362q83 0 137 -31.5t80.5 -86t26.5 -123.5q0 -65 -33.5 -114t-80.5 -81q11 -7 17 -15.5t10 -17.5l76 -175h-252l-63 143q-5 12 -11 16.5t-17 4.5h-10v-164h-242zM277 353h59q59 0 59 50q0 28 -13.5 40
t-41.5 12h-63v-102z" />
    <glyph glyph-name="rcaron" unicode="&#x159;" horiz-adv-x="429" 
d="M157 522l-175 216h173l73 -107l77 107h168l-175 -216h-141zM35 0v474h237l5 -27q26 14 68.5 25.5t88.5 11.5v-178q-37 0 -83 -5t-74 -15v-286h-242z" />
    <glyph glyph-name="Sacute" unicode="&#x15a;" horiz-adv-x="560" 
d="M179 688l96 226h186l-105 -226h-177zM258 -10q-68 0 -131 11.5t-106 33.5v181q47 -23 106 -38t105 -15q30 0 47 7.5t17 21.5q0 18 -32 28t-84 29q-62 24 -98 50t-51.5 62.5t-15.5 91.5q0 201 283 201q32 0 71.5 -4.5t77 -11.5t63.5 -15v-182q-55 23 -97 31t-74 8
q-25 0 -51 -4.5t-26 -20.5q0 -13 23 -20.5t73 -21.5q80 -22 120 -52.5t53.5 -72t13.5 -95.5q0 -92 -72 -147.5t-215 -55.5z" />
    <glyph glyph-name="sacute" unicode="&#x15b;" horiz-adv-x="507" 
d="M141 522l96 226h186l-105 -226h-177zM239 -10q-68 0 -128 10t-92 24v153q24 -12 56 -21t63.5 -14t52.5 -5q23 0 38.5 1t15.5 10q0 8 -16 13t-40.5 11t-50.5 15q-65 24 -94 54.5t-29 87.5q0 76 63 115.5t193 39.5q32 0 70 -3.5t71.5 -8.5t53.5 -12v-152q-32 14 -69 21.5
t-65 7.5q-14 0 -30.5 -0.5t-28 -3t-11.5 -9.5q0 -10 30.5 -15.5t67.5 -16.5q52 -15 80.5 -33.5t40 -45t11.5 -65.5q0 -73 -64 -115.5t-189 -42.5z" />
    <glyph glyph-name="Scircumflex" unicode="&#x15c;" horiz-adv-x="560" 
d="M65 688l175 216h141l175 -216h-168l-77 107l-73 -107h-173zM258 -10q-68 0 -131 11.5t-106 33.5v181q47 -23 106 -38t105 -15q30 0 47 7.5t17 21.5q0 18 -32 28t-84 29q-62 24 -98 50t-51.5 62.5t-15.5 91.5q0 201 283 201q32 0 71.5 -4.5t77 -11.5t63.5 -15v-182
q-55 23 -97 31t-74 8q-25 0 -51 -4.5t-26 -20.5q0 -13 23 -20.5t73 -21.5q80 -22 120 -52.5t53.5 -72t13.5 -95.5q0 -92 -72 -147.5t-215 -55.5z" />
    <glyph glyph-name="scircumflex" unicode="&#x15d;" horiz-adv-x="507" 
d="M4 522l175 216h141l175 -216h-168l-77 107l-73 -107h-173zM239 -10q-68 0 -128 10t-92 24v153q24 -12 56 -21t63.5 -14t52.5 -5q23 0 38.5 1t15.5 10q0 8 -16 13t-40.5 11t-50.5 15q-65 24 -94 54.5t-29 87.5q0 76 63 115.5t193 39.5q32 0 70 -3.5t71.5 -8.5t53.5 -12
v-152q-32 14 -69 21.5t-65 7.5q-14 0 -30.5 -0.5t-28 -3t-11.5 -9.5q0 -10 30.5 -15.5t67.5 -16.5q52 -15 80.5 -33.5t40 -45t11.5 -65.5q0 -73 -64 -115.5t-189 -42.5z" />
    <glyph glyph-name="Scedilla" unicode="&#x15e;" horiz-adv-x="560" 
d="M240 -240q-12 0 -30 1t-34 3t-24 4v77q29 -8 58 -8q67 0 67 35q0 16 -10 22t-27 6h-74l26 93q-50 4 -94.5 15t-76.5 27v181q47 -23 106 -38t105 -15q30 0 47 7.5t17 21.5q0 18 -32 28t-84 29q-62 24 -98 50t-51.5 62.5t-15.5 91.5q0 201 283 201q32 0 71.5 -4.5t77 -11.5
t63.5 -15v-182q-55 23 -97 31t-74 8q-25 0 -51 -4.5t-26 -20.5q0 -13 23 -20.5t73 -21.5q80 -22 120 -52.5t53.5 -72t13.5 -95.5q0 -83 -58.5 -136.5t-174.5 -64.5l-10 -29q50 0 79 -27.5t29 -68.5q0 -49 -42.5 -78t-127.5 -29z" />
    <glyph glyph-name="scedilla" unicode="&#x15f;" horiz-adv-x="507" 
d="M220 -240q-12 0 -30 1t-34 3t-24 4v77q29 -8 58 -8q67 0 67 35q0 16 -10 22t-27 6h-74l26 93q-101 8 -153 31v153q24 -12 56 -21t63.5 -14t52.5 -5q23 0 38.5 1t15.5 10q0 8 -16 13t-40.5 11t-50.5 15q-65 24 -94 54.5t-29 87.5q0 76 63 115.5t193 39.5q32 0 70 -3.5
t71.5 -8.5t53.5 -12v-152q-32 14 -69 21.5t-65 7.5q-14 0 -30.5 -0.5t-28 -3t-11.5 -9.5q0 -10 30.5 -15.5t67.5 -16.5q52 -15 80.5 -33.5t40 -45t11.5 -65.5q0 -65 -50.5 -106t-149.5 -50l-10 -29q50 0 79 -27.5t29 -68.5q0 -49 -42.5 -78t-127.5 -29z" />
    <glyph glyph-name="Scaron" unicode="&#x160;" horiz-adv-x="560" 
d="M213 688l-175 216h173l73 -107l77 107h168l-175 -216h-141zM258 -10q-68 0 -131 11.5t-106 33.5v181q47 -23 106 -38t105 -15q30 0 47 7.5t17 21.5q0 18 -32 28t-84 29q-62 24 -98 50t-51.5 62.5t-15.5 91.5q0 201 283 201q32 0 71.5 -4.5t77 -11.5t63.5 -15v-182
q-55 23 -97 31t-74 8q-25 0 -51 -4.5t-26 -20.5q0 -13 23 -20.5t73 -21.5q80 -22 120 -52.5t53.5 -72t13.5 -95.5q0 -92 -72 -147.5t-215 -55.5z" />
    <glyph glyph-name="scaron" unicode="&#x161;" horiz-adv-x="507" 
d="M182 522l-175 216h173l73 -107l77 107h168l-175 -216h-141zM239 -10q-68 0 -128 10t-92 24v153q24 -12 56 -21t63.5 -14t52.5 -5q23 0 38.5 1t15.5 10q0 8 -16 13t-40.5 11t-50.5 15q-65 24 -94 54.5t-29 87.5q0 76 63 115.5t193 39.5q32 0 70 -3.5t71.5 -8.5t53.5 -12
v-152q-32 14 -69 21.5t-65 7.5q-14 0 -30.5 -0.5t-28 -3t-11.5 -9.5q0 -10 30.5 -15.5t67.5 -16.5q52 -15 80.5 -33.5t40 -45t11.5 -65.5q0 -73 -64 -115.5t-189 -42.5z" />
    <glyph glyph-name="uni0162" unicode="&#x162;" horiz-adv-x="560" 
d="M159 0v470h-164v174h570v-174h-164v-470h-63l-13 -37q50 0 79 -27.5t29 -68.5q0 -49 -42.5 -78t-127.5 -29q-12 0 -30 1t-34 3t-24 4v77q29 -8 58 -8q67 0 67 35q0 16 -10 22t-27 6h-74l28 100h-58z" />
    <glyph glyph-name="uni0163" unicode="&#x163;" horiz-adv-x="396" 
d="M241 -240q-12 0 -30 1t-34 3t-24 4v77q29 -8 58 -8q67 0 67 35q0 16 -10 22t-27 6h-74l27 95q-76 14 -109 64.5t-33 126.5v114h-57v174h57v93l242 49v-142h97l-5 -174h-92v-101q0 -42 47 -42q31 0 60 10v-150q-41 -18 -87 -24l-11 -30q50 0 79 -27.5t29 -68.5
q0 -49 -42.5 -78t-127.5 -29z" />
    <glyph glyph-name="Tcaron" unicode="&#x164;" horiz-adv-x="560" 
d="M210 688l-175 216h173l73 -107l77 107h168l-175 -216h-141zM159 0v470h-164v174h570v-174h-164v-470h-242z" />
    <glyph glyph-name="tcaron" unicode="&#x165;" horiz-adv-x="420" 
d="M361 558l37 249h179l-65 -249h-151zM254 -10q-109 0 -155.5 53t-46.5 143v114h-57v174h57v93l242 49v-142h100l-8 -174h-92v-101q0 -42 47 -42q31 0 60 10v-150q-31 -13 -66 -20t-81 -7z" />
    <glyph glyph-name="Tbar" unicode="&#x166;" horiz-adv-x="560" 
d="M159 0v239h-77v154h77v77h-164v174h570v-174h-164v-77h67v-154h-67v-239h-242z" />
    <glyph glyph-name="tbar" unicode="&#x167;" horiz-adv-x="396" 
d="M254 -10q-107 0 -154 51.5t-48 139.5h-57v122h57v21h-57v150h57v93l242 49v-142h97l-5 -150h-92v-21h96v-122h-93q8 -24 44 -24q31 0 60 10v-150q-31 -13 -66 -20t-81 -7z" />
    <glyph glyph-name="Utilde" unicode="&#x168;" horiz-adv-x="704" 
d="M458 693q-36 0 -70.5 11t-67 22t-63.5 11q-34 0 -60.5 -11.5t-44.5 -29.5v141q15 14 43 24.5t59 10.5q37 0 69.5 -11l65 -22t66.5 -11q35 0 60.5 12.5t37.5 28.5v-141q-10 -13 -36.5 -24t-58.5 -11zM352 -10q-91 0 -164 30t-115.5 89t-42.5 145v390h242v-359
q0 -90 80 -90t80 90v359h242v-390q0 -86 -42.5 -145t-115.5 -89t-164 -30z" />
    <glyph glyph-name="utilde" unicode="&#x169;" horiz-adv-x="626" 
d="M413 527q-36 0 -70.5 11t-67 22t-63.5 11q-34 0 -60.5 -11.5t-44.5 -29.5v141q15 14 43 24.5t59 10.5q37 0 69.5 -11l65 -22t66.5 -11q35 0 60.5 12.5t37.5 28.5v-141q-10 -13 -36.5 -24t-58.5 -11zM204 -10q-80 0 -127 47t-47 137v300h242v-274q0 -32 33 -32q11 0 24 6
t20 14v286h242v-474h-227l-5 27q-26 -16 -66.5 -26.5t-88.5 -10.5z" />
    <glyph glyph-name="Umacron" unicode="&#x16a;" horiz-adv-x="704" 
d="M178 728v140h349v-140h-349zM352 -10q-91 0 -164 30t-115.5 89t-42.5 145v390h242v-359q0 -90 80 -90t80 90v359h242v-390q0 -86 -42.5 -145t-115.5 -89t-164 -30z" />
    <glyph glyph-name="umacron" unicode="&#x16b;" horiz-adv-x="626" 
d="M141 562v140h349v-140h-349zM204 -10q-80 0 -127 47t-47 137v300h242v-274q0 -32 33 -32q11 0 24 6t20 14v286h242v-474h-227l-5 27q-26 -16 -66.5 -26.5t-88.5 -10.5z" />
    <glyph glyph-name="Ubreve" unicode="&#x16c;" horiz-adv-x="704" 
d="M352 688q-100 0 -160 56.5t-60 163.5h155q0 -34 14 -61t51 -27q38 0 52 27t14 61h155q0 -107 -60 -163.5t-161 -56.5zM352 -10q-91 0 -164 30t-115.5 89t-42.5 145v390h242v-359q0 -90 80 -90t80 90v359h242v-390q0 -86 -42.5 -145t-115.5 -89t-164 -30z" />
    <glyph glyph-name="ubreve" unicode="&#x16d;" horiz-adv-x="626" 
d="M316 522q-100 0 -160 56.5t-60 163.5h155q0 -34 14 -61t51 -27q38 0 52 27t14 61h155q0 -107 -60 -163.5t-161 -56.5zM204 -10q-80 0 -127 47t-47 137v300h242v-274q0 -32 33 -32q11 0 24 6t20 14v286h242v-474h-227l-5 27q-26 -16 -66.5 -26.5t-88.5 -10.5z" />
    <glyph glyph-name="Uring" unicode="&#x16e;" horiz-adv-x="704" 
d="M352 688q-75 0 -114 41.5t-39 101.5q0 61 39 102.5t114 41.5q76 0 115 -41.5t39 -102.5q0 -60 -39 -101.5t-115 -41.5zM352 780q28 0 41 15.5t13 35.5t-13 35.5t-41 15.5t-41 -15.5t-13 -35.5t13 -35.5t41 -15.5zM352 -10q-91 0 -164 30t-115.5 89t-42.5 145v390h242
v-359q0 -90 80 -90t80 90v359h242v-390q0 -86 -42.5 -145t-115.5 -89t-164 -30z" />
    <glyph glyph-name="uring" unicode="&#x16f;" horiz-adv-x="626" 
d="M311 522q-75 0 -114 41.5t-39 101.5q0 61 39 102.5t114 41.5q76 0 115 -41.5t39 -102.5q0 -60 -39 -101.5t-115 -41.5zM311 614q28 0 41 15.5t13 35.5t-13 35.5t-41 15.5t-41 -15.5t-13 -35.5t13 -35.5t41 -15.5zM204 -10q-80 0 -127 47t-47 137v300h242v-274
q0 -32 33 -32q11 0 24 6t20 14v286h242v-474h-227l-5 27q-26 -16 -66.5 -26.5t-88.5 -10.5z" />
    <glyph glyph-name="Uhungarumlaut" unicode="&#x170;" horiz-adv-x="704" 
d="M110 688l95 203h206l-114 -203h-187zM380 688l95 203h206l-114 -203h-187zM352 -10q-91 0 -164 30t-115.5 89t-42.5 145v390h242v-359q0 -90 80 -90t80 90v359h242v-390q0 -86 -42.5 -145t-115.5 -89t-164 -30z" />
    <glyph glyph-name="uhungarumlaut" unicode="&#x171;" horiz-adv-x="626" 
d="M47 522l95 203h206l-114 -203h-187zM317 522l95 203h206l-114 -203h-187zM204 -10q-80 0 -127 47t-47 137v300h242v-274q0 -32 33 -32q11 0 24 6t20 14v286h242v-474h-227l-5 27q-26 -16 -66.5 -26.5t-88.5 -10.5z" />
    <glyph glyph-name="Uogonek" unicode="&#x172;" horiz-adv-x="704" 
d="M363 -220q-68 0 -108 25t-40 79q0 36 19.5 64.5t47.5 46.5q-74 10 -130.5 43t-89 87t-32.5 129v390h242v-359q0 -90 80 -90t80 90v359h242v-390q0 -73 -31.5 -127t-87 -87t-126.5 -44q-19 -15 -31.5 -33.5t-12.5 -38.5q0 -19 12.5 -25t34.5 -6q13 0 27.5 3t23.5 8v-106
q-17 -6 -49.5 -12t-70.5 -6z" />
    <glyph glyph-name="uogonek" unicode="&#x173;" horiz-adv-x="626" 
d="M204 -10q-80 0 -127 47t-47 137v300h242v-274q0 -32 33 -32q11 0 24 6t20 14v286h242v-474h-83q-21 -16 -35 -35t-14 -41q0 -19 12.5 -25t34.5 -6q13 0 27.5 3t23.5 8v-106q-17 -6 -49.5 -12t-70.5 -6q-68 0 -108 25t-40 79q0 39 22 69t53 47l-5 27q-26 -16 -66.5 -26.5
t-88.5 -10.5z" />
    <glyph glyph-name="Wcircumflex" unicode="&#x174;" horiz-adv-x="911" 
d="M214 688l175 216h141l175 -216h-168l-77 107l-73 -107h-173zM165 0l-150 644h236l49 -246l37 137v109h197l72 -247l55 247h235l-149 -644h-211l-77 254l-83 -254h-211z" />
    <glyph glyph-name="wcircumflex" unicode="&#x175;" horiz-adv-x="814" 
d="M163 522l175 216h141l175 -216h-168l-77 107l-73 -107h-173zM141 0l-126 474h230l40 -162l30 88v74h174l42 -162l38 162h230l-126 -474h-213l-52 153l-52 -153h-215z" />
    <glyph glyph-name="Ycircumflex" unicode="&#x176;" horiz-adv-x="738" 
d="M124 688l175 216h141l175 -216h-168l-77 107l-73 -107h-173zM248 0v234l-233 410h252l102 -205l102 205h252l-233 -410v-234h-242z" />
    <glyph glyph-name="ycircumflex" unicode="&#x177;" horiz-adv-x="677" 
d="M106 522l175 216h141l175 -216h-168l-77 107l-73 -107h-173zM229 -176q-49 0 -79.5 5t-61.5 18v154q29 -10 60 -10q30 0 50 4.5t34 19.5l-217 459h253l83 -236l79 236h252l-163 -417q-43 -109 -112 -171t-178 -62z" />
    <glyph glyph-name="Ydieresis" unicode="&#x178;" horiz-adv-x="738" 
d="M174 718v141h156v-141h-156zM409 718v141h156v-141h-156zM248 0v234l-233 410h252l102 -205l102 205h252l-233 -410v-234h-242z" />
    <glyph glyph-name="Zacute" unicode="&#x179;" horiz-adv-x="586" 
d="M192 688l96 226h186l-105 -226h-177zM15 0v119l236 327h-222v198h541v-137l-233 -323h239v-184h-561z" />
    <glyph glyph-name="zacute" unicode="&#x17a;" horiz-adv-x="506" 
d="M155 522l96 226h186l-105 -226h-177zM15 0v127l159 162h-154v185h463v-140l-151 -160h159v-174h-476z" />
    <glyph glyph-name="Zdotaccent" unicode="&#x17b;" horiz-adv-x="586" 
d="M226 718v141h156v-141h-156zM15 0v119l236 327h-222v198h541v-137l-233 -323h239v-184h-561z" />
    <glyph glyph-name="zdotaccent" unicode="&#x17c;" horiz-adv-x="506" 
d="M170 552v141h156v-141h-156zM15 0v127l159 162h-154v185h463v-140l-151 -160h159v-174h-476z" />
    <glyph glyph-name="Zcaron" unicode="&#x17d;" horiz-adv-x="586" 
d="M243 688l-175 216h173l73 -107l77 107h168l-175 -216h-141zM15 0v119l236 327h-222v198h541v-137l-233 -323h239v-184h-561z" />
    <glyph glyph-name="zcaron" unicode="&#x17e;" horiz-adv-x="506" 
d="M181 522l-175 216h173l73 -107l77 107h168l-175 -216h-141zM15 0v127l159 162h-154v185h463v-140l-151 -160h159v-174h-476z" />
    <glyph glyph-name="uni018F" unicode="&#x18f;" horiz-adv-x="704" 
d="M349 -10q-157 0 -245.5 77.5t-88.5 221.5v113h453q-10 53 -53 76.5t-139 23.5q-33 0 -78.5 -7t-87 -17t-64.5 -20v147q50 20 124.5 34.5t157.5 14.5q109 0 190 -42.5t126 -119.5t45 -180q0 -97 -36.5 -169.5t-112 -112.5t-191.5 -40zM349 132q66 0 92.5 33t26.5 86h-246
v-19q0 -24 13.5 -47t41.5 -38t72 -15z" />
    <glyph glyph-name="florin" unicode="&#x192;" horiz-adv-x="511" 
d="M21 -123q-46 0 -79 7t-62 20l31 150q27 -10 58 -10q27 0 39.5 10.5t16.5 29.5l45 216h-56l37 174h56l3 15q13 58 45 103t82.5 71.5t117.5 26.5q46 0 79.5 -6.5t61.5 -20.5l-31 -150q-27 10 -58 10q-27 0 -39.5 -10.5t-16.5 -29.5l-2 -9h103l-47 -174h-93l-46 -222
q-12 -57 -44 -102.5t-82.5 -72t-118.5 -26.5z" />
    <glyph glyph-name="Ohorn" unicode="&#x1a0;" horiz-adv-x="821" 
d="M360 -10q-109 0 -186 32.5t-118 105.5t-41 194q0 122 41 194.5t118 105t186 32.5q69 0 125.5 -12.5t99.5 -40.5q44 4 58 22.5t14 64.5h169q0 -103 -31.5 -157t-107.5 -73q18 -57 18 -136q0 -121 -41 -194t-118 -105.5t-186 -32.5zM360 195q53 0 75.5 28.5t22.5 98.5
t-22.5 98.5t-75.5 28.5t-75.5 -28.5t-22.5 -98.5t22.5 -98.5t75.5 -28.5z" />
    <glyph glyph-name="ohorn" unicode="&#x1a1;" horiz-adv-x="767" 
d="M313 -10q-151 0 -224.5 62t-73.5 185t73.5 185t224.5 62q128 0 201 -45q56 0 72.5 23.5t16.5 73.5h169q0 -111 -37.5 -169t-126.5 -75q2 -13 3 -27t1 -28q0 -247 -299 -247zM313 163q26 0 39 16t13 58t-13 58t-39 16q-25 0 -38 -16t-13 -58t13 -58t38 -16z" />
    <glyph glyph-name="Uhorn" unicode="&#x1af;" horiz-adv-x="890" 
d="M352 -10q-91 0 -164 30t-115.5 89t-42.5 145v390h242v-359q0 -90 80 -90t80 90v359h242v-43q44 3 58 22t14 65h169q0 -88 -25 -140t-78 -75.5t-138 -25.5v-193q0 -86 -42.5 -145t-115.5 -89t-164 -30z" />
    <glyph glyph-name="uhorn" unicode="&#x1b0;" horiz-adv-x="807" 
d="M204 -10q-80 0 -127 47t-47 137v300h242v-274q0 -32 33 -32q11 0 24 6t20 14v286h242v-33q42 2 52 24t10 71h169q0 -86 -22.5 -139t-73 -79t-135.5 -33v-285h-227l-5 27q-26 -16 -66.5 -26.5t-88.5 -10.5z" />
    <glyph glyph-name="uni01CD" unicode="&#x1cd;" horiz-adv-x="777" 
d="M318 688l-175 216h173l73 -107l77 107h168l-175 -216h-141zM15 0l248 644h251l248 -644h-252l-46 120h-151l-46 -120h-252zM339 285h98l-49 123z" />
    <glyph glyph-name="uni01CE" unicode="&#x1ce;" horiz-adv-x="587" 
d="M231 522l-175 216h173l73 -107l77 107h168l-175 -216h-141zM182 -10q-45 0 -83 16t-61 51t-23 91q0 80 50.5 121t155.5 41h106v5q0 11 -21 19.5t-64 8.5q-38 0 -82.5 -6.5t-84.5 -18.5v130q39 17 99.5 26.5t115.5 9.5q79 0 139 -21.5t94 -66t34 -113.5v-283h-212l-10 34
q-24 -19 -61.5 -31.5t-91.5 -12.5zM273 122q19 0 31.5 6t22.5 16v44h-44q-45 0 -45 -33t35 -33z" />
    <glyph glyph-name="uni01CF" unicode="&#x1cf;" horiz-adv-x="312" 
d="M86 688l-175 216h173l73 -107l77 107h168l-175 -216h-141zM35 0v644h242v-644h-242z" />
    <glyph glyph-name="uni01D0" unicode="&#x1d0;" horiz-adv-x="378" 
d="M137 522l-175 216h173l73 -107l77 107h168l-175 -216h-141zM101 0v300h-66l20 174h288v-474h-242z" />
    <glyph glyph-name="uni01D1" unicode="&#x1d1;" horiz-adv-x="720" 
d="M290 688l-175 216h173l73 -107l77 107h168l-175 -216h-141zM360 -10q-109 0 -186 32.5t-118 105.5t-41 194q0 122 41 194.5t118 105t186 32.5t186 -32.5t118 -105t41 -194.5q0 -121 -41 -194t-118 -105.5t-186 -32.5zM360 195q53 0 75.5 28.5t22.5 98.5t-22.5 98.5
t-75.5 28.5t-75.5 -28.5t-22.5 -98.5t22.5 -98.5t75.5 -28.5z" />
    <glyph glyph-name="uni01D2" unicode="&#x1d2;" horiz-adv-x="627" 
d="M243 522l-175 216h173l73 -107l77 107h168l-175 -216h-141zM313 -10q-151 0 -224.5 62t-73.5 185t73.5 185t224.5 62q299 0 299 -247t-299 -247zM313 163q26 0 39 16t13 58t-13 58t-39 16q-25 0 -38 -16t-13 -58t13 -58t38 -16z" />
    <glyph glyph-name="uni01D3" unicode="&#x1d3;" horiz-adv-x="704" 
d="M282 688l-175 216h173l73 -107l77 107h168l-175 -216h-141zM352 -10q-91 0 -164 30t-115.5 89t-42.5 145v390h242v-359q0 -90 80 -90t80 90v359h242v-390q0 -86 -42.5 -145t-115.5 -89t-164 -30z" />
    <glyph glyph-name="uni01D4" unicode="&#x1d4;" horiz-adv-x="626" 
d="M238 522l-175 216h173l73 -107l77 107h168l-175 -216h-141zM204 -10q-80 0 -127 47t-47 137v300h242v-274q0 -32 33 -32q11 0 24 6t20 14v286h242v-474h-227l-5 27q-26 -16 -66.5 -26.5t-88.5 -10.5z" />
    <glyph glyph-name="uni01D5" unicode="&#x1d5;" horiz-adv-x="704" 
d="M178 888v140h349v-140h-349zM157 697v141h156v-141h-156zM392 697v141h156v-141h-156zM352 -10q-91 0 -164 30t-115.5 89t-42.5 145v390h242v-359q0 -90 80 -90t80 90v359h242v-390q0 -86 -42.5 -145t-115.5 -89t-164 -30z" />
    <glyph glyph-name="uni01D6" unicode="&#x1d6;" horiz-adv-x="626" 
d="M139 720v140h349v-140h-349zM118 532v141h156v-141h-156zM353 532v141h156v-141h-156zM204 -10q-80 0 -127 47t-47 137v300h242v-274q0 -32 33 -32q11 0 24 6t20 14v286h242v-474h-227l-5 27q-26 -16 -66.5 -26.5t-88.5 -10.5z" />
    <glyph glyph-name="uni01D7" unicode="&#x1d7;" horiz-adv-x="704" 
d="M268 862l56 145h178l-74 -145h-160zM162 698v133h152v-133h-152zM391 698v133h152v-133h-152zM352 -10q-91 0 -164 30t-115.5 89t-42.5 145v390h242v-359q0 -90 80 -90t80 90v359h242v-390q0 -86 -42.5 -145t-115.5 -89t-164 -30z" />
    <glyph glyph-name="uni01D8" unicode="&#x1d8;" horiz-adv-x="626" 
d="M224 724l56 145h178l-74 -145h-160zM118 560v133h152v-133h-152zM347 560v133h152v-133h-152zM204 -10q-80 0 -127 47t-47 137v300h242v-274q0 -32 33 -32q11 0 24 6t20 14v286h242v-474h-227l-5 27q-26 -16 -66.5 -26.5t-88.5 -10.5z" />
    <glyph glyph-name="uni01D9" unicode="&#x1d9;" horiz-adv-x="704" 
d="M270 862l-149 145h176l56 -73l58 73h173l-149 -145h-165zM157 698v133h152v-133h-152zM386 698v133h152v-133h-152zM352 -10q-91 0 -164 30t-115.5 89t-42.5 145v390h242v-359q0 -90 80 -90t80 90v359h242v-390q0 -86 -42.5 -145t-115.5 -89t-164 -30z" />
    <glyph glyph-name="uni01DA" unicode="&#x1da;" horiz-adv-x="626" 
d="M232 696l-149 145h176l56 -73l58 73h173l-149 -145h-165zM119 532v133h152v-133h-152zM348 532v133h152v-133h-152zM204 -10q-80 0 -127 47t-47 137v300h242v-274q0 -32 33 -32q11 0 24 6t20 14v286h242v-474h-227l-5 27q-26 -16 -66.5 -26.5t-88.5 -10.5z" />
    <glyph glyph-name="uni01DB" unicode="&#x1db;" horiz-adv-x="704" 
d="M277 897l-74 145h178l56 -145h-160zM162 733v133h152v-133h-152zM391 733v133h152v-133h-152zM352 -10q-91 0 -164 30t-115.5 89t-42.5 145v390h242v-359q0 -90 80 -90t80 90v359h242v-390q0 -86 -42.5 -145t-115.5 -89t-164 -30z" />
    <glyph glyph-name="uni01DC" unicode="&#x1dc;" horiz-adv-x="626" 
d="M241 724l-74 145h178l56 -145h-160zM126 560v133h152v-133h-152zM355 560v133h152v-133h-152zM204 -10q-80 0 -127 47t-47 137v300h242v-274q0 -32 33 -32q11 0 24 6t20 14v286h242v-474h-227l-5 27q-26 -16 -66.5 -26.5t-88.5 -10.5z" />
    <glyph glyph-name="Gcaron" unicode="&#x1e6;" horiz-adv-x="663" 
d="M310 687l-175 216h173l73 -107l77 107h168l-175 -216h-141zM390 -10q-182 0 -278.5 84t-96.5 248t101 248t291 84q62 0 111.5 -6.5t95.5 -22.5v-206q-46 18 -93.5 24.5t-97.5 6.5q-70 0 -115.5 -27.5t-45.5 -100.5t32.5 -100.5t93.5 -27.5q32 0 60 7v39h-107v146h307
v-333q-41 -25 -105 -44t-153 -19z" />
    <glyph glyph-name="gcaron" unicode="&#x1e7;" horiz-adv-x="586" 
d="M225 522l-175 216h173l73 -107l77 107h168l-175 -216h-141zM258 -176q-35 0 -79 2.5t-84 8t-63 13.5v138q27 -9 64 -14.5t76 -8t71 -2.5q38 0 67 3t29 13q0 8 -11.5 9.5t-30.5 1.5h-114q-83 0 -125.5 22t-42.5 71q0 35 21 58.5t58 34.5q-40 21 -58 51t-18 79
q0 93 68 136.5t191 43.5q18 0 40.5 -1.5t42 -4t28.5 -4.5h193l-4 -143h-52q2 -6 4 -14.5t2 -15.5q0 -73 -39.5 -114.5t-131.5 -41.5q-10 0 -25 0.5t-26 1.5q-14 -1 -25.5 -4.5t-11.5 -13.5q0 -8 7 -10.5t19 -2.5h84q74 0 119 -32.5t45 -102.5q0 -69 -67.5 -113t-220.5 -44z
M279 275q28 0 38.5 9t10.5 30q0 22 -11.5 31.5t-37.5 9.5q-49 0 -49 -41q0 -20 11 -29.5t38 -9.5z" />
    <glyph glyph-name="Aringacute" unicode="&#x1fa;" horiz-adv-x="777" 
d="M294 907l96 180h186l-105 -180h-177zM15 0l248 643q-28 36 -28 88q0 61 39 102.5t114 41.5q76 0 115 -41.5t39 -102.5q0 -52 -28 -88l248 -643h-252l-46 120h-151l-46 -120h-252zM388 680q28 0 41 15.5t13 35.5t-13 35.5t-41 15.5t-41 -15.5t-13 -35.5t13 -35.5t41 -15.5
zM339 285h98l-49 123z" />
    <glyph glyph-name="aringacute" unicode="&#x1fb;" horiz-adv-x="587" 
d="M207 843l96 180h186l-105 -180h-177zM319 522q-75 0 -114 41.5t-39 101.5q0 61 39 102.5t114 41.5q76 0 115 -41.5t39 -102.5q0 -60 -39 -101.5t-115 -41.5zM319 614q28 0 41 15.5t13 35.5t-13 35.5t-41 15.5t-41 -15.5t-13 -35.5t13 -35.5t41 -15.5zM182 -10
q-45 0 -83 16t-61 51t-23 91q0 80 50.5 121t155.5 41h106v5q0 11 -21 19.5t-64 8.5q-38 0 -82.5 -6.5t-84.5 -18.5v130q39 17 99.5 26.5t115.5 9.5q79 0 139 -21.5t94 -66t34 -113.5v-283h-212l-10 34q-24 -19 -61.5 -31.5t-91.5 -12.5zM273 122q19 0 31.5 6t22.5 16v44h-44
q-45 0 -45 -33t35 -33z" />
    <glyph glyph-name="AEacute" unicode="&#x1fc;" horiz-adv-x="874" 
d="M408 688l96 226h186l-105 -226h-177zM15 0l248 644h596v-174h-223v-58h185v-180h-185v-58h223v-174h-455v120h-91l-46 -120h-252zM339 285h65v185h-6z" />
    <glyph glyph-name="aeacute" unicode="&#x1fd;" horiz-adv-x="889" 
d="M334 522l96 226h186l-105 -226h-177zM221 -10q-55 0 -102 16t-75.5 51t-28.5 91q0 80 50.5 121t155.5 41h106v5q0 11 -21 19.5t-64 8.5q-38 0 -82.5 -6.5t-84.5 -18.5v130q39 17 99.5 26.5t115.5 9.5q45 0 87 -12t70 -35q29 21 71 34t88 13q122 0 195 -60t73 -171v-81
h-316q15 -19 49.5 -29.5t89.5 -10.5q45 0 87 7.5t66 16.5v-130q-37 -18 -88.5 -27t-123.5 -9q-34 0 -70.5 8.5t-68.5 24.5t-52 39q-37 -31 -87 -51.5t-139 -20.5zM558 293h109v9q0 14 -11 26.5t-42 12.5q-30 0 -43 -14t-13 -34zM273 122q36 0 54 22v44h-44q-45 0 -45 -33
t35 -33z" />
    <glyph glyph-name="Oslashacute" unicode="&#x1fe;" horiz-adv-x="720" 
d="M218 688l96 226h186l-105 -226h-177zM168 -53l27 67q-87 30 -133.5 104t-46.5 204q0 122 41 194.5t118 105t186 32.5q25 0 48 -1.5t45 -5.5l19 46h77l-26 -63q88 -30 135 -104t47 -204q0 -121 -41 -194t-118 -105.5t-186 -32.5q-25 0 -49 1.5t-46 5.5l-20 -50h-77z
M279 220l95 234q-3 1 -6.5 1h-7.5q-56 0 -79.5 -29.5t-23.5 -103.5q0 -36 5 -61t17 -41zM343 189h17q56 0 79.5 30t23.5 103q0 72 -24 103z" />
    <glyph glyph-name="oslashacute" unicode="&#x1ff;" horiz-adv-x="627" 
d="M134 522l96 226h186l-105 -226h-177zM156 -54l24 60q-165 46 -165 231q0 123 73.5 185t224.5 62q33 0 61 -3l19 47h77l-25 -60q167 -46 167 -231q0 -247 -299 -247q-32 0 -61 3l-19 -47h-77zM251 179l62 152q-32 0 -52 -20.5t-20 -73.5q0 -38 10 -58zM313 143
q33 0 53 20.5t20 73.5q0 35 -11 59z" />
    <glyph glyph-name="uni0218" unicode="&#x218;" horiz-adv-x="560" 
d="M258 -10q-68 0 -131 11.5t-106 33.5v181q47 -23 106 -38t105 -15q30 0 47 7.5t17 21.5q0 18 -32 28t-84 29q-62 24 -98 50t-51.5 62.5t-15.5 91.5q0 201 283 201q32 0 71.5 -4.5t77 -11.5t63.5 -15v-182q-55 23 -97 31t-74 8q-25 0 -51 -4.5t-26 -20.5q0 -13 23 -20.5
t73 -21.5q80 -22 120 -52.5t53.5 -72t13.5 -95.5q0 -92 -72 -147.5t-215 -55.5zM154 -241l34 204h201l-51 -204h-184z" />
    <glyph glyph-name="uni0219" unicode="&#x219;" horiz-adv-x="507" 
d="M239 -10q-68 0 -128 10t-92 24v153q24 -12 56 -21t63.5 -14t52.5 -5q23 0 38.5 1t15.5 10q0 8 -16 13t-40.5 11t-50.5 15q-65 24 -94 54.5t-29 87.5q0 76 63 115.5t193 39.5q32 0 70 -3.5t71.5 -8.5t53.5 -12v-152q-32 14 -69 21.5t-65 7.5q-14 0 -30.5 -0.5t-28 -3
t-11.5 -9.5q0 -10 30.5 -15.5t67.5 -16.5q52 -15 80.5 -33.5t40 -45t11.5 -65.5q0 -73 -64 -115.5t-189 -42.5zM124 -241l34 204h201l-51 -204h-184z" />
    <glyph glyph-name="uni021A" unicode="&#x21a;" horiz-adv-x="560" 
d="M159 0v470h-164v174h570v-174h-164v-470h-242zM164 -286l37 249h179l-65 -249h-151z" />
    <glyph glyph-name="uni021B" unicode="&#x21b;" horiz-adv-x="396" 
d="M254 -10q-109 0 -155.5 53t-46.5 143v114h-57v174h57v93l242 49v-142h97l-5 -174h-92v-101q0 -42 47 -42q31 0 60 10v-150q-31 -13 -66 -20t-81 -7zM125 -286l37 249h179l-65 -249h-151z" />
    <glyph glyph-name="uni0237" unicode="&#x237;" horiz-adv-x="378" 
d="M141 -234q-46 0 -80.5 7t-66.5 20v150q29 -10 60 -10q47 0 47 40v327h-66l20 174h288v-517q0 -55 -20.5 -98t-65 -68t-116.5 -25z" />
    <glyph glyph-name="uni0251" unicode="&#x251;" horiz-adv-x="628" 
d="M227 -10q-102 0 -157 55t-55 171q0 125 61 196.5t167 71.5q37 0 65.5 -10t46.5 -25v25h238v-474h-210l-11 31q-26 -19 -63.5 -30t-81.5 -11zM309 163q25 0 42 15v118q-18 15 -42 15q-47 0 -47 -87q0 -39 13 -50t34 -11z" />
    <glyph glyph-name="uni0259" unicode="&#x259;" horiz-adv-x="567" 
d="M275 -10q-121 0 -190.5 58t-69.5 173v81h316q-13 20 -40.5 30t-93.5 10q-45 0 -89.5 -7.5t-68.5 -16.5v130q38 17 99.5 26.5t128.5 9.5q84 0 148.5 -25t100.5 -79t36 -141q0 -72 -32 -128.5t-93.5 -88.5t-151.5 -32zM275 133q30 0 43 14t13 34h-109v-9q0 -14 11 -26.5
t42 -12.5z" />
    <glyph glyph-name="uni02BB" unicode="&#x2bb;" horiz-adv-x="297" 
d="M15 401l86 253h181l-68 -253h-199z" />
    <glyph glyph-name="uni02BC" unicode="&#x2bc;" horiz-adv-x="297" 
d="M15 401l68 253h199l-86 -253h-181z" />
    <glyph glyph-name="uni02BE" unicode="&#x2be;" 
d="M-418 434v145q34 0 56 9t22 46q0 38 -22 47t-56 9v145q115 0 167.5 -50t52.5 -151q0 -100 -52.5 -150t-167.5 -50z" />
    <glyph glyph-name="uni02BF" unicode="&#x2bf;" 
d="M-198 434q-115 0 -167.5 50t-52.5 150q0 101 52.5 151t167.5 50v-145q-34 0 -56 -9t-22 -47q0 -37 22 -46t56 -9v-145z" />
    <glyph glyph-name="circumflex" unicode="&#x2c6;" horiz-adv-x="250" 
d="M-121 522l175 216h141l175 -216h-168l-77 107l-73 -107h-173z" />
    <glyph glyph-name="caron" unicode="&#x2c7;" horiz-adv-x="250" 
d="M54 522l-175 216h173l73 -107l77 107h168l-175 -216h-141z" />
    <glyph glyph-name="uni02C8" unicode="&#x2c8;" 
d="M-120 470v219h150v-219h-150z" />
    <glyph glyph-name="uni02C9" unicode="&#x2c9;" 
d="M81 554v140h349v-140h-349z" />
    <glyph glyph-name="uni02CA" unicode="&#x2ca;" 
d="M-190 522l96 226h186l-105 -226h-177z" />
    <glyph glyph-name="uni02CB" unicode="&#x2cb;" 
d="M-85 522l-105 226h186l96 -226h-177z" />
    <glyph glyph-name="uni02CC" unicode="&#x2cc;" 
d="M-120 -260v219h150v-219h-150z" />
    <glyph glyph-name="breve" unicode="&#x2d8;" horiz-adv-x="221" 
d="M109 524q-100 0 -160 56.5t-60 163.5h155q0 -34 14 -61t51 -27q38 0 52 27t14 61h155q0 -107 -60 -163.5t-161 -56.5z" />
    <glyph glyph-name="dotaccent" unicode="&#x2d9;" horiz-adv-x="65" 
d="M-46 550v141h156v-141h-156z" />
    <glyph glyph-name="ring" unicode="&#x2da;" horiz-adv-x="221" 
d="M110 504q-75 0 -114 41.5t-39 101.5q0 61 39 102.5t114 41.5q76 0 115 -41.5t39 -102.5q0 -60 -39 -101.5t-115 -41.5zM110 596q28 0 41 15.5t13 35.5t-13 35.5t-41 15.5t-41 -15.5t-13 -35.5t13 -35.5t41 -15.5z" />
    <glyph glyph-name="ogonek" unicode="&#x2db;" horiz-adv-x="163" 
d="M104 -220q-68 0 -108 25t-40 79q0 39 22 69t53 47h144q-21 -16 -35 -35t-14 -41q0 -19 12.5 -25t34.5 -6q13 0 27.5 3t23.5 8v-106q-17 -6 -49.5 -12t-70.5 -6z" />
    <glyph glyph-name="tilde" unicode="&#x2dc;" horiz-adv-x="291" 
d="M249 532q-36 0 -70.5 11t-67 22t-63.5 11q-34 0 -60.5 -11.5t-44.5 -29.5v141q15 14 43 24.5t59 10.5q37 0 69.5 -11l65 -22t66.5 -11q35 0 60.5 12.5t37.5 28.5v-141q-10 -13 -36.5 -24t-58.5 -11z" />
    <glyph glyph-name="hungarumlaut" unicode="&#x2dd;" horiz-adv-x="314" 
d="M155 519l95 203h206l-114 -203h-187zM-115 519l95 203h206l-114 -203h-187z" />
    <glyph glyph-name="gravecomb" unicode="&#x300;" 
d="M-428 522l-105 226h186l96 -226h-177z" />
    <glyph glyph-name="acutecomb" unicode="&#x301;" 
d="M-533 522l96 226h186l-105 -226h-177z" />
    <glyph glyph-name="uni0302" unicode="&#x302;" 
d="M-301 522l175 216h141l175 -216h-168l-77 107l-73 -107h-173z" />
    <glyph glyph-name="tildecomb" unicode="&#x303;" 
d="M-270 532q-36 0 -70.5 11t-67 22t-63.5 11q-34 0 -60.5 -11.5t-44.5 -29.5v141q15 14 43 24.5t59 10.5q37 0 69.5 -11l65 -22t66.5 -11q35 0 60.5 12.5t37.5 28.5v-141q-10 -13 -36.5 -24t-58.5 -11z" />
    <glyph glyph-name="uni0304" unicode="&#x304;" 
d="M-227 554v140h349v-140h-349z" />
    <glyph glyph-name="uni0306" unicode="&#x306;" 
d="M-45 524q-100 0 -160 56.5t-60 163.5h155q0 -34 14 -61t51 -27q38 0 52 27t14 61h155q0 -107 -60 -163.5t-161 -56.5z" />
    <glyph glyph-name="uni0307" unicode="&#x307;" 
d="M-123 550v141h156v-141h-156z" />
    <glyph glyph-name="uni0308" unicode="&#x308;" 
d="M39 550v141h156v-141h-156zM-196 550v141h156v-141h-156z" />
    <glyph glyph-name="hookabovecomb" unicode="&#x309;" 
d="M-433 501v81q49 3 67 13.5t18 25.5q0 28 -50 28q-31 0 -56 -10v94q24 7 55.5 11t74.5 4q73 0 112 -31t39 -76t-19 -67.5t-63 -36.5v-36h-178z" />
    <glyph glyph-name="uni030A" unicode="&#x30a;" 
d="M-45 504q-75 0 -114 41.5t-39 101.5q0 61 39 102.5t114 41.5q76 0 115 -41.5t39 -102.5q0 -60 -39 -101.5t-115 -41.5zM-45 596q28 0 41 15.5t13 35.5t-13 35.5t-41 15.5t-41 -15.5t-13 -35.5t13 -35.5t41 -15.5z" />
    <glyph glyph-name="uni030B" unicode="&#x30b;" 
d="M-63 519l95 203h206l-114 -203h-187zM-333 519l95 203h206l-114 -203h-187z" />
    <glyph glyph-name="uni030C" unicode="&#x30c;" 
d="M-126 522l-175 216h173l73 -107l77 107h168l-175 -216h-141z" />
    <glyph glyph-name="uni031B" unicode="&#x31b;" 
d="M-180 503v154q49 0 69.5 18.5t20.5 68.5h169q0 -91 -24.5 -143.5t-81.5 -75t-153 -22.5z" />
    <glyph glyph-name="dotbelowcomb" unicode="&#x323;" 
d="M-423 -213v141h156v-141h-156z" />
    <glyph glyph-name="uni0324" unicode="&#x324;" 
d="M-6 -213v141h156v-141h-156zM-241 -213v141h156v-141h-156z" />
    <glyph glyph-name="uni0326" unicode="&#x326;" 
d="M25 -286l37 249h179l-65 -249h-151z" />
    <glyph glyph-name="uni0327" unicode="&#x327;" 
d="M-44 -240q-12 0 -30 1t-34 3t-24 4v77q29 -8 58 -8q67 0 67 35q0 16 -10 22t-27 6h-74l28 100h121l-13 -37q50 0 79 -27.5t29 -68.5q0 -49 -42.5 -78t-127.5 -29z" />
    <glyph glyph-name="uni0328" unicode="&#x328;" 
d="M-29 -220q-68 0 -108 25t-40 79q0 39 22 69t53 47h144q-21 -16 -35 -35t-14 -41q0 -19 12.5 -25t34.5 -6q13 0 27.5 3t23.5 8v-106q-17 -6 -49.5 -12t-70.5 -6z" />
    <glyph glyph-name="uni032E" unicode="&#x32e;" 
d="M-45 -260q-100 0 -160 56.5t-60 163.5h155q0 -34 14 -61t51 -27q38 0 52 27t14 61h155q0 -107 -60 -163.5t-161 -56.5z" />
    <glyph glyph-name="uni0331" unicode="&#x331;" 
d="M-227 -208v140h349v-140h-349z" />
    <glyph glyph-name="uni0394" unicode="&#x394;" horiz-adv-x="632" 
d="M15 0v125l205 519h190l207 -520v-124h-602zM243 183h144l-72 179z" />
    <glyph glyph-name="uni03A9" unicode="&#x3a9;" horiz-adv-x="744" 
d="M22 0v175h83q-90 73 -90 196q0 154 91.5 239t265.5 85t265.5 -85t91.5 -239q0 -60 -20.5 -110.5t-69.5 -85.5h83v-175h-331v183q51 32 71 75t20 98q0 65 -26 99.5t-84 34.5t-84 -34.5t-26 -99.5q0 -55 20 -98t71 -75v-183h-331z" />
    <glyph glyph-name="uni03BC" unicode="&#x3bc;" horiz-adv-x="631" 
d="M35 -143v617h242v-274q0 -32 33 -32q11 0 24 6t20 14v286h242v-474h-227l-5 27q-13 -15 -37 -26t-50 -11v-133h-242z" />
    <glyph glyph-name="pi" unicode="&#x3c0;" horiz-adv-x="705" 
d="M553 -10q-109 0 -155.5 53t-46.5 143v93h-46v-279h-242v279h-58v195h646v-195h-58v-80q0 -42 47 -42q31 0 60 10v-150q-31 -13 -66 -20t-81 -7z" />
    <glyph glyph-name="uni0E01" unicode="&#xe01;" horiz-adv-x="652" 
d="M25 0v169q0 32 19 63t52 44l-81 29v155q50 33 125 61.5t169 28.5q114 0 181.5 -32t97 -83.5t29.5 -109.5v-325h-252v310q0 38 -14.5 55t-55.5 17q-22 0 -41.5 -4.5t-34.5 -11.5v-2l99 -36v-95q-22 -7 -34 -24t-12 -46v-163h-247z" />
    <glyph glyph-name="uni0E02" unicode="&#xe02;" horiz-adv-x="619" 
d="M305 -10q-126 0 -200.5 54.5t-74.5 152.5v18q0 35 14 59.5t27.5 43t13.5 34.5q0 26 -27 26h-43l19 162h178q60 0 88 -27.5t28 -76.5q0 -29 -11.5 -54t-27 -46.5t-27 -42.5t-11.5 -43v-19q0 -25 16 -35.5t38 -10.5q29 0 43.5 15.5t14.5 37.5v302h221v-339q0 -103 -73 -157
t-206 -54z" />
    <glyph glyph-name="uni0E03" unicode="&#xe03;" horiz-adv-x="643" 
d="M329 -10q-126 0 -200.5 47t-74.5 135v16q0 30 16 56.5t36.5 48t36.5 39t16 30.5q0 19 -16 19q-10 0 -17 -10v-37h-111v206h128v-28q14 9 44 18.5t59 9.5q57 0 86.5 -27.5t29.5 -76.5q0 -37 -13 -64.5t-30.5 -49.5t-30.5 -41.5t-13 -39.5v-10q0 -25 16 -35.5t38 -10.5
q29 0 43.5 15.5t14.5 37.5v302h221v-339q0 -103 -73 -157t-206 -54z" />
    <glyph glyph-name="uni0E04" unicode="&#xe04;" horiz-adv-x="664" 
d="M35 0v306q0 86 38.5 140t105.5 79t153 25t153 -25t105.5 -79t38.5 -140v-306h-242v285q0 35 -11.5 47.5t-43.5 12.5t-43.5 -12.5t-11.5 -47.5v-26q21 9 43 9h40l-1 -166h-39q-26 0 -43 -8v-94h-242z" />
    <glyph glyph-name="uni0E05" unicode="&#xe05;" horiz-adv-x="664" 
d="M35 0v393q0 71 44 114t118 43q35 0 71.5 -11.5t62.5 -39.5q26 28 64 39.5t73 11.5q79 0 120 -43t41 -114v-393h-242v314q0 17 -3 24t-14 7q-8 0 -12.5 -5t-8.5 -13h-34q-4 8 -7.5 13t-12.5 5q-11 0 -14.5 -7t-3.5 -24v-55q21 9 43 9h40l-1 -166h-39q-26 0 -43 -8v-94
h-242z" />
    <glyph glyph-name="uni0E06" unicode="&#xe06;" horiz-adv-x="658" 
d="M436 -10q-51 0 -91.5 12.5t-68.5 29.5l-7 -32h-225v152q0 36 17.5 67.5t40 58t40 48t17.5 36.5q0 19 -16 19q-10 0 -17 -10v-37h-111v206h149v-28q14 9 44 18.5t59 9.5q53 0 79.5 -30.5t26.5 -79.5q0 -47 -13 -78t-30.5 -53.5t-30.5 -42.5t-13 -46v-22q7 -8 25.5 -14
t28.5 -6q46 0 46 44v328h237v-366q0 -90 -53.5 -137t-133.5 -47z" />
    <glyph glyph-name="uni0E07" unicode="&#xe07;" horiz-adv-x="609" 
d="M287 -10q-34 0 -80 6t-78 18l-144 369h224l90 -231q24 11 36 45.5t12 86.5q0 48 -20 69.5t-58 21.5h-36v165h92q126 0 197.5 -62.5t71.5 -192.5q0 -104 -38 -169t-107 -95.5t-162 -30.5z" />
    <glyph glyph-name="uni0E08" unicode="&#xe08;" horiz-adv-x="579" 
d="M282 -10q-40 0 -81.5 6.5t-61.5 16.5l-56 150h-68l9 166h196l59 -157q17 14 27.5 37.5t10.5 63.5q0 59 -28 85t-96 26q-39 0 -86 -7.5t-91 -19.5v155q58 20 122 29t116 9q117 0 185 -32t96.5 -94t28.5 -152q0 -71 -24 -124t-64.5 -88t-90.5 -52.5t-103 -17.5z" />
    <glyph glyph-name="uni0E09" unicode="&#xe09;" horiz-adv-x="628" 
d="M201 -10q-80 0 -131 47t-51 137v126h242v-88q0 -44 41 -44q16 0 29 6t20 14v85q0 59 -28 85t-102 26q-26 0 -63.5 -3.5t-75.5 -9.5t-67 -14v155q58 20 130.5 29t136.5 9q115 0 183 -32t98 -94t30 -152v-272h-225l-7 32q-28 -17 -68.5 -29.5t-91.5 -12.5z" />
    <glyph glyph-name="uni0E0A" unicode="&#xe0a;" horiz-adv-x="635" 
d="M313 -10q-84 0 -147.5 23t-99.5 68t-36 109v18q0 37 14 63.5t27.5 45.5t13.5 35q0 26 -27 26h-43l19 162h168q60 0 88 -27.5t28 -76.5q0 -33 -10 -57.5t-23.5 -45t-23.5 -41t-10 -45.5v-17q0 -22 16.5 -33.5t45.5 -11.5q31 0 48.5 11.5t17.5 33.5v18q0 21 -10.5 31.5
t-27.5 10.5h-19l9 162h9q21 0 30 12.5t9 46.5v39h221v-31q0 -52 -12 -88.5t-47 -59.5q35 -20 47 -53.5t12 -73.5v-39q0 -64 -35 -112.5t-99 -75.5t-153 -27z" />
    <glyph glyph-name="uni0E0B" unicode="&#xe0b;" horiz-adv-x="633" 
d="M319 -10q-126 0 -200.5 47t-74.5 135v16q0 30 16 56.5t36.5 48t36.5 39t16 30.5q0 19 -16 19q-10 0 -17 -10v-37h-101v206h128v-28q14 9 41.5 18.5t56.5 9.5q50 0 78 -23.5t32 -64.5q14 1 20 14t6 45v39h221v-31q0 -52 -12 -88.5t-47 -59.5q35 -20 47 -53.5t12 -73.5v-43
q0 -103 -73 -157t-206 -54zM319 185q29 0 43.5 15.5t14.5 37.5v23q0 42 -34 42h-13l3 52q-13 -25 -29 -44.5t-27.5 -35.5t-11.5 -34v-10q0 -25 16 -35.5t38 -10.5z" />
    <glyph glyph-name="uni0E0C" unicode="&#xe0c;" horiz-adv-x="960" 
d="M738 -10q-51 0 -89 12.5t-66 29.5l-7 -32h-220v310q0 38 -12 55t-53 17q-22 0 -39.5 -4.5t-32.5 -11.5v-2l99 -36v-95q-46 -15 -46 -59v-9q0 -25 25 -25h23v-140h-188q-50 0 -78.5 29t-28.5 75v65q0 32 19 63t52 44l-81 29v155q50 33 123 61.5t167 28.5q86 0 141.5 -18.5
t88 -50.5t45.5 -72t13 -84v-137q7 -8 23 -14t26 -6q41 0 41 44v328h242v-366q0 -90 -53.5 -137t-133.5 -47z" />
    <glyph glyph-name="uni0E0D" unicode="&#xe0d;" horiz-adv-x="969" 
d="M669 -90q-79 0 -147 12t-101 31v147q25 -14 66 -24t86.5 -15.5t82.5 -5.5q56 0 78.5 9.5t22.5 22.5q0 8 -6 15q-25 -6 -52 -8.5t-56 -2.5q-130 0 -208.5 53t-78.5 165v11q0 32 -12 47t-53 15q-22 0 -39.5 -4.5t-32.5 -11.5v-2l99 -36v-95q-46 -15 -46 -59v-9
q0 -25 25 -25h23v-140h-188q-50 0 -78.5 29t-28.5 75v65q0 32 19 63t52 44l-81 29v155q50 33 123 61.5t167 28.5q86 0 141.5 -17t88 -46t45.5 -66t13 -76v-21q0 -31 11 -45.5t39 -14.5q29 0 39.5 14.5t10.5 45.5v216h242v-227q0 -38 -10.5 -69.5t-29.5 -56.5
q23 -19 36 -49.5t13 -66.5q0 -76 -73.5 -118.5t-201.5 -42.5z" />
    <glyph glyph-name="uni0E0E" unicode="&#xe0e;" horiz-adv-x="675" 
d="M134 -200v167q39 15 77.5 22t89.5 7q22 0 49 -3t38 -7v324q0 38 -14.5 55t-55.5 17q-22 0 -41.5 -4.5t-34.5 -11.5v-2l99 -36v-95q-20 -7 -27 -20t-7 -36v-73q0 -46 -33 -75t-83 -29h-176v150h20q25 0 25 25v11q0 32 13 54.5t46 35.5l-81 29v155q50 33 125 61.5t169 28.5
q114 0 181.5 -32t97 -83.5t29.5 -109.5v-519h-210q-29 14 -61 21t-77 7q-40 0 -81.5 -8.5t-76.5 -25.5z" />
    <glyph glyph-name="uni0E0F" unicode="&#xe0f;" horiz-adv-x="675" 
d="M450 -201q-61 0 -101.5 14t-65.5 30q-19 -18 -47 -27t-71 -9h-79l12 151h42q23 0 33 7.5t14 22.5h141q7 -30 34 -30q26 0 26 31v321q0 38 -14.5 55t-55.5 17q-22 0 -41.5 -4.5t-34.5 -11.5v-2l99 -36v-95q-20 -7 -27 -20t-7 -36v-73q0 -46 -33 -75t-83 -29h-176v150h20
q25 0 25 25v11q0 32 13 54.5t46 35.5l-81 29v155q50 33 125 61.5t169 28.5q114 0 181.5 -32t97 -83.5t29.5 -109.5v-328q0 -56 -21 -101t-63 -71t-106 -26z" />
    <glyph glyph-name="uni0E10" unicode="&#xe10;" horiz-adv-x="620" 
d="M282 -10q-40 0 -81.5 6.5t-61.5 16.5l-56 150h-68l9 166h196l59 -157q17 14 27.5 39t10.5 62q0 59 -25.5 85t-93.5 26q-39 0 -88.5 -7.5t-93.5 -19.5v155q58 20 122 29t116 9q32 0 59.5 -2.5t51.5 -7.5h245l-12 -166h-55q9 -22 15 -48t6 -54q0 -71 -24 -124t-64.5 -88
t-90.5 -52.5t-103 -17.5zM358 -224q-83 0 -131 35q-16 -17 -41 -25.5t-49 -8.5h-115l8 158h80q21 0 30 5.5t13 21.5h133q3 -12 12.5 -22.5t29.5 -10.5q17 0 26.5 9t9.5 22v24h185v-29q0 -48 -21.5 -89t-64 -65.5t-105.5 -24.5z" />
    <glyph glyph-name="uni0E11" unicode="&#xe11;" horiz-adv-x="649" 
d="M56 0v145q0 39 15.5 71.5t36 59t36 48t15.5 38.5q0 19 -16 19q-10 0 -17 -10v-37h-111v206h128v-28q14 9 39 18.5t54 9.5q20 0 40.5 -5.5t36.5 -16.5q20 14 52.5 23t67.5 9q87 0 134 -47t47 -137v-366h-241v368q0 13 -11 13q-2 0 -6 -1.5t-6 -3.5q0 -41 -8 -68.5
t-18 -50.5t-18 -48t-8 -62v-147h-242z" />
    <glyph glyph-name="uni0E12" unicode="&#xe12;" horiz-adv-x="1012" 
d="M258 -10q-72 0 -127 26.5t-85.5 84.5t-30.5 154q0 102 27.5 167t75.5 96.5t107 31.5q37 0 65.5 -11.5t53.5 -39.5q26 28 65 39.5t74 11.5q72 0 117 -38t45 -102v-222q7 -8 23 -14t26 -6q41 0 41 44v328h242v-366q0 -90 -53.5 -137t-133.5 -47q-51 0 -89 12.5t-66 29.5
l-7 -32h-214v309q0 36 -23 36q-17 0 -26 -18h-46q-4 8 -9.5 13t-14.5 5q-15 0 -25 -22.5t-10 -67.5q0 -51 13 -74.5t51 -23.5q28 0 50 9v-154q-19 -10 -48.5 -16t-67.5 -6z" />
    <glyph glyph-name="uni0E13" unicode="&#xe13;" horiz-adv-x="965" 
d="M543 -10q-80 0 -133.5 47t-53.5 137v136q0 38 -12 55t-53 17q-22 0 -39.5 -4.5t-32.5 -11.5v-2l99 -36v-95q-46 -15 -46 -59v-9q0 -25 25 -25h23v-140h-188q-50 0 -78.5 29t-28.5 75v65q0 32 19 63t52 44l-81 29v155q50 33 123 61.5t167 28.5q86 0 142.5 -18.5
t89.5 -50.5t47 -72t14 -84v-113q0 -44 41 -44q11 0 26.5 6t22.5 14v352h242v-540h-225l-7 32q-28 -17 -66 -29.5t-89 -12.5z" />
    <glyph glyph-name="uni0E14" unicode="&#xe14;" horiz-adv-x="667" 
d="M258 -10q-72 0 -127 24t-85.5 80t-30.5 152q0 150 78.5 227t247.5 77q105 0 169 -30.5t93 -80.5t29 -109v-330h-231v283q0 26 -12 44t-54 18q-38 0 -55.5 -23t-17.5 -76q0 -49 12 -69t50 -20q28 0 50 9v-154q-19 -10 -48.5 -16t-67.5 -6z" />
    <glyph glyph-name="uni0E15" unicode="&#xe15;" horiz-adv-x="680" 
d="M258 -10q-72 0 -127 26.5t-85.5 84.5t-30.5 154q0 102 27.5 167t75.5 96.5t107 31.5q37 0 65.5 -11.5t53.5 -39.5q26 28 65 39.5t74 11.5q72 0 117 -38t45 -102v-410h-231v309q0 36 -23 36q-17 0 -26 -18h-46q-4 8 -9.5 13t-14.5 5q-15 0 -25 -22.5t-10 -67.5
q0 -51 13 -74.5t51 -23.5q28 0 50 9v-154q-19 -10 -48.5 -16t-67.5 -6z" />
    <glyph glyph-name="uni0E16" unicode="&#xe16;" horiz-adv-x="652" 
d="M132 0q-50 0 -78.5 29t-28.5 75v65q0 32 19 63t52 44l-81 29v155q50 33 125 61.5t169 28.5q114 0 181.5 -32t97 -83.5t29.5 -109.5v-325h-252v310q0 38 -14.5 55t-55.5 17q-22 0 -41.5 -4.5t-34.5 -11.5v-2l99 -36v-95q-46 -15 -46 -59v-9q0 -25 25 -25h23v-140h-188z
" />
    <glyph glyph-name="uni0E17" unicode="&#xe17;" horiz-adv-x="654" 
d="M35 0v540h225l7 -32q28 17 71 29.5t94 12.5q87 0 137 -47t50 -137v-366h-242v328q0 44 -46 44q-10 0 -28.5 -6t-25.5 -14v-352h-242z" />
    <glyph glyph-name="uni0E18" unicode="&#xe18;" horiz-adv-x="567" 
d="M289 -10q-76 0 -147 13.5t-118 35.5v176h201v-57q8 -3 24.5 -4.5t26.5 -1.5q54 0 54 26q0 20 -47 32t-118 28q-76 17 -113 51t-37 95q0 51 26.5 88t87.5 57.5t164 20.5q77 0 136 -7.5t89 -16.5v-157q-21 9 -53 15.5t-64.5 10t-57.5 3.5q-34 0 -57.5 -1.5t-23.5 -15.5
q0 -8 26 -16.5t62.5 -17t67.5 -17.5q74 -19 104 -55t30 -103q0 -90 -69 -136t-194 -46z" />
    <glyph glyph-name="uni0E19" unicode="&#xe19;" horiz-adv-x="654" 
d="M222 -10q-80 0 -133.5 47t-53.5 137v366h242v-328q0 -44 46 -44q11 0 29 6t25 14v352h242v-540h-225l-7 32q-28 -17 -71 -29.5t-94 -12.5z" />
    <glyph glyph-name="uni0E1A" unicode="&#xe1a;" horiz-adv-x="664" 
d="M332 -10q-86 0 -153 27.5t-105.5 84t-38.5 142.5v296h242v-285q0 -38 11.5 -54t43.5 -16t43.5 16t11.5 54v285h242v-296q0 -86 -38.5 -142.5t-105.5 -84t-153 -27.5z" />
    <glyph glyph-name="uni0E1B" unicode="&#xe1b;" horiz-adv-x="664" 
d="M332 -10q-86 0 -153 27.5t-105.5 84t-38.5 142.5v296h242v-285q0 -38 11.5 -54t43.5 -16t43.5 16t11.5 54v445h242v-456q0 -86 -38.5 -142.5t-105.5 -84t-153 -27.5z" />
    <glyph glyph-name="uni0E1C" unicode="&#xe1c;" horiz-adv-x="660" 
d="M35 0v450q0 36 19 63t58 27h190l8 -138h-41q-27 0 -27 -29v-90l52 92h72l52 -92v257h207v-540h-202l-93 170l-93 -170h-202z" />
    <glyph glyph-name="uni0E1D" unicode="&#xe1d;" horiz-adv-x="660" 
d="M35 0v450q0 36 19 63t58 27h190l8 -138h-41q-27 0 -27 -29v-90l52 92h72l52 -92v417h207v-700h-202l-93 170l-93 -170h-202z" />
    <glyph glyph-name="uni0E1E" unicode="&#xe1e;" horiz-adv-x="757" 
d="M126 0l-121 540h210l50 -222l20 100v122h168l43 -222l47 222h209l-121 -540h-196l-55 178l-59 -178h-195z" />
    <glyph glyph-name="uni0E1F" unicode="&#xe1f;" horiz-adv-x="757" 
d="M126 0l-121 540h210l50 -222l20 100v122h168l43 -222l66 382h209l-140 -700h-196l-55 178l-59 -178h-195z" />
    <glyph glyph-name="uni0E20" unicode="&#xe20;" horiz-adv-x="675" 
d="M15 0v150h20q25 0 25 25v11q0 31 13 54t46 36l-81 29v155q50 33 125 61.5t169 28.5q114 0 181.5 -32t97 -83.5t29.5 -109.5v-325h-252v310q0 38 -14.5 55t-55.5 17q-22 0 -41.5 -4.5t-34.5 -11.5v-2l99 -36v-95q-20 -7 -27 -20t-7 -36v-73q0 -46 -28.5 -75t-78.5 -29
h-185z" />
    <glyph glyph-name="uni0E21" unicode="&#xe21;" horiz-adv-x="654" 
d="M432 -10q-51 0 -94 12.5t-71 29.5l-7 -32h-225v540h242v-352q7 -8 25.5 -14t28.5 -6q46 0 46 44v328h242v-366q0 -90 -53.5 -137t-133.5 -47z" />
    <glyph glyph-name="uni0E22" unicode="&#xe22;" horiz-adv-x="657" 
d="M320 -10q-155 0 -230 53.5t-75 136.5q0 32 12.5 57.5t31.5 41.5q-16 16 -28.5 39.5t-12.5 59.5q0 85 55.5 128.5t162.5 43.5q38 0 69 -5t50 -13v-132q-10 2 -24 3.5t-24 1.5q-42 0 -42 -27q0 -26 31 -26h44v-140h-45q-32 0 -32 -28q0 -14 12 -23t45 -9q60 0 60 50v338
h242v-336q0 -106 -80.5 -160t-221.5 -54z" />
    <glyph glyph-name="uni0E23" unicode="&#xe23;" horiz-adv-x="507" 
d="M239 -10q-68 0 -128 10t-92 24v158q24 -11 56 -20.5t63.5 -14.5t52.5 -5q27 0 40.5 4t13.5 15q0 20 -30 29.5t-77 28.5q-65 26 -94 61.5t-29 96.5q0 76 63 124.5t193 48.5q36 0 73 -3.5t69.5 -9t52.5 -11.5v-157q-32 14 -71.5 21.5t-67.5 7.5q-29 0 -47 -4t-18 -17
q0 -17 26.5 -26.5t72.5 -26.5q51 -18 79.5 -39.5t40 -51t11.5 -72.5q0 -75 -64 -123t-189 -48z" />
    <glyph glyph-name="uni0E24" unicode="&#xe24;" horiz-adv-x="652" 
d="M365 -160v470q0 38 -14.5 55t-55.5 17q-22 0 -41.5 -4.5t-34.5 -11.5v-2l99 -36v-95q-46 -15 -46 -59v-9q0 -25 25 -25h23v-140h-188q-50 0 -78.5 29t-28.5 75v65q0 32 19 63t52 44l-81 29v155q50 33 125 61.5t169 28.5q114 0 181.5 -32t97 -83.5t29.5 -109.5v-485h-252z
" />
    <glyph glyph-name="uni0E25" unicode="&#xe25;" horiz-adv-x="621" 
d="M208 -10q-52 0 -96 16t-70.5 53t-26.5 100q0 90 55.5 140t165.5 50h119v11q0 13 -22.5 20t-72.5 7q-43 0 -94 -7.5t-96 -21.5v154q31 12 71.5 20.5t85.5 13t86 4.5q134 0 203.5 -58t69.5 -176v-316h-231v208h-50q-22 0 -32.5 -8t-10.5 -30q0 -35 31 -35q15 0 34 5v-132
q-19 -7 -50 -12.5t-69 -5.5z" />
    <glyph glyph-name="uni0E26" unicode="&#xe26;" horiz-adv-x="675" 
d="M388 -160v470q0 38 -14.5 55t-55.5 17q-22 0 -41.5 -4.5t-34.5 -11.5v-2l99 -36v-95q-20 -7 -27 -20t-7 -36v-73q0 -46 -28.5 -75t-78.5 -29h-185v150h20q25 0 25 25v11q0 32 13 54.5t46 35.5l-81 29v155q50 33 125 61.5t169 28.5q114 0 181.5 -32t97 -83.5t29.5 -109.5
v-485h-252z" />
    <glyph glyph-name="uni0E27" unicode="&#xe27;" horiz-adv-x="552" 
d="M238 -10q-64 0 -119.5 9t-103.5 31v208q37 -19 81 -31t81 -12q58 0 85.5 14.5t27.5 60.5t-27.5 60.5t-83.5 14.5q-39 0 -82 -8t-80 -26v199q48 20 105.5 30t117.5 10q149 0 223 -64.5t74 -215.5t-75 -215.5t-224 -64.5z" />
    <glyph glyph-name="uni0E28" unicode="&#xe28;" horiz-adv-x="692" 
d="M35 0v306q0 86 38.5 140t105.5 79t153 25q28 0 53.5 -3t49.5 -8v1h247l-12 -166h-55q6 -14 10 -36t4 -46v-292h-242v285q0 35 -11.5 47.5t-43.5 12.5t-43.5 -12.5t-11.5 -47.5v-26q21 9 43 9h40l-1 -166h-39q-26 0 -43 -8v-94h-242z" />
    <glyph glyph-name="uni0E29" unicode="&#xe29;" horiz-adv-x="675" 
d="M332 -10q-86 0 -153 27.5t-105.5 84t-38.5 142.5v296h242v-285q0 -38 11.5 -54t43.5 -16t43.5 16t11.5 54v13h-59v166h59v106h242v-106h46l-14 -166h-32v-24q0 -86 -38.5 -142.5t-105.5 -84t-153 -27.5z" />
    <glyph glyph-name="uni0E2A" unicode="&#xe2a;" horiz-adv-x="649" 
d="M208 -10q-52 0 -96 16t-70.5 53.5t-26.5 100.5q0 90 55.5 139.5t165.5 49.5h119v11q0 13 -22.5 20t-72.5 7q-43 0 -94 -7.5t-96 -21.5v154q31 12 71.5 20.5t85.5 13t86 4.5q28 0 53 -2.5t47 -7.5h226l-12 -166h-53q6 -13 9 -34t3 -44v-296h-231v208h-50q-22 0 -32.5 -8
t-10.5 -30q0 -35 31 -35q15 0 34 5v-132q-19 -7 -50 -12.5t-69 -5.5z" />
    <glyph glyph-name="uni0E2B" unicode="&#xe2b;" horiz-adv-x="638" 
d="M35 0v540h242v-131h43q23 0 32 12.5t9 34.5v84h242v-110q0 -36 -12.5 -65.5t-38.5 -46.5q26 -16 38.5 -44t12.5 -65v-209h-242v177q0 22 -9 34.5t-32 12.5h-43v-224h-242z" />
    <glyph glyph-name="uni0E2C" unicode="&#xe2c;" horiz-adv-x="757" 
d="M126 0l-121 540h210l50 -222l23 100v59h162l46 -159l21 113q8 41 -4 57t-44 16h-20l21 122h34q31 0 44.5 12.5t19.5 38.5l5 23h203l-11 -48q-17 -77 -75 -96q47 -31 29 -119l-88 -437h-196l-55 178l-59 -178h-195z" />
    <glyph glyph-name="uni0E2D" unicode="&#xe2d;" horiz-adv-x="615" 
d="M279 -10q-76 0 -144 13.5t-115 35.5v289h276l8 -138h-68v-33q11 -3 23 -4t24 -1q42 0 56 28.5t14 85.5q0 71 -32 94.5t-97 23.5q-40 0 -94.5 -7t-103.5 -22v157q39 13 85 21.5t91 12.5t80 4q167 0 242.5 -68t75.5 -216q0 -130 -76 -203t-245 -73z" />
    <glyph glyph-name="uni0E2E" unicode="&#xe2e;" horiz-adv-x="658" 
d="M279 -10q-76 0 -144 13.5t-115 35.5v289h276l8 -138h-68v-33q11 -3 23 -4t24 -1q42 0 56 28.5t14 85.5q0 71 -32 94.5t-97 23.5q-40 0 -94.5 -7t-103.5 -22v157q39 13 85 21.5t91 12.5t80 4q33 0 62.5 -2.5t55.5 -7.5h248l-12 -166h-60q24 -48 24 -108q0 -130 -76 -203
t-245 -73z" />
    <glyph glyph-name="uni0E2F" unicode="&#xe2f;" horiz-adv-x="621" 
d="M355 0v205q-16 -7 -53 -15t-78 -8q-95 0 -152 46.5t-57 141.5q0 50 8.5 89t25.5 81h243q-16 -34 -23 -66.5t-7 -73.5q0 -61 47 -61q14 0 26.5 4t19.5 8v189h231v-540h-231z" />
    <glyph glyph-name="uni0E30" unicode="&#xe30;" horiz-adv-x="327" 
d="M15 286v203h171v-47h126l-7 -156h-290zM15 35v203h171v-47h126l-5 -156h-292z" />
    <glyph glyph-name="uni0E31" unicode="&#xe31;" 
d="M-367 579v211h171v-65h229l-7 -146h-393z" />
    <glyph glyph-name="uni0E32" unicode="&#xe32;" horiz-adv-x="465" 
d="M209 0v282q0 37 -17.5 54.5t-59.5 17.5q-37 0 -71.5 -8.5t-60.5 -19.5v184q31 17 80.5 28.5t99.5 11.5q130 0 190 -58.5t60 -171.5v-320h-221z" />
    <glyph glyph-name="uni0E33" unicode="&#xe33;" horiz-adv-x="465" 
d="M-154 571q-42 0 -77 18t-55.5 50.5t-20.5 74.5q0 43 20.5 75t55.5 50t77 18q43 0 77.5 -18t55 -50t20.5 -75q0 -42 -20.5 -74.5t-55 -50.5t-77.5 -18zM-154 682q13 0 22.5 9.5t9.5 22.5t-9.5 22.5t-22.5 9.5t-22.5 -9.5t-9.5 -22.5t9.5 -22.5t22.5 -9.5zM209 0v282
q0 37 -17.5 54.5t-59.5 17.5q-37 0 -71.5 -8.5t-60.5 -19.5v184q31 17 80.5 28.5t99.5 11.5q130 0 190 -58.5t60 -171.5v-320h-221z" />
    <glyph glyph-name="uni0E34" unicode="&#xe34;" 
d="M-551 580l11 159h505v-159h-516z" />
    <glyph glyph-name="uni0E35" unicode="&#xe35;" 
d="M-551 580l11 159h314v71h191v-230h-516z" />
    <glyph glyph-name="uni0E36" unicode="&#xe36;" 
d="M-551 580l11 159h270q7 34 38.5 59.5t86.5 25.5q72 0 102.5 -35.5t30.5 -86.5q0 -50 -35.5 -86t-98.5 -36h-405zM-137 669q14 0 23 9t9 23t-9 23.5t-23 9.5q-13 0 -23 -9.5t-10 -23.5t10 -23t23 -9z" />
    <glyph glyph-name="uni0E37" unicode="&#xe37;" 
d="M-551 580l11 159h139v71h162v-71h42v71h162v-230h-516z" />
    <glyph glyph-name="uni0E38" unicode="&#xe38;" 
d="M-225 -260v88h-59l7 145h242v-233h-190z" />
    <glyph glyph-name="uni0E39" unicode="&#xe39;" 
d="M-222 -276q-88 0 -136 31t-48 76v7h-59l7 135h212v-78q0 -26 24 -26q25 0 25 26v78h163v-97q0 -39 -17.5 -73.5t-58.5 -56.5t-112 -22z" />
    <glyph glyph-name="uni0E3A" unicode="&#xe3a;" 
d="M-147 -231q-43 0 -74 30t-31 73q0 44 31 74t74 30q44 0 75 -30t31 -74q0 -43 -31 -73t-75 -30z" />
    <glyph glyph-name="uni0E3F" unicode="&#xe3f;" horiz-adv-x="662" 
d="M163 -86v86h-128v644h128v86h210v-86h44q99 0 153.5 -47t54.5 -135q0 -48 -16.5 -82t-43.5 -54q38 -18 60 -46.5t22 -84.5q0 -91 -59.5 -143t-166.5 -52h-48v-86h-210zM262 397h90q48 0 48 43q0 40 -48 40h-90v-83zM262 164h90q48 0 48 43q0 40 -48 40h-90v-83z" />
    <glyph glyph-name="uni0E40" unicode="&#xe40;" horiz-adv-x="350" 
d="M142 0q-50 0 -78.5 29t-28.5 75v436h247v-365q0 -25 25 -25h28v-150h-193z" />
    <glyph glyph-name="uni0E41" unicode="&#xe41;" horiz-adv-x="650" 
d="M452 0q-50 0 -78.5 29t-28.5 75v436h237v-365q0 -25 25 -25h28v-150h-183zM142 0q-50 0 -78.5 29t-28.5 75v436h237v-365q0 -25 25 -25h28v-150h-183z" />
    <glyph glyph-name="uni0E42" unicode="&#xe42;" horiz-adv-x="358" 
d="M162 0q-50 0 -78.5 29t-28.5 75v449q0 95 -85 110v131h388v-150h-97q13 -14 19 -35.5t6 -44.5v-389q0 -25 25 -25h28v-150h-177z" />
    <glyph glyph-name="uni0E43" unicode="&#xe43;" horiz-adv-x="332" 
d="M125 0q-50 0 -78.5 29t-28.5 75v326q0 33 11.5 58.5t26 45.5t26 36.5t11.5 31.5q0 20 -32 20q-26 0 -51 -7.5t-45 -19.5v157q39 23 86.5 34t107.5 11q88 0 138 -34t50 -102q0 -37 -15 -64.5t-34 -50.5t-34 -48.5t-15 -59.5v-263q0 -25 25 -25h28v-150h-177z" />
    <glyph glyph-name="uni0E44" unicode="&#xe44;" horiz-adv-x="340" 
d="M149 0q-50 0 -78.5 29t-28.5 75v460q0 23 6 44.5t19 35.5h-97v150h385v-131q-43 -7 -62.5 -34.5t-19.5 -75.5v-378q0 -25 25 -25h28v-150h-177z" />
    <glyph glyph-name="uni0E45" unicode="&#xe45;" horiz-adv-x="465" 
d="M209 -160v442q0 37 -17.5 54.5t-59.5 17.5q-37 0 -71.5 -8.5t-60.5 -19.5v184q31 17 80.5 28.5t99.5 11.5q130 0 190 -58.5t60 -171.5v-480h-221z" />
    <glyph glyph-name="uni0E46" unicode="&#xe46;" horiz-adv-x="675" 
d="M399 0v312q0 19 -5 26t-18 7q-17 0 -26 -18h-46q-4 8 -9.5 13t-14.5 5q-20 0 -20 -38q0 -19 14.5 -27t45.5 -8q13 0 27 2.5t25 6.5v-154q-19 -10 -54.5 -16t-73.5 -6q-103 0 -166 50.5t-63 153.5q0 124 55 182.5t140 58.5q37 0 65.5 -11.5t53.5 -39.5q26 28 65 39.5
t74 11.5q72 0 117 -38t45 -102v-410h-231z" />
    <glyph glyph-name="uni0E47" unicode="&#xe47;" 
d="M-384 568q-70 0 -112 38.5t-42 106.5q0 62 42 103.5t119 41.5h275l-9 -115h-247q-15 0 -24.5 -8t-9.5 -24q0 -14 8.5 -21.5t21.5 -7.5q16 0 24 10t8 24v4h113v-4q0 -31 31 -31h66v-115h-77q-24 0 -46.5 7.5t-32.5 23.5q-7 -10 -26.5 -17.5t-41.5 -11.5t-40 -4z" />
    <glyph glyph-name="uni0E48" unicode="&#xe48;" 
d="M-276 572v173h242v-173h-242z" />
    <glyph glyph-name="uni0E49" unicode="&#xe49;" 
d="M-328 572v79h-76v150h223v-79h205l-9 -150h-343z" />
    <glyph glyph-name="uni0E4A" unicode="&#xe4a;" 
d="M-367 572q-59 0 -98.5 30.5t-39.5 88.5q0 55 32 88.5t88 33.5q54 0 71 -30h1q22 30 73 30q58 0 81.5 -26t23.5 -61v-48h5q11 0 11 15v112h116v-116q0 -50 -30 -79t-81 -29h-122v108q0 21 -15 21q-16 0 -16 -19v-9h-81v9q0 19 -14 19q-16 0 -16 -21q0 -23 26 -23h38v-94
h-53z" />
    <glyph glyph-name="uni0E4B" unicode="&#xe4b;" 
d="M-284 572v38h-57v144h57v37h192v-37h56v-144h-56v-38h-192z" />
    <glyph glyph-name="uni0E4C" unicode="&#xe4c;" 
d="M-342 576v202h330l-7 -151h-157v-51h-166z" />
    <glyph glyph-name="uni0E4D" unicode="&#xe4d;" 
d="M-154 571q-42 0 -77 18t-55.5 50.5t-20.5 74.5q0 43 20.5 75t55.5 50t77 18q43 0 77.5 -18t55 -50t20.5 -75q0 -42 -20.5 -74.5t-55 -50.5t-77.5 -18zM-154 682q13 0 22.5 9.5t9.5 22.5t-9.5 22.5t-22.5 9.5t-22.5 -9.5t-9.5 -22.5t9.5 -22.5t22.5 -9.5z" />
    <glyph glyph-name="uni0E4E" unicode="&#xe4e;" 
d="M-213 566q-145 0 -145 80q0 35 22 52.5t51 23.5q-4 8 -6 17.5t-2 19.5q0 28 30 50t106 22q20 0 42 -3t35 -8v-71q-12 6 -27.5 9t-27.5 3q-31 0 -31 -13q0 -7 9.5 -10.5t25.5 -5.5v-66q-9 5 -23 7.5t-25 2.5q-14 0 -23 -3t-9 -14q0 -10 8.5 -13t19.5 -3q17 0 35.5 3.5
t29.5 9.5v-74q-13 -9 -41 -12.5t-54 -3.5z" />
    <glyph glyph-name="uni0E4F" unicode="&#xe4f;" horiz-adv-x="584" 
d="M292 -10q-58 0 -108 21.5t-88 59.5t-59.5 88t-21.5 108q0 57 21.5 107.5t59.5 88.5t88 59.5t108 21.5q57 0 107.5 -21.5t88.5 -59.5t59.5 -88.5t21.5 -107.5q0 -58 -21.5 -108t-59.5 -88t-88.5 -59.5t-107.5 -21.5zM292 133q37 0 67.5 18t48.5 48.5t18 67.5t-18 67.5
t-48.5 48.5t-67.5 18t-67.5 -18t-48.5 -48.5t-18 -67.5t18 -67.5t48.5 -48.5t67.5 -18zM292 162q-43 0 -74 31t-31 74q0 44 31 74.5t74 30.5q44 0 74.5 -30.5t30.5 -74.5q0 -43 -30.5 -74t-74.5 -31zM292 243q11 0 17.5 7t6.5 17q0 11 -6.5 17.5t-17.5 6.5q-10 0 -17 -6.5
t-7 -17.5q0 -10 7 -17t17 -7z" />
    <glyph glyph-name="uni0E50" unicode="&#xe50;" horiz-adv-x="608" 
d="M304 -10q-81 0 -146.5 25.5t-104 80t-38.5 141.5t38.5 141.5t104.5 80t146 25.5t145.5 -25.5t104.5 -80t39 -141.5t-38.5 -141.5t-104 -80t-146.5 -25.5zM304 163q33 0 47 17t14 57t-14 57t-47 17q-31 0 -46.5 -17t-15.5 -57t15.5 -57t46.5 -17z" />
    <glyph glyph-name="uni0E51" unicode="&#xe51;" horiz-adv-x="627" 
d="M305 -111v165q44 15 63 39t23 57t4 76q0 85 -85 85q-35 0 -54 -9t-19 -35q0 -44 54 -44q34 0 61 14v-142q-20 -12 -55.5 -20.5t-73.5 -8.5q-97 0 -152.5 48t-55.5 150q0 110 76.5 165t218.5 55q151 0 226.5 -64.5t75.5 -200.5q0 -125 -77.5 -213.5t-229.5 -116.5z" />
    <glyph glyph-name="uni0E52" unicode="&#xe52;" horiz-adv-x="743" 
d="M394 -10q-169 0 -264 61t-95 188v301h183v-252q0 -32 6.5 -62t24.5 -54t53 -38t92 -14q59 0 88 16.5t38.5 38.5t9.5 38v108q0 20 -18 20q-8 0 -12.5 -6.5t-4.5 -16.5v-16h-75v18q0 21 -15 21q-22 0 -22 -39q0 -20 12 -27.5t37 -7.5q28 0 50 9v-116q-17 -10 -43 -15
t-52 -5q-73 0 -113 35.5t-40 129.5q0 97 34.5 138t96.5 41q32 0 56.5 -9.5t40.5 -35.5q21 26 50 35.5t64 9.5q76 0 104 -39t28 -109v-110q0 -46 -15.5 -88.5t-51.5 -75.5t-96.5 -52.5t-150.5 -19.5z" />
    <glyph glyph-name="uni0E53" unicode="&#xe53;" horiz-adv-x="662" 
d="M247 -10q-103 0 -167.5 57t-64.5 178q0 92 26 149t70 83.5t96 26.5q37 0 65.5 -11.5t53.5 -39.5q26 28 65 39.5t74 11.5q79 0 120.5 -45t41.5 -115v-324h-205v269q0 11 -6.5 15t-15.5 4q-8 0 -14.5 -6.5t-6.5 -16.5v-53h-115v55q0 21 -19 21q-15 0 -21.5 -18t-6.5 -48
q0 -36 21.5 -50.5t61.5 -14.5q17 0 36 2t30 5v-155q-22 -8 -50 -13.5t-69 -5.5z" />
    <glyph glyph-name="uni0E54" unicode="&#xe54;" horiz-adv-x="612" 
d="M259 -10q-70 0 -125.5 23t-87 74t-31.5 134q0 128 81.5 195.5t258.5 67.5q83 0 139.5 8.5t104.5 34.5v-158q-40 -19 -100.5 -29.5t-132.5 -10.5q-61 0 -91 -24t-30 -84q0 -39 11 -59.5t26 -20.5h6v17q0 155 177 155q39 0 66.5 -4.5t61.5 -18.5v-122q-20 8 -36.5 11.5
t-38.5 3.5q-44 0 -44 -25q0 -22 27 -22h116v-136h-120q-32 0 -60 3.5t-51 10.5q-31 -13 -62.5 -18.5t-64.5 -5.5z" />
    <glyph glyph-name="uni0E55" unicode="&#xe55;" horiz-adv-x="612" 
d="M259 -10q-70 0 -125.5 21t-87 70t-31.5 132q0 84 51 144.5t134 85.5q-14 6 -30 16.5t-24 17.5l64 102q48 -39 101.5 -66t126.5 -27q50 0 88 11t73 30v-158q-40 -19 -100.5 -29.5t-132.5 -10.5q-68 0 -94.5 -25.5t-26.5 -85.5q0 -39 11 -58t26 -19h6v17q0 77 45.5 116
t131.5 39q39 0 66.5 -4.5t61.5 -18.5v-122q-20 8 -36.5 11.5t-38.5 3.5q-44 0 -44 -25q0 -22 27 -22h116v-136h-120q-32 0 -60 3.5t-51 10.5q-31 -13 -62.5 -18.5t-64.5 -5.5z" />
    <glyph glyph-name="uni0E56" unicode="&#xe56;" horiz-adv-x="639" 
d="M320 -10q-52 0 -100.5 8.5t-93.5 29.5v167q41 -18 88 -25t84 -7q44 0 71 18.5t27 56.5q0 32 -19 52.5t-57 20.5q-35 0 -58.5 -20t-29.5 -62h-134l-103 311h196l27 -102q25 23 70 34.5t85 11.5q88 0 143.5 -32.5t81.5 -88t26 -125.5q0 -121 -79.5 -184.5t-224.5 -63.5z
" />
    <glyph glyph-name="uni0E57" unicode="&#xe57;" horiz-adv-x="850" 
d="M247 -10q-104 0 -168 58t-64 177q0 92 25.5 149t68.5 83.5t95 26.5q37 0 65.5 -11.5t53.5 -39.5q26 28 60 39.5t69 11.5q76 0 109 -39t33 -109v-163h9q12 0 18 5.5t6 20.5v341h188v-319q0 -108 -50 -164.5t-164 -56.5h-190v260q0 19 -18 19q-8 0 -12.5 -6.5t-4.5 -16.5
v-44h-115v46q0 21 -14 21q-15 0 -19 -13.5t-4 -43.5q0 -65 69 -65q13 0 36 2.5t34 6.5v-154q-19 -10 -48.5 -16t-67.5 -6z" />
    <glyph glyph-name="uni0E58" unicode="&#xe58;" horiz-adv-x="619" 
d="M192 -10q-87 0 -132 62.5t-45 168.5q0 128 82.5 195.5t259.5 67.5q83 0 139.5 8.5t104.5 34.5v-158q-40 -19 -101 -29.5t-138 -10.5q-62 0 -95 -11t-44.5 -35t-11.5 -62q0 -46 6.5 -62t21.5 -16q12 0 19.5 6.5t7.5 16.5v71h115v-73q0 -21 24 -21q21 0 27 17v36h-32
l10 113h194v-255q-22 -31 -54 -47.5t-91 -16.5q-42 0 -74.5 11.5t-58.5 39.5q-26 -28 -56.5 -39.5t-77.5 -11.5z" />
    <glyph glyph-name="uni0E59" unicode="&#xe59;" horiz-adv-x="754" 
d="M212 -10q-56 0 -100.5 24.5t-70.5 77t-26 134.5q0 132 53.5 195t152.5 63q44 0 71 -14t41 -40q17 29 50.5 41.5t70.5 12.5q65 0 93.5 -28t28.5 -62v-7h3q11 0 16 10.5t5 50.5v72h159v-40q0 -91 -17 -145t-58 -78t-112 -24h-97v46q0 22 -4 31t-15 9q-13 0 -15.5 -13
t3.5 -33l83 -273h-188l-91 297q-4 12 -8 17t-14 5q-13 0 -18.5 -21t-5.5 -77q0 -52 12.5 -69t32.5 -17q9 0 16.5 1.5t19.5 5.5v-145q-16 -4 -32 -5.5t-39 -1.5z" />
    <glyph glyph-name="uni0E5A" unicode="&#xe5a;" horiz-adv-x="915" 
d="M355 0v205q-19 -9 -51.5 -16t-73.5 -7q-105 0 -160 47t-55 141q0 87 34 170h243q-13 -33 -21.5 -66t-8.5 -74q0 -31 10 -46t35 -15q16 0 28.5 4t19.5 8v189h231v-192q8 -9 28 -9q11 0 19.5 3.5t15.5 8.5v189h231v-540h-231v204q-14 -14 -34 -14q-7 0 -15 1t-14 3v-194
h-231z" />
    <glyph glyph-name="uni0E5B" unicode="&#xe5b;" horiz-adv-x="1169" 
d="M303 22q-84 0 -149 29.5t-102 88.5t-37 145q0 76 29.5 136t85.5 94.5t136 34.5q108 0 169.5 -50.5t61.5 -137.5q0 -62 -23.5 -99.5t-65.5 -57t-97 -27.5v115q29 10 37.5 23.5t8.5 38.5q0 24 -19.5 40t-60.5 16q-46 0 -71 -28.5t-25 -87.5q0 -62 29.5 -98t92.5 -36
q99 0 161 48.5t62 146.5q0 28 -2 59t-4 53h143q18 -24 29.5 -48t23.5 -53h2q7 16 14 40t11 46h102q18 -36 30 -85h2q16 36 20 64h89q13 -23 21 -61h2q11 21 13 48h98q2 -25 -5 -45h39l-7 -116h-62q-7 -17 -16 -35t-23 -35h-76q-5 16 -14 28h-2q-2 -11 -7 -25.5t-13 -28.5
h-108q-4 17 -11.5 35.5t-15.5 34.5h-2q-6 -30 -11 -47.5t-15 -44.5h-107q-4 23 -10 46t-16 45h-2q-18 -65 -64.5 -112t-115.5 -72t-153 -25z" />
    <glyph glyph-name="uni1E0C" unicode="&#x1e0c;" horiz-adv-x="690" 
d="M35 0v644h306q102 0 177 -32.5t116 -104t41 -189.5q0 -112 -40.5 -182t-115 -103t-178.5 -33h-306zM277 184h36q36 0 62 10t40 39t14 85t-13 83.5t-38.5 36t-64.5 8.5h-36v-262zM230 -213v141h156v-141h-156z" />
    <glyph glyph-name="uni1E0D" unicode="&#x1e0d;" horiz-adv-x="628" 
d="M239 -10q-67 0 -117.5 23t-78.5 74t-28 135q0 89 30 147t82.5 86.5t120.5 28.5q26 0 55 -5t48 -13v208h242v-674h-210l-11 31q-26 -19 -57.5 -30t-75.5 -11zM309 163q14 0 23 4t19 11v118q-18 15 -42 15q-22 0 -34.5 -22t-12.5 -65t12.5 -52t34.5 -9zM204 -213v141h156
v-141h-156z" />
    <glyph glyph-name="uni1E0E" unicode="&#x1e0e;" horiz-adv-x="690" 
d="M35 0v644h306q102 0 177 -32.5t116 -104t41 -189.5q0 -112 -40.5 -182t-115 -103t-178.5 -33h-306zM277 184h36q36 0 62 10t40 39t14 85t-13 83.5t-38.5 36t-64.5 8.5h-36v-262zM92 -192v140h349v-140h-349z" />
    <glyph glyph-name="uni1E0F" unicode="&#x1e0f;" horiz-adv-x="628" 
d="M239 -10q-67 0 -117.5 23t-78.5 74t-28 135q0 89 30 147t82.5 86.5t120.5 28.5q26 0 55 -5t48 -13v208h242v-674h-210l-11 31q-26 -19 -57.5 -30t-75.5 -11zM309 163q14 0 23 4t19 11v118q-18 15 -42 15q-22 0 -34.5 -22t-12.5 -65t12.5 -52t34.5 -9zM172 -192v140h349
v-140h-349z" />
    <glyph glyph-name="uni1E20" unicode="&#x1e20;" horiz-adv-x="663" 
d="M218 718v140h349v-140h-349zM390 -10q-182 0 -278.5 84t-96.5 248t101 248t291 84q62 0 111.5 -6.5t95.5 -22.5v-206q-46 18 -93.5 24.5t-97.5 6.5q-70 0 -115.5 -27.5t-45.5 -100.5t32.5 -100.5t93.5 -27.5q32 0 60 7v39h-107v146h307v-333q-41 -25 -105 -44t-153 -19z
" />
    <glyph glyph-name="uni1E21" unicode="&#x1e21;" horiz-adv-x="586" 
d="M109 552v140h349v-140h-349zM258 -176q-35 0 -79 2.5t-84 8t-63 13.5v138q27 -9 64 -14.5t76 -8t71 -2.5q38 0 67 3t29 13q0 8 -11.5 9.5t-30.5 1.5h-114q-83 0 -125.5 22t-42.5 71q0 35 21 58.5t58 34.5q-40 21 -58 51t-18 79q0 93 68 136.5t191 43.5q18 0 40.5 -1.5
t42 -4t28.5 -4.5h193l-4 -143h-52q2 -6 4 -14.5t2 -15.5q0 -73 -39.5 -114.5t-131.5 -41.5q-10 0 -25 0.5t-26 1.5q-14 -1 -25.5 -4.5t-11.5 -13.5q0 -8 7 -10.5t19 -2.5h84q74 0 119 -32.5t45 -102.5q0 -69 -67.5 -113t-220.5 -44zM279 275q28 0 38.5 9t10.5 30
q0 22 -11.5 31.5t-37.5 9.5q-49 0 -49 -41q0 -20 11 -29.5t38 -9.5z" />
    <glyph glyph-name="uni1E24" unicode="&#x1e24;" horiz-adv-x="715" 
d="M35 0v644h242v-210h161v210h242v-644h-242v210h-161v-210h-242zM278 -213v141h156v-141h-156z" />
    <glyph glyph-name="uni1E25" unicode="&#x1e25;" horiz-adv-x="626" 
d="M35 0v674h242v-218q20 11 53.5 19.5t70.5 8.5q101 0 148 -47t47 -145v-292h-242v272q0 34 -33 34q-10 0 -23.5 -6t-20.5 -14v-286h-242zM232 -213v141h156v-141h-156z" />
    <glyph glyph-name="uni1E2A" unicode="&#x1e2a;" horiz-adv-x="715" 
d="M35 0v644h242v-210h161v210h242v-644h-242v210h-161v-210h-242zM358 -260q-100 0 -160 56.5t-60 163.5h155q0 -34 14 -61t51 -27q38 0 52 27t14 61h155q0 -107 -60 -163.5t-161 -56.5z" />
    <glyph glyph-name="uni1E2B" unicode="&#x1e2b;" horiz-adv-x="626" 
d="M35 0v674h242v-218q20 11 53.5 19.5t70.5 8.5q101 0 148 -47t47 -145v-292h-242v272q0 34 -33 34q-10 0 -23.5 -6t-20.5 -14v-286h-242zM321 -260q-100 0 -160 56.5t-60 163.5h155q0 -34 14 -61t51 -27q38 0 52 27t14 61h155q0 -107 -60 -163.5t-161 -56.5z" />
    <glyph glyph-name="uni1E36" unicode="&#x1e36;" horiz-adv-x="535" 
d="M35 0v644h242v-460h263v-184h-505zM199 -213v141h156v-141h-156z" />
    <glyph glyph-name="uni1E37" unicode="&#x1e37;" horiz-adv-x="367" 
d="M225 -10q-105 0 -147.5 42t-42.5 130v512h242v-480q0 -19 7.5 -28t27.5 -9q28 0 50 9v-150q-31 -13 -59 -19.5t-78 -6.5zM120 -213v141h156v-141h-156z" />
    <glyph glyph-name="uni1E38" unicode="&#x1e38;" horiz-adv-x="539" 
d="M-19 718v140h349v-140h-349zM39 0v644h242v-460h263v-184h-505zM201 -213v141h156v-141h-156z" />
    <glyph glyph-name="uni1E39" unicode="&#x1e39;" horiz-adv-x="367" 
d="M-17 730v140h349v-140h-349zM225 -10q-105 0 -147.5 42t-42.5 130v512h242v-480q0 -19 7.5 -28t27.5 -9q28 0 50 9v-150q-31 -13 -59 -19.5t-78 -6.5zM120 -213v141h156v-141h-156z" />
    <glyph glyph-name="uni1E3A" unicode="&#x1e3a;" horiz-adv-x="535" 
d="M35 0v644h242v-460h263v-184h-505zM102 -214v140h349v-140h-349z" />
    <glyph glyph-name="uni1E3B" unicode="&#x1e3b;" horiz-adv-x="367" 
d="M225 -10q-105 0 -147.5 42t-42.5 130v512h242v-480q0 -19 7.5 -28t27.5 -9q28 0 50 9v-150q-31 -13 -59 -19.5t-78 -6.5zM21 -214v140h349v-140h-349z" />
    <glyph glyph-name="uni1E42" unicode="&#x1e42;" horiz-adv-x="791" 
d="M35 0v644h230l131 -266l130 266h230v-644h-242v226l-57 -116h-123l-57 116v-226h-242zM318 -213v141h156v-141h-156z" />
    <glyph glyph-name="uni1E43" unicode="&#x1e43;" horiz-adv-x="869" 
d="M35 0v474h224l5 -29q28 16 64 27.5t82 11.5q42 0 66.5 -11t40.5 -33q32 20 70.5 32t90.5 12q85 0 123 -44.5t38 -134.5v-305h-237v276q0 16 -5.5 23t-22.5 7q-16 0 -28 -13v-293h-223v282q0 24 -22 24q-19 0 -34 -18v-288h-232zM368 -213v141h156v-141h-156z" />
    <glyph glyph-name="uni1E44" unicode="&#x1e44;" horiz-adv-x="695" 
d="M267 718v141h156v-141h-156zM35 0v644h203l180 -252v252h242v-644h-204l-179 252v-252h-242z" />
    <glyph glyph-name="uni1E45" unicode="&#x1e45;" horiz-adv-x="626" 
d="M228 552v141h156v-141h-156zM35 0v474h227l5 -27q26 14 70.5 25.5t96.5 11.5q85 0 123.5 -44.5t38.5 -134.5v-305h-242v274q0 32 -33 32q-10 0 -23.5 -6t-20.5 -14v-286h-242z" />
    <glyph glyph-name="uni1E46" unicode="&#x1e46;" horiz-adv-x="695" 
d="M35 0v644h203l180 -252v252h242v-644h-204l-179 252v-252h-242zM276 -213v141h156v-141h-156z" />
    <glyph glyph-name="uni1E47" unicode="&#x1e47;" horiz-adv-x="626" 
d="M35 0v474h227l5 -27q26 14 70.5 25.5t96.5 11.5q85 0 123.5 -44.5t38.5 -134.5v-305h-242v274q0 32 -33 32q-10 0 -23.5 -6t-20.5 -14v-286h-242zM236 -213v141h156v-141h-156z" />
    <glyph glyph-name="uni1E48" unicode="&#x1e48;" horiz-adv-x="695" 
d="M35 0v644h203l180 -252v252h242v-644h-204l-179 252v-252h-242zM172 -208v140h349v-140h-349z" />
    <glyph glyph-name="uni1E49" unicode="&#x1e49;" horiz-adv-x="626" 
d="M35 0v474h227l5 -27q26 14 70.5 25.5t96.5 11.5q85 0 123.5 -44.5t38.5 -134.5v-305h-242v274q0 32 -33 32q-10 0 -23.5 -6t-20.5 -14v-286h-242zM144 -208v140h349v-140h-349z" />
    <glyph glyph-name="uni1E5A" unicode="&#x1e5a;" horiz-adv-x="656" 
d="M35 0v644h362q83 0 137 -31.5t80.5 -86t26.5 -123.5q0 -65 -33.5 -114t-80.5 -81q11 -7 17 -15.5t10 -17.5l76 -175h-252l-63 143q-5 12 -11 16.5t-17 4.5h-10v-164h-242zM277 353h59q59 0 59 50q0 28 -13.5 40t-41.5 12h-63v-102zM235 -213v141h156v-141h-156z" />
    <glyph glyph-name="uni1E5B" unicode="&#x1e5b;" horiz-adv-x="429" 
d="M35 0v474h237l5 -27q26 14 68.5 25.5t88.5 11.5v-178q-37 0 -83 -5t-74 -15v-286h-242zM77 -213v141h156v-141h-156z" />
    <glyph glyph-name="uni1E5C" unicode="&#x1e5c;" horiz-adv-x="656" 
d="M125 718v140h349v-140h-349zM35 0v644h362q83 0 137 -31.5t80.5 -86t26.5 -123.5q0 -65 -33.5 -114t-80.5 -81q11 -7 17 -15.5t10 -17.5l76 -175h-252l-63 143q-5 12 -11 16.5t-17 4.5h-10v-164h-242zM277 353h59q59 0 59 50q0 28 -13.5 40t-41.5 12h-63v-102zM235 -213
v141h156v-141h-156z" />
    <glyph glyph-name="uni1E5D" unicode="&#x1e5d;" horiz-adv-x="429" 
d="M35 552v140h349v-140h-349zM35 0v474h237l5 -27q26 14 68.5 25.5t88.5 11.5v-178q-37 0 -83 -5t-74 -15v-286h-242zM77 -213v141h156v-141h-156z" />
    <glyph glyph-name="uni1E5E" unicode="&#x1e5e;" horiz-adv-x="656" 
d="M35 0v644h362q83 0 137 -31.5t80.5 -86t26.5 -123.5q0 -65 -33.5 -114t-80.5 -81q11 -7 17 -15.5t10 -17.5l76 -175h-252l-63 143q-5 12 -11 16.5t-17 4.5h-10v-164h-242zM277 353h59q59 0 59 50q0 28 -13.5 40t-41.5 12h-63v-102zM138 -208v140h349v-140h-349z" />
    <glyph glyph-name="uni1E5F" unicode="&#x1e5f;" horiz-adv-x="429" 
d="M35 0v474h237l5 -27q26 14 68.5 25.5t88.5 11.5v-178q-37 0 -83 -5t-74 -15v-286h-242zM-18 -208v140h349v-140h-349z" />
    <glyph glyph-name="uni1E60" unicode="&#x1e60;" horiz-adv-x="560" 
d="M196 718v141h156v-141h-156zM258 -10q-68 0 -131 11.5t-106 33.5v181q47 -23 106 -38t105 -15q30 0 47 7.5t17 21.5q0 18 -32 28t-84 29q-62 24 -98 50t-51.5 62.5t-15.5 91.5q0 201 283 201q32 0 71.5 -4.5t77 -11.5t63.5 -15v-182q-55 23 -97 31t-74 8q-25 0 -51 -4.5
t-26 -20.5q0 -13 23 -20.5t73 -21.5q80 -22 120 -52.5t53.5 -72t13.5 -95.5q0 -92 -72 -147.5t-215 -55.5z" />
    <glyph glyph-name="uni1E61" unicode="&#x1e61;" horiz-adv-x="507" 
d="M156 552v141h156v-141h-156zM239 -10q-68 0 -128 10t-92 24v153q24 -12 56 -21t63.5 -14t52.5 -5q23 0 38.5 1t15.5 10q0 8 -16 13t-40.5 11t-50.5 15q-65 24 -94 54.5t-29 87.5q0 76 63 115.5t193 39.5q32 0 70 -3.5t71.5 -8.5t53.5 -12v-152q-32 14 -69 21.5t-65 7.5
q-14 0 -30.5 -0.5t-28 -3t-11.5 -9.5q0 -10 30.5 -15.5t67.5 -16.5q52 -15 80.5 -33.5t40 -45t11.5 -65.5q0 -73 -64 -115.5t-189 -42.5z" />
    <glyph glyph-name="uni1E62" unicode="&#x1e62;" horiz-adv-x="560" 
d="M258 -10q-68 0 -131 11.5t-106 33.5v181q47 -23 106 -38t105 -15q30 0 47 7.5t17 21.5q0 18 -32 28t-84 29q-62 24 -98 50t-51.5 62.5t-15.5 91.5q0 201 283 201q32 0 71.5 -4.5t77 -11.5t63.5 -15v-182q-55 23 -97 31t-74 8q-25 0 -51 -4.5t-26 -20.5q0 -13 23 -20.5
t73 -21.5q80 -22 120 -52.5t53.5 -72t13.5 -95.5q0 -92 -72 -147.5t-215 -55.5zM199 -213v141h156v-141h-156z" />
    <glyph glyph-name="uni1E63" unicode="&#x1e63;" horiz-adv-x="507" 
d="M239 -10q-68 0 -128 10t-92 24v153q24 -12 56 -21t63.5 -14t52.5 -5q23 0 38.5 1t15.5 10q0 8 -16 13t-40.5 11t-50.5 15q-65 24 -94 54.5t-29 87.5q0 76 63 115.5t193 39.5q32 0 70 -3.5t71.5 -8.5t53.5 -12v-152q-32 14 -69 21.5t-65 7.5q-14 0 -30.5 -0.5t-28 -3
t-11.5 -9.5q0 -10 30.5 -15.5t67.5 -16.5q52 -15 80.5 -33.5t40 -45t11.5 -65.5q0 -73 -64 -115.5t-189 -42.5zM180 -213v141h156v-141h-156z" />
    <glyph glyph-name="uni1E6C" unicode="&#x1e6c;" horiz-adv-x="560" 
d="M159 0v470h-164v174h570v-174h-164v-470h-242zM198 -193v141h156v-141h-156z" />
    <glyph glyph-name="uni1E6D" unicode="&#x1e6d;" horiz-adv-x="396" 
d="M254 -10q-109 0 -155.5 53t-46.5 143v114h-57v174h57v93l242 49v-142h97l-5 -174h-92v-101q0 -42 47 -42q31 0 60 10v-150q-31 -13 -66 -20t-81 -7zM143 -193v141h156v-141h-156z" />
    <glyph glyph-name="uni1E6E" unicode="&#x1e6e;" horiz-adv-x="560" 
d="M159 0v470h-164v174h570v-174h-164v-470h-242zM106 -188v140h349v-140h-349z" />
    <glyph glyph-name="uni1E6F" unicode="&#x1e6f;" horiz-adv-x="396" 
d="M254 -10q-109 0 -155.5 53t-46.5 143v114h-57v174h57v93l242 49v-142h97l-5 -174h-92v-101q0 -42 47 -42q31 0 60 10v-150q-31 -13 -66 -20t-81 -7zM26 -188v140h349v-140h-349z" />
    <glyph glyph-name="Wgrave" unicode="&#x1e80;" horiz-adv-x="911" 
d="M355 688l-105 226h186l96 -226h-177zM165 0l-150 644h236l49 -246l37 137v109h197l72 -247l55 247h235l-149 -644h-211l-77 254l-83 -254h-211z" />
    <glyph glyph-name="wgrave" unicode="&#x1e81;" horiz-adv-x="814" 
d="M314 522l-105 226h186l96 -226h-177zM141 0l-126 474h230l40 -162l30 88v74h174l42 -162l38 162h230l-126 -474h-213l-52 153l-52 -153h-215z" />
    <glyph glyph-name="Wacute" unicode="&#x1e82;" horiz-adv-x="911" 
d="M342 688l96 226h186l-105 -226h-177zM165 0l-150 644h236l49 -246l37 137v109h197l72 -247l55 247h235l-149 -644h-211l-77 254l-83 -254h-211z" />
    <glyph glyph-name="wacute" unicode="&#x1e83;" horiz-adv-x="814" 
d="M313 522l96 226h186l-105 -226h-177zM141 0l-126 474h230l40 -162l30 88v74h174l42 -162l38 162h230l-126 -474h-213l-52 153l-52 -153h-215z" />
    <glyph glyph-name="Wdieresis" unicode="&#x1e84;" horiz-adv-x="911" 
d="M264 718v141h156v-141h-156zM499 718v141h156v-141h-156zM165 0l-150 644h236l49 -246l37 137v109h197l72 -247l55 247h235l-149 -644h-211l-77 254l-83 -254h-211z" />
    <glyph glyph-name="wdieresis" unicode="&#x1e85;" horiz-adv-x="814" 
d="M213 552v141h156v-141h-156zM448 552v141h156v-141h-156zM141 0l-126 474h230l40 -162l30 88v74h174l42 -162l38 162h230l-126 -474h-213l-52 153l-52 -153h-215z" />
    <glyph glyph-name="uni1E8E" unicode="&#x1e8e;" horiz-adv-x="738" 
d="M291 718v141h156v-141h-156zM248 0v234l-233 410h252l102 -205l102 205h252l-233 -410v-234h-242z" />
    <glyph glyph-name="uni1E8F" unicode="&#x1e8f;" horiz-adv-x="677" 
d="M273 552v141h156v-141h-156zM229 -176q-49 0 -79.5 5t-61.5 18v154q29 -10 60 -10q30 0 50 4.5t34 19.5l-217 459h253l83 -236l79 236h252l-163 -417q-43 -109 -112 -171t-178 -62z" />
    <glyph glyph-name="uni1E92" unicode="&#x1e92;" horiz-adv-x="586" 
d="M15 0v119l236 327h-222v198h541v-137l-233 -323h239v-184h-561zM236 -213v141h156v-141h-156z" />
    <glyph glyph-name="uni1E93" unicode="&#x1e93;" horiz-adv-x="506" 
d="M15 0v127l159 162h-154v185h463v-140l-151 -160h159v-174h-476zM160 -213v141h156v-141h-156z" />
    <glyph glyph-name="uni1E97" unicode="&#x1e97;" horiz-adv-x="404" 
d="M-5 646v141h156v-141h-156zM230 646v141h156v-141h-156zM262 -10q-109 0 -155.5 53t-46.5 143v114h-57v174h57v93l242 49v-142h97l-5 -174h-92v-101q0 -42 47 -42q31 0 60 10v-150q-31 -13 -66 -20t-81 -7z" />
    <glyph glyph-name="uni1E9E" unicode="&#x1e9e;" horiz-adv-x="657" 
d="M416 -10q-38 0 -73.5 6t-55.5 16v151q11 -4 29.5 -6.5t31.5 -2.5q27 0 37 10.5t10 29.5q0 14 -12 22t-41 8h-54v107l107 98q0 14 -16.5 22.5t-51.5 8.5q-40 0 -55 -18t-15 -44v-398h-227v401q0 76 36.5 133t103.5 88.5t157 31.5q103 0 167.5 -32.5t95 -88t30.5 -124.5
l-111 -103h11q54 0 88 -36.5t34 -104.5q0 -91 -59.5 -133t-166.5 -42z" />
    <glyph glyph-name="uni1EA0" unicode="&#x1ea0;" horiz-adv-x="777" 
d="M15 0l248 644h251l248 -644h-252l-46 120h-151l-46 -120h-252zM339 285h98l-49 123zM311 -213v141h156v-141h-156z" />
    <glyph glyph-name="uni1EA1" unicode="&#x1ea1;" horiz-adv-x="587" 
d="M182 -10q-45 0 -83 16t-61 51t-23 91q0 80 50.5 121t155.5 41h106v5q0 11 -21 19.5t-64 8.5q-38 0 -82.5 -6.5t-84.5 -18.5v130q39 17 99.5 26.5t115.5 9.5q79 0 139 -21.5t94 -66t34 -113.5v-283h-212l-10 34q-24 -19 -61.5 -31.5t-91.5 -12.5zM273 122q19 0 31.5 6
t22.5 16v44h-44q-45 0 -45 -33t35 -33zM240 -213v141h156v-141h-156z" />
    <glyph glyph-name="uni1EA2" unicode="&#x1ea2;" horiz-adv-x="777" 
d="M304 688v81q49 3 67 13.5t18 25.5q0 28 -50 28q-31 0 -56 -10v94q24 7 55.5 11t74.5 4q73 0 112 -31t39 -76t-19 -67.5t-63 -36.5v-36h-178zM15 0l248 644h251l248 -644h-252l-46 120h-151l-46 -120h-252zM339 285h98l-49 123z" />
    <glyph glyph-name="uni1EA3" unicode="&#x1ea3;" horiz-adv-x="587" 
d="M209 522v81q49 3 67 13.5t18 25.5q0 28 -50 28q-31 0 -56 -10v94q24 7 55.5 11t74.5 4q73 0 112 -31t39 -76t-19 -67.5t-63 -36.5v-36h-178zM182 -10q-45 0 -83 16t-61 51t-23 91q0 80 50.5 121t155.5 41h106v5q0 11 -21 19.5t-64 8.5q-38 0 -82.5 -6.5t-84.5 -18.5v130
q39 17 99.5 26.5t115.5 9.5q79 0 139 -21.5t94 -66t34 -113.5v-283h-212l-10 34q-24 -19 -61.5 -31.5t-91.5 -12.5zM273 122q19 0 31.5 6t22.5 16v44h-44q-45 0 -45 -33t35 -33z" />
    <glyph glyph-name="uni1EA4" unicode="&#x1ea4;" horiz-adv-x="777" 
d="M525 820l75 172h176l-83 -172h-168zM136 688l158 168h175l158 -168h-189l-56 76l-53 -76h-193zM15 0l248 644h251l248 -644h-252l-46 120h-151l-46 -120h-252zM339 285h98l-49 123z" />
    <glyph glyph-name="uni1EA5" unicode="&#x1ea5;" horiz-adv-x="587" 
d="M452 654l75 172h176l-83 -172h-168zM63 522l158 168h175l158 -168h-189l-56 76l-53 -76h-193zM182 -10q-45 0 -83 16t-61 51t-23 91q0 80 50.5 121t155.5 41h106v5q0 11 -21 19.5t-64 8.5q-38 0 -82.5 -6.5t-84.5 -18.5v130q39 17 99.5 26.5t115.5 9.5q79 0 139 -21.5
t94 -66t34 -113.5v-283h-212l-10 34q-24 -19 -61.5 -31.5t-91.5 -12.5zM273 122q19 0 31.5 6t22.5 16v44h-44q-45 0 -45 -33t35 -33z" />
    <glyph glyph-name="uni1EA6" unicode="&#x1ea6;" horiz-adv-x="777" 
d="M78 820l-83 172h176l75 -172h-168zM144 688l158 168h175l158 -168h-193l-53 76l-56 -76h-189zM15 0l248 644h251l248 -644h-252l-46 120h-151l-46 -120h-252zM339 285h98l-49 123z" />
    <glyph glyph-name="uni1EA7" unicode="&#x1ea7;" horiz-adv-x="587" 
d="M-7 654l-83 172h176l75 -172h-168zM59 522l158 168h175l158 -168h-193l-53 76l-56 -76h-189zM182 -10q-45 0 -83 16t-61 51t-23 91q0 80 50.5 121t155.5 41h106v5q0 11 -21 19.5t-64 8.5q-38 0 -82.5 -6.5t-84.5 -18.5v130q39 17 99.5 26.5t115.5 9.5q79 0 139 -21.5
t94 -66t34 -113.5v-283h-212l-10 34q-24 -19 -61.5 -31.5t-91.5 -12.5zM273 122q19 0 31.5 6t22.5 16v44h-44q-45 0 -45 -33t35 -33z" />
    <glyph glyph-name="uni1EA8" unicode="&#x1ea8;" horiz-adv-x="777" 
d="M540 797v80q38 2 51 8t13 15q0 15 -34 15q-13 0 -25.5 -3t-22.5 -7v92q20 5 49.5 8.5t66.5 3.5q62 0 95.5 -27t33.5 -65q0 -34 -17 -58t-53 -31v-31h-157zM140 688l158 168h175l158 -168h-189l-56 76l-53 -76h-193zM15 0l248 644h251l248 -644h-252l-46 120h-151
l-46 -120h-252zM339 285h98l-49 123z" />
    <glyph glyph-name="uni1EA9" unicode="&#x1ea9;" horiz-adv-x="587" 
d="M455 631v80q38 2 51 8t13 15q0 15 -34 15q-13 0 -25.5 -3t-22.5 -7v92q20 5 49.5 8.5t66.5 3.5q62 0 95.5 -27t33.5 -65q0 -34 -17 -58t-53 -31v-31h-157zM55 522l158 168h175l158 -168h-189l-56 76l-53 -76h-193zM182 -10q-45 0 -83 16t-61 51t-23 91q0 80 50.5 121
t155.5 41h106v5q0 11 -21 19.5t-64 8.5q-38 0 -82.5 -6.5t-84.5 -18.5v130q39 17 99.5 26.5t115.5 9.5q79 0 139 -21.5t94 -66t34 -113.5v-283h-212l-10 34q-24 -19 -61.5 -31.5t-91.5 -12.5zM273 122q19 0 31.5 6t22.5 16v44h-44q-45 0 -45 -33t35 -33z" />
    <glyph glyph-name="uni1EAA" unicode="&#x1eaa;" horiz-adv-x="777" 
d="M496 871q-34 0 -67 10.5t-64 21t-61 10.5q-33 0 -58 -11t-42 -28v135q14 13 40.5 23t56.5 10q35 0 66.5 -10.5t62.5 -21t63 -10.5q33 0 58 11.5t36 27.5v-135q-9 -13 -35 -23t-56 -10zM143 688l158 168h175l158 -168h-189l-56 76l-53 -76h-193zM15 0l248 644h251
l248 -644h-252l-46 120h-151l-46 -120h-252zM339 285h98l-49 123z" />
    <glyph glyph-name="uni1EAB" unicode="&#x1eab;" horiz-adv-x="587" 
d="M408 705q-34 0 -67 10.5t-64 21t-61 10.5q-33 0 -58 -11t-42 -28v135q14 13 40.5 23t56.5 10q35 0 66.5 -10.5t62.5 -21t63 -10.5q33 0 58 11.5t36 27.5v-135q-9 -13 -35 -23t-56 -10zM55 522l158 168h175l158 -168h-189l-56 76l-53 -76h-193zM182 -10q-45 0 -83 16
t-61 51t-23 91q0 80 50.5 121t155.5 41h106v5q0 11 -21 19.5t-64 8.5q-38 0 -82.5 -6.5t-84.5 -18.5v130q39 17 99.5 26.5t115.5 9.5q79 0 139 -21.5t94 -66t34 -113.5v-283h-212l-10 34q-24 -19 -61.5 -31.5t-91.5 -12.5zM273 122q19 0 31.5 6t22.5 16v44h-44
q-45 0 -45 -33t35 -33z" />
    <glyph glyph-name="uni1EAC" unicode="&#x1eac;" horiz-adv-x="777" 
d="M144 688l175 216h141l175 -216h-168l-77 107l-73 -107h-173zM15 0l248 644h251l248 -644h-252l-46 120h-151l-46 -120h-252zM339 285h98l-49 123zM310 -213v141h156v-141h-156z" />
    <glyph glyph-name="uni1EAD" unicode="&#x1ead;" horiz-adv-x="587" 
d="M61 522l175 216h141l175 -216h-168l-77 107l-73 -107h-173zM182 -10q-45 0 -83 16t-61 51t-23 91q0 80 50.5 121t155.5 41h106v5q0 11 -21 19.5t-64 8.5q-38 0 -82.5 -6.5t-84.5 -18.5v130q39 17 99.5 26.5t115.5 9.5q79 0 139 -21.5t94 -66t34 -113.5v-283h-212l-10 34
q-24 -19 -61.5 -31.5t-91.5 -12.5zM273 122q19 0 31.5 6t22.5 16v44h-44q-45 0 -45 -33t35 -33zM228 -213v141h156v-141h-156z" />
    <glyph glyph-name="uni1EAE" unicode="&#x1eae;" horiz-adv-x="777" 
d="M320 895l75 172h156l-83 -172h-148zM388 688q-90 0 -144 45.5t-54 142.5h134q0 -30 15 -50.5t49 -20.5q35 0 50 20.5t15 50.5h134q0 -97 -54 -142.5t-145 -45.5zM15 0l248 644h251l248 -644h-252l-46 120h-151l-46 -120h-252zM339 285h98l-49 123z" />
    <glyph glyph-name="uni1EAF" unicode="&#x1eaf;" horiz-adv-x="587" 
d="M243 729l75 172h156l-83 -172h-148zM311 522q-90 0 -144 45.5t-54 142.5h134q0 -30 15 -50.5t49 -20.5q35 0 50 20.5t15 50.5h134q0 -97 -54 -142.5t-145 -45.5zM182 -10q-45 0 -83 16t-61 51t-23 91q0 80 50.5 121t155.5 41h106v5q0 11 -21 19.5t-64 8.5
q-38 0 -82.5 -6.5t-84.5 -18.5v130q39 17 99.5 26.5t115.5 9.5q79 0 139 -21.5t94 -66t34 -113.5v-283h-212l-10 34q-24 -19 -61.5 -31.5t-91.5 -12.5zM273 122q19 0 31.5 6t22.5 16v44h-44q-45 0 -45 -33t35 -33z" />
    <glyph glyph-name="uni1EB0" unicode="&#x1eb0;" horiz-adv-x="777" 
d="M309 895l-83 172h156l75 -172h-148zM389 688q-91 0 -145 45.5t-54 142.5h134q0 -30 15 -50.5t50 -20.5t49.5 20.5t14.5 50.5h134q0 -97 -54 -142.5t-144 -45.5zM15 0l248 644h251l248 -644h-252l-46 120h-151l-46 -120h-252zM339 285h98l-49 123z" />
    <glyph glyph-name="uni1EB1" unicode="&#x1eb1;" horiz-adv-x="587" 
d="M229 729l-83 172h156l75 -172h-148zM309 522q-91 0 -145 45.5t-54 142.5h134q0 -30 15 -50.5t50 -20.5t49.5 20.5t14.5 50.5h134q0 -97 -54 -142.5t-144 -45.5zM182 -10q-45 0 -83 16t-61 51t-23 91q0 80 50.5 121t155.5 41h106v5q0 11 -21 19.5t-64 8.5
q-38 0 -82.5 -6.5t-84.5 -18.5v130q39 17 99.5 26.5t115.5 9.5q79 0 139 -21.5t94 -66t34 -113.5v-283h-212l-10 34q-24 -19 -61.5 -31.5t-91.5 -12.5zM273 122q19 0 31.5 6t22.5 16v44h-44q-45 0 -45 -33t35 -33z" />
    <glyph glyph-name="uni1EB2" unicode="&#x1eb2;" horiz-adv-x="777" 
d="M309 896v63q38 2 56 11t18 22q0 15 -11 20t-33 5q-13 0 -25.5 -3.5t-22.5 -7.5v82q20 5 52.5 9t63.5 4q62 0 95.5 -27t33.5 -65q0 -34 -16 -54t-54 -32v-27h-157zM389 688q-91 0 -145 45.5t-54 142.5h134q0 -30 15 -50.5t50 -20.5t49.5 20.5t14.5 50.5h134
q0 -97 -54 -142.5t-144 -45.5zM15 0l248 644h251l248 -644h-252l-46 120h-151l-46 -120h-252zM339 285h98l-49 123z" />
    <glyph glyph-name="uni1EB3" unicode="&#x1eb3;" horiz-adv-x="587" 
d="M219 730v63q38 2 56 11t18 22q0 15 -11 20t-33 5q-13 0 -25.5 -3.5t-22.5 -7.5v82q20 5 52.5 9t63.5 4q62 0 95.5 -27t33.5 -65q0 -34 -16 -54t-54 -32v-27h-157zM299 522q-91 0 -145 45.5t-54 142.5h134q0 -30 15 -50.5t50 -20.5t49.5 20.5t14.5 50.5h134
q0 -97 -54 -142.5t-144 -45.5zM182 -10q-45 0 -83 16t-61 51t-23 91q0 80 50.5 121t155.5 41h106v5q0 11 -21 19.5t-64 8.5q-38 0 -82.5 -6.5t-84.5 -18.5v130q39 17 99.5 26.5t115.5 9.5q79 0 139 -21.5t94 -66t34 -113.5v-283h-212l-10 34q-24 -19 -61.5 -31.5
t-91.5 -12.5zM273 122q19 0 31.5 6t22.5 16v44h-44q-45 0 -45 -33t35 -33z" />
    <glyph glyph-name="uni1EB4" unicode="&#x1eb4;" horiz-adv-x="777" 
d="M491 901q-34 0 -67 10.5t-64 21t-61 10.5q-33 0 -58 -11t-42 -28v125q14 13 40.5 23t56.5 10q35 0 66.5 -10.5t62.5 -21t63 -10.5q33 0 58 11.5t36 27.5v-125q-9 -13 -35 -23t-56 -10zM389 688q-91 0 -145 45.5t-54 142.5h134q0 -30 15 -50.5t50 -20.5t49.5 20.5
t14.5 50.5h134q0 -97 -54 -142.5t-144 -45.5zM15 0l248 644h251l248 -644h-252l-46 120h-151l-46 -120h-252zM339 285h98l-49 123z" />
    <glyph glyph-name="uni1EB5" unicode="&#x1eb5;" horiz-adv-x="587" 
d="M399 735q-34 0 -67 10.5t-64 21t-61 10.5q-33 0 -58 -11t-42 -28v125q14 13 40.5 23t56.5 10q35 0 66.5 -10.5t62.5 -21t63 -10.5q33 0 58 11.5t36 27.5v-125q-9 -13 -35 -23t-56 -10zM297 522q-91 0 -145 45.5t-54 142.5h134q0 -30 15 -50.5t50 -20.5t49.5 20.5
t14.5 50.5h134q0 -97 -54 -142.5t-144 -45.5zM182 -10q-45 0 -83 16t-61 51t-23 91q0 80 50.5 121t155.5 41h106v5q0 11 -21 19.5t-64 8.5q-38 0 -82.5 -6.5t-84.5 -18.5v130q39 17 99.5 26.5t115.5 9.5q79 0 139 -21.5t94 -66t34 -113.5v-283h-212l-10 34
q-24 -19 -61.5 -31.5t-91.5 -12.5zM273 122q19 0 31.5 6t22.5 16v44h-44q-45 0 -45 -33t35 -33z" />
    <glyph glyph-name="uni1EB6" unicode="&#x1eb6;" horiz-adv-x="777" 
d="M388 688q-100 0 -160 56.5t-60 163.5h155q0 -34 14 -61t51 -27q38 0 52 27t14 61h155q0 -107 -60 -163.5t-161 -56.5zM15 0l248 644h251l248 -644h-252l-46 120h-151l-46 -120h-252zM339 285h98l-49 123zM310 -213v141h156v-141h-156z" />
    <glyph glyph-name="uni1EB7" unicode="&#x1eb7;" horiz-adv-x="587" 
d="M321 522q-100 0 -160 56.5t-60 163.5h155q0 -34 14 -61t51 -27q38 0 52 27t14 61h155q0 -107 -60 -163.5t-161 -56.5zM182 -10q-45 0 -83 16t-61 51t-23 91q0 80 50.5 121t155.5 41h106v5q0 11 -21 19.5t-64 8.5q-38 0 -82.5 -6.5t-84.5 -18.5v130q39 17 99.5 26.5
t115.5 9.5q79 0 139 -21.5t94 -66t34 -113.5v-283h-212l-10 34q-24 -19 -61.5 -31.5t-91.5 -12.5zM273 122q19 0 31.5 6t22.5 16v44h-44q-45 0 -45 -33t35 -33zM245 -213v141h156v-141h-156z" />
    <glyph glyph-name="uni1EB8" unicode="&#x1eb8;" horiz-adv-x="555" 
d="M35 0v644h515v-174h-273v-58h235v-180h-235v-58h273v-174h-515zM204 -213v141h156v-141h-156z" />
    <glyph glyph-name="uni1EB9" unicode="&#x1eb9;" horiz-adv-x="567" 
d="M310 -10q-84 0 -150.5 28t-105.5 82.5t-39 134.5q0 113 67.5 181t201.5 68q122 0 195 -60t73 -171v-81h-316q15 -19 49.5 -29.5t89.5 -10.5q45 0 87 7.5t66 16.5v-130q-75 -36 -218 -36zM236 293h109v9q0 14 -11 26.5t-42 12.5q-30 0 -43 -14t-13 -34zM221 -213v141h156
v-141h-156z" />
    <glyph glyph-name="uni1EBA" unicode="&#x1eba;" horiz-adv-x="555" 
d="M203 688v81q49 3 67 13.5t18 25.5q0 28 -50 28q-31 0 -56 -10v94q24 7 55.5 11t74.5 4q73 0 112 -31t39 -76t-19 -67.5t-63 -36.5v-36h-178zM35 0v644h515v-174h-273v-58h235v-180h-235v-58h273v-174h-515z" />
    <glyph glyph-name="uni1EBB" unicode="&#x1ebb;" horiz-adv-x="567" 
d="M202 522v81q49 3 67 13.5t18 25.5q0 28 -50 28q-31 0 -56 -10v94q24 7 55.5 11t74.5 4q73 0 112 -31t39 -76t-19 -67.5t-63 -36.5v-36h-178zM310 -10q-84 0 -150.5 28t-105.5 82.5t-39 134.5q0 113 67.5 181t201.5 68q122 0 195 -60t73 -171v-81h-316q15 -19 49.5 -29.5
t89.5 -10.5q45 0 87 7.5t66 16.5v-130q-75 -36 -218 -36zM236 293h109v9q0 14 -11 26.5t-42 12.5q-30 0 -43 -14t-13 -34z" />
    <glyph glyph-name="uni1EBC" unicode="&#x1ebc;" horiz-adv-x="555" 
d="M397 693q-36 0 -70.5 11t-67 22t-63.5 11q-34 0 -60.5 -11.5t-44.5 -29.5v141q15 14 43 24.5t59 10.5q37 0 69.5 -11l65 -22t66.5 -11q35 0 60.5 12.5t37.5 28.5v-141q-10 -13 -36.5 -24t-58.5 -11zM35 0v644h515v-174h-273v-58h235v-180h-235v-58h273v-174h-515z" />
    <glyph glyph-name="uni1EBD" unicode="&#x1ebd;" horiz-adv-x="567" 
d="M401 527q-36 0 -70.5 11t-67 22t-63.5 11q-34 0 -60.5 -11.5t-44.5 -29.5v141q15 14 43 24.5t59 10.5q37 0 69.5 -11l65 -22t66.5 -11q35 0 60.5 12.5t37.5 28.5v-141q-10 -13 -36.5 -24t-58.5 -11zM310 -10q-84 0 -150.5 28t-105.5 82.5t-39 134.5q0 113 67.5 181
t201.5 68q122 0 195 -60t73 -171v-81h-316q15 -19 49.5 -29.5t89.5 -10.5q45 0 87 7.5t66 16.5v-130q-75 -36 -218 -36zM236 293h109v9q0 14 -11 26.5t-42 12.5q-30 0 -43 -14t-13 -34z" />
    <glyph glyph-name="uni1EBE" unicode="&#x1ebe;" horiz-adv-x="555" 
d="M442 820l75 172h176l-83 -172h-168zM53 688l158 168h175l158 -168h-189l-56 76l-53 -76h-193zM35 0v644h515v-174h-273v-58h235v-180h-235v-58h273v-174h-515z" />
    <glyph glyph-name="uni1EBF" unicode="&#x1ebf;" horiz-adv-x="567" 
d="M443 654l75 172h176l-83 -172h-168zM54 522l158 168h175l158 -168h-189l-56 76l-53 -76h-193zM310 -10q-84 0 -150.5 28t-105.5 82.5t-39 134.5q0 113 67.5 181t201.5 68q122 0 195 -60t73 -171v-81h-316q15 -19 49.5 -29.5t89.5 -10.5q45 0 87 7.5t66 16.5v-130
q-75 -36 -218 -36zM236 293h109v9q0 14 -11 26.5t-42 12.5q-30 0 -43 -14t-13 -34z" />
    <glyph glyph-name="uni1EC0" unicode="&#x1ec0;" horiz-adv-x="555" 
d="M-16 820l-83 172h176l75 -172h-168zM50 688l158 168h175l158 -168h-193l-53 76l-56 -76h-189zM35 0v644h515v-174h-273v-58h235v-180h-235v-58h273v-174h-515z" />
    <glyph glyph-name="uni1EC1" unicode="&#x1ec1;" horiz-adv-x="567" 
d="M-14 654l-83 172h176l75 -172h-168zM52 522l158 168h175l158 -168h-193l-53 76l-56 -76h-189zM310 -10q-84 0 -150.5 28t-105.5 82.5t-39 134.5q0 113 67.5 181t201.5 68q122 0 195 -60t73 -171v-81h-316q15 -19 49.5 -29.5t89.5 -10.5q45 0 87 7.5t66 16.5v-130
q-75 -36 -218 -36zM236 293h109v9q0 14 -11 26.5t-42 12.5q-30 0 -43 -14t-13 -34z" />
    <glyph glyph-name="uni1EC2" unicode="&#x1ec2;" horiz-adv-x="555" 
d="M445 797v80q38 2 51 8t13 15q0 15 -34 15q-13 0 -25.5 -3t-22.5 -7v92q20 5 49.5 8.5t66.5 3.5q62 0 95.5 -27t33.5 -65q0 -34 -17 -58t-53 -31v-31h-157zM45 688l158 168h175l158 -168h-189l-56 76l-53 -76h-193zM35 0v644h515v-174h-273v-58h235v-180h-235v-58h273
v-174h-515z" />
    <glyph glyph-name="uni1EC3" unicode="&#x1ec3;" horiz-adv-x="567" 
d="M445 631v80q38 2 51 8t13 15q0 15 -34 15q-13 0 -25.5 -3t-22.5 -7v92q20 5 49.5 8.5t66.5 3.5q62 0 95.5 -27t33.5 -65q0 -34 -17 -58t-53 -31v-31h-157zM45 522l158 168h175l158 -168h-189l-56 76l-53 -76h-193zM310 -10q-84 0 -150.5 28t-105.5 82.5t-39 134.5
q0 113 67.5 181t201.5 68q122 0 195 -60t73 -171v-81h-316q15 -19 49.5 -29.5t89.5 -10.5q45 0 87 7.5t66 16.5v-130q-75 -36 -218 -36zM236 293h109v9q0 14 -11 26.5t-42 12.5q-30 0 -43 -14t-13 -34z" />
    <glyph glyph-name="uni1EC4" unicode="&#x1ec4;" horiz-adv-x="555" 
d="M398 871q-34 0 -67 10.5t-64 21t-61 10.5q-33 0 -58 -11t-42 -28v135q14 13 40.5 23t56.5 10q35 0 66.5 -10.5t62.5 -21t63 -10.5q33 0 58 11.5t36 27.5v-135q-9 -13 -35 -23t-56 -10zM45 688l158 168h175l158 -168h-189l-56 76l-53 -76h-193zM35 0v644h515v-174h-273
v-58h235v-180h-235v-58h273v-174h-515z" />
    <glyph glyph-name="uni1EC5" unicode="&#x1ec5;" horiz-adv-x="567" 
d="M398 705q-34 0 -67 10.5t-64 21t-61 10.5q-33 0 -58 -11t-42 -28v135q14 13 40.5 23t56.5 10q35 0 66.5 -10.5t62.5 -21t63 -10.5q33 0 58 11.5t36 27.5v-135q-9 -13 -35 -23t-56 -10zM45 522l158 168h175l158 -168h-189l-56 76l-53 -76h-193zM310 -10q-84 0 -150.5 28
t-105.5 82.5t-39 134.5q0 113 67.5 181t201.5 68q122 0 195 -60t73 -171v-81h-316q15 -19 49.5 -29.5t89.5 -10.5q45 0 87 7.5t66 16.5v-130q-75 -36 -218 -36zM236 293h109v9q0 14 -11 26.5t-42 12.5q-30 0 -43 -14t-13 -34z" />
    <glyph glyph-name="uni1EC6" unicode="&#x1ec6;" horiz-adv-x="555" 
d="M45 688l175 216h141l175 -216h-168l-77 107l-73 -107h-173zM35 0v644h515v-174h-273v-58h235v-180h-235v-58h273v-174h-515zM213 -213v141h156v-141h-156z" />
    <glyph glyph-name="uni1EC7" unicode="&#x1ec7;" horiz-adv-x="567" 
d="M35 522l175 216h141l175 -216h-168l-77 107l-73 -107h-173zM310 -10q-84 0 -150.5 28t-105.5 82.5t-39 134.5q0 113 67.5 181t201.5 68q122 0 195 -60t73 -171v-81h-316q15 -19 49.5 -29.5t89.5 -10.5q45 0 87 7.5t66 16.5v-130q-75 -36 -218 -36zM236 293h109v9
q0 14 -11 26.5t-42 12.5q-30 0 -43 -14t-13 -34zM203 -213v141h156v-141h-156z" />
    <glyph glyph-name="uni1EC8" unicode="&#x1ec8;" horiz-adv-x="312" 
d="M65 688v81q49 3 67 13.5t18 25.5q0 28 -50 28q-31 0 -56 -10v94q24 7 55.5 11t74.5 4q73 0 112 -31t39 -76t-19 -67.5t-63 -36.5v-36h-178zM35 0v644h242v-644h-242z" />
    <glyph glyph-name="uni1EC9" unicode="&#x1ec9;" horiz-adv-x="378" 
d="M115 522v81q49 3 67 13.5t18 25.5q0 28 -50 28q-31 0 -56 -10v94q24 7 55.5 11t74.5 4q73 0 112 -31t39 -76t-19 -67.5t-63 -36.5v-36h-178zM101 0v300h-66l20 174h288v-474h-242z" />
    <glyph glyph-name="uni1ECA" unicode="&#x1eca;" horiz-adv-x="312" 
d="M35 0v644h242v-644h-242zM78 -213v141h156v-141h-156z" />
    <glyph glyph-name="uni1ECB" unicode="&#x1ecb;" horiz-adv-x="378" 
d="M84 513v167h259v-167h-259zM101 0v300h-66l20 174h288v-474h-242zM145 -213v141h156v-141h-156z" />
    <glyph glyph-name="uni1ECC" unicode="&#x1ecc;" horiz-adv-x="720" 
d="M360 -10q-109 0 -186 32.5t-118 105.5t-41 194q0 122 41 194.5t118 105t186 32.5t186 -32.5t118 -105t41 -194.5q0 -121 -41 -194t-118 -105.5t-186 -32.5zM360 195q53 0 75.5 28.5t22.5 98.5t-22.5 98.5t-75.5 28.5t-75.5 -28.5t-22.5 -98.5t22.5 -98.5t75.5 -28.5z
M282 -213v141h156v-141h-156z" />
    <glyph glyph-name="uni1ECD" unicode="&#x1ecd;" horiz-adv-x="627" 
d="M313 -10q-151 0 -224.5 62t-73.5 185t73.5 185t224.5 62q299 0 299 -247t-299 -247zM313 163q26 0 39 16t13 58t-13 58t-39 16q-25 0 -38 -16t-13 -58t13 -58t38 -16zM235 -213v141h156v-141h-156z" />
    <glyph glyph-name="uni1ECE" unicode="&#x1ece;" horiz-adv-x="720" 
d="M267 688v81q49 3 67 13.5t18 25.5q0 28 -50 28q-31 0 -56 -10v94q24 7 55.5 11t74.5 4q73 0 112 -31t39 -76t-19 -67.5t-63 -36.5v-36h-178zM360 -10q-109 0 -186 32.5t-118 105.5t-41 194q0 122 41 194.5t118 105t186 32.5t186 -32.5t118 -105t41 -194.5
q0 -121 -41 -194t-118 -105.5t-186 -32.5zM360 195q53 0 75.5 28.5t22.5 98.5t-22.5 98.5t-75.5 28.5t-75.5 -28.5t-22.5 -98.5t22.5 -98.5t75.5 -28.5z" />
    <glyph glyph-name="uni1ECF" unicode="&#x1ecf;" horiz-adv-x="627" 
d="M227 522v81q49 3 67 13.5t18 25.5q0 28 -50 28q-31 0 -56 -10v94q24 7 55.5 11t74.5 4q73 0 112 -31t39 -76t-19 -67.5t-63 -36.5v-36h-178zM313 -10q-151 0 -224.5 62t-73.5 185t73.5 185t224.5 62q299 0 299 -247t-299 -247zM313 163q26 0 39 16t13 58t-13 58t-39 16
q-25 0 -38 -16t-13 -58t13 -58t38 -16z" />
    <glyph glyph-name="uni1ED0" unicode="&#x1ed0;" horiz-adv-x="720" 
d="M502 820l75 172h176l-83 -172h-168zM113 688l158 168h175l158 -168h-189l-56 76l-53 -76h-193zM360 -10q-109 0 -186 32.5t-118 105.5t-41 194q0 122 41 194.5t118 105t186 32.5t186 -32.5t118 -105t41 -194.5q0 -121 -41 -194t-118 -105.5t-186 -32.5zM360 195
q53 0 75.5 28.5t22.5 98.5t-22.5 98.5t-75.5 28.5t-75.5 -28.5t-22.5 -98.5t22.5 -98.5t75.5 -28.5z" />
    <glyph glyph-name="uni1ED1" unicode="&#x1ed1;" horiz-adv-x="627" 
d="M450 654l75 172h176l-83 -172h-168zM61 522l158 168h175l158 -168h-189l-56 76l-53 -76h-193zM313 -10q-151 0 -224.5 62t-73.5 185t73.5 185t224.5 62q299 0 299 -247t-299 -247zM313 163q26 0 39 16t13 58t-13 58t-39 16q-25 0 -38 -16t-13 -58t13 -58t38 -16z" />
    <glyph glyph-name="uni1ED2" unicode="&#x1ed2;" horiz-adv-x="720" 
d="M48 820l-83 172h176l75 -172h-168zM114 688l158 168h175l158 -168h-193l-53 76l-56 -76h-189zM360 -10q-109 0 -186 32.5t-118 105.5t-41 194q0 122 41 194.5t118 105t186 32.5t186 -32.5t118 -105t41 -194.5q0 -121 -41 -194t-118 -105.5t-186 -32.5zM360 195
q53 0 75.5 28.5t22.5 98.5t-22.5 98.5t-75.5 28.5t-75.5 -28.5t-22.5 -98.5t22.5 -98.5t75.5 -28.5z" />
    <glyph glyph-name="uni1ED3" unicode="&#x1ed3;" horiz-adv-x="627" 
d="M5 654l-83 172h176l75 -172h-168zM71 522l158 168h175l158 -168h-193l-53 76l-56 -76h-189zM313 -10q-151 0 -224.5 62t-73.5 185t73.5 185t224.5 62q299 0 299 -247t-299 -247zM313 163q26 0 39 16t13 58t-13 58t-39 16q-25 0 -38 -16t-13 -58t13 -58t38 -16z" />
    <glyph glyph-name="uni1ED4" unicode="&#x1ed4;" horiz-adv-x="720" 
d="M507 797v80q38 2 51 8t13 15q0 15 -34 15q-13 0 -25.5 -3t-22.5 -7v92q20 5 49.5 8.5t66.5 3.5q62 0 95.5 -27t33.5 -65q0 -34 -17 -58t-53 -31v-31h-157zM107 688l158 168h175l158 -168h-189l-56 76l-53 -76h-193zM360 -10q-109 0 -186 32.5t-118 105.5t-41 194
q0 122 41 194.5t118 105t186 32.5t186 -32.5t118 -105t41 -194.5q0 -121 -41 -194t-118 -105.5t-186 -32.5zM360 195q53 0 75.5 28.5t22.5 98.5t-22.5 98.5t-75.5 28.5t-75.5 -28.5t-22.5 -98.5t22.5 -98.5t75.5 -28.5z" />
    <glyph glyph-name="uni1ED5" unicode="&#x1ed5;" horiz-adv-x="627" 
d="M467 631v80q38 2 51 8t13 15q0 15 -34 15q-13 0 -25.5 -3t-22.5 -7v92q20 5 49.5 8.5t66.5 3.5q62 0 95.5 -27t33.5 -65q0 -34 -17 -58t-53 -31v-31h-157zM67 522l158 168h175l158 -168h-189l-56 76l-53 -76h-193zM313 -10q-151 0 -224.5 62t-73.5 185t73.5 185t224.5 62
q299 0 299 -247t-299 -247zM313 163q26 0 39 16t13 58t-13 58t-39 16q-25 0 -38 -16t-13 -58t13 -58t38 -16z" />
    <glyph glyph-name="uni1ED6" unicode="&#x1ed6;" horiz-adv-x="720" 
d="M453 871q-34 0 -67 10.5t-64 21t-61 10.5q-33 0 -58 -11t-42 -28v135q14 13 40.5 23t56.5 10q35 0 66.5 -10.5t62.5 -21t63 -10.5q33 0 58 11.5t36 27.5v-135q-9 -13 -35 -23t-56 -10zM107 688l158 168h175l158 -168h-189l-56 76l-53 -76h-193zM360 -10q-109 0 -186 32.5
t-118 105.5t-41 194q0 122 41 194.5t118 105t186 32.5t186 -32.5t118 -105t41 -194.5q0 -121 -41 -194t-118 -105.5t-186 -32.5zM360 195q53 0 75.5 28.5t22.5 98.5t-22.5 98.5t-75.5 28.5t-75.5 -28.5t-22.5 -98.5t22.5 -98.5t75.5 -28.5z" />
    <glyph glyph-name="uni1ED7" unicode="&#x1ed7;" horiz-adv-x="627" 
d="M408 705q-34 0 -67 10.5t-64 21t-61 10.5q-33 0 -58 -11t-42 -28v135q14 13 40.5 23t56.5 10q35 0 66.5 -10.5t62.5 -21t63 -10.5q33 0 58 11.5t36 27.5v-135q-9 -13 -35 -23t-56 -10zM67 522l158 168h175l158 -168h-189l-56 76l-53 -76h-193zM313 -10q-151 0 -224.5 62
t-73.5 185t73.5 185t224.5 62q299 0 299 -247t-299 -247zM313 163q26 0 39 16t13 58t-13 58t-39 16q-25 0 -38 -16t-13 -58t13 -58t38 -16z" />
    <glyph glyph-name="uni1ED8" unicode="&#x1ed8;" horiz-adv-x="720" 
d="M115 688l175 216h141l175 -216h-168l-77 107l-73 -107h-173zM360 -10q-109 0 -186 32.5t-118 105.5t-41 194q0 122 41 194.5t118 105t186 32.5t186 -32.5t118 -105t41 -194.5q0 -121 -41 -194t-118 -105.5t-186 -32.5zM360 195q53 0 75.5 28.5t22.5 98.5t-22.5 98.5
t-75.5 28.5t-75.5 -28.5t-22.5 -98.5t22.5 -98.5t75.5 -28.5zM283 -213v141h156v-141h-156z" />
    <glyph glyph-name="uni1ED9" unicode="&#x1ed9;" horiz-adv-x="627" 
d="M68 522l175 216h141l175 -216h-168l-77 107l-73 -107h-173zM313 -10q-151 0 -224.5 62t-73.5 185t73.5 185t224.5 62q299 0 299 -247t-299 -247zM313 163q26 0 39 16t13 58t-13 58t-39 16q-25 0 -38 -16t-13 -58t13 -58t38 -16zM236 -213v141h156v-141h-156z" />
    <glyph glyph-name="uni1EDA" unicode="&#x1eda;" horiz-adv-x="821" 
d="M278 688l96 226h186l-105 -226h-177zM360 -10q-109 0 -186 32.5t-118 105.5t-41 194q0 122 41 194.5t118 105t186 32.5q69 0 125.5 -12.5t99.5 -40.5q44 4 58 22.5t14 64.5h169q0 -103 -31.5 -157t-107.5 -73q18 -57 18 -136q0 -121 -41 -194t-118 -105.5t-186 -32.5z
M360 195q53 0 75.5 28.5t22.5 98.5t-22.5 98.5t-75.5 28.5t-75.5 -28.5t-22.5 -98.5t22.5 -98.5t75.5 -28.5z" />
    <glyph glyph-name="uni1EDB" unicode="&#x1edb;" horiz-adv-x="767" 
d="M223 522l96 226h186l-105 -226h-177zM313 -10q-151 0 -224.5 62t-73.5 185t73.5 185t224.5 62q128 0 201 -45q56 0 72.5 23.5t16.5 73.5h169q0 -111 -37.5 -169t-126.5 -75q2 -13 3 -27t1 -28q0 -247 -299 -247zM313 163q26 0 39 16t13 58t-13 58t-39 16q-25 0 -38 -16
t-13 -58t13 -58t38 -16z" />
    <glyph glyph-name="uni1EDC" unicode="&#x1edc;" horiz-adv-x="821" 
d="M291 688l-105 226h186l96 -226h-177zM360 -10q-109 0 -186 32.5t-118 105.5t-41 194q0 122 41 194.5t118 105t186 32.5q69 0 125.5 -12.5t99.5 -40.5q44 4 58 22.5t14 64.5h169q0 -103 -31.5 -157t-107.5 -73q18 -57 18 -136q0 -121 -41 -194t-118 -105.5t-186 -32.5z
M360 195q53 0 75.5 28.5t22.5 98.5t-22.5 98.5t-75.5 28.5t-75.5 -28.5t-22.5 -98.5t22.5 -98.5t75.5 -28.5z" />
    <glyph glyph-name="uni1EDD" unicode="&#x1edd;" horiz-adv-x="767" 
d="M233 522l-105 226h186l96 -226h-177zM313 -10q-151 0 -224.5 62t-73.5 185t73.5 185t224.5 62q128 0 201 -45q56 0 72.5 23.5t16.5 73.5h169q0 -111 -37.5 -169t-126.5 -75q2 -13 3 -27t1 -28q0 -247 -299 -247zM313 163q26 0 39 16t13 58t-13 58t-39 16q-25 0 -38 -16
t-13 -58t13 -58t38 -16z" />
    <glyph glyph-name="uni1EDE" unicode="&#x1ede;" horiz-adv-x="821" 
d="M268 688v81q49 3 67 13.5t18 25.5q0 28 -50 28q-31 0 -56 -10v94q24 7 55.5 11t74.5 4q73 0 112 -31t39 -76t-19 -67.5t-63 -36.5v-36h-178zM360 -10q-109 0 -186 32.5t-118 105.5t-41 194q0 122 41 194.5t118 105t186 32.5q69 0 125.5 -12.5t99.5 -40.5q44 4 58 22.5
t14 64.5h169q0 -103 -31.5 -157t-107.5 -73q18 -57 18 -136q0 -121 -41 -194t-118 -105.5t-186 -32.5zM360 195q53 0 75.5 28.5t22.5 98.5t-22.5 98.5t-75.5 28.5t-75.5 -28.5t-22.5 -98.5t22.5 -98.5t75.5 -28.5z" />
    <glyph glyph-name="uni1EDF" unicode="&#x1edf;" horiz-adv-x="767" 
d="M221 522v81q49 3 67 13.5t18 25.5q0 28 -50 28q-31 0 -56 -10v94q24 7 55.5 11t74.5 4q73 0 112 -31t39 -76t-19 -67.5t-63 -36.5v-36h-178zM313 -10q-151 0 -224.5 62t-73.5 185t73.5 185t224.5 62q128 0 201 -45q56 0 72.5 23.5t16.5 73.5h169q0 -111 -37.5 -169
t-126.5 -75q2 -13 3 -27t1 -28q0 -247 -299 -247zM313 163q26 0 39 16t13 58t-13 58t-39 16q-25 0 -38 -16t-13 -58t13 -58t38 -16z" />
    <glyph glyph-name="uni1EE0" unicode="&#x1ee0;" horiz-adv-x="821" 
d="M468 688q-36 0 -70.5 11t-67 22t-63.5 11q-34 0 -60.5 -11.5t-44.5 -29.5v141q15 14 43 24.5t59 10.5q37 0 69.5 -11l65 -22t66.5 -11q35 0 60.5 12.5t37.5 28.5v-141q-10 -13 -36.5 -24t-58.5 -11zM360 -10q-109 0 -186 32.5t-118 105.5t-41 194q0 122 41 194.5t118 105
t186 32.5q69 0 125.5 -12.5t99.5 -40.5q44 4 58 22.5t14 64.5h169q0 -103 -31.5 -157t-107.5 -73q18 -57 18 -136q0 -121 -41 -194t-118 -105.5t-186 -32.5zM360 195q53 0 75.5 28.5t22.5 98.5t-22.5 98.5t-75.5 28.5t-75.5 -28.5t-22.5 -98.5t22.5 -98.5t75.5 -28.5z" />
    <glyph glyph-name="uni1EE1" unicode="&#x1ee1;" horiz-adv-x="767" 
d="M426 522q-36 0 -70.5 11t-67 22t-63.5 11q-34 0 -60.5 -11.5t-44.5 -29.5v141q15 14 43 24.5t59 10.5q37 0 69.5 -11l65 -22t66.5 -11q35 0 60.5 12.5t37.5 28.5v-141q-10 -13 -36.5 -24t-58.5 -11zM313 -10q-151 0 -224.5 62t-73.5 185t73.5 185t224.5 62q128 0 201 -45
q56 0 72.5 23.5t16.5 73.5h169q0 -111 -37.5 -169t-126.5 -75q2 -13 3 -27t1 -28q0 -247 -299 -247zM313 163q26 0 39 16t13 58t-13 58t-39 16q-25 0 -38 -16t-13 -58t13 -58t38 -16z" />
    <glyph glyph-name="uni1EE2" unicode="&#x1ee2;" horiz-adv-x="821" 
d="M360 -10q-109 0 -186 32.5t-118 105.5t-41 194q0 122 41 194.5t118 105t186 32.5q69 0 125.5 -12.5t99.5 -40.5q44 4 58 22.5t14 64.5h169q0 -103 -31.5 -157t-107.5 -73q18 -57 18 -136q0 -121 -41 -194t-118 -105.5t-186 -32.5zM360 195q53 0 75.5 28.5t22.5 98.5
t-22.5 98.5t-75.5 28.5t-75.5 -28.5t-22.5 -98.5t22.5 -98.5t75.5 -28.5zM284 -213v141h156v-141h-156z" />
    <glyph glyph-name="uni1EE3" unicode="&#x1ee3;" horiz-adv-x="767" 
d="M313 -10q-151 0 -224.5 62t-73.5 185t73.5 185t224.5 62q128 0 201 -45q56 0 72.5 23.5t16.5 73.5h169q0 -111 -37.5 -169t-126.5 -75q2 -13 3 -27t1 -28q0 -247 -299 -247zM313 163q26 0 39 16t13 58t-13 58t-39 16q-25 0 -38 -16t-13 -58t13 -58t38 -16zM234 -213v141
h156v-141h-156z" />
    <glyph glyph-name="uni1EE4" unicode="&#x1ee4;" horiz-adv-x="704" 
d="M352 -10q-91 0 -164 30t-115.5 89t-42.5 145v390h242v-359q0 -90 80 -90t80 90v359h242v-390q0 -86 -42.5 -145t-115.5 -89t-164 -30zM274 -213v141h156v-141h-156z" />
    <glyph glyph-name="uni1EE5" unicode="&#x1ee5;" horiz-adv-x="626" 
d="M204 -10q-80 0 -127 47t-47 137v300h242v-274q0 -32 33 -32q11 0 24 6t20 14v286h242v-474h-227l-5 27q-26 -16 -66.5 -26.5t-88.5 -10.5zM231 -213v141h156v-141h-156z" />
    <glyph glyph-name="uni1EE6" unicode="&#x1ee6;" horiz-adv-x="704" 
d="M263 687v81q49 3 67 13.5t18 25.5q0 28 -50 28q-31 0 -56 -10v94q24 7 55.5 11t74.5 4q73 0 112 -31t39 -76t-19 -67.5t-63 -36.5v-36h-178zM352 -10q-91 0 -164 30t-115.5 89t-42.5 145v390h242v-359q0 -90 80 -90t80 90v359h242v-390q0 -86 -42.5 -145t-115.5 -89
t-164 -30z" />
    <glyph glyph-name="uni1EE7" unicode="&#x1ee7;" horiz-adv-x="626" 
d="M224 522v81q49 3 67 13.5t18 25.5q0 28 -50 28q-31 0 -56 -10v94q24 7 55.5 11t74.5 4q73 0 112 -31t39 -76t-19 -67.5t-63 -36.5v-36h-178zM204 -10q-80 0 -127 47t-47 137v300h242v-274q0 -32 33 -32q11 0 24 6t20 14v286h242v-474h-227l-5 27q-26 -16 -66.5 -26.5
t-88.5 -10.5z" />
    <glyph glyph-name="uni1EE8" unicode="&#x1ee8;" horiz-adv-x="890" 
d="M266 688l96 226h186l-105 -226h-177zM352 -10q-91 0 -164 30t-115.5 89t-42.5 145v390h242v-359q0 -90 80 -90t80 90v359h242v-43q44 3 58 22t14 65h169q0 -88 -25 -140t-78 -75.5t-138 -25.5v-193q0 -86 -42.5 -145t-115.5 -89t-164 -30z" />
    <glyph glyph-name="uni1EE9" unicode="&#x1ee9;" horiz-adv-x="807" 
d="M217 522l96 226h186l-105 -226h-177zM204 -10q-80 0 -127 47t-47 137v300h242v-274q0 -32 33 -32q11 0 24 6t20 14v286h242v-33q42 2 52 24t10 71h169q0 -86 -22.5 -139t-73 -79t-135.5 -33v-285h-227l-5 27q-26 -16 -66.5 -26.5t-88.5 -10.5z" />
    <glyph glyph-name="uni1EEA" unicode="&#x1eea;" horiz-adv-x="890" 
d="M272 688l-105 226h186l96 -226h-177zM352 -10q-91 0 -164 30t-115.5 89t-42.5 145v390h242v-359q0 -90 80 -90t80 90v359h242v-43q44 3 58 22t14 65h169q0 -88 -25 -140t-78 -75.5t-138 -25.5v-193q0 -86 -42.5 -145t-115.5 -89t-164 -30z" />
    <glyph glyph-name="uni1EEB" unicode="&#x1eeb;" horiz-adv-x="807" 
d="M226 522l-105 226h186l96 -226h-177zM204 -10q-80 0 -127 47t-47 137v300h242v-274q0 -32 33 -32q11 0 24 6t20 14v286h242v-33q42 2 52 24t10 71h169q0 -86 -22.5 -139t-73 -79t-135.5 -33v-285h-227l-5 27q-26 -16 -66.5 -26.5t-88.5 -10.5z" />
    <glyph glyph-name="uni1EEC" unicode="&#x1eec;" horiz-adv-x="890" 
d="M265 688v81q49 3 67 13.5t18 25.5q0 28 -50 28q-31 0 -56 -10v94q24 7 55.5 11t74.5 4q73 0 112 -31t39 -76t-19 -67.5t-63 -36.5v-36h-178zM352 -10q-91 0 -164 30t-115.5 89t-42.5 145v390h242v-359q0 -90 80 -90t80 90v359h242v-43q44 3 58 22t14 65h169
q0 -88 -25 -140t-78 -75.5t-138 -25.5v-193q0 -86 -42.5 -145t-115.5 -89t-164 -30z" />
    <glyph glyph-name="uni1EED" unicode="&#x1eed;" horiz-adv-x="807" 
d="M224 522v81q49 3 67 13.5t18 25.5q0 28 -50 28q-31 0 -56 -10v94q24 7 55.5 11t74.5 4q73 0 112 -31t39 -76t-19 -67.5t-63 -36.5v-36h-178zM204 -10q-80 0 -127 47t-47 137v300h242v-274q0 -32 33 -32q11 0 24 6t20 14v286h242v-33q42 2 52 24t10 71h169
q0 -86 -22.5 -139t-73 -79t-135.5 -33v-285h-227l-5 27q-26 -16 -66.5 -26.5t-88.5 -10.5z" />
    <glyph glyph-name="uni1EEE" unicode="&#x1eee;" horiz-adv-x="890" 
d="M463 688q-36 0 -70.5 11t-67 22t-63.5 11q-34 0 -60.5 -11.5t-44.5 -29.5v141q15 14 43 24.5t59 10.5q37 0 69.5 -11l65 -22t66.5 -11q35 0 60.5 12.5t37.5 28.5v-141q-10 -13 -36.5 -24t-58.5 -11zM352 -10q-91 0 -164 30t-115.5 89t-42.5 145v390h242v-359
q0 -90 80 -90t80 90v359h242v-43q44 3 58 22t14 65h169q0 -88 -25 -140t-78 -75.5t-138 -25.5v-193q0 -86 -42.5 -145t-115.5 -89t-164 -30z" />
    <glyph glyph-name="uni1EEF" unicode="&#x1eef;" horiz-adv-x="807" 
d="M417 522q-36 0 -70.5 11t-67 22t-63.5 11q-34 0 -60.5 -11.5t-44.5 -29.5v141q15 14 43 24.5t59 10.5q37 0 69.5 -11l65 -22t66.5 -11q35 0 60.5 12.5t37.5 28.5v-141q-10 -13 -36.5 -24t-58.5 -11zM204 -10q-80 0 -127 47t-47 137v300h242v-274q0 -32 33 -32q11 0 24 6
t20 14v286h242v-33q42 2 52 24t10 71h169q0 -86 -22.5 -139t-73 -79t-135.5 -33v-285h-227l-5 27q-26 -16 -66.5 -26.5t-88.5 -10.5z" />
    <glyph glyph-name="uni1EF0" unicode="&#x1ef0;" horiz-adv-x="890" 
d="M352 -10q-91 0 -164 30t-115.5 89t-42.5 145v390h242v-359q0 -90 80 -90t80 90v359h242v-43q44 3 58 22t14 65h169q0 -88 -25 -140t-78 -75.5t-138 -25.5v-193q0 -86 -42.5 -145t-115.5 -89t-164 -30zM276 -213v141h156v-141h-156z" />
    <glyph glyph-name="uni1EF1" unicode="&#x1ef1;" horiz-adv-x="807" 
d="M204 -10q-80 0 -127 47t-47 137v300h242v-274q0 -32 33 -32q11 0 24 6t20 14v286h242v-33q42 2 52 24t10 71h169q0 -86 -22.5 -139t-73 -79t-135.5 -33v-285h-227l-5 27q-26 -16 -66.5 -26.5t-88.5 -10.5zM234 -213v141h156v-141h-156z" />
    <glyph glyph-name="Ygrave" unicode="&#x1ef2;" horiz-adv-x="738" 
d="M284 688l-105 226h186l96 -226h-177zM248 0v234l-233 410h252l102 -205l102 205h252l-233 -410v-234h-242z" />
    <glyph glyph-name="ygrave" unicode="&#x1ef3;" horiz-adv-x="677" 
d="M260 522l-105 226h186l96 -226h-177zM229 -176q-49 0 -79.5 5t-61.5 18v154q29 -10 60 -10q30 0 50 4.5t34 19.5l-217 459h253l83 -236l79 236h252l-163 -417q-43 -109 -112 -171t-178 -62z" />
    <glyph glyph-name="uni1EF4" unicode="&#x1ef4;" horiz-adv-x="738" 
d="M248 0v234l-233 410h252l102 -205l102 205h252l-233 -410v-234h-242zM291 -213v141h156v-141h-156z" />
    <glyph glyph-name="uni1EF5" unicode="&#x1ef5;" horiz-adv-x="677" 
d="M229 -176q-49 0 -79.5 5t-61.5 18v154q29 -10 60 -10q30 0 50 4.5t34 19.5l-217 459h253l83 -236l79 236h252l-163 -417q-43 -109 -112 -171t-178 -62zM489 -213v141h156v-141h-156z" />
    <glyph glyph-name="uni1EF6" unicode="&#x1ef6;" horiz-adv-x="738" 
d="M282 687v81q49 3 67 13.5t18 25.5q0 28 -50 28q-31 0 -56 -10v94q24 7 55.5 11t74.5 4q73 0 112 -31t39 -76t-19 -67.5t-63 -36.5v-36h-178zM248 0v234l-233 410h252l102 -205l102 205h252l-233 -410v-234h-242z" />
    <glyph glyph-name="uni1EF7" unicode="&#x1ef7;" horiz-adv-x="677" 
d="M266 522v81q49 3 67 13.5t18 25.5q0 28 -50 28q-31 0 -56 -10v94q24 7 55.5 11t74.5 4q73 0 112 -31t39 -76t-19 -67.5t-63 -36.5v-36h-178zM229 -176q-49 0 -79.5 5t-61.5 18v154q29 -10 60 -10q30 0 50 4.5t34 19.5l-217 459h253l83 -236l79 236h252l-163 -417
q-43 -109 -112 -171t-178 -62z" />
    <glyph glyph-name="uni1EF8" unicode="&#x1ef8;" horiz-adv-x="738" 
d="M475 693q-36 0 -70.5 11t-67 22t-63.5 11q-34 0 -60.5 -11.5t-44.5 -29.5v141q15 14 43 24.5t59 10.5q37 0 69.5 -11l65 -22t66.5 -11q35 0 60.5 12.5t37.5 28.5v-141q-10 -13 -36.5 -24t-58.5 -11zM248 0v234l-233 410h252l102 -205l102 205h252l-233 -410v-234h-242z
" />
    <glyph glyph-name="uni1EF9" unicode="&#x1ef9;" horiz-adv-x="677" 
d="M457 527q-36 0 -70.5 11t-67 22t-63.5 11q-34 0 -60.5 -11.5t-44.5 -29.5v141q15 14 43 24.5t59 10.5q37 0 69.5 -11l65 -22t66.5 -11q35 0 60.5 12.5t37.5 28.5v-141q-10 -13 -36.5 -24t-58.5 -11zM229 -176q-49 0 -79.5 5t-61.5 18v154q29 -10 60 -10q30 0 50 4.5
t34 19.5l-217 459h253l83 -236l79 236h252l-163 -417q-43 -109 -112 -171t-178 -62z" />
    <glyph glyph-name="uni2007" unicode="&#x2007;" horiz-adv-x="680" 
 />
    <glyph glyph-name="uni2010" unicode="&#x2010;" horiz-adv-x="477" 
d="M15 205v184h447v-184h-447z" />
    <glyph glyph-name="figuredash" unicode="&#x2012;" horiz-adv-x="560" 
d="M15 205v184h530v-184h-530z" />
    <glyph glyph-name="endash" unicode="&#x2013;" horiz-adv-x="536" 
d="M15 205v184h506v-184h-506z" />
    <glyph glyph-name="emdash" unicode="&#x2014;" horiz-adv-x="770" 
d="M15 205v184h740v-184h-740z" />
    <glyph glyph-name="uni2015" unicode="&#x2015;" horiz-adv-x="808" 
d="M15 205v184h778v-184h-778z" />
    <glyph glyph-name="quoteleft" unicode="&#x2018;" horiz-adv-x="297" 
d="M15 401l86 253h181l-68 -253h-199z" />
    <glyph glyph-name="quoteright" unicode="&#x2019;" horiz-adv-x="297" 
d="M15 401l68 253h199l-86 -253h-181z" />
    <glyph glyph-name="quotesinglbase" unicode="&#x201a;" horiz-adv-x="297" 
d="M15 -220l68 253h199l-86 -253h-181z" />
    <glyph glyph-name="quotedblleft" unicode="&#x201c;" horiz-adv-x="474" 
d="M212 401l86 253h161l-68 -253h-179zM15 401l86 253h161l-68 -253h-179z" />
    <glyph glyph-name="quotedblright" unicode="&#x201d;" horiz-adv-x="474" 
d="M212 401l68 253h179l-86 -253h-161zM15 401l68 253h179l-86 -253h-161z" />
    <glyph glyph-name="quotedblbase" unicode="&#x201e;" horiz-adv-x="474" 
d="M212 -94l68 253h179l-86 -253h-161zM15 -94l68 253h179l-86 -253h-161z" />
    <glyph glyph-name="dagger" unicode="&#x2020;" horiz-adv-x="563" 
d="M161 0l6 355l-152 -4v180l152 -4l-9 173h247l-9 -173l152 4v-180l-152 4l6 -355h-241z" />
    <glyph glyph-name="daggerdbl" unicode="&#x2021;" horiz-adv-x="563" 
d="M161 0l6 133l-152 -1v174l152 -1l-9 46l9 44l-152 -1v174l152 -1l-9 133h247l-9 -133l152 1v-174l-152 1l9 -44l-9 -46l152 1v-174l-152 1l6 -133h-241z" />
    <glyph glyph-name="bullet" unicode="&#x2022;" horiz-adv-x="317" 
d="M158 144q-40 0 -72.5 19t-51.5 51.5t-19 72.5t19 72.5t51.5 52t72.5 19.5t72.5 -19.5t52 -52t19.5 -72.5t-19.5 -72.5t-52 -51.5t-72.5 -19z" />
    <glyph glyph-name="ellipsis" unicode="&#x2026;" horiz-adv-x="654" 
d="M453 0v169h186v-169h-186zM15 0v169h186v-169h-186zM234 0v169h186v-169h-186z" />
    <glyph glyph-name="perthousand" unicode="&#x2030;" horiz-adv-x="1149" 
d="M175 334q-77 0 -118.5 43t-41.5 110q0 77 41.5 122t118.5 45t118.5 -45t41.5 -122q0 -67 -41.5 -110t-118.5 -43zM123 0l334 644h228l-334 -644h-228zM175 452q38 0 38 40q0 44 -38 44t-38 -44q0 -40 38 -40zM633 -10q-77 0 -118.5 43t-41.5 110q0 77 41.5 122t118.5 45
t118.5 -45t41.5 -122q0 -67 -41.5 -110t-118.5 -43zM974 -10q-77 0 -118.5 43t-41.5 110q0 77 41.5 122t118.5 45t118.5 -45t41.5 -122q0 -67 -41.5 -110t-118.5 -43zM633 108q38 0 38 40q0 44 -38 44t-38 -44q0 -40 38 -40zM974 108q38 0 38 40q0 44 -38 44t-38 -44
q0 -40 38 -40z" />
    <glyph glyph-name="minute" unicode="&#x2032;" horiz-adv-x="224" 
d="M15 395v249h194l-17 -249h-177z" />
    <glyph glyph-name="second" unicode="&#x2033;" horiz-adv-x="449" 
d="M240 395v249h194l-16 -249h-178zM15 395v249h194l-17 -249h-177z" />
    <glyph glyph-name="guilsinglleft" unicode="&#x2039;" horiz-adv-x="398" 
d="M293 37l-278 205v82l278 205l90 -131l-156 -115l156 -115z" />
    <glyph glyph-name="guilsinglright" unicode="&#x203a;" horiz-adv-x="398" 
d="M105 37l-90 131l156 115l-156 115l90 131l278 -205v-82z" />
    <glyph glyph-name="fraction" unicode="&#x2044;" horiz-adv-x="237" 
d="M-165 0l319 662h248l-319 -662h-248z" />
    <glyph glyph-name="uni2070" unicode="&#x2070;" horiz-adv-x="376" 
d="M188 362q-91 0 -132 38t-41 108q0 71 41 108.5t132 37.5t132 -37.5t41 -108.5q0 -70 -41 -108t-132 -38zM188 462q16 0 22 11.5t6 34.5t-6 34.5t-22 11.5t-22 -11.5t-6 -34.5t6 -34.5t22 -11.5z" />
    <glyph glyph-name="uni2074" unicode="&#x2074;" horiz-adv-x="298" 
d="M112 370v34h-117v97l122 153h157v-145h29v-105h-29v-34h-162zM123 500h39v48z" />
    <glyph glyph-name="uni2075" unicode="&#x2075;" horiz-adv-x="308" 
d="M134 362q-30 0 -64.5 4t-54.5 13v88q15 -7 39 -10.5t38 -3.5q35 0 35 19q0 17 -26 17h-85v41l7 114h254l-4 -84h-103l-1 -16h15q56 0 82.5 -20t26.5 -67q0 -41 -36 -68t-123 -27z" />
    <glyph glyph-name="uni2076" unicode="&#x2076;" horiz-adv-x="322" 
d="M161 362q-64 0 -105 30.5t-41 88.5v47q0 54 40 90t122 36q26 0 55 -3t46 -10v-78q-16 8 -39 11t-43 3q-29 0 -45.5 -8.5t-16.5 -17.5v-1q8 6 24.5 9.5t31.5 3.5q117 0 117 -98q0 -51 -38.5 -77t-107.5 -26zM162 435q30 0 30 26q0 13 -6 20t-23 7q-15 0 -29 -8v-15
q0 -30 28 -30z" />
    <glyph glyph-name="uni2077" unicode="&#x2077;" horiz-adv-x="297" 
d="M41 370l70 159h-106v115h287v-79l-86 -195h-165z" />
    <glyph glyph-name="uni2078" unicode="&#x2078;" horiz-adv-x="341" 
d="M170 362q-69 0 -112 23t-43 68q0 17 8 34t21 26q-22 20 -22 51q0 49 40.5 69.5t107.5 20.5q69 0 109 -20.5t40 -69.5q0 -13 -5.5 -27.5t-15.5 -24.5q13 -10 20.5 -25t7.5 -34q0 -45 -43.5 -68t-112.5 -23zM180 539q15 7 15 23q0 19 -25 19q-24 0 -24 -19q0 -16 14 -19z
M170 435q31 0 31 20q0 16 -20 20l-25 5q-16 -5 -16 -22q0 -23 30 -23z" />
    <glyph glyph-name="uni2079" unicode="&#x2079;" horiz-adv-x="322" 
d="M145 362q-25 0 -54.5 3t-46.5 10v78q16 -7 39 -10.5t43 -3.5q29 0 45.5 8.5t16.5 17.5v1q-8 -6 -24.5 -9.5t-31.5 -3.5q-117 0 -117 98q0 51 40 77t109 26q64 0 103.5 -30.5t39.5 -88.5v-47q0 -54 -39.5 -90t-122.5 -36zM159 528q15 0 29 8v15q0 30 -28 30q-30 0 -30 -26
q0 -13 6.5 -20t22.5 -7z" />
    <glyph glyph-name="uni207D" unicode="&#x207d;" horiz-adv-x="238" 
d="M67 352q-25 29 -38.5 69.5t-13.5 92.5q0 53 13.5 93.5t38.5 68.5h156q-34 -33 -48.5 -74t-14.5 -88q0 -46 14.5 -87.5t48.5 -74.5h-156z" />
    <glyph glyph-name="uni207E" unicode="&#x207e;" horiz-adv-x="238" 
d="M15 352q35 33 49 74.5t14 87.5q0 47 -14 88t-49 74h156q25 -28 38.5 -68.5t13.5 -93.5q0 -52 -13.5 -92.5t-38.5 -69.5h-156z" />
    <glyph glyph-name="uni207F" unicode="&#x207f;" horiz-adv-x="345" 
d="M20 386v262h125l2 -14q16 8 41 14t53 6q47 0 68 -25t21 -74v-169h-133v152q0 17 -18 17q-5 0 -13.5 -2.5t-13.5 -7.5v-159h-132z" />
    <glyph glyph-name="uni2080" unicode="&#x2080;" horiz-adv-x="376" 
d="M188 -128q-91 0 -132 38t-41 108q0 71 41 108.5t132 37.5t132 -37.5t41 -108.5q0 -70 -41 -108t-132 -38zM188 -28q16 0 22 11.5t6 34.5t-6 34.5t-22 11.5t-22 -11.5t-6 -34.5t6 -34.5t22 -11.5z" />
    <glyph glyph-name="uni2081" unicode="&#x2081;" horiz-adv-x="232" 
d="M62 -120v123l-47 -10v128l222 43v-284h-175z" />
    <glyph glyph-name="uni2082" unicode="&#x2082;" horiz-adv-x="314" 
d="M15 -120v61q15 17 27.5 27t33.5 24q27 18 33 25t6 17q0 11 -9 14t-23 3q-13 0 -32 -5.5t-33 -13.5v109q22 8 61 15.5t79 7.5q68 0 103.5 -24t35.5 -65q0 -25 -8 -39.5t-23 -27.5l-27 -22h60v-106h-284z" />
    <glyph glyph-name="uni2083" unicode="&#x2083;" horiz-adv-x="319" 
d="M146 -128q-12 0 -38.5 2t-53 6t-39.5 9v85q20 -10 43.5 -14t39.5 -4q37 0 37 15q0 12 -26 12h-51l5 71h44q13 0 18 2t5 9q0 13 -35 13q-44 0 -76 -17v85q13 5 35.5 9t47.5 6.5t44 2.5q80 0 116.5 -25.5t36.5 -61.5q0 -35 -22 -59q13 -7 20 -20t7 -35q0 -46 -40.5 -68.5
t-117.5 -22.5z" />
    <glyph glyph-name="uni2084" unicode="&#x2084;" horiz-adv-x="298" 
d="M112 -120v34h-117v97l122 153h157v-145h29v-105h-29v-34h-162zM123 10h39v48z" />
    <glyph glyph-name="uni2085" unicode="&#x2085;" horiz-adv-x="308" 
d="M134 -128q-30 0 -64.5 4t-54.5 13v88q15 -7 39 -10.5t38 -3.5q35 0 35 19q0 17 -26 17h-85v41l7 114h254l-4 -84h-103l-1 -16h15q56 0 82.5 -20t26.5 -67q0 -41 -36 -68t-123 -27z" />
    <glyph glyph-name="uni2086" unicode="&#x2086;" horiz-adv-x="322" 
d="M161 -128q-64 0 -105 30.5t-41 88.5v47q0 54 40 90t122 36q26 0 55 -3t46 -10v-78q-16 8 -39 11t-43 3q-29 0 -45.5 -8.5t-16.5 -17.5v-1q8 6 24.5 9.5t31.5 3.5q117 0 117 -98q0 -51 -38.5 -77t-107.5 -26zM162 -55q30 0 30 26q0 13 -6 20t-23 7q-15 0 -29 -8v-15
q0 -30 28 -30z" />
    <glyph glyph-name="uni2087" unicode="&#x2087;" horiz-adv-x="297" 
d="M41 -120l70 159h-106v115h287v-79l-86 -195h-165z" />
    <glyph glyph-name="uni2088" unicode="&#x2088;" horiz-adv-x="341" 
d="M170 -128q-69 0 -112 23t-43 68q0 17 8 34t21 26q-22 20 -22 51q0 49 40.5 69.5t107.5 20.5q69 0 109 -20.5t40 -69.5q0 -13 -5.5 -27.5t-15.5 -24.5q13 -10 20.5 -25t7.5 -34q0 -45 -43.5 -68t-112.5 -23zM180 49q15 7 15 23q0 19 -25 19q-24 0 -24 -19q0 -16 14 -19z
M170 -55q31 0 31 20q0 16 -20 20l-25 5q-16 -5 -16 -22q0 -23 30 -23z" />
    <glyph glyph-name="uni2089" unicode="&#x2089;" horiz-adv-x="322" 
d="M145 -128q-25 0 -54.5 3t-46.5 10v78q16 -7 39 -10.5t43 -3.5q29 0 45.5 8.5t16.5 17.5v1q-8 -6 -24.5 -9.5t-31.5 -3.5q-117 0 -117 98q0 51 40 77t109 26q64 0 103.5 -30.5t39.5 -88.5v-47q0 -54 -39.5 -90t-122.5 -36zM159 38q15 0 29 8v15q0 30 -28 30q-30 0 -30 -26
q0 -13 6.5 -20t22.5 -7z" />
    <glyph glyph-name="uni208D" unicode="&#x208d;" horiz-adv-x="238" 
d="M67 -146q-25 29 -38.5 69.5t-13.5 92.5q0 53 13.5 93.5t38.5 68.5h156q-34 -33 -48.5 -74t-14.5 -88q0 -46 14.5 -87.5t48.5 -74.5h-156z" />
    <glyph glyph-name="uni208E" unicode="&#x208e;" horiz-adv-x="238" 
d="M15 -146q35 33 49 74.5t14 87.5q0 47 -14 88t-49 74h156q25 -28 38.5 -68.5t13.5 -93.5q0 -52 -13.5 -92.5t-38.5 -69.5h-156z" />
    <glyph glyph-name="colonmonetary" unicode="&#x20a1;" horiz-adv-x="548" 
d="M33 -31l38 152q-56 68 -56 201q0 116 41 181t124 90l20 78h123l-15 -58q10 0 20 0.5t20 0.5h10l15 57h123l-19 -74q26 -7 54 -18v-211q-47 22 -86 32t-81 10q-48 0 -75 -19t-27 -69t28 -69t76 -19q42 0 81 10t86 32v-211q-46 -16 -87 -25.5t-96 -9.5h-6l-15 -61h-123
l18 71q-26 5 -47 12l-21 -83h-123z" />
    <glyph glyph-name="lira" unicode="&#x20a4;" horiz-adv-x="481" 
d="M15 0v160h23q18 0 25 12.5t8 26.5h-56v94h56v48h-56v94h56v18q0 58 22.5 103t67.5 71.5t112 26.5q46 0 81 -6.5t66 -20.5v-150q-29 10 -60 10q-47 0 -47 -37v-15h103l-5 -94h-98v-48h103l-5 -94h-100q-1 -9 -5 -20.5t-11 -18.5h171v-160h-451z" />
    <glyph glyph-name="uni20A6" unicode="&#x20a6;" horiz-adv-x="717" 
d="M71 0v127h-56v139h56v66h-56v139h56v173h203l130 -252v252h242v-173h56v-139h-56v-66h56v-139h-56v-127h-204l-129 252v-252h-242z" />
    <glyph glyph-name="peseta" unicode="&#x20a7;" horiz-adv-x="1460" 
d="M813 -10q-109 0 -155.5 53t-46.5 143v74h-46q-28 -53 -80 -84.5t-126 -31.5h-82v-144h-242v644h328q74 0 123 -28t76 -75.5t33 -106.5h16v133l242 49v-182h97l-5 -174h-92v-61q0 -42 47 -42q31 0 60 10v-150q-31 -13 -66 -20t-81 -7zM1192 -10q-68 0 -128 10t-92 24v153
q24 -12 56 -21t63.5 -14t52.5 -5q23 0 38.5 1t15.5 10q0 8 -16 13t-40.5 11t-50.5 15q-65 24 -94 54.5t-29 87.5q0 76 63 115.5t193 39.5q32 0 70 -3.5t71.5 -8.5t53.5 -12v-152q-32 14 -69 21.5t-65 7.5q-14 0 -30.5 -0.5t-28 -3t-11.5 -9.5q0 -10 30.5 -15.5t67.5 -16.5
q52 -15 80.5 -33.5t40 -45t11.5 -65.5q0 -73 -64 -115.5t-189 -42.5zM277 333h20q29 0 41.5 16t12.5 44q0 30 -11 46t-39 16h-24v-122z" />
    <glyph glyph-name="dong" unicode="&#x20ab;" horiz-adv-x="631" 
d="M239 -10q-67 0 -117.5 23t-78.5 74t-28 135q0 89 30 147t82.5 86.5t120.5 28.5q26 0 55 -5t48 -13v40h-112v135h112v33h242v-33h33v-135h-33v-506h-210l-11 31q-26 -19 -57.5 -30t-75.5 -11zM309 163q14 0 23 4t19 11v118q-18 15 -42 15q-22 0 -34.5 -22t-12.5 -65
t12.5 -52t34.5 -9zM91 -200v155h503v-155h-503z" />
    <glyph glyph-name="Euro" unicode="&#x20ac;" horiz-adv-x="588" 
d="M410 -10q-148 0 -230.5 56.5t-109.5 154.5h-65v109h50v23h-50v109h64q26 101 107.5 156.5t231.5 55.5q42 0 69 -4t50.5 -12t53.5 -19v-186q-31 15 -54 23t-46.5 11t-56.5 3q-67 0 -98 -28h93v-109h-127v-23h127v-109h-92q30 -27 99 -27q33 0 56.5 3t46.5 11.5t54 22.5
v-186q-30 -11 -53.5 -19t-50.5 -12t-69 -4z" />
    <glyph glyph-name="uni20B1" unicode="&#x20b1;" horiz-adv-x="658" 
d="M51 0v227h-56v143h56v50h-56v143h56v81h332q65 0 112.5 -22t77.5 -59h90v-143h-37q0 -7 0.5 -13.5t0.5 -13.5v-12t-1 -11h37v-143h-93q-33 -39 -81.5 -61t-109.5 -22h-86v-144h-242zM293 333h39q29 0 44 16t15 44q0 62 -55 62h-43v-122z" />
    <glyph glyph-name="uni20B2" unicode="&#x20b2;" horiz-adv-x="663" 
d="M239 -86v94q-109 30 -166.5 109t-57.5 205q0 123 57.5 201.5t166.5 109.5v97h210v-77q47 -2 87 -8.5t78 -19.5v-206q-46 18 -93.5 24.5t-97.5 6.5q-70 0 -115.5 -27.5t-45.5 -100.5t32.5 -100.5t93.5 -27.5q32 0 60 7v39h-107v146h307v-333q-34 -21 -83.5 -38t-115.5 -22
v-79h-210z" />
    <glyph glyph-name="uni20B5" unicode="&#x20b5;" horiz-adv-x="618" 
d="M239 -86v95q-224 62 -224 313t224 313v95h210v-78q43 -4 79.5 -12t72.5 -21v-211q-91 42 -187 42q-70 0 -111 -27.5t-41 -100.5t42 -100.5t112 -27.5q96 0 187 42v-211q-37 -13 -73.5 -21.5t-80.5 -11.5v-78h-210z" />
    <glyph glyph-name="uni20B9" unicode="&#x20b9;" horiz-adv-x="471" 
d="M146 0l-50 113q-11 25 -30 38t-51 13v119h71q29 0 48.5 14t24.5 38h-143v129h143q-15 51 -69 51h-75v129h441v-129h-68q4 -9 6.5 -25.5t4.5 -25.5h57v-129h-57q-11 -40 -38.5 -75t-74.5 -57q21 -12 32 -27t21 -38l59 -138h-252z" />
    <glyph glyph-name="uni20BA" unicode="&#x20ba;" horiz-adv-x="596" 
d="M67 0v252l-52 -17v107l52 17v51l-52 -17v107l52 17v127h227v-52l114 38v-106l-114 -38v-52l114 38v-106l-114 -38v-163q27 8 43.5 31.5t16.5 62.5v67h227v-44q0 -141 -87.5 -211.5t-241.5 -70.5h-185z" />
    <glyph glyph-name="uni20BD" unicode="&#x20bd;" horiz-adv-x="662" 
d="M61 0v44h-46v127h46v46h-46v156h46v271h342q124 0 184 -59t60 -162q0 -70 -32.5 -116t-90 -68t-133.5 -22h-88v-46h77v-127h-77v-44h-242zM303 373h39q59 0 59 55q0 57 -55 57h-43v-112z" />
    <glyph glyph-name="uni210A" unicode="&#x210a;" horiz-adv-x="628" 
d="M234 -176q-16 0 -45.5 1.5t-57.5 4t-42 4.5v157q20 -5 51.5 -9t56.5 -4q72 0 113 8.5t41 28.5v9q-19 -7 -48 -12.5t-55 -5.5q-77 0 -129 20t-78 68.5t-26 132.5q0 85 30.5 142t82 86t114.5 29q44 0 74 -11t56 -30l11 31h210v-402q0 -52 -17.5 -97.5t-58.5 -79t-110 -52.5
t-173 -19zM309 163q24 0 42 15v118q-10 8 -17.5 11.5t-21.5 3.5q-22 0 -36 -18.5t-14 -61.5t12.5 -55.5t34.5 -12.5z" />
    <glyph glyph-name="uni2113" unicode="&#x2113;" horiz-adv-x="469" 
d="M266 -10q-104 0 -156.5 53.5t-52.5 142.5v39l-62 -15v180q18 5 33 8.5t29 10.5v148q0 66 25 108.5t66.5 63.5t89.5 21q103 0 149.5 -50.5t46.5 -137.5q0 -65 -24 -116.5t-64 -89t-89 -61.5v-112q0 -29 27 -29q20 0 23.5 16t3.5 46h163q0 -40 -5.5 -80t-25.5 -73t-62 -53
t-115 -20zM220 483q45 21 45 54q0 13 -4.5 22.5t-17.5 9.5q-23 0 -23 -31v-55z" />
    <glyph glyph-name="uni2117" unicode="&#x2117;" horiz-adv-x="694" 
d="M347 -10q-69 0 -129 26t-105.5 71.5t-71.5 105.5t-26 129t26 129t71.5 105.5t105.5 71.5t129 26t129 -26t105.5 -71.5t71.5 -105.5t26 -129t-26 -129t-71.5 -105.5t-105.5 -71.5t-129 -26zM347 108q59 0 106.5 27t75 75t27.5 112t-27.5 112t-75 75t-106.5 27t-106.5 -27
t-75 -75t-27.5 -112t27.5 -112t75 -75t106.5 -27zM221 166v314h186q60 0 89.5 -33.5t29.5 -83.5q0 -52 -33 -84t-88 -32h-59v-81h-125zM346 339h26q29 0 29 24t-26 24h-29v-48z" />
    <glyph glyph-name="uni2120" unicode="&#x2120;" horiz-adv-x="684" 
d="M149 360q-41 0 -77 6t-55 14v92q21 -11 52.5 -17.5t50.5 -6.5q14 0 23 0.5t9 5.5q0 7 -20 11t-44 13q-39 14 -56 31.5t-17 51.5q0 93 152 93q29 0 63.5 -4.5t52.5 -9.5v-91q-19 8 -41 12.5t-39 4.5q-12 0 -26.5 -0.5t-14.5 -7.5q0 -5 18 -8.5t40 -10.5q47 -13 63 -31.5
t16 -53.5q0 -43 -38 -68.5t-112 -25.5zM313 362v282h120l58 -96l58 96h120v-282h-126v79l-25 -52h-54l-25 52v-79h-126z" />
    <glyph glyph-name="trademark" unicode="&#x2122;" horiz-adv-x="679" 
d="M308 362v282h120l58 -96l58 96h120v-282h-126v79l-25 -52h-54l-25 52v-79h-126zM83 362v157h-68v125h275v-125h-68v-157h-139z" />
    <glyph glyph-name="uni2126" unicode="&#x2126;" horiz-adv-x="744" 
d="M22 0v175h83q-90 73 -90 196q0 154 91.5 239t265.5 85t265.5 -85t91.5 -239q0 -60 -20.5 -110.5t-69.5 -85.5h83v-175h-331v183q51 32 71 75t20 98q0 65 -26 99.5t-84 34.5t-84 -34.5t-26 -99.5q0 -55 20 -98t71 -75v-183h-331z" />
    <glyph glyph-name="estimated" unicode="&#x212e;" horiz-adv-x="747" 
d="M374 -15q-78 0 -143.5 27t-114 75.5t-75 113t-26.5 139.5q0 87 29 153t79.5 111t115 68t135.5 23t135.5 -24.5t114.5 -69.5t79 -106.5t29 -136.5v-18h-570v-219q29 -37 84.5 -63.5t127.5 -26.5q63 0 107 10.5t79 36t72 68.5h54q-59 -92 -134.5 -126.5t-177.5 -34.5z
M162 389h424v180q-29 34 -84.5 57t-129.5 23q-67 0 -119.5 -21t-90.5 -58v-181z" />
    <glyph glyph-name="uni2153" unicode="&#x2153;" horiz-adv-x="752" 
d="M62 370v123l-47 -10v128l222 43v-284h-175zM71 0l334 644h228l-334 -644h-228zM579 -10q-12 0 -38.5 2t-53 6t-39.5 9v85q20 -10 43.5 -14t39.5 -4q37 0 37 15q0 12 -26 12h-51l5 71h44q13 0 18 2t5 9q0 13 -35 13q-44 0 -76 -17v85q13 5 35.5 9t47.5 6.5t44 2.5
q80 0 116.5 -25.5t36.5 -61.5q0 -35 -22 -59q13 -7 20 -20t7 -35q0 -46 -40.5 -68.5t-117.5 -22.5z" />
    <glyph glyph-name="uni2154" unicode="&#x2154;" horiz-adv-x="809" 
d="M15 370v61q15 17 27.5 27t33.5 24q27 18 33 25t6 17q0 11 -9 14t-23 3q-13 0 -32 -5.5t-33 -13.5v109q22 8 61 15.5t79 7.5q68 0 103.5 -24t35.5 -65q0 -25 -8 -39.5t-23 -27.5l-27 -22h60v-106h-284zM128 0l334 644h228l-334 -644h-228zM636 -10q-12 0 -38.5 2t-53 6
t-39.5 9v85q20 -10 43.5 -14t39.5 -4q37 0 37 15q0 12 -26 12h-51l5 71h44q13 0 18 2t5 9q0 13 -35 13q-44 0 -76 -17v85q13 5 35.5 9t47.5 6.5t44 2.5q80 0 116.5 -25.5t36.5 -61.5q0 -35 -22 -59q13 -7 20 -20t7 -35q0 -46 -40.5 -68.5t-117.5 -22.5z" />
    <glyph glyph-name="oneeighth" unicode="&#x215b;" horiz-adv-x="749" 
d="M62 370v123l-47 -10v128l222 43v-284h-175zM71 0l334 644h228l-334 -644h-228zM578 -10q-69 0 -112 23t-43 68q0 17 8 34t21 26q-22 20 -22 51q0 49 40.5 69.5t107.5 20.5q69 0 109 -20.5t40 -69.5q0 -13 -5.5 -27.5t-15.5 -24.5q13 -10 20.5 -25t7.5 -34
q0 -45 -43.5 -68t-112.5 -23zM588 167q15 7 15 23q0 19 -25 19q-24 0 -24 -19q0 -16 14 -19zM578 63q31 0 31 20q0 16 -20 20l-25 5q-16 -5 -16 -22q0 -23 30 -23z" />
    <glyph glyph-name="threeeighths" unicode="&#x215c;" horiz-adv-x="776" 
d="M146 362q-12 0 -38.5 2t-53 6t-39.5 9v85q20 -10 43.5 -14t39.5 -4q37 0 37 15q0 12 -26 12h-51l5 71h44q13 0 18 2t5 9q0 13 -35 13q-44 0 -76 -17v85q13 5 35.5 9t47.5 6.5t44 2.5q80 0 116.5 -25.5t36.5 -61.5q0 -35 -22 -59q13 -7 20 -20t7 -35q0 -46 -40.5 -68.5
t-117.5 -22.5zM98 0l334 644h228l-334 -644h-228zM605 -10q-69 0 -112 23t-43 68q0 17 8 34t21 26q-22 20 -22 51q0 49 40.5 69.5t107.5 20.5q69 0 109 -20.5t40 -69.5q0 -13 -5.5 -27.5t-15.5 -24.5q13 -10 20.5 -25t7.5 -34q0 -45 -43.5 -68t-112.5 -23zM615 167
q15 7 15 23q0 19 -25 19q-24 0 -24 -19q0 -16 14 -19zM605 63q31 0 31 20q0 16 -20 20l-25 5q-16 -5 -16 -22q0 -23 30 -23z" />
    <glyph glyph-name="fiveeighths" unicode="&#x215d;" horiz-adv-x="757" 
d="M79 0l334 644h228l-334 -644h-228zM134 362q-30 0 -64.5 4t-54.5 13v88q15 -7 39 -10.5t38 -3.5q35 0 35 19q0 17 -26 17h-85v41l7 114h254l-4 -84h-103l-1 -16h15q56 0 82.5 -20t26.5 -67q0 -41 -36 -68t-123 -27zM586 -10q-69 0 -112 23t-43 68q0 17 8 34t21 26
q-22 20 -22 51q0 49 40.5 69.5t107.5 20.5q69 0 109 -20.5t40 -69.5q0 -13 -5.5 -27.5t-15.5 -24.5q13 -10 20.5 -25t7.5 -34q0 -45 -43.5 -68t-112.5 -23zM596 167q15 7 15 23q0 19 -25 19q-24 0 -24 -19q0 -16 14 -19zM586 63q31 0 31 20q0 16 -20 20l-25 5
q-16 -5 -16 -22q0 -23 30 -23z" />
    <glyph glyph-name="seveneighths" unicode="&#x215e;" horiz-adv-x="748" 
d="M70 0l334 644h228l-334 -644h-228zM51 370l70 159h-106v115h287v-79l-86 -195h-165zM577 -10q-69 0 -112 23t-43 68q0 17 8 34t21 26q-22 20 -22 51q0 49 40.5 69.5t107.5 20.5q69 0 109 -20.5t40 -69.5q0 -13 -5.5 -27.5t-15.5 -24.5q13 -10 20.5 -25t7.5 -34
q0 -45 -43.5 -68t-112.5 -23zM587 167q15 7 15 23q0 19 -25 19q-24 0 -24 -19q0 -16 14 -19zM577 63q31 0 31 20q0 16 -20 20l-25 5q-16 -5 -16 -22q0 -23 30 -23z" />
    <glyph glyph-name="arrowleft" unicode="&#x2190;" horiz-adv-x="692" 
d="M277 29l-262 209v58l262 210l68 -92l-89 -70h421v-154h-421l89 -69z" />
    <glyph glyph-name="arrowup" unicode="&#x2191;" horiz-adv-x="507" 
d="M176 -34v421l-69 -89l-92 68l209 262h58l210 -262l-92 -68l-70 89v-421h-154z" />
    <glyph glyph-name="arrowright" unicode="&#x2192;" horiz-adv-x="692" 
d="M415 29l-68 92l89 69h-421v154h421l-89 70l68 92l262 -210v-58z" />
    <glyph glyph-name="arrowdown" unicode="&#x2193;" horiz-adv-x="507" 
d="M224 -56l-209 262l92 68l69 -89v421h154v-421l70 89l92 -68l-210 -262h-58z" />
    <glyph glyph-name="partialdiff" unicode="&#x2202;" horiz-adv-x="648" 
d="M257 -10q-98 0 -154.5 32.5t-75.5 86t-5 115.5q24 106 90 161t189 55q30 0 62.5 -7t48.5 -18l1 6q3 15 -5.5 28.5t-33.5 22t-74 8.5q-45 0 -84.5 -7t-80.5 -24l37 175q45 17 90 23.5t102 6.5q77 0 132 -24t88 -64.5t43.5 -91.5t-0.5 -105l-23 -110q-28 -131 -111 -200
t-236 -69zM291 156q33 0 52.5 15.5t27.5 53.5l7 32q-16 8 -31.5 13t-32.5 5q-37 0 -55 -15.5t-24 -44.5q-7 -31 4.5 -45t51.5 -14z" />
    <glyph glyph-name="product" unicode="&#x220f;" horiz-adv-x="646" 
d="M35 -129v835h576v-835h-242v611h-92v-611h-242z" />
    <glyph glyph-name="summation" unicode="&#x2211;" horiz-adv-x="545" 
d="M15 -120v135l187 248l-187 245v136h515v-184h-204l151 -197l-151 -199h204v-184h-515z" />
    <glyph glyph-name="minus" unicode="&#x2212;" horiz-adv-x="434" 
d="M15 205v184h404v-184h-404z" />
    <glyph glyph-name="uni2215" unicode="&#x2215;" horiz-adv-x="597" 
d="M15 0l319 662h248l-319 -662h-248z" />
    <glyph glyph-name="uni2219" unicode="&#x2219;" horiz-adv-x="216" 
d="M15 203v169h186v-169h-186z" />
    <glyph glyph-name="radical" unicode="&#x221a;" horiz-adv-x="743" 
d="M228 0l-109 280h-104v184h270l57 -187l145 437h241l-251 -714h-249z" />
    <glyph glyph-name="infinity" unicode="&#x221e;" horiz-adv-x="654" 
d="M196 102q-80 0 -130.5 43.5t-50.5 134.5t50.5 134.5t130.5 43.5q40 0 74.5 -14.5t56.5 -36.5q23 22 57 36.5t74 14.5q80 0 130.5 -43.5t50.5 -134.5t-50.5 -134.5t-130.5 -43.5q-40 0 -74 14t-57 36q-22 -22 -56.5 -36t-74.5 -14zM207 252q24 0 44 26q-19 30 -44 30
q-28 0 -28 -28t28 -28zM447 252q28 0 28 28t-28 28q-25 0 -44 -30q20 -26 44 -26z" />
    <glyph glyph-name="integral" unicode="&#x222b;" horiz-adv-x="446" 
d="M142 -151q-46 0 -80.5 7t-66.5 20v150q29 -10 60 -10q47 0 47 40v433q0 58 22.5 103t67.5 71.5t112 26.5q46 0 81 -6.5t66 -20.5v-150q-29 10 -60 10q-47 0 -47 -40v-433q0 -57 -22.5 -102.5t-67 -72t-112.5 -26.5z" />
    <glyph glyph-name="approxequal" unicode="&#x2248;" horiz-adv-x="434" 
d="M314 288q-35 0 -64.5 13.5t-60 26.5t-68.5 13q-31 0 -57 -7t-49 -29v166q18 16 47 23t59 7q40 0 72 -13t63 -26.5t67 -13.5q28 0 50.5 7t45.5 29v-168q-18 -16 -46.5 -22t-58.5 -6zM314 86q-35 0 -64.5 13.5t-60 26.5t-68.5 13q-31 0 -57 -7t-49 -29v166q18 16 47 23
t59 7q40 0 72 -13t63 -26.5t67 -13.5q28 0 50.5 7t45.5 29v-168q-18 -16 -46.5 -22t-58.5 -6z" />
    <glyph glyph-name="notequal" unicode="&#x2260;" horiz-adv-x="434" 
d="M86 32l21 76h-92v164h138l12 44h-150v164h195l20 71h97l-20 -71h112v-164h-157l-12 -44h169v-164h-215l-21 -76h-97z" />
    </font>
</defs>
</svg>
