<?xml version="1.0" standalone="no"?>
<!DOCTYPE svg PUBLIC "-//W3C//DTD SVG 1.1//EN" "http://www.w3.org/Graphics/SVG/1.1/DTD/svg11.dtd" >
<svg xmlns="http://www.w3.org/2000/svg" xmlns:xlink="http://www.w3.org/1999/xlink" version="1.1">
<metadata>
Created by FontForge 20201107 at Mon Jun 15 20:27:58 2020
 By 
Copyright 2020 The Kanit Project Authors (https://github.com/cadsondemak/kanit)
</metadata>
<defs>
<font id="Kanit-Medium" horiz-adv-x="0" >
  <font-face 
    font-family="Kanit Medium"
    font-weight="500"
    font-stretch="normal"
    units-per-em="1000"
    panose-1="0 0 0 0 0 0 0 0 0 0"
    ascent="800"
    descent="-200"
    x-height="474"
    cap-height="644"
    bbox="-613 -363 1213 1088"
    underline-thickness="50"
    underline-position="-125"
    unicode-range="U+000D-FB02"
  />
<missing-glyph horiz-adv-x="486" 
d="M37 0v714h411v-714h-411zM88 51h309v612h-309v-612z" />
    <glyph glyph-name="fi" unicode="fi" horiz-adv-x="547" 
d="M83 0v370h-66v104h66v47q0 50 24 89t69.5 62t107.5 23q79 0 127 -20v-100q-13 7 -39 10.5t-46 3.5q-58 0 -83 -17t-25 -55v-43h272v-474h-135v370h-137v-370h-135z" />
    <glyph glyph-name="fl" unicode="fl" horiz-adv-x="547" 
d="M83 0v370h-66v104h66v47q0 69 42.5 115.5t119.5 53.5q58 5 123 -15h122v-675h-135v370h-137v-370h-135zM218 474h137v107q-12 4 -30.5 6t-31.5 2q-75 0 -75 -73v-42z" />
    <glyph glyph-name="uni0E240E45" unicode="&#xe24;&#xe45;" horiz-adv-x="903" 
d="M425 -160v489q0 63 -29.5 89.5t-99.5 26.5q-45 0 -82.5 -13t-60.5 -33v-14l111 -30v-82q-40 -10 -53.5 -32.5t-13.5 -69.5v-29q0 -20 9 -28.5t28 -8.5h53v-105h-122q-46 0 -74.5 30t-28.5 76v66q0 46 15.5 81.5t61.5 49.5l-102 27v129q41 35 109.5 63t156.5 28
q49 0 90 -7.5t73 -24.5q30 14 73.5 23t87.5 9q114 0 164 -48.5t50 -150.5v-511h-135v492q0 54 -21 83.5t-84 29.5q-28 0 -61 -6q20 -46 20 -113v-486h-135z" />
    <glyph glyph-name="uni0E260E45" unicode="&#xe26;&#xe45;" horiz-adv-x="939" 
d="M460 -160v489q0 63 -27.5 89.5t-89.5 26.5q-45 0 -82.5 -13t-60.5 -33v-14l111 -30v-82q-38 -12 -49 -33.5t-11 -68.5v-37q0 -71 -34 -102.5t-98 -31.5h-72v105h33q20 0 27 8t7 28v31q0 46 13 80t59 51l-102 27v129q41 35 109.5 63t156.5 28q45 0 83.5 -7.5t68.5 -24.5
q30 14 73.5 23t87.5 9q114 0 164 -48.5t50 -150.5v-511h-135v492q0 54 -21 83.5t-84 29.5q-29 0 -63 -6q21 -46 21 -113v-486h-135z" />
    <glyph glyph-name=".notdef" horiz-adv-x="486" 
d="M37 0v714h411v-714h-411zM88 51h309v612h-309v-612z" />
    <glyph glyph-name=".null" horiz-adv-x="500" 
 />
    <glyph glyph-name=".null" horiz-adv-x="500" 
 />
    <glyph glyph-name="nonmarkingreturn" horiz-adv-x="333" 
 />
    <glyph glyph-name="CR" unicode="&#xd;" horiz-adv-x="220" 
 />
    <glyph glyph-name="space" unicode=" " horiz-adv-x="220" 
 />
    <glyph glyph-name="exclam" unicode="!" horiz-adv-x="216" 
d="M47 169l-6 310v165h135v-165l-6 -310h-123zM37 0v99h142v-99h-142z" />
    <glyph glyph-name="quotedbl" unicode="&#x22;" horiz-adv-x="361" 
d="M210 443v201h114l-14 -201h-100zM37 443v201h114l-14 -201h-100z" />
    <glyph glyph-name="numbersign" unicode="#" horiz-adv-x="705" 
d="M62 0l52 165h-77v89h105l42 136h-103v90h131l52 164h117l-52 -164h149l52 164h117l-52 -164h73v-90h-101l-43 -136h100v-89h-128l-52 -165h-116l52 165h-150l-52 -165h-116zM258 254h150l42 136h-149z" />
    <glyph glyph-name="dollar" unicode="$" horiz-adv-x="555" 
d="M232 -86v77q-55 2 -101.5 10t-81.5 24v119q41 -17 89 -27.5t94 -12.5v175l-12 4q-101 28 -142 70t-41 116q0 77 49.5 124t145.5 58v79h99v-77q46 -3 85 -10t64 -16v-119q-35 13 -73 21t-76 9v-166q74 -21 114.5 -49.5t56.5 -65t16 -81.5q0 -71 -46 -119t-141 -62v-81h-99
zM232 401v131q-28 -6 -43 -21t-15 -42q0 -25 12.5 -40t45.5 -28zM331 111q25 7 37 22t12 43q0 26 -11 42t-38 29v-136z" />
    <glyph glyph-name="percent" unicode="%" horiz-adv-x="742" 
d="M182 355q-72 0 -108.5 40t-36.5 103q0 72 36.5 114t108.5 42t108.5 -42t36.5 -114q0 -63 -36.5 -103t-108.5 -40zM137 0l339 644h128l-340 -644h-127zM182 432q35 0 50.5 18.5t15.5 49.5q0 40 -16 58t-50 18t-49.5 -18t-15.5 -58q0 -31 15.5 -49.5t49.5 -18.5zM560 -10
q-72 0 -108.5 40t-36.5 103q0 72 36.5 114t108.5 42t108.5 -42t36.5 -114q0 -63 -36.5 -103t-108.5 -40zM560 67q35 0 50.5 18.5t15.5 49.5q0 40 -16 58t-50 18t-49.5 -18t-15.5 -58q0 -31 15.5 -49.5t49.5 -18.5z" />
    <glyph glyph-name="ampersand" unicode="&#x26;" horiz-adv-x="676" 
d="M558 -12l-73 74q-34 -34 -88 -53t-121 -19q-109 0 -174 46.5t-65 125.5q0 67 38.5 113t105.5 84q-34 35 -56.5 66.5t-22.5 75.5q0 67 48 110t131 43t131 -41.5t48 -111.5q0 -51 -25 -87t-73 -71l138 -141q14 28 14 66v20h102v-23q0 -38 -11 -74t-29 -62l65 -66zM277 397
q36 23 55 43t19 55q0 30 -16.5 49.5t-52.5 19.5q-37 0 -54 -20.5t-17 -48.5q0 -31 17.5 -52t48.5 -46zM276 83q88 0 127 52l-141 143q-47 -21 -71 -46.5t-24 -66.5q0 -40 30.5 -61t78.5 -21z" />
    <glyph glyph-name="quotesingle" unicode="'" horiz-adv-x="188" 
d="M37 443v201h114l-14 -201h-100z" />
    <glyph glyph-name="parenleft" unicode="(" horiz-adv-x="340" 
d="M169 -72q-47 44 -76 104t-42.5 130t-13.5 141t13.5 140.5t42.5 130.5t76 104h153q-79 -70 -113.5 -166t-34.5 -209q0 -114 34.5 -209t113.5 -166h-153z" />
    <glyph glyph-name="parenright" unicode=")" horiz-adv-x="340" 
d="M17 -72q80 71 114 166t34 209q0 113 -34 209t-114 166h154q47 -43 75.5 -104t42 -130.5t13.5 -140.5t-13.5 -141t-42 -130t-75.5 -104h-154z" />
    <glyph glyph-name="asterisk" unicode="*" horiz-adv-x="436" 
d="M141 312l-78 57l85 91l-111 46l41 83l94 -48l-5 103h102l-5 -103l94 48l40 -83l-111 -46l85 -91l-78 -57l-76 102z" />
    <glyph glyph-name="plus" unicode="+" horiz-adv-x="470" 
d="M182 85v134h-140v105h140v137h106v-137h140v-105h-140v-134h-106z" />
    <glyph glyph-name="comma" unicode="," horiz-adv-x="221" 
d="M37 -120l31 201h116l-50 -201h-97z" />
    <glyph glyph-name="hyphen" unicode="-" horiz-adv-x="460" 
d="M37 219v105h386v-105h-386z" />
    <glyph glyph-name="period" unicode="." horiz-adv-x="184" 
d="M37 0v101h110v-101h-110z" />
    <glyph glyph-name="slash" unicode="/" horiz-adv-x="446" 
d="M37 0l234 662h138l-234 -662h-138z" />
    <glyph glyph-name="zero" unicode="0" horiz-adv-x="656" 
d="M328 -26q-106 0 -170 40t-92.5 116.5t-28.5 183.5q0 108 28.5 184t92.5 116t170 40t170 -40t92.5 -116t28.5 -184q0 -107 -28.5 -183.5t-92.5 -116.5t-170 -40zM328 90q87 0 120.5 58t33.5 166t-33.5 166t-120.5 58t-120.5 -58t-33.5 -166t33.5 -166t120.5 -58z" />
    <glyph glyph-name="one" unicode="1" horiz-adv-x="334" 
d="M142 0v522l-105 -17v113l240 36v-654h-135z" />
    <glyph glyph-name="two" unicode="2" horiz-adv-x="513" 
d="M37 0v65q27 58 71 104.5t96 92.5q39 35 64 58t39 41t20 37t6 47q0 93 -118 93q-40 0 -79.5 -8.5t-75.5 -22.5v119q38 13 88.5 20.5t96.5 7.5q112 0 168.5 -55.5t56.5 -150.5q0 -66 -32.5 -112.5t-84.5 -91.5q-41 -36 -78 -69.5t-62 -70.5h263v-104h-439z" />
    <glyph glyph-name="three" unicode="3" horiz-adv-x="524" 
d="M229 -10q-29 0 -65 4t-70 11t-57 16v118q41 -17 85.5 -25t86.5 -8q71 0 105.5 19.5t34.5 71.5q0 43 -30.5 61t-87.5 18h-101l10 99h84q58 0 85 19.5t27 61.5t-30.5 62.5t-97.5 20.5q-43 0 -85.5 -9t-74.5 -23v115q32 14 82.5 23t100.5 9q120 0 181 -50t61 -129
q0 -47 -21.5 -88.5t-66.5 -60.5q52 -16 76.5 -53.5t24.5 -89.5q0 -66 -32.5 -109t-90 -63.5t-134.5 -20.5z" />
    <glyph glyph-name="four" unicode="4" horiz-adv-x="545" 
d="M329 0v135h-312v92l329 417h118v-400h63v-109h-63v-135h-135zM146 239h206v256z" />
    <glyph glyph-name="five" unicode="5" horiz-adv-x="518" 
d="M227 -10q-29 0 -63.5 3.5t-67 10.5t-56.5 17v117q35 -15 82.5 -23.5t85.5 -8.5q68 0 101.5 22t33.5 75q0 47 -22.5 69t-89.5 22h-194v76l17 274h383l-10 -104h-258l-9 -142h97q117 0 170 -51t53 -149q0 -95 -63.5 -151.5t-189.5 -56.5z" />
    <glyph glyph-name="six" unicode="6" horiz-adv-x="578" 
d="M290 -10q-126 0 -189.5 62t-63.5 191v138q0 80 34.5 141.5t98.5 96.5t151 35q50 0 87 -6t71 -18v-116q-63 25 -149 25q-82 0 -124 -36t-42 -95v-31q32 23 75 34.5t79 11.5q115 0 169 -56t54 -158q0 -64 -26.5 -113.5t-81.5 -77.5t-143 -28zM291 90q65 0 97 31t32 83
q0 56 -28 86t-99 30q-33 0 -67 -12t-62 -31v-61q0 -126 127 -126z" />
    <glyph glyph-name="seven" unicode="7" horiz-adv-x="498" 
d="M93 0l229 540h-295v104h443v-83l-237 -561h-140z" />
    <glyph glyph-name="eight" unicode="8" horiz-adv-x="597" 
d="M298 -10q-261 0 -261 189q0 52 27.5 94t76.5 60q-45 20 -66 56t-21 77q0 86 59 137t185 51q129 0 186.5 -51t57.5 -137q0 -43 -20.5 -81t-69.5 -59q107 -38 107 -147q0 -189 -261 -189zM324 367q47 13 68.5 33.5t21.5 62.5q0 45 -28.5 65t-87.5 20q-58 0 -87 -19.5
t-29 -65.5q0 -68 76 -83zM298 95q68 0 100.5 20t32.5 66q0 41 -22 59.5t-72 28.5l-77 16q-43 -10 -69 -31.5t-26 -68.5q0 -49 33 -69.5t100 -20.5z" />
    <glyph glyph-name="nine" unicode="9" horiz-adv-x="578" 
d="M257 -10q-50 0 -87 6t-71 18v116q63 -25 149 -25q83 0 124.5 36t41.5 95v31q-32 -22 -75 -34t-79 -12q-115 0 -169 56t-54 158q0 65 26.5 114t82 77t142.5 28q126 0 189.5 -62t63.5 -191v-138q0 -80 -34.5 -141.5t-98 -96.5t-151.5 -35zM285 324q33 0 67 12t62 31v61
q0 126 -127 126q-64 0 -96.5 -31t-32.5 -83q0 -55 28 -85.5t99 -30.5z" />
    <glyph glyph-name="colon" unicode=":" horiz-adv-x="185" 
d="M37 323v103h110v-103h-110zM37 23v103h110v-103h-110z" />
    <glyph glyph-name="semicolon" unicode=";" horiz-adv-x="222" 
d="M72 323v103h110v-103h-110zM37 -120l31 201h116l-50 -201h-97z" />
    <glyph glyph-name="less" unicode="&#x3c;" horiz-adv-x="542" 
d="M505 37l-468 211v111l468 211v-126l-325 -140l325 -141v-126z" />
    <glyph glyph-name="equal" unicode="=" horiz-adv-x="464" 
d="M37 306v94h389v-94h-389zM37 141v95h389v-95h-389z" />
    <glyph glyph-name="greater" unicode="&#x3e;" horiz-adv-x="542" 
d="M37 37v126l325 141l-325 140v126l468 -211v-111z" />
    <glyph glyph-name="question" unicode="?" horiz-adv-x="497" 
d="M143 170v20q0 40 18 69t44.5 52.5t53.5 44.5t45 44t18 53q0 47 -29 66t-100 19q-40 0 -83 -10.5t-73 -25.5v114q35 17 85.5 27.5t106.5 10.5q113 0 171.5 -50t58.5 -137q0 -57 -24.5 -91t-68.5 -69q-40 -32 -64 -56.5t-24 -65.5v-15h-135zM139 0v99h142v-99h-142z" />
    <glyph glyph-name="at" unicode="@" horiz-adv-x="761" 
d="M389 -132q-102 0 -181.5 32t-125 102.5t-45.5 185.5q0 117 44.5 191.5t126 110t192.5 35.5q156 0 239.5 -71.5t83.5 -199.5q0 -96 -47.5 -150t-145.5 -54h-45q-24 -22 -58 -34.5t-84 -12.5q-54 0 -92.5 26.5t-38.5 85.5q0 54 34 85t113 31h113v24q0 38 -18.5 54.5
t-77.5 16.5q-30 0 -60 -5t-59 -14v57q26 11 63.5 17t76.5 6q82 0 118.5 -33.5t36.5 -107.5v-128q38 0 58 30t20 100q0 98 -56.5 148.5t-173.5 50.5q-131 0 -200 -62t-69 -198q0 -89 32.5 -142t90 -76.5t133.5 -23.5q110 0 173 19v-78q-31 -7 -75 -12.5t-96 -5.5zM373 60
q63 0 99 45v72h-93q-46 0 -62.5 -16t-16.5 -45q0 -31 19.5 -43.5t53.5 -12.5z" />
    <glyph glyph-name="A" unicode="A" horiz-adv-x="713" 
d="M37 0l246 644h148l245 -644h-140l-61 155h-237l-60 -155h-141zM258 259h197l-99 259z" />
    <glyph glyph-name="B" unicode="B" horiz-adv-x="636" 
d="M57 0v644h326q97 0 144.5 -45.5t47.5 -128.5q0 -52 -20 -86.5t-54 -53.5q45 -14 71.5 -46.5t26.5 -95.5q0 -93 -52.5 -140.5t-151.5 -47.5h-338zM192 377h166q49 0 70 21.5t21 60.5q0 43 -21.5 64t-79.5 21h-156v-167zM192 99h171q51 0 75 21t24 74q0 43 -23.5 64
t-84.5 21h-162v-180z" />
    <glyph glyph-name="C" unicode="C" horiz-adv-x="600" 
d="M371 -10q-162 0 -248 87.5t-86 238.5q0 160 83.5 249t249.5 89q58 0 104.5 -8.5t87.5 -23.5v-118q-85 35 -182 35q-110 0 -158 -55t-48 -168q0 -212 208 -212q47 0 93 8.5t88 25.5v-119q-41 -13 -87.5 -21t-104.5 -8z" />
    <glyph glyph-name="D" unicode="D" horiz-adv-x="656" 
d="M57 0v644h270q145 0 218.5 -74.5t73.5 -250.5q0 -166 -72.5 -242.5t-219.5 -76.5h-270zM192 104h116q57 0 96 17.5t58.5 64t19.5 133.5t-18 133t-56 63t-100 17h-116v-428z" />
    <glyph glyph-name="E" unicode="E" horiz-adv-x="556" 
d="M57 0v644h462v-105h-327v-165h290v-104h-290v-166h327v-104h-462z" />
    <glyph glyph-name="F" unicode="F" horiz-adv-x="527" 
d="M57 0v644h453v-105h-318v-165h281v-104h-281v-270h-135z" />
    <glyph glyph-name="G" unicode="G" horiz-adv-x="644" 
d="M367 -10q-162 0 -246 85t-84 236q0 160 85 251.5t253 91.5q58 0 105 -6.5t89 -20.5v-116q-42 15 -88.5 21.5t-95.5 6.5q-115 0 -163 -56.5t-48 -171.5q0 -207 195 -207q34 0 66.5 5.5t57.5 14.5v150h-150v86h264v-315q-33 -21 -92 -38t-148 -17z" />
    <glyph glyph-name="H" unicode="H" horiz-adv-x="665" 
d="M57 0v644h135v-270h281v270h135v-644h-135v270h-281v-270h-135z" />
    <glyph glyph-name="I" unicode="I" horiz-adv-x="249" 
d="M57 0v644h135v-644h-135z" />
    <glyph glyph-name="J" unicode="J" horiz-adv-x="436" 
d="M161 -10q-81 0 -144 23v114q50 -22 117 -22q62 0 88.5 25.5t26.5 83.5v430h135v-460q0 -194 -223 -194z" />
    <glyph glyph-name="K" unicode="K" horiz-adv-x="644" 
d="M57 0v644h135v-273l248 273h155l-233 -261l245 -383h-144l-185 297l-86 -93v-204h-135z" />
    <glyph glyph-name="L" unicode="L" horiz-adv-x="526" 
d="M57 0v644h135v-540h317v-104h-452z" />
    <glyph glyph-name="M" unicode="M" horiz-adv-x="763" 
d="M57 0v644h136l189 -387l189 387h135v-644h-135v419l-150 -308h-78l-151 308v-419h-135z" />
    <glyph glyph-name="N" unicode="N" horiz-adv-x="671" 
d="M57 0v644h117l305 -429v429h135v-644h-117l-305 429v-429h-135z" />
    <glyph glyph-name="O" unicode="O" horiz-adv-x="700" 
d="M350 -10q-313 0 -313 329q0 177 79 256t234 79t234 -79t79 -256q0 -329 -313 -329zM350 105q91 0 133.5 52.5t42.5 161.5q0 121 -42.5 170.5t-133.5 49.5t-133.5 -49.5t-42.5 -170.5q0 -109 42.5 -161.5t133.5 -52.5z" />
    <glyph glyph-name="P" unicode="P" horiz-adv-x="598" 
d="M57 0v644h302q76 0 124.5 -29t72.5 -79t24 -114q0 -65 -27.5 -115t-78 -77.5t-119.5 -27.5h-163v-202h-135zM192 309h135q58 0 87.5 30.5t29.5 82.5q0 56 -28 85.5t-84 29.5h-140v-228z" />
    <glyph glyph-name="Q" unicode="Q" horiz-adv-x="700" 
d="M441 -172q-80 0 -118 43t-40 123q-246 33 -246 325q0 177 79 256t234 79t234 -79t79 -256q0 -303 -265 -327q2 -40 19.5 -54t54.5 -14q17 0 36 3t35 8v-94q-17 -5 -45 -9t-57 -4zM350 105q91 0 133.5 52.5t42.5 161.5q0 121 -42.5 170.5t-133.5 49.5t-133.5 -49.5
t-42.5 -170.5q0 -109 42.5 -161.5t133.5 -52.5z" />
    <glyph glyph-name="R" unicode="R" horiz-adv-x="618" 
d="M57 0v644h309q111 0 163 -58.5t52 -157.5q0 -65 -33.5 -112t-94.5 -68q16 -13 25.5 -28t19.5 -40l78 -180h-140l-76 173q-10 22 -22 31t-40 9h-106v-213h-135zM192 325h139q53 0 83 23.5t30 79.5q0 54 -26 79t-79 25h-147v-207z" />
    <glyph glyph-name="S" unicode="S" horiz-adv-x="555" 
d="M257 -10q-62 0 -115.5 9t-92.5 26v119q44 -18 95 -29t100 -11q70 0 103 13t33 59q0 29 -14 46t-48.5 30.5t-97.5 30.5q-101 28 -142 70t-41 116q0 89 65 137t189 48q58 0 108 -8t81 -19v-119q-82 31 -171 31q-63 0 -99 -13.5t-36 -56.5q0 -25 13 -40t44.5 -27t88.5 -27
q79 -21 122 -50t59.5 -66t16.5 -83q0 -84 -64 -135t-197 -51z" />
    <glyph glyph-name="T" unicode="T" horiz-adv-x="564" 
d="M215 0v540h-198v104h530v-104h-197v-540h-135z" />
    <glyph glyph-name="U" unicode="U" horiz-adv-x="679" 
d="M340 -10q-133 0 -210.5 64.5t-77.5 187.5v402h135v-392q0 -74 40 -110.5t113 -36.5t112.5 36.5t39.5 110.5v392h135v-402q0 -123 -77 -187.5t-210 -64.5z" />
    <glyph glyph-name="V" unicode="V" horiz-adv-x="713" 
d="M283 0l-246 644h141l178 -493l179 493h141l-245 -644h-148z" />
    <glyph glyph-name="W" unicode="W" horiz-adv-x="875" 
d="M187 0l-150 644h133l97 -435l105 351v84h110l124 -436l100 436h132l-149 -644h-128l-118 412l-127 -412h-129z" />
    <glyph glyph-name="X" unicode="X" horiz-adv-x="702" 
d="M37 0l233 323l-227 321h159l149 -215l149 215h159l-227 -321l233 -323h-161l-153 215l-153 -215h-161z" />
    <glyph glyph-name="Y" unicode="Y" horiz-adv-x="671" 
d="M268 0v238l-231 406h141l158 -291l158 291h140l-231 -406v-238h-135z" />
    <glyph glyph-name="Z" unicode="Z" horiz-adv-x="579" 
d="M37 0v70l324 462h-308v112h484v-82l-321 -458h326v-104h-505z" />
    <glyph glyph-name="bracketleft" unicode="[" horiz-adv-x="359" 
d="M37 -99v805h290l4 -105h-159v-596h160l-4 -104h-291z" />
    <glyph glyph-name="backslash" unicode="\" horiz-adv-x="467" 
d="M290 -54l-253 716h140l252 -716h-139z" />
    <glyph glyph-name="bracketright" unicode="]" horiz-adv-x="359" 
d="M31 -99l-4 104h160v596h-159l4 105h290v-805h-291z" />
    <glyph glyph-name="asciicircum" unicode="^" horiz-adv-x="493" 
d="M37 382l159 242h95l164 -242h-125l-84 144l-83 -144h-126z" />
    <glyph glyph-name="underscore" unicode="_" horiz-adv-x="533" 
d="M37 -90v90h459v-90h-459z" />
    <glyph glyph-name="grave" unicode="`" horiz-adv-x="277" 
d="M127 522l-88 187h117l80 -187h-109z" />
    <glyph glyph-name="a" unicode="a" horiz-adv-x="554" 
d="M206 -10q-45 0 -83.5 16.5t-62 49t-23.5 81.5q0 70 49.5 112t146.5 42h140v13q0 44 -24.5 62t-98.5 18q-81 0 -156 -25v95q33 13 80.5 21.5t103.5 8.5q107 0 165.5 -43.5t58.5 -139.5v-301h-117l-7 43q-28 -25 -69 -39t-103 -14zM243 79q45 0 78 15t52 38v75h-137
q-79 0 -79 -65q0 -63 86 -63z" />
    <glyph glyph-name="b" unicode="b" horiz-adv-x="590" 
d="M336 -10q-50 0 -87 13.5t-68 40.5l-7 -44h-117v674h135v-226q29 18 65 27t75 9q102 0 161.5 -57.5t59.5 -185.5t-58.5 -189.5t-158.5 -61.5zM298 89q65 0 91.5 38t26.5 114q0 79 -28.5 111.5t-90.5 32.5q-31 0 -58.5 -9t-46.5 -26v-218q20 -21 47.5 -32t58.5 -11z" />
    <glyph glyph-name="c" unicode="c" horiz-adv-x="488" 
d="M299 -10q-127 0 -194.5 63t-67.5 184q0 125 72.5 186t193.5 61q50 0 86 -7t70 -23v-97q-25 12 -58 19t-71 7q-76 0 -116 -31.5t-40 -114.5q0 -76 36.5 -111t118.5 -35q35 0 68.5 7t62.5 21v-100q-67 -29 -161 -29z" />
    <glyph glyph-name="d" unicode="d" horiz-adv-x="590" 
d="M255 -10q-63 0 -112.5 22.5t-77.5 74t-28 136.5t31 143t83 88t114 30q78 0 133 -36v226h135v-674h-116l-8 44q-31 -27 -67.5 -40.5t-86.5 -13.5zM292 89q63 0 106 43v216q-42 37 -98 37q-126 0 -126 -162q0 -76 31 -105t87 -29z" />
    <glyph glyph-name="e" unicode="e" horiz-adv-x="542" 
d="M304 -10q-123 0 -195 61.5t-72 186.5q0 113 60.5 179.5t180.5 66.5q110 0 168.5 -57.5t58.5 -150.5v-86h-343q11 -57 52.5 -78t117.5 -21q38 0 77.5 7t67.5 18v-96q-33 -15 -77 -22.5t-96 -7.5zM162 273h225v26q0 41 -24 64.5t-81 23.5q-67 0 -93.5 -27t-26.5 -87z" />
    <glyph glyph-name="f" unicode="f" horiz-adv-x="371" 
d="M82 0v370h-66v104h66v48q0 74 42 121t124 47q33 0 59 -5t48 -14v-93q-15 5 -29 8t-31 3q-43 0 -60.5 -15.5t-17.5 -53.5v-46h120l-6 -104h-114v-370h-135z" />
    <glyph glyph-name="g" unicode="g" horiz-adv-x="562" 
d="M257 -176q-53 0 -108.5 7t-93.5 20v101q40 -13 94 -20.5t101 -7.5q69 0 100 7.5t31 26.5q0 16 -13.5 22t-56.5 6h-129q-127 0 -127 94q0 29 16 53t51 38q-81 41 -81 138q0 92 57 133.5t169 41.5q23 0 50.5 -3.5t41.5 -6.5h178l-3 -85h-75q31 -29 31 -81q0 -73 -46 -116.5
t-136 -43.5q-16 0 -30.5 1.5t-29.5 3.5q-30 -4 -50.5 -14t-20.5 -27q0 -23 41 -23h134q72 0 111 -32.5t39 -94.5q0 -70 -63 -104t-182 -34zM268 224q60 0 83.5 20.5t23.5 69.5t-23.5 71t-83.5 22q-57 0 -82 -21.5t-25 -71.5q0 -46 23.5 -68t83.5 -22z" />
    <glyph glyph-name="h" unicode="h" horiz-adv-x="587" 
d="M57 0v674h135v-240q29 22 71 36t91 14q94 0 137 -44t43 -136v-304h-135v297q0 48 -19.5 68t-72.5 20q-31 0 -62.5 -14t-52.5 -35v-336h-135z" />
    <glyph glyph-name="i" unicode="i" horiz-adv-x="294" 
d="M90 561v106h147v-106h-147zM101 0v374h-71l12 100h194v-474h-135z" />
    <glyph glyph-name="j" unicode="j" horiz-adv-x="324" 
d="M119 561v106h147v-106h-147zM102 -234q-63 0 -108 18v93q16 -5 31.5 -7.5t28.5 -2.5q41 0 59 16.5t18 52.5v438h-71l12 100h194v-551q0 -70 -40.5 -113.5t-123.5 -43.5z" />
    <glyph glyph-name="k" unicode="k" horiz-adv-x="564" 
d="M57 0v674h135v-371l177 171h154l-191 -194l202 -280h-143l-144 209l-55 -53v-156h-135z" />
    <glyph glyph-name="l" unicode="l" horiz-adv-x="298" 
d="M189 -10q-69 0 -100.5 32t-31.5 102v550h135v-539q0 -25 10 -34.5t29 -9.5q26 0 47 7v-93q-38 -15 -89 -15z" />
    <glyph glyph-name="m" unicode="m" horiz-adv-x="858" 
d="M57 0v474h125l5 -46q34 26 74.5 41t87.5 15q50 0 77.5 -15t42.5 -43q33 26 75.5 42t100.5 16q82 0 121 -42.5t39 -129.5v-312h-133v297q0 47 -20 67.5t-64 20.5q-60 0 -100 -43q5 -17 5 -41v-301h-126v297q0 44 -15 66t-58 22q-30 0 -56.5 -15.5t-47.5 -35.5v-334h-133z
" />
    <glyph glyph-name="n" unicode="n" horiz-adv-x="587" 
d="M57 0v474h125l5 -45q29 22 73.5 38.5t93.5 16.5q94 0 137 -44t43 -136v-304h-135v297q0 48 -19.5 68t-72.5 20q-31 0 -62.5 -14t-52.5 -35v-336h-135z" />
    <glyph glyph-name="o" unicode="o" horiz-adv-x="589" 
d="M294 -10q-133 0 -195 64.5t-62 182.5t62.5 182.5t194.5 64.5q133 0 195.5 -64.5t62.5 -182.5t-62 -182.5t-196 -64.5zM294 105q65 0 93 29.5t28 102.5t-28 102.5t-93 29.5q-64 0 -92 -29.5t-28 -102.5t28 -102.5t92 -29.5z" />
    <glyph glyph-name="p" unicode="p" horiz-adv-x="590" 
d="M57 -216v690h117l7 -44q31 26 68 40t87 14q104 0 160.5 -56.5t56.5 -184.5t-60.5 -190.5t-164.5 -62.5q-80 0 -136 36v-242h-135zM294 89q60 0 91 37t31 116q0 76 -28 109.5t-90 33.5t-106 -43v-217q21 -16 44.5 -26t57.5 -10z" />
    <glyph glyph-name="q" unicode="q" horiz-adv-x="579" 
d="M536 -242q-69 0 -103.5 34t-34.5 106v128q-55 -36 -136 -36q-103 0 -164 57.5t-61 185.5q0 86 28 141.5t77.5 82.5t113.5 27q50 0 86 -14t67 -40l8 44h116v-563q0 -29 11 -40.5t39 -11.5q11 0 21 2t20 5v-93q-20 -7 -39.5 -11t-48.5 -4zM296 89q35 0 58.5 10t43.5 26v217
q-22 22 -47 32.5t-57 10.5q-62 0 -91 -37t-29 -113q0 -79 31 -112.5t91 -33.5z" />
    <glyph glyph-name="r" unicode="r" horiz-adv-x="373" 
d="M57 0v474h125l6 -49q32 20 79.5 36.5t93.5 22.5v-102q-27 -4 -59 -12t-61 -18t-49 -21v-331h-135z" />
    <glyph glyph-name="s" unicode="s" horiz-adv-x="471" 
d="M224 -10q-53 0 -101 7.5t-77 18.5v112q35 -14 79 -21.5t81 -7.5q50 0 70.5 6t20.5 27q0 24 -31.5 35t-93.5 31q-65 22 -100 53t-35 92q0 68 49.5 104.5t159.5 36.5q44 0 83 -6.5t66 -15.5v-111q-27 13 -62 19.5t-65 6.5q-43 0 -68.5 -6t-25.5 -26q0 -22 27.5 -31
t85.5 -27q57 -17 89 -37t45 -47.5t13 -68.5q0 -144 -210 -144z" />
    <glyph glyph-name="t" unicode="t" horiz-adv-x="363" 
d="M245 -10q-82 0 -121.5 43t-39.5 117v220h-67v104h67v102l135 40v-142h120l-8 -104h-112v-211q0 -39 18 -53.5t56 -14.5q28 0 58 10v-93q-22 -9 -48 -13.5t-58 -4.5z" />
    <glyph glyph-name="u" unicode="u" horiz-adv-x="587" 
d="M232 -10q-85 0 -132.5 47.5t-47.5 139.5v297h135v-294q0 -48 23 -69.5t69 -21.5q35 0 64.5 14t50.5 35v336h135v-474h-125l-5 45q-30 -24 -70.5 -39.5t-96.5 -15.5z" />
    <glyph glyph-name="v" unicode="v" horiz-adv-x="593" 
d="M224 0l-187 474h141l118 -338l119 338h140l-186 -474h-145z" />
    <glyph glyph-name="w" unicode="w" horiz-adv-x="757" 
d="M162 0l-125 474h135l72 -308l79 247v61h103l90 -308l70 308h134l-124 -474h-124l-91 277l-93 -277h-126z" />
    <glyph glyph-name="x" unicode="x" horiz-adv-x="565" 
d="M26 0l182 241l-175 233h146l102 -138l102 138h146l-174 -233l181 -241h-147l-108 145l-108 -145h-147z" />
    <glyph glyph-name="y" unicode="y" horiz-adv-x="613" 
d="M181 -176q-31 0 -55 3.5t-47 12.5v95q17 -6 31.5 -8t29.5 -2q41 0 63.5 19t45.5 64l-212 466h141l139 -322l138 322h140l-187 -441q-26 -62 -56.5 -109.5t-71.5 -73.5t-99 -26z" />
    <glyph glyph-name="z" unicode="z" horiz-adv-x="489" 
d="M37 0v70l239 292h-229v112h398v-82l-234 -288h241v-104h-415z" />
    <glyph glyph-name="braceleft" unicode="{" horiz-adv-x="312" 
d="M201 -104q-73 0 -97.5 27.5t-24.5 88.5v162q0 39 -13.5 59.5t-48.5 24.5v81q41 5 51.5 29.5t10.5 72.5v144q0 62 24.5 89t97.5 27h83v-104h-24q-28 0 -37 -12.5t-9 -41.5v-151q0 -30 -12.5 -55.5t-40.5 -38.5q28 -13 40.5 -38t12.5 -55v-151q0 -28 9 -41t37 -13h24v-104
h-83z" />
    <glyph glyph-name="bar" unicode="|" horiz-adv-x="210" 
d="M37 -120v855h135v-855h-135z" />
    <glyph glyph-name="braceright" unicode="}" horiz-adv-x="312" 
d="M27 -104v104h24q29 0 37.5 13t8.5 41v151q0 30 12.5 55t40.5 38q-28 13 -40.5 38.5t-12.5 55.5v151q0 29 -8.5 41.5t-37.5 12.5h-24v104h83q73 0 97.5 -27t24.5 -89v-144q0 -48 11 -72.5t51 -29.5v-81q-35 -4 -48.5 -24.5t-13.5 -59.5v-162q0 -61 -24.5 -88.5
t-97.5 -27.5h-83z" />
    <glyph glyph-name="asciitilde" unicode="~" horiz-adv-x="552" 
d="M397 206q-33 0 -62.5 10.5t-58.5 23.5t-58.5 23.5t-61.5 10.5q-73 0 -119 -59v133q17 23 49.5 37t69.5 14q34 0 64.5 -10.5t59 -23.5t57.5 -23.5t60 -10.5q38 0 65.5 13.5t51.5 44.5v-133q-17 -24 -48 -37t-69 -13z" />
    <glyph glyph-name="uni00A0" unicode="&#xa0;" horiz-adv-x="220" 
 />
    <glyph glyph-name="exclamdown" unicode="&#xa1;" horiz-adv-x="216" 
d="M37 375v99h142v-99h-142zM41 -170v165l6 310h123l6 -310v-165h-135z" />
    <glyph glyph-name="cent" unicode="&#xa2;" horiz-adv-x="497" 
d="M256 -86v78q-106 10 -162.5 72t-56.5 173q0 113 59.5 173.5t159.5 70.5v79h99v-78q30 -3 54.5 -10t49.5 -18v-97q-21 10 -47.5 17t-56.5 8v-290q28 2 54.5 8.5t50.5 18.5v-100q-45 -20 -105 -26v-79h-99zM256 100v274q-40 -13 -61 -45t-21 -92q0 -56 19.5 -89.5
t62.5 -47.5z" />
    <glyph glyph-name="sterling" unicode="&#xa3;" horiz-adv-x="494" 
d="M37 0v104h23q26 0 39.5 16t13.5 42v127h-66v104h66v89q0 79 50 125.5t130 46.5q38 0 69 -5.5t54 -16.5v-93q-14 7 -37.5 10.5t-43.5 3.5q-87 0 -87 -79v-81h166l-5 -104h-161v-120q0 -23 -5 -38.5t-19 -26.5h232v-104h-419z" />
    <glyph glyph-name="currency" unicode="&#xa4;" horiz-adv-x="571" 
d="M97 48l-60 73l80 59q-25 41 -25 89q0 49 25 88l-79 60l59 73l82 -65q22 16 48.5 25t57.5 9q60 0 106 -35l84 65l59 -72l-81 -60q12 -19 19 -41.5t7 -46.5t-7 -46.5t-19 -42.5l80 -60l-58 -72l-84 64q-22 -16 -48.5 -25t-56.5 -9t-57 9t-49 25zM285 174q40 0 67.5 27.5
t27.5 67.5t-28 68t-67 28q-40 0 -67 -28t-27 -68t27 -67.5t67 -27.5z" />
    <glyph glyph-name="yen" unicode="&#xa5;" horiz-adv-x="671" 
d="M268 0v85h-145v79h145v55h-145v79h111l-197 346h141l158 -291l158 291h140l-197 -346h111v-79h-145v-55h145v-79h-145v-85h-135z" />
    <glyph glyph-name="brokenbar" unicode="&#xa6;" horiz-adv-x="210" 
d="M37 404v331h135v-331h-135zM37 -120v331h135v-331h-135z" />
    <glyph glyph-name="section" unicode="&#xa7;" horiz-adv-x="555" 
d="M257 -10q-62 0 -115.5 9t-92.5 26v119q44 -18 95 -29t100 -11q65 0 100.5 13t35.5 59q0 44 -40 63.5t-120 41.5q-67 20 -107.5 42t-58 52t-17.5 73q0 44 20 70q-8 14 -13.5 32.5t-5.5 40.5q0 82 62 128t191 46q34 0 69.5 -4t67.5 -10t52 -13v-119q-40 14 -83 22.5
t-93 8.5q-24 0 -54.5 -3.5t-53 -18t-22.5 -47.5q0 -37 32 -56t114 -39q81 -20 123.5 -42t58.5 -51.5t16 -73.5q0 -16 -6 -39t-14 -37q9 -14 14.5 -32.5t5.5 -38.5q0 -90 -66.5 -136t-194.5 -46zM399 309q4 11 4 22q0 23 -27.5 38.5t-101.5 34.5q-39 11 -66 21.5t-41 24.5
q-1 -4 -2.5 -9t-1.5 -11q0 -27 29 -40t94 -31q43 -12 71.5 -23.5t41.5 -26.5z" />
    <glyph glyph-name="dieresis" unicode="&#xa8;" horiz-adv-x="376" 
d="M233 557v98h106v-98h-106zM37 557v98h106v-98h-106z" />
    <glyph glyph-name="copyright" unicode="&#xa9;" horiz-adv-x="739" 
d="M369 -10q-69 0 -129 26t-105.5 71.5t-71.5 105.5t-26 129t26 129t71.5 105.5t105.5 71.5t129 26t129 -26t105.5 -71.5t71.5 -105.5t26 -129t-26 -129t-71.5 -105.5t-105.5 -71.5t-129 -26zM369 65q72 0 129.5 33t90.5 91t33 133q0 74 -33 132t-90.5 91.5t-129.5 33.5
q-71 0 -128.5 -33.5t-90.5 -91.5t-33 -132q0 -75 33 -133t90.5 -91t128.5 -33zM370 108q-96 0 -152.5 57t-56.5 157q0 70 28.5 117.5t77 72t107.5 24.5q42 0 72.5 -9t55.5 -26v-68q-25 14 -51 20.5t-55 6.5q-39 0 -72 -13.5t-53 -43.5t-20 -81q0 -76 38.5 -107.5
t102.5 -31.5q29 0 58.5 8t52.5 22v-71q-56 -34 -133 -34z" />
    <glyph glyph-name="ordfeminine" unicode="&#xaa;" horiz-adv-x="340" 
d="M131 380q-38 0 -66 19t-28 62q0 88 108 88h78v5q0 22 -13.5 30.5t-52.5 8.5q-44 0 -86 -14v58q19 8 47 12.5t56 4.5q59 0 93.5 -24.5t34.5 -77.5v-166h-71l-5 23q-18 -15 -40 -22t-55 -7zM157 434q20 0 37 7.5t29 23.5v33h-61q-25 0 -37.5 -6.5t-12.5 -26.5
q0 -18 12 -24.5t33 -6.5z" />
    <glyph glyph-name="guillemotleft" unicode="&#xab;" horiz-adv-x="639" 
d="M549 66l-262 193v53l262 193l52 -76l-194 -144l194 -144zM299 66l-262 193v53l262 193l52 -76l-194 -144l194 -144z" />
    <glyph glyph-name="logicalnot" unicode="&#xac;" horiz-adv-x="517" 
d="M373 136v134h-336v105h442v-239h-106z" />
    <glyph glyph-name="uni00AD" unicode="&#xad;" horiz-adv-x="460" 
d="M37 219v105h386v-105h-386z" />
    <glyph glyph-name="registered" unicode="&#xae;" horiz-adv-x="739" 
d="M369 -10q-69 0 -129 26t-105.5 71.5t-71.5 105.5t-26 129t26 129t71.5 105.5t105.5 71.5t129 26t129 -26t105.5 -71.5t71.5 -105.5t26 -129t-26 -129t-71.5 -105.5t-105.5 -71.5t-129 -26zM369 65q72 0 129.5 33t90.5 91t33 133q0 74 -33 132t-90.5 91.5t-129.5 33.5
q-71 0 -128.5 -33.5t-90.5 -91.5t-33 -132q0 -75 33 -133t90.5 -91t128.5 -33zM224 128v389h187q65 0 97 -34.5t32 -90.5q0 -92 -81 -115q17 -14 27 -42l43 -107h-74l-43 113q-7 14 -17 19t-35 5h-60v-137h-76zM300 324h64q45 0 72.5 11t27.5 57q0 35 -17 50.5t-52 15.5h-95
v-134z" />
    <glyph glyph-name="macron" unicode="&#xaf;" horiz-adv-x="342" 
d="M17 561v83h308v-83h-308z" />
    <glyph glyph-name="degree" unicode="&#xb0;" horiz-adv-x="305" 
d="M152 497q-47 0 -82 31.5t-35 83.5q0 53 35 84t82 31q49 0 83.5 -31t34.5 -84q0 -52 -34.5 -83.5t-83.5 -31.5zM152 567q20 0 33 13t13 32t-13 32t-33 13q-19 0 -32 -13t-13 -32t13 -32t32 -13z" />
    <glyph glyph-name="plusminus" unicode="&#xb1;" horiz-adv-x="470" 
d="M182 145v134h-140v105h140v137h106v-137h140v-105h-140v-134h-106zM42 0v105h386v-105h-386z" />
    <glyph glyph-name="uni00B2" unicode="&#xb2;" horiz-adv-x="303" 
d="M37 370v44q16 23 33 38t39 33q33 27 47 38.5t14 26.5q0 17 -12 24.5t-40 7.5q-18 0 -37.5 -4.5t-36.5 -11.5v71q17 6 46.5 11.5t58.5 5.5q56 0 85 -24.5t29 -59.5q0 -28 -11 -47t-37 -43q-14 -13 -22.5 -19.5t-21.5 -18.5h94v-72h-228z" />
    <glyph glyph-name="uni00B3" unicode="&#xb3;" horiz-adv-x="306" 
d="M136 362q-24 0 -54 4t-45 10v63q18 -7 37.5 -10.5t37.5 -3.5q32 0 46 6t14 21q0 29 -52 29h-42l5 56h34q49 0 49 30q0 13 -15 18t-39 5q-19 0 -37.5 -4t-32.5 -10v64q14 5 40.5 9.5t54.5 4.5q68 0 97 -23t29 -58q0 -21 -8.5 -38t-28.5 -26q23 -7 33 -22.5t10 -38.5
q0 -86 -133 -86z" />
    <glyph glyph-name="acute" unicode="&#xb4;" horiz-adv-x="277" 
d="M39 522l80 187h117l-88 -187h-109z" />
    <glyph glyph-name="uni00B5" unicode="&#xb5;" horiz-adv-x="592" 
d="M57 -143v617h135v-294q0 -48 23 -69.5t69 -21.5q35 0 64.5 14t50.5 35v336h135v-474h-125l-5 45q-30 -24 -70.5 -39.5t-96.5 -15.5q-12 0 -24.5 2.5t-20.5 5.5v-141h-135z" />
    <glyph glyph-name="paragraph" unicode="&#xb6;" horiz-adv-x="636" 
d="M278 -77v330q-68 0 -122.5 21.5t-86.5 70.5t-32 132t33 134.5t91.5 75t132.5 23.5h324v-787h-135v683h-70v-683h-135z" />
    <glyph glyph-name="periodcentered" unicode="&#xb7;" horiz-adv-x="184" 
d="M37 235v101h110v-101h-110z" />
    <glyph glyph-name="cedilla" unicode="&#xb8;" horiz-adv-x="273" 
d="M103 -240q-17 0 -41 2.5t-35 5.5v68q29 -8 61 -8q44 0 62 6.5t18 30.5q0 26 -21 31.5t-56 5.5h-44l29 98h88l-15 -45q53 0 79.5 -24.5t26.5 -66.5q0 -49 -36.5 -76.5t-115.5 -27.5z" />
    <glyph glyph-name="uni00B9" unicode="&#xb9;" horiz-adv-x="194" 
d="M84 370v195l-69 -14v71l162 32v-284h-93z" />
    <glyph glyph-name="ordmasculine" unicode="&#xba;" horiz-adv-x="361" 
d="M180 380q-143 0 -143 137t143 137q144 0 144 -137t-144 -137zM180 440q34 0 48 19t14 58t-14 57.5t-48 18.5q-33 0 -47.5 -18.5t-14.5 -57.5t14 -58t48 -19z" />
    <glyph glyph-name="guillemotright" unicode="&#xbb;" horiz-adv-x="639" 
d="M339 66l-52 75l194 144l-194 144l52 76l262 -193v-53zM89 66l-52 75l194 144l-194 144l52 76l262 -193v-53z" />
    <glyph glyph-name="onequarter" unicode="&#xbc;" horiz-adv-x="657" 
d="M106 370v195l-69 -14v71l162 32v-284h-93zM89 0l339 644h128l-340 -644h-127zM497 0v50h-139v61l136 173h95v-170h30v-64h-30v-50h-92zM448 115h70v92z" />
    <glyph glyph-name="onehalf" unicode="&#xbd;" horiz-adv-x="673" 
d="M106 370v195l-69 -14v71l162 32v-284h-93zM89 0l339 644h128l-340 -644h-127zM387 0v44q16 23 33 38t39 33q33 27 47 38.5t14 26.5q0 17 -12 24.5t-40 7.5q-18 0 -37.5 -4.5t-36.5 -11.5v71q17 6 46.5 11.5t58.5 5.5q56 0 85 -24.5t29 -59.5q0 -28 -11 -47t-37 -43
q-14 -13 -22.5 -19.5t-21.5 -18.5h94v-72h-228z" />
    <glyph glyph-name="threequarters" unicode="&#xbe;" horiz-adv-x="679" 
d="M136 362q-24 0 -54 4t-45 10v63q18 -7 37.5 -10.5t37.5 -3.5q32 0 46 6t14 21q0 29 -52 29h-42l5 56h34q49 0 49 30q0 13 -15 18t-39 5q-19 0 -37.5 -4t-32.5 -10v64q14 5 40.5 9.5t54.5 4.5q68 0 97 -23t29 -58q0 -21 -8.5 -38t-28.5 -26q23 -7 33 -22.5t10 -38.5
q0 -86 -133 -86zM89 0l339 644h128l-340 -644h-127zM497 0v50h-139v61l136 173h95v-170h30v-64h-30v-50h-92zM448 115h70v92z" />
    <glyph glyph-name="questiondown" unicode="&#xbf;" horiz-adv-x="497" 
d="M216 375v99h142v-99h-142zM268 -180q-113 0 -171.5 50t-58.5 137q0 57 25 91t68 69q40 32 64 56.5t24 65.5v15h135v-20q0 -40 -18 -69t-44.5 -52.5t-53.5 -44.5t-45 -44t-18 -53q0 -47 29.5 -66t99.5 -19q40 0 83 10.5t73 25.5v-114q-35 -17 -85.5 -27.5t-106.5 -10.5z
" />
    <glyph glyph-name="Agrave" unicode="&#xc0;" horiz-adv-x="713" 
d="M300 688l-88 187h117l80 -187h-109zM37 0l246 644h148l245 -644h-140l-61 155h-237l-60 -155h-141zM258 259h197l-99 259z" />
    <glyph glyph-name="Aacute" unicode="&#xc1;" horiz-adv-x="713" 
d="M297 688l80 187h117l-88 -187h-109zM37 0l246 644h148l245 -644h-140l-61 155h-237l-60 -155h-141zM258 259h197l-99 259z" />
    <glyph glyph-name="Acircumflex" unicode="&#xc2;" horiz-adv-x="713" 
d="M178 688l135 174h86l135 -174h-104l-74 100l-72 -100h-106zM37 0l246 644h148l245 -644h-140l-61 155h-237l-60 -155h-141zM258 259h197l-99 259z" />
    <glyph glyph-name="Atilde" unicode="&#xc3;" horiz-adv-x="713" 
d="M442 689q-29 0 -57 10t-53.5 20t-50.5 10q-56 0 -90 -37v96q14 14 37.5 22.5t49.5 8.5q31 0 57 -10t51 -20t53 -10q56 0 83 38v-96q-10 -13 -31 -22.5t-49 -9.5zM37 0l246 644h148l245 -644h-140l-61 155h-237l-60 -155h-141zM258 259h197l-99 259z" />
    <glyph glyph-name="Adieresis" unicode="&#xc4;" horiz-adv-x="713" 
d="M205 712v98h106v-98h-106zM401 712v98h106v-98h-106zM37 0l246 644h148l245 -644h-140l-61 155h-237l-60 -155h-141zM258 259h197l-99 259z" />
    <glyph glyph-name="Aring" unicode="&#xc5;" horiz-adv-x="713" 
d="M37 0l237 621q-42 34 -42 93q0 50 33.5 85t90.5 35q59 0 92 -35t33 -85q0 -59 -42 -92l237 -622h-140l-61 155h-237l-60 -155h-141zM356 657q28 0 43.5 16.5t15.5 40.5t-15.5 40.5t-43.5 16.5q-26 0 -42 -16.5t-16 -40.5t16 -40.5t42 -16.5zM258 259h197l-99 259z" />
    <glyph glyph-name="AE" unicode="&#xc6;" horiz-adv-x="849" 
d="M37 0l246 644h529v-105h-274v-165h237v-104h-237v-166h274v-104h-409v156h-160l-60 -156h-146zM274 260h129v284h-26z" />
    <glyph glyph-name="Ccedilla" unicode="&#xc7;" horiz-adv-x="600" 
d="M348 -240q-17 0 -41 2.5t-35 5.5v68q29 -8 61 -8q44 0 62 6.5t18 30.5q0 26 -21 31.5t-56 5.5h-44l27 91q-137 14 -209.5 99.5t-72.5 223.5q0 160 83.5 249t249.5 89q58 0 104.5 -8.5t87.5 -23.5v-118q-85 35 -182 35q-110 0 -158 -55t-48 -168q0 -212 208 -212
q47 0 93 8.5t88 25.5v-119q-35 -11 -73.5 -18.5t-83.5 -9.5l-12 -36q53 0 79.5 -24.5t26.5 -66.5q0 -49 -36.5 -76.5t-115.5 -27.5z" />
    <glyph glyph-name="Egrave" unicode="&#xc8;" horiz-adv-x="556" 
d="M249 688l-88 187h117l80 -187h-109zM57 0v644h462v-105h-327v-165h290v-104h-290v-166h327v-104h-462z" />
    <glyph glyph-name="Eacute" unicode="&#xc9;" horiz-adv-x="556" 
d="M222 688l80 187h117l-88 -187h-109zM57 0v644h462v-105h-327v-165h290v-104h-290v-166h327v-104h-462z" />
    <glyph glyph-name="Ecircumflex" unicode="&#xca;" horiz-adv-x="556" 
d="M109 688l135 174h86l135 -174h-104l-74 100l-72 -100h-106zM57 0v644h462v-105h-327v-165h290v-104h-290v-166h327v-104h-462z" />
    <glyph glyph-name="Edieresis" unicode="&#xcb;" horiz-adv-x="556" 
d="M141 713v98h106v-98h-106zM337 713v98h106v-98h-106zM57 0v644h462v-105h-327v-165h290v-104h-290v-166h327v-104h-462z" />
    <glyph glyph-name="Igrave" unicode="&#xcc;" horiz-adv-x="249" 
d="M69 688l-88 187h117l80 -187h-109zM57 0v644h135v-644h-135z" />
    <glyph glyph-name="Iacute" unicode="&#xcd;" horiz-adv-x="250" 
d="M70 688l80 187h117l-88 -187h-109zM57 0v644h135v-644h-135z" />
    <glyph glyph-name="Icircumflex" unicode="&#xce;" horiz-adv-x="250" 
d="M-53 688l135 174h86l135 -174h-104l-74 100l-72 -100h-106zM57 0v644h135v-644h-135z" />
    <glyph glyph-name="Idieresis" unicode="&#xcf;" horiz-adv-x="249" 
d="M-26 718v98h106v-98h-106zM170 718v98h106v-98h-106zM57 0v644h135v-644h-135z" />
    <glyph glyph-name="Eth" unicode="&#xd0;" horiz-adv-x="705" 
d="M106 0v264h-68v104h68v276h270q145 0 218.5 -74.5t73.5 -250.5q0 -166 -72.5 -242.5t-219.5 -76.5h-270zM241 104h116q57 0 96 17.5t58.5 64t19.5 133.5t-18 133t-56 63t-100 17h-116v-164h149v-104h-149v-160z" />
    <glyph glyph-name="Ntilde" unicode="&#xd1;" horiz-adv-x="671" 
d="M429 700q-29 0 -57 10t-53.5 20t-50.5 10q-56 0 -90 -37v96q14 14 37.5 22.5t49.5 8.5q31 0 57 -10t51 -20t53 -10q56 0 83 38v-96q-10 -13 -31 -22.5t-49 -9.5zM57 0v644h117l305 -429v429h135v-644h-117l-305 429v-429h-135z" />
    <glyph glyph-name="Ograve" unicode="&#xd2;" horiz-adv-x="700" 
d="M301 688l-88 187h117l80 -187h-109zM350 -10q-313 0 -313 329q0 177 79 256t234 79t234 -79t79 -256q0 -329 -313 -329zM350 105q91 0 133.5 52.5t42.5 161.5q0 121 -42.5 170.5t-133.5 49.5t-133.5 -49.5t-42.5 -170.5q0 -109 42.5 -161.5t133.5 -52.5z" />
    <glyph glyph-name="Oacute" unicode="&#xd3;" horiz-adv-x="700" 
d="M288 688l80 187h117l-88 -187h-109zM350 -10q-313 0 -313 329q0 177 79 256t234 79t234 -79t79 -256q0 -329 -313 -329zM350 105q91 0 133.5 52.5t42.5 161.5q0 121 -42.5 170.5t-133.5 49.5t-133.5 -49.5t-42.5 -170.5q0 -109 42.5 -161.5t133.5 -52.5z" />
    <glyph glyph-name="Ocircumflex" unicode="&#xd4;" horiz-adv-x="700" 
d="M172 688l135 174h86l135 -174h-104l-74 100l-72 -100h-106zM350 -10q-313 0 -313 329q0 177 79 256t234 79t234 -79t79 -256q0 -329 -313 -329zM350 105q91 0 133.5 52.5t42.5 161.5q0 121 -42.5 170.5t-133.5 49.5t-133.5 -49.5t-42.5 -170.5q0 -109 42.5 -161.5
t133.5 -52.5z" />
    <glyph glyph-name="Otilde" unicode="&#xd5;" horiz-adv-x="700" 
d="M436 710q-29 0 -57 10t-53.5 20t-50.5 10q-56 0 -90 -37v96q14 14 37.5 22.5t49.5 8.5q31 0 57 -10t51 -20t53 -10q56 0 83 38v-96q-10 -13 -31 -22.5t-49 -9.5zM350 -10q-313 0 -313 329q0 177 79 256t234 79t234 -79t79 -256q0 -329 -313 -329zM350 105
q91 0 133.5 52.5t42.5 161.5q0 121 -42.5 170.5t-133.5 49.5t-133.5 -49.5t-42.5 -170.5q0 -109 42.5 -161.5t133.5 -52.5z" />
    <glyph glyph-name="Odieresis" unicode="&#xd6;" horiz-adv-x="700" 
d="M199 713v98h106v-98h-106zM395 713v98h106v-98h-106zM350 -10q-313 0 -313 329q0 177 79 256t234 79t234 -79t79 -256q0 -329 -313 -329zM350 105q91 0 133.5 52.5t42.5 161.5q0 121 -42.5 170.5t-133.5 49.5t-133.5 -49.5t-42.5 -170.5q0 -109 42.5 -161.5t133.5 -52.5z
" />
    <glyph glyph-name="multiply" unicode="&#xd7;" horiz-adv-x="418" 
d="M315 78l-105 105l-101 -100l-68 67l101 101l-105 104l67 67l103 -105l106 104l67 -67l-105 -105l105 -105z" />
    <glyph glyph-name="Oslash" unicode="&#xd8;" horiz-adv-x="700" 
d="M161 -53l28 73q-152 69 -152 299q0 177 79 256t234 79q42 0 78 -6l17 45h77l-24 -63q82 -31 123.5 -107t41.5 -204q0 -329 -313 -329q-51 0 -93 9l-19 -52h-77zM234 140l151 397q-8 1 -17 1.5t-18 0.5q-91 0 -133.5 -49.5t-42.5 -170.5q0 -129 60 -179zM350 105
q91 0 133.5 52.5t42.5 161.5q0 78 -17.5 125.5t-54.5 70.5l-154 -406q11 -2 24 -3t26 -1z" />
    <glyph glyph-name="Ugrave" unicode="&#xd9;" horiz-adv-x="679" 
d="M297 688l-88 187h117l80 -187h-109zM340 -10q-133 0 -210.5 64.5t-77.5 187.5v402h135v-392q0 -74 40 -110.5t113 -36.5t112.5 36.5t39.5 110.5v392h135v-402q0 -123 -77 -187.5t-210 -64.5z" />
    <glyph glyph-name="Uacute" unicode="&#xda;" horiz-adv-x="679" 
d="M281 688l80 187h117l-88 -187h-109zM340 -10q-133 0 -210.5 64.5t-77.5 187.5v402h135v-392q0 -74 40 -110.5t113 -36.5t112.5 36.5t39.5 110.5v392h135v-402q0 -123 -77 -187.5t-210 -64.5z" />
    <glyph glyph-name="Ucircumflex" unicode="&#xdb;" horiz-adv-x="679" 
d="M162 688l135 174h86l135 -174h-104l-74 100l-72 -100h-106zM340 -10q-133 0 -210.5 64.5t-77.5 187.5v402h135v-392q0 -74 40 -110.5t113 -36.5t112.5 36.5t39.5 110.5v392h135v-402q0 -123 -77 -187.5t-210 -64.5z" />
    <glyph glyph-name="Udieresis" unicode="&#xdc;" horiz-adv-x="679" 
d="M189 713v98h106v-98h-106zM385 713v98h106v-98h-106zM340 -10q-133 0 -210.5 64.5t-77.5 187.5v402h135v-392q0 -74 40 -110.5t113 -36.5t112.5 36.5t39.5 110.5v392h135v-402q0 -123 -77 -187.5t-210 -64.5z" />
    <glyph glyph-name="Yacute" unicode="&#xdd;" horiz-adv-x="671" 
d="M273 688l80 187h117l-88 -187h-109zM268 0v238l-231 406h141l158 -291l158 291h140l-231 -406v-238h-135z" />
    <glyph glyph-name="Thorn" unicode="&#xde;" horiz-adv-x="617" 
d="M57 0v644h135v-102h167q76 0 124.5 -29t72.5 -79t24 -114q0 -66 -27.5 -115.5t-78 -77t-119.5 -27.5h-163v-100h-135zM192 207h135q58 0 87.5 30.5t29.5 82.5q0 56 -28 85.5t-84 29.5h-140v-228z" />
    <glyph glyph-name="germandbls" unicode="&#xdf;" horiz-adv-x="634" 
d="M388 -10q-81 0 -144 23v114q50 -22 117 -22q44 0 71.5 23t27.5 66q0 51 -27 73.5t-83 22.5h-73v104h70q53 0 76.5 25t23.5 72q0 41 -29 67.5t-103 26.5q-61 0 -98 -33t-37 -106v-446h-128v448q0 72 32.5 129t92 90t138.5 33q86 0 143.5 -29.5t86 -77t28.5 -102.5
q0 -53 -21 -92t-55 -57q46 -16 73 -57t27 -98q0 -93 -54 -145t-155 -52z" />
    <glyph glyph-name="agrave" unicode="&#xe0;" horiz-adv-x="554" 
d="M242 522l-88 187h117l80 -187h-109zM206 -10q-45 0 -83.5 16.5t-62 49t-23.5 81.5q0 70 49.5 112t146.5 42h140v13q0 44 -24.5 62t-98.5 18q-81 0 -156 -25v95q33 13 80.5 21.5t103.5 8.5q107 0 165.5 -43.5t58.5 -139.5v-301h-117l-7 43q-28 -25 -69 -39t-103 -14z
M243 79q45 0 78 15t52 38v75h-137q-79 0 -79 -65q0 -63 86 -63z" />
    <glyph glyph-name="aacute" unicode="&#xe1;" horiz-adv-x="554" 
d="M229 522l80 187h117l-88 -187h-109zM206 -10q-45 0 -83.5 16.5t-62 49t-23.5 81.5q0 70 49.5 112t146.5 42h140v13q0 44 -24.5 62t-98.5 18q-81 0 -156 -25v95q33 13 80.5 21.5t103.5 8.5q107 0 165.5 -43.5t58.5 -139.5v-301h-117l-7 43q-28 -25 -69 -39t-103 -14z
M243 79q45 0 78 15t52 38v75h-137q-79 0 -79 -65q0 -63 86 -63z" />
    <glyph glyph-name="acircumflex" unicode="&#xe2;" horiz-adv-x="562" 
d="M119 522l135 174h86l135 -174h-104l-74 100l-72 -100h-106zM214 -10q-45 0 -83.5 16.5t-62 49t-23.5 81.5q0 70 49.5 112t146.5 42h140v13q0 44 -24.5 62t-98.5 18q-81 0 -156 -25v95q33 13 80.5 21.5t103.5 8.5q107 0 165.5 -43.5t58.5 -139.5v-301h-117l-7 43
q-28 -25 -69 -39t-103 -14zM251 79q45 0 78 15t52 38v75h-137q-79 0 -79 -65q0 -63 86 -63z" />
    <glyph glyph-name="atilde" unicode="&#xe3;" horiz-adv-x="554" 
d="M383 534q-29 0 -57 10t-53.5 20t-50.5 10q-56 0 -90 -37v96q14 14 37.5 22.5t49.5 8.5q31 0 57 -10t51 -20t53 -10q56 0 83 38v-96q-10 -13 -31 -22.5t-49 -9.5zM206 -10q-45 0 -83.5 16.5t-62 49t-23.5 81.5q0 70 49.5 112t146.5 42h140v13q0 44 -24.5 62t-98.5 18
q-81 0 -156 -25v95q33 13 80.5 21.5t103.5 8.5q107 0 165.5 -43.5t58.5 -139.5v-301h-117l-7 43q-28 -25 -69 -39t-103 -14zM243 79q45 0 78 15t52 38v75h-137q-79 0 -79 -65q0 -63 86 -63z" />
    <glyph glyph-name="adieresis" unicode="&#xe4;" horiz-adv-x="554" 
d="M146 547v98h106v-98h-106zM342 547v98h106v-98h-106zM206 -10q-45 0 -83.5 16.5t-62 49t-23.5 81.5q0 70 49.5 112t146.5 42h140v13q0 44 -24.5 62t-98.5 18q-81 0 -156 -25v95q33 13 80.5 21.5t103.5 8.5q107 0 165.5 -43.5t58.5 -139.5v-301h-117l-7 43
q-28 -25 -69 -39t-103 -14zM243 79q45 0 78 15t52 38v75h-137q-79 0 -79 -65q0 -63 86 -63z" />
    <glyph glyph-name="aring" unicode="&#xe5;" horiz-adv-x="554" 
d="M301 522q-57 0 -90.5 34.5t-33.5 84.5t33.5 85t90.5 35q59 0 92 -35t33 -85t-33 -84.5t-92 -34.5zM301 584q28 0 43.5 16.5t15.5 40.5t-15.5 40.5t-43.5 16.5q-26 0 -42 -16.5t-16 -40.5t16 -40.5t42 -16.5zM206 -10q-45 0 -83.5 16.5t-62 49t-23.5 81.5q0 70 49.5 112
t146.5 42h140v13q0 44 -24.5 62t-98.5 18q-81 0 -156 -25v95q33 13 80.5 21.5t103.5 8.5q107 0 165.5 -43.5t58.5 -139.5v-301h-117l-7 43q-28 -25 -69 -39t-103 -14zM243 79q45 0 78 15t52 38v75h-137q-79 0 -79 -65q0 -63 86 -63z" />
    <glyph glyph-name="ae" unicode="&#xe6;" horiz-adv-x="882" 
d="M218 -10q-49 0 -90.5 16.5t-66 49t-24.5 81.5q0 70 49.5 112t146.5 42h140v13q0 44 -24.5 62t-98.5 18q-81 0 -156 -25v95q33 13 80.5 21.5t103.5 8.5q58 0 101 -12.5t71 -39.5q60 52 168 52q110 0 168.5 -57.5t58.5 -150.5v-86h-343q11 -57 52.5 -79.5t117.5 -22.5
q38 0 77.5 7t67.5 18v-93q-33 -15 -77 -22.5t-96 -7.5q-54 0 -109 19.5t-85 57.5q-29 -25 -61 -42t-72.5 -26t-98.5 -9zM502 273h225v26q0 41 -24 64.5t-81 23.5q-67 0 -93.5 -27t-26.5 -87zM243 79q45 0 76.5 13.5t53.5 35.5v79h-137q-79 0 -79 -65q0 -63 86 -63z" />
    <glyph glyph-name="ccedilla" unicode="&#xe7;" horiz-adv-x="497" 
d="M266 -240q-17 0 -41 2.5t-35 5.5v68q29 -8 61 -8q44 0 62 6.5t18 30.5q0 26 -21 31.5t-56 5.5h-44l27 92q-97 15 -148.5 76t-51.5 167q0 125 72.5 186t193.5 61q50 0 86 -7t70 -23v-97q-25 12 -58 19t-71 7q-76 0 -116 -31.5t-40 -114.5q0 -76 36.5 -111t118.5 -35
q35 0 68.5 7t62.5 21v-100q-58 -25 -136 -29l-12 -35q53 0 79.5 -24.5t26.5 -66.5q0 -49 -36.5 -76.5t-115.5 -27.5z" />
    <glyph glyph-name="egrave" unicode="&#xe8;" horiz-adv-x="542" 
d="M226 522l-88 187h117l80 -187h-109zM304 -10q-123 0 -195 61.5t-72 186.5q0 113 60.5 179.5t180.5 66.5q110 0 168.5 -57.5t58.5 -150.5v-86h-343q11 -57 52.5 -78t117.5 -21q38 0 77.5 7t67.5 18v-96q-33 -15 -77 -22.5t-96 -7.5zM162 273h225v26q0 41 -24 64.5
t-81 23.5q-67 0 -93.5 -27t-26.5 -87z" />
    <glyph glyph-name="eacute" unicode="&#xe9;" horiz-adv-x="542" 
d="M224 522l80 187h117l-88 -187h-109zM304 -10q-123 0 -195 61.5t-72 186.5q0 113 60.5 179.5t180.5 66.5q110 0 168.5 -57.5t58.5 -150.5v-86h-343q11 -57 52.5 -78t117.5 -21q38 0 77.5 7t67.5 18v-96q-33 -15 -77 -22.5t-96 -7.5zM162 273h225v26q0 41 -24 64.5
t-81 23.5q-67 0 -93.5 -27t-26.5 -87z" />
    <glyph glyph-name="ecircumflex" unicode="&#xea;" horiz-adv-x="542" 
d="M102 522l135 174h86l135 -174h-104l-74 100l-72 -100h-106zM304 -10q-123 0 -195 61.5t-72 186.5q0 113 60.5 179.5t180.5 66.5q110 0 168.5 -57.5t58.5 -150.5v-86h-343q11 -57 52.5 -78t117.5 -21q38 0 77.5 7t67.5 18v-96q-33 -15 -77 -22.5t-96 -7.5zM162 273h225v26
q0 41 -24 64.5t-81 23.5q-67 0 -93.5 -27t-26.5 -87z" />
    <glyph glyph-name="edieresis" unicode="&#xeb;" horiz-adv-x="542" 
d="M128 547v98h106v-98h-106zM324 547v98h106v-98h-106zM304 -10q-123 0 -195 61.5t-72 186.5q0 113 60.5 179.5t180.5 66.5q110 0 168.5 -57.5t58.5 -150.5v-86h-343q11 -57 52.5 -78t117.5 -21q38 0 77.5 7t67.5 18v-96q-33 -15 -77 -22.5t-96 -7.5zM162 273h225v26
q0 41 -24 64.5t-81 23.5q-67 0 -93.5 -27t-26.5 -87z" />
    <glyph glyph-name="igrave" unicode="&#xec;" horiz-adv-x="321" 
d="M137 522l-88 187h117l80 -187h-109zM128 0v374h-71l12 100h194v-474h-135z" />
    <glyph glyph-name="iacute" unicode="&#xed;" horiz-adv-x="294" 
d="M100 522l80 187h117l-88 -187h-109zM101 0v374h-71l12 100h194v-474h-135z" />
    <glyph glyph-name="icircumflex" unicode="&#xee;" horiz-adv-x="321" 
d="M-7 522l135 174h86l135 -174h-104l-74 100l-72 -100h-106zM128 0v374h-71l12 100h194v-474h-135z" />
    <glyph glyph-name="idieresis" unicode="&#xef;" horiz-adv-x="331" 
d="M24 547v98h106v-98h-106zM220 547v98h106v-98h-106zM138 0v374h-71l12 100h194v-474h-135z" />
    <glyph glyph-name="eth" unicode="&#xf0;" horiz-adv-x="573" 
d="M288 -10q-131 0 -191 56t-60 153q0 102 59 153t166 51q36 0 78 -11.5t74 -34.5v35q0 67 -17 107l-122 -53v60l87 37q-33 24 -94 24q-42 0 -77 -7t-67 -20v89q70 25 165 25q59 0 103 -17t75 -48l92 40v-60l-57 -25q39 -69 39 -169v-132q0 -129 -63.5 -191t-189.5 -62z
M287 80q127 0 127 131v64q-28 19 -61 31t-66 12q-71 0 -100 -31.5t-29 -87.5q0 -55 32.5 -87t96.5 -32z" />
    <glyph glyph-name="ntilde" unicode="&#xf1;" horiz-adv-x="587" 
d="M385 534q-29 0 -57 10t-53.5 20t-50.5 10q-56 0 -90 -37v96q14 14 37.5 22.5t49.5 8.5q31 0 57 -10t51 -20t53 -10q56 0 83 38v-96q-10 -13 -31 -22.5t-49 -9.5zM57 0v474h125l5 -45q29 22 73.5 38.5t93.5 16.5q94 0 137 -44t43 -136v-304h-135v297q0 48 -19.5 68
t-72.5 20q-31 0 -62.5 -14t-52.5 -35v-336h-135z" />
    <glyph glyph-name="ograve" unicode="&#xf2;" horiz-adv-x="589" 
d="M243 522l-88 187h117l80 -187h-109zM294 -10q-133 0 -195 64.5t-62 182.5t62.5 182.5t194.5 64.5q133 0 195.5 -64.5t62.5 -182.5t-62 -182.5t-196 -64.5zM294 105q65 0 93 29.5t28 102.5t-28 102.5t-93 29.5q-64 0 -92 -29.5t-28 -102.5t28 -102.5t92 -29.5z" />
    <glyph glyph-name="oacute" unicode="&#xf3;" horiz-adv-x="589" 
d="M232 522l80 187h117l-88 -187h-109zM294 -10q-133 0 -195 64.5t-62 182.5t62.5 182.5t194.5 64.5q133 0 195.5 -64.5t62.5 -182.5t-62 -182.5t-196 -64.5zM294 105q65 0 93 29.5t28 102.5t-28 102.5t-93 29.5q-64 0 -92 -29.5t-28 -102.5t28 -102.5t92 -29.5z" />
    <glyph glyph-name="ocircumflex" unicode="&#xf4;" horiz-adv-x="589" 
d="M116 522l135 174h86l135 -174h-104l-74 100l-72 -100h-106zM294 -10q-133 0 -195 64.5t-62 182.5t62.5 182.5t194.5 64.5q133 0 195.5 -64.5t62.5 -182.5t-62 -182.5t-196 -64.5zM294 105q65 0 93 29.5t28 102.5t-28 102.5t-93 29.5q-64 0 -92 -29.5t-28 -102.5
t28 -102.5t92 -29.5z" />
    <glyph glyph-name="otilde" unicode="&#xf5;" horiz-adv-x="589" 
d="M380 544q-29 0 -57 10t-53.5 20t-50.5 10q-56 0 -90 -37v96q14 14 37.5 22.5t49.5 8.5q31 0 57 -10t51 -20t53 -10q56 0 83 38v-96q-10 -13 -31 -22.5t-49 -9.5zM294 -10q-133 0 -195 64.5t-62 182.5t62.5 182.5t194.5 64.5q133 0 195.5 -64.5t62.5 -182.5t-62 -182.5
t-196 -64.5zM294 105q65 0 93 29.5t28 102.5t-28 102.5t-93 29.5q-64 0 -92 -29.5t-28 -102.5t28 -102.5t92 -29.5z" />
    <glyph glyph-name="odieresis" unicode="&#xf6;" horiz-adv-x="589" 
d="M143 547v98h106v-98h-106zM339 547v98h106v-98h-106zM294 -10q-133 0 -195 64.5t-62 182.5t62.5 182.5t194.5 64.5q133 0 195.5 -64.5t62.5 -182.5t-62 -182.5t-196 -64.5zM294 105q65 0 93 29.5t28 102.5t-28 102.5t-93 29.5q-64 0 -92 -29.5t-28 -102.5t28 -102.5
t92 -29.5z" />
    <glyph glyph-name="divide" unicode="&#xf7;" horiz-adv-x="460" 
d="M182 397v95h106v-95h-106zM42 219v105h386v-105h-386zM182 55v95h106v-95h-106z" />
    <glyph glyph-name="oslash" unicode="&#xf8;" horiz-adv-x="589" 
d="M142 -53l24 64q-66 26 -97.5 83.5t-31.5 142.5q0 118 62.5 182.5t194.5 64.5q27 0 51 -3l18 47h77l-24 -63q69 -25 102.5 -83.5t33.5 -144.5q0 -118 -62 -182.5t-196 -64.5q-16 0 -30 1t-28 3l-17 -47h-77zM210 126l92 243h-8q-64 0 -92 -29.5t-28 -102.5q0 -82 36 -111z
M279 105h15q65 0 93 29.5t28 102.5q0 87 -43 114z" />
    <glyph glyph-name="ugrave" unicode="&#xf9;" horiz-adv-x="587" 
d="M250 522l-88 187h117l80 -187h-109zM232 -10q-85 0 -132.5 47.5t-47.5 139.5v297h135v-294q0 -48 23 -69.5t69 -21.5q35 0 64.5 14t50.5 35v336h135v-474h-125l-5 45q-30 -24 -70.5 -39.5t-96.5 -15.5z" />
    <glyph glyph-name="uacute" unicode="&#xfa;" horiz-adv-x="587" 
d="M220 522l80 187h117l-88 -187h-109zM232 -10q-85 0 -132.5 47.5t-47.5 139.5v297h135v-294q0 -48 23 -69.5t69 -21.5q35 0 64.5 14t50.5 35v336h135v-474h-125l-5 45q-30 -24 -70.5 -39.5t-96.5 -15.5z" />
    <glyph glyph-name="ucircumflex" unicode="&#xfb;" horiz-adv-x="587" 
d="M112 522l135 174h86l135 -174h-104l-74 100l-72 -100h-106zM232 -10q-85 0 -132.5 47.5t-47.5 139.5v297h135v-294q0 -48 23 -69.5t69 -21.5q35 0 64.5 14t50.5 35v336h135v-474h-125l-5 45q-30 -24 -70.5 -39.5t-96.5 -15.5z" />
    <glyph glyph-name="udieresis" unicode="&#xfc;" horiz-adv-x="587" 
d="M139 547v98h106v-98h-106zM335 547v98h106v-98h-106zM232 -10q-85 0 -132.5 47.5t-47.5 139.5v297h135v-294q0 -48 23 -69.5t69 -21.5q35 0 64.5 14t50.5 35v336h135v-474h-125l-5 45q-30 -24 -70.5 -39.5t-96.5 -15.5z" />
    <glyph glyph-name="yacute" unicode="&#xfd;" horiz-adv-x="613" 
d="M254 522l80 187h117l-88 -187h-109zM181 -176q-31 0 -55 3.5t-47 12.5v95q17 -6 31.5 -8t29.5 -2q41 0 63.5 19t45.5 64l-212 466h141l139 -322l138 322h140l-187 -441q-26 -62 -56.5 -109.5t-71.5 -73.5t-99 -26z" />
    <glyph glyph-name="thorn" unicode="&#xfe;" horiz-adv-x="590" 
d="M57 -216v916h135v-252q28 18 64.5 27t76.5 9q104 0 162 -59t58 -187t-60.5 -188t-164.5 -60q-80 0 -136 36v-242h-135zM294 89q60 0 91 36t31 115q0 76 -28 110.5t-90 34.5t-106 -43v-217q21 -16 44.5 -26t57.5 -10z" />
    <glyph glyph-name="ydieresis" unicode="&#xff;" horiz-adv-x="613" 
d="M168 561v98h106v-98h-106zM364 561v98h106v-98h-106zM181 -176q-31 0 -55 3.5t-47 12.5v95q17 -6 31.5 -8t29.5 -2q41 0 63.5 19t45.5 64l-212 466h141l139 -322l138 322h140l-187 -441q-26 -62 -56.5 -109.5t-71.5 -73.5t-99 -26z" />
    <glyph glyph-name="Amacron" unicode="&#x100;" horiz-adv-x="713" 
d="M202 707v83h308v-83h-308zM37 0l246 644h148l245 -644h-140l-61 155h-237l-60 -155h-141zM258 259h197l-99 259z" />
    <glyph glyph-name="amacron" unicode="&#x101;" horiz-adv-x="554" 
d="M145 541v83h308v-83h-308zM206 -10q-45 0 -83.5 16.5t-62 49t-23.5 81.5q0 70 49.5 112t146.5 42h140v13q0 44 -24.5 62t-98.5 18q-81 0 -156 -25v95q33 13 80.5 21.5t103.5 8.5q107 0 165.5 -43.5t58.5 -139.5v-301h-117l-7 43q-28 -25 -69 -39t-103 -14zM243 79
q45 0 78 15t52 38v75h-137q-79 0 -79 -65q0 -63 86 -63z" />
    <glyph glyph-name="Abreve" unicode="&#x102;" horiz-adv-x="713" 
d="M356 688q-70 0 -113.5 42t-43.5 115h90q0 -31 16.5 -55t50.5 -24q35 0 52 24t17 55h90q0 -73 -44 -115t-115 -42zM37 0l246 644h148l245 -644h-140l-61 155h-237l-60 -155h-141zM258 259h197l-99 259z" />
    <glyph glyph-name="abreve" unicode="&#x103;" horiz-adv-x="554" 
d="M300 522q-70 0 -113.5 42t-43.5 115h90q0 -31 16.5 -55t50.5 -24q35 0 52 24t17 55h90q0 -73 -44 -115t-115 -42zM206 -10q-45 0 -83.5 16.5t-62 49t-23.5 81.5q0 70 49.5 112t146.5 42h140v13q0 44 -24.5 62t-98.5 18q-81 0 -156 -25v95q33 13 80.5 21.5t103.5 8.5
q107 0 165.5 -43.5t58.5 -139.5v-301h-117l-7 43q-28 -25 -69 -39t-103 -14zM243 79q45 0 78 15t52 38v75h-137q-79 0 -79 -65q0 -63 86 -63z" />
    <glyph glyph-name="Aogonek" unicode="&#x104;" horiz-adv-x="713" 
d="M37 0l246 644h148l245 -644h-18q-30 -22 -48.5 -48.5t-18.5 -55.5q0 -21 12.5 -29t32.5 -8q13 0 26.5 3t22.5 8v-76q-13 -6 -36.5 -10t-48.5 -4q-46 0 -80.5 22.5t-34.5 68.5q0 38 19 71.5t54 57.5h-22l-61 155h-237l-60 -155h-141zM258 259h197l-99 259z" />
    <glyph glyph-name="aogonek" unicode="&#x105;" horiz-adv-x="554" 
d="M206 -10q-45 0 -83.5 16.5t-62 49t-23.5 81.5q0 70 49.5 112t146.5 42h140v13q0 44 -24.5 62t-98.5 18q-81 0 -156 -25v95q33 13 80.5 21.5t103.5 8.5q107 0 165.5 -43.5t58.5 -139.5v-301h-17q-30 -22 -48.5 -48.5t-18.5 -55.5q0 -21 12.5 -29t32.5 -8q13 0 26.5 3
t22.5 8v-76q-13 -6 -36.5 -10t-48.5 -4q-46 0 -80.5 22.5t-34.5 68.5q0 38 19 71.5t54 57.5l-7 43q-28 -25 -69 -39t-103 -14zM243 79q45 0 78 15t52 38v75h-137q-79 0 -79 -65q0 -63 86 -63z" />
    <glyph glyph-name="Cacute" unicode="&#x106;" horiz-adv-x="600" 
d="M302 688l80 187h117l-88 -187h-109zM371 -10q-162 0 -248 87.5t-86 238.5q0 160 83.5 249t249.5 89q58 0 104.5 -8.5t87.5 -23.5v-118q-85 35 -182 35q-110 0 -158 -55t-48 -168q0 -212 208 -212q47 0 93 8.5t88 25.5v-119q-41 -13 -87.5 -21t-104.5 -8z" />
    <glyph glyph-name="cacute" unicode="&#x107;" horiz-adv-x="497" 
d="M225 522l80 187h117l-88 -187h-109zM299 -10q-127 0 -194.5 63t-67.5 184q0 125 72.5 186t193.5 61q50 0 86 -7t70 -23v-97q-25 12 -58 19t-71 7q-76 0 -116 -31.5t-40 -114.5q0 -76 36.5 -111t118.5 -35q35 0 68.5 7t62.5 21v-100q-67 -29 -161 -29z" />
    <glyph glyph-name="Ccircumflex" unicode="&#x108;" horiz-adv-x="600" 
d="M165 688l135 174h86l135 -174h-104l-74 100l-72 -100h-106zM371 -10q-162 0 -248 87.5t-86 238.5q0 160 83.5 249t249.5 89q58 0 104.5 -8.5t87.5 -23.5v-118q-85 35 -182 35q-110 0 -158 -55t-48 -168q0 -212 208 -212q47 0 93 8.5t88 25.5v-119q-41 -13 -87.5 -21
t-104.5 -8z" />
    <glyph glyph-name="ccircumflex" unicode="&#x109;" horiz-adv-x="497" 
d="M101 522l135 174h86l135 -174h-104l-74 100l-72 -100h-106zM299 -10q-127 0 -194.5 63t-67.5 184q0 125 72.5 186t193.5 61q50 0 86 -7t70 -23v-97q-25 12 -58 19t-71 7q-76 0 -116 -31.5t-40 -114.5q0 -76 36.5 -111t118.5 -35q35 0 68.5 7t62.5 21v-100
q-67 -29 -161 -29z" />
    <glyph glyph-name="Cdotaccent" unicode="&#x10a;" horiz-adv-x="600" 
d="M304 713v98h105v-98h-105zM371 -10q-162 0 -248 87.5t-86 238.5q0 160 83.5 249t249.5 89q58 0 104.5 -8.5t87.5 -23.5v-118q-85 35 -182 35q-110 0 -158 -55t-48 -168q0 -212 208 -212q47 0 93 8.5t88 25.5v-119q-41 -13 -87.5 -21t-104.5 -8z" />
    <glyph glyph-name="cdotaccent" unicode="&#x10b;" horiz-adv-x="497" 
d="M228 547v98h105v-98h-105zM299 -10q-127 0 -194.5 63t-67.5 184q0 125 72.5 186t193.5 61q50 0 86 -7t70 -23v-97q-25 12 -58 19t-71 7q-76 0 -116 -31.5t-40 -114.5q0 -76 36.5 -111t118.5 -35q35 0 68.5 7t62.5 21v-100q-67 -29 -161 -29z" />
    <glyph glyph-name="Ccaron" unicode="&#x10c;" horiz-adv-x="600" 
d="M330 688l-135 174h106l72 -100l74 100h104l-135 -174h-86zM371 -10q-162 0 -248 87.5t-86 238.5q0 160 83.5 249t249.5 89q58 0 104.5 -8.5t87.5 -23.5v-118q-85 35 -182 35q-110 0 -158 -55t-48 -168q0 -212 208 -212q47 0 93 8.5t88 25.5v-119q-41 -13 -87.5 -21
t-104.5 -8z" />
    <glyph glyph-name="ccaron" unicode="&#x10d;" horiz-adv-x="498" 
d="M240 522l-135 174h106l72 -100l74 100h104l-135 -174h-86zM299 -10q-127 0 -194.5 63t-67.5 184q0 125 72.5 186t193.5 61q50 0 86 -7t70 -23v-97q-25 12 -58 19t-71 7q-76 0 -116 -31.5t-40 -114.5q0 -76 36.5 -111t118.5 -35q35 0 68.5 7t62.5 21v-100
q-67 -29 -161 -29z" />
    <glyph glyph-name="Dcaron" unicode="&#x10e;" horiz-adv-x="656" 
d="M264 710l-135 174h106l72 -100l74 100h104l-135 -174h-86zM57 0v644h270q145 0 218.5 -74.5t73.5 -250.5q0 -166 -72.5 -242.5t-219.5 -76.5h-270zM192 104h116q57 0 96 17.5t58.5 64t19.5 133.5t-18 133t-56 63t-100 17h-116v-428z" />
    <glyph glyph-name="dcaron" unicode="&#x10f;" horiz-adv-x="735" 
d="M255 -10q-63 0 -112.5 22.5t-77.5 74t-28 136.5t31 143t83 88t114 30q78 0 133 -36v226h135v-674h-116l-8 44q-31 -27 -67.5 -40.5t-86.5 -13.5zM598 473l31 201h106l-50 -201h-87zM292 89q63 0 106 43v216q-42 37 -98 37q-126 0 -126 -162q0 -76 31 -105t87 -29z" />
    <glyph glyph-name="Dcroat" unicode="&#x110;" horiz-adv-x="705" 
d="M106 0v264h-68v104h68v276h270q145 0 218.5 -74.5t73.5 -250.5q0 -166 -72.5 -242.5t-219.5 -76.5h-270zM241 104h116q57 0 96 17.5t58.5 64t19.5 133.5t-18 133t-56 63t-100 17h-116v-164h149v-104h-149v-160z" />
    <glyph glyph-name="dcroat" unicode="&#x111;" horiz-adv-x="591" 
d="M255 -10q-63 0 -112.5 22.5t-77.5 74t-28 136.5t31 143t83 88t114 30q78 0 133 -36v79h-139v90h139v57h135v-57h51v-90h-51v-527h-116l-8 44q-31 -27 -67.5 -40.5t-86.5 -13.5zM292 89q63 0 106 43v216q-42 37 -98 37q-126 0 -126 -162q0 -76 31 -105t87 -29z" />
    <glyph glyph-name="Emacron" unicode="&#x112;" horiz-adv-x="556" 
d="M128 722v83h308v-83h-308zM57 0v644h462v-105h-327v-165h290v-104h-290v-166h327v-104h-462z" />
    <glyph glyph-name="emacron" unicode="&#x113;" horiz-adv-x="542" 
d="M134 556v83h308v-83h-308zM304 -10q-123 0 -195 61.5t-72 186.5q0 113 60.5 179.5t180.5 66.5q110 0 168.5 -57.5t58.5 -150.5v-86h-343q11 -57 52.5 -78t117.5 -21q38 0 77.5 7t67.5 18v-96q-33 -15 -77 -22.5t-96 -7.5zM162 273h225v26q0 41 -24 64.5t-81 23.5
q-67 0 -93.5 -27t-26.5 -87z" />
    <glyph glyph-name="Ebreve" unicode="&#x114;" horiz-adv-x="556" 
d="M295 688q-70 0 -113.5 42t-43.5 115h90q0 -31 16.5 -55t50.5 -24q35 0 52 24t17 55h90q0 -73 -44 -115t-115 -42zM57 0v644h462v-105h-327v-165h290v-104h-290v-166h327v-104h-462z" />
    <glyph glyph-name="ebreve" unicode="&#x115;" horiz-adv-x="542" 
d="M283 522q-70 0 -113.5 42t-43.5 115h90q0 -31 16.5 -55t50.5 -24q35 0 52 24t17 55h90q0 -73 -44 -115t-115 -42zM304 -10q-123 0 -195 61.5t-72 186.5q0 113 60.5 179.5t180.5 66.5q110 0 168.5 -57.5t58.5 -150.5v-86h-343q11 -57 52.5 -78t117.5 -21q38 0 77.5 7
t67.5 18v-96q-33 -15 -77 -22.5t-96 -7.5zM162 273h225v26q0 41 -24 64.5t-81 23.5q-67 0 -93.5 -27t-26.5 -87z" />
    <glyph glyph-name="Edotaccent" unicode="&#x116;" horiz-adv-x="556" 
d="M236 713v98h105v-98h-105zM57 0v644h462v-105h-327v-165h290v-104h-290v-166h327v-104h-462z" />
    <glyph glyph-name="edotaccent" unicode="&#x117;" horiz-adv-x="542" 
d="M229 547v98h105v-98h-105zM304 -10q-123 0 -195 61.5t-72 186.5q0 113 60.5 179.5t180.5 66.5q110 0 168.5 -57.5t58.5 -150.5v-86h-343q11 -57 52.5 -78t117.5 -21q38 0 77.5 7t67.5 18v-96q-33 -15 -77 -22.5t-96 -7.5zM162 273h225v26q0 41 -24 64.5t-81 23.5
q-67 0 -93.5 -27t-26.5 -87z" />
    <glyph glyph-name="Eogonek" unicode="&#x118;" horiz-adv-x="556" 
d="M57 0v644h462v-105h-327v-165h290v-104h-290v-166h327v-104h-43q-30 -22 -48.5 -48.5t-18.5 -55.5q0 -21 12.5 -29t32.5 -8q13 0 26.5 3t22.5 8v-76q-13 -6 -36.5 -10t-48.5 -4q-46 0 -80.5 22.5t-34.5 68.5q0 38 19 71.5t54 57.5h-319z" />
    <glyph glyph-name="eogonek" unicode="&#x119;" horiz-adv-x="542" 
d="M352 -220q-46 0 -80.5 22.5t-34.5 68.5q0 70 60 119q-120 2 -190 63.5t-70 184.5q0 113 60.5 179.5t180.5 66.5q110 0 168.5 -57.5t58.5 -150.5v-86h-343q11 -57 52.5 -78t117.5 -21q38 0 77.5 7t67.5 18v-96q-29 -13 -68 -21q-30 -22 -48 -48.5t-18 -54.5
q0 -21 12.5 -29t32.5 -8q13 0 26.5 3t22.5 8v-76q-13 -6 -36.5 -10t-48.5 -4zM162 273h225v26q0 41 -24 64.5t-81 23.5q-67 0 -93.5 -27t-26.5 -87z" />
    <glyph glyph-name="Ecaron" unicode="&#x11a;" horiz-adv-x="556" 
d="M254 688l-135 174h106l72 -100l74 100h104l-135 -174h-86zM57 0v644h462v-105h-327v-165h290v-104h-290v-166h327v-104h-462z" />
    <glyph glyph-name="ecaron" unicode="&#x11b;" horiz-adv-x="542" 
d="M245 522l-135 174h106l72 -100l74 100h104l-135 -174h-86zM304 -10q-123 0 -195 61.5t-72 186.5q0 113 60.5 179.5t180.5 66.5q110 0 168.5 -57.5t58.5 -150.5v-86h-343q11 -57 52.5 -78t117.5 -21q38 0 77.5 7t67.5 18v-96q-33 -15 -77 -22.5t-96 -7.5zM162 273h225v26
q0 41 -24 64.5t-81 23.5q-67 0 -93.5 -27t-26.5 -87z" />
    <glyph glyph-name="Gcircumflex" unicode="&#x11c;" horiz-adv-x="644" 
d="M182 688l135 174h86l135 -174h-104l-74 100l-72 -100h-106zM367 -10q-162 0 -246 85t-84 236q0 160 85 251.5t253 91.5q58 0 105 -6.5t89 -20.5v-116q-42 15 -88.5 21.5t-95.5 6.5q-115 0 -163 -56.5t-48 -171.5q0 -207 195 -207q34 0 66.5 5.5t57.5 14.5v150h-150v86
h264v-315q-33 -21 -92 -38t-148 -17z" />
    <glyph glyph-name="gcircumflex" unicode="&#x11d;" horiz-adv-x="562" 
d="M97 522l135 174h86l135 -174h-104l-74 100l-72 -100h-106zM257 -176q-53 0 -108.5 7t-93.5 20v101q40 -13 94 -20.5t101 -7.5q69 0 100 7.5t31 26.5q0 16 -13.5 22t-56.5 6h-129q-127 0 -127 94q0 29 16 53t51 38q-81 41 -81 138q0 92 57 133.5t169 41.5q23 0 50.5 -3.5
t41.5 -6.5h178l-3 -85h-75q31 -29 31 -81q0 -73 -46 -116.5t-136 -43.5q-16 0 -30.5 1.5t-29.5 3.5q-30 -4 -50.5 -14t-20.5 -27q0 -23 41 -23h134q72 0 111 -32.5t39 -94.5q0 -70 -63 -104t-182 -34zM268 224q60 0 83.5 20.5t23.5 69.5t-23.5 71t-83.5 22q-57 0 -82 -21.5
t-25 -71.5q0 -46 23.5 -68t83.5 -22z" />
    <glyph glyph-name="Gbreve" unicode="&#x11e;" horiz-adv-x="644" 
d="M368 688q-70 0 -113.5 42t-43.5 115h90q0 -31 16.5 -55t50.5 -24q35 0 52 24t17 55h90q0 -73 -44 -115t-115 -42zM367 -10q-162 0 -246 85t-84 236q0 160 85 251.5t253 91.5q58 0 105 -6.5t89 -20.5v-116q-42 15 -88.5 21.5t-95.5 6.5q-115 0 -163 -56.5t-48 -171.5
q0 -207 195 -207q34 0 66.5 5.5t57.5 14.5v150h-150v86h264v-315q-33 -21 -92 -38t-148 -17z" />
    <glyph glyph-name="gbreve" unicode="&#x11f;" horiz-adv-x="562" 
d="M270 522q-70 0 -113.5 42t-43.5 115h90q0 -31 16.5 -55t50.5 -24q35 0 52 24t17 55h90q0 -73 -44 -115t-115 -42zM257 -176q-53 0 -108.5 7t-93.5 20v101q40 -13 94 -20.5t101 -7.5q69 0 100 7.5t31 26.5q0 16 -13.5 22t-56.5 6h-129q-127 0 -127 94q0 29 16 53t51 38
q-81 41 -81 138q0 92 57 133.5t169 41.5q23 0 50.5 -3.5t41.5 -6.5h178l-3 -85h-75q31 -29 31 -81q0 -73 -46 -116.5t-136 -43.5q-16 0 -30.5 1.5t-29.5 3.5q-30 -4 -50.5 -14t-20.5 -27q0 -23 41 -23h134q72 0 111 -32.5t39 -94.5q0 -70 -63 -104t-182 -34zM268 224
q60 0 83.5 20.5t23.5 69.5t-23.5 71t-83.5 22q-57 0 -82 -21.5t-25 -71.5q0 -46 23.5 -68t83.5 -22z" />
    <glyph glyph-name="Gdotaccent" unicode="&#x120;" horiz-adv-x="644" 
d="M322 713v98h105v-98h-105zM367 -10q-162 0 -246 85t-84 236q0 160 85 251.5t253 91.5q58 0 105 -6.5t89 -20.5v-116q-42 15 -88.5 21.5t-95.5 6.5q-115 0 -163 -56.5t-48 -171.5q0 -207 195 -207q34 0 66.5 5.5t57.5 14.5v150h-150v86h264v-315q-33 -21 -92 -38t-148 -17
z" />
    <glyph glyph-name="gdotaccent" unicode="&#x121;" horiz-adv-x="562" 
d="M211 537v98h105v-98h-105zM257 -176q-53 0 -108.5 7t-93.5 20v101q40 -13 94 -20.5t101 -7.5q69 0 100 7.5t31 26.5q0 16 -13.5 22t-56.5 6h-129q-127 0 -127 94q0 29 16 53t51 38q-81 41 -81 138q0 92 57 133.5t169 41.5q23 0 50.5 -3.5t41.5 -6.5h178l-3 -85h-75
q31 -29 31 -81q0 -73 -46 -116.5t-136 -43.5q-16 0 -30.5 1.5t-29.5 3.5q-30 -4 -50.5 -14t-20.5 -27q0 -23 41 -23h134q72 0 111 -32.5t39 -94.5q0 -70 -63 -104t-182 -34zM268 224q60 0 83.5 20.5t23.5 69.5t-23.5 71t-83.5 22q-57 0 -82 -21.5t-25 -71.5q0 -46 23.5 -68
t83.5 -22z" />
    <glyph glyph-name="uni0122" unicode="&#x122;" horiz-adv-x="644" 
d="M367 -10q-162 0 -246 85t-84 236q0 160 85 251.5t253 91.5q58 0 105 -6.5t89 -20.5v-116q-42 15 -88.5 21.5t-95.5 6.5q-115 0 -163 -56.5t-48 -171.5q0 -207 195 -207q34 0 66.5 5.5t57.5 14.5v150h-150v86h264v-315q-33 -21 -92 -38t-148 -17zM296 -238l31 201h106
l-50 -201h-87z" />
    <glyph glyph-name="uni0123" unicode="&#x123;" horiz-adv-x="562" 
d="M213 522l50 201h87l-31 -201h-106zM257 -176q-53 0 -108.5 7t-93.5 20v101q40 -13 94 -20.5t101 -7.5q69 0 100 7.5t31 26.5q0 16 -13.5 22t-56.5 6h-129q-127 0 -127 94q0 29 16 53t51 38q-81 41 -81 138q0 92 57 133.5t169 41.5q23 0 50.5 -3.5t41.5 -6.5h178l-3 -85
h-75q31 -29 31 -81q0 -73 -46 -116.5t-136 -43.5q-16 0 -30.5 1.5t-29.5 3.5q-30 -4 -50.5 -14t-20.5 -27q0 -23 41 -23h134q72 0 111 -32.5t39 -94.5q0 -70 -63 -104t-182 -34zM268 224q60 0 83.5 20.5t23.5 69.5t-23.5 71t-83.5 22q-57 0 -82 -21.5t-25 -71.5
q0 -46 23.5 -68t83.5 -22z" />
    <glyph glyph-name="Hcircumflex" unicode="&#x124;" horiz-adv-x="665" 
d="M154 688l135 174h86l135 -174h-104l-74 100l-72 -100h-106zM57 0v644h135v-270h281v270h135v-644h-135v270h-281v-270h-135z" />
    <glyph glyph-name="hcircumflex" unicode="&#x125;" horiz-adv-x="587" 
d="M61 705l135 174h86l135 -174h-104l-74 100l-72 -100h-106zM57 0v674h135v-240q29 22 71 36t91 14q94 0 137 -44t43 -136v-304h-135v297q0 48 -19.5 68t-72.5 20q-31 0 -62.5 -14t-52.5 -35v-336h-135z" />
    <glyph glyph-name="Hbar" unicode="&#x126;" horiz-adv-x="666" 
d="M57 0v451h-41v105h41v88h135v-88h281v88h135v-88h42v-105h-42v-451h-135v270h-281v-270h-135zM192 374h281v77h-281v-77z" />
    <glyph glyph-name="hbar" unicode="&#x127;" horiz-adv-x="587" 
d="M57 0v529h-50v92h50v53h135v-53h134v-92h-134v-95q29 22 71 36t91 14q94 0 137 -44t43 -136v-304h-135v297q0 48 -19.5 68t-72.5 20q-31 0 -62.5 -14t-52.5 -35v-336h-135z" />
    <glyph glyph-name="Itilde" unicode="&#x128;" horiz-adv-x="250" 
d="M210 700q-29 0 -57 10t-53.5 20t-50.5 10q-56 0 -90 -37v96q14 14 37.5 22.5t49.5 8.5q31 0 57 -10t51 -20t53 -10q56 0 83 38v-96q-10 -13 -31 -22.5t-49 -9.5zM57 0v644h135v-644h-135z" />
    <glyph glyph-name="itilde" unicode="&#x129;" horiz-adv-x="321" 
d="M247 533q-29 0 -57 10t-53.5 20t-50.5 10q-56 0 -90 -37v96q14 14 37.5 22.5t49.5 8.5q31 0 57 -10t51 -20t53 -10q56 0 83 38v-96q-10 -13 -31 -22.5t-49 -9.5zM128 0v374h-71l12 100h194v-474h-135z" />
    <glyph glyph-name="Imacron" unicode="&#x12a;" horiz-adv-x="250" 
d="M-29 722v83h308v-83h-308zM57 0v644h135v-644h-135z" />
    <glyph glyph-name="imacron" unicode="&#x12b;" horiz-adv-x="321" 
d="M9 570v83h308v-83h-308zM128 0v374h-71l12 100h194v-474h-135z" />
    <glyph glyph-name="Ibreve" unicode="&#x12c;" horiz-adv-x="250" 
d="M124 701q-70 0 -113.5 42t-43.5 115h90q0 -31 16.5 -55t50.5 -24q35 0 52 24t17 55h90q0 -73 -44 -115t-115 -42zM57 0v644h135v-644h-135z" />
    <glyph glyph-name="ibreve" unicode="&#x12d;" horiz-adv-x="321" 
d="M167 522q-70 0 -113.5 42t-43.5 115h90q0 -31 16.5 -55t50.5 -24q35 0 52 24t17 55h90q0 -73 -44 -115t-115 -42zM128 0v374h-71l12 100h194v-474h-135z" />
    <glyph glyph-name="Iogonek" unicode="&#x12e;" horiz-adv-x="250" 
d="M57 0v644h135v-644h-13q-30 -22 -48.5 -48.5t-18.5 -55.5q0 -21 12.5 -29t32.5 -8q13 0 26.5 3t22.5 8v-76q-13 -6 -36.5 -10t-48.5 -4q-46 0 -80.5 22.5t-34.5 68.5q0 38 19 71.5t54 57.5h-22z" />
    <glyph glyph-name="iogonek" unicode="&#x12f;" horiz-adv-x="294" 
d="M90 561v106h147v-106h-147zM101 0v374h-71l12 100h194v-474h-11q-30 -22 -48.5 -48.5t-18.5 -55.5q0 -21 12.5 -29t32.5 -8q13 0 26.5 3t22.5 8v-76q-13 -6 -36.5 -10t-48.5 -4q-46 0 -80.5 22.5t-34.5 68.5q0 38 19 71.5t54 57.5h-24z" />
    <glyph glyph-name="Idotaccent" unicode="&#x130;" horiz-adv-x="249" 
d="M72 718v98h105v-98h-105zM57 0v644h135v-644h-135z" />
    <glyph glyph-name="dotlessi" unicode="&#x131;" horiz-adv-x="294" 
d="M101 0v374h-71l12 100h194v-474h-135z" />
    <glyph glyph-name="IJ" unicode="&#x132;" horiz-adv-x="674" 
d="M398 -10q-81 0 -144 23v114q50 -22 117 -22q62 0 88.5 25.5t26.5 83.5v430h135v-460q0 -194 -223 -194zM57 0v644h135v-644h-135z" />
    <glyph glyph-name="ij" unicode="&#x133;" horiz-adv-x="555" 
d="M90 561v106h147v-106h-147zM351 561v106h147v-106h-147zM334 -234q-63 0 -108 18v93q16 -5 31.5 -7.5t28.5 -2.5q41 0 59 16.5t18 52.5v438h-71l12 100h194v-551q0 -70 -40.5 -113.5t-123.5 -43.5zM101 0v374h-71l12 100h194v-474h-135z" />
    <glyph glyph-name="Jcircumflex" unicode="&#x134;" horiz-adv-x="436" 
d="M140 688l135 174h86l135 -174h-104l-74 100l-72 -100h-106zM161 -10q-81 0 -144 23v114q50 -22 117 -22q62 0 88.5 25.5t26.5 83.5v430h135v-460q0 -194 -223 -194z" />
    <glyph glyph-name="jcircumflex" unicode="&#x135;" horiz-adv-x="321" 
d="M-8 522l135 174h86l135 -174h-104l-74 100l-72 -100h-106zM99 -234q-63 0 -108 18v93q16 -5 31.5 -7.5t28.5 -2.5q41 0 59 16.5t18 52.5v438h-71l12 100h194v-551q0 -70 -40.5 -113.5t-123.5 -43.5z" />
    <glyph glyph-name="uni0136" unicode="&#x136;" horiz-adv-x="644" 
d="M57 0v644h135v-273l248 273h155l-233 -261l245 -383h-144l-185 297l-86 -93v-204h-135zM242 -238l31 201h106l-50 -201h-87z" />
    <glyph glyph-name="uni0137" unicode="&#x137;" horiz-adv-x="571" 
d="M57 0v674h135v-371l177 171h154l-191 -194l202 -280h-143l-144 209l-55 -53v-156h-135zM193 -238l31 201h106l-50 -201h-87z" />
    <glyph glyph-name="kgreenlandic" unicode="&#x138;" horiz-adv-x="571" 
d="M57 0v474h135v-187l177 187h154l-191 -206l202 -268h-143l-143 196l-56 -58v-138h-135z" />
    <glyph glyph-name="Lacute" unicode="&#x139;" horiz-adv-x="526" 
d="M73 688l80 187h117l-88 -187h-109zM57 0v644h135v-540h317v-104h-452z" />
    <glyph glyph-name="lacute" unicode="&#x13a;" horiz-adv-x="298" 
d="M73 737l80 187h117l-88 -187h-109zM189 -10q-69 0 -100.5 32t-31.5 102v550h135v-539q0 -25 10 -34.5t29 -9.5q26 0 47 7v-93q-38 -15 -89 -15z" />
    <glyph glyph-name="uni013B" unicode="&#x13b;" horiz-adv-x="526" 
d="M57 0v644h135v-540h317v-104h-452zM215 -238l31 201h106l-50 -201h-87z" />
    <glyph glyph-name="uni013C" unicode="&#x13c;" horiz-adv-x="298" 
d="M189 -10q-69 0 -100.5 32t-31.5 102v550h135v-539q0 -25 10 -34.5t29 -9.5q26 0 47 7v-93q-38 -15 -89 -15zM103 -238l31 201h106l-50 -201h-87z" />
    <glyph glyph-name="Lcaron" unicode="&#x13d;" horiz-adv-x="526" 
d="M57 0v644h135v-540h317v-104h-452zM322 443l31 201h106l-50 -201h-87z" />
    <glyph glyph-name="lcaron" unicode="&#x13e;" horiz-adv-x="386" 
d="M190 -10q-69 0 -100.5 32t-31.5 102v550h135v-539q0 -25 10 -34.5t29 -9.5q26 0 47 7v-93q-38 -15 -89 -15zM249 473l31 201h106l-50 -201h-87z" />
    <glyph glyph-name="Ldot" unicode="&#x13f;" horiz-adv-x="526" 
d="M57 0v644h135v-540h317v-104h-452zM339 276v98h105v-98h-105z" />
    <glyph glyph-name="ldot" unicode="&#x140;" horiz-adv-x="338" 
d="M189 -10q-69 0 -100.5 32t-31.5 102v550h135v-539q0 -25 10 -34.5t29 -9.5q26 0 47 7v-93q-38 -15 -89 -15zM243 281v98h105v-98h-105z" />
    <glyph glyph-name="Lslash" unicode="&#x141;" horiz-adv-x="526" 
d="M57 0v258l-75 -33v97l75 33v289h135v-230l125 55v-97l-125 -55v-213h317v-104h-452z" />
    <glyph glyph-name="lslash" unicode="&#x142;" horiz-adv-x="298" 
d="M189 -10q-69 0 -100.5 32t-31.5 102v144l-86 -37v97l86 37v309h135v-250l92 40v-97l-92 -40v-192q0 -25 10 -34.5t29 -9.5q26 0 47 7v-93q-38 -15 -89 -15z" />
    <glyph glyph-name="Nacute" unicode="&#x143;" horiz-adv-x="671" 
d="M270 688l80 187h117l-88 -187h-109zM57 0v644h117l305 -429v429h135v-644h-117l-305 429v-429h-135z" />
    <glyph glyph-name="nacute" unicode="&#x144;" horiz-adv-x="587" 
d="M223 522l80 187h117l-88 -187h-109zM57 0v474h125l5 -45q29 22 73.5 38.5t93.5 16.5q94 0 137 -44t43 -136v-304h-135v297q0 48 -19.5 68t-72.5 20q-31 0 -62.5 -14t-52.5 -35v-336h-135z" />
    <glyph glyph-name="uni0145" unicode="&#x145;" horiz-adv-x="671" 
d="M57 0v644h117l305 -429v429h135v-644h-117l-305 429v-429h-135zM260 -238l31 201h106l-50 -201h-87z" />
    <glyph glyph-name="uni0146" unicode="&#x146;" horiz-adv-x="587" 
d="M57 0v474h125l5 -45q29 22 73.5 38.5t93.5 16.5q94 0 137 -44t43 -136v-304h-135v297q0 48 -19.5 68t-72.5 20q-31 0 -62.5 -14t-52.5 -35v-336h-135zM223 -238l31 201h106l-50 -201h-87z" />
    <glyph glyph-name="Ncaron" unicode="&#x147;" horiz-adv-x="671" 
d="M295 688l-135 174h106l72 -100l74 100h104l-135 -174h-86zM57 0v644h117l305 -429v429h135v-644h-117l-305 429v-429h-135z" />
    <glyph glyph-name="ncaron" unicode="&#x148;" horiz-adv-x="587" 
d="M243 522l-135 174h106l72 -100l74 100h104l-135 -174h-86zM57 0v474h125l5 -45q29 22 73.5 38.5t93.5 16.5q94 0 137 -44t43 -136v-304h-135v297q0 48 -19.5 68t-72.5 20q-31 0 -62.5 -14t-52.5 -35v-336h-135z" />
    <glyph glyph-name="napostrophe" unicode="&#x149;" horiz-adv-x="612" 
d="M-67 445l31 201h106l-50 -201h-87zM82 0v474h125l5 -45q29 22 73.5 38.5t93.5 16.5q94 0 137 -44t43 -136v-304h-135v297q0 48 -19.5 68t-72.5 20q-31 0 -62.5 -14t-52.5 -35v-336h-135z" />
    <glyph glyph-name="Eng" unicode="&#x14a;" horiz-adv-x="671" 
d="M450 -234q-63 0 -108 18v93q16 -5 31.5 -7.5t28.5 -2.5q41 0 59 16.5t18 52.5v89l-287 404v-429h-135v644h117l305 -429v429h135v-721q0 -70 -40.5 -113.5t-123.5 -43.5z" />
    <glyph glyph-name="eng" unicode="&#x14b;" horiz-adv-x="587" 
d="M370 -234q-63 0 -108 18v93q16 -5 31.5 -7.5t28.5 -2.5q41 0 59 16.5t18 52.5v361q0 48 -19.5 68t-72.5 20q-31 0 -62.5 -14t-52.5 -35v-336h-135v474h125l5 -45q29 22 73.5 38.5t93.5 16.5q94 0 137 -44t43 -136v-381q0 -70 -40.5 -113.5t-123.5 -43.5z" />
    <glyph glyph-name="Omacron" unicode="&#x14c;" horiz-adv-x="700" 
d="M193 723v83h308v-83h-308zM350 -10q-313 0 -313 329q0 177 79 256t234 79t234 -79t79 -256q0 -329 -313 -329zM350 105q91 0 133.5 52.5t42.5 161.5q0 121 -42.5 170.5t-133.5 49.5t-133.5 -49.5t-42.5 -170.5q0 -109 42.5 -161.5t133.5 -52.5z" />
    <glyph glyph-name="omacron" unicode="&#x14d;" horiz-adv-x="589" 
d="M135 556v83h308v-83h-308zM294 -10q-133 0 -195 64.5t-62 182.5t62.5 182.5t194.5 64.5q133 0 195.5 -64.5t62.5 -182.5t-62 -182.5t-196 -64.5zM294 105q65 0 93 29.5t28 102.5t-28 102.5t-93 29.5q-64 0 -92 -29.5t-28 -102.5t28 -102.5t92 -29.5z" />
    <glyph glyph-name="Obreve" unicode="&#x14e;" horiz-adv-x="700" 
d="M350 688q-70 0 -113.5 42t-43.5 115h90q0 -31 16.5 -55t50.5 -24q35 0 52 24t17 55h90q0 -73 -44 -115t-115 -42zM350 -10q-313 0 -313 329q0 177 79 256t234 79t234 -79t79 -256q0 -329 -313 -329zM350 105q91 0 133.5 52.5t42.5 161.5q0 121 -42.5 170.5t-133.5 49.5
t-133.5 -49.5t-42.5 -170.5q0 -109 42.5 -161.5t133.5 -52.5z" />
    <glyph glyph-name="obreve" unicode="&#x14f;" horiz-adv-x="589" 
d="M294 522q-70 0 -113.5 42t-43.5 115h90q0 -31 16.5 -55t50.5 -24q35 0 52 24t17 55h90q0 -73 -44 -115t-115 -42zM294 -10q-133 0 -195 64.5t-62 182.5t62.5 182.5t194.5 64.5q133 0 195.5 -64.5t62.5 -182.5t-62 -182.5t-196 -64.5zM294 105q65 0 93 29.5t28 102.5
t-28 102.5t-93 29.5q-64 0 -92 -29.5t-28 -102.5t28 -102.5t92 -29.5z" />
    <glyph glyph-name="Ohungarumlaut" unicode="&#x150;" horiz-adv-x="700" 
d="M154 687l79 176h120l-92 -176h-107zM382 687l79 176h120l-92 -176h-107zM350 -10q-313 0 -313 329q0 177 79 256t234 79t234 -79t79 -256q0 -329 -313 -329zM350 105q91 0 133.5 52.5t42.5 161.5q0 121 -42.5 170.5t-133.5 49.5t-133.5 -49.5t-42.5 -170.5
q0 -109 42.5 -161.5t133.5 -52.5z" />
    <glyph glyph-name="ohungarumlaut" unicode="&#x151;" horiz-adv-x="589" 
d="M119 521l79 176h120l-92 -176h-107zM347 521l79 176h120l-92 -176h-107zM294 -10q-133 0 -195 64.5t-62 182.5t62.5 182.5t194.5 64.5q133 0 195.5 -64.5t62.5 -182.5t-62 -182.5t-196 -64.5zM294 105q65 0 93 29.5t28 102.5t-28 102.5t-93 29.5q-64 0 -92 -29.5
t-28 -102.5t28 -102.5t92 -29.5z" />
    <glyph glyph-name="OE" unicode="&#x152;" horiz-adv-x="1027" 
d="M350 -10q-313 0 -313 329q0 177 79 256t234 79q109 0 178 -37v27h462v-105h-327v-165h290v-104h-290v-166h327v-104h-462v29q-71 -39 -178 -39zM350 105q91 0 133.5 52.5t42.5 161.5q0 121 -42.5 170.5t-133.5 49.5t-133.5 -49.5t-42.5 -170.5q0 -109 42.5 -161.5
t133.5 -52.5z" />
    <glyph glyph-name="oe" unicode="&#x153;" horiz-adv-x="930" 
d="M294 -10q-133 0 -195 64.5t-62 182.5t62.5 182.5t194.5 64.5q66 0 114 -16t80 -48q30 31 74.5 47.5t103.5 16.5q110 0 168.5 -57.5t58.5 -150.5v-86h-343q11 -57 52.5 -78t117.5 -21q38 0 77.5 7t67.5 18v-96q-33 -15 -77 -22.5t-96 -7.5q-64 0 -114.5 16.5t-85.5 49.5
q-65 -66 -198 -66zM670 387q-67 0 -93.5 -26.5t-26.5 -83.5v-4h225v26q0 41 -24 64.5t-81 23.5zM294 105q65 0 93 29.5t28 102.5t-28 102.5t-93 29.5q-64 0 -92 -29.5t-28 -102.5t28 -102.5t92 -29.5z" />
    <glyph glyph-name="Racute" unicode="&#x154;" horiz-adv-x="618" 
d="M233 688l80 187h117l-88 -187h-109zM57 0v644h309q111 0 163 -58.5t52 -157.5q0 -65 -33.5 -112t-94.5 -68q16 -13 25.5 -28t19.5 -40l78 -180h-140l-76 173q-10 22 -22 31t-40 9h-106v-213h-135zM192 325h139q53 0 83 23.5t30 79.5q0 54 -26 79t-79 25h-147v-207z" />
    <glyph glyph-name="racute" unicode="&#x155;" horiz-adv-x="382" 
d="M110 522l80 187h117l-88 -187h-109zM61 0v474h125l6 -49q32 20 79.5 36.5t93.5 22.5v-102q-27 -4 -59 -12t-61 -18t-49 -21v-331h-135z" />
    <glyph glyph-name="uni0156" unicode="&#x156;" horiz-adv-x="618" 
d="M57 0v644h309q111 0 163 -58.5t52 -157.5q0 -65 -33.5 -112t-94.5 -68q16 -13 25.5 -28t19.5 -40l78 -180h-140l-76 173q-10 22 -22 31t-40 9h-106v-213h-135zM192 325h139q53 0 83 23.5t30 79.5q0 54 -26 79t-79 25h-147v-207zM215 -238l31 201h106l-50 -201h-87z" />
    <glyph glyph-name="uni0157" unicode="&#x157;" horiz-adv-x="378" 
d="M57 0v474h125l6 -49q32 20 79.5 36.5t93.5 22.5v-102q-27 -4 -59 -12t-61 -18t-49 -21v-331h-135zM39 -238l31 201h106l-50 -201h-87z" />
    <glyph glyph-name="Rcaron" unicode="&#x158;" horiz-adv-x="618" 
d="M258 688l-135 174h106l72 -100l74 100h104l-135 -174h-86zM57 0v644h309q111 0 163 -58.5t52 -157.5q0 -65 -33.5 -112t-94.5 -68q16 -13 25.5 -28t19.5 -40l78 -180h-140l-76 173q-10 22 -22 31t-40 9h-106v-213h-135zM192 325h139q53 0 83 23.5t30 79.5q0 54 -26 79
t-79 25h-147v-207z" />
    <glyph glyph-name="rcaron" unicode="&#x159;" horiz-adv-x="378" 
d="M164 522l-135 174h106l72 -100l74 100h104l-135 -174h-86zM57 0v474h125l6 -49q32 20 79.5 36.5t93.5 22.5v-102q-27 -4 -59 -12t-61 -18t-49 -21v-331h-135z" />
    <glyph glyph-name="Sacute" unicode="&#x15a;" horiz-adv-x="555" 
d="M212 694l80 187h117l-88 -187h-109zM257 -10q-62 0 -115.5 9t-92.5 26v119q44 -18 95 -29t100 -11q70 0 103 13t33 59q0 29 -14 46t-48.5 30.5t-97.5 30.5q-101 28 -142 70t-41 116q0 89 65 137t189 48q58 0 108 -8t81 -19v-119q-82 31 -171 31q-63 0 -99 -13.5
t-36 -56.5q0 -25 13 -40t44.5 -27t88.5 -27q79 -21 122 -50t59.5 -66t16.5 -83q0 -84 -64 -135t-197 -51z" />
    <glyph glyph-name="sacute" unicode="&#x15b;" horiz-adv-x="471" 
d="M172 522l80 187h117l-88 -187h-109zM224 -10q-53 0 -101 7.5t-77 18.5v112q35 -14 79 -21.5t81 -7.5q50 0 70.5 6t20.5 27q0 24 -31.5 35t-93.5 31q-65 22 -100 53t-35 92q0 68 49.5 104.5t159.5 36.5q44 0 83 -6.5t66 -15.5v-111q-27 13 -62 19.5t-65 6.5
q-43 0 -68.5 -6t-25.5 -26q0 -22 27.5 -31t85.5 -27q57 -17 89 -37t45 -47.5t13 -68.5q0 -144 -210 -144z" />
    <glyph glyph-name="Scircumflex" unicode="&#x15c;" horiz-adv-x="555" 
d="M92 704l135 174h86l135 -174h-104l-74 100l-72 -100h-106zM257 -10q-62 0 -115.5 9t-92.5 26v119q44 -18 95 -29t100 -11q70 0 103 13t33 59q0 29 -14 46t-48.5 30.5t-97.5 30.5q-101 28 -142 70t-41 116q0 89 65 137t189 48q58 0 108 -8t81 -19v-119q-82 31 -171 31
q-63 0 -99 -13.5t-36 -56.5q0 -25 13 -40t44.5 -27t88.5 -27q79 -21 122 -50t59.5 -66t16.5 -83q0 -84 -64 -135t-197 -51z" />
    <glyph glyph-name="scircumflex" unicode="&#x15d;" horiz-adv-x="471" 
d="M61 532l135 174h86l135 -174h-104l-74 100l-72 -100h-106zM224 -10q-53 0 -101 7.5t-77 18.5v112q35 -14 79 -21.5t81 -7.5q50 0 70.5 6t20.5 27q0 24 -31.5 35t-93.5 31q-65 22 -100 53t-35 92q0 68 49.5 104.5t159.5 36.5q44 0 83 -6.5t66 -15.5v-111q-27 13 -62 19.5
t-65 6.5q-43 0 -68.5 -6t-25.5 -26q0 -22 27.5 -31t85.5 -27q57 -17 89 -37t45 -47.5t13 -68.5q0 -144 -210 -144z" />
    <glyph glyph-name="Scedilla" unicode="&#x15e;" horiz-adv-x="555" 
d="M248 -240q-17 0 -41 2.5t-35 5.5v68q29 -8 61 -8q44 0 62 6.5t18 30.5q0 26 -21 31.5t-56 5.5h-44l26 89q-103 5 -169 34v119q44 -18 95 -29t100 -11q70 0 103 13t33 59q0 29 -14 46t-48.5 30.5t-97.5 30.5q-101 28 -142 70t-41 116q0 89 65 137t189 48q58 0 108 -8
t81 -19v-119q-82 31 -171 31q-63 0 -99 -13.5t-36 -56.5q0 -25 13 -40t44.5 -27t88.5 -27q79 -21 122 -50t59.5 -66t16.5 -83q0 -76 -52 -125t-160 -59l-12 -37q53 0 79.5 -24.5t26.5 -66.5q0 -49 -36.5 -76.5t-115.5 -27.5z" />
    <glyph glyph-name="scedilla" unicode="&#x15f;" horiz-adv-x="471" 
d="M216 -240q-17 0 -41 2.5t-35 5.5v68q29 -8 61 -8q44 0 62 6.5t18 30.5q0 26 -21 31.5t-56 5.5h-44l26 89q-42 2 -79 9t-61 16v112q35 -14 79 -21.5t81 -7.5q50 0 70.5 6t20.5 27q0 24 -31.5 35t-93.5 31q-65 22 -100 53t-35 92q0 68 49.5 104.5t159.5 36.5q44 0 83 -6.5
t66 -15.5v-111q-27 13 -62 19.5t-65 6.5q-43 0 -68.5 -6t-25.5 -26q0 -22 27.5 -31t85.5 -27q57 -17 89 -37t45 -47.5t13 -68.5q0 -125 -160 -142l-12 -37q53 0 79.5 -24.5t26.5 -66.5q0 -49 -36.5 -76.5t-115.5 -27.5z" />
    <glyph glyph-name="Scaron" unicode="&#x160;" horiz-adv-x="555" 
d="M242 688l-135 174h106l72 -100l74 100h104l-135 -174h-86zM257 -10q-62 0 -115.5 9t-92.5 26v119q44 -18 95 -29t100 -11q70 0 103 13t33 59q0 29 -14 46t-48.5 30.5t-97.5 30.5q-101 28 -142 70t-41 116q0 89 65 137t189 48q58 0 108 -8t81 -19v-119q-82 31 -171 31
q-63 0 -99 -13.5t-36 -56.5q0 -25 13 -40t44.5 -27t88.5 -27q79 -21 122 -50t59.5 -66t16.5 -83q0 -84 -64 -135t-197 -51z" />
    <glyph glyph-name="scaron" unicode="&#x161;" horiz-adv-x="471" 
d="M190 522l-135 174h106l72 -100l74 100h104l-135 -174h-86zM224 -10q-53 0 -101 7.5t-77 18.5v112q35 -14 79 -21.5t81 -7.5q50 0 70.5 6t20.5 27q0 24 -31.5 35t-93.5 31q-65 22 -100 53t-35 92q0 68 49.5 104.5t159.5 36.5q44 0 83 -6.5t66 -15.5v-111q-27 13 -62 19.5
t-65 6.5q-43 0 -68.5 -6t-25.5 -26q0 -22 27.5 -31t85.5 -27q57 -17 89 -37t45 -47.5t13 -68.5q0 -144 -210 -144z" />
    <glyph glyph-name="uni0162" unicode="&#x162;" horiz-adv-x="564" 
d="M215 0v540h-198v104h530v-104h-197v-540h-26l-15 -45q53 0 79.5 -24.5t26.5 -66.5q0 -49 -36.5 -76.5t-115.5 -27.5q-17 0 -41 2.5t-35 5.5v68q29 -8 61 -8q44 0 62 6.5t18 30.5q0 26 -21 31.5t-56 5.5h-44l29 98h-21z" />
    <glyph glyph-name="uni0163" unicode="&#x163;" horiz-adv-x="371" 
d="M222 -240q-17 0 -41 2.5t-35 5.5v68q29 -8 61 -8q44 0 62 6.5t18 30.5q0 26 -21 31.5t-56 5.5h-44l28 93q-56 13 -83 53t-27 102v220h-67v104h67v102l135 40v-142h120l-8 -104h-112v-211q0 -39 18 -53.5t56 -14.5q28 0 58 10v-93q-32 -13 -71 -16l-12 -37
q53 0 79.5 -24.5t26.5 -66.5q0 -49 -36.5 -76.5t-115.5 -27.5z" />
    <glyph glyph-name="Tcaron" unicode="&#x164;" horiz-adv-x="564" 
d="M239 704l-135 174h106l72 -100l74 100h104l-135 -174h-86zM215 0v540h-198v104h530v-104h-197v-540h-135z" />
    <glyph glyph-name="tcaron" unicode="&#x165;" horiz-adv-x="357" 
d="M324 559l31 201h106l-50 -201h-87zM245 -10q-82 0 -121.5 43t-39.5 117v220h-67v104h67v102l135 40v-142h120l-8 -104h-112v-211q0 -39 18 -53.5t56 -14.5q28 0 58 10v-93q-22 -9 -48 -13.5t-58 -4.5z" />
    <glyph glyph-name="Tbar" unicode="&#x166;" horiz-adv-x="564" 
d="M215 0v293h-122v99h122v148h-198v104h530v-104h-197v-148h113v-99h-113v-293h-135z" />
    <glyph glyph-name="tbar" unicode="&#x167;" horiz-adv-x="368" 
d="M17 195v91h67v84h-67v104h67v102l135 40v-142h120l-8 -104h-112v-84h121v-91h-121v-36q0 -39 18 -53.5t56 -14.5q28 0 58 10v-93q-22 -9 -48 -13.5t-58 -4.5q-82 0 -121.5 43t-39.5 117v45h-67z" />
    <glyph glyph-name="Utilde" unicode="&#x168;" horiz-adv-x="679" 
d="M425 700q-29 0 -57 10t-53.5 20t-50.5 10q-56 0 -90 -37v96q14 14 37.5 22.5t49.5 8.5q31 0 57 -10t51 -20t53 -10q56 0 83 38v-96q-10 -13 -31 -22.5t-49 -9.5zM340 -10q-133 0 -210.5 64.5t-77.5 187.5v402h135v-392q0 -74 40 -110.5t113 -36.5t112.5 36.5t39.5 110.5
v392h135v-402q0 -123 -77 -187.5t-210 -64.5z" />
    <glyph glyph-name="utilde" unicode="&#x169;" horiz-adv-x="587" 
d="M380 534q-29 0 -57 10t-53.5 20t-50.5 10q-56 0 -90 -37v96q14 14 37.5 22.5t49.5 8.5q31 0 57 -10t51 -20t53 -10q56 0 83 38v-96q-10 -13 -31 -22.5t-49 -9.5zM232 -10q-85 0 -132.5 47.5t-47.5 139.5v297h135v-294q0 -48 23 -69.5t69 -21.5q35 0 64.5 14t50.5 35v336
h135v-474h-125l-5 45q-30 -24 -70.5 -39.5t-96.5 -15.5z" />
    <glyph glyph-name="Umacron" unicode="&#x16a;" horiz-adv-x="679" 
d="M186 722v83h308v-83h-308zM340 -10q-133 0 -210.5 64.5t-77.5 187.5v402h135v-392q0 -74 40 -110.5t113 -36.5t112.5 36.5t39.5 110.5v392h135v-402q0 -123 -77 -187.5t-210 -64.5z" />
    <glyph glyph-name="umacron" unicode="&#x16b;" horiz-adv-x="587" 
d="M142 556v83h308v-83h-308zM232 -10q-85 0 -132.5 47.5t-47.5 139.5v297h135v-294q0 -48 23 -69.5t69 -21.5q35 0 64.5 14t50.5 35v336h135v-474h-125l-5 45q-30 -24 -70.5 -39.5t-96.5 -15.5z" />
    <glyph glyph-name="Ubreve" unicode="&#x16c;" horiz-adv-x="679" 
d="M334 688q-70 0 -113.5 42t-43.5 115h90q0 -31 16.5 -55t50.5 -24q35 0 52 24t17 55h90q0 -73 -44 -115t-115 -42zM340 -10q-133 0 -210.5 64.5t-77.5 187.5v402h135v-392q0 -74 40 -110.5t113 -36.5t112.5 36.5t39.5 110.5v392h135v-402q0 -123 -77 -187.5t-210 -64.5z
" />
    <glyph glyph-name="ubreve" unicode="&#x16d;" horiz-adv-x="587" 
d="M298 522q-70 0 -113.5 42t-43.5 115h90q0 -31 16.5 -55t50.5 -24q35 0 52 24t17 55h90q0 -73 -44 -115t-115 -42zM232 -10q-85 0 -132.5 47.5t-47.5 139.5v297h135v-294q0 -48 23 -69.5t69 -21.5q35 0 64.5 14t50.5 35v336h135v-474h-125l-5 45q-30 -24 -70.5 -39.5
t-96.5 -15.5z" />
    <glyph glyph-name="Uring" unicode="&#x16e;" horiz-adv-x="679" 
d="M339 688q-57 0 -90.5 34.5t-33.5 84.5t33.5 85t90.5 35q59 0 92 -35t33 -85t-33 -84.5t-92 -34.5zM339 750q28 0 43.5 16.5t15.5 40.5t-15.5 40.5t-43.5 16.5q-26 0 -42 -16.5t-16 -40.5t16 -40.5t42 -16.5zM340 -10q-133 0 -210.5 64.5t-77.5 187.5v402h135v-392
q0 -74 40 -110.5t113 -36.5t112.5 36.5t39.5 110.5v392h135v-402q0 -123 -77 -187.5t-210 -64.5z" />
    <glyph glyph-name="uring" unicode="&#x16f;" horiz-adv-x="587" 
d="M292 522q-57 0 -90.5 34.5t-33.5 84.5t33.5 85t90.5 35q59 0 92 -35t33 -85t-33 -84.5t-92 -34.5zM292 584q28 0 43.5 16.5t15.5 40.5t-15.5 40.5t-43.5 16.5q-26 0 -42 -16.5t-16 -40.5t16 -40.5t42 -16.5zM232 -10q-85 0 -132.5 47.5t-47.5 139.5v297h135v-294
q0 -48 23 -69.5t69 -21.5q35 0 64.5 14t50.5 35v336h135v-474h-125l-5 45q-30 -24 -70.5 -39.5t-96.5 -15.5z" />
    <glyph glyph-name="Uhungarumlaut" unicode="&#x170;" horiz-adv-x="679" 
d="M150 687l79 176h120l-92 -176h-107zM378 687l79 176h120l-92 -176h-107zM340 -10q-133 0 -210.5 64.5t-77.5 187.5v402h135v-392q0 -74 40 -110.5t113 -36.5t112.5 36.5t39.5 110.5v392h135v-402q0 -123 -77 -187.5t-210 -64.5z" />
    <glyph glyph-name="uhungarumlaut" unicode="&#x171;" horiz-adv-x="587" 
d="M98 521l79 176h120l-92 -176h-107zM326 521l79 176h120l-92 -176h-107zM232 -10q-85 0 -132.5 47.5t-47.5 139.5v297h135v-294q0 -48 23 -69.5t69 -21.5q35 0 64.5 14t50.5 35v336h135v-474h-125l-5 45q-30 -24 -70.5 -39.5t-96.5 -15.5z" />
    <glyph glyph-name="Uogonek" unicode="&#x172;" horiz-adv-x="679" 
d="M372 -220q-46 0 -80.5 22.5t-34.5 68.5q0 71 60 120q-123 5 -194 69t-71 182v402h135v-392q0 -74 40 -110.5t113 -36.5t112.5 36.5t39.5 110.5v392h135v-402q0 -101 -53 -163t-146 -81q-29 -22 -47 -48t-18 -54q0 -21 12.5 -29t32.5 -8q13 0 26.5 3t22.5 8v-76
q-13 -6 -36.5 -10t-48.5 -4z" />
    <glyph glyph-name="uogonek" unicode="&#x173;" horiz-adv-x="592" 
d="M232 -10q-85 0 -132.5 47.5t-47.5 139.5v297h135v-294q0 -48 23 -69.5t69 -21.5q35 0 64.5 14t50.5 35v336h135v-474h-25q-30 -22 -48.5 -48.5t-18.5 -55.5q0 -21 12.5 -29t32.5 -8q13 0 26.5 3t22.5 8v-76q-13 -6 -36.5 -10t-48.5 -4q-46 0 -80.5 22.5t-34.5 68.5
q0 38 19 71.5t54 57.5l-5 45q-30 -24 -70.5 -39.5t-96.5 -15.5z" />
    <glyph glyph-name="Wcircumflex" unicode="&#x174;" horiz-adv-x="875" 
d="M265 688l135 174h86l135 -174h-104l-74 100l-72 -100h-106zM187 0l-150 644h133l97 -435l105 351v84h110l124 -436l100 436h132l-149 -644h-128l-118 412l-127 -412h-129z" />
    <glyph glyph-name="wcircumflex" unicode="&#x175;" horiz-adv-x="757" 
d="M203 522l135 174h86l135 -174h-104l-74 100l-72 -100h-106zM162 0l-125 474h135l72 -308l79 247v61h103l90 -308l70 308h134l-124 -474h-124l-91 277l-93 -277h-126z" />
    <glyph glyph-name="Ycircumflex" unicode="&#x176;" horiz-adv-x="671" 
d="M158 688l135 174h86l135 -174h-104l-74 100l-72 -100h-106zM268 0v238l-231 406h141l158 -291l158 291h140l-231 -406v-238h-135z" />
    <glyph glyph-name="ycircumflex" unicode="&#x177;" horiz-adv-x="613" 
d="M140 522l135 174h86l135 -174h-104l-74 100l-72 -100h-106zM181 -176q-31 0 -55 3.5t-47 12.5v95q17 -6 31.5 -8t29.5 -2q41 0 63.5 19t45.5 64l-212 466h141l139 -322l138 322h140l-187 -441q-26 -62 -56.5 -109.5t-71.5 -73.5t-99 -26z" />
    <glyph glyph-name="Ydieresis" unicode="&#x178;" horiz-adv-x="671" 
d="M185 713v98h106v-98h-106zM381 713v98h106v-98h-106zM268 0v238l-231 406h141l158 -291l158 291h140l-231 -406v-238h-135z" />
    <glyph glyph-name="Zacute" unicode="&#x179;" horiz-adv-x="579" 
d="M241 688l80 187h117l-88 -187h-109zM37 0v70l324 462h-308v112h484v-82l-321 -458h326v-104h-505z" />
    <glyph glyph-name="zacute" unicode="&#x17a;" horiz-adv-x="489" 
d="M193 522l80 187h117l-88 -187h-109zM37 0v70l239 292h-229v112h398v-82l-234 -288h241v-104h-415z" />
    <glyph glyph-name="Zdotaccent" unicode="&#x17b;" horiz-adv-x="579" 
d="M252 713v98h105v-98h-105zM37 0v70l324 462h-308v112h484v-82l-321 -458h326v-104h-505z" />
    <glyph glyph-name="zdotaccent" unicode="&#x17c;" horiz-adv-x="489" 
d="M198 547v98h105v-98h-105zM37 0v70l239 292h-229v112h398v-82l-234 -288h241v-104h-415z" />
    <glyph glyph-name="Zcaron" unicode="&#x17d;" horiz-adv-x="579" 
d="M270 688l-135 174h106l72 -100l74 100h104l-135 -174h-86zM37 0v70l324 462h-308v112h484v-82l-321 -458h326v-104h-505z" />
    <glyph glyph-name="zcaron" unicode="&#x17e;" horiz-adv-x="489" 
d="M203 522l-135 174h106l72 -100l74 100h104l-135 -174h-86zM37 0v70l239 292h-229v112h398v-82l-234 -288h241v-104h-415z" />
    <glyph glyph-name="uni018F" unicode="&#x18f;" horiz-adv-x="679" 
d="M329 -10q-145 0 -218.5 75.5t-73.5 199.5v117h481q-4 65 -30.5 102t-79 53t-136.5 16q-30 0 -66.5 -5t-71 -14t-60.5 -20v99q44 17 104 29t123 12q169 0 255 -88t86 -252q0 -99 -32.5 -172t-101.5 -112.5t-179 -39.5zM329 87q189 0 189 197h-363v-47q0 -72 47 -111
t127 -39z" />
    <glyph glyph-name="florin" unicode="&#x192;" horiz-adv-x="517" 
d="M26 -123q-33 0 -58 5t-45 14l20 93q28 -11 57 -11q40 0 62.5 14.5t32.5 62.5l66 315h-66l22 104h66l10 48q16 74 68 121t134 47q33 0 58 -5t45 -14l-20 -93q-13 5 -26.5 8t-30.5 3q-43 0 -64 -15.5t-29 -53.5l-10 -46h120l-28 -104h-114l-68 -325q-16 -73 -67.5 -120.5
t-134.5 -47.5z" />
    <glyph glyph-name="Ohorn" unicode="&#x1a0;" horiz-adv-x="777" 
d="M350 -10q-313 0 -313 329q0 177 79 256t234 79q149 0 224 -74q53 2 74.5 25t21.5 83h97q0 -94 -33 -137.5t-101 -54.5q30 -69 30 -177q0 -329 -313 -329zM350 105q91 0 133.5 52.5t42.5 161.5q0 121 -42.5 170.5t-133.5 49.5t-133.5 -49.5t-42.5 -170.5
q0 -109 42.5 -161.5t133.5 -52.5z" />
    <glyph glyph-name="ohorn" unicode="&#x1a1;" horiz-adv-x="694" 
d="M294 -10q-133 0 -195 64.5t-62 182.5t62.5 182.5t194.5 64.5q65 0 112.5 -16t78.5 -45q56 1 77.5 26.5t21.5 86.5h97q0 -97 -35 -142.5t-108 -56.5q14 -45 14 -100q0 -118 -62 -182.5t-196 -64.5zM294 105q65 0 93 29.5t28 102.5t-28 102.5t-93 29.5q-64 0 -92 -29.5
t-28 -102.5t28 -102.5t92 -29.5z" />
    <glyph glyph-name="Uhorn" unicode="&#x1af;" horiz-adv-x="820" 
d="M340 -10q-133 0 -210.5 64.5t-77.5 187.5v402h135v-392q0 -74 40 -110.5t113 -36.5t112.5 36.5t39.5 110.5v392h135v-64q52 2 74 25t22 83h97q0 -74 -20 -117t-62.5 -61.5t-110.5 -19.5v-248q0 -123 -77 -187.5t-210 -64.5z" />
    <glyph glyph-name="uhorn" unicode="&#x1b0;" horiz-adv-x="721" 
d="M232 -10q-85 0 -132.5 47.5t-47.5 139.5v297h135v-294q0 -48 23 -69.5t69 -21.5q35 0 64.5 14t50.5 35v336h135v-50q47 4 64.5 30t17.5 82h97q0 -108 -42.5 -152.5t-136.5 -49.5v-334h-125l-5 45q-30 -24 -70.5 -39.5t-96.5 -15.5z" />
    <glyph glyph-name="uni01CD" unicode="&#x1cd;" horiz-adv-x="713" 
d="M313 688l-135 174h106l72 -100l74 100h104l-135 -174h-86zM37 0l246 644h148l245 -644h-140l-61 155h-237l-60 -155h-141zM258 259h197l-99 259z" />
    <glyph glyph-name="uni01CE" unicode="&#x1ce;" horiz-adv-x="554" 
d="M244 522l-135 174h106l72 -100l74 100h104l-135 -174h-86zM206 -10q-45 0 -83.5 16.5t-62 49t-23.5 81.5q0 70 49.5 112t146.5 42h140v13q0 44 -24.5 62t-98.5 18q-81 0 -156 -25v95q33 13 80.5 21.5t103.5 8.5q107 0 165.5 -43.5t58.5 -139.5v-301h-117l-7 43
q-28 -25 -69 -39t-103 -14zM243 79q45 0 78 15t52 38v75h-137q-79 0 -79 -65q0 -63 86 -63z" />
    <glyph glyph-name="uni01CF" unicode="&#x1cf;" horiz-adv-x="250" 
d="M82 688l-135 174h106l72 -100l74 100h104l-135 -174h-86zM57 0v644h135v-644h-135z" />
    <glyph glyph-name="uni01D0" unicode="&#x1d0;" horiz-adv-x="321" 
d="M135 522l-135 174h106l72 -100l74 100h104l-135 -174h-86zM128 0v374h-71l12 100h194v-474h-135z" />
    <glyph glyph-name="uni01D1" unicode="&#x1d1;" horiz-adv-x="700" 
d="M307 688l-135 174h106l72 -100l74 100h104l-135 -174h-86zM350 -10q-313 0 -313 329q0 177 79 256t234 79t234 -79t79 -256q0 -329 -313 -329zM350 105q91 0 133.5 52.5t42.5 161.5q0 121 -42.5 170.5t-133.5 49.5t-133.5 -49.5t-42.5 -170.5q0 -109 42.5 -161.5
t133.5 -52.5z" />
    <glyph glyph-name="uni01D2" unicode="&#x1d2;" horiz-adv-x="589" 
d="M251 522l-135 174h106l72 -100l74 100h104l-135 -174h-86zM294 -10q-133 0 -195 64.5t-62 182.5t62.5 182.5t194.5 64.5q133 0 195.5 -64.5t62.5 -182.5t-62 -182.5t-196 -64.5zM294 105q65 0 93 29.5t28 102.5t-28 102.5t-93 29.5q-64 0 -92 -29.5t-28 -102.5t28 -102.5
t92 -29.5z" />
    <glyph glyph-name="uni01D3" unicode="&#x1d3;" horiz-adv-x="679" 
d="M297 688l-135 174h106l72 -100l74 100h104l-135 -174h-86zM340 -10q-133 0 -210.5 64.5t-77.5 187.5v402h135v-392q0 -74 40 -110.5t113 -36.5t112.5 36.5t39.5 110.5v392h135v-402q0 -123 -77 -187.5t-210 -64.5z" />
    <glyph glyph-name="uni01D4" unicode="&#x1d4;" horiz-adv-x="587" 
d="M248 522l-135 174h106l72 -100l74 100h104l-135 -174h-86zM232 -10q-85 0 -132.5 47.5t-47.5 139.5v297h135v-294q0 -48 23 -69.5t69 -21.5q35 0 64.5 14t50.5 35v336h135v-474h-125l-5 45q-30 -24 -70.5 -39.5t-96.5 -15.5z" />
    <glyph glyph-name="uni01D5" unicode="&#x1d5;" horiz-adv-x="679" 
d="M186 860v83h308v-83h-308zM189 702v98h106v-98h-106zM385 702v98h106v-98h-106zM340 -10q-133 0 -210.5 64.5t-77.5 187.5v402h135v-392q0 -74 40 -110.5t113 -36.5t112.5 36.5t39.5 110.5v392h135v-402q0 -123 -77 -187.5t-210 -64.5z" />
    <glyph glyph-name="uni01D6" unicode="&#x1d6;" horiz-adv-x="587" 
d="M142 706v83h308v-83h-308zM144 537v98h106v-98h-106zM340 537v98h106v-98h-106zM232 -10q-85 0 -132.5 47.5t-47.5 139.5v297h135v-294q0 -48 23 -69.5t69 -21.5q35 0 64.5 14t50.5 35v336h135v-474h-125l-5 45q-30 -24 -70.5 -39.5t-96.5 -15.5z" />
    <glyph glyph-name="uni01D7" unicode="&#x1d7;" horiz-adv-x="679" 
d="M290 801l59 129h102l-66 -129h-95zM189 688v93h101v-93h-101zM390 688v93h101v-93h-101zM340 -10q-133 0 -210.5 64.5t-77.5 187.5v402h135v-392q0 -74 40 -110.5t113 -36.5t112.5 36.5t39.5 110.5v392h135v-402q0 -123 -77 -187.5t-210 -64.5z" />
    <glyph glyph-name="uni01D8" unicode="&#x1d8;" horiz-adv-x="587" 
d="M233 635l59 129h102l-66 -129h-95zM132 522v93h101v-93h-101zM333 522v93h101v-93h-101zM232 -10q-85 0 -132.5 47.5t-47.5 139.5v297h135v-294q0 -48 23 -69.5t69 -21.5q35 0 64.5 14t50.5 35v336h135v-474h-125l-5 45q-30 -24 -70.5 -39.5t-96.5 -15.5z" />
    <glyph glyph-name="uni01D9" unicode="&#x1d9;" horiz-adv-x="679" 
d="M294 798l-113 121h100l60 -73l61 73h98l-113 -121h-93zM189 688v93h101v-93h-101zM390 688v93h101v-93h-101zM340 -10q-133 0 -210.5 64.5t-77.5 187.5v402h135v-392q0 -74 40 -110.5t113 -36.5t112.5 36.5t39.5 110.5v392h135v-402q0 -123 -77 -187.5t-210 -64.5z" />
    <glyph glyph-name="uni01DA" unicode="&#x1da;" horiz-adv-x="587" 
d="M248 631l-113 121h100l60 -73l61 73h98l-113 -121h-93zM143 521v93h101v-93h-101zM344 521v93h101v-93h-101zM232 -10q-85 0 -132.5 47.5t-47.5 139.5v297h135v-294q0 -48 23 -69.5t69 -21.5q35 0 64.5 14t50.5 35v336h135v-474h-125l-5 45q-30 -24 -70.5 -39.5
t-96.5 -15.5z" />
    <glyph glyph-name="uni01DB" unicode="&#x1db;" horiz-adv-x="679" 
d="M294 801l-66 129h102l59 -129h-95zM188 688v93h101v-93h-101zM389 688v93h101v-93h-101zM340 -10q-133 0 -210.5 64.5t-77.5 187.5v402h135v-392q0 -74 40 -110.5t113 -36.5t112.5 36.5t39.5 110.5v392h135v-402q0 -123 -77 -187.5t-210 -64.5z" />
    <glyph glyph-name="uni01DC" unicode="&#x1dc;" horiz-adv-x="587" 
d="M253 635l-66 129h102l59 -129h-95zM147 522v93h101v-93h-101zM348 522v93h101v-93h-101zM232 -10q-85 0 -132.5 47.5t-47.5 139.5v297h135v-294q0 -48 23 -69.5t69 -21.5q35 0 64.5 14t50.5 35v336h135v-474h-125l-5 45q-30 -24 -70.5 -39.5t-96.5 -15.5z" />
    <glyph glyph-name="Gcaron" unicode="&#x1e6;" horiz-adv-x="644" 
d="M324 687l-135 174h106l72 -100l74 100h104l-135 -174h-86zM367 -10q-162 0 -246 85t-84 236q0 160 85 251.5t253 91.5q58 0 105 -6.5t89 -20.5v-116q-42 15 -88.5 21.5t-95.5 6.5q-115 0 -163 -56.5t-48 -171.5q0 -207 195 -207q34 0 66.5 5.5t57.5 14.5v150h-150v86h264
v-315q-33 -21 -92 -38t-148 -17z" />
    <glyph glyph-name="gcaron" unicode="&#x1e7;" horiz-adv-x="562" 
d="M249 522l-135 174h106l72 -100l74 100h104l-135 -174h-86zM257 -176q-53 0 -108.5 7t-93.5 20v101q40 -13 94 -20.5t101 -7.5q69 0 100 7.5t31 26.5q0 16 -13.5 22t-56.5 6h-129q-127 0 -127 94q0 29 16 53t51 38q-81 41 -81 138q0 92 57 133.5t169 41.5q23 0 50.5 -3.5
t41.5 -6.5h178l-3 -85h-75q31 -29 31 -81q0 -73 -46 -116.5t-136 -43.5q-16 0 -30.5 1.5t-29.5 3.5q-30 -4 -50.5 -14t-20.5 -27q0 -23 41 -23h134q72 0 111 -32.5t39 -94.5q0 -70 -63 -104t-182 -34zM268 224q60 0 83.5 20.5t23.5 69.5t-23.5 71t-83.5 22q-57 0 -82 -21.5
t-25 -71.5q0 -46 23.5 -68t83.5 -22z" />
    <glyph glyph-name="Aringacute" unicode="&#x1fa;" horiz-adv-x="713" 
d="M293 854l80 187h117l-88 -187h-109zM37 0l237 621q-42 34 -42 93q0 50 33.5 85t90.5 35q59 0 92 -35t33 -85q0 -59 -42 -92l237 -622h-140l-61 155h-237l-60 -155h-141zM356 657q28 0 43.5 16.5t15.5 40.5t-15.5 40.5t-43.5 16.5q-26 0 -42 -16.5t-16 -40.5t16 -40.5
t42 -16.5zM258 259h197l-99 259z" />
    <glyph glyph-name="aringacute" unicode="&#x1fb;" horiz-adv-x="554" 
d="M232 786l80 149h117l-88 -149h-109zM291 517q-57 0 -90.5 34.5t-33.5 84.5t33.5 85t90.5 35q59 0 92 -35t33 -85t-33 -84.5t-92 -34.5zM291 579q28 0 43.5 16.5t15.5 40.5t-15.5 40.5t-43.5 16.5q-26 0 -42 -16.5t-16 -40.5t16 -40.5t42 -16.5zM206 -10q-45 0 -83.5 16.5
t-62 49t-23.5 81.5q0 70 49.5 112t146.5 42h140v13q0 44 -24.5 62t-98.5 18q-81 0 -156 -25v95q33 13 80.5 21.5t103.5 8.5q107 0 165.5 -43.5t58.5 -139.5v-301h-117l-7 43q-28 -25 -69 -39t-103 -14zM243 79q45 0 78 15t52 38v75h-137q-79 0 -79 -65q0 -63 86 -63z" />
    <glyph glyph-name="AEacute" unicode="&#x1fc;" horiz-adv-x="849" 
d="M421 688l80 187h117l-88 -187h-109zM37 0l246 644h529v-105h-274v-165h237v-104h-237v-166h274v-104h-409v156h-160l-60 -156h-146zM274 260h129v284h-26z" />
    <glyph glyph-name="aeacute" unicode="&#x1fd;" horiz-adv-x="882" 
d="M383 522l80 187h117l-88 -187h-109zM218 -10q-49 0 -90.5 16.5t-66 49t-24.5 81.5q0 70 49.5 112t146.5 42h140v13q0 44 -24.5 62t-98.5 18q-81 0 -156 -25v95q33 13 80.5 21.5t103.5 8.5q58 0 101 -12.5t71 -39.5q60 52 168 52q110 0 168.5 -57.5t58.5 -150.5v-86h-343
q11 -57 52.5 -79.5t117.5 -22.5q38 0 77.5 7t67.5 18v-93q-33 -15 -77 -22.5t-96 -7.5q-54 0 -109 19.5t-85 57.5q-29 -25 -61 -42t-72.5 -26t-98.5 -9zM502 273h225v26q0 41 -24 64.5t-81 23.5q-67 0 -93.5 -27t-26.5 -87zM243 79q45 0 76.5 13.5t53.5 35.5v79h-137
q-79 0 -79 -65q0 -63 86 -63z" />
    <glyph glyph-name="Oslashacute" unicode="&#x1fe;" horiz-adv-x="700" 
d="M269 688l80 187h117l-88 -187h-109zM161 -53l28 73q-152 69 -152 299q0 177 79 256t234 79q42 0 78 -6l17 45h77l-24 -63q82 -31 123.5 -107t41.5 -204q0 -329 -313 -329q-51 0 -93 9l-19 -52h-77zM234 140l151 397q-8 1 -17 1.5t-18 0.5q-91 0 -133.5 -49.5
t-42.5 -170.5q0 -129 60 -179zM350 105q91 0 133.5 52.5t42.5 161.5q0 78 -17.5 125.5t-54.5 70.5l-154 -406q11 -2 24 -3t26 -1z" />
    <glyph glyph-name="oslashacute" unicode="&#x1ff;" horiz-adv-x="589" 
d="M215 522l80 187h117l-88 -187h-109zM142 -53l24 64q-66 26 -97.5 83.5t-31.5 142.5q0 118 62.5 182.5t194.5 64.5q27 0 51 -3l18 47h77l-24 -63q69 -25 102.5 -83.5t33.5 -144.5q0 -118 -62 -182.5t-196 -64.5q-16 0 -30 1t-28 3l-17 -47h-77zM210 126l92 243h-8
q-64 0 -92 -29.5t-28 -102.5q0 -82 36 -111zM279 105h15q65 0 93 29.5t28 102.5q0 87 -43 114z" />
    <glyph glyph-name="uni0218" unicode="&#x218;" horiz-adv-x="555" 
d="M257 -10q-62 0 -115.5 9t-92.5 26v119q44 -18 95 -29t100 -11q70 0 103 13t33 59q0 29 -14 46t-48.5 30.5t-97.5 30.5q-101 28 -142 70t-41 116q0 89 65 137t189 48q58 0 108 -8t81 -19v-119q-82 31 -171 31q-63 0 -99 -13.5t-36 -56.5q0 -25 13 -40t44.5 -27t88.5 -27
q79 -21 122 -50t59.5 -66t16.5 -83q0 -84 -64 -135t-197 -51zM195 -226l29 179h117l-43 -179h-103z" />
    <glyph glyph-name="uni0219" unicode="&#x219;" horiz-adv-x="471" 
d="M224 -10q-53 0 -101 7.5t-77 18.5v112q35 -14 79 -21.5t81 -7.5q50 0 70.5 6t20.5 27q0 24 -31.5 35t-93.5 31q-65 22 -100 53t-35 92q0 68 49.5 104.5t159.5 36.5q44 0 83 -6.5t66 -15.5v-111q-27 13 -62 19.5t-65 6.5q-43 0 -68.5 -6t-25.5 -26q0 -22 27.5 -31
t85.5 -27q57 -17 89 -37t45 -47.5t13 -68.5q0 -144 -210 -144zM156 -226l29 179h117l-43 -179h-103z" />
    <glyph glyph-name="uni021A" unicode="&#x21a;" horiz-adv-x="564" 
d="M215 0v540h-198v104h530v-104h-197v-540h-135zM203 -248l31 201h106l-50 -201h-87z" />
    <glyph glyph-name="uni021B" unicode="&#x21b;" horiz-adv-x="368" 
d="M245 -10q-82 0 -121.5 43t-39.5 117v220h-67v104h67v102l135 40v-142h120l-8 -104h-112v-211q0 -39 18 -53.5t56 -14.5q28 0 58 10v-93q-22 -9 -48 -13.5t-58 -4.5zM147 -248l31 201h106l-50 -201h-87z" />
    <glyph glyph-name="uni0237" unicode="&#x237;" horiz-adv-x="321" 
d="M99 -234q-63 0 -108 18v93q16 -5 31.5 -7.5t28.5 -2.5q41 0 59 16.5t18 52.5v438h-71l12 100h194v-551q0 -70 -40.5 -113.5t-123.5 -43.5z" />
    <glyph glyph-name="uni0251" unicode="&#x251;" horiz-adv-x="591" 
d="M255 -10q-63 0 -112.5 22t-77.5 71.5t-28 130.5q0 85 31.5 145t84 92.5t114.5 32.5q40 0 71 -9t60 -32v31h135v-474h-116l-8 44q-31 -27 -67.5 -40.5t-86.5 -13.5zM292 89q63 0 106 43v211q-40 42 -96 42q-128 0 -128 -171q0 -73 31 -99t87 -26z" />
    <glyph glyph-name="uni0259" unicode="&#x259;" horiz-adv-x="542" 
d="M264 -10q-110 0 -168.5 53.5t-58.5 154.5v86h343q-10 57 -48.5 78t-121.5 21q-37 0 -77 -7t-68 -18v96q33 15 77 22.5t96 7.5q267 0 267 -248q0 -71 -28.5 -127t-82.5 -87.5t-130 -31.5zM260 87q67 0 93.5 27t26.5 87h-225v-26q0 -40 24 -64t81 -24z" />
    <glyph glyph-name="uni02BB" unicode="&#x2bb;" horiz-adv-x="246" 
d="M37 448l70 206h102l-56 -206h-116z" />
    <glyph glyph-name="uni02BC" unicode="&#x2bc;" horiz-adv-x="246" 
d="M37 448l56 206h116l-70 -206h-102z" />
    <glyph glyph-name="uni02BE" unicode="&#x2be;" 
d="M-385 455v85q36 0 55 20t19 54t-19 53t-55 19v85q74 0 115.5 -43.5t41.5 -113.5t-41.5 -114.5t-115.5 -44.5z" />
    <glyph glyph-name="uni02BF" unicode="&#x2bf;" 
d="M-228 455q-73 0 -115 44.5t-42 114.5t42 113.5t115 43.5v-85q-36 0 -55 -19t-19 -53t19 -54t55 -20v-85z" />
    <glyph glyph-name="circumflex" unicode="&#x2c6;" horiz-adv-x="295" 
d="M-31 532l135 174h86l135 -174h-104l-74 100l-72 -100h-106z" />
    <glyph glyph-name="caron" unicode="&#x2c7;" horiz-adv-x="295" 
d="M104 532l-135 174h106l72 -100l74 100h104l-135 -174h-86z" />
    <glyph glyph-name="uni02C8" unicode="&#x2c8;" 
d="M-67 480v186h88v-186h-88z" />
    <glyph glyph-name="uni02C9" unicode="&#x2c9;" 
d="M121 561v83h308v-83h-308z" />
    <glyph glyph-name="uni02CA" unicode="&#x2ca;" 
d="M-121 522l80 187h117l-88 -187h-109z" />
    <glyph glyph-name="uni02CB" unicode="&#x2cb;" 
d="M-37 522l-88 187h117l80 -187h-109z" />
    <glyph glyph-name="uni02CC" unicode="&#x2cc;" 
d="M-67 -227v186h88v-186h-88z" />
    <glyph glyph-name="breve" unicode="&#x2d8;" horiz-adv-x="266" 
d="M131 535q-70 0 -113.5 42t-43.5 115h90q0 -31 16.5 -55t50.5 -24q35 0 52 24t17 55h90q0 -73 -44 -115t-115 -42z" />
    <glyph glyph-name="dotaccent" unicode="&#x2d9;" horiz-adv-x="110" 
d="M2 557v98h105v-98h-105z" />
    <glyph glyph-name="ring" unicode="&#x2da;" horiz-adv-x="266" 
d="M137 527q-50 0 -85.5 32.5t-35.5 82.5t35.5 83t85.5 33t85 -33t35 -83t-35 -82.5t-85 -32.5zM137 595q20 0 33.5 14t13.5 33q0 20 -13.5 34t-33.5 14q-19 0 -33.5 -14t-14.5 -34q0 -19 14.5 -33t33.5 -14z" />
    <glyph glyph-name="ogonek" unicode="&#x2db;" horiz-adv-x="208" 
d="M123 -220q-46 0 -80.5 22.5t-34.5 68.5q0 38 19 71.5t54 57.5h100q-30 -22 -48.5 -48.5t-18.5 -55.5q0 -21 12.5 -29t32.5 -8q13 0 26.5 3t22.5 8v-76q-13 -6 -36.5 -10t-48.5 -4z" />
    <glyph glyph-name="tilde" unicode="&#x2dc;" horiz-adv-x="336" 
d="M252 556q-29 0 -57 10t-53.5 20t-50.5 10q-56 0 -90 -37v96q14 14 37.5 22.5t49.5 8.5q31 0 57 -10t51 -20t53 -10q56 0 83 38v-96q-10 -13 -31 -22.5t-49 -9.5z" />
    <glyph glyph-name="hungarumlaut" unicode="&#x2dd;" horiz-adv-x="359" 
d="M196 530l79 176h120l-92 -176h-107zM-32 530l79 176h120l-92 -176h-107z" />
    <glyph glyph-name="gravecomb" unicode="&#x300;" 
d="M-387 522l-88 187h117l80 -187h-109z" />
    <glyph glyph-name="acutecomb" unicode="&#x301;" 
d="M-430 522l80 187h117l-88 -187h-109z" />
    <glyph glyph-name="uni0302" unicode="&#x302;" 
d="M-212 532l135 174h86l135 -174h-104l-74 100l-72 -100h-106z" />
    <glyph glyph-name="tildecomb" unicode="&#x303;" 
d="M-252 556q-29 0 -57 10t-53.5 20t-50.5 10q-56 0 -90 -37v96q14 14 37.5 22.5t49.5 8.5q31 0 57 -10t51 -20t53 -10q56 0 83 38v-96q-10 -13 -31 -22.5t-49 -9.5z" />
    <glyph glyph-name="uni0304" unicode="&#x304;" 
d="M-185 561v83h308v-83h-308z" />
    <glyph glyph-name="uni0306" unicode="&#x306;" 
d="M-23 535q-70 0 -113.5 42t-43.5 115h90q0 -31 16.5 -55t50.5 -24q35 0 52 24t17 55h90q0 -73 -44 -115t-115 -42z" />
    <glyph glyph-name="uni0307" unicode="&#x307;" 
d="M-75 557v98h105v-98h-105z" />
    <glyph glyph-name="uni0308" unicode="&#x308;" 
d="M39 557v98h106v-98h-106zM-157 557v98h106v-98h-106z" />
    <glyph glyph-name="hookabovecomb" unicode="&#x309;" 
d="M-378 506v81q55 3 72.5 14.5t17.5 33.5q0 20 -18.5 29.5t-50.5 9.5q-14 0 -32 -3t-30 -8v67q39 13 100 13q64 0 97.5 -26t33.5 -70q0 -42 -19.5 -64t-67.5 -31v-46h-103z" />
    <glyph glyph-name="uni030A" unicode="&#x30a;" 
d="M-23 518q-57 0 -90.5 34.5t-33.5 84.5t33.5 85t90.5 35q59 0 92 -35t33 -85t-33 -84.5t-92 -34.5zM-23 580q28 0 43.5 16.5t15.5 40.5t-15.5 40.5t-43.5 16.5q-26 0 -42 -16.5t-16 -40.5t16 -40.5t42 -16.5z" />
    <glyph glyph-name="uni030B" unicode="&#x30b;" 
d="M-19 530l79 176h120l-92 -176h-107zM-247 530l79 176h120l-92 -176h-107z" />
    <glyph glyph-name="uni030C" unicode="&#x30c;" 
d="M-77 532l-135 174h106l72 -100l74 100h104l-135 -174h-86z" />
    <glyph glyph-name="uni031B" unicode="&#x31b;" 
d="M-130 520v88q62 0 83.5 23t21.5 85h97q0 -76 -21 -118.5t-65.5 -59.5t-115.5 -18z" />
    <glyph glyph-name="dotbelowcomb" unicode="&#x323;" 
d="M-376 -181v99h107v-99h-107z" />
    <glyph glyph-name="uni0324" unicode="&#x324;" 
d="M28 -181v99h107v-99h-107zM-181 -181v99h107v-99h-107z" />
    <glyph glyph-name="uni0326" unicode="&#x326;" 
d="M42 -238l31 201h106l-50 -201h-87z" />
    <glyph glyph-name="uni0327" unicode="&#x327;" 
d="M-34 -240q-17 0 -41 2.5t-35 5.5v68q29 -8 61 -8q44 0 62 6.5t18 30.5q0 26 -21 31.5t-56 5.5h-44l29 98h88l-15 -45q53 0 79.5 -24.5t26.5 -66.5q0 -49 -36.5 -76.5t-115.5 -27.5z" />
    <glyph glyph-name="uni0328" unicode="&#x328;" 
d="M-7 -220q-46 0 -80.5 22.5t-34.5 68.5q0 38 19 71.5t54 57.5h100q-30 -22 -48.5 -48.5t-18.5 -55.5q0 -21 12.5 -29t32.5 -8q13 0 26.5 3t22.5 8v-76q-13 -6 -36.5 -10t-48.5 -4z" />
    <glyph glyph-name="uni032E" unicode="&#x32e;" 
d="M-23 -217q-70 0 -113.5 42t-43.5 115h90q0 -31 16.5 -55t50.5 -24q35 0 52 24t17 55h90q0 -73 -44 -115t-115 -42z" />
    <glyph glyph-name="uni0331" unicode="&#x331;" 
d="M-185 -155v83h308v-83h-308z" />
    <glyph glyph-name="uni0394" unicode="&#x394;" horiz-adv-x="644" 
d="M37 0v73l225 571h118l227 -572v-72h-570zM166 104h309l-154 391z" />
    <glyph glyph-name="uni03A9" unicode="&#x3a9;" horiz-adv-x="759" 
d="M44 0v100h128q-64 42 -99.5 109t-35.5 157q0 98 40.5 172t117 115.5t184.5 41.5q109 0 185 -41.5t116.5 -115.5t40.5 -172q0 -182 -135 -266h128v-100h-286v103q81 45 118.5 109t37.5 146q0 66 -25 116t-70.5 78t-109.5 28q-63 0 -109 -28t-71 -78t-25 -116
q0 -82 38 -146t118 -109v-103h-286z" />
    <glyph glyph-name="uni03BC" unicode="&#x3bc;" horiz-adv-x="592" 
d="M57 -143v617h135v-294q0 -48 23 -69.5t69 -21.5q35 0 64.5 14t50.5 35v336h135v-474h-125l-5 45q-30 -24 -70.5 -39.5t-96.5 -15.5q-12 0 -24.5 2.5t-20.5 5.5v-141h-135z" />
    <glyph glyph-name="pi" unicode="&#x3c0;" horiz-adv-x="676" 
d="M548 -10q-82 0 -121.5 43t-39.5 117v220h-160v-370h-135v370h-65v104h559v-104h-64v-211q0 -39 18 -53.5t56 -14.5q28 0 58 10v-93q-22 -9 -48 -13.5t-58 -4.5z" />
    <glyph glyph-name="uni0E01" unicode="&#xe01;" horiz-adv-x="622" 
d="M62 0v172q0 46 15.5 81.5t61.5 49.5l-102 27v129q41 35 109.5 63t156.5 28q81 0 138.5 -21t88 -70t30.5 -133v-326h-135v329q0 63 -29.5 89.5t-99.5 26.5q-45 0 -82.5 -13t-60.5 -33v-14l111 -30v-82q-40 -10 -53.5 -32.5t-13.5 -69.5v-171h-135z" />
    <glyph glyph-name="uni0E02" unicode="&#xe02;" horiz-adv-x="595" 
d="M288 -10q-121 0 -182 56t-61 153v34q0 34 13 61t29.5 48t29.5 39t13 34q0 15 -7 20t-25 5h-65l11 100h140q83 0 83 -77q0 -34 -13 -61.5t-30.5 -52.5t-30.5 -52.5t-13 -62.5v-43q0 -96 108 -96q110 0 110 100v345h135v-339q0 -97 -65 -154t-180 -57z" />
    <glyph glyph-name="uni0E03" unicode="&#xe03;" horiz-adv-x="595" 
d="M288 -10q-121 0 -182 52.5t-61 149.5v13q0 35 17 67.5t39.5 61t39.5 51.5t17 39q0 19 -16 19q-7 0 -13.5 -3t-11.5 -8v-41h-85v149h89v-28q15 12 34 20t47 8q80 0 80 -82q0 -37 -15.5 -67.5t-35.5 -58t-35.5 -56.5t-15.5 -63v-22q0 -96 108 -96q110 0 110 100v345h135
v-339q0 -97 -65 -154t-180 -57z" />
    <glyph glyph-name="uni0E04" unicode="&#xe04;" horiz-adv-x="628" 
d="M57 0v335q0 98 60.5 156.5t194.5 58.5t194 -58.5t60 -156.5v-335h-135v345q0 50 -31.5 75t-87.5 25q-120 0 -120 -100v-97q19 14 42.5 23t51.5 9h65l4 -107h-72q-28 0 -50 -7.5t-41 -21.5v-144h-135z" />
    <glyph glyph-name="uni0E05" unicode="&#xe05;" horiz-adv-x="628" 
d="M57 0v386q0 74 32.5 119t105.5 45q33 0 63.5 -11.5t52.5 -39.5q22 28 56 39.5t66 11.5q72 0 102.5 -42t30.5 -122v-386h-134v379q0 26 -8.5 41t-33.5 15q-19 0 -31 -10t-20 -26h-55q-6 16 -15.5 26t-26.5 10q-25 0 -38 -15t-13 -41v-131q19 14 42.5 23t51.5 9h66l4 -107
h-73q-28 0 -50 -7.5t-41 -21.5v-144h-134z" />
    <glyph glyph-name="uni0E06" unicode="&#xe06;" horiz-adv-x="618" 
d="M369 -10q-56 0 -101 17t-81 46l-6 -53h-124v192q0 35 17 69t39.5 65.5t39.5 56.5t17 41q0 19 -16 19q-7 0 -13.5 -3t-11.5 -8v-41h-85v149h89v-28q15 12 34 20t47 8q80 0 80 -82q0 -37 -15.5 -69t-35.5 -62.5t-35.5 -61.5t-15.5 -65v-49q22 -24 58.5 -40t73.5 -16
q48 0 72.5 23.5t24.5 78.5v343h135v-351q0 -94 -50 -146.5t-137 -52.5z" />
    <glyph glyph-name="uni0E07" unicode="&#xe07;" horiz-adv-x="527" 
d="M260 -10q-27 0 -57.5 4t-53.5 11l-152 370h131l119 -289q75 0 108.5 50.5t33.5 150.5q0 60 -11.5 94t-37.5 48.5t-72 14.5h-41v96h60q119 0 174.5 -62.5t55.5 -190.5q0 -105 -33 -170.5t-90.5 -96t-133.5 -30.5z" />
    <glyph glyph-name="uni0E08" unicode="&#xe08;" horiz-adv-x="560" 
d="M273 -10q-22 0 -50.5 4.5t-45.5 10.5l-76 203h-74l6 96h153l79 -211q62 0 96 42.5t34 139.5q0 65 -16.5 102t-56.5 52.5t-109 15.5q-40 0 -85.5 -6.5t-86.5 -19.5v100q41 13 94.5 22t112.5 9q148 0 211.5 -71t63.5 -204q0 -93 -34.5 -156.5t-91.5 -96t-124 -32.5z" />
    <glyph glyph-name="uni0E09" unicode="&#xe09;" horiz-adv-x="595" 
d="M218 -10q-83 0 -129 47t-46 140v123h135v-103q0 -51 21.5 -76.5t73.5 -25.5q41 0 72 15.5t53 41.5v167q0 72 -37.5 99t-126.5 27q-27 0 -62.5 -4t-71 -10.5t-63.5 -15.5v100q47 16 108.5 25.5t123.5 9.5q140 0 202 -58t62 -174v-318h-124l-6 54q-33 -28 -78 -46t-107 -18
z" />
    <glyph glyph-name="uni0E0A" unicode="&#xe0a;" horiz-adv-x="597" 
d="M290 -10q-121 0 -182 56t-61 153v34q0 34 13 61t29.5 48t29.5 39t13 34q0 15 -7 20t-25 5h-65l11 100h140q83 0 83 -77q0 -34 -13 -61.5t-30.5 -52.5t-30.5 -52.5t-13 -62.5v-43q0 -96 108 -96q110 0 110 100v63q0 38 -13 54t-46 16h-28l6 94h18q33 0 48 17t15 54v57h135
v-54q0 -46 -14 -74.5t-55 -46.5q42 -19 55.5 -48.5t13.5 -73.5v-52q0 -97 -65 -154t-180 -57z" />
    <glyph glyph-name="uni0E0B" unicode="&#xe0b;" horiz-adv-x="597" 
d="M290 -10q-121 0 -182 52t-61 144v25q0 35 17 66.5t39.5 59t39.5 49.5t17 38q0 19 -16 19q-7 0 -13.5 -3t-11.5 -8v-41h-85v149h89v-28q15 12 34 20t47 8q80 0 80 -82q0 -37 -15.5 -67.5t-35.5 -58t-35.5 -56.5t-15.5 -63v-22q0 -96 108 -96q110 0 110 100v63q0 38 -13 54
t-46 16h-28l6 94h18q33 0 48 17t15 54v57h135v-54q0 -46 -14 -74.5t-55 -46.5q42 -19 55.5 -48.5t13.5 -73.5v-52q0 -97 -65 -154t-180 -57z" />
    <glyph glyph-name="uni0E0C" unicode="&#xe0c;" horiz-adv-x="961" 
d="M717 -10q-56 0 -98.5 17t-78.5 46l-6 -53h-119v329q0 63 -28.5 89.5t-90.5 26.5q-45 0 -82.5 -13t-60.5 -33v-14l111 -30v-82q-40 -10 -53.5 -32.5t-13.5 -69.5v-29q0 -20 9 -28.5t28 -8.5h53v-105h-122q-46 0 -74.5 30t-28.5 76v66q0 46 15.5 81.5t61.5 49.5l-102 27
v129q41 35 109.5 63t156.5 28q76 0 130 -21t83 -70t29 -133v-175q22 -24 56 -40t71 -16q48 0 70 23.5t22 78.5v343h135v-351q0 -94 -47.5 -146.5t-134.5 -52.5z" />
    <glyph glyph-name="uni0E0D" unicode="&#xe0d;" horiz-adv-x="977" 
d="M670 -71q-46 0 -103.5 9t-103.5 34v104q30 -15 67 -24.5t73 -14t62 -4.5q62 0 100 13t38 36q0 18 -16 28q-21 -12 -52.5 -21t-72.5 -9q-119 0 -183 56.5t-64 170.5v22q0 63 -28.5 89.5t-90.5 26.5q-45 0 -82.5 -13t-60.5 -33v-14l111 -30v-82q-40 -10 -53.5 -32.5
t-13.5 -69.5v-29q0 -20 9 -28.5t28 -8.5h53v-105h-122q-46 0 -74.5 30t-28.5 76v66q0 46 15.5 81.5t61.5 49.5l-102 27v129q41 35 109.5 63t156.5 28q76 0 130 -21t83 -70t29 -133v-21q0 -61 28 -90.5t89 -29.5t89 29.5t28 90.5v235h135v-233q0 -87 -40 -140
q18 -16 30 -41.5t12 -54.5q0 -68 -66 -105t-180 -37z" />
    <glyph glyph-name="uni0E0E" unicode="&#xe0e;" horiz-adv-x="658" 
d="M164 -197v103q35 17 77 26t93 9q38 0 71.5 -7t54.5 -18v413q0 63 -27.5 89.5t-89.5 26.5q-45 0 -82.5 -13t-60.5 -33v-14l111 -30v-82q-38 -12 -49 -33.5t-11 -68.5v-37q0 -71 -34 -102.5t-98 -31.5h-72v105h33q20 0 27 8t7 28v31q0 46 13 80t59 51l-102 27v129
q41 35 109.5 63t156.5 28q114 0 179.5 -51t65.5 -173v-520h-135q-54 30 -142 30q-39 0 -82 -9.5t-72 -23.5z" />
    <glyph glyph-name="uni0E0F" unicode="&#xe0f;" horiz-adv-x="658" 
d="M435 -195q-37 0 -68.5 13t-48.5 35q-12 -21 -33.5 -34t-57.5 -13h-104l6 102h73q29 0 44.5 10t24.5 34h86q6 -22 18 -35t37 -13q48 0 48 51v374q0 63 -27.5 89.5t-89.5 26.5q-45 0 -82.5 -13t-60.5 -33v-14l111 -30v-82q-38 -12 -49 -33.5t-11 -68.5v-37
q0 -71 -34 -102.5t-98 -31.5h-72v105h33q20 0 27 8t7 28v31q0 46 13 80t59 51l-102 27v129q41 35 109.5 63t156.5 28q114 0 179.5 -51t65.5 -173v-373q0 -68 -43 -108t-117 -40z" />
    <glyph glyph-name="uni0E10" unicode="&#xe10;" horiz-adv-x="599" 
d="M273 -10q-22 0 -50.5 4.5t-45.5 10.5l-76 203h-74l6 96h153l79 -211q62 0 96 42.5t34 139.5q0 65 -16.5 102t-56.5 52.5t-109 15.5q-40 0 -85.5 -6.5t-86.5 -19.5v100q41 13 94.5 22t112.5 9q29 0 54 -2.5t47 -7.5h228l-7 -103h-88q20 -32 30.5 -69.5t10.5 -92.5
q0 -93 -34.5 -156.5t-91.5 -96t-124 -32.5zM347 -209q-40 0 -68 13t-45 35q-12 -21 -33.5 -34t-57.5 -13h-90l6 102h59q29 0 44.5 10t24.5 34h86q6 -22 20 -35t42 -13q55 0 55 51v23h112v-25q0 -68 -38.5 -108t-116.5 -40z" />
    <glyph glyph-name="uni0E11" unicode="&#xe11;" horiz-adv-x="612" 
d="M74 0v197q0 34 13 66t30 61.5t30 55t13 44.5t-16 19q-7 0 -13.5 -3t-11.5 -8v-41h-85v149h89v-28q15 12 32 20t45 8q39 0 60 -29q23 17 55.5 28t68.5 11q86 0 126 -46.5t40 -138.5v-365h-135v361q0 44 -14 64t-52 20q-16 0 -37.5 -7t-33.5 -18q0 -28 -10.5 -53.5t-24 -51
t-24 -55.5t-10.5 -67v-193h-135z" />
    <glyph glyph-name="uni0E12" unicode="&#xe12;" horiz-adv-x="993" 
d="M263 -10q-65 0 -116 28t-80.5 87.5t-29.5 153.5q0 143 47.5 217t129.5 74q43 0 67 -14t40 -37q20 23 53 37t70 14q71 0 102 -43t31 -113v-243q22 -24 56 -40t71 -16q48 0 70 23.5t22 78.5v343h135v-351q0 -94 -47.5 -146.5t-134.5 -52.5q-56 0 -98.5 17t-78.5 46l-6 -53
h-119v373q0 35 -7 53.5t-34 18.5q-18 0 -32.5 -11.5t-20.5 -34.5h-65q-10 23 -21 34.5t-32 11.5q-43 0 -56.5 -51.5t-13.5 -134.5q0 -91 32 -127.5t90 -36.5q19 0 37.5 2t31.5 6v-99q-18 -7 -40 -10.5t-53 -3.5z" />
    <glyph glyph-name="uni0E13" unicode="&#xe13;" horiz-adv-x="966" 
d="M597 -10q-87 0 -134.5 52.5t-47.5 146.5v140q0 63 -28.5 89.5t-90.5 26.5q-45 0 -82.5 -13t-60.5 -33v-14l111 -30v-82q-40 -10 -53.5 -32.5t-13.5 -69.5v-29q0 -20 9 -28.5t28 -8.5h53v-105h-122q-46 0 -74.5 30t-28.5 76v66q0 46 15.5 81.5t61.5 49.5l-102 27v129
q41 35 109.5 63t156.5 28q76 0 130 -21t83 -70t29 -133v-129q0 -55 24.5 -78.5t72.5 -23.5q38 0 71.5 16t55.5 40v389h135v-540h-124l-6 53q-34 -31 -77.5 -47t-99.5 -16z" />
    <glyph glyph-name="uni0E14" unicode="&#xe14;" horiz-adv-x="653" 
d="M263 -10q-65 0 -116 28t-80.5 87.5t-29.5 153.5q0 138 71.5 214.5t210.5 76.5q97 0 157 -32.5t87.5 -83.5t27.5 -108v-326h-135v317q0 38 -12 66.5t-42.5 45t-84.5 16.5q-152 0 -152 -186q0 -91 32 -127.5t90 -36.5q19 0 37.5 2t31.5 6v-99q-18 -7 -40 -10.5t-53 -3.5z
" />
    <glyph glyph-name="uni0E15" unicode="&#xe15;" horiz-adv-x="659" 
d="M263 -10q-65 0 -116 28t-80.5 87.5t-29.5 153.5q0 143 50.5 217t136.5 74q43 0 67 -14t40 -37q20 23 55.5 37t72.5 14q71 0 104.5 -43t33.5 -113v-394h-135v373q0 35 -9.5 53.5t-36.5 18.5q-18 0 -32.5 -11.5t-20.5 -34.5h-65q-10 23 -21 34.5t-32 11.5
q-47 0 -63.5 -51.5t-16.5 -134.5q0 -91 32 -127.5t90 -36.5q19 0 37.5 2t31.5 6v-99q-18 -7 -40 -10.5t-53 -3.5z" />
    <glyph glyph-name="uni0E16" unicode="&#xe16;" horiz-adv-x="622" 
d="M165 0q-46 0 -74.5 30t-28.5 76v66q0 46 15.5 81.5t61.5 49.5l-102 27v129q41 35 109.5 63t156.5 28q81 0 138.5 -21t88 -70t30.5 -133v-326h-135v329q0 63 -29.5 89.5t-99.5 26.5q-45 0 -82.5 -13t-60.5 -33v-14l111 -30v-82q-40 -10 -53.5 -32.5t-13.5 -69.5v-29
q0 -20 9 -28.5t28 -8.5h53v-105h-122z" />
    <glyph glyph-name="uni0E17" unicode="&#xe17;" horiz-adv-x="618" 
d="M57 0v540h124l6 -53q36 29 83.5 46t103.5 17q85 0 133.5 -52t48.5 -143v-355h-135v347q0 52 -24.5 75t-72.5 23q-37 0 -73.5 -16t-58.5 -40v-389h-135z" />
    <glyph glyph-name="uni0E18" unicode="&#xe18;" horiz-adv-x="538" 
d="M274 -10q-68 0 -127.5 12.5t-99.5 29.5v201h124v-123q18 -7 44 -11t51 -4q53 0 81.5 15.5t28.5 56.5q0 29 -20.5 44.5t-57.5 25.5t-88 22q-47 12 -86.5 27t-63 41.5t-23.5 72.5q0 72 61.5 111t179.5 39q59 0 113 -7.5t83 -17.5v-108q-33 14 -82 21t-96 7q-30 0 -60.5 -3
t-50.5 -11.5t-20 -26.5q0 -21 22.5 -32t60.5 -18.5t82 -20.5q53 -14 91 -32t59 -49t21 -85q0 -86 -60.5 -131.5t-166.5 -45.5z" />
    <glyph glyph-name="uni0E19" unicode="&#xe19;" horiz-adv-x="618" 
d="M244 -10q-87 0 -137 52.5t-50 146.5v351h135v-343q0 -55 24.5 -78.5t72.5 -23.5q38 0 74 16t58 40v389h135v-540h-124l-6 53q-36 -29 -81 -46t-101 -17z" />
    <glyph glyph-name="uni0E1A" unicode="&#xe1a;" horiz-adv-x="633" 
d="M314 -10q-119 0 -188 56.5t-69 170.5v323h135v-325q0 -120 122 -120t122 120v325h135v-323q0 -114 -69 -170.5t-188 -56.5z" />
    <glyph glyph-name="uni0E1B" unicode="&#xe1b;" horiz-adv-x="633" 
d="M314 -10q-119 0 -188 56.5t-69 170.5v323h135v-325q0 -120 122 -120t122 120v485h135v-483q0 -114 -69 -170.5t-188 -56.5z" />
    <glyph glyph-name="uni0E1C" unicode="&#xe1c;" horiz-adv-x="650" 
d="M57 0v437q0 45 23.5 74t70.5 29h121l6 -100h-51q-42 0 -42 -45v-217l113 197h50l113 -197v362h127v-540h-130l-135 244l-136 -244h-130z" />
    <glyph glyph-name="uni0E1D" unicode="&#xe1d;" horiz-adv-x="650" 
d="M57 0v437q0 45 23.5 74t70.5 29h121l6 -100h-51q-42 0 -42 -45v-217l113 197h50l113 -197v522h127v-700h-130l-135 244l-136 -244h-130z" />
    <glyph glyph-name="uni0E1E" unicode="&#xe1e;" horiz-adv-x="725" 
d="M153 0l-126 540h130l71 -347l82 261v86h94l96 -347l69 347h129l-126 -540h-117l-89 309l-96 -309h-117z" />
    <glyph glyph-name="uni0E1F" unicode="&#xe1f;" horiz-adv-x="725" 
d="M153 0l-126 540h130l71 -347l82 261v86h94l96 -347l95 507h129l-152 -700h-117l-89 309l-96 -309h-117z" />
    <glyph glyph-name="uni0E20" unicode="&#xe20;" horiz-adv-x="657" 
d="M47 0v105h33q20 0 27 8t7 28v31q0 46 13 80t59 51l-102 27v129q41 35 109.5 63t156.5 28q114 0 179.5 -51t65.5 -173v-326h-135v329q0 63 -27.5 89.5t-89.5 26.5q-45 0 -82.5 -13t-60.5 -33v-14l111 -30v-82q-38 -12 -49 -33.5t-11 -68.5v-37q0 -71 -34 -102.5t-98 -31.5
h-72z" />
    <glyph glyph-name="uni0E21" unicode="&#xe21;" horiz-adv-x="618" 
d="M369 -10q-56 0 -101 17t-81 46l-6 -53h-124v540h135v-389q22 -24 58.5 -40t73.5 -16q48 0 72.5 23.5t24.5 78.5v343h135v-351q0 -94 -50 -146.5t-137 -52.5z" />
    <glyph glyph-name="uni0E22" unicode="&#xe22;" horiz-adv-x="607" 
d="M289 -10q-71 0 -130 16t-94 54.5t-35 103.5q0 35 16.5 66.5t51.5 50.5q-29 13 -47.5 41t-18.5 68q0 79 50 119.5t129 40.5q31 0 53 -3.5t40 -10.5v-99q-29 8 -69 8q-37 0 -56 -12.5t-19 -42.5q0 -33 21 -45.5t63 -12.5h56l5 -99h-62q-85 0 -85 -69q0 -34 30.5 -51.5
t94.5 -17.5q65 0 96 27t31 78v340h135v-328q0 -117 -66.5 -169.5t-189.5 -52.5z" />
    <glyph glyph-name="uni0E23" unicode="&#xe23;" horiz-adv-x="503" 
d="M239 -10q-56 0 -107.5 8t-83.5 21v109q38 -16 83.5 -24.5t82.5 -8.5q65 0 94.5 10t29.5 41q0 24 -15.5 37t-47.5 23.5t-82 27.5q-73 26 -114.5 58.5t-41.5 96.5q0 72 56 116.5t169 44.5q47 0 94 -7t77 -17v-108q-33 14 -75.5 20.5t-76.5 6.5q-47 0 -81.5 -10.5
t-34.5 -42.5q0 -20 17.5 -32t50 -22t77.5 -26q56 -19 90.5 -40t50 -51t15.5 -75q0 -79 -60.5 -117.5t-166.5 -38.5z" />
    <glyph glyph-name="uni0E24" unicode="&#xe24;" horiz-adv-x="622" 
d="M425 -160v489q0 63 -29.5 89.5t-99.5 26.5q-45 0 -82.5 -13t-60.5 -33v-14l111 -30v-82q-40 -10 -53.5 -32.5t-13.5 -69.5v-29q0 -20 9 -28.5t28 -8.5h53v-105h-122q-46 0 -74.5 30t-28.5 76v66q0 46 15.5 81.5t61.5 49.5l-102 27v129q41 35 109.5 63t156.5 28
q81 0 138.5 -21t88 -70t30.5 -133v-486h-135z" />
    <glyph glyph-name="uni0E25" unicode="&#xe25;" horiz-adv-x="603" 
d="M228 -10q-51 0 -94 16.5t-68.5 54t-25.5 99.5q0 81 55 124.5t158 43.5h153v26q0 50 -28 70.5t-99 20.5q-49 0 -92.5 -6.5t-86.5 -20.5v101q41 13 95 22t106 9q121 0 180.5 -51t59.5 -159v-340h-135v229h-145q-43 0 -68 -15t-25 -54q0 -37 22 -51t74 -14q19 0 37.5 2
t31.5 6v-99q-19 -6 -46.5 -10t-58.5 -4z" />
    <glyph glyph-name="uni0E26" unicode="&#xe26;" horiz-adv-x="658" 
d="M460 -160v489q0 63 -27.5 89.5t-89.5 26.5q-45 0 -82.5 -13t-60.5 -33v-14l111 -30v-82q-38 -12 -49 -33.5t-11 -68.5v-37q0 -71 -34 -102.5t-98 -31.5h-72v105h33q20 0 27 8t7 28v31q0 46 13 80t59 51l-102 27v129q41 35 109.5 63t156.5 28q114 0 179.5 -51t65.5 -173
v-486h-135z" />
    <glyph glyph-name="uni0E27" unicode="&#xe27;" horiz-adv-x="491" 
d="M193 -10q-97 0 -172 32v103q31 -13 67 -21.5t73 -8.5q94 0 134.5 39t40.5 136t-40.5 136t-134.5 39q-37 0 -73 -8t-67 -22v103q75 32 172 32q137 0 204 -71.5t67 -208.5t-67 -208.5t-204 -71.5z" />
    <glyph glyph-name="uni0E28" unicode="&#xe28;" horiz-adv-x="654" 
d="M57 0v335q0 98 60.5 156.5t194.5 58.5q27 0 50.5 -2.5t44.5 -7.5h210l-7 -103h-71q14 -18 20.5 -45.5t6.5 -56.5v-335h-135v345q0 50 -31.5 75t-87.5 25q-120 0 -120 -100v-97q19 14 42.5 23t51.5 9h65l4 -107h-72q-28 0 -50 -7.5t-41 -21.5v-144h-135z" />
    <glyph glyph-name="uni0E29" unicode="&#xe29;" horiz-adv-x="640" 
d="M314 -10q-119 0 -188 56.5t-69 170.5v323h135v-325q0 -120 122 -120t122 120v61h-115v99h115v165h135v-165h57l-9 -99h-48v-59q0 -114 -69 -170.5t-188 -56.5z" />
    <glyph glyph-name="uni0E2A" unicode="&#xe2a;" horiz-adv-x="622" 
d="M228 -10q-51 0 -94 16.5t-68.5 54t-25.5 99.5q0 81 55 124.5t158 43.5h153v26q0 50 -28 70.5t-99 20.5q-49 0 -92.5 -6.5t-86.5 -20.5v101q41 13 95 22t106 9q27 0 51 -2.5t45 -7.5h188l-7 -103h-61q12 -19 18 -44t6 -53v-340h-135v229h-145q-43 0 -68 -15t-25 -54
q0 -37 22 -51t74 -14q19 0 37.5 2t31.5 6v-99q-19 -6 -46.5 -10t-58.5 -4z" />
    <glyph glyph-name="uni0E2B" unicode="&#xe2b;" horiz-adv-x="610" 
d="M57 0v540h135v-164h134q52 0 71.5 22.5t19.5 68.5v73h135v-68q0 -50 -16.5 -88.5t-60.5 -55.5q42 -16 57.5 -49.5t15.5 -77.5v-201h-135v186q0 51 -19.5 71t-70.5 20h-131v-277h-135z" />
    <glyph glyph-name="uni0E2C" unicode="&#xe2c;" horiz-adv-x="725" 
d="M153 0l-126 540h130l71 -347l82 221v86h94l96 -307l51 236q10 46 -3 64.5t-46 18.5h-40l17 98h46q35 0 53 13t25 46l7 31h114l-10 -49q-8 -40 -26 -62t-51 -30q51 -30 31 -122l-97 -437h-116l-89 279l-96 -279h-117z" />
    <glyph glyph-name="uni0E2D" unicode="&#xe2d;" horiz-adv-x="574" 
d="M260 -10q-67 0 -125 12.5t-98 29.5v284h229l6 -99h-107v-109q19 -6 45.5 -9.5t50.5 -3.5q82 0 115 39t33 134q0 68 -17.5 106.5t-57 54.5t-107.5 16q-44 0 -91.5 -6.5t-91.5 -20.5v101q45 15 103 23t113 8q146 0 211.5 -72.5t65.5 -209.5q0 -134 -65.5 -206t-211.5 -72z
" />
    <glyph glyph-name="uni0E2E" unicode="&#xe2e;" horiz-adv-x="614" 
d="M260 -10q-67 0 -125 12.5t-98 29.5v284h229l6 -99h-107v-109q19 -6 45.5 -9.5t50.5 -3.5q82 0 115 39t33 134q0 68 -17.5 106.5t-57 54.5t-107.5 16q-44 0 -91.5 -6.5t-91.5 -20.5v101q45 15 103 23t113 8q27 0 50.5 -2.5t45.5 -7.5h221l-7 -103h-75q21 -31 31.5 -74.5
t10.5 -94.5q0 -134 -65.5 -206t-211.5 -72z" />
    <glyph glyph-name="uni0E2F" unicode="&#xe2f;" horiz-adv-x="603" 
d="M406 0v246q-25 -14 -60.5 -24t-73.5 -10q-94 0 -153 45.5t-59 139.5q0 38 9 73.5t25 69.5h130q-36 -70 -36 -134q0 -49 27 -72t76 -23q38 0 65.5 8.5t49.5 25.5v195h135v-540h-135z" />
    <glyph glyph-name="uni0E30" unicode="&#xe30;" horiz-adv-x="323" 
d="M37 322v148h114v-49h139l-4 -99h-249zM37 54v148h114v-49h139l-4 -99h-249z" />
    <glyph glyph-name="uni0E31" unicode="&#xe31;" 
d="M-319 614v159h110v-67h249l-5 -92h-354z" />
    <glyph glyph-name="uni0E32" unicode="&#xe32;" horiz-adv-x="445" 
d="M248 0v332q0 54 -21 83.5t-84 29.5q-33 0 -70 -7.5t-66 -18.5v99q30 14 74 23t88 9q114 0 164 -48.5t50 -150.5v-351h-135z" />
    <glyph glyph-name="uni0E33" unicode="&#xe33;" horiz-adv-x="445" 
d="M-126 587q-50 0 -85.5 32.5t-35.5 82.5t35.5 83t85.5 33t85 -33t35 -83t-35 -82.5t-85 -32.5zM-126 658q18 0 31 13.5t13 30.5q0 18 -13 31.5t-31 13.5t-31.5 -13.5t-13.5 -31.5q0 -17 13.5 -30.5t31.5 -13.5zM248 0v332q0 54 -21 83.5t-84 29.5q-33 0 -70 -7.5
t-66 -18.5v99q30 14 74 23t88 9q114 0 164 -48.5t50 -150.5v-351h-135z" />
    <glyph glyph-name="uni0E34" unicode="&#xe34;" 
d="M-499 614l7 92h430v-92h-437z" />
    <glyph glyph-name="uni0E35" unicode="&#xe35;" 
d="M-499 614l7 92h320v81h110v-173h-437z" />
    <glyph glyph-name="uni0E36" unicode="&#xe36;" 
d="M-499 614l7 92h251q-4 36 20.5 66.5t76.5 30.5t75 -28t23 -65q0 -40 -25.5 -68t-77.5 -28h-350zM-143 671q18 0 28.5 11t10.5 27q0 17 -11 28.5t-28 11.5q-16 0 -27.5 -11t-11.5 -29q0 -16 11.5 -27t27.5 -11z" />
    <glyph glyph-name="uni0E37" unicode="&#xe37;" 
d="M-499 614l7 92h183v81h95v-81h57v81h95v-173h-437z" />
    <glyph glyph-name="uni0E38" unicode="&#xe38;" 
d="M-177 -253v116h-60l5 86h169v-202h-114z" />
    <glyph glyph-name="uni0E39" unicode="&#xe39;" 
d="M-197 -264q-61 0 -96 24t-35 61v47h-55l5 81h144v-96q0 -32 37 -32q38 0 38 32v96h96v-106q0 -43 -32 -75t-102 -32z" />
    <glyph glyph-name="uni0E3A" unicode="&#xe3a;" 
d="M-122 -182q-30 0 -51 20.5t-21 50.5t21 50.5t51 20.5t51 -20.5t21 -50.5t-21 -50.5t-51 -20.5z" />
    <glyph glyph-name="uni0E3F" unicode="&#xe3f;" horiz-adv-x="636" 
d="M262 -86v86h-205v644h205v86h98v-86h23q97 0 144.5 -45.5t47.5 -128.5q0 -52 -20 -86.5t-54 -53.5q45 -14 71.5 -46.5t26.5 -95.5q0 -93 -52.5 -140.5t-151.5 -47.5h-35v-86h-98zM192 377h70v167h-70v-167zM360 377q47 0 68 21.5t21 60.5q0 41 -19.5 62t-69.5 23v-167z
M192 99h70v180h-70v-180zM360 99h3q51 0 75 21t24 74q0 41 -22.5 62.5t-79.5 22.5v-180z" />
    <glyph glyph-name="uni0E40" unicode="&#xe40;" horiz-adv-x="308" 
d="M178 0q-65 0 -91.5 27t-26.5 85v428h135v-393q0 -42 41 -42h34v-105h-92z" />
    <glyph glyph-name="uni0E41" unicode="&#xe41;" horiz-adv-x="562" 
d="M434 0q-65 0 -91.5 27t-26.5 85v428h135v-393q0 -42 41 -42h34v-105h-92zM178 0q-65 0 -91.5 27t-26.5 85v428h135v-393q0 -42 41 -42h34v-105h-92z" />
    <glyph glyph-name="uni0E42" unicode="&#xe42;" horiz-adv-x="313" 
d="M209 0q-65 0 -91.5 27t-26.5 85v439q0 61 -24.5 94t-74.5 50v99h327v-105h-157q32 -19 48 -52t16 -82v-408q0 -42 41 -42h34v-105h-92z" />
    <glyph glyph-name="uni0E43" unicode="&#xe43;" horiz-adv-x="300" 
d="M161 0q-65 0 -91.5 27t-26.5 85v316q0 48 16.5 81t38 56.5t38 42.5t16.5 38q0 25 -14 35.5t-45 10.5q-54 0 -106 -30v97q31 18 73 28t82 10q151 0 151 -115q0 -33 -11.5 -58t-28.5 -47t-34.5 -44t-29 -48.5t-11.5 -61.5v-276q0 -42 41 -42h34v-105h-92z" />
    <glyph glyph-name="uni0E44" unicode="&#xe44;" horiz-adv-x="308" 
d="M189 0q-65 0 -91.5 27t-26.5 85v430q0 53 18 89.5t48 57.5h-155v105h318v-98q-50 -18 -72 -56.5t-22 -103.5v-389q0 -42 41 -42h34v-105h-92z" />
    <glyph glyph-name="uni0E45" unicode="&#xe45;" horiz-adv-x="445" 
d="M248 -160v492q0 54 -21 83.5t-84 29.5q-33 0 -70 -7.5t-66 -18.5v99q30 14 74 23t88 9q114 0 164 -48.5t50 -150.5v-511h-135z" />
    <glyph glyph-name="uni0E46" unicode="&#xe46;" horiz-adv-x="631" 
d="M434 0v399q0 22 -7 34t-30 12q-32 0 -49 -46h-52q-7 22 -16 34t-28 12q-25 0 -36.5 -23.5t-11.5 -64.5q0 -42 18 -62.5t58 -20.5q19 0 37.5 2t31.5 6v-99q-18 -7 -40 -10.5t-53 -3.5q-93 0 -144.5 48.5t-51.5 139.5q0 45 17 89.5t52 74t90 29.5q35 0 59.5 -11.5
t44.5 -38.5q23 27 53 38.5t63 11.5q64 0 97 -39t33 -113v-398h-135z" />
    <glyph glyph-name="uni0E47" unicode="&#xe47;" 
d="M-362 612q-61 0 -96.5 31.5t-35.5 89.5q0 56 36 91t103 35h252l-6 -75h-233q-29 0 -45 -11.5t-16 -39.5q0 -47 50 -47q26 0 37 11t11 29v18h80v-18q0 -21 10.5 -29t32.5 -8h61v-75h-71q-24 0 -45 7.5t-29 23.5q-10 -16 -40 -24.5t-56 -8.5z" />
    <glyph glyph-name="uni0E48" unicode="&#xe48;" 
d="M-201 614v165h135v-165h-135z" />
    <glyph glyph-name="uni0E49" unicode="&#xe49;" 
d="M-310 614v89h-78v92h169v-89h214l-5 -92h-300z" />
    <glyph glyph-name="uni0E4A" unicode="&#xe4a;" 
d="M-359 596q-54 0 -86 26.5t-32 81.5q0 52 27.5 80.5t72.5 28.5q53 0 68 -37h1q8 18 27 27.5t43 9.5q49 0 70.5 -23t21.5 -58v-62h8q11 0 15.5 5.5t4.5 20.5v112h74v-118q0 -38 -23 -61.5t-64 -23.5h-89v103q0 19 -5.5 28.5t-22.5 9.5q-19 0 -24.5 -11.5t-5.5 -28.5v-13
h-58v13q0 17 -6 28.5t-24 11.5q-33 0 -33 -45q0 -25 13 -34.5t38 -9.5h29v-61h-40z" />
    <glyph glyph-name="uni0E4B" unicode="&#xe4b;" 
d="M-247 614v43h-58v82h58v50h125v-50h60v-82h-60v-43h-125z" />
    <glyph glyph-name="uni0E4C" unicode="&#xe4c;" 
d="M-319 614v157h306l-4 -92h-192v-65h-110z" />
    <glyph glyph-name="uni0E4D" unicode="&#xe4d;" 
d="M-126 597q-50 0 -85.5 32.5t-35.5 82.5t35.5 83t85.5 33t85 -33t35 -83t-35 -82.5t-85 -32.5zM-126 668q18 0 31 13.5t13 30.5q0 18 -13 31.5t-31 13.5t-31.5 -13.5t-13.5 -31.5q0 -17 13.5 -30.5t31.5 -13.5z" />
    <glyph glyph-name="uni0E4E" unicode="&#xe4e;" 
d="M-189 605q-117 0 -117 75q0 38 23.5 57.5t54.5 23.5q-7 8 -10 18t-3 22q0 27 26 45.5t81 18.5q17 0 34.5 -3t27.5 -8v-54q-10 6 -25 9t-26 3q-41 0 -41 -22q0 -11 9.5 -16.5t30.5 -9.5v-51q-9 5 -21.5 7t-21.5 2q-22 0 -37 -6.5t-15 -23.5q0 -26 46 -26q17 0 33.5 3.5
t28.5 11.5v-60q-13 -9 -34.5 -12.5t-43.5 -3.5z" />
    <glyph glyph-name="uni0E4F" unicode="&#xe4f;" horiz-adv-x="599" 
d="M299 -10q-72 0 -131.5 35t-95 94.5t-35.5 132.5q0 54 20.5 101.5t56.5 83.5t83.5 56.5t101.5 20.5t101.5 -20.5t83.5 -56.5t56.5 -83.5t20.5 -101.5q0 -73 -35.5 -132.5t-94.5 -94.5t-132 -35zM299 78q48 0 87.5 23.5t63 63t23.5 87.5t-23.5 87.5t-63 63t-87.5 23.5
t-87.5 -23.5t-63 -63t-23.5 -87.5t23.5 -87.5t63 -63t87.5 -23.5zM299 126q-34 0 -62.5 17t-45.5 45.5t-17 63.5t17 63t45.5 45t62.5 17q35 0 63 -17t45 -45t17 -63t-17 -63.5t-45 -45.5t-63 -17zM299 197q23 0 39 16t16 39t-16 38.5t-39 15.5t-38.5 -15.5t-15.5 -38.5
t15.5 -39t38.5 -16z" />
    <glyph glyph-name="uni0E50" unicode="&#xe50;" horiz-adv-x="610" 
d="M305 -10q-79 0 -139.5 27t-94.5 81.5t-34 138.5t34.5 138.5t95 81.5t138.5 27t138.5 -27t94.5 -81.5t34 -138.5t-34 -138.5t-94 -81.5t-139 -27zM305 95q68 0 103.5 33t35.5 109q0 75 -35.5 108.5t-103.5 33.5q-67 0 -103.5 -33.5t-36.5 -108.5q0 -76 36.5 -109
t103.5 -33z" />
    <glyph glyph-name="uni0E51" unicode="&#xe51;" horiz-adv-x="634" 
d="M298 -106v111q95 24 133 76.5t38 139.5q0 77 -35 117.5t-118 40.5q-78 0 -114.5 -29.5t-36.5 -92.5q0 -55 25.5 -78.5t76.5 -23.5q20 0 45.5 5t41.5 15v-98q-20 -12 -49 -19.5t-68 -7.5q-96 0 -148 54t-52 152q0 110 71.5 169t207.5 59q142 0 211.5 -68.5t69.5 -197.5
q0 -79 -33.5 -145t-99.5 -112.5t-166 -66.5z" />
    <glyph glyph-name="uni0E52" unicode="&#xe52;" horiz-adv-x="710" 
d="M366 -10q-143 0 -226 64t-83 187v299h118v-293q0 -73 44.5 -114t146.5 -41q80 0 124 33t44 102v116q0 47 -33 47q-22 0 -30 -17t-11 -37h-73q-5 20 -12 37t-28 17q-22 0 -30.5 -18.5t-8.5 -59.5q0 -37 17.5 -51t54.5 -14q34 0 59 9v-80q-16 -7 -35 -10.5t-44 -3.5
q-67 0 -109.5 35.5t-42.5 114.5q0 92 32 132t87 40q33 0 56 -11t40 -37q20 26 49 37t59 11q62 0 91.5 -36t29.5 -96v-117q0 -117 -76.5 -181t-209.5 -64z" />
    <glyph glyph-name="uni0E53" unicode="&#xe53;" horiz-adv-x="643" 
d="M254 -10q-66 0 -114.5 22.5t-75.5 74.5t-27 138q0 135 49 197t127 62q73 0 114 -53q23 28 54 40.5t64 12.5q63 0 104.5 -35.5t41.5 -100.5v-348h-131v326q0 30 -9.5 41.5t-33.5 11.5q-44 0 -44 -47v-83h-97v84q0 23 -13 34.5t-33 11.5q-37 0 -53 -36t-16 -119
q0 -76 29 -102.5t88 -26.5q19 0 37.5 2t31.5 6v-99q-18 -7 -40 -10.5t-53 -3.5z" />
    <glyph glyph-name="uni0E54" unicode="&#xe54;" horiz-adv-x="626" 
d="M272 -10q-106 0 -170.5 57.5t-64.5 175.5q0 125 83 193t242 68q79 0 132.5 8t96.5 34v-103q-39 -22 -95.5 -31t-127.5 -9q-106 0 -156.5 -37.5t-50.5 -122.5q0 -71 34 -101t89 -30q8 0 16.5 1t16.5 5q-11 28 -11 63q0 68 44.5 105.5t118.5 37.5q65 0 105 -20v-88
q-16 8 -35 12t-37 4q-38 0 -59 -10.5t-21 -42.5q0 -31 19 -42.5t51.5 -12t72.5 -0.5h44v-104h-87q-37 0 -68 5t-57 15q-28 -16 -59.5 -23t-65.5 -7z" />
    <glyph glyph-name="uni0E55" unicode="&#xe55;" horiz-adv-x="621" 
d="M272 -10q-71 0 -124 21t-82 68.5t-29 126.5q0 59 24 106t65 78.5t93 43.5q-16 2 -32.5 8.5t-26.5 13.5v97q21 -18 59 -34t79 -25.5t70 -9.5q81 0 130.5 8t92.5 34v-103q-39 -22 -95.5 -31t-127.5 -9q-93 0 -150 -46t-57 -131q0 -47 15.5 -72t43 -33.5t64.5 -8.5
q8 0 16.5 1t16.5 5q-11 28 -11 63q0 68 44.5 105.5t118.5 37.5q65 0 105 -20v-88q-16 8 -35 12t-37 4q-38 0 -59 -10.5t-21 -42.5q0 -31 19 -42.5t51.5 -12t72.5 -0.5h44v-104h-87q-37 0 -68 5t-57 15q-28 -16 -59.5 -23t-65.5 -7z" />
    <glyph glyph-name="uni0E56" unicode="&#xe56;" horiz-adv-x="643" 
d="M328 -10q-53 0 -101 12.5t-87 38.5v102q44 -27 87.5 -37.5t89.5 -10.5q77 0 119 34t42 108q0 142 -132 142q-55 0 -93 -31t-51 -87h-90l-95 279h116l46 -143q28 41 77.5 64t111.5 23q85 0 137 -32t76.5 -87.5t24.5 -127.5q0 -116 -74.5 -181.5t-203.5 -65.5z" />
    <glyph glyph-name="uni0E57" unicode="&#xe57;" horiz-adv-x="850" 
d="M254 -10q-66 0 -115 23t-75.5 74.5t-26.5 137.5q0 135 46 197t123 62q41 0 66.5 -13t45.5 -40q24 28 54 40.5t66 12.5q71 0 104.5 -36.5t33.5 -101.5v-246h17q48 0 64.5 20t16.5 72v348h118v-325q0 -111 -46 -163t-163 -52h-122v326q0 29 -9.5 41t-36.5 12
q-18 0 -31.5 -12t-13.5 -35v-83h-108v83q0 47 -42 47q-39 0 -49.5 -42t-10.5 -113q0 -56 14 -84.5t41 -38.5t66 -10q16 0 36 2t33 6v-95q-36 -14 -96 -14z" />
    <glyph glyph-name="uni0E58" unicode="&#xe58;" horiz-adv-x="627" 
d="M211 -10q-82 0 -128 59t-46 177q0 128 80.5 193t232.5 65q82 0 139 8t102 34v-103q-39 -22 -100 -31t-138 -9q-100 0 -146 -35t-46 -122q0 -79 19 -106.5t51 -27.5q23 0 39 12t16 35v73h91v-74q0 -24 18.5 -35t37.5 -11q20 0 31 4.5t21 14.5v111h-58l6 79h157v-262
q-25 -24 -56.5 -36.5t-78.5 -12.5q-37 0 -69 12.5t-53 39.5q-40 -52 -122 -52z" />
    <glyph glyph-name="uni0E59" unicode="&#xe59;" horiz-adv-x="743" 
d="M227 -10q-55 0 -98 24.5t-67.5 77t-24.5 134.5q0 132 46.5 195t134.5 63q44 0 69 -14t39 -40q17 26 47.5 40t67.5 14q54 0 92.5 -27t38.5 -74v-16h6q29 0 39.5 13t10.5 55v85h98v-58q0 -73 -16 -113.5t-53.5 -56.5t-101.5 -16h-72v38q0 34 -8 49.5t-36 15.5
q-26 0 -36 -16t-2 -45l93 -318h-116l-98 332q-7 23 -18 35t-40 12q-31 0 -46 -36t-15 -120q0 -76 21.5 -103.5t65.5 -27.5q28 0 52 7v-102q-29 -7 -73 -7z" />
    <glyph glyph-name="uni0E5A" unicode="&#xe5a;" horiz-adv-x="956" 
d="M406 0v246q-25 -14 -60.5 -24t-73.5 -10q-94 0 -153 45.5t-59 139.5q0 38 9 73.5t25 69.5h130q-36 -70 -36 -134q0 -49 27 -72t76 -23q38 0 65.5 8.5t49.5 25.5v195h135v-181q17 -23 45.5 -35.5t57.5 -12.5q38 0 65.5 8.5t49.5 25.5v195h135v-540h-135v246
q-25 -14 -60.5 -24t-73.5 -10q-20 0 -43.5 5.5t-40.5 17.5v-235h-135z" />
    <glyph glyph-name="uni0E5B" unicode="&#xe5b;" horiz-adv-x="1149" 
d="M317 22q-84 0 -147 31.5t-98 91t-35 144.5q0 75 26.5 134t78.5 93t127 34q102 0 159 -50t57 -136q0 -79 -40.5 -124.5t-113.5 -65.5v89q38 18 52 39.5t14 58.5q0 50 -30.5 78.5t-91.5 28.5q-70 0 -103 -50t-33 -124q0 -91 47 -137.5t131 -46.5q109 0 166.5 62t57.5 170
q0 70 -10 126h97q23 -37 41.5 -82t28.5 -88h2q7 20 13.5 48t11 56t4.5 48h68q12 -25 27 -65.5t24 -78.5h2q9 24 17.5 61.5t10.5 66.5h58q12 -22 24.5 -57.5t17.5 -61.5h2q20 39 18 99h60q1 -14 0 -29.5t-3 -26.5h56l-5 -71h-68q-5 -22 -13.5 -40.5t-21.5 -39.5h-51
q-2 12 -7.5 31t-12.5 38t-14 31h-2q-1 -13 -6 -36.5t-11.5 -47.5t-13.5 -39h-70q-5 32 -18 70t-27 66h-2q-3 -32 -13.5 -77t-23.5 -81h-69q-3 38 -14 84t-26 79h-2q0 -90 -36 -158.5t-104 -106.5t-163 -38z" />
    <glyph glyph-name="uni1E0C" unicode="&#x1e0c;" horiz-adv-x="656" 
d="M57 0v644h270q145 0 218.5 -74.5t73.5 -250.5q0 -166 -72.5 -242.5t-219.5 -76.5h-270zM192 104h116q57 0 96 17.5t58.5 64t19.5 133.5t-18 133t-56 63t-100 17h-116v-428zM267 -181v99h107v-99h-107z" />
    <glyph glyph-name="uni1E0D" unicode="&#x1e0d;" horiz-adv-x="590" 
d="M255 -10q-63 0 -112.5 22.5t-77.5 74t-28 136.5t31 143t83 88t114 30q78 0 133 -36v226h135v-674h-116l-8 44q-31 -27 -67.5 -40.5t-86.5 -13.5zM292 89q63 0 106 43v216q-42 37 -98 37q-126 0 -126 -162q0 -76 31 -105t87 -29zM240 -181v99h107v-99h-107z" />
    <glyph glyph-name="uni1E0E" unicode="&#x1e0e;" horiz-adv-x="656" 
d="M57 0v644h270q145 0 218.5 -74.5t73.5 -250.5q0 -166 -72.5 -242.5t-219.5 -76.5h-270zM192 104h116q57 0 96 17.5t58.5 64t19.5 133.5t-18 133t-56 63t-100 17h-116v-428zM124 -182v83h308v-83h-308z" />
    <glyph glyph-name="uni1E0F" unicode="&#x1e0f;" horiz-adv-x="590" 
d="M255 -10q-63 0 -112.5 22.5t-77.5 74t-28 136.5t31 143t83 88t114 30q78 0 133 -36v226h135v-674h-116l-8 44q-31 -27 -67.5 -40.5t-86.5 -13.5zM292 89q63 0 106 43v216q-42 37 -98 37q-126 0 -126 -162q0 -76 31 -105t87 -29zM151 -183v83h308v-83h-308z" />
    <glyph glyph-name="uni1E20" unicode="&#x1e20;" horiz-adv-x="644" 
d="M218 717v83h308v-83h-308zM367 -10q-162 0 -246 85t-84 236q0 160 85 251.5t253 91.5q58 0 105 -6.5t89 -20.5v-116q-42 15 -88.5 21.5t-95.5 6.5q-115 0 -163 -56.5t-48 -171.5q0 -207 195 -207q34 0 66.5 5.5t57.5 14.5v150h-150v86h264v-315q-33 -21 -92 -38t-148 -17
z" />
    <glyph glyph-name="uni1E21" unicode="&#x1e21;" horiz-adv-x="562" 
d="M131 551v83h308v-83h-308zM257 -176q-53 0 -108.5 7t-93.5 20v101q40 -13 94 -20.5t101 -7.5q69 0 100 7.5t31 26.5q0 16 -13.5 22t-56.5 6h-129q-127 0 -127 94q0 29 16 53t51 38q-81 41 -81 138q0 92 57 133.5t169 41.5q23 0 50.5 -3.5t41.5 -6.5h178l-3 -85h-75
q31 -29 31 -81q0 -73 -46 -116.5t-136 -43.5q-16 0 -30.5 1.5t-29.5 3.5q-30 -4 -50.5 -14t-20.5 -27q0 -23 41 -23h134q72 0 111 -32.5t39 -94.5q0 -70 -63 -104t-182 -34zM268 224q60 0 83.5 20.5t23.5 69.5t-23.5 71t-83.5 22q-57 0 -82 -21.5t-25 -71.5q0 -46 23.5 -68
t83.5 -22z" />
    <glyph glyph-name="uni1E24" unicode="&#x1e24;" horiz-adv-x="665" 
d="M57 0v644h135v-270h281v270h135v-644h-135v270h-281v-270h-135zM278 -181v99h107v-99h-107z" />
    <glyph glyph-name="uni1E25" unicode="&#x1e25;" horiz-adv-x="587" 
d="M57 0v674h135v-240q29 22 71 36t91 14q94 0 137 -44t43 -136v-304h-135v297q0 48 -19.5 68t-72.5 20q-31 0 -62.5 -14t-52.5 -35v-336h-135zM248 -181v99h107v-99h-107z" />
    <glyph glyph-name="uni1E2A" unicode="&#x1e2a;" horiz-adv-x="665" 
d="M57 0v644h135v-270h281v270h135v-644h-135v270h-281v-270h-135zM330 -217q-70 0 -113.5 42t-43.5 115h90q0 -31 16.5 -55t50.5 -24q35 0 52 24t17 55h90q0 -73 -44 -115t-115 -42z" />
    <glyph glyph-name="uni1E2B" unicode="&#x1e2b;" horiz-adv-x="587" 
d="M57 0v674h135v-240q29 22 71 36t91 14q94 0 137 -44t43 -136v-304h-135v297q0 48 -19.5 68t-72.5 20q-31 0 -62.5 -14t-52.5 -35v-336h-135zM303 -217q-70 0 -113.5 42t-43.5 115h90q0 -31 16.5 -55t50.5 -24q35 0 52 24t17 55h90q0 -73 -44 -115t-115 -42z" />
    <glyph glyph-name="uni1E36" unicode="&#x1e36;" horiz-adv-x="526" 
d="M57 0v644h135v-540h317v-104h-452zM222 -181v99h107v-99h-107z" />
    <glyph glyph-name="uni1E37" unicode="&#x1e37;" horiz-adv-x="298" 
d="M189 -10q-69 0 -100.5 32t-31.5 102v550h135v-539q0 -25 10 -34.5t29 -9.5q26 0 47 7v-93q-38 -15 -89 -15zM107 -181v99h107v-99h-107z" />
    <glyph glyph-name="uni1E38" unicode="&#x1e38;" horiz-adv-x="527" 
d="M-10 717v83h308v-83h-308zM58 0v644h135v-540h317v-104h-452zM223 -181v99h107v-99h-107z" />
    <glyph glyph-name="uni1E39" unicode="&#x1e39;" horiz-adv-x="298" 
d="M-29 724v83h308v-83h-308zM189 -10q-69 0 -100.5 32t-31.5 102v550h135v-539q0 -25 10 -34.5t29 -9.5q26 0 47 7v-93q-38 -15 -89 -15zM107 -181v99h107v-99h-107z" />
    <glyph glyph-name="uni1E3A" unicode="&#x1e3a;" horiz-adv-x="526" 
d="M57 0v644h135v-540h317v-104h-452zM123 -158v83h308v-83h-308z" />
    <glyph glyph-name="uni1E3B" unicode="&#x1e3b;" horiz-adv-x="298" 
d="M189 -10q-69 0 -100.5 32t-31.5 102v550h135v-539q0 -25 10 -34.5t29 -9.5q26 0 47 7v-93q-38 -15 -89 -15zM0 -158v83h308v-83h-308z" />
    <glyph glyph-name="uni1E42" unicode="&#x1e42;" horiz-adv-x="763" 
d="M57 0v644h136l189 -387l189 387h135v-644h-135v419l-150 -308h-78l-151 308v-419h-135zM341 -181v99h107v-99h-107z" />
    <glyph glyph-name="uni1E43" unicode="&#x1e43;" horiz-adv-x="858" 
d="M57 0v474h125l5 -46q34 26 74.5 41t87.5 15q50 0 77.5 -15t42.5 -43q33 26 75.5 42t100.5 16q82 0 121 -42.5t39 -129.5v-312h-133v297q0 47 -20 67.5t-64 20.5q-60 0 -100 -43q5 -17 5 -41v-301h-126v297q0 44 -15 66t-58 22q-30 0 -56.5 -15.5t-47.5 -35.5v-334h-133z
M390 -181v99h107v-99h-107z" />
    <glyph glyph-name="uni1E44" unicode="&#x1e44;" horiz-adv-x="671" 
d="M291 713v98h105v-98h-105zM57 0v644h117l305 -429v429h135v-644h-117l-305 429v-429h-135z" />
    <glyph glyph-name="uni1E45" unicode="&#x1e45;" horiz-adv-x="587" 
d="M244 547v98h105v-98h-105zM57 0v474h125l5 -45q29 22 73.5 38.5t93.5 16.5q94 0 137 -44t43 -136v-304h-135v297q0 48 -19.5 68t-72.5 20q-31 0 -62.5 -14t-52.5 -35v-336h-135z" />
    <glyph glyph-name="uni1E46" unicode="&#x1e46;" horiz-adv-x="671" 
d="M57 0v644h117l305 -429v429h135v-644h-117l-305 429v-429h-135zM284 -181v99h107v-99h-107z" />
    <glyph glyph-name="uni1E47" unicode="&#x1e47;" horiz-adv-x="587" 
d="M57 0v474h125l5 -45q29 22 73.5 38.5t93.5 16.5q94 0 137 -44t43 -136v-304h-135v297q0 48 -19.5 68t-72.5 20q-31 0 -62.5 -14t-52.5 -35v-336h-135zM249 -181v99h107v-99h-107z" />
    <glyph glyph-name="uni1E48" unicode="&#x1e48;" horiz-adv-x="671" 
d="M57 0v644h117l305 -429v429h135v-644h-117l-305 429v-429h-135zM185 -155v83h308v-83h-308z" />
    <glyph glyph-name="uni1E49" unicode="&#x1e49;" horiz-adv-x="587" 
d="M57 0v474h125l5 -45q29 22 73.5 38.5t93.5 16.5q94 0 137 -44t43 -136v-304h-135v297q0 48 -19.5 68t-72.5 20q-31 0 -62.5 -14t-52.5 -35v-336h-135zM148 -155v83h308v-83h-308z" />
    <glyph glyph-name="uni1E5A" unicode="&#x1e5a;" horiz-adv-x="618" 
d="M57 0v644h309q111 0 163 -58.5t52 -157.5q0 -65 -33.5 -112t-94.5 -68q16 -13 25.5 -28t19.5 -40l78 -180h-140l-76 173q-10 22 -22 31t-40 9h-106v-213h-135zM192 325h139q53 0 83 23.5t30 79.5q0 54 -26 79t-79 25h-147v-207zM258 -181v99h107v-99h-107z" />
    <glyph glyph-name="uni1E5B" unicode="&#x1e5b;" horiz-adv-x="378" 
d="M57 0v474h125l6 -49q32 20 79.5 36.5t93.5 22.5v-102q-27 -4 -59 -12t-61 -18t-49 -21v-331h-135zM63 -181v99h107v-99h-107z" />
    <glyph glyph-name="uni1E5C" unicode="&#x1e5c;" horiz-adv-x="618" 
d="M141 717v83h308v-83h-308zM57 0v644h309q111 0 163 -58.5t52 -157.5q0 -65 -33.5 -112t-94.5 -68q16 -13 25.5 -28t19.5 -40l78 -180h-140l-76 173q-10 22 -22 31t-40 9h-106v-213h-135zM192 325h139q53 0 83 23.5t30 79.5q0 54 -26 79t-79 25h-147v-207zM241 -181v99
h107v-99h-107z" />
    <glyph glyph-name="uni1E5D" unicode="&#x1e5d;" horiz-adv-x="386" 
d="M22 551v83h308v-83h-308zM65 0v474h125l6 -49q32 20 79.5 36.5t93.5 22.5v-102q-27 -4 -59 -12t-61 -18t-49 -21v-331h-135zM78 -181v99h107v-99h-107z" />
    <glyph glyph-name="uni1E5E" unicode="&#x1e5e;" horiz-adv-x="618" 
d="M57 0v644h309q111 0 163 -58.5t52 -157.5q0 -65 -33.5 -112t-94.5 -68q16 -13 25.5 -28t19.5 -40l78 -180h-140l-76 173q-10 22 -22 31t-40 9h-106v-213h-135zM192 325h139q53 0 83 23.5t30 79.5q0 54 -26 79t-79 25h-147v-207zM144 -155v83h308v-83h-308z" />
    <glyph glyph-name="uni1E5F" unicode="&#x1e5f;" horiz-adv-x="378" 
d="M57 0v474h125l6 -49q32 20 79.5 36.5t93.5 22.5v-102q-27 -4 -59 -12t-61 -18t-49 -21v-331h-135zM-25 -155v83h308v-83h-308z" />
    <glyph glyph-name="uni1E60" unicode="&#x1e60;" horiz-adv-x="555" 
d="M219 713v98h105v-98h-105zM257 -10q-62 0 -115.5 9t-92.5 26v119q44 -18 95 -29t100 -11q70 0 103 13t33 59q0 29 -14 46t-48.5 30.5t-97.5 30.5q-101 28 -142 70t-41 116q0 89 65 137t189 48q58 0 108 -8t81 -19v-119q-82 31 -171 31q-63 0 -99 -13.5t-36 -56.5
q0 -25 13 -40t44.5 -27t88.5 -27q79 -21 122 -50t59.5 -66t16.5 -83q0 -84 -64 -135t-197 -51z" />
    <glyph glyph-name="uni1E61" unicode="&#x1e61;" horiz-adv-x="471" 
d="M179 547v98h105v-98h-105zM224 -10q-53 0 -101 7.5t-77 18.5v112q35 -14 79 -21.5t81 -7.5q50 0 70.5 6t20.5 27q0 24 -31.5 35t-93.5 31q-65 22 -100 53t-35 92q0 68 49.5 104.5t159.5 36.5q44 0 83 -6.5t66 -15.5v-111q-27 13 -62 19.5t-65 6.5q-43 0 -68.5 -6
t-25.5 -26q0 -22 27.5 -31t85.5 -27q57 -17 89 -37t45 -47.5t13 -68.5q0 -144 -210 -144z" />
    <glyph glyph-name="uni1E62" unicode="&#x1e62;" horiz-adv-x="555" 
d="M257 -10q-62 0 -115.5 9t-92.5 26v119q44 -18 95 -29t100 -11q70 0 103 13t33 59q0 29 -14 46t-48.5 30.5t-97.5 30.5q-101 28 -142 70t-41 116q0 89 65 137t189 48q58 0 108 -8t81 -19v-119q-82 31 -171 31q-63 0 -99 -13.5t-36 -56.5q0 -25 13 -40t44.5 -27t88.5 -27
q79 -21 122 -50t59.5 -66t16.5 -83q0 -84 -64 -135t-197 -51zM221 -181v99h107v-99h-107z" />
    <glyph glyph-name="uni1E63" unicode="&#x1e63;" horiz-adv-x="471" 
d="M224 -10q-53 0 -101 7.5t-77 18.5v112q35 -14 79 -21.5t81 -7.5q50 0 70.5 6t20.5 27q0 24 -31.5 35t-93.5 31q-65 22 -100 53t-35 92q0 68 49.5 104.5t159.5 36.5q44 0 83 -6.5t66 -15.5v-111q-27 13 -62 19.5t-65 6.5q-43 0 -68.5 -6t-25.5 -26q0 -22 27.5 -31
t85.5 -27q57 -17 89 -37t45 -47.5t13 -68.5q0 -144 -210 -144zM194 -181v99h107v-99h-107z" />
    <glyph glyph-name="uni1E6C" unicode="&#x1e6c;" horiz-adv-x="564" 
d="M215 0v540h-198v104h530v-104h-197v-540h-135zM226 -171v99h107v-99h-107z" />
    <glyph glyph-name="uni1E6D" unicode="&#x1e6d;" horiz-adv-x="368" 
d="M245 -10q-82 0 -121.5 43t-39.5 117v220h-67v104h67v102l135 40v-142h120l-8 -104h-112v-211q0 -39 18 -53.5t56 -14.5q28 0 58 10v-93q-22 -9 -48 -13.5t-58 -4.5zM175 -171v99h107v-99h-107z" />
    <glyph glyph-name="uni1E6E" unicode="&#x1e6e;" horiz-adv-x="564" 
d="M215 0v540h-198v104h530v-104h-197v-540h-135zM128 -145v83h308v-83h-308z" />
    <glyph glyph-name="uni1E6F" unicode="&#x1e6f;" horiz-adv-x="376" 
d="M245 -10q-82 0 -121.5 43t-39.5 117v220h-67v104h67v102l135 40v-142h120l-8 -104h-112v-211q0 -39 18 -53.5t56 -14.5q28 0 58 10v-93q-22 -9 -48 -13.5t-58 -4.5zM51 -145v83h308v-83h-308z" />
    <glyph glyph-name="Wgrave" unicode="&#x1e80;" horiz-adv-x="875" 
d="M377 688l-88 187h117l80 -187h-109zM187 0l-150 644h133l97 -435l105 351v84h110l124 -436l100 436h132l-149 -644h-128l-118 412l-127 -412h-129z" />
    <glyph glyph-name="wgrave" unicode="&#x1e81;" horiz-adv-x="757" 
d="M319 522l-88 187h117l80 -187h-109zM162 0l-125 474h135l72 -308l79 247v61h103l90 -308l70 308h134l-124 -474h-124l-91 277l-93 -277h-126z" />
    <glyph glyph-name="Wacute" unicode="&#x1e82;" horiz-adv-x="875" 
d="M376 688l80 187h117l-88 -187h-109zM187 0l-150 644h133l97 -435l105 351v84h110l124 -436l100 436h132l-149 -644h-128l-118 412l-127 -412h-129z" />
    <glyph glyph-name="wacute" unicode="&#x1e83;" horiz-adv-x="757" 
d="M320 522l80 187h117l-88 -187h-109zM162 0l-125 474h135l72 -308l79 247v61h103l90 -308l70 308h134l-124 -474h-124l-91 277l-93 -277h-126z" />
    <glyph glyph-name="Wdieresis" unicode="&#x1e84;" horiz-adv-x="875" 
d="M292 713v98h106v-98h-106zM488 713v98h106v-98h-106zM187 0l-150 644h133l97 -435l105 351v84h110l124 -436l100 436h132l-149 -644h-128l-118 412l-127 -412h-129z" />
    <glyph glyph-name="wdieresis" unicode="&#x1e85;" horiz-adv-x="757" 
d="M230 547v98h106v-98h-106zM426 547v98h106v-98h-106zM162 0l-125 474h135l72 -308l79 247v61h103l90 -308l70 308h134l-124 -474h-124l-91 277l-93 -277h-126z" />
    <glyph glyph-name="uni1E8E" unicode="&#x1e8e;" horiz-adv-x="671" 
d="M283 713v98h105v-98h-105zM268 0v238l-231 406h141l158 -291l158 291h140l-231 -406v-238h-135z" />
    <glyph glyph-name="uni1E8F" unicode="&#x1e8f;" horiz-adv-x="613" 
d="M264 547v98h105v-98h-105zM181 -176q-31 0 -55 3.5t-47 12.5v95q17 -6 31.5 -8t29.5 -2q41 0 63.5 19t45.5 64l-212 466h141l139 -322l138 322h140l-187 -441q-26 -62 -56.5 -109.5t-71.5 -73.5t-99 -26z" />
    <glyph glyph-name="uni1E92" unicode="&#x1e92;" horiz-adv-x="579" 
d="M37 0v70l324 462h-308v112h484v-82l-321 -458h326v-104h-505zM256 -181v99h107v-99h-107z" />
    <glyph glyph-name="uni1E93" unicode="&#x1e93;" horiz-adv-x="489" 
d="M37 0v70l239 292h-229v112h398v-82l-234 -288h241v-104h-415zM192 -181v99h107v-99h-107z" />
    <glyph glyph-name="uni1E97" unicode="&#x1e97;" horiz-adv-x="378" 
d="M27 642v98h106v-98h-106zM223 642v98h106v-98h-106zM254 -10q-82 0 -121.5 43t-39.5 117v220h-67v104h67v102l135 40v-142h120l-8 -104h-112v-211q0 -39 18 -53.5t56 -14.5q28 0 58 10v-93q-22 -9 -48 -13.5t-58 -4.5z" />
    <glyph glyph-name="uni1E9E" unicode="&#x1e9e;" horiz-adv-x="627" 
d="M392 -10q-81 0 -144 23v114q24 -10 56 -16t61 -6q99 0 99 82q0 38 -26 53.5t-67 15.5h-94v106l164 102q0 32 -31 56t-96 24q-69 0 -101.5 -30.5t-32.5 -90.5v-423h-128v417q0 112 67.5 174.5t194.5 62.5q90 0 146 -30t82 -80.5t26 -110.5l-156 -94h25q44 0 78.5 -19.5
t54.5 -54.5t20 -80q0 -55 -24 -99t-68.5 -70t-105.5 -26z" />
    <glyph glyph-name="uni1EA0" unicode="&#x1ea0;" horiz-adv-x="713" 
d="M37 0l246 644h148l245 -644h-140l-61 155h-237l-60 -155h-141zM258 259h197l-99 259zM303 -181v99h107v-99h-107z" />
    <glyph glyph-name="uni1EA1" unicode="&#x1ea1;" horiz-adv-x="554" 
d="M206 -10q-45 0 -83.5 16.5t-62 49t-23.5 81.5q0 70 49.5 112t146.5 42h140v13q0 44 -24.5 62t-98.5 18q-81 0 -156 -25v95q33 13 80.5 21.5t103.5 8.5q107 0 165.5 -43.5t58.5 -139.5v-301h-117l-7 43q-28 -25 -69 -39t-103 -14zM243 79q45 0 78 15t52 38v75h-137
q-79 0 -79 -65q0 -63 86 -63zM245 -181v99h107v-99h-107z" />
    <glyph glyph-name="uni1EA2" unicode="&#x1ea2;" horiz-adv-x="713" 
d="M307 688v81q55 3 72.5 14.5t17.5 33.5q0 20 -18.5 29.5t-50.5 9.5q-14 0 -32 -3t-30 -8v67q39 13 100 13q64 0 97.5 -26t33.5 -70q0 -42 -19.5 -64t-67.5 -31v-46h-103zM37 0l246 644h148l245 -644h-140l-61 155h-237l-60 -155h-141zM258 259h197l-99 259z" />
    <glyph glyph-name="uni1EA3" unicode="&#x1ea3;" horiz-adv-x="554" 
d="M230 521v81q55 3 72.5 14.5t17.5 33.5q0 20 -18.5 29.5t-50.5 9.5q-14 0 -32 -3t-30 -8v67q39 13 100 13q64 0 97.5 -26t33.5 -70q0 -42 -19.5 -64t-67.5 -31v-46h-103zM206 -10q-45 0 -83.5 16.5t-62 49t-23.5 81.5q0 70 49.5 112t146.5 42h140v13q0 44 -24.5 62
t-98.5 18q-81 0 -156 -25v95q33 13 80.5 21.5t103.5 8.5q107 0 165.5 -43.5t58.5 -139.5v-301h-117l-7 43q-28 -25 -69 -39t-103 -14zM243 79q45 0 78 15t52 38v75h-137q-79 0 -79 -65q0 -63 86 -63z" />
    <glyph glyph-name="uni1EA4" unicode="&#x1ea4;" horiz-adv-x="713" 
d="M453 805l66 141h102l-73 -141h-95zM174 688l126 135h103l126 -135h-109l-68 81l-67 -81h-111zM37 0l246 644h148l245 -644h-140l-61 155h-237l-60 -155h-141zM258 259h197l-99 259z" />
    <glyph glyph-name="uni1EA5" unicode="&#x1ea5;" horiz-adv-x="554" 
d="M397 638l66 141h102l-73 -141h-95zM118 521l126 135h103l126 -135h-109l-68 81l-67 -81h-111zM206 -10q-45 0 -83.5 16.5t-62 49t-23.5 81.5q0 70 49.5 112t146.5 42h140v13q0 44 -24.5 62t-98.5 18q-81 0 -156 -25v95q33 13 80.5 21.5t103.5 8.5q107 0 165.5 -43.5
t58.5 -139.5v-301h-117l-7 43q-28 -25 -69 -39t-103 -14zM243 79q45 0 78 15t52 38v75h-137q-79 0 -79 -65q0 -63 86 -63z" />
    <glyph glyph-name="uni1EA6" unicode="&#x1ea6;" horiz-adv-x="713" 
d="M159 805l-73 141h102l66 -141h-95zM178 688l126 135h103l126 -135h-111l-67 81l-68 -81h-109zM37 0l246 644h148l245 -644h-140l-61 155h-237l-60 -155h-141zM258 259h197l-99 259z" />
    <glyph glyph-name="uni1EA7" unicode="&#x1ea7;" horiz-adv-x="554" 
d="M92 638l-73 141h102l66 -141h-95zM111 521l126 135h103l126 -135h-111l-67 81l-68 -81h-109zM206 -10q-45 0 -83.5 16.5t-62 49t-23.5 81.5q0 70 49.5 112t146.5 42h140v13q0 44 -24.5 62t-98.5 18q-81 0 -156 -25v95q33 13 80.5 21.5t103.5 8.5q107 0 165.5 -43.5
t58.5 -139.5v-301h-117l-7 43q-28 -25 -69 -39t-103 -14zM243 79q45 0 78 15t52 38v75h-137q-79 0 -79 -65q0 -63 86 -63z" />
    <glyph glyph-name="uni1EA8" unicode="&#x1ea8;" horiz-adv-x="713" 
d="M466 783v70q47 2 61 10.5t14 24.5q0 27 -45 27q-16 0 -29.5 -3.5t-24.5 -8.5v62q16 5 35.5 8.5t47.5 3.5q53 0 81.5 -22.5t28.5 -58.5q0 -33 -18 -53t-58 -26v-34h-93zM178 688l126 135h103l126 -135h-109l-68 81l-67 -81h-111zM37 0l246 644h148l245 -644h-140l-61 155
h-237l-60 -155h-141zM258 259h197l-99 259z" />
    <glyph glyph-name="uni1EA9" unicode="&#x1ea9;" horiz-adv-x="561" 
d="M398 616v70q47 2 61 10.5t14 24.5q0 27 -45 27q-16 0 -29.5 -3.5t-24.5 -8.5v62q16 5 35.5 8.5t47.5 3.5q53 0 81.5 -22.5t28.5 -58.5q0 -33 -18 -53t-58 -26v-34h-93zM110 521l126 135h103l126 -135h-109l-68 81l-67 -81h-111zM206 -10q-45 0 -83.5 16.5t-62 49
t-23.5 81.5q0 70 49.5 112t146.5 42h140v13q0 44 -24.5 62t-98.5 18q-81 0 -156 -25v95q33 13 80.5 21.5t103.5 8.5q107 0 165.5 -43.5t58.5 -139.5v-301h-117l-7 43q-28 -25 -69 -39t-103 -14zM243 79q45 0 78 15t52 38v75h-137q-79 0 -79 -65q0 -63 86 -63z" />
    <glyph glyph-name="uni1EAA" unicode="&#x1eaa;" horiz-adv-x="713" 
d="M450 838q-29 0 -57 10t-53.5 20t-50.5 10q-56 0 -90 -37v86q14 14 37.5 22.5t49.5 8.5q31 0 57 -10t51 -20t53 -10q56 0 83 38v-86q-10 -13 -31 -22.5t-49 -9.5zM178 688l126 135h103l126 -135h-109l-68 81l-67 -81h-111zM37 0l246 644h148l245 -644h-140l-61 155h-237
l-60 -155h-141zM258 259h197l-99 259z" />
    <glyph glyph-name="uni1EAB" unicode="&#x1eab;" horiz-adv-x="554" 
d="M384 671q-29 0 -57 10t-53.5 20t-50.5 10q-56 0 -90 -37v86q14 14 37.5 22.5t49.5 8.5q31 0 57 -10t51 -20t53 -10q56 0 83 38v-86q-10 -13 -31 -22.5t-49 -9.5zM112 521l126 135h103l126 -135h-109l-68 81l-67 -81h-111zM206 -10q-45 0 -83.5 16.5t-62 49t-23.5 81.5
q0 70 49.5 112t146.5 42h140v13q0 44 -24.5 62t-98.5 18q-81 0 -156 -25v95q33 13 80.5 21.5t103.5 8.5q107 0 165.5 -43.5t58.5 -139.5v-301h-117l-7 43q-28 -25 -69 -39t-103 -14zM243 79q45 0 78 15t52 38v75h-137q-79 0 -79 -65q0 -63 86 -63z" />
    <glyph glyph-name="uni1EAC" unicode="&#x1eac;" horiz-adv-x="713" 
d="M178 688l135 174h86l135 -174h-104l-74 100l-72 -100h-106zM37 0l246 644h148l245 -644h-140l-61 155h-237l-60 -155h-141zM258 259h197l-99 259zM303 -181v99h107v-99h-107z" />
    <glyph glyph-name="uni1EAD" unicode="&#x1ead;" horiz-adv-x="554" 
d="M114 522l135 174h86l135 -174h-104l-74 100l-72 -100h-106zM206 -10q-45 0 -83.5 16.5t-62 49t-23.5 81.5q0 70 49.5 112t146.5 42h140v13q0 44 -24.5 62t-98.5 18q-81 0 -156 -25v95q33 13 80.5 21.5t103.5 8.5q107 0 165.5 -43.5t58.5 -139.5v-301h-117l-7 43
q-28 -25 -69 -39t-103 -14zM243 79q45 0 78 15t52 38v75h-137q-79 0 -79 -65q0 -63 86 -63zM239 -181v99h107v-99h-107z" />
    <glyph glyph-name="uni1EAE" unicode="&#x1eae;" horiz-adv-x="713" 
d="M302 818l66 141h102l-73 -141h-95zM357 688q-70 0 -117.5 36.5t-47.5 119.5h80q0 -41 22.5 -63t62.5 -22t62 22t22 63h80q0 -83 -47 -119.5t-117 -36.5zM37 0l246 644h148l245 -644h-140l-61 155h-237l-60 -155h-141zM258 259h197l-99 259z" />
    <glyph glyph-name="uni1EAF" unicode="&#x1eaf;" horiz-adv-x="554" 
d="M244 652l66 141h102l-73 -141h-95zM299 522q-70 0 -117.5 36.5t-47.5 119.5h80q0 -41 22.5 -63t62.5 -22t62 22t22 63h80q0 -83 -47 -119.5t-117 -36.5zM206 -10q-45 0 -83.5 16.5t-62 49t-23.5 81.5q0 70 49.5 112t146.5 42h140v13q0 44 -24.5 62t-98.5 18
q-81 0 -156 -25v95q33 13 80.5 21.5t103.5 8.5q107 0 165.5 -43.5t58.5 -139.5v-301h-117l-7 43q-28 -25 -69 -39t-103 -14zM243 79q45 0 78 15t52 38v75h-137q-79 0 -79 -65q0 -63 86 -63z" />
    <glyph glyph-name="uni1EB0" unicode="&#x1eb0;" horiz-adv-x="713" 
d="M316 818l-73 141h102l66 -141h-95zM356 688q-70 0 -117 36.5t-47 119.5h80q0 -41 22 -63t62 -22q41 0 63 22t22 63h80q0 -83 -47 -119.5t-118 -36.5zM37 0l246 644h148l245 -644h-140l-61 155h-237l-60 -155h-141zM258 259h197l-99 259z" />
    <glyph glyph-name="uni1EB1" unicode="&#x1eb1;" horiz-adv-x="554" 
d="M254 652l-73 141h102l66 -141h-95zM294 522q-70 0 -117 36.5t-47 119.5h80q0 -41 22 -63t62 -22q41 0 63 22t22 63h80q0 -83 -47 -119.5t-118 -36.5zM206 -10q-45 0 -83.5 16.5t-62 49t-23.5 81.5q0 70 49.5 112t146.5 42h140v13q0 44 -24.5 62t-98.5 18q-81 0 -156 -25
v95q33 13 80.5 21.5t103.5 8.5q107 0 165.5 -43.5t58.5 -139.5v-301h-117l-7 43q-28 -25 -69 -39t-103 -14zM243 79q45 0 78 15t52 38v75h-137q-79 0 -79 -65q0 -63 86 -63z" />
    <glyph glyph-name="uni1EB2" unicode="&#x1eb2;" horiz-adv-x="713" 
d="M307 827v60q46 2 62.5 12.5t16.5 28.5q0 19 -12 25.5t-38 6.5q-15 0 -28.5 -3.5t-25.5 -8.5v57q17 5 40 8.5t48 3.5q50 0 77.5 -22t27.5 -58q0 -33 -17.5 -51.5t-58.5 -26.5v-32h-92zM357 688q-70 0 -117.5 36.5t-47.5 119.5h80q0 -41 22.5 -63t62.5 -22t62 22t22 63h80
q0 -83 -47 -119.5t-117 -36.5zM37 0l246 644h148l245 -644h-140l-61 155h-237l-60 -155h-141zM258 259h197l-99 259z" />
    <glyph glyph-name="uni1EB3" unicode="&#x1eb3;" horiz-adv-x="554" 
d="M251 661v60q46 2 62.5 12.5t16.5 28.5q0 19 -12 25.5t-38 6.5q-15 0 -28.5 -3.5t-25.5 -8.5v57q17 5 40 8.5t48 3.5q50 0 77.5 -22t27.5 -58q0 -33 -17.5 -51.5t-58.5 -26.5v-32h-92zM301 522q-70 0 -117.5 36.5t-47.5 119.5h80q0 -41 22.5 -63t62.5 -22t62 22t22 63h80
q0 -83 -47 -119.5t-117 -36.5zM206 -10q-45 0 -83.5 16.5t-62 49t-23.5 81.5q0 70 49.5 112t146.5 42h140v13q0 44 -24.5 62t-98.5 18q-81 0 -156 -25v95q33 13 80.5 21.5t103.5 8.5q107 0 165.5 -43.5t58.5 -139.5v-301h-117l-7 43q-28 -25 -69 -39t-103 -14zM243 79
q45 0 78 15t52 38v75h-137q-79 0 -79 -65q0 -63 86 -63z" />
    <glyph glyph-name="uni1EB4" unicode="&#x1eb4;" horiz-adv-x="713" 
d="M443 865q-29 0 -57 10t-53.5 20t-50.5 10q-56 0 -90 -37v86q14 14 37.5 22.5t49.5 8.5q31 0 57 -10t51 -20t53 -10q56 0 83 38v-86q-10 -13 -31 -22.5t-49 -9.5zM357 688q-70 0 -117.5 36.5t-47.5 119.5h80q0 -41 22.5 -63t62.5 -22t62 22t22 63h80q0 -83 -47 -119.5
t-117 -36.5zM37 0l246 644h148l245 -644h-140l-61 155h-237l-60 -155h-141zM258 259h197l-99 259z" />
    <glyph glyph-name="uni1EB5" unicode="&#x1eb5;" horiz-adv-x="554" 
d="M393 699q-29 0 -57 10t-53.5 20t-50.5 10q-56 0 -90 -37v86q14 14 37.5 22.5t49.5 8.5q31 0 57 -10t51 -20t53 -10q56 0 83 38v-86q-10 -13 -31 -22.5t-49 -9.5zM307 522q-70 0 -117.5 36.5t-47.5 119.5h80q0 -41 22.5 -63t62.5 -22t62 22t22 63h80q0 -83 -47 -119.5
t-117 -36.5zM206 -10q-45 0 -83.5 16.5t-62 49t-23.5 81.5q0 70 49.5 112t146.5 42h140v13q0 44 -24.5 62t-98.5 18q-81 0 -156 -25v95q33 13 80.5 21.5t103.5 8.5q107 0 165.5 -43.5t58.5 -139.5v-301h-117l-7 43q-28 -25 -69 -39t-103 -14zM243 79q45 0 78 15t52 38v75
h-137q-79 0 -79 -65q0 -63 86 -63z" />
    <glyph glyph-name="uni1EB6" unicode="&#x1eb6;" horiz-adv-x="713" 
d="M355 688q-70 0 -113.5 42t-43.5 115h90q0 -31 16.5 -55t50.5 -24q35 0 52 24t17 55h90q0 -73 -44 -115t-115 -42zM37 0l246 644h148l245 -644h-140l-61 155h-237l-60 -155h-141zM258 259h197l-99 259zM303 -181v99h107v-99h-107z" />
    <glyph glyph-name="uni1EB7" unicode="&#x1eb7;" horiz-adv-x="554" 
d="M300 522q-70 0 -113.5 42t-43.5 115h90q0 -31 16.5 -55t50.5 -24q35 0 52 24t17 55h90q0 -73 -44 -115t-115 -42zM206 -10q-45 0 -83.5 16.5t-62 49t-23.5 81.5q0 70 49.5 112t146.5 42h140v13q0 44 -24.5 62t-98.5 18q-81 0 -156 -25v95q33 13 80.5 21.5t103.5 8.5
q107 0 165.5 -43.5t58.5 -139.5v-301h-117l-7 43q-28 -25 -69 -39t-103 -14zM243 79q45 0 78 15t52 38v75h-137q-79 0 -79 -65q0 -63 86 -63zM248 -181v99h107v-99h-107z" />
    <glyph glyph-name="uni1EB8" unicode="&#x1eb8;" horiz-adv-x="556" 
d="M57 0v644h462v-105h-327v-165h290v-104h-290v-166h327v-104h-462zM231 -181v99h107v-99h-107z" />
    <glyph glyph-name="uni1EB9" unicode="&#x1eb9;" horiz-adv-x="542" 
d="M304 -10q-123 0 -195 61.5t-72 186.5q0 113 60.5 179.5t180.5 66.5q110 0 168.5 -57.5t58.5 -150.5v-86h-343q11 -57 52.5 -78t117.5 -21q38 0 77.5 7t67.5 18v-96q-33 -15 -77 -22.5t-96 -7.5zM162 273h225v26q0 41 -24 64.5t-81 23.5q-67 0 -93.5 -27t-26.5 -87z
M231 -181v99h107v-99h-107z" />
    <glyph glyph-name="uni1EBA" unicode="&#x1eba;" horiz-adv-x="556" 
d="M235 687v81q55 3 72.5 14.5t17.5 33.5q0 20 -18.5 29.5t-50.5 9.5q-14 0 -32 -3t-30 -8v67q39 13 100 13q64 0 97.5 -26t33.5 -70q0 -42 -19.5 -64t-67.5 -31v-46h-103zM57 0v644h462v-105h-327v-165h290v-104h-290v-166h327v-104h-462z" />
    <glyph glyph-name="uni1EBB" unicode="&#x1ebb;" horiz-adv-x="542" 
d="M232 521v81q55 3 72.5 14.5t17.5 33.5q0 20 -18.5 29.5t-50.5 9.5q-14 0 -32 -3t-30 -8v67q39 13 100 13q64 0 97.5 -26t33.5 -70q0 -42 -19.5 -64t-67.5 -31v-46h-103zM304 -10q-123 0 -195 61.5t-72 186.5q0 113 60.5 179.5t180.5 66.5q110 0 168.5 -57.5t58.5 -150.5
v-86h-343q11 -57 52.5 -78t117.5 -21q38 0 77.5 7t67.5 18v-96q-33 -15 -77 -22.5t-96 -7.5zM162 273h225v26q0 41 -24 64.5t-81 23.5q-67 0 -93.5 -27t-26.5 -87z" />
    <glyph glyph-name="uni1EBC" unicode="&#x1ebc;" horiz-adv-x="556" 
d="M374 700q-29 0 -57 10t-53.5 20t-50.5 10q-56 0 -90 -37v96q14 14 37.5 22.5t49.5 8.5q31 0 57 -10t51 -20t53 -10q56 0 83 38v-96q-10 -13 -31 -22.5t-49 -9.5zM57 0v644h462v-105h-327v-165h290v-104h-290v-166h327v-104h-462z" />
    <glyph glyph-name="uni1EBD" unicode="&#x1ebd;" horiz-adv-x="542" 
d="M369 534q-29 0 -57 10t-53.5 20t-50.5 10q-56 0 -90 -37v96q14 14 37.5 22.5t49.5 8.5q31 0 57 -10t51 -20t53 -10q56 0 83 38v-96q-10 -13 -31 -22.5t-49 -9.5zM304 -10q-123 0 -195 61.5t-72 186.5q0 113 60.5 179.5t180.5 66.5q110 0 168.5 -57.5t58.5 -150.5v-86
h-343q11 -57 52.5 -78t117.5 -21q38 0 77.5 7t67.5 18v-96q-33 -15 -77 -22.5t-96 -7.5zM162 273h225v26q0 41 -24 64.5t-81 23.5q-67 0 -93.5 -27t-26.5 -87z" />
    <glyph glyph-name="uni1EBE" unicode="&#x1ebe;" horiz-adv-x="551" 
d="M391 804l66 141h102l-73 -141h-95zM112 687l126 135h103l126 -135h-109l-68 81l-67 -81h-111zM57 0v644h462v-105h-327v-165h290v-104h-290v-166h327v-104h-462z" />
    <glyph glyph-name="uni1EBF" unicode="&#x1ebf;" horiz-adv-x="542" 
d="M387 638l66 141h102l-73 -141h-95zM108 521l126 135h103l126 -135h-109l-68 81l-67 -81h-111zM304 -10q-123 0 -195 61.5t-72 186.5q0 113 60.5 179.5t180.5 66.5q110 0 168.5 -57.5t58.5 -150.5v-86h-343q11 -57 52.5 -78t117.5 -21q38 0 77.5 7t67.5 18v-96
q-33 -15 -77 -22.5t-96 -7.5zM162 273h225v26q0 41 -24 64.5t-81 23.5q-67 0 -93.5 -27t-26.5 -87z" />
    <glyph glyph-name="uni1EC0" unicode="&#x1ec0;" horiz-adv-x="556" 
d="M95 804l-73 141h102l66 -141h-95zM114 687l126 135h103l126 -135h-111l-67 81l-68 -81h-109zM57 0v644h462v-105h-327v-165h290v-104h-290v-166h327v-104h-462z" />
    <glyph glyph-name="uni1EC1" unicode="&#x1ec1;" horiz-adv-x="542" 
d="M89 648l-73 141h102l66 -141h-95zM108 531l126 135h103l126 -135h-111l-67 81l-68 -81h-109zM304 -10q-123 0 -195 61.5t-72 186.5q0 113 60.5 179.5t180.5 66.5q110 0 168.5 -57.5t58.5 -150.5v-86h-343q11 -57 52.5 -78t117.5 -21q38 0 77.5 7t67.5 18v-96
q-33 -15 -77 -22.5t-96 -7.5zM162 273h225v26q0 41 -24 64.5t-81 23.5q-67 0 -93.5 -27t-26.5 -87z" />
    <glyph glyph-name="uni1EC2" unicode="&#x1ec2;" horiz-adv-x="551" 
d="M400 782v70q47 2 61 10.5t14 24.5q0 27 -45 27q-16 0 -29.5 -3.5t-24.5 -8.5v62q16 5 35.5 8.5t47.5 3.5q53 0 81.5 -22.5t28.5 -58.5q0 -33 -18 -53t-58 -26v-34h-93zM112 687l126 135h103l126 -135h-109l-68 81l-67 -81h-111zM57 0v644h462v-105h-327v-165h290v-104
h-290v-166h327v-104h-462z" />
    <glyph glyph-name="uni1EC3" unicode="&#x1ec3;" horiz-adv-x="542" 
d="M391 616v70q47 2 61 10.5t14 24.5q0 27 -45 27q-16 0 -29.5 -3.5t-24.5 -8.5v62q16 5 35.5 8.5t47.5 3.5q53 0 81.5 -22.5t28.5 -58.5q0 -33 -18 -53t-58 -26v-34h-93zM103 521l126 135h103l126 -135h-109l-68 81l-67 -81h-111zM304 -10q-123 0 -195 61.5t-72 186.5
q0 113 60.5 179.5t180.5 66.5q110 0 168.5 -57.5t58.5 -150.5v-86h-343q11 -57 52.5 -78t117.5 -21q38 0 77.5 7t67.5 18v-96q-33 -15 -77 -22.5t-96 -7.5zM162 273h225v26q0 41 -24 64.5t-81 23.5q-67 0 -93.5 -27t-26.5 -87z" />
    <glyph glyph-name="uni1EC4" unicode="&#x1ec4;" horiz-adv-x="556" 
d="M385 837q-29 0 -57 10t-53.5 20t-50.5 10q-56 0 -90 -37v86q14 14 37.5 22.5t49.5 8.5q31 0 57 -10t51 -20t53 -10q56 0 83 38v-86q-10 -13 -31 -22.5t-49 -9.5zM113 687l126 135h103l126 -135h-109l-68 81l-67 -81h-111zM57 0v644h462v-105h-327v-165h290v-104h-290
v-166h327v-104h-462z" />
    <glyph glyph-name="uni1EC5" unicode="&#x1ec5;" horiz-adv-x="542" 
d="M378 671q-29 0 -57 10t-53.5 20t-50.5 10q-56 0 -90 -37v86q14 14 37.5 22.5t49.5 8.5q31 0 57 -10t51 -20t53 -10q56 0 83 38v-86q-10 -13 -31 -22.5t-49 -9.5zM106 521l126 135h103l126 -135h-109l-68 81l-67 -81h-111zM304 -10q-123 0 -195 61.5t-72 186.5
q0 113 60.5 179.5t180.5 66.5q110 0 168.5 -57.5t58.5 -150.5v-86h-343q11 -57 52.5 -78t117.5 -21q38 0 77.5 7t67.5 18v-96q-33 -15 -77 -22.5t-96 -7.5zM162 273h225v26q0 41 -24 64.5t-81 23.5q-67 0 -93.5 -27t-26.5 -87z" />
    <glyph glyph-name="uni1EC6" unicode="&#x1ec6;" horiz-adv-x="556" 
d="M105 688l135 174h86l135 -174h-104l-74 100l-72 -100h-106zM57 0v644h462v-105h-327v-165h290v-104h-290v-166h327v-104h-462zM230 -181v99h107v-99h-107z" />
    <glyph glyph-name="uni1EC7" unicode="&#x1ec7;" horiz-adv-x="542" 
d="M102 522l135 174h86l135 -174h-104l-74 100l-72 -100h-106zM304 -10q-123 0 -195 61.5t-72 186.5q0 113 60.5 179.5t180.5 66.5q110 0 168.5 -57.5t58.5 -150.5v-86h-343q11 -57 52.5 -78t117.5 -21q38 0 77.5 7t67.5 18v-96q-33 -15 -77 -22.5t-96 -7.5zM162 273h225v26
q0 41 -24 64.5t-81 23.5q-67 0 -93.5 -27t-26.5 -87zM227 -181v99h107v-99h-107z" />
    <glyph glyph-name="uni1EC8" unicode="&#x1ec8;" horiz-adv-x="250" 
d="M72 687v81q55 3 72.5 14.5t17.5 33.5q0 20 -18.5 29.5t-50.5 9.5q-14 0 -32 -3t-30 -8v67q39 13 100 13q64 0 97.5 -26t33.5 -70q0 -42 -19.5 -64t-67.5 -31v-46h-103zM57 0v644h135v-644h-135z" />
    <glyph glyph-name="uni1EC9" unicode="&#x1ec9;" horiz-adv-x="321" 
d="M120 521v81q55 3 72.5 14.5t17.5 33.5q0 20 -18.5 29.5t-50.5 9.5q-14 0 -32 -3t-30 -8v67q39 13 100 13q64 0 97.5 -26t33.5 -70q0 -42 -19.5 -64t-67.5 -31v-46h-103zM128 0v374h-71l12 100h194v-474h-135z" />
    <glyph glyph-name="uni1ECA" unicode="&#x1eca;" horiz-adv-x="249" 
d="M57 0v644h135v-644h-135zM71 -181v99h107v-99h-107z" />
    <glyph glyph-name="uni1ECB" unicode="&#x1ecb;" horiz-adv-x="321" 
d="M117 561v106h147v-106h-147zM128 0v374h-71l12 100h194v-474h-135zM143 -181v99h107v-99h-107z" />
    <glyph glyph-name="uni1ECC" unicode="&#x1ecc;" horiz-adv-x="700" 
d="M350 -10q-313 0 -313 329q0 177 79 256t234 79t234 -79t79 -256q0 -329 -313 -329zM350 105q91 0 133.5 52.5t42.5 161.5q0 121 -42.5 170.5t-133.5 49.5t-133.5 -49.5t-42.5 -170.5q0 -109 42.5 -161.5t133.5 -52.5zM297 -181v99h107v-99h-107z" />
    <glyph glyph-name="uni1ECD" unicode="&#x1ecd;" horiz-adv-x="589" 
d="M294 -10q-133 0 -195 64.5t-62 182.5t62.5 182.5t194.5 64.5q133 0 195.5 -64.5t62.5 -182.5t-62 -182.5t-196 -64.5zM294 105q65 0 93 29.5t28 102.5t-28 102.5t-93 29.5q-64 0 -92 -29.5t-28 -102.5t28 -102.5t92 -29.5zM241 -181v99h107v-99h-107z" />
    <glyph glyph-name="uni1ECE" unicode="&#x1ece;" horiz-adv-x="700" 
d="M299 687v81q55 3 72.5 14.5t17.5 33.5q0 20 -18.5 29.5t-50.5 9.5q-14 0 -32 -3t-30 -8v67q39 13 100 13q64 0 97.5 -26t33.5 -70q0 -42 -19.5 -64t-67.5 -31v-46h-103zM350 -10q-313 0 -313 329q0 177 79 256t234 79t234 -79t79 -256q0 -329 -313 -329zM350 105
q91 0 133.5 52.5t42.5 161.5q0 121 -42.5 170.5t-133.5 49.5t-133.5 -49.5t-42.5 -170.5q0 -109 42.5 -161.5t133.5 -52.5z" />
    <glyph glyph-name="uni1ECF" unicode="&#x1ecf;" horiz-adv-x="589" 
d="M245 521v81q55 3 72.5 14.5t17.5 33.5q0 20 -18.5 29.5t-50.5 9.5q-14 0 -32 -3t-30 -8v67q39 13 100 13q64 0 97.5 -26t33.5 -70q0 -42 -19.5 -64t-67.5 -31v-46h-103zM294 -10q-133 0 -195 64.5t-62 182.5t62.5 182.5t194.5 64.5q133 0 195.5 -64.5t62.5 -182.5
t-62 -182.5t-196 -64.5zM294 105q65 0 93 29.5t28 102.5t-28 102.5t-93 29.5q-64 0 -92 -29.5t-28 -102.5t28 -102.5t92 -29.5z" />
    <glyph glyph-name="uni1ED0" unicode="&#x1ed0;" horiz-adv-x="700" 
d="M454 804l66 141h102l-73 -141h-95zM175 687l126 135h103l126 -135h-109l-68 81l-67 -81h-111zM350 -10q-313 0 -313 329q0 177 79 256t234 79t234 -79t79 -256q0 -329 -313 -329zM350 105q91 0 133.5 52.5t42.5 161.5q0 121 -42.5 170.5t-133.5 49.5t-133.5 -49.5
t-42.5 -170.5q0 -109 42.5 -161.5t133.5 -52.5z" />
    <glyph glyph-name="uni1ED1" unicode="&#x1ed1;" horiz-adv-x="589" 
d="M396 638l66 141h102l-73 -141h-95zM117 521l126 135h103l126 -135h-109l-68 81l-67 -81h-111zM294 -10q-133 0 -195 64.5t-62 182.5t62.5 182.5t194.5 64.5q133 0 195.5 -64.5t62.5 -182.5t-62 -182.5t-196 -64.5zM294 105q65 0 93 29.5t28 102.5t-28 102.5t-93 29.5
q-64 0 -92 -29.5t-28 -102.5t28 -102.5t92 -29.5z" />
    <glyph glyph-name="uni1ED2" unicode="&#x1ed2;" horiz-adv-x="700" 
d="M151 804l-73 141h102l66 -141h-95zM170 687l126 135h103l126 -135h-111l-67 81l-68 -81h-109zM350 -10q-313 0 -313 329q0 177 79 256t234 79t234 -79t79 -256q0 -329 -313 -329zM350 105q91 0 133.5 52.5t42.5 161.5q0 121 -42.5 170.5t-133.5 49.5t-133.5 -49.5
t-42.5 -170.5q0 -109 42.5 -161.5t133.5 -52.5z" />
    <glyph glyph-name="uni1ED3" unicode="&#x1ed3;" horiz-adv-x="589" 
d="M98 638l-73 141h102l66 -141h-95zM117 521l126 135h103l126 -135h-111l-67 81l-68 -81h-109zM294 -10q-133 0 -195 64.5t-62 182.5t62.5 182.5t194.5 64.5q133 0 195.5 -64.5t62.5 -182.5t-62 -182.5t-196 -64.5zM294 105q65 0 93 29.5t28 102.5t-28 102.5t-93 29.5
q-64 0 -92 -29.5t-28 -102.5t28 -102.5t92 -29.5z" />
    <glyph glyph-name="uni1ED4" unicode="&#x1ed4;" horiz-adv-x="700" 
d="M457 782v70q47 2 61 10.5t14 24.5q0 27 -45 27q-16 0 -29.5 -3.5t-24.5 -8.5v62q16 5 35.5 8.5t47.5 3.5q53 0 81.5 -22.5t28.5 -58.5q0 -33 -18 -53t-58 -26v-34h-93zM169 687l126 135h103l126 -135h-109l-68 81l-67 -81h-111zM350 -10q-313 0 -313 329q0 177 79 256
t234 79t234 -79t79 -256q0 -329 -313 -329zM350 105q91 0 133.5 52.5t42.5 161.5q0 121 -42.5 170.5t-133.5 49.5t-133.5 -49.5t-42.5 -170.5q0 -109 42.5 -161.5t133.5 -52.5z" />
    <glyph glyph-name="uni1ED5" unicode="&#x1ed5;" horiz-adv-x="589" 
d="M405 616v70q47 2 61 10.5t14 24.5q0 27 -45 27q-16 0 -29.5 -3.5t-24.5 -8.5v62q16 5 35.5 8.5t47.5 3.5q53 0 81.5 -22.5t28.5 -58.5q0 -33 -18 -53t-58 -26v-34h-93zM117 521l126 135h103l126 -135h-109l-68 81l-67 -81h-111zM294 -10q-133 0 -195 64.5t-62 182.5
t62.5 182.5t194.5 64.5q133 0 195.5 -64.5t62.5 -182.5t-62 -182.5t-196 -64.5zM294 105q65 0 93 29.5t28 102.5t-28 102.5t-93 29.5q-64 0 -92 -29.5t-28 -102.5t28 -102.5t92 -29.5z" />
    <glyph glyph-name="uni1ED6" unicode="&#x1ed6;" horiz-adv-x="700" 
d="M435 838q-29 0 -57 10t-53.5 20t-50.5 10q-56 0 -90 -37v86q14 14 37.5 22.5t49.5 8.5q31 0 57 -10t51 -20t53 -10q56 0 83 38v-86q-10 -13 -31 -22.5t-49 -9.5zM172 687l126 135h103l126 -135h-109l-68 81l-67 -81h-111zM350 -10q-313 0 -313 329q0 177 79 256t234 79
t234 -79t79 -256q0 -329 -313 -329zM350 105q91 0 133.5 52.5t42.5 161.5q0 121 -42.5 170.5t-133.5 49.5t-133.5 -49.5t-42.5 -170.5q0 -109 42.5 -161.5t133.5 -52.5z" />
    <glyph glyph-name="uni1ED7" unicode="&#x1ed7;" horiz-adv-x="589" 
d="M380 671q-29 0 -57 10t-53.5 20t-50.5 10q-56 0 -90 -37v86q14 14 37.5 22.5t49.5 8.5q31 0 57 -10t51 -20t53 -10q56 0 83 38v-86q-10 -13 -31 -22.5t-49 -9.5zM117 521l126 135h103l126 -135h-109l-68 81l-67 -81h-111zM294 -10q-133 0 -195 64.5t-62 182.5t62.5 182.5
t194.5 64.5q133 0 195.5 -64.5t62.5 -182.5t-62 -182.5t-196 -64.5zM294 105q65 0 93 29.5t28 102.5t-28 102.5t-93 29.5q-64 0 -92 -29.5t-28 -102.5t28 -102.5t92 -29.5z" />
    <glyph glyph-name="uni1ED8" unicode="&#x1ed8;" horiz-adv-x="700" 
d="M172 698l135 174h86l135 -174h-104l-74 100l-72 -100h-106zM350 -10q-313 0 -313 329q0 177 79 256t234 79t234 -79t79 -256q0 -329 -313 -329zM350 105q91 0 133.5 52.5t42.5 161.5q0 121 -42.5 170.5t-133.5 49.5t-133.5 -49.5t-42.5 -170.5q0 -109 42.5 -161.5
t133.5 -52.5zM297 -181v99h107v-99h-107z" />
    <glyph glyph-name="uni1ED9" unicode="&#x1ed9;" horiz-adv-x="589" 
d="M116 522l135 174h86l135 -174h-104l-74 100l-72 -100h-106zM294 -10q-133 0 -195 64.5t-62 182.5t62.5 182.5t194.5 64.5q133 0 195.5 -64.5t62.5 -182.5t-62 -182.5t-196 -64.5zM294 105q65 0 93 29.5t28 102.5t-28 102.5t-93 29.5q-64 0 -92 -29.5t-28 -102.5
t28 -102.5t92 -29.5zM241 -181v99h107v-99h-107z" />
    <glyph glyph-name="uni1EDA" unicode="&#x1eda;" horiz-adv-x="777" 
d="M305 688l80 187h117l-88 -187h-109zM350 -10q-313 0 -313 329q0 177 79 256t234 79q149 0 224 -74q53 2 74.5 25t21.5 83h97q0 -94 -33 -137.5t-101 -54.5q30 -69 30 -177q0 -329 -313 -329zM350 105q91 0 133.5 52.5t42.5 161.5q0 121 -42.5 170.5t-133.5 49.5
t-133.5 -49.5t-42.5 -170.5q0 -109 42.5 -161.5t133.5 -52.5z" />
    <glyph glyph-name="uni1EDB" unicode="&#x1edb;" horiz-adv-x="694" 
d="M245 522l80 187h117l-88 -187h-109zM294 -10q-133 0 -195 64.5t-62 182.5t62.5 182.5t194.5 64.5q65 0 112.5 -16t78.5 -45q56 1 77.5 26.5t21.5 86.5h97q0 -97 -35 -142.5t-108 -56.5q14 -45 14 -100q0 -118 -62 -182.5t-196 -64.5zM294 105q65 0 93 29.5t28 102.5
t-28 102.5t-93 29.5q-64 0 -92 -29.5t-28 -102.5t28 -102.5t92 -29.5z" />
    <glyph glyph-name="uni1EDC" unicode="&#x1edc;" horiz-adv-x="777" 
d="M321 688l-88 187h117l80 -187h-109zM350 -10q-313 0 -313 329q0 177 79 256t234 79q149 0 224 -74q53 2 74.5 25t21.5 83h97q0 -94 -33 -137.5t-101 -54.5q30 -69 30 -177q0 -329 -313 -329zM350 105q91 0 133.5 52.5t42.5 161.5q0 121 -42.5 170.5t-133.5 49.5
t-133.5 -49.5t-42.5 -170.5q0 -109 42.5 -161.5t133.5 -52.5z" />
    <glyph glyph-name="uni1EDD" unicode="&#x1edd;" horiz-adv-x="694" 
d="M258 522l-88 187h117l80 -187h-109zM294 -10q-133 0 -195 64.5t-62 182.5t62.5 182.5t194.5 64.5q65 0 112.5 -16t78.5 -45q56 1 77.5 26.5t21.5 86.5h97q0 -97 -35 -142.5t-108 -56.5q14 -45 14 -100q0 -118 -62 -182.5t-196 -64.5zM294 105q65 0 93 29.5t28 102.5
t-28 102.5t-93 29.5q-64 0 -92 -29.5t-28 -102.5t28 -102.5t92 -29.5z" />
    <glyph glyph-name="uni1EDE" unicode="&#x1ede;" horiz-adv-x="777" 
d="M303 687v81q55 3 72.5 14.5t17.5 33.5q0 20 -18.5 29.5t-50.5 9.5q-14 0 -32 -3t-30 -8v67q39 13 100 13q64 0 97.5 -26t33.5 -70q0 -42 -19.5 -64t-67.5 -31v-46h-103zM350 -10q-313 0 -313 329q0 177 79 256t234 79q149 0 224 -74q53 2 74.5 25t21.5 83h97
q0 -94 -33 -137.5t-101 -54.5q30 -69 30 -177q0 -329 -313 -329zM350 105q91 0 133.5 52.5t42.5 161.5q0 121 -42.5 170.5t-133.5 49.5t-133.5 -49.5t-42.5 -170.5q0 -109 42.5 -161.5t133.5 -52.5z" />
    <glyph glyph-name="uni1EDF" unicode="&#x1edf;" horiz-adv-x="694" 
d="M241 521v81q55 3 72.5 14.5t17.5 33.5q0 20 -18.5 29.5t-50.5 9.5q-14 0 -32 -3t-30 -8v67q39 13 100 13q64 0 97.5 -26t33.5 -70q0 -42 -19.5 -64t-67.5 -31v-46h-103zM294 -10q-133 0 -195 64.5t-62 182.5t62.5 182.5t194.5 64.5q65 0 112.5 -16t78.5 -45
q56 1 77.5 26.5t21.5 86.5h97q0 -97 -35 -142.5t-108 -56.5q14 -45 14 -100q0 -118 -62 -182.5t-196 -64.5zM294 105q65 0 93 29.5t28 102.5t-28 102.5t-93 29.5q-64 0 -92 -29.5t-28 -102.5t28 -102.5t92 -29.5z" />
    <glyph glyph-name="uni1EE0" unicode="&#x1ee0;" horiz-adv-x="777" 
d="M447 697q-29 0 -57 10t-53.5 20t-50.5 10q-56 0 -90 -37v96q14 14 37.5 22.5t49.5 8.5q31 0 57 -10t51 -20t53 -10q56 0 83 38v-96q-10 -13 -31 -22.5t-49 -9.5zM350 -10q-313 0 -313 329q0 177 79 256t234 79q149 0 224 -74q53 2 74.5 25t21.5 83h97q0 -94 -33 -137.5
t-101 -54.5q30 -69 30 -177q0 -329 -313 -329zM350 105q91 0 133.5 52.5t42.5 161.5q0 121 -42.5 170.5t-133.5 49.5t-133.5 -49.5t-42.5 -170.5q0 -109 42.5 -161.5t133.5 -52.5z" />
    <glyph glyph-name="uni1EE1" unicode="&#x1ee1;" horiz-adv-x="694" 
d="M386 531q-29 0 -57 10t-53.5 20t-50.5 10q-56 0 -90 -37v96q14 14 37.5 22.5t49.5 8.5q31 0 57 -10t51 -20t53 -10q56 0 83 38v-96q-10 -13 -31 -22.5t-49 -9.5zM294 -10q-133 0 -195 64.5t-62 182.5t62.5 182.5t194.5 64.5q65 0 112.5 -16t78.5 -45q56 1 77.5 26.5
t21.5 86.5h97q0 -97 -35 -142.5t-108 -56.5q14 -45 14 -100q0 -118 -62 -182.5t-196 -64.5zM294 105q65 0 93 29.5t28 102.5t-28 102.5t-93 29.5q-64 0 -92 -29.5t-28 -102.5t28 -102.5t92 -29.5z" />
    <glyph glyph-name="uni1EE2" unicode="&#x1ee2;" horiz-adv-x="777" 
d="M350 -10q-313 0 -313 329q0 177 79 256t234 79q149 0 224 -74q53 2 74.5 25t21.5 83h97q0 -94 -33 -137.5t-101 -54.5q30 -69 30 -177q0 -329 -313 -329zM350 105q91 0 133.5 52.5t42.5 161.5q0 121 -42.5 170.5t-133.5 49.5t-133.5 -49.5t-42.5 -170.5
q0 -109 42.5 -161.5t133.5 -52.5zM300 -181v99h107v-99h-107z" />
    <glyph glyph-name="uni1EE3" unicode="&#x1ee3;" horiz-adv-x="694" 
d="M294 -10q-133 0 -195 64.5t-62 182.5t62.5 182.5t194.5 64.5q65 0 112.5 -16t78.5 -45q56 1 77.5 26.5t21.5 86.5h97q0 -97 -35 -142.5t-108 -56.5q14 -45 14 -100q0 -118 -62 -182.5t-196 -64.5zM294 105q65 0 93 29.5t28 102.5t-28 102.5t-93 29.5q-64 0 -92 -29.5
t-28 -102.5t28 -102.5t92 -29.5zM249 -181v99h107v-99h-107z" />
    <glyph glyph-name="uni1EE4" unicode="&#x1ee4;" horiz-adv-x="679" 
d="M340 -10q-133 0 -210.5 64.5t-77.5 187.5v402h135v-392q0 -74 40 -110.5t113 -36.5t112.5 36.5t39.5 110.5v392h135v-402q0 -123 -77 -187.5t-210 -64.5zM286 -181v99h107v-99h-107z" />
    <glyph glyph-name="uni1EE5" unicode="&#x1ee5;" horiz-adv-x="587" 
d="M232 -10q-85 0 -132.5 47.5t-47.5 139.5v297h135v-294q0 -48 23 -69.5t69 -21.5q35 0 64.5 14t50.5 35v336h135v-474h-125l-5 45q-30 -24 -70.5 -39.5t-96.5 -15.5zM233 -181v99h107v-99h-107z" />
    <glyph glyph-name="uni1EE6" unicode="&#x1ee6;" horiz-adv-x="679" 
d="M287 687v81q55 3 72.5 14.5t17.5 33.5q0 20 -18.5 29.5t-50.5 9.5q-14 0 -32 -3t-30 -8v67q39 13 100 13q64 0 97.5 -26t33.5 -70q0 -42 -19.5 -64t-67.5 -31v-46h-103zM340 -10q-133 0 -210.5 64.5t-77.5 187.5v402h135v-392q0 -74 40 -110.5t113 -36.5t112.5 36.5
t39.5 110.5v392h135v-402q0 -123 -77 -187.5t-210 -64.5z" />
    <glyph glyph-name="uni1EE7" unicode="&#x1ee7;" horiz-adv-x="587" 
d="M239 521v81q55 3 72.5 14.5t17.5 33.5q0 20 -18.5 29.5t-50.5 9.5q-14 0 -32 -3t-30 -8v67q39 13 100 13q64 0 97.5 -26t33.5 -70q0 -42 -19.5 -64t-67.5 -31v-46h-103zM232 -10q-85 0 -132.5 47.5t-47.5 139.5v297h135v-294q0 -48 23 -69.5t69 -21.5q35 0 64.5 14
t50.5 35v336h135v-474h-125l-5 45q-30 -24 -70.5 -39.5t-96.5 -15.5z" />
    <glyph glyph-name="uni1EE8" unicode="&#x1ee8;" horiz-adv-x="820" 
d="M292 688l80 187h117l-88 -187h-109zM340 -10q-133 0 -210.5 64.5t-77.5 187.5v402h135v-392q0 -74 40 -110.5t113 -36.5t112.5 36.5t39.5 110.5v392h135v-64q52 2 74 25t22 83h97q0 -74 -20 -117t-62.5 -61.5t-110.5 -19.5v-248q0 -123 -77 -187.5t-210 -64.5z" />
    <glyph glyph-name="uni1EE9" unicode="&#x1ee9;" horiz-adv-x="721" 
d="M239 522l80 187h117l-88 -187h-109zM232 -10q-85 0 -132.5 47.5t-47.5 139.5v297h135v-294q0 -48 23 -69.5t69 -21.5q35 0 64.5 14t50.5 35v336h135v-50q47 4 64.5 30t17.5 82h97q0 -108 -42.5 -152.5t-136.5 -49.5v-334h-125l-5 45q-30 -24 -70.5 -39.5t-96.5 -15.5z
" />
    <glyph glyph-name="uni1EEA" unicode="&#x1eea;" horiz-adv-x="820" 
d="M295 688l-88 187h117l80 -187h-109zM340 -10q-133 0 -210.5 64.5t-77.5 187.5v402h135v-392q0 -74 40 -110.5t113 -36.5t112.5 36.5t39.5 110.5v392h135v-64q52 2 74 25t22 83h97q0 -74 -20 -117t-62.5 -61.5t-110.5 -19.5v-248q0 -123 -77 -187.5t-210 -64.5z" />
    <glyph glyph-name="uni1EEB" unicode="&#x1eeb;" horiz-adv-x="721" 
d="M247 522l-88 187h117l80 -187h-109zM232 -10q-85 0 -132.5 47.5t-47.5 139.5v297h135v-294q0 -48 23 -69.5t69 -21.5q35 0 64.5 14t50.5 35v336h135v-50q47 4 64.5 30t17.5 82h97q0 -108 -42.5 -152.5t-136.5 -49.5v-334h-125l-5 45q-30 -24 -70.5 -39.5t-96.5 -15.5z
" />
    <glyph glyph-name="uni1EEC" unicode="&#x1eec;" horiz-adv-x="820" 
d="M293 687v81q55 3 72.5 14.5t17.5 33.5q0 20 -18.5 29.5t-50.5 9.5q-14 0 -32 -3t-30 -8v67q39 13 100 13q64 0 97.5 -26t33.5 -70q0 -42 -19.5 -64t-67.5 -31v-46h-103zM340 -10q-133 0 -210.5 64.5t-77.5 187.5v402h135v-392q0 -74 40 -110.5t113 -36.5t112.5 36.5
t39.5 110.5v392h135v-64q52 2 74 25t22 83h97q0 -74 -20 -117t-62.5 -61.5t-110.5 -19.5v-248q0 -123 -77 -187.5t-210 -64.5z" />
    <glyph glyph-name="uni1EED" unicode="&#x1eed;" horiz-adv-x="721" 
d="M244 521v81q55 3 72.5 14.5t17.5 33.5q0 20 -18.5 29.5t-50.5 9.5q-14 0 -32 -3t-30 -8v67q39 13 100 13q64 0 97.5 -26t33.5 -70q0 -42 -19.5 -64t-67.5 -31v-46h-103zM232 -10q-85 0 -132.5 47.5t-47.5 139.5v297h135v-294q0 -48 23 -69.5t69 -21.5q35 0 64.5 14
t50.5 35v336h135v-50q47 4 64.5 30t17.5 82h97q0 -108 -42.5 -152.5t-136.5 -49.5v-334h-125l-5 45q-30 -24 -70.5 -39.5t-96.5 -15.5z" />
    <glyph glyph-name="uni1EEE" unicode="&#x1eee;" horiz-adv-x="820" 
d="M426 697q-29 0 -57 10t-53.5 20t-50.5 10q-56 0 -90 -37v96q14 14 37.5 22.5t49.5 8.5q31 0 57 -10t51 -20t53 -10q56 0 83 38v-96q-10 -13 -31 -22.5t-49 -9.5zM340 -10q-133 0 -210.5 64.5t-77.5 187.5v402h135v-392q0 -74 40 -110.5t113 -36.5t112.5 36.5t39.5 110.5
v392h135v-64q52 2 74 25t22 83h97q0 -74 -20 -117t-62.5 -61.5t-110.5 -19.5v-248q0 -123 -77 -187.5t-210 -64.5z" />
    <glyph glyph-name="uni1EEF" unicode="&#x1eef;" horiz-adv-x="721" 
d="M383 531q-29 0 -57 10t-53.5 20t-50.5 10q-56 0 -90 -37v96q14 14 37.5 22.5t49.5 8.5q31 0 57 -10t51 -20t53 -10q56 0 83 38v-96q-10 -13 -31 -22.5t-49 -9.5zM232 -10q-85 0 -132.5 47.5t-47.5 139.5v297h135v-294q0 -48 23 -69.5t69 -21.5q35 0 64.5 14t50.5 35v336
h135v-50q47 4 64.5 30t17.5 82h97q0 -108 -42.5 -152.5t-136.5 -49.5v-334h-125l-5 45q-30 -24 -70.5 -39.5t-96.5 -15.5z" />
    <glyph glyph-name="uni1EF0" unicode="&#x1ef0;" horiz-adv-x="820" 
d="M340 -10q-133 0 -210.5 64.5t-77.5 187.5v402h135v-392q0 -74 40 -110.5t113 -36.5t112.5 36.5t39.5 110.5v392h135v-64q52 2 74 25t22 83h97q0 -74 -20 -117t-62.5 -61.5t-110.5 -19.5v-248q0 -123 -77 -187.5t-210 -64.5zM285 -181v99h107v-99h-107z" />
    <glyph glyph-name="uni1EF1" unicode="&#x1ef1;" horiz-adv-x="721" 
d="M232 -10q-85 0 -132.5 47.5t-47.5 139.5v297h135v-294q0 -48 23 -69.5t69 -21.5q35 0 64.5 14t50.5 35v336h135v-50q47 4 64.5 30t17.5 82h97q0 -108 -42.5 -152.5t-136.5 -49.5v-334h-125l-5 45q-30 -24 -70.5 -39.5t-96.5 -15.5zM237 -181v99h107v-99h-107z" />
    <glyph glyph-name="Ygrave" unicode="&#x1ef2;" horiz-adv-x="671" 
d="M291 688l-88 187h117l80 -187h-109zM268 0v238l-231 406h141l158 -291l158 291h140l-231 -406v-238h-135z" />
    <glyph glyph-name="ygrave" unicode="&#x1ef3;" horiz-adv-x="613" 
d="M265 522l-88 187h117l80 -187h-109zM181 -176q-31 0 -55 3.5t-47 12.5v95q17 -6 31.5 -8t29.5 -2q41 0 63.5 19t45.5 64l-212 466h141l139 -322l138 322h140l-187 -441q-26 -62 -56.5 -109.5t-71.5 -73.5t-99 -26z" />
    <glyph glyph-name="uni1EF4" unicode="&#x1ef4;" horiz-adv-x="671" 
d="M268 0v238l-231 406h141l158 -291l158 291h140l-231 -406v-238h-135zM282 -171v99h107v-99h-107z" />
    <glyph glyph-name="uni1EF5" unicode="&#x1ef5;" horiz-adv-x="613" 
d="M181 -176q-31 0 -55 3.5t-47 12.5v95q17 -6 31.5 -8t29.5 -2q41 0 63.5 19t45.5 64l-212 466h141l139 -322l138 322h140l-187 -441q-26 -62 -56.5 -109.5t-71.5 -73.5t-99 -26zM420 -171v99h107v-99h-107z" />
    <glyph glyph-name="uni1EF6" unicode="&#x1ef6;" horiz-adv-x="671" 
d="M279 687v81q55 3 72.5 14.5t17.5 33.5q0 20 -18.5 29.5t-50.5 9.5q-14 0 -32 -3t-30 -8v67q39 13 100 13q64 0 97.5 -26t33.5 -70q0 -42 -19.5 -64t-67.5 -31v-46h-103zM268 0v238l-231 406h141l158 -291l158 291h140l-231 -406v-238h-135z" />
    <glyph glyph-name="uni1EF7" unicode="&#x1ef7;" horiz-adv-x="613" 
d="M267 521v81q55 3 72.5 14.5t17.5 33.5q0 20 -18.5 29.5t-50.5 9.5q-14 0 -32 -3t-30 -8v67q39 13 100 13q64 0 97.5 -26t33.5 -70q0 -42 -19.5 -64t-67.5 -31v-46h-103zM181 -176q-31 0 -55 3.5t-47 12.5v95q17 -6 31.5 -8t29.5 -2q41 0 63.5 19t45.5 64l-212 466h141
l139 -322l138 322h140l-187 -441q-26 -62 -56.5 -109.5t-71.5 -73.5t-99 -26z" />
    <glyph glyph-name="uni1EF8" unicode="&#x1ef8;" horiz-adv-x="671" 
d="M421 700q-29 0 -57 10t-53.5 20t-50.5 10q-56 0 -90 -37v96q14 14 37.5 22.5t49.5 8.5q31 0 57 -10t51 -20t53 -10q56 0 83 38v-96q-10 -13 -31 -22.5t-49 -9.5zM268 0v238l-231 406h141l158 -291l158 291h140l-231 -406v-238h-135z" />
    <glyph glyph-name="uni1EF9" unicode="&#x1ef9;" horiz-adv-x="613" 
d="M401 534q-29 0 -57 10t-53.5 20t-50.5 10q-56 0 -90 -37v96q14 14 37.5 22.5t49.5 8.5q31 0 57 -10t51 -20t53 -10q56 0 83 38v-96q-10 -13 -31 -22.5t-49 -9.5zM181 -176q-31 0 -55 3.5t-47 12.5v95q17 -6 31.5 -8t29.5 -2q41 0 63.5 19t45.5 64l-212 466h141l139 -322
l138 322h140l-187 -441q-26 -62 -56.5 -109.5t-71.5 -73.5t-99 -26z" />
    <glyph glyph-name="uni2007" unicode="&#x2007;" horiz-adv-x="656" 
 />
    <glyph glyph-name="uni2010" unicode="&#x2010;" horiz-adv-x="497" 
d="M37 219v105h422v-105h-422z" />
    <glyph glyph-name="figuredash" unicode="&#x2012;" horiz-adv-x="593" 
d="M37 219v105h519v-105h-519z" />
    <glyph glyph-name="endash" unicode="&#x2013;" horiz-adv-x="566" 
d="M37 219v105h492v-105h-492z" />
    <glyph glyph-name="emdash" unicode="&#x2014;" horiz-adv-x="839" 
d="M37 219v105h765v-105h-765z" />
    <glyph glyph-name="uni2015" unicode="&#x2015;" horiz-adv-x="883" 
d="M37 219v105h809v-105h-809z" />
    <glyph glyph-name="quoteleft" unicode="&#x2018;" horiz-adv-x="246" 
d="M37 448l70 206h102l-56 -206h-116z" />
    <glyph glyph-name="quoteright" unicode="&#x2019;" horiz-adv-x="246" 
d="M37 448l56 206h116l-70 -206h-102z" />
    <glyph glyph-name="quotesinglbase" unicode="&#x201a;" horiz-adv-x="246" 
d="M37 -173l56 206h116l-70 -206h-102z" />
    <glyph glyph-name="quotedblleft" unicode="&#x201c;" horiz-adv-x="393" 
d="M37 448l70 206h92l-56 -206h-106zM194 448l70 206h91l-55 -206h-106z" />
    <glyph glyph-name="quotedblright" unicode="&#x201d;" horiz-adv-x="393" 
d="M37 448l56 206h106l-70 -206h-92zM194 448l55 206h106l-70 -206h-91z" />
    <glyph glyph-name="quotedblbase" unicode="&#x201e;" horiz-adv-x="393" 
d="M37 -110l56 206h106l-70 -206h-92zM194 -110l55 206h106l-70 -206h-91z" />
    <glyph glyph-name="dagger" unicode="&#x2020;" horiz-adv-x="556" 
d="M211 0l4 407l-178 -3v103l178 -3l-6 196h138l-6 -196l177 3v-103l-177 3l4 -407h-134z" />
    <glyph glyph-name="daggerdbl" unicode="&#x2021;" horiz-adv-x="556" 
d="M211 0l4 175l-178 -1v100l178 -2l-6 78l6 77l-178 -1v100l178 -2l-6 176h138l-6 -176l177 2v-100l-177 1l6 -77l-6 -78l177 2v-100l-177 1l4 -175h-134z" />
    <glyph glyph-name="bullet" unicode="&#x2022;" horiz-adv-x="330" 
d="M164 160q-35 0 -64 17t-46 45.5t-17 64.5t17 65t46 46t64 17q36 0 65 -17t46 -46t17 -65t-17 -64.5t-46 -45.5t-65 -17z" />
    <glyph glyph-name="ellipsis" unicode="&#x2026;" horiz-adv-x="587" 
d="M440 0v101h110v-101h-110zM37 0v101h110v-101h-110zM239 0v101h109v-101h-109z" />
    <glyph glyph-name="perthousand" unicode="&#x2030;" horiz-adv-x="1063" 
d="M182 355q-72 0 -108.5 40t-36.5 103q0 72 36.5 114t108.5 42t108.5 -42t36.5 -114q0 -63 -36.5 -103t-108.5 -40zM137 0l339 644h128l-340 -644h-127zM182 432q35 0 50.5 18.5t15.5 49.5q0 40 -16 58t-50 18t-49.5 -18t-15.5 -58q0 -31 15.5 -49.5t49.5 -18.5zM560 -10
q-72 0 -108.5 40t-36.5 103q0 72 36.5 114t108.5 42t108.5 -42t36.5 -114q0 -63 -36.5 -103t-108.5 -40zM880 -10q-72 0 -108.5 40t-36.5 103q0 72 36.5 114t108.5 42t108.5 -42t36.5 -114q0 -63 -36.5 -103t-108.5 -40zM560 67q35 0 50.5 18.5t15.5 49.5q0 40 -16 58
t-50 18t-49.5 -18t-15.5 -58q0 -31 15.5 -49.5t49.5 -18.5zM880 67q35 0 50.5 18.5t15.5 49.5q0 40 -16 58t-50 18t-49.5 -18t-15.5 -58q0 -31 15.5 -49.5t49.5 -18.5z" />
    <glyph glyph-name="minute" unicode="&#x2032;" horiz-adv-x="188" 
d="M37 443v201h114l-14 -201h-100z" />
    <glyph glyph-name="second" unicode="&#x2033;" horiz-adv-x="361" 
d="M210 443v201h114l-14 -201h-100zM37 443v201h114l-14 -201h-100z" />
    <glyph glyph-name="guilsinglleft" unicode="&#x2039;" horiz-adv-x="389" 
d="M299 66l-262 193v53l262 193l52 -76l-194 -144l194 -144z" />
    <glyph glyph-name="guilsinglright" unicode="&#x203a;" horiz-adv-x="389" 
d="M89 66l-52 75l194 144l-194 144l52 76l262 -193v-53z" />
    <glyph glyph-name="fraction" unicode="&#x2044;" horiz-adv-x="169" 
d="M-143 0l317 662h137l-316 -662h-138z" />
    <glyph glyph-name="uni2070" unicode="&#x2070;" horiz-adv-x="360" 
d="M180 362q-74 0 -110.5 38t-36.5 104q0 71 35 110.5t112 39.5t112 -39.5t35 -110.5q0 -66 -36 -104t-111 -38zM180 434q33 0 45.5 17t12.5 53q0 42 -11.5 60t-46.5 18q-34 0 -46 -18t-12 -60q0 -36 12.5 -53t45.5 -17z" />
    <glyph glyph-name="uni2074" unicode="&#x2074;" horiz-adv-x="296" 
d="M156 370v50h-139v61l136 173h95v-170h30v-64h-30v-50h-92zM107 485h70v92z" />
    <glyph glyph-name="uni2075" unicode="&#x2075;" horiz-adv-x="303" 
d="M130 362q-24 0 -50.5 3t-42.5 10v66q16 -7 36.5 -10t36.5 -3q35 0 50.5 7.5t15.5 23.5q0 19 -13 25.5t-43 6.5h-82v51l7 102h201l-5 -63h-116l-3 -34h40q103 0 103 -89q0 -41 -33.5 -68.5t-101.5 -27.5z" />
    <glyph glyph-name="uni2076" unicode="&#x2076;" horiz-adv-x="320" 
d="M162 362q-57 0 -91 27.5t-34 84.5v59q0 56 36.5 88.5t100.5 32.5q23 0 45 -3t36 -8v-65q-13 5 -34 8t-41 3q-31 0 -48.5 -12t-17.5 -31v-6q14 11 32 16t36 5q56 0 78.5 -25t22.5 -75q0 -46 -29 -72.5t-92 -26.5zM160 423q24 0 33.5 10t9.5 29t-8.5 28t-32.5 9
q-13 0 -25 -4.5t-23 -12.5v-16q0 -21 10.5 -32t35.5 -11z" />
    <glyph glyph-name="uni2077" unicode="&#x2077;" horiz-adv-x="290" 
d="M72 370l88 204h-133v70h235v-56l-94 -218h-96z" />
    <glyph glyph-name="uni2078" unicode="&#x2078;" horiz-adv-x="332" 
d="M166 362q-57 0 -93 21.5t-36 61.5q0 47 43 67q-19 10 -27 25.5t-8 34.5q0 40 32.5 61t88.5 21t88.5 -21t32.5 -61q0 -19 -7.5 -35t-28.5 -28q24 -10 34 -26t10 -38q0 -40 -36 -61.5t-93 -21.5zM176 534q19 7 25 13.5t6 22.5q0 30 -41 30t-41 -30q0 -13 5.5 -20.5
t20.5 -10.5zM166 416q48 0 48 31q0 14 -7.5 20t-27.5 11l-27 7q-16 -5 -25 -12.5t-9 -24.5q0 -32 48 -32z" />
    <glyph glyph-name="uni2079" unicode="&#x2079;" horiz-adv-x="320" 
d="M146 362q-22 0 -44.5 3t-36.5 8v65q14 -5 34.5 -8t40.5 -3q32 0 49 12t17 31v6q-28 -21 -63 -21q-55 0 -80.5 25t-25.5 75q0 46 29 72.5t92 26.5q125 0 125 -112v-59q0 -55 -36.5 -88t-100.5 -33zM158 517q13 0 25.5 5t22.5 12v16q0 21 -10.5 32t-35.5 11
q-24 0 -33.5 -10t-9.5 -29t8.5 -28t32.5 -9z" />
    <glyph glyph-name="uni207D" unicode="&#x207d;" horiz-adv-x="221" 
d="M92 352q-27 29 -41 72.5t-14 89.5t14 89.5t41 72.5h92q-34 -33 -48.5 -75.5t-14.5 -86.5q0 -45 14.5 -87.5t48.5 -74.5h-92z" />
    <glyph glyph-name="uni207E" unicode="&#x207e;" horiz-adv-x="221" 
d="M37 352q34 32 48.5 74.5t14.5 87.5q0 44 -14.5 86.5t-48.5 75.5h92q27 -29 41 -72.5t14 -89.5t-14 -89.5t-41 -72.5h-92z" />
    <glyph glyph-name="uni207F" unicode="&#x207f;" horiz-adv-x="354" 
d="M42 386v262h75l2 -24q43 29 103 29q43 0 69 -24t26 -71v-172h-80v158q0 26 -10.5 37t-36.5 11q-16 0 -36 -7.5t-32 -18.5v-180h-80z" />
    <glyph glyph-name="uni2080" unicode="&#x2080;" horiz-adv-x="360" 
d="M180 -128q-74 0 -110.5 38t-36.5 104q0 71 35 110.5t112 39.5t112 -39.5t35 -110.5q0 -66 -36 -104t-111 -38zM180 -56q33 0 45.5 17t12.5 53q0 42 -11.5 60t-46.5 18q-34 0 -46 -18t-12 -60q0 -36 12.5 -53t45.5 -17z" />
    <glyph glyph-name="uni2081" unicode="&#x2081;" horiz-adv-x="216" 
d="M84 -120v195l-69 -14v71l162 32v-284h-93z" />
    <glyph glyph-name="uni2082" unicode="&#x2082;" horiz-adv-x="303" 
d="M37 -120v44q16 23 33 38t39 33q33 27 47 38.5t14 26.5q0 17 -12 24.5t-40 7.5q-18 0 -37.5 -4.5t-36.5 -11.5v71q17 6 46.5 11.5t58.5 5.5q56 0 85 -24.5t29 -59.5q0 -28 -11 -47t-37 -43q-14 -13 -22.5 -19.5t-21.5 -18.5h94v-72h-228z" />
    <glyph glyph-name="uni2083" unicode="&#x2083;" horiz-adv-x="306" 
d="M136 -128q-24 0 -54 4t-45 10v63q18 -7 37.5 -10.5t37.5 -3.5q32 0 46 6t14 21q0 29 -52 29h-42l5 56h34q49 0 49 30q0 13 -15 18t-39 5q-19 0 -37.5 -4t-32.5 -10v64q14 5 40.5 9.5t54.5 4.5q68 0 97 -23t29 -58q0 -21 -8.5 -38t-28.5 -26q23 -7 33 -22.5t10 -38.5
q0 -86 -133 -86z" />
    <glyph glyph-name="uni2084" unicode="&#x2084;" horiz-adv-x="296" 
d="M156 -120v50h-139v61l136 173h95v-170h30v-64h-30v-50h-92zM107 -5h70v92z" />
    <glyph glyph-name="uni2085" unicode="&#x2085;" horiz-adv-x="303" 
d="M130 -128q-24 0 -50.5 3t-42.5 10v66q16 -7 36.5 -10t36.5 -3q35 0 50.5 7.5t15.5 23.5q0 19 -13 25.5t-43 6.5h-82v51l7 102h201l-5 -63h-116l-3 -34h40q103 0 103 -89q0 -41 -33.5 -68.5t-101.5 -27.5z" />
    <glyph glyph-name="uni2086" unicode="&#x2086;" horiz-adv-x="320" 
d="M162 -128q-57 0 -91 27.5t-34 84.5v59q0 56 36.5 88.5t100.5 32.5q23 0 45 -3t36 -8v-65q-13 5 -34 8t-41 3q-31 0 -48.5 -12t-17.5 -31v-6q14 11 32 16t36 5q56 0 78.5 -25t22.5 -75q0 -46 -29 -72.5t-92 -26.5zM160 -67q24 0 33.5 10t9.5 29t-8.5 28t-32.5 9
q-13 0 -25 -4.5t-23 -12.5v-16q0 -21 10.5 -32t35.5 -11z" />
    <glyph glyph-name="uni2087" unicode="&#x2087;" horiz-adv-x="290" 
d="M72 -120l88 204h-133v70h235v-56l-94 -218h-96z" />
    <glyph glyph-name="uni2088" unicode="&#x2088;" horiz-adv-x="332" 
d="M166 -128q-57 0 -93 21.5t-36 61.5q0 47 43 67q-19 10 -27 25.5t-8 34.5q0 40 32.5 61t88.5 21t88.5 -21t32.5 -61q0 -19 -7.5 -35t-28.5 -28q24 -10 34 -26t10 -38q0 -40 -36 -61.5t-93 -21.5zM176 44q19 7 25 13.5t6 22.5q0 30 -41 30t-41 -30q0 -13 5.5 -20.5
t20.5 -10.5zM166 -74q48 0 48 31q0 14 -7.5 20t-27.5 11l-27 7q-16 -5 -25 -12.5t-9 -24.5q0 -32 48 -32z" />
    <glyph glyph-name="uni2089" unicode="&#x2089;" horiz-adv-x="320" 
d="M146 -128q-22 0 -44.5 3t-36.5 8v65q14 -5 34.5 -8t40.5 -3q32 0 49 12t17 31v6q-28 -21 -63 -21q-55 0 -80.5 25t-25.5 75q0 46 29 72.5t92 26.5q125 0 125 -112v-59q0 -55 -36.5 -88t-100.5 -33zM158 27q13 0 25.5 5t22.5 12v16q0 21 -10.5 32t-35.5 11
q-24 0 -33.5 -10t-9.5 -29t8.5 -28t32.5 -9z" />
    <glyph glyph-name="uni208D" unicode="&#x208d;" horiz-adv-x="221" 
d="M92 -146q-27 29 -41 72.5t-14 89.5t14 89.5t41 72.5h92q-34 -33 -48.5 -75.5t-14.5 -86.5q0 -45 14.5 -87.5t48.5 -74.5h-92z" />
    <glyph glyph-name="uni208E" unicode="&#x208e;" horiz-adv-x="221" 
d="M37 -146q34 32 48.5 74.5t14.5 87.5q0 44 -14.5 86.5t-48.5 75.5h92q27 -29 41 -72.5t14 -89.5t-14 -89.5t-41 -72.5h-92z" />
    <glyph glyph-name="colonmonetary" unicode="&#x20a1;" horiz-adv-x="551" 
d="M124 -31l26 102q-54 32 -83.5 91t-29.5 149q0 146 65.5 218.5t185.5 82.5l15 59h80l-15 -58q26 -2 50 -6l16 64h80l-21 -82q5 -1 9.5 -3t9.5 -4v-118q-12 5 -23.5 9t-23.5 8l-85 -336q65 6 133 33v-119q-38 -13 -76.5 -20.5t-86.5 -8.5l-15 -61h-80l16 64q-25 3 -49 9
l-18 -73h-80zM300 146l89 350q-22 3 -47 3h-3l-87 -340q19 -8 48 -13zM188 222l67 262q-43 -18 -62 -60.5t-19 -112.5q0 -27 3.5 -49t10.5 -40z" />
    <glyph glyph-name="lira" unicode="&#x20a4;" horiz-adv-x="494" 
d="M37 0v104h23q26 0 39.5 16t13.5 42v9h-66v94h66v37h-66v94h66v86q0 79 50 125.5t130 46.5q38 0 69 -5.5t54 -16.5v-93q-14 7 -37.5 10.5t-43.5 3.5q-87 0 -87 -79v-78h166l-4 -94h-162v-37h166l-4 -94h-162v-2q0 -23 -5 -38.5t-19 -26.5h232v-104h-419z" />
    <glyph glyph-name="uni20A6" unicode="&#x20a6;" horiz-adv-x="672" 
d="M95 0v174h-58v87h58v85h-58v87h58v211h117l230 -427v427h135v-211h57v-87h-57v-85h57v-87h-57v-174h-118l-229 426v-426h-135z" />
    <glyph glyph-name="peseta" unicode="&#x20a7;" horiz-adv-x="1250" 
d="M57 0v644h212q76 0 124.5 -29t72.5 -79t24 -114q0 -65 -27.5 -115t-78 -77.5t-119.5 -27.5h-73v-202h-135zM192 309h50q58 0 87.5 30.5t29.5 82.5q0 56 -28 85.5t-84 29.5h-55v-228zM1003 -10q-53 0 -101 7.5t-77 18.5v112q35 -14 79 -21.5t81 -7.5q50 0 70.5 6t20.5 27
q0 24 -31.5 35t-93.5 31q-65 22 -100 53t-35 92q0 68 49.5 104.5t159.5 36.5q44 0 83 -6.5t66 -15.5v-111q-27 13 -62 19.5t-65 6.5q-43 0 -68.5 -6t-25.5 -26q0 -22 27.5 -31t85.5 -27q57 -17 89 -37t45 -47.5t13 -68.5q0 -144 -210 -144zM699 -10q-82 0 -121.5 43
t-39.5 117v82h-54v100h54v112l135 30v-142h120l-3 -100h-117v-76q0 -70 74 -70q28 0 58 10v-88q-22 -9 -48 -13.5t-58 -4.5z" />
    <glyph glyph-name="dong" unicode="&#x20ab;" horiz-adv-x="591" 
d="M255 -10q-63 0 -112.5 22.5t-77.5 74t-28 136.5t31 143t83 88t114 30q78 0 133 -36v79h-139v90h139v57h135v-57h51v-90h-51v-527h-116l-8 44q-31 -27 -67.5 -40.5t-86.5 -13.5zM292 89q63 0 106 43v216q-42 37 -98 37q-126 0 -126 -162q0 -76 31 -105t87 -29zM87 -147
v100h446v-100h-446z" />
    <glyph glyph-name="Euro" unicode="&#x20ac;" horiz-adv-x="583" 
d="M384 -10q-131 0 -200.5 55.5t-91.5 151.5h-65v77h54q-1 9 -1 18v19v18.5t1 18.5h-54v77h62q14 71 48 122t94.5 79t151.5 28q39 0 67 -4t52.5 -11t52.5 -17v-116q-43 18 -78 25.5t-85 7.5q-76 0 -113.5 -29t-51.5 -85h191v-77h-201v-37v-19t1 -18h200v-77h-187
q16 -48 55 -70.5t109 -22.5q47 0 82.5 7.5t78.5 23.5v-116q-28 -9 -52.5 -15.5t-52.5 -10t-67 -3.5z" />
    <glyph glyph-name="uni20B1" unicode="&#x20b1;" horiz-adv-x="629" 
d="M57 0v331h-35v80h35v24h-35v80h35v129h272q83 0 134 -35.5t72 -93.5h54v-80h-39v-24h39v-80h-55q-24 -60 -78 -94.5t-131 -34.5h-133v-202h-135zM187 515h199q-14 13 -33.5 20t-45.5 7h-120v-27zM187 411h231q0 2 0.5 5t0.5 6v6t-1 7h-231v-24zM187 304h115q49 0 81 27
h-196v-27z" />
    <glyph glyph-name="uni20B2" unicode="&#x20b2;" horiz-adv-x="644" 
d="M315 -120v113q-136 13 -207 96.5t-71 221.5q0 145 69.5 234t208.5 105v85h99v-82q44 -2 82.5 -8.5t72.5 -17.5v-116q-36 13 -75 19.5t-80 7.5v-178h193v-315q-28 -18 -76 -33t-117 -20v-112h-99zM315 108v424q-76 -16 -108.5 -71t-32.5 -150q0 -176 141 -203zM414 106
q45 6 79 18v150h-79v-168z" />
    <glyph glyph-name="uni20B5" unicode="&#x20b5;" horiz-adv-x="600" 
d="M292 -120v117q-124 20 -189.5 104t-65.5 215q0 140 64 226t191 106v87h99v-81q50 -1 92 -9.5t79 -22.5v-118q-81 32 -171 35v-435q44 1 88 9.5t84 24.5v-119q-37 -13 -79.5 -20t-92.5 -9v-110h-99zM292 116v411q-62 -19 -90 -72t-28 -139q0 -161 118 -200z" />
    <glyph glyph-name="uni20B9" unicode="&#x20b9;" horiz-adv-x="454" 
d="M210 0l-71 167q-13 32 -34 44t-68 12v82h56q53 0 89.5 20.5t40.5 74.5h-185v82h184q-9 38 -39.5 59t-77.5 21h-68v82h380v-82h-107q19 -13 30.5 -34t15.5 -46h61v-82h-60q-6 -61 -42 -97t-99 -53q25 -14 36.5 -30t22.5 -42l75 -178h-140z" />
    <glyph glyph-name="uni20BA" unicode="&#x20ba;" horiz-adv-x="582" 
d="M116 0v292l-79 -26v72l79 26v66l-79 -26v72l79 26v142h127v-100l168 56v-71l-168 -56v-67l168 56v-71l-168 -56v-241q174 9 174 177v55h128v-42q0 -142 -84 -213t-239 -71h-106z" />
    <glyph glyph-name="uni20BD" unicode="&#x20bd;" horiz-adv-x="644" 
d="M93 0v73h-56v107h56v50h-56v107h56v307h292q113 0 167 -56t54 -151q0 -98 -62.5 -152.5t-166.5 -54.5h-149v-50h116v-107h-116v-73h-135zM228 337h125q58 0 87.5 21.5t29.5 73.5q0 56 -28 80.5t-84 24.5h-130v-200z" />
    <glyph glyph-name="uni210A" unicode="&#x210a;" horiz-adv-x="591" 
d="M259 -176q-16 0 -41 1.5t-49 4t-38 5.5v103q21 -6 52.5 -9.5t53.5 -3.5q73 0 117 19t44 67v25q-54 -36 -136 -36q-67 0 -117.5 21.5t-79 70.5t-28.5 133q0 86 30 143.5t81 86.5t114 29q50 0 83 -14t64 -40l8 44h116v-441q0 -60 -29 -107.5t-89.5 -74.5t-155.5 -27z
M296 99q34 0 58 9.5t44 26.5v207q-22 22 -47 32.5t-57 10.5q-65 0 -92.5 -41.5t-27.5 -117.5q0 -52 13 -79.5t40 -37.5t69 -10z" />
    <glyph glyph-name="uni2113" unicode="&#x2113;" horiz-adv-x="419" 
d="M244 -10q-79 0 -121 45.5t-42 118.5v135q-13 -4 -31.5 -10.5t-40.5 -11.5v103q21 5 38.5 11t33.5 15v182q0 83 39.5 127.5t121.5 44.5q73 0 108 -47.5t35 -115.5q0 -66 -23.5 -114t-62.5 -82t-86 -60v-183q0 -28 8.5 -46t31.5 -18q29 0 38.5 18t9.5 54h96
q0 -43 -10.5 -81t-43.5 -61.5t-99 -23.5zM195 441q47 32 65.5 63.5t18.5 71.5q0 28 -8 49.5t-33 21.5q-27 0 -35 -20t-8 -58v-128z" />
    <glyph glyph-name="uni2117" unicode="&#x2117;" horiz-adv-x="739" 
d="M369 -10q-69 0 -129 26t-105.5 71.5t-71.5 105.5t-26 129t26 129t71.5 105.5t105.5 71.5t129 26t129 -26t105.5 -71.5t71.5 -105.5t26 -129t-26 -129t-71.5 -105.5t-105.5 -71.5t-129 -26zM369 65q72 0 129.5 33t90.5 91t33 133q0 74 -33 132t-90.5 91.5t-129.5 33.5
q-71 0 -128.5 -33.5t-90.5 -91.5t-33 -132q0 -75 33 -133t90.5 -91t128.5 -33zM240 125v394h187q65 0 97 -37t32 -93q0 -57 -33.5 -94.5t-96.5 -37.5h-110v-132h-76zM316 321h65q47 0 73 11t26 57q0 35 -17 50.5t-52 15.5h-95v-134z" />
    <glyph glyph-name="uni2120" unicode="&#x2120;" horiz-adv-x="661" 
d="M179 360q-68 0 -106 15v65q21 -9 45.5 -13t48.5 -4q18 0 34.5 3.5t16.5 17.5q0 13 -13 19t-42 16q-54 20 -75 38.5t-21 51.5q0 41 30.5 63t94.5 22q24 0 50.5 -3.5t42.5 -8.5v-65q-37 14 -74 14q-25 0 -41.5 -4.5t-16.5 -17.5q0 -12 15.5 -18.5t46.5 -17.5
q20 -6 40.5 -16t34 -27t13.5 -46q0 -32 -18.5 -50.5t-47 -26t-58.5 -7.5zM322 362v282h76l83 -153l82 153h76v-282h-83v152l-58 -129h-34l-60 129v-152h-82z" />
    <glyph glyph-name="trademark" unicode="&#x2122;" horiz-adv-x="677" 
d="M322 362v282h76l83 -153l82 153h76v-282h-83v152l-58 -129h-34l-60 129v-152h-82zM127 362v206h-90v76h262v-76h-89v-206h-83z" />
    <glyph glyph-name="uni2126" unicode="&#x2126;" horiz-adv-x="759" 
d="M44 0v100h128q-64 42 -99.5 109t-35.5 157q0 98 40.5 172t117 115.5t184.5 41.5q109 0 185 -41.5t116.5 -115.5t40.5 -172q0 -182 -135 -266h128v-100h-286v103q81 45 118.5 109t37.5 146q0 66 -25 116t-70.5 78t-109.5 28q-63 0 -109 -28t-71 -78t-25 -116
q0 -82 38 -146t118 -109v-103h-286z" />
    <glyph glyph-name="estimated" unicode="&#x212e;" horiz-adv-x="769" 
d="M392 -13q-75 0 -140 26t-113 73t-75 109.5t-27 135.5q0 84 28 148t77 107.5t111.5 65.5t131.5 22t131 -23.5t110.5 -67t76.5 -103.5t28 -132v-17h-551v-222q28 -36 85.5 -61t126.5 -25q61 0 105.5 11t80 37.5t70.5 71.5h43q-57 -89 -128.5 -122.5t-170.5 -33.5zM180 368
h410v197q-29 32 -82 53t-124 21q-65 0 -116 -19t-88 -54v-198z" />
    <glyph glyph-name="uni2153" unicode="&#x2153;" horiz-adv-x="684" 
d="M106 370v195l-69 -14v71l162 32v-284h-93zM89 0l339 644h128l-340 -644h-127zM486 -8q-24 0 -54 4t-45 10v63q18 -7 37.5 -10.5t37.5 -3.5q32 0 46 6t14 21q0 29 -52 29h-42l5 56h34q49 0 49 30q0 13 -15 18t-39 5q-19 0 -37.5 -4t-32.5 -10v64q14 5 40.5 9.5t54.5 4.5
q68 0 97 -23t29 -58q0 -21 -8.5 -38t-28.5 -26q23 -7 33 -22.5t10 -38.5q0 -86 -133 -86z" />
    <glyph glyph-name="uni2154" unicode="&#x2154;" horiz-adv-x="721" 
d="M37 370v44q16 23 33 38t39 33q33 27 47 38.5t14 26.5q0 17 -12 24.5t-40 7.5q-18 0 -37.5 -4.5t-36.5 -11.5v71q17 6 46.5 11.5t58.5 5.5q56 0 85 -24.5t29 -59.5q0 -28 -11 -47t-37 -43q-14 -13 -22.5 -19.5t-21.5 -18.5h94v-72h-228zM89 0l339 644h128l-340 -644h-127z
M486 -8q-24 0 -54 4t-45 10v63q18 -7 37.5 -10.5t37.5 -3.5q32 0 46 6t14 21q0 29 -52 29h-42l5 56h34q49 0 49 30q0 13 -15 18t-39 5q-19 0 -37.5 -4t-32.5 -10v64q14 5 40.5 9.5t54.5 4.5q68 0 97 -23t29 -58q0 -21 -8.5 -38t-28.5 -26q23 -7 33 -22.5t10 -38.5
q0 -86 -133 -86z" />
    <glyph glyph-name="oneeighth" unicode="&#x215b;" horiz-adv-x="685" 
d="M106 370v195l-69 -14v71l162 32v-284h-93zM89 0l339 644h128l-340 -644h-127zM496 -10q-57 0 -93 21.5t-36 61.5q0 47 43 67q-19 10 -27 25.5t-8 34.5q0 40 32.5 61t88.5 21t88.5 -21t32.5 -61q0 -19 -7.5 -35t-28.5 -28q24 -10 34 -26t10 -38q0 -40 -36 -61.5t-93 -21.5
zM506 162q19 7 25 13.5t6 22.5q0 30 -41 30t-41 -30q0 -13 5.5 -20.5t20.5 -10.5zM496 44q48 0 48 31q0 14 -7.5 20t-27.5 11l-27 7q-16 -5 -25 -12.5t-9 -24.5q0 -32 48 -32z" />
    <glyph glyph-name="threeeighths" unicode="&#x215c;" horiz-adv-x="699" 
d="M136 362q-24 0 -54 4t-45 10v63q18 -7 37.5 -10.5t37.5 -3.5q32 0 46 6t14 21q0 29 -52 29h-42l5 56h34q49 0 49 30q0 13 -15 18t-39 5q-19 0 -37.5 -4t-32.5 -10v64q14 5 40.5 9.5t54.5 4.5q68 0 97 -23t29 -58q0 -21 -8.5 -38t-28.5 -26q23 -7 33 -22.5t10 -38.5
q0 -86 -133 -86zM89 0l339 644h128l-340 -644h-127zM496 -10q-57 0 -93 21.5t-36 61.5q0 47 43 67q-19 10 -27 25.5t-8 34.5q0 40 32.5 61t88.5 21t88.5 -21t32.5 -61q0 -19 -7.5 -35t-28.5 -28q24 -10 34 -26t10 -38q0 -40 -36 -61.5t-93 -21.5zM506 162q19 7 25 13.5
t6 22.5q0 30 -41 30t-41 -30q0 -13 5.5 -20.5t20.5 -10.5zM496 44q48 0 48 31q0 14 -7.5 20t-27.5 11l-27 7q-16 -5 -25 -12.5t-9 -24.5q0 -32 48 -32z" />
    <glyph glyph-name="fiveeighths" unicode="&#x215d;" horiz-adv-x="679" 
d="M89 0l339 644h128l-340 -644h-127zM130 362q-24 0 -50.5 3t-42.5 10v66q16 -7 36.5 -10t36.5 -3q35 0 50.5 7.5t15.5 23.5q0 19 -13 25.5t-43 6.5h-82v51l7 102h201l-5 -63h-116l-3 -34h40q103 0 103 -89q0 -41 -33.5 -68.5t-101.5 -27.5zM496 -10q-57 0 -93 21.5
t-36 61.5q0 47 43 67q-19 10 -27 25.5t-8 34.5q0 40 32.5 61t88.5 21t88.5 -21t32.5 -61q0 -19 -7.5 -35t-28.5 -28q24 -10 34 -26t10 -38q0 -40 -36 -61.5t-93 -21.5zM506 162q19 7 25 13.5t6 22.5q0 30 -41 30t-41 -30q0 -13 5.5 -20.5t20.5 -10.5zM496 44q48 0 48 31
q0 14 -7.5 20t-27.5 11l-27 7q-16 -5 -25 -12.5t-9 -24.5q0 -32 48 -32z" />
    <glyph glyph-name="seveneighths" unicode="&#x215e;" horiz-adv-x="687" 
d="M89 0l339 644h128l-340 -644h-127zM82 370l88 204h-133v70h235v-56l-94 -218h-96zM496 -10q-57 0 -93 21.5t-36 61.5q0 47 43 67q-19 10 -27 25.5t-8 34.5q0 40 32.5 61t88.5 21t88.5 -21t32.5 -61q0 -19 -7.5 -35t-28.5 -28q24 -10 34 -26t10 -38q0 -40 -36 -61.5
t-93 -21.5zM506 162q19 7 25 13.5t6 22.5q0 30 -41 30t-41 -30q0 -13 5.5 -20.5t20.5 -10.5zM496 44q48 0 48 31q0 14 -7.5 20t-27.5 11l-27 7q-16 -5 -25 -12.5t-9 -24.5q0 -32 48 -32z" />
    <glyph glyph-name="arrowleft" unicode="&#x2190;" horiz-adv-x="748" 
d="M281 51l-244 195v41l244 196l41 -56l-144 -116h533v-89h-532l143 -115z" />
    <glyph glyph-name="arrowup" unicode="&#x2191;" horiz-adv-x="506" 
d="M208 -45v532l-115 -144l-56 41l195 244h41l196 -244l-56 -41l-116 144v-532h-89z" />
    <glyph glyph-name="arrowright" unicode="&#x2192;" horiz-adv-x="748" 
d="M467 51l-41 56l143 115h-532v89h533l-144 116l41 56l244 -196v-41z" />
    <glyph glyph-name="arrowdown" unicode="&#x2193;" horiz-adv-x="506" 
d="M232 -56l-195 244l56 41l115 -144v532h89v-532l116 144l56 -41l-196 -244h-41z" />
    <glyph glyph-name="partialdiff" unicode="&#x2202;" horiz-adv-x="627" 
d="M253 -10q-84 0 -135 29t-69 78.5t-5 111.5q23 102 87 155.5t180 53.5q36 0 76.5 -11.5t68.5 -34.5l4 19q9 48 3.5 85t-34 57.5t-90.5 20.5q-44 0 -88 -7t-80 -22l21 100q73 29 172 29q88 0 142 -38.5t72.5 -104t1.5 -147.5l-25 -121q-28 -129 -97.5 -191t-204.5 -62z
M268 85q66 0 104 34t51 99l13 62q-23 20 -51.5 31.5t-68.5 11.5q-70 0 -104 -29.5t-48 -89.5q-13 -59 10.5 -89t93.5 -30z" />
    <glyph glyph-name="product" unicode="&#x220f;" horiz-adv-x="633" 
d="M57 -129v835h518v-835h-135v731h-248v-731h-135z" />
    </font>
</defs>
</svg>
