<?xml version="1.0" standalone="no"?>
<!DOCTYPE svg PUBLIC "-//W3C//DTD SVG 1.1//EN" "http://www.w3.org/Graphics/SVG/1.1/DTD/svg11.dtd" >
<svg xmlns="http://www.w3.org/2000/svg" xmlns:xlink="http://www.w3.org/1999/xlink" version="1.1">
<metadata>
Created by FontForge 20201107 at Mon Jun 15 20:27:59 2020
 By 
Copyright 2020 The Kanit Project Authors (https://github.com/cadsondemak/kanit)
</metadata>
<defs>
<font id="Kanit-SemiBold" horiz-adv-x="0" >
  <font-face 
    font-family="Kanit SemiBold"
    font-weight="600"
    font-stretch="normal"
    units-per-em="1000"
    panose-1="0 0 0 0 0 0 0 0 0 0"
    ascent="800"
    descent="-200"
    x-height="474"
    cap-height="644"
    bbox="-635 -370 1270 1100"
    underline-thickness="50"
    underline-position="-125"
    unicode-range="U+000D-FB02"
  />
<missing-glyph horiz-adv-x="474" 
d="M31 0v714h411v-714h-411zM82 51h309v612h-309v-612z" />
    <glyph glyph-name="fi" unicode="fi" horiz-adv-x="564" 
d="M74 0v352h-63v122h63v37q0 51 24.5 92t71.5 65.5t114 24.5q82 0 133 -20v-114q-12 6 -35.5 9.5t-42.5 3.5q-58 0 -81 -16t-23 -49v-33h278v-474h-161v352h-117v-352h-161z" />
    <glyph glyph-name="fl" unicode="fl" horiz-adv-x="564" 
d="M74 0v352h-63v122h63v37q0 74 47 124.5t134 54.5q32 1 64.5 -3t63.5 -14h130v-673h-161v352h-117v-352h-161zM235 474h117v92q-10 2 -26 4t-27 1q-64 -1 -64 -64v-33z" />
    <glyph glyph-name="uni0E240E45" unicode="&#xe24;&#xe45;" horiz-adv-x="917" 
d="M412 -160v484q0 57 -27.5 81t-89.5 24q-39 0 -72.5 -11t-53.5 -28v-11l108 -31v-85q-36 -10 -50 -29.5t-14 -58.5v-28q0 -34 34 -34h47v-113h-138q-47 0 -75.5 29.5t-28.5 75.5v66q0 42 16 76.5t59 48.5l-96 27v136q43 34 113 62.5t160 28.5q107 0 170 -34q30 14 75 24
t91 10q118 0 170.5 -51.5t52.5 -155.5v-503h-161v486q0 52 -20 77.5t-76 25.5q-23 0 -50 -4q17 -43 17 -100v-485h-161z" />
    <glyph glyph-name="uni0E260E45" unicode="&#xe26;&#xe45;" horiz-adv-x="950" 
d="M444 -160v484q0 57 -26 81t-85 24q-39 0 -72 -11t-54 -28v-11l108 -31v-85q-34 -11 -43.5 -30.5t-9.5 -60.5v-46q0 -65 -33 -95.5t-93 -30.5h-100v113h29q18 0 25 8t7 26v28q0 42 13 73.5t56 47.5l-97 27v136q44 34 113.5 62.5t159.5 28.5q103 0 166 -34q30 14 74.5 24
t90.5 10q118 0 170.5 -51.5t52.5 -155.5v-503h-161v486q0 52 -20 77.5t-76 25.5q-24 0 -50 -4q17 -43 17 -100v-485h-162z" />
    <glyph glyph-name=".notdef" horiz-adv-x="474" 
d="M31 0v714h411v-714h-411zM82 51h309v612h-309v-612z" />
    <glyph glyph-name=".null" horiz-adv-x="500" 
 />
    <glyph glyph-name=".null" horiz-adv-x="500" 
 />
    <glyph glyph-name="nonmarkingreturn" horiz-adv-x="333" 
 />
    <glyph glyph-name="CR" unicode="&#xd;" horiz-adv-x="215" 
 />
    <glyph glyph-name="space" unicode=" " horiz-adv-x="215" 
 />
    <glyph glyph-name="exclam" unicode="!" horiz-adv-x="231" 
d="M41 176l-6 299v169h161v-169l-6 -299h-149zM31 0v116h169v-116h-169z" />
    <glyph glyph-name="quotedbl" unicode="&#x22;" horiz-adv-x="382" 
d="M217 431v213h134l-15 -213h-119zM31 431v213h134l-15 -213h-119z" />
    <glyph glyph-name="numbersign" unicode="#" horiz-adv-x="708" 
d="M51 0l49 157h-69v105h102l37 119h-97v106h131l49 157h139l-50 -157h131l49 157h139l-50 -157h66v-106h-99l-38 -119h95v-105h-128l-49 -157h-138l49 157h-131l-49 -157h-138zM271 262h131l37 119h-130z" />
    <glyph glyph-name="dollar" unicode="$" horiz-adv-x="555" 
d="M232 -86v77q-55 2 -101.5 10t-81.5 24v119q41 -17 89 -27.5t94 -12.5v175l-12 4q-101 28 -142 70t-41 116q0 77 49.5 124t145.5 58v79h99v-77q46 -3 85 -10t64 -16v-119q-35 13 -73 21t-76 9v-166q74 -21 114.5 -49.5t56.5 -65t16 -81.5q0 -71 -46 -119t-141 -62v-81h-99
zM232 401v131q-28 -6 -43 -21t-15 -42q0 -25 12.5 -40t45.5 -28zM331 111q25 7 37 22t12 43q0 26 -11 42t-38 29v-136z" />
    <glyph glyph-name="percent" unicode="%" horiz-adv-x="757" 
d="M179 349q-73 0 -110.5 41t-37.5 105q0 74 37.5 116.5t110.5 42.5q74 0 111.5 -42.5t37.5 -116.5q0 -64 -37.5 -105t-111.5 -41zM133 0l337 644h153l-338 -644h-152zM179 437q32 0 45.5 16.5t13.5 44.5q0 68 -59 68q-58 0 -58 -68q0 -28 13.5 -44.5t44.5 -16.5zM577 -10
q-73 0 -110.5 40.5t-37.5 104.5q0 74 37.5 116.5t110.5 42.5q74 0 111.5 -42.5t37.5 -116.5q0 -64 -37.5 -104.5t-111.5 -40.5zM577 77q32 0 45.5 16.5t13.5 44.5q0 68 -59 68q-58 0 -58 -68q0 -28 13.5 -44.5t44.5 -16.5z" />
    <glyph glyph-name="ampersand" unicode="&#x26;" horiz-adv-x="677" 
d="M552 -15l-66 67q-76 -62 -207 -62q-113 0 -180.5 48t-67.5 128q0 66 35 111.5t100 81.5q-32 32 -51 63t-19 74q0 70 51 114t138 44t138.5 -43t51.5 -115q0 -49 -22 -85.5t-66 -70.5l106 -109q12 23 12 57v18h121v-23q0 -39 -12 -76t-31 -63l69 -69zM283 405
q31 19 47 36.5t16 46.5q0 26 -14.5 42.5t-44.5 16.5q-32 0 -46.5 -17.5t-14.5 -41.5q0 -22 14.5 -42t42.5 -41zM279 100q69 0 109 38l-123 126q-39 -17 -59 -38.5t-20 -55.5t26 -52t67 -18z" />
    <glyph glyph-name="quotesingle" unicode="'" horiz-adv-x="196" 
d="M31 431v213h134l-15 -213h-119z" />
    <glyph glyph-name="parenleft" unicode="(" horiz-adv-x="355" 
d="M160 -72q-67 65 -98 164.5t-31 210.5q0 110 31 210t98 165h183q-79 -72 -113.5 -167.5t-34.5 -207.5t34.5 -207.5t113.5 -167.5h-183z" />
    <glyph glyph-name="parenright" unicode=")" horiz-adv-x="355" 
d="M11 -72q80 72 114 167.5t34 207.5t-34 207.5t-114 167.5h184q66 -65 97 -165t31 -210q0 -111 -31 -210.5t-97 -164.5h-184z" />
    <glyph glyph-name="asterisk" unicode="*" horiz-adv-x="440" 
d="M148 300l-92 67l81 85l-106 44l48 98l86 -46l-5 96h120l-5 -96l86 46l47 -98l-106 -44l81 -85l-92 -67l-71 97z" />
    <glyph glyph-name="plus" unicode="+" horiz-adv-x="457" 
d="M166 88v127h-135v125h135v129h126v-129h134v-125h-134v-127h-126z" />
    <glyph glyph-name="comma" unicode="," horiz-adv-x="231" 
d="M31 -120l32 213h137l-54 -213h-115z" />
    <glyph glyph-name="hyphen" unicode="-" horiz-adv-x="457" 
d="M31 215v125h395v-125h-395z" />
    <glyph glyph-name="period" unicode="." horiz-adv-x="191" 
d="M31 0v118h129v-118h-129z" />
    <glyph glyph-name="slash" unicode="/" horiz-adv-x="461" 
d="M31 0l234 662h165l-234 -662h-165z" />
    <glyph glyph-name="zero" unicode="0" horiz-adv-x="661" 
d="M330 -18q-108 0 -174 39t-95.5 114.5t-29.5 182.5t29.5 182t95.5 114.5t174 39.5q109 0 174.5 -39.5t95.5 -114.5t30 -182t-30 -182.5t-95.5 -114.5t-174.5 -39zM330 120q76 0 105.5 50.5t29.5 147.5t-29.5 147.5t-105.5 50.5t-105.5 -50.5t-29.5 -147.5t29.5 -147.5
t105.5 -50.5z" />
    <glyph glyph-name="one" unicode="1" horiz-adv-x="349" 
d="M137 0v496l-106 -17v135l267 40v-654h-161z" />
    <glyph glyph-name="two" unicode="2" horiz-adv-x="517" 
d="M31 0v75q27 56 69.5 100t92.5 89q46 42 73 67t38.5 48t11.5 55q0 82 -106 82q-41 0 -81 -9.5t-76 -23.5v139q39 14 91.5 23t104.5 9q113 0 172 -57t59 -160q0 -58 -27 -100.5t-81 -89.5q-40 -34 -71.5 -62.5t-53.5 -60.5h239v-124h-455z" />
    <glyph glyph-name="three" unicode="3" horiz-adv-x="529" 
d="M232 -10q-28 0 -66 4t-74.5 11.5t-60.5 17.5v134q41 -19 88 -27t88 -8q63 0 94.5 17t31.5 62q0 35 -26.5 51t-76.5 16h-105l11 113h87q51 0 74 16.5t23 53.5q0 35 -27.5 53t-88.5 18q-43 0 -87 -9.5t-76 -24.5v132q35 14 87.5 24t105.5 10q122 0 186.5 -51.5t64.5 -131.5
q0 -46 -19.5 -86t-59.5 -60q46 -16 68.5 -52t22.5 -87q0 -67 -34 -110.5t-93.5 -64.5t-137.5 -21z" />
    <glyph glyph-name="four" unicode="4" horiz-adv-x="547" 
d="M314 0v128h-303v107l323 409h141v-386h60v-130h-60v-128h-161zM166 252h175v215z" />
    <glyph glyph-name="five" unicode="5" horiz-adv-x="521" 
d="M229 -10q-29 0 -64.5 3.5t-70 10.5t-60.5 18v134q24 -10 54.5 -17.5t61 -11.5t54.5 -4q62 0 91.5 19t29.5 65q0 41 -20.5 59.5t-78.5 18.5h-195v81l17 278h400l-12 -124h-250l-7 -117h84q117 0 171.5 -51.5t54.5 -150.5q0 -96 -64.5 -153.5t-195.5 -57.5z" />
    <glyph glyph-name="six" unicode="6" horiz-adv-x="583" 
d="M293 -10q-262 0 -262 257v131q0 80 35.5 142.5t101.5 98t157 35.5q52 0 90.5 -6t73.5 -20v-131q-33 14 -70 20.5t-81 6.5q-77 0 -116.5 -31.5t-39.5 -81.5v-25q29 20 70 30.5t75 10.5q116 0 170.5 -55.5t54.5 -159.5q0 -65 -26.5 -115t-83.5 -78.5t-149 -28.5zM294 106
q57 0 85.5 27t28.5 73q0 50 -25 76t-87 26q-29 0 -58.5 -10t-55.5 -26v-54q0 -112 112 -112z" />
    <glyph glyph-name="seven" unicode="7" horiz-adv-x="498" 
d="M76 0l221 520h-276v124h455v-96l-232 -548h-168z" />
    <glyph glyph-name="eight" unicode="8" horiz-adv-x="603" 
d="M301 -10q-138 0 -204 48.5t-66 144.5q0 49 25 90t69 60q-40 20 -59 54.5t-19 73.5q0 88 60.5 140.5t193.5 52.5q136 0 195 -52.5t59 -140.5q0 -40 -18.5 -76.5t-61.5 -57.5q97 -40 97 -144q0 -96 -66.5 -144.5t-204.5 -48.5zM326 373q40 12 58 30.5t18 54.5q0 75 -101 75
q-50 0 -75.5 -17.5t-25.5 -57.5q0 -60 65 -73zM301 110q60 0 88.5 18t28.5 58q0 35 -19 51.5t-62 25.5l-73 15q-37 -8 -58.5 -27t-21.5 -60q0 -43 29 -62t88 -19z" />
    <glyph glyph-name="nine" unicode="9" horiz-adv-x="583" 
d="M258 -10q-52 0 -90.5 5.5t-73.5 18.5v131q65 -26 151 -26q78 0 117 32t39 81v25q-29 -19 -69.5 -30t-75.5 -11q-117 0 -171 56t-54 159q0 65 26.5 115.5t84 79t148.5 28.5q134 0 198 -64t64 -193v-131q0 -80 -35.5 -142.5t-101 -98t-157.5 -35.5zM287 335q29 0 59 10.5
t55 26.5v53q0 112 -112 112q-57 0 -85.5 -26.5t-28.5 -73.5q0 -49 24.5 -75.5t87.5 -26.5z" />
    <glyph glyph-name="colon" unicode=":" horiz-adv-x="191" 
d="M31 320v120h128v-120h-128zM31 20v120h128v-120h-128z" />
    <glyph glyph-name="semicolon" unicode=";" horiz-adv-x="231" 
d="M68 320v120h129v-120h-129zM31 -120l32 213h137l-54 -213h-115z" />
    <glyph glyph-name="less" unicode="&#x3c;" horiz-adv-x="540" 
d="M509 27l-478 214v133l478 213v-150l-307 -129l307 -130v-151z" />
    <glyph glyph-name="equal" unicode="=" horiz-adv-x="455" 
d="M31 308v112h392v-112h-392zM31 132v113h392v-113h-392z" />
    <glyph glyph-name="greater" unicode="&#x3e;" horiz-adv-x="540" 
d="M31 27v151l306 130l-306 129v150l478 -213v-133z" />
    <glyph glyph-name="question" unicode="?" horiz-adv-x="498" 
d="M134 177v19q0 40 16.5 67t44.5 53q26 25 51 43t41 38t16 47q0 39 -27.5 55.5t-91.5 16.5q-42 0 -83 -10.5t-70 -26.5v135q37 18 87.5 29t110.5 11q116 0 177 -50.5t61 -138.5q0 -56 -23 -90.5t-67 -70.5q-37 -31 -62 -53.5t-25 -60.5v-13h-156zM127 0v116h169v-116h-169z
" />
    <glyph glyph-name="at" unicode="@" horiz-adv-x="758" 
d="M388 -132q-105 0 -185.5 34.5t-126 105.5t-45.5 180t45.5 184t128 114t193.5 39q156 0 242 -74.5t86 -202.5q0 -96 -50 -147t-151 -51h-36q-25 -20 -59.5 -31.5t-84.5 -11.5q-55 0 -91.5 29t-36.5 84q0 54 35.5 84.5t109.5 30.5h96v19q0 30 -17.5 44t-68.5 14
q-58 0 -117 -19v65q26 11 64 17t77 6q81 0 118 -33t37 -106v-111q32 0 48.5 27t16.5 90q0 186 -218 186q-125 0 -191 -59.5t-66 -188.5q0 -82 30 -132t85 -72.5t130 -22.5q110 0 173 19v-92q-31 -7 -75 -12.5t-96 -5.5zM372 76q55 0 86 37v59h-78q-38 0 -53 -12.5t-15 -38.5
q0 -45 60 -45z" />
    <glyph glyph-name="A" unicode="A" horiz-adv-x="728" 
d="M31 0l246 644h174l246 -644h-168l-58 146h-215l-57 -146h-168zM278 265h171l-86 224z" />
    <glyph glyph-name="B" unicode="B" horiz-adv-x="641" 
d="M51 0v644h340q97 0 146.5 -46t49.5 -130q0 -51 -19.5 -85.5t-51.5 -53.5q44 -16 69 -47t25 -93q0 -92 -54 -140.5t-155 -48.5h-350zM212 382h131q42 0 61 19t19 53q0 37 -19 55.5t-69 18.5h-123v-146zM212 115h147q44 0 65.5 18t21.5 64q0 37 -21 55.5t-72 18.5h-141
v-156z" />
    <glyph glyph-name="C" unicode="C" horiz-adv-x="603" 
d="M377 -10q-169 0 -257.5 86.5t-88.5 240.5q0 161 86.5 249t258.5 88q59 0 105.5 -9t89.5 -24v-141q-87 36 -183 36q-100 0 -146.5 -48t-46.5 -151q0 -98 49 -144t146 -46q47 0 93 8.5t89 26.5v-142q-42 -14 -89 -22t-106 -8z" />
    <glyph glyph-name="D" unicode="D" horiz-adv-x="663" 
d="M51 0v644h279q98 0 165 -32.5t102 -104t35 -189.5q0 -166 -76.5 -242t-225.5 -76h-279zM212 124h96q52 0 87.5 15.5t54 57.5t18.5 121q0 80 -16.5 123.5t-52 61t-91.5 17.5h-96v-396z" />
    <glyph glyph-name="E" unicode="E" horiz-adv-x="552" 
d="M51 0v644h475v-124h-314v-135h277v-126h-277v-135h314v-124h-475z" />
    <glyph glyph-name="F" unicode="F" horiz-adv-x="530" 
d="M51 0v644h468v-124h-307v-135h270v-126h-270v-259h-161z" />
    <glyph glyph-name="G" unicode="G" horiz-adv-x="647" 
d="M372 -10q-167 0 -254 84.5t-87 238.5q0 161 89 251t262 90q59 0 106.5 -7t90.5 -21v-138q-43 16 -89.5 22t-95.5 6q-104 0 -151.5 -49.5t-47.5 -153.5q0 -95 45 -140.5t133 -45.5q58 0 108 16v122h-139v101h274v-319q-34 -22 -94.5 -39.5t-149.5 -17.5z" />
    <glyph glyph-name="H" unicode="H" horiz-adv-x="676" 
d="M51 0v644h161v-255h252v255h161v-644h-161v255h-252v-255h-161z" />
    <glyph glyph-name="I" unicode="I" horiz-adv-x="263" 
d="M51 0v644h161v-644h-161z" />
    <glyph glyph-name="J" unicode="J" horiz-adv-x="441" 
d="M159 -10q-41 0 -78.5 5.5t-69.5 17.5v135q24 -10 54 -15.5t61 -5.5q59 0 83.5 23.5t24.5 78.5v415h161v-445q0 -101 -60 -155t-176 -54z" />
    <glyph glyph-name="K" unicode="K" horiz-adv-x="663" 
d="M51 0v644h161v-250l222 250h184l-230 -263l244 -381h-172l-172 278l-76 -83v-195h-161z" />
    <glyph glyph-name="L" unicode="L" horiz-adv-x="527" 
d="M51 0v644h161v-520h304v-124h-465z" />
    <glyph glyph-name="M" unicode="M" horiz-adv-x="768" 
d="M51 0v644h159l175 -357l174 357h158v-644h-161v370l-127 -260h-89l-128 260v-370h-161z" />
    <glyph glyph-name="N" unicode="N" horiz-adv-x="676" 
d="M51 0v644h138l274 -385v385h162v-644h-139l-274 384v-384h-161z" />
    <glyph glyph-name="O" unicode="O" horiz-adv-x="704" 
d="M352 -10q-157 0 -239 80t-82 249q0 179 82 257t239 78t239 -78t82 -257q0 -169 -82 -249t-239 -80zM352 127q81 0 118.5 46.5t37.5 145.5q0 108 -37.5 152.5t-118.5 44.5q-82 0 -119.5 -44.5t-37.5 -152.5q0 -99 37.5 -145.5t119.5 -46.5z" />
    <glyph glyph-name="P" unicode="P" horiz-adv-x="606" 
d="M51 0v644h317q77 0 127 -30.5t74.5 -82.5t24.5 -117q0 -66 -28 -117t-79.5 -79.5t-122.5 -28.5h-152v-189h-161zM212 313h116q51 0 76.5 28t25.5 74q0 50 -23.5 77.5t-73.5 27.5h-121v-207z" />
    <glyph glyph-name="Q" unicode="Q" horiz-adv-x="704" 
d="M462 -172q-68 0 -106.5 18.5t-53.5 55.5t-16 92q-125 15 -190 94.5t-65 230.5q0 179 82 257t239 78t239 -78t82 -257q0 -148 -62.5 -227t-181.5 -96q0 -32 11.5 -44.5t39.5 -12.5q31 0 63 8v-109q-15 -4 -39.5 -7t-41.5 -3zM352 127q81 0 118.5 46.5t37.5 145.5
q0 108 -37.5 152.5t-118.5 44.5q-82 0 -119.5 -44.5t-37.5 -152.5q0 -99 37.5 -145.5t119.5 -46.5z" />
    <glyph glyph-name="R" unicode="R" horiz-adv-x="626" 
d="M51 0v644h322q114 0 168 -60t54 -161q0 -65 -33 -114t-90 -73q14 -11 22.5 -24.5t18.5 -37.5l76 -174h-168l-72 164q-9 21 -23 30.5t-40 9.5h-74v-204h-161zM212 328h119q47 0 73.5 23.5t26.5 71.5q0 97 -93 97h-126v-192z" />
    <glyph glyph-name="S" unicode="S" horiz-adv-x="555" 
d="M256 -10q-64 0 -119.5 9.5t-95.5 27.5v137q44 -19 97.5 -31t101.5 -12q60 0 89.5 11t29.5 48q0 25 -14.5 40t-47 26.5t-88.5 27.5q-66 20 -105 44.5t-56 59.5t-17 86q0 92 66 141t195 49q56 0 109 -8.5t86 -19.5v-138q-43 17 -86.5 25t-84.5 8q-54 0 -87.5 -10t-33.5 -46
q0 -21 12 -33.5t41.5 -22.5t80.5 -24q79 -21 121 -50.5t58 -68t16 -86.5q0 -85 -66 -137.5t-202 -52.5z" />
    <glyph glyph-name="T" unicode="T" horiz-adv-x="571" 
d="M200 0v520h-189v124h539v-124h-189v-520h-161z" />
    <glyph glyph-name="U" unicode="U" horiz-adv-x="684" 
d="M342 -10q-90 0 -156.5 29t-103 86t-36.5 140v399h161v-384q0 -67 35 -100t100 -33t100 33t35 100v384h161v-399q0 -83 -36.5 -140t-103 -86t-156.5 -29z" />
    <glyph glyph-name="V" unicode="V" horiz-adv-x="728" 
d="M277 0l-246 644h168l164 -460l165 460h169l-246 -644h-174z" />
    <glyph glyph-name="W" unicode="W" horiz-adv-x="883" 
d="M181 0l-150 644h158l85 -388l88 297v91h132l111 -389l89 389h158l-149 -644h-149l-108 372l-116 -372h-149z" />
    <glyph glyph-name="X" unicode="X" horiz-adv-x="727" 
d="M31 0l235 324l-228 320h192l133 -192l134 192h192l-228 -320l235 -324h-194l-139 195l-138 -195h-194z" />
    <glyph glyph-name="Y" unicode="Y" horiz-adv-x="644" 
d="M241 0v237l-231 407h168l144 -267l144 267h168l-231 -407v-237h-162z" />
    <glyph glyph-name="Z" unicode="Z" horiz-adv-x="578" 
d="M31 0v82l302 434h-287v128h498v-90l-299 -430h305v-124h-519z" />
    <glyph glyph-name="bracketleft" unicode="[" horiz-adv-x="367" 
d="M31 -99v805h309l5 -124h-153v-557h154l-5 -124h-310z" />
    <glyph glyph-name="backslash" unicode="\" horiz-adv-x="482" 
d="M284 -54l-253 716h168l252 -716h-167z" />
    <glyph glyph-name="bracketright" unicode="]" horiz-adv-x="367" 
d="M26 -99l-5 124h154v557h-153l5 124h309v-805h-310z" />
    <glyph glyph-name="asciicircum" unicode="^" horiz-adv-x="510" 
d="M31 377l164 247h112l171 -247h-149l-75 130l-73 -130h-150z" />
    <glyph glyph-name="underscore" unicode="_" horiz-adv-x="525" 
d="M31 -125v125h463v-125h-463z" />
    <glyph glyph-name="grave" unicode="`" horiz-adv-x="280" 
d="M124 522l-92 196h131l84 -196h-123z" />
    <glyph glyph-name="a" unicode="a" horiz-adv-x="561" 
d="M199 -10q-45 0 -83.5 16t-61.5 49.5t-23 83.5q0 73 49.5 114.5t148.5 41.5h132v11q0 36 -24 51.5t-90 15.5q-81 0 -159 -25v104q35 14 85.5 23t106.5 9q110 0 172.5 -45t62.5 -143v-296h-141l-8 40q-26 -24 -66.5 -37t-100.5 -13zM250 89q38 0 66 13t45 33v67h-114
q-71 0 -71 -57q0 -26 18 -41t56 -15z" />
    <glyph glyph-name="b" unicode="b" horiz-adv-x="598" 
d="M348 -10q-48 0 -84 12.5t-65 37.5l-8 -40h-140v674h161v-222q27 16 61 24t70 8q104 0 164 -57.5t60 -185.5t-59 -189.5t-160 -61.5zM302 107q54 0 77.5 32.5t23.5 100.5q0 70 -24.5 98t-76.5 28q-57 0 -90 -30v-193q36 -36 90 -36z" />
    <glyph glyph-name="c" unicode="c" horiz-adv-x="501" 
d="M301 -10q-127 0 -198.5 62t-71.5 185q0 125 74.5 186t198.5 61q52 0 90.5 -7.5t74.5 -24.5v-114q-56 27 -131 27q-70 0 -106.5 -28t-36.5 -100q0 -67 34 -97.5t108 -30.5q73 0 133 30v-119q-36 -16 -77.5 -23t-91.5 -7z" />
    <glyph glyph-name="d" unicode="d" horiz-adv-x="598" 
d="M250 -10q-69 0 -118 22t-75 72.5t-26 135.5q0 86 30 144.5t82.5 89t120.5 30.5q37 0 66.5 -8t55.5 -24v222h161v-674h-139l-9 40q-29 -25 -65 -37.5t-84 -12.5zM296 107q53 0 90 36v192q-34 31 -87 31q-51 0 -77.5 -38.5t-26.5 -108.5q0 -68 25.5 -90t75.5 -22z" />
    <glyph glyph-name="e" unicode="e" horiz-adv-x="547" 
d="M305 -10q-124 0 -199 61.5t-75 185.5q0 113 62 180t186 67q113 0 175 -58t62 -156v-85h-336q11 -47 51.5 -65.5t110.5 -18.5q39 0 79.5 7t67.5 18v-105q-34 -16 -81 -23.5t-103 -7.5zM180 278h196v21q0 35 -21 55.5t-71 20.5q-58 0 -81 -23.5t-23 -73.5z" />
    <glyph glyph-name="f" unicode="f" horiz-adv-x="375" 
d="M73 0v352h-63v122h63v39q0 77 44 127t131 50q36 0 64 -5.5t53 -15.5v-108q-15 5 -29 8t-31 3q-39 0 -55 -14.5t-16 -47.5v-36h117l-7 -122h-110v-352h-161z" />
    <glyph glyph-name="g" unicode="g" horiz-adv-x="563" 
d="M255 -176q-35 0 -74 3t-74 9t-60 14v110q40 -13 96 -20t103 -7q61 0 91.5 6.5t30.5 22.5q0 14 -12 19t-47 5h-131q-64 0 -99.5 23t-35.5 67q0 30 18.5 57t54.5 40q-41 21 -62 53t-21 81q0 92 59.5 134.5t174.5 42.5q24 0 53.5 -3.5t43.5 -6.5h182l-4 -100h-69
q25 -25 25 -74q0 -69 -44.5 -111t-134.5 -42q-15 0 -29.5 1.5t-28.5 2.5q-26 -3 -44.5 -11t-18.5 -23q0 -12 9.5 -16t28.5 -4h121q73 0 113.5 -33.5t40.5 -97.5q0 -142 -256 -142zM268 236q53 0 73 18t20 60t-20.5 61t-72.5 19q-49 0 -70.5 -18.5t-21.5 -61.5q0 -40 20 -59
t72 -19z" />
    <glyph glyph-name="h" unicode="h" horiz-adv-x="595" 
d="M51 0v674h161v-235q27 20 67 32.5t86 12.5q95 0 139.5 -45t44.5 -138v-301h-161v290q0 41 -17 58t-61 17q-26 0 -53 -12t-45 -30v-323h-161z" />
    <glyph glyph-name="i" unicode="i" horiz-adv-x="309" 
d="M83 549v121h175v-121h-175zM96 0v355h-70l14 119h217v-474h-161z" />
    <glyph glyph-name="j" unicode="j" horiz-adv-x="338" 
d="M112 549v121h175v-121h-175zM114 -234q-71 0 -118 20v109q30 -10 60 -10q70 0 70 60v410h-70l14 119h217v-543q0 -73 -42 -119t-131 -46z" />
    <glyph glyph-name="k" unicode="k" horiz-adv-x="581" 
d="M51 0v674h161v-352l155 152h183l-190 -197l201 -277h-171l-131 192l-47 -46v-146h-161z" />
    <glyph glyph-name="l" unicode="l" horiz-adv-x="308" 
d="M197 -10q-78 0 -112 34t-34 109v541h161v-525q0 -23 9.5 -31.5t28.5 -8.5q27 0 48 7v-109q-23 -9 -45.5 -13t-55.5 -4z" />
    <glyph glyph-name="m" unicode="m" horiz-adv-x="859" 
d="M51 0v474h149l5 -42q32 23 72 37.5t86 14.5q48 0 75 -14.5t42 -40.5q33 24 74.5 39.5t97.5 15.5q83 0 122 -43t39 -131v-310h-159v291q0 39 -16.5 56.5t-53.5 17.5q-23 0 -45 -9.5t-37 -26.5q2 -11 2.5 -21t0.5 -24v-284h-150v293q0 36 -12.5 54t-47.5 18q-25 0 -47 -13
t-40 -30v-322h-157z" />
    <glyph glyph-name="n" unicode="n" horiz-adv-x="595" 
d="M51 0v474h150l5 -41q29 20 73 35.5t94 15.5q92 0 134 -44t42 -136v-304h-161v291q0 40 -17 57t-61 17q-26 0 -53 -12t-45 -30v-323h-161z" />
    <glyph glyph-name="o" unicode="o" horiz-adv-x="597" 
d="M298 -10q-137 0 -202 63.5t-65 183.5q0 119 65.5 183t201.5 64q137 0 202.5 -64t65.5 -183q0 -120 -65 -183.5t-203 -63.5zM298 116q56 0 80 28t24 93t-24 93t-80 28q-55 0 -79 -28t-24 -93t24 -93t79 -28z" />
    <glyph glyph-name="p" unicode="p" horiz-adv-x="598" 
d="M51 -216v690h140l8 -41q29 24 65 37.5t84 13.5q101 0 160 -54.5t59 -182.5q0 -127 -60.5 -192t-166.5 -65q-75 0 -128 31v-237h-161zM299 108q104 0 104 142q0 68 -24 92t-77 24q-51 0 -90 -36v-192q19 -14 38.5 -22t48.5 -8z" />
    <glyph glyph-name="q" unicode="q" horiz-adv-x="599" 
d="M535 -242q-76 0 -112.5 36t-36.5 112v115q-53 -31 -128 -31q-105 0 -166 54t-61 181q0 86 30 143.5t80.5 86.5t110.5 29q48 0 82.5 -13.5t64.5 -37.5l9 41h139v-551q0 -26 10 -36.5t35 -10.5q22 0 43 8v-109q-22 -9 -43.5 -13t-56.5 -4zM298 108q29 0 49.5 8t38.5 22v192
q-19 18 -40 27t-48 9q-103 0 -103 -138q0 -70 26.5 -95t76.5 -25z" />
    <glyph glyph-name="r" unicode="r" horiz-adv-x="388" 
d="M51 0v474h153l5 -44q31 19 77 34.5t92 19.5v-121q-26 -3 -57.5 -9.5t-60 -15.5t-48.5 -19v-319h-161z" />
    <glyph glyph-name="s" unicode="s" horiz-adv-x="479" 
d="M227 -10q-57 0 -108 8t-81 20v123q35 -15 81 -23t82 -8q43 0 62.5 4t19.5 22q0 20 -32 30t-88 29q-65 23 -98.5 53.5t-33.5 90.5q0 70 52.5 107.5t167.5 37.5q45 0 89 -7t72 -16v-121q-28 13 -64 19t-65 6q-37 0 -62.5 -4.5t-25.5 -21.5q0 -19 28 -26.5t81 -24.5
q56 -17 87 -36.5t44 -46.5t13 -68q0 -71 -56 -109t-165 -38z" />
    <glyph glyph-name="t" unicode="t" horiz-adv-x="374" 
d="M246 -10q-88 0 -129.5 45t-41.5 124v193h-64v122h64v99l161 43v-142h115l-7 -122h-108v-182q0 -34 17 -47.5t51 -13.5q29 0 59 10v-109q-47 -20 -117 -20z" />
    <glyph glyph-name="u" unicode="u" horiz-adv-x="585" 
d="M214 -10q-84 0 -131 47.5t-47 138.5v298h161v-289q0 -40 19.5 -58.5t58.5 -18.5q29 0 55 12t43 30v324h161v-474h-150l-5 40q-29 -22 -70 -36t-95 -14z" />
    <glyph glyph-name="v" unicode="v" horiz-adv-x="607" 
d="M218 0l-187 474h168l104 -308l105 308h168l-187 -474h-171z" />
    <glyph glyph-name="w" unicode="w" horiz-adv-x="770" 
d="M156 0l-125 474h158l64 -272l67 207v65h121l78 -272l62 272h158l-125 -474h-146l-81 246l-83 -246h-148z" />
    <glyph glyph-name="x" unicode="x" horiz-adv-x="592" 
d="M26 0l182 241l-175 233h175l88 -119l88 119h175l-175 -233l182 -241h-176l-94 125l-94 -125h-176z" />
    <glyph glyph-name="y" unicode="y" horiz-adv-x="627" 
d="M192 -176q-36 0 -61.5 3.5t-50.5 13.5v112q17 -6 31.5 -8t29.5 -2q41 0 61.5 14.5t41.5 51.5l-213 465h169l125 -301l123 301h168l-181 -435q-27 -65 -60 -113.5t-77 -75t-106 -26.5z" />
    <glyph glyph-name="z" unicode="z" horiz-adv-x="492" 
d="M31 0v86l219 260h-211v128h415v-94l-214 -256h221v-124h-430z" />
    <glyph glyph-name="braceleft" unicode="{" horiz-adv-x="320" 
d="M199 -104q-73 0 -101 31t-28 96v147q0 38 -13 57.5t-46 23.5v94q37 5 48 27.5t11 67.5v133q0 65 28 96.5t101 31.5h99v-124h-25q-25 0 -33.5 -11.5t-8.5 -37.5v-136q0 -31 -12.5 -55.5t-38.5 -38.5q26 -14 38.5 -38.5t12.5 -55.5v-136q0 -25 8.5 -36.5t33.5 -11.5h25
v-124h-99z" />
    <glyph glyph-name="bar" unicode="|" horiz-adv-x="224" 
d="M31 -120v855h161v-855h-161z" />
    <glyph glyph-name="braceright" unicode="}" horiz-adv-x="320" 
d="M21 -104v124h25q25 0 33.5 11.5t8.5 36.5v136q0 31 13 55.5t38 38.5q-25 14 -38 38.5t-13 55.5v136q0 26 -8.5 37.5t-33.5 11.5h-25v124h99q73 0 101 -31.5t28 -96.5v-133q0 -45 11 -67.5t48 -27.5v-94q-33 -4 -46 -23.5t-13 -57.5v-147q0 -65 -28 -96t-101 -31h-99z" />
    <glyph glyph-name="asciitilde" unicode="~" horiz-adv-x="542" 
d="M392 197q-33 0 -62.5 10t-58.5 23.5t-59 23.5t-62 10q-38 0 -66.5 -13.5t-52.5 -44.5v150q17 23 49.5 37t69.5 14q34 0 64.5 -10t59.5 -23.5t58 -23.5t60 -10q38 0 66 13t52 44v-150q-17 -24 -48.5 -37t-69.5 -13z" />
    <glyph glyph-name="uni00A0" unicode="&#xa0;" horiz-adv-x="215" 
 />
    <glyph glyph-name="exclamdown" unicode="&#xa1;" horiz-adv-x="231" 
d="M31 358v116h169v-116h-169zM35 -170v169l6 299h149l6 -299v-169h-161z" />
    <glyph glyph-name="cent" unicode="&#xa2;" horiz-adv-x="501" 
d="M256 -86v78q-106 10 -162.5 72t-56.5 173q0 113 59.5 173.5t159.5 70.5v79h99v-78q30 -3 54.5 -10t49.5 -18v-97q-21 10 -47.5 17t-56.5 8v-290q28 2 54.5 8.5t50.5 18.5v-100q-45 -20 -105 -26v-79h-99zM256 100v274q-40 -13 -61 -45t-21 -92q0 -56 19.5 -89.5
t62.5 -47.5z" />
    <glyph glyph-name="sterling" unicode="&#xa3;" horiz-adv-x="489" 
d="M31 0v121h23q24 0 36 14.5t12 37.5v103h-64v122h64v76q0 81 50 130.5t135 49.5q41 0 72.5 -6.5t56.5 -17.5v-107q-14 7 -35 10t-41 3q-77 0 -77 -69v-69h151l-7 -122h-144v-94q0 -22 -4.5 -36t-17.5 -25h217v-121h-427z" />
    <glyph glyph-name="currency" unicode="&#xa4;" horiz-adv-x="570" 
d="M102 41l-71 87l78 57q-21 38 -21 84t21 82l-77 59l70 86l81 -65q21 14 46.5 22t54.5 8q59 0 102 -31l83 65l70 -85l-79 -59q22 -38 22 -82q0 -22 -6 -43.5t-16 -39.5l78 -60l-69 -84l-83 63q-44 -30 -101 -30t-101 30zM284 188q34 0 57.5 23.5t23.5 57.5t-23.5 57.5
t-57.5 23.5t-56.5 -23.5t-22.5 -57.5t22.5 -57.5t56.5 -23.5z" />
    <glyph glyph-name="yen" unicode="&#xa5;" horiz-adv-x="686" 
d="M262 0v75h-139v92h139v48h-139v92h99l-191 337h168l144 -267l144 267h168l-192 -337h100v-92h-139v-48h139v-92h-139v-75h-162z" />
    <glyph glyph-name="brokenbar" unicode="&#xa6;" horiz-adv-x="224" 
d="M31 393v342h161v-342h-161zM31 -120v341h161v-341h-161z" />
    <glyph glyph-name="section" unicode="&#xa7;" horiz-adv-x="555" 
d="M256 -10q-64 0 -119.5 9.5t-95.5 27.5v135q44 -19 97.5 -31.5t101.5 -12.5q56 0 87 12t31 50q0 37 -38 54t-111 39q-99 31 -138.5 70t-39.5 102q0 21 6 39.5t15 31.5q-9 14 -14.5 32.5t-5.5 40.5q0 84 64 130t196 46q33 0 70 -4.5t70 -10.5t55 -13v-135q-87 33 -175 33
q-22 0 -49.5 -3t-47.5 -15t-20 -40q0 -31 30 -47t104 -35q80 -20 122 -44t57.5 -54.5t15.5 -73.5q0 -18 -6 -41t-15 -36q9 -14 15 -32.5t6 -38.5q0 -91 -68 -138t-200 -47zM399 308q4 9 4 19q0 22 -31 40t-96 35q-34 9 -64.5 21.5t-43.5 25.5q-3 -6 -3 -18q0 -24 31.5 -39
t89.5 -31q38 -10 70 -24.5t43 -28.5z" />
    <glyph glyph-name="dieresis" unicode="&#xa8;" horiz-adv-x="391" 
d="M236 552v114h124v-114h-124zM31 552v114h123v-114h-123z" />
    <glyph glyph-name="copyright" unicode="&#xa9;" horiz-adv-x="726" 
d="M363 -10q-69 0 -129 26t-105.5 71.5t-71.5 105.5t-26 129t26 129t71.5 105.5t105.5 71.5t129 26t129 -26t105.5 -71.5t71.5 -105.5t26 -129t-26 -129t-71.5 -105.5t-105.5 -71.5t-129 -26zM363 75q69 0 123.5 32t86.5 87.5t32 127.5t-32 127.5t-86.5 87t-123.5 31.5
q-68 0 -123 -31.5t-87 -87t-32 -127.5t32 -127.5t87 -87.5t123 -32zM364 116q-91 0 -146 55t-55 151q0 67 27 112.5t73.5 69.5t103.5 24q42 0 72 -10t56 -27v-76q-47 27 -101 27q-33 0 -61.5 -11.5t-46 -37.5t-17.5 -71q0 -68 34 -94.5t87 -26.5q60 0 106 31v-80
q-56 -36 -132 -36z" />
    <glyph glyph-name="ordfeminine" unicode="&#xaa;" horiz-adv-x="336" 
d="M124 380q-38 0 -65.5 19.5t-27.5 62.5q0 89 109 89h73v4q0 18 -13 25.5t-48 7.5q-44 0 -88 -14v62q20 8 49.5 13t58.5 5q60 0 96.5 -25t36.5 -80v-163h-83l-5 21q-17 -13 -39 -20t-54 -7zM156 438q17 0 32 6.5t25 20.5v31h-51q-22 0 -33 -6t-11 -24q0 -16 10 -22t28 -6z
" />
    <glyph glyph-name="guillemotleft" unicode="&#xab;" horiz-adv-x="657" 
d="M564 58l-266 196v61l266 196l62 -90l-185 -137l185 -137zM297 58l-266 196v61l266 196l61 -90l-184 -137l184 -137z" />
    <glyph glyph-name="logicalnot" unicode="&#xac;" horiz-adv-x="510" 
d="M353 127v127h-322v124h447v-251h-125z" />
    <glyph glyph-name="uni00AD" unicode="&#xad;" horiz-adv-x="457" 
d="M31 215v125h395v-125h-395z" />
    <glyph glyph-name="registered" unicode="&#xae;" horiz-adv-x="726" 
d="M363 -10q-69 0 -129 26t-105.5 71.5t-71.5 105.5t-26 129t26 129t71.5 105.5t105.5 71.5t129 26t129 -26t105.5 -71.5t71.5 -105.5t26 -129t-26 -129t-71.5 -105.5t-105.5 -71.5t-129 -26zM363 75q69 0 123.5 32t86.5 87.5t32 127.5t-32 127.5t-86.5 87t-123.5 31.5
q-68 0 -123 -31.5t-87 -87t-32 -127.5t32 -127.5t87 -87.5t123 -32zM220 138v370h187q64 0 95 -34t31 -89q0 -86 -76 -111q8 -7 13 -15t10 -21l39 -100h-86l-37 102q-4 13 -13 17t-29 4h-46v-123h-88zM308 328h55q37 0 59.5 9.5t22.5 47.5q0 32 -16 44t-48 12h-73v-113z" />
    <glyph glyph-name="macron" unicode="&#xaf;" horiz-adv-x="360" 
d="M21 559v97h318v-97h-318z" />
    <glyph glyph-name="degree" unicode="&#xb0;" horiz-adv-x="306" 
d="M152 492q-49 0 -85.5 32.5t-36.5 87.5q0 56 36.5 88t85.5 32q51 0 87.5 -32t36.5 -88q0 -55 -36.5 -87.5t-87.5 -32.5zM152 570q18 0 30.5 12t12.5 30q0 17 -12.5 29t-30.5 12q-17 0 -29.5 -12t-12.5 -29q0 -18 12.5 -30t29.5 -12z" />
    <glyph glyph-name="plusminus" unicode="&#xb1;" horiz-adv-x="462" 
d="M168 164v127h-135v124h135v129h126v-129h135v-124h-135v-127h-126zM33 0v124h396v-124h-396z" />
    <glyph glyph-name="uni00B2" unicode="&#xb2;" horiz-adv-x="304" 
d="M31 370v48q15 22 31 35.5t38 30.5q32 25 43.5 35.5t11.5 23.5q0 28 -47 28q-16 0 -35 -4.5t-36 -11.5v80q17 7 49.5 13t63.5 6q59 0 90 -24.5t31 -61.5q0 -27 -10.5 -44.5t-33.5 -39.5q-13 -11 -21 -17t-19 -17h86v-80h-242z" />
    <glyph glyph-name="uni00B3" unicode="&#xb3;" horiz-adv-x="308" 
d="M138 362q-15 0 -36.5 2t-40.5 5t-30 7v69q18 -8 38.5 -11.5t38.5 -3.5q29 0 41.5 5.5t12.5 18.5q0 25 -46 25h-44l5 59h37q42 0 42 26q0 11 -13 15.5t-36 4.5q-40 0 -72 -15v70q16 5 45.5 10t57.5 5q71 0 102 -24t31 -59q0 -20 -8 -36.5t-25 -26.5q39 -13 39 -59
q0 -87 -139 -87z" />
    <glyph glyph-name="acute" unicode="&#xb4;" horiz-adv-x="280" 
d="M32 522l84 196h131l-92 -196h-123z" />
    <glyph glyph-name="uni00B5" unicode="&#xb5;" horiz-adv-x="600" 
d="M51 -143v617h161v-289q0 -40 19.5 -58.5t58.5 -18.5q29 0 55 12t43 30v324h161v-474h-150l-5 40q-25 -22 -60 -36t-82 -14q-22 0 -40 7v-140h-161z" />
    <glyph glyph-name="paragraph" unicode="&#xb6;" horiz-adv-x="652" 
d="M263 -77v330q-65 0 -117.5 22t-83.5 71.5t-31 130.5q0 82 33.5 133.5t91.5 75.5t131 24h344v-787h-152v663h-65v-663h-151z" />
    <glyph glyph-name="periodcentered" unicode="&#xb7;" horiz-adv-x="191" 
d="M31 227v118h129v-118h-129z" />
    <glyph glyph-name="cedilla" unicode="&#xb8;" horiz-adv-x="283" 
d="M105 -240q-18 0 -43 2.5t-36 5.5v71q29 -8 60 -8q41 0 58.5 6.5t17.5 28.5q0 23 -18 28.5t-48 5.5h-53l29 100h95l-15 -43q56 0 82.5 -25.5t26.5 -67.5q0 -49 -38 -76.5t-118 -27.5z" />
    <glyph glyph-name="uni00B9" unicode="&#xb9;" horiz-adv-x="208" 
d="M83 370v176l-63 -12v85l177 35v-284h-114z" />
    <glyph glyph-name="ordmasculine" unicode="&#xba;" horiz-adv-x="360" 
d="M179 380q-148 0 -148 137t148 137q150 0 150 -137t-150 -137zM179 449q29 0 41.5 16.5t12.5 51.5t-12.5 51t-41.5 16q-28 0 -40.5 -16t-12.5 -51t12.5 -51.5t40.5 -16.5z" />
    <glyph glyph-name="guillemotright" unicode="&#xbb;" horiz-adv-x="657" 
d="M360 58l-62 89l185 137l-185 137l62 90l266 -196v-61zM92 58l-61 89l184 137l-184 137l61 90l266 -196v-61z" />
    <glyph glyph-name="onequarter" unicode="&#xbc;" horiz-adv-x="669" 
d="M94 370v176l-63 -12v85l177 35v-284h-114zM84 0l337 644h153l-338 -644h-152zM499 0v46h-134v70l133 168h110v-164h30v-74h-30v-46h-109zM464 120h62v81z" />
    <glyph glyph-name="onehalf" unicode="&#xbd;" horiz-adv-x="684" 
d="M94 370v176l-63 -12v85l177 35v-284h-114zM84 0l337 644h153l-338 -644h-152zM400 0v48q16 22 32 35.5t37 30.5q32 25 44 35.5t12 23.5q0 28 -47 28q-17 0 -36 -4.5t-36 -11.5v80q18 7 50 13t64 6q59 0 89.5 -24.5t30.5 -61.5q0 -27 -10.5 -44.5t-33.5 -39.5
q-13 -11 -20.5 -17t-18.5 -17h85v-80h-242z" />
    <glyph glyph-name="threequarters" unicode="&#xbe;" horiz-adv-x="685" 
d="M138 362q-15 0 -36.5 2t-40.5 5t-30 7v69q18 -8 38.5 -11.5t38.5 -3.5q29 0 41.5 5.5t12.5 18.5q0 25 -46 25h-44l5 59h37q42 0 42 26q0 11 -13 15.5t-36 4.5q-40 0 -72 -15v70q16 5 45.5 10t57.5 5q71 0 102 -24t31 -59q0 -20 -8 -36.5t-25 -26.5q39 -13 39 -59
q0 -87 -139 -87zM100 0l337 644h153l-338 -644h-152zM504 0v46h-134v70l133 168h110v-164h30v-74h-30v-46h-109zM469 120h62v81z" />
    <glyph glyph-name="questiondown" unicode="&#xbf;" horiz-adv-x="498" 
d="M202 358v116h169v-116h-169zM269 -180q-116 0 -177 50.5t-61 138.5q0 56 23.5 90t66.5 71q37 31 62 54t25 60v13h156v-19q0 -40 -16 -67t-45 -53q-26 -24 -51 -42.5t-41 -38t-16 -47.5q0 -39 27.5 -55.5t91.5 -16.5q42 0 83.5 10.5t69.5 26.5v-135q-37 -18 -87.5 -29
t-110.5 -11z" />
    <glyph glyph-name="Agrave" unicode="&#xc0;" horiz-adv-x="728" 
d="M300 688l-93 196h132l84 -196h-123zM31 0l246 644h174l246 -644h-168l-58 146h-215l-57 -146h-168zM278 265h171l-86 224z" />
    <glyph glyph-name="Aacute" unicode="&#xc1;" horiz-adv-x="728" 
d="M297 688l84 196h132l-92 -196h-124zM31 0l246 644h174l246 -644h-168l-58 146h-215l-57 -146h-168zM278 265h171l-86 224z" />
    <glyph glyph-name="Acircumflex" unicode="&#xc2;" horiz-adv-x="728" 
d="M168 687l145 187h100l145 -187h-120l-75 104l-72 -104h-123zM31 0l246 644h174l246 -644h-168l-58 146h-215l-57 -146h-168zM278 265h171l-86 224z" />
    <glyph glyph-name="Atilde" unicode="&#xc3;" horiz-adv-x="728" 
d="M454 690q-31 0 -60.5 10.5t-57 20.5t-53.5 10q-29 0 -52.5 -10t-41.5 -28v107q14 14 38.5 23t52.5 9q32 0 60 -10t55 -20.5t56 -10.5q30 0 52 10.5t35 28.5v-108q-10 -13 -32.5 -22.5t-51.5 -9.5zM31 0l246 644h174l246 -644h-168l-58 146h-215l-57 -146h-168zM278 265
h171l-86 224z" />
    <glyph glyph-name="Adieresis" unicode="&#xc4;" horiz-adv-x="728" 
d="M201 713v109h118v-109h-118zM407 713v109h118v-109h-118zM31 0l246 644h174l246 -644h-168l-58 146h-215l-57 -146h-168zM278 265h171l-86 224z" />
    <glyph glyph-name="Aring" unicode="&#xc5;" horiz-adv-x="728" 
d="M31 0l239 625q-38 35 -38 92q0 53 35 89.5t96 36.5q63 0 97.5 -36.5t34.5 -89.5q0 -56 -37 -91l239 -626h-168l-58 146h-215l-57 -146h-168zM363 662q28 0 43 16t15 39t-15 39.5t-43 16.5q-26 0 -41.5 -16.5t-15.5 -39.5t15.5 -39t41.5 -16zM278 265h171l-86 224z" />
    <glyph glyph-name="AE" unicode="&#xc6;" horiz-adv-x="854" 
d="M31 0l246 644h546v-124h-261v-135h224v-126h-224v-135h261v-124h-421v147h-142l-57 -147h-172zM297 272h105v248h-12z" />
    <glyph glyph-name="Ccedilla" unicode="&#xc7;" horiz-adv-x="603" 
d="M357 -240q-17 0 -42.5 2.5t-36.5 5.5v71q29 -8 60 -8q41 0 58.5 6.5t17.5 28.5q0 23 -18 28.5t-47 5.5h-54l27 93q-142 14 -216.5 98.5t-74.5 225.5q0 161 86.5 249t258.5 88q59 0 105.5 -9t89.5 -24v-141q-87 36 -183 36q-100 0 -146.5 -48t-46.5 -151q0 -98 49 -144
t146 -46q47 0 93 8.5t89 26.5v-142q-35 -12 -72.5 -19.5t-82.5 -9.5l-12 -34q56 0 82.5 -25.5t26.5 -67.5q0 -49 -38.5 -76.5t-118.5 -27.5z" />
    <glyph glyph-name="Egrave" unicode="&#xc8;" horiz-adv-x="552" 
d="M243 688l-93 196h132l84 -196h-123zM51 0v644h475v-124h-314v-135h277v-126h-277v-135h314v-124h-475z" />
    <glyph glyph-name="Eacute" unicode="&#xc9;" horiz-adv-x="552" 
d="M211 688l84 196h132l-92 -196h-124zM51 0v644h475v-124h-314v-135h277v-126h-277v-135h314v-124h-475z" />
    <glyph glyph-name="Ecircumflex" unicode="&#xca;" horiz-adv-x="552" 
d="M93 687l145 187h100l145 -187h-120l-75 104l-72 -104h-123zM51 0v644h475v-124h-314v-135h277v-126h-277v-135h314v-124h-475z" />
    <glyph glyph-name="Edieresis" unicode="&#xcb;" horiz-adv-x="552" 
d="M130 714v109h118v-109h-118zM336 714v109h118v-109h-118zM51 0v644h475v-124h-314v-135h277v-126h-277v-135h314v-124h-475z" />
    <glyph glyph-name="Igrave" unicode="&#xcc;" horiz-adv-x="263" 
d="M71 688l-93 196h132l84 -196h-123zM51 0v644h161v-644h-161z" />
    <glyph glyph-name="Iacute" unicode="&#xcd;" horiz-adv-x="264" 
d="M67 688l84 196h132l-92 -196h-124zM51 0v644h161v-644h-161z" />
    <glyph glyph-name="Icircumflex" unicode="&#xce;" horiz-adv-x="264" 
d="M-64 687l145 187h100l145 -187h-120l-75 104l-72 -104h-123zM51 0v644h161v-644h-161z" />
    <glyph glyph-name="Idieresis" unicode="&#xcf;" horiz-adv-x="263" 
d="M-30 720v109h118v-109h-118zM176 720v109h118v-109h-118zM51 0v644h161v-644h-161z" />
    <glyph glyph-name="Eth" unicode="&#xd0;" horiz-adv-x="707" 
d="M94 0v257h-73v117h73v270h279q98 0 165 -32.5t102 -104t35 -189.5q0 -166 -76.5 -242t-225.5 -76h-279zM255 124h96q52 0 87.5 15.5t54 57.5t18.5 121q0 80 -16.5 123.5t-52 61t-91.5 17.5h-96v-146h126v-117h-126v-133z" />
    <glyph glyph-name="Ntilde" unicode="&#xd1;" horiz-adv-x="676" 
d="M437 698q-31 0 -60.5 10.5t-57 20.5t-53.5 10q-29 0 -52.5 -10t-41.5 -28v107q14 14 38.5 23t52.5 9q32 0 60 -10t55 -20.5t56 -10.5q30 0 52 10.5t35 28.5v-108q-10 -13 -32.5 -22.5t-51.5 -9.5zM51 0v644h138l274 -385v385h162v-644h-139l-274 384v-384h-161z" />
    <glyph glyph-name="Ograve" unicode="&#xd2;" horiz-adv-x="704" 
d="M296 688l-93 196h132l84 -196h-123zM352 -10q-157 0 -239 80t-82 249q0 179 82 257t239 78t239 -78t82 -257q0 -169 -82 -249t-239 -80zM352 127q81 0 118.5 46.5t37.5 145.5q0 108 -37.5 152.5t-118.5 44.5q-82 0 -119.5 -44.5t-37.5 -152.5q0 -99 37.5 -145.5
t119.5 -46.5z" />
    <glyph glyph-name="Oacute" unicode="&#xd3;" horiz-adv-x="704" 
d="M279 688l84 196h132l-92 -196h-124zM352 -10q-157 0 -239 80t-82 249q0 179 82 257t239 78t239 -78t82 -257q0 -169 -82 -249t-239 -80zM352 127q81 0 118.5 46.5t37.5 145.5q0 108 -37.5 152.5t-118.5 44.5q-82 0 -119.5 -44.5t-37.5 -152.5q0 -99 37.5 -145.5
t119.5 -46.5z" />
    <glyph glyph-name="Ocircumflex" unicode="&#xd4;" horiz-adv-x="704" 
d="M157 687l145 187h100l145 -187h-120l-75 104l-72 -104h-123zM352 -10q-157 0 -239 80t-82 249q0 179 82 257t239 78t239 -78t82 -257q0 -169 -82 -249t-239 -80zM352 127q81 0 118.5 46.5t37.5 145.5q0 108 -37.5 152.5t-118.5 44.5q-82 0 -119.5 -44.5t-37.5 -152.5
q0 -99 37.5 -145.5t119.5 -46.5z" />
    <glyph glyph-name="Otilde" unicode="&#xd5;" horiz-adv-x="704" 
d="M443 710q-31 0 -60.5 10.5t-57 20.5t-53.5 10q-29 0 -52.5 -10t-41.5 -28v107q14 14 38.5 23t52.5 9q32 0 60 -10t55 -20.5t56 -10.5q30 0 52 10.5t35 28.5v-108q-10 -13 -32.5 -22.5t-51.5 -9.5zM352 -10q-157 0 -239 80t-82 249q0 179 82 257t239 78t239 -78t82 -257
q0 -169 -82 -249t-239 -80zM352 127q81 0 118.5 46.5t37.5 145.5q0 108 -37.5 152.5t-118.5 44.5q-82 0 -119.5 -44.5t-37.5 -152.5q0 -99 37.5 -145.5t119.5 -46.5z" />
    <glyph glyph-name="Odieresis" unicode="&#xd6;" horiz-adv-x="704" 
d="M190 714v109h118v-109h-118zM396 714v109h118v-109h-118zM352 -10q-157 0 -239 80t-82 249q0 179 82 257t239 78t239 -78t82 -257q0 -169 -82 -249t-239 -80zM352 127q81 0 118.5 46.5t37.5 145.5q0 108 -37.5 152.5t-118.5 44.5q-82 0 -119.5 -44.5t-37.5 -152.5
q0 -99 37.5 -145.5t119.5 -46.5z" />
    <glyph glyph-name="multiply" unicode="&#xd7;" horiz-adv-x="422" 
d="M313 70l-101 101l-98 -96l-80 79l98 97l-101 101l79 79l99 -102l102 101l79 -79l-101 -102l101 -101z" />
    <glyph glyph-name="Oslash" unicode="&#xd8;" horiz-adv-x="704" 
d="M156 -53l28 74q-76 34 -114.5 107.5t-38.5 190.5q0 179 82 257t239 78q20 0 39 -1.5t37 -3.5l17 44h89l-25 -65q80 -31 122 -106.5t42 -202.5q0 -169 -82 -249t-239 -80q-24 0 -46 2t-42 5l-19 -50h-89zM240 165l136 350q-6 0 -12 0.5t-12 0.5q-82 0 -119.5 -44.5
t-37.5 -152.5q0 -109 45 -154zM352 127q81 0 118.5 46.5t37.5 145.5q0 126 -54 168l-138 -358q8 -1 17 -1.5t19 -0.5z" />
    <glyph glyph-name="Ugrave" unicode="&#xd9;" horiz-adv-x="684" 
d="M289 688l-93 196h132l84 -196h-123zM342 -10q-90 0 -156.5 29t-103 86t-36.5 140v399h161v-384q0 -67 35 -100t100 -33t100 33t35 100v384h161v-399q0 -83 -36.5 -140t-103 -86t-156.5 -29z" />
    <glyph glyph-name="Uacute" unicode="&#xda;" horiz-adv-x="684" 
d="M277 688l84 196h132l-92 -196h-124zM342 -10q-90 0 -156.5 29t-103 86t-36.5 140v399h161v-384q0 -67 35 -100t100 -33t100 33t35 100v384h161v-399q0 -83 -36.5 -140t-103 -86t-156.5 -29z" />
    <glyph glyph-name="Ucircumflex" unicode="&#xdb;" horiz-adv-x="684" 
d="M147 687l145 187h100l145 -187h-120l-75 104l-72 -104h-123zM342 -10q-90 0 -156.5 29t-103 86t-36.5 140v399h161v-384q0 -67 35 -100t100 -33t100 33t35 100v384h161v-399q0 -83 -36.5 -140t-103 -86t-156.5 -29z" />
    <glyph glyph-name="Udieresis" unicode="&#xdc;" horiz-adv-x="684" 
d="M180 714v109h118v-109h-118zM386 714v109h118v-109h-118zM342 -10q-90 0 -156.5 29t-103 86t-36.5 140v399h161v-384q0 -67 35 -100t100 -33t100 33t35 100v384h161v-399q0 -83 -36.5 -140t-103 -86t-156.5 -29z" />
    <glyph glyph-name="Yacute" unicode="&#xdd;" horiz-adv-x="686" 
d="M275 688l84 196h132l-92 -196h-124zM262 0v237l-231 407h168l144 -267l144 267h168l-231 -407v-237h-162z" />
    <glyph glyph-name="Thorn" unicode="&#xde;" horiz-adv-x="606" 
d="M51 0v644h161v-97h156q77 0 127 -29.5t74.5 -81t24.5 -116.5q0 -66 -28 -117t-79.5 -79.5t-122.5 -28.5h-152v-95h-161zM212 219h116q51 0 76.5 27.5t25.5 73.5q0 50 -23.5 76.5t-73.5 26.5h-121v-204z" />
    <glyph glyph-name="germandbls" unicode="&#xdf;" horiz-adv-x="640" 
d="M396 -10q-82 0 -140 22v129q21 -9 48.5 -14t54.5 -5q40 0 63 19.5t23 56.5q0 44 -23 62t-73 18h-68v117h61q44 0 62 21.5t18 63.5q0 23 -8.5 41.5t-30.5 29.5t-64 11q-56 0 -84 -28t-28 -92v-442h-161v448q0 77 33.5 133.5t94 87.5t142.5 31q90 0 150 -31t90 -80.5
t30 -105.5q0 -52 -20 -89.5t-52 -55.5q44 -16 69.5 -54.5t25.5 -94.5q0 -93 -55.5 -146t-157.5 -53z" />
    <glyph glyph-name="agrave" unicode="&#xe0;" horiz-adv-x="561" 
d="M234 522l-93 196h132l84 -196h-123zM199 -10q-45 0 -83.5 16t-61.5 49.5t-23 83.5q0 73 49.5 114.5t148.5 41.5h132v11q0 36 -24 51.5t-90 15.5q-81 0 -159 -25v104q35 14 85.5 23t106.5 9q110 0 172.5 -45t62.5 -143v-296h-141l-8 40q-26 -24 -66.5 -37t-100.5 -13z
M250 89q38 0 66 13t45 33v67h-114q-71 0 -71 -57q0 -26 18 -41t56 -15z" />
    <glyph glyph-name="aacute" unicode="&#xe1;" horiz-adv-x="561" 
d="M221 522l84 196h132l-92 -196h-124zM199 -10q-45 0 -83.5 16t-61.5 49.5t-23 83.5q0 73 49.5 114.5t148.5 41.5h132v11q0 36 -24 51.5t-90 15.5q-81 0 -159 -25v104q35 14 85.5 23t106.5 9q110 0 172.5 -45t62.5 -143v-296h-141l-8 40q-26 -24 -66.5 -37t-100.5 -13z
M250 89q38 0 66 13t45 33v67h-114q-71 0 -71 -57q0 -26 18 -41t56 -15z" />
    <glyph glyph-name="acircumflex" unicode="&#xe2;" horiz-adv-x="561" 
d="M98 521l145 187h100l145 -187h-120l-75 104l-72 -104h-123zM199 -10q-45 0 -83.5 16t-61.5 49.5t-23 83.5q0 73 49.5 114.5t148.5 41.5h132v11q0 36 -24 51.5t-90 15.5q-81 0 -159 -25v104q35 14 85.5 23t106.5 9q110 0 172.5 -45t62.5 -143v-296h-141l-8 40
q-26 -24 -66.5 -37t-100.5 -13zM250 89q38 0 66 13t45 33v67h-114q-71 0 -71 -57q0 -26 18 -41t56 -15z" />
    <glyph glyph-name="atilde" unicode="&#xe3;" horiz-adv-x="561" 
d="M390 532q-31 0 -60.5 10.5t-57 20.5t-53.5 10q-29 0 -52.5 -10t-41.5 -28v107q14 14 38.5 23t52.5 9q32 0 60 -10t55 -20.5t56 -10.5q30 0 52 10.5t35 28.5v-108q-10 -13 -32.5 -22.5t-51.5 -9.5zM199 -10q-45 0 -83.5 16t-61.5 49.5t-23 83.5q0 73 49.5 114.5
t148.5 41.5h132v11q0 36 -24 51.5t-90 15.5q-81 0 -159 -25v104q35 14 85.5 23t106.5 9q110 0 172.5 -45t62.5 -143v-296h-141l-8 40q-26 -24 -66.5 -37t-100.5 -13zM250 89q38 0 66 13t45 33v67h-114q-71 0 -71 -57q0 -26 18 -41t56 -15z" />
    <glyph glyph-name="adieresis" unicode="&#xe4;" horiz-adv-x="561" 
d="M137 548v109h118v-109h-118zM343 548v109h118v-109h-118zM199 -10q-45 0 -83.5 16t-61.5 49.5t-23 83.5q0 73 49.5 114.5t148.5 41.5h132v11q0 36 -24 51.5t-90 15.5q-81 0 -159 -25v104q35 14 85.5 23t106.5 9q110 0 172.5 -45t62.5 -143v-296h-141l-8 40
q-26 -24 -66.5 -37t-100.5 -13zM250 89q38 0 66 13t45 33v67h-114q-71 0 -71 -57q0 -26 18 -41t56 -15z" />
    <glyph glyph-name="aring" unicode="&#xe5;" horiz-adv-x="561" 
d="M300 521q-61 0 -96 36.5t-35 88.5q0 53 35 89.5t96 36.5q63 0 97.5 -36.5t34.5 -89.5q0 -52 -34.5 -88.5t-97.5 -36.5zM300 591q28 0 43 16t15 39t-15 39.5t-43 16.5q-26 0 -41.5 -16.5t-15.5 -39.5t15.5 -39t41.5 -16zM199 -10q-45 0 -83.5 16t-61.5 49.5t-23 83.5
q0 73 49.5 114.5t148.5 41.5h132v11q0 36 -24 51.5t-90 15.5q-81 0 -159 -25v104q35 14 85.5 23t106.5 9q110 0 172.5 -45t62.5 -143v-296h-141l-8 40q-26 -24 -66.5 -37t-100.5 -13zM250 89q38 0 66 13t45 33v67h-114q-71 0 -71 -57q0 -26 18 -41t56 -15z" />
    <glyph glyph-name="ae" unicode="&#xe6;" horiz-adv-x="882" 
d="M212 -10q-51 0 -92 16t-65 49.5t-24 83.5q0 73 49.5 114.5t148.5 41.5h132v11q0 36 -24 51.5t-90 15.5q-81 0 -159 -25v104q35 14 85.5 23t106.5 9q108 0 167 -46q61 46 167 46q113 0 175 -58t62 -156v-85h-336q11 -47 51.5 -66.5t110.5 -19.5q39 0 79.5 7.5t67.5 17.5
v-103q-34 -16 -81 -23.5t-103 -7.5q-57 0 -109 19t-84 54q-27 -21 -58 -37.5t-73.5 -26t-103.5 -9.5zM515 278h196v21q0 35 -21 55.5t-71 20.5q-58 0 -81 -23.5t-23 -73.5zM250 89q38 0 65 11.5t46 30.5v71h-114q-71 0 -71 -57q0 -26 18 -41t56 -15z" />
    <glyph glyph-name="ccedilla" unicode="&#xe7;" horiz-adv-x="501" 
d="M274 -240q-17 0 -42.5 2.5t-36.5 5.5v71q29 -8 60 -8q41 0 58.5 6.5t17.5 28.5q0 23 -18 28.5t-47 5.5h-54l27 94q-99 14 -153.5 75t-54.5 168q0 125 74.5 186t198.5 61q52 0 90.5 -7.5t74.5 -24.5v-114q-56 27 -131 27q-70 0 -106.5 -28t-36.5 -100q0 -67 34 -97.5
t108 -30.5q73 0 133 30v-119q-58 -25 -136 -29l-12 -34q56 0 82.5 -25.5t26.5 -67.5q0 -49 -38.5 -76.5t-118.5 -27.5z" />
    <glyph glyph-name="egrave" unicode="&#xe8;" horiz-adv-x="547" 
d="M220 522l-93 196h132l84 -196h-123zM305 -10q-124 0 -199 61.5t-75 185.5q0 113 62 180t186 67q113 0 175 -58t62 -156v-85h-336q11 -47 51.5 -65.5t110.5 -18.5q39 0 79.5 7t67.5 18v-105q-34 -16 -81 -23.5t-103 -7.5zM180 278h196v21q0 35 -21 55.5t-71 20.5
q-58 0 -81 -23.5t-23 -73.5z" />
    <glyph glyph-name="eacute" unicode="&#xe9;" horiz-adv-x="547" 
d="M220 522l84 196h132l-92 -196h-124zM305 -10q-124 0 -199 61.5t-75 185.5q0 113 62 180t186 67q113 0 175 -58t62 -156v-85h-336q11 -47 51.5 -65.5t110.5 -18.5q39 0 79.5 7t67.5 18v-105q-34 -16 -81 -23.5t-103 -7.5zM180 278h196v21q0 35 -21 55.5t-71 20.5
q-58 0 -81 -23.5t-23 -73.5z" />
    <glyph glyph-name="ecircumflex" unicode="&#xea;" horiz-adv-x="547" 
d="M86 521l145 187h100l145 -187h-120l-75 104l-72 -104h-123zM305 -10q-124 0 -199 61.5t-75 185.5q0 113 62 180t186 67q113 0 175 -58t62 -156v-85h-336q11 -47 51.5 -65.5t110.5 -18.5q39 0 79.5 7t67.5 18v-105q-34 -16 -81 -23.5t-103 -7.5zM180 278h196v21
q0 35 -21 55.5t-71 20.5q-58 0 -81 -23.5t-23 -73.5z" />
    <glyph glyph-name="edieresis" unicode="&#xeb;" horiz-adv-x="547" 
d="M119 548v109h118v-109h-118zM325 548v109h118v-109h-118zM305 -10q-124 0 -199 61.5t-75 185.5q0 113 62 180t186 67q113 0 175 -58t62 -156v-85h-336q11 -47 51.5 -65.5t110.5 -18.5q39 0 79.5 7t67.5 18v-105q-34 -16 -81 -23.5t-103 -7.5zM180 278h196v21
q0 35 -21 55.5t-71 20.5q-58 0 -81 -23.5t-23 -73.5z" />
    <glyph glyph-name="igrave" unicode="&#xec;" horiz-adv-x="334" 
d="M134 522l-93 196h132l84 -196h-123zM121 0v355h-70l14 119h217v-474h-161z" />
    <glyph glyph-name="iacute" unicode="&#xed;" horiz-adv-x="334" 
d="M120 522l84 196h132l-92 -196h-124zM121 0v355h-70l14 119h217v-474h-161z" />
    <glyph glyph-name="icircumflex" unicode="&#xee;" horiz-adv-x="334" 
d="M-22 521l145 187h100l145 -187h-120l-75 104l-72 -104h-123zM121 0v355h-70l14 119h217v-474h-161z" />
    <glyph glyph-name="idieresis" unicode="&#xef;" horiz-adv-x="334" 
d="M8 548v109h118v-109h-118zM214 548v109h118v-109h-118zM121 0v355h-70l14 119h217v-474h-161z" />
    <glyph glyph-name="eth" unicode="&#xf0;" horiz-adv-x="572" 
d="M290 -10q-137 0 -198 56.5t-61 153.5q0 103 59.5 153.5t167.5 50.5q41 0 79.5 -11.5t63.5 -28.5v29q0 29 -4 53t-13 43l-113 -49v59l75 32q-32 20 -84 20q-41 0 -76 -7.5t-69 -21.5v105q72 27 171 27q64 0 111 -17t79 -49l87 38v-59l-53 -23q21 -35 30.5 -79.5t9.5 -94.5
v-123q0 -257 -262 -257zM289 96q56 0 84 28t28 88v56q-23 17 -50.5 26.5t-62.5 9.5q-62 0 -87.5 -27.5t-25.5 -76.5t28.5 -76.5t85.5 -27.5z" />
    <glyph glyph-name="ntilde" unicode="&#xf1;" horiz-adv-x="595" 
d="M392 532q-31 0 -60.5 10.5t-57 20.5t-53.5 10q-29 0 -52.5 -10t-41.5 -28v107q14 14 38.5 23t52.5 9q32 0 60 -10t55 -20.5t56 -10.5q30 0 52 10.5t35 28.5v-108q-10 -13 -32.5 -22.5t-51.5 -9.5zM51 0v474h150l5 -41q29 20 73 35.5t94 15.5q92 0 134 -44t42 -136v-304
h-161v291q0 40 -17 57t-61 17q-26 0 -53 -12t-45 -30v-323h-161z" />
    <glyph glyph-name="ograve" unicode="&#xf2;" horiz-adv-x="597" 
d="M238 522l-93 196h132l84 -196h-123zM298 -10q-137 0 -202 63.5t-65 183.5q0 119 65.5 183t201.5 64q137 0 202.5 -64t65.5 -183q0 -120 -65 -183.5t-203 -63.5zM298 116q56 0 80 28t24 93t-24 93t-80 28q-55 0 -79 -28t-24 -93t24 -93t79 -28z" />
    <glyph glyph-name="oacute" unicode="&#xf3;" horiz-adv-x="597" 
d="M225 522l84 196h132l-92 -196h-124zM298 -10q-137 0 -202 63.5t-65 183.5q0 119 65.5 183t201.5 64q137 0 202.5 -64t65.5 -183q0 -120 -65 -183.5t-203 -63.5zM298 116q56 0 80 28t24 93t-24 93t-80 28q-55 0 -79 -28t-24 -93t24 -93t79 -28z" />
    <glyph glyph-name="ocircumflex" unicode="&#xf4;" horiz-adv-x="597" 
d="M103 521l145 187h100l145 -187h-120l-75 104l-72 -104h-123zM298 -10q-137 0 -202 63.5t-65 183.5q0 119 65.5 183t201.5 64q137 0 202.5 -64t65.5 -183q0 -120 -65 -183.5t-203 -63.5zM298 116q56 0 80 28t24 93t-24 93t-80 28q-55 0 -79 -28t-24 -93t24 -93t79 -28z
" />
    <glyph glyph-name="otilde" unicode="&#xf5;" horiz-adv-x="597" 
d="M389 544q-31 0 -60.5 10.5t-57 20.5t-53.5 10q-29 0 -52.5 -10t-41.5 -28v107q14 14 38.5 23t52.5 9q32 0 60 -10t55 -20.5t56 -10.5q30 0 52 10.5t35 28.5v-108q-10 -13 -32.5 -22.5t-51.5 -9.5zM298 -10q-137 0 -202 63.5t-65 183.5q0 119 65.5 183t201.5 64
q137 0 202.5 -64t65.5 -183q0 -120 -65 -183.5t-203 -63.5zM298 116q56 0 80 28t24 93t-24 93t-80 28q-55 0 -79 -28t-24 -93t24 -93t79 -28z" />
    <glyph glyph-name="odieresis" unicode="&#xf6;" horiz-adv-x="597" 
d="M136 548v109h118v-109h-118zM342 548v109h118v-109h-118zM298 -10q-137 0 -202 63.5t-65 183.5q0 119 65.5 183t201.5 64q137 0 202.5 -64t65.5 -183q0 -120 -65 -183.5t-203 -63.5zM298 116q56 0 80 28t24 93t-24 93t-80 28q-55 0 -79 -28t-24 -93t24 -93t79 -28z" />
    <glyph glyph-name="divide" unicode="&#xf7;" horiz-adv-x="457" 
d="M170 404v106h118v-106h-118zM31 215v125h395v-125h-395zM170 48v106h118v-106h-118z" />
    <glyph glyph-name="oslash" unicode="&#xf8;" horiz-adv-x="597" 
d="M141 -53l24 64q-68 26 -101 83t-33 143q0 119 65.5 183t201.5 64q25 0 49 -3l18 47h87l-25 -64q71 -26 105 -83.5t34 -143.5q0 -120 -65 -183.5t-203 -63.5q-28 0 -54 3l-17 -46h-86zM216 141l84 220h-2q-56 0 -82 -29t-26 -95q0 -67 26 -96zM291 113h7q56 0 82.5 28.5
t26.5 95.5q0 68 -30 98z" />
    <glyph glyph-name="ugrave" unicode="&#xf9;" horiz-adv-x="595" 
d="M249 522l-93 196h132l84 -196h-123zM224 -10q-84 0 -131 47.5t-47 138.5v298h161v-289q0 -40 19.5 -58.5t58.5 -18.5q29 0 55 12t43 30v324h161v-474h-150l-5 40q-29 -22 -70 -36t-95 -14z" />
    <glyph glyph-name="uacute" unicode="&#xfa;" horiz-adv-x="595" 
d="M215 522l84 196h132l-92 -196h-124zM224 -10q-84 0 -131 47.5t-47 138.5v298h161v-289q0 -40 19.5 -58.5t58.5 -18.5q29 0 55 12t43 30v324h161v-474h-150l-5 40q-29 -22 -70 -36t-95 -14z" />
    <glyph glyph-name="ucircumflex" unicode="&#xfb;" horiz-adv-x="595" 
d="M99 521l145 187h100l145 -187h-120l-75 104l-72 -104h-123zM224 -10q-84 0 -131 47.5t-47 138.5v298h161v-289q0 -40 19.5 -58.5t58.5 -18.5q29 0 55 12t43 30v324h161v-474h-150l-5 40q-29 -22 -70 -36t-95 -14z" />
    <glyph glyph-name="udieresis" unicode="&#xfc;" horiz-adv-x="595" 
d="M133 548v109h118v-109h-118zM339 548v109h118v-109h-118zM224 -10q-84 0 -131 47.5t-47 138.5v298h161v-289q0 -40 19.5 -58.5t58.5 -18.5q29 0 55 12t43 30v324h161v-474h-150l-5 40q-29 -22 -70 -36t-95 -14z" />
    <glyph glyph-name="yacute" unicode="&#xfd;" horiz-adv-x="627" 
d="M255 522l84 196h132l-92 -196h-124zM192 -176q-36 0 -61.5 3.5t-50.5 13.5v112q17 -6 31.5 -8t29.5 -2q41 0 61.5 14.5t41.5 51.5l-213 465h169l125 -301l123 301h168l-181 -435q-27 -65 -60 -113.5t-77 -75t-106 -26.5z" />
    <glyph glyph-name="thorn" unicode="&#xfe;" horiz-adv-x="598" 
d="M51 -216v916h161v-248q26 16 60 24t71 8q104 0 164 -59.5t60 -187.5q0 -127 -60.5 -187t-166.5 -60q-75 0 -128 31v-237h-161zM299 108q51 0 77.5 31t26.5 101q0 68 -24 97t-77 29q-51 0 -90 -36v-192q19 -14 38.5 -22t48.5 -8z" />
    <glyph glyph-name="ydieresis" unicode="&#xff;" horiz-adv-x="627" 
d="M164 565v109h118v-109h-118zM370 565v109h118v-109h-118zM192 -176q-36 0 -61.5 3.5t-50.5 13.5v112q17 -6 31.5 -8t29.5 -2q41 0 61.5 14.5t41.5 51.5l-213 465h169l125 -301l123 301h168l-181 -435q-27 -65 -60 -113.5t-77 -75t-106 -26.5z" />
    <glyph glyph-name="Amacron" unicode="&#x100;" horiz-adv-x="728" 
d="M204 704v97h318v-97h-318zM31 0l246 644h174l246 -644h-168l-58 146h-215l-57 -146h-168zM278 265h171l-86 224z" />
    <glyph glyph-name="amacron" unicode="&#x101;" horiz-adv-x="561" 
d="M145 538v97h318v-97h-318zM199 -10q-45 0 -83.5 16t-61.5 49.5t-23 83.5q0 73 49.5 114.5t148.5 41.5h132v11q0 36 -24 51.5t-90 15.5q-81 0 -159 -25v104q35 14 85.5 23t106.5 9q110 0 172.5 -45t62.5 -143v-296h-141l-8 40q-26 -24 -66.5 -37t-100.5 -13zM250 89
q38 0 66 13t45 33v67h-114q-71 0 -71 -57q0 -26 18 -41t56 -15z" />
    <glyph glyph-name="Abreve" unicode="&#x102;" horiz-adv-x="728" 
d="M363 688q-77 0 -125 45t-48 127h106q0 -34 15.5 -58t51.5 -24q37 0 53 24t16 58h106q0 -82 -48.5 -127t-126.5 -45zM31 0l246 644h174l246 -644h-168l-58 146h-215l-57 -146h-168zM278 265h171l-86 224z" />
    <glyph glyph-name="abreve" unicode="&#x103;" horiz-adv-x="561" 
d="M302 522q-77 0 -125 45t-48 127h106q0 -34 15.5 -58t51.5 -24q37 0 53 24t16 58h106q0 -82 -48.5 -127t-126.5 -45zM199 -10q-45 0 -83.5 16t-61.5 49.5t-23 83.5q0 73 49.5 114.5t148.5 41.5h132v11q0 36 -24 51.5t-90 15.5q-81 0 -159 -25v104q35 14 85.5 23t106.5 9
q110 0 172.5 -45t62.5 -143v-296h-141l-8 40q-26 -24 -66.5 -37t-100.5 -13zM250 89q38 0 66 13t45 33v67h-114q-71 0 -71 -57q0 -26 18 -41t56 -15z" />
    <glyph glyph-name="Aogonek" unicode="&#x104;" horiz-adv-x="728" 
d="M31 0l246 644h174l246 -644h-45q-28 -21 -45.5 -45.5t-17.5 -51.5q0 -20 12 -29t32 -9q13 0 27 3t23 8v-81q-14 -6 -40 -10.5t-54 -4.5q-51 0 -87 22.5t-36 71.5q0 38 19.5 71t53.5 55h-10l-58 146h-215l-57 -146h-168zM278 265h171l-86 224z" />
    <glyph glyph-name="aogonek" unicode="&#x105;" horiz-adv-x="566" 
d="M199 -10q-45 0 -83.5 16t-61.5 49.5t-23 83.5q0 73 49.5 114.5t148.5 41.5h132v11q0 36 -24 51.5t-90 15.5q-81 0 -159 -25v104q35 14 85.5 23t106.5 9q110 0 172.5 -45t62.5 -143v-296h-28q-28 -21 -45.5 -45.5t-17.5 -51.5q0 -20 12 -29t32 -9q13 0 27 3t23 8v-81
q-14 -6 -40 -10.5t-54 -4.5q-51 0 -87 22.5t-36 71.5q0 38 19.5 71t53.5 55l-8 40q-26 -24 -66.5 -37t-100.5 -13zM250 89q38 0 66 13t45 33v67h-114q-71 0 -71 -57q0 -26 18 -41t56 -15z" />
    <glyph glyph-name="Cacute" unicode="&#x106;" horiz-adv-x="603" 
d="M299 688l84 196h132l-92 -196h-124zM377 -10q-169 0 -257.5 86.5t-88.5 240.5q0 161 86.5 249t258.5 88q59 0 105.5 -9t89.5 -24v-141q-87 36 -183 36q-100 0 -146.5 -48t-46.5 -151q0 -98 49 -144t146 -46q47 0 93 8.5t89 26.5v-142q-42 -14 -89 -22t-106 -8z" />
    <glyph glyph-name="cacute" unicode="&#x107;" horiz-adv-x="501" 
d="M220 522l84 196h132l-92 -196h-124zM301 -10q-127 0 -198.5 62t-71.5 185q0 125 74.5 186t198.5 61q52 0 90.5 -7.5t74.5 -24.5v-114q-56 27 -131 27q-70 0 -106.5 -28t-36.5 -100q0 -67 34 -97.5t108 -30.5q73 0 133 30v-119q-36 -16 -77.5 -23t-91.5 -7z" />
    <glyph glyph-name="Ccircumflex" unicode="&#x108;" horiz-adv-x="603" 
d="M150 687l145 187h100l145 -187h-120l-75 104l-72 -104h-123zM377 -10q-169 0 -257.5 86.5t-88.5 240.5q0 161 86.5 249t258.5 88q59 0 105.5 -9t89.5 -24v-141q-87 36 -183 36q-100 0 -146.5 -48t-46.5 -151q0 -98 49 -144t146 -46q47 0 93 8.5t89 26.5v-142
q-42 -14 -89 -22t-106 -8z" />
    <glyph glyph-name="ccircumflex" unicode="&#x109;" horiz-adv-x="501" 
d="M77 521l145 187h100l145 -187h-120l-75 104l-72 -104h-123zM301 -10q-127 0 -198.5 62t-71.5 185q0 125 74.5 186t198.5 61q52 0 90.5 -7.5t74.5 -24.5v-114q-56 27 -131 27q-70 0 -106.5 -28t-36.5 -100q0 -67 34 -97.5t108 -30.5q73 0 133 30v-119q-36 -16 -77.5 -23
t-91.5 -7z" />
    <glyph glyph-name="Cdotaccent" unicode="&#x10a;" horiz-adv-x="603" 
d="M300 714v109h117v-109h-117zM377 -10q-169 0 -257.5 86.5t-88.5 240.5q0 161 86.5 249t258.5 88q59 0 105.5 -9t89.5 -24v-141q-87 36 -183 36q-100 0 -146.5 -48t-46.5 -151q0 -98 49 -144t146 -46q47 0 93 8.5t89 26.5v-142q-42 -14 -89 -22t-106 -8z" />
    <glyph glyph-name="cdotaccent" unicode="&#x10b;" horiz-adv-x="501" 
d="M221 548v109h117v-109h-117zM301 -10q-127 0 -198.5 62t-71.5 185q0 125 74.5 186t198.5 61q52 0 90.5 -7.5t74.5 -24.5v-114q-56 27 -131 27q-70 0 -106.5 -28t-36.5 -100q0 -67 34 -97.5t108 -30.5q73 0 133 30v-119q-36 -16 -77.5 -23t-91.5 -7z" />
    <glyph glyph-name="Ccaron" unicode="&#x10c;" horiz-adv-x="603" 
d="M317 687l-145 187h123l72 -104l75 104h120l-145 -187h-100zM377 -10q-169 0 -257.5 86.5t-88.5 240.5q0 161 86.5 249t258.5 88q59 0 105.5 -9t89.5 -24v-141q-87 36 -183 36q-100 0 -146.5 -48t-46.5 -151q0 -98 49 -144t146 -46q47 0 93 8.5t89 26.5v-142
q-42 -14 -89 -22t-106 -8z" />
    <glyph glyph-name="ccaron" unicode="&#x10d;" horiz-adv-x="502" 
d="M226 521l-145 187h123l72 -104l75 104h120l-145 -187h-100zM301 -10q-127 0 -198.5 62t-71.5 185q0 125 74.5 186t198.5 61q52 0 90.5 -7.5t74.5 -24.5v-114q-56 27 -131 27q-70 0 -106.5 -28t-36.5 -100q0 -67 34 -97.5t108 -30.5q73 0 133 30v-119q-36 -16 -77.5 -23
t-91.5 -7z" />
    <glyph glyph-name="Dcaron" unicode="&#x10e;" horiz-adv-x="663" 
d="M251 698l-145 187h123l72 -104l75 104h120l-145 -187h-100zM51 0v644h279q98 0 165 -32.5t102 -104t35 -189.5q0 -166 -76.5 -242t-225.5 -76h-279zM212 124h96q52 0 87.5 15.5t54 57.5t18.5 121q0 80 -16.5 123.5t-52 61t-91.5 17.5h-96v-396z" />
    <glyph glyph-name="dcaron" unicode="&#x10f;" horiz-adv-x="756" 
d="M250 -10q-97 0 -158 58t-61 185q0 86 29.5 141.5t80.5 82.5t116 27q76 0 129 -32v222h161v-674h-139l-9 40q-29 -25 -65 -37.5t-84 -12.5zM594 461l33 213h129l-53 -213h-109zM296 107q53 0 90 36v192q-34 31 -87 31q-51 0 -77.5 -32t-26.5 -102q0 -68 25.5 -96.5
t75.5 -28.5z" />
    <glyph glyph-name="Dcroat" unicode="&#x110;" horiz-adv-x="697" 
d="M84 0v257h-73v117h73v270h279q98 0 165 -32.5t102 -104t35 -189.5q0 -166 -76.5 -242t-225.5 -76h-279zM245 124h96q52 0 87.5 15.5t54 57.5t18.5 121q0 80 -16.5 123.5t-52 61t-91.5 17.5h-96v-146h126v-117h-126v-133z" />
    <glyph glyph-name="dcroat" unicode="&#x111;" horiz-adv-x="599" 
d="M250 -10q-97 0 -158 58t-61 185q0 86 29.5 141.5t80.5 82.5t116 27q76 0 129 -32v69h-138v102h138v51h161v-51h41v-102h-41v-521h-139l-9 40q-29 -25 -65 -37.5t-84 -12.5zM296 107q53 0 90 36v192q-34 31 -87 31q-51 0 -77.5 -32t-26.5 -102q0 -68 25.5 -96.5
t75.5 -28.5z" />
    <glyph glyph-name="Emacron" unicode="&#x112;" horiz-adv-x="552" 
d="M121 723v97h318v-97h-318zM51 0v644h475v-124h-314v-135h277v-126h-277v-135h314v-124h-475z" />
    <glyph glyph-name="emacron" unicode="&#x113;" horiz-adv-x="547" 
d="M126 557v97h318v-97h-318zM305 -10q-124 0 -199 61.5t-75 185.5q0 113 62 180t186 67q113 0 175 -58t62 -156v-85h-336q11 -47 51.5 -65.5t110.5 -18.5q39 0 79.5 7t67.5 18v-105q-34 -16 -81 -23.5t-103 -7.5zM180 278h196v21q0 35 -21 55.5t-71 20.5q-58 0 -81 -23.5
t-23 -73.5z" />
    <glyph glyph-name="Ebreve" unicode="&#x114;" horiz-adv-x="552" 
d="M293 688q-77 0 -125 45t-48 127h106q0 -34 15.5 -58t51.5 -24q37 0 53 24t16 58h106q0 -82 -48.5 -127t-126.5 -45zM51 0v644h475v-124h-314v-135h277v-126h-277v-135h314v-124h-475z" />
    <glyph glyph-name="ebreve" unicode="&#x115;" horiz-adv-x="547" 
d="M284 522q-77 0 -125 45t-48 127h106q0 -34 15.5 -58t51.5 -24q37 0 53 24t16 58h106q0 -82 -48.5 -127t-126.5 -45zM305 -10q-124 0 -199 61.5t-75 185.5q0 113 62 180t186 67q113 0 175 -58t62 -156v-85h-336q11 -47 51.5 -65.5t110.5 -18.5q39 0 79.5 7t67.5 18v-105
q-34 -16 -81 -23.5t-103 -7.5zM180 278h196v21q0 35 -21 55.5t-71 20.5q-58 0 -81 -23.5t-23 -73.5z" />
    <glyph glyph-name="Edotaccent" unicode="&#x116;" horiz-adv-x="552" 
d="M229 714v109h117v-109h-117zM51 0v644h475v-124h-314v-135h277v-126h-277v-135h314v-124h-475z" />
    <glyph glyph-name="edotaccent" unicode="&#x117;" horiz-adv-x="547" 
d="M224 548v109h117v-109h-117zM305 -10q-124 0 -199 61.5t-75 185.5q0 113 62 180t186 67q113 0 175 -58t62 -156v-85h-336q11 -47 51.5 -65.5t110.5 -18.5q39 0 79.5 7t67.5 18v-105q-34 -16 -81 -23.5t-103 -7.5zM180 278h196v21q0 35 -21 55.5t-71 20.5q-58 0 -81 -23.5
t-23 -73.5z" />
    <glyph glyph-name="Eogonek" unicode="&#x118;" horiz-adv-x="552" 
d="M51 0v644h475v-124h-314v-135h277v-126h-277v-135h314v-124h-39q-28 -21 -45.5 -45.5t-17.5 -51.5q0 -20 12 -29t32 -9q13 0 27 3t23 8v-81q-14 -6 -40 -10.5t-54 -4.5q-51 0 -87 22.5t-36 71.5q0 38 19.5 71t53.5 55h-323z" />
    <glyph glyph-name="eogonek" unicode="&#x119;" horiz-adv-x="547" 
d="M353 -220q-51 0 -87 22.5t-36 71.5q0 34 16 64t44 52q-118 4 -188.5 65.5t-70.5 181.5q0 113 62 180t186 67q113 0 175 -58t62 -156v-85h-336q11 -47 51.5 -65.5t110.5 -18.5q39 0 79.5 7t67.5 18v-105q-32 -14 -75 -22q-27 -21 -44 -45t-17 -51q0 -20 12 -29t32 -9
q13 0 27 3t23 8v-81q-14 -6 -40 -10.5t-54 -4.5zM180 278h196v21q0 35 -21 55.5t-71 20.5q-58 0 -81 -23.5t-23 -73.5z" />
    <glyph glyph-name="Ecaron" unicode="&#x11a;" horiz-adv-x="552" 
d="M246 687l-145 187h123l72 -104l75 104h120l-145 -187h-100zM51 0v644h475v-124h-314v-135h277v-126h-277v-135h314v-124h-475z" />
    <glyph glyph-name="ecaron" unicode="&#x11b;" horiz-adv-x="547" 
d="M239 521l-145 187h123l72 -104l75 104h120l-145 -187h-100zM305 -10q-124 0 -199 61.5t-75 185.5q0 113 62 180t186 67q113 0 175 -58t62 -156v-85h-336q11 -47 51.5 -65.5t110.5 -18.5q39 0 79.5 7t67.5 18v-105q-34 -16 -81 -23.5t-103 -7.5zM180 278h196v21
q0 35 -21 55.5t-71 20.5q-58 0 -81 -23.5t-23 -73.5z" />
    <glyph glyph-name="Gcircumflex" unicode="&#x11c;" horiz-adv-x="647" 
d="M166 687l145 187h100l145 -187h-120l-75 104l-72 -104h-123zM372 -10q-167 0 -254 84.5t-87 238.5q0 161 89 251t262 90q59 0 106.5 -7t90.5 -21v-138q-43 16 -89.5 22t-95.5 6q-104 0 -151.5 -49.5t-47.5 -153.5q0 -95 45 -140.5t133 -45.5q58 0 108 16v122h-139v101
h274v-319q-34 -22 -94.5 -39.5t-149.5 -17.5z" />
    <glyph glyph-name="gcircumflex" unicode="&#x11d;" horiz-adv-x="563" 
d="M86 521l145 187h100l145 -187h-120l-75 104l-72 -104h-123zM255 -176q-35 0 -74 3t-74 9t-60 14v110q40 -13 96 -20t103 -7q61 0 91.5 6.5t30.5 22.5q0 14 -12 19t-47 5h-131q-64 0 -99.5 23t-35.5 67q0 30 18.5 57t54.5 40q-41 21 -62 53t-21 81q0 92 59.5 134.5
t174.5 42.5q24 0 53.5 -3.5t43.5 -6.5h182l-4 -100h-69q25 -25 25 -74q0 -69 -44.5 -111t-134.5 -42q-15 0 -29.5 1.5t-28.5 2.5q-26 -3 -44.5 -11t-18.5 -23q0 -12 9.5 -16t28.5 -4h121q73 0 113.5 -33.5t40.5 -97.5q0 -142 -256 -142zM268 236q53 0 73 18t20 60t-20.5 61
t-72.5 19q-49 0 -70.5 -18.5t-21.5 -61.5q0 -40 20 -59t72 -19z" />
    <glyph glyph-name="Gbreve" unicode="&#x11e;" horiz-adv-x="647" 
d="M372 688q-77 0 -125 45t-48 127h106q0 -34 15.5 -58t51.5 -24q37 0 53 24t16 58h106q0 -82 -48.5 -127t-126.5 -45zM372 -10q-167 0 -254 84.5t-87 238.5q0 161 89 251t262 90q59 0 106.5 -7t90.5 -21v-138q-43 16 -89.5 22t-95.5 6q-104 0 -151.5 -49.5t-47.5 -153.5
q0 -95 45 -140.5t133 -45.5q58 0 108 16v122h-139v101h274v-319q-34 -22 -94.5 -39.5t-149.5 -17.5z" />
    <glyph glyph-name="gbreve" unicode="&#x11f;" horiz-adv-x="563" 
d="M277 522q-77 0 -125 45t-48 127h106q0 -34 15.5 -58t51.5 -24q37 0 53 24t16 58h106q0 -82 -48.5 -127t-126.5 -45zM255 -176q-35 0 -74 3t-74 9t-60 14v110q40 -13 96 -20t103 -7q61 0 91.5 6.5t30.5 22.5q0 14 -12 19t-47 5h-131q-64 0 -99.5 23t-35.5 67q0 30 18.5 57
t54.5 40q-41 21 -62 53t-21 81q0 92 59.5 134.5t174.5 42.5q24 0 53.5 -3.5t43.5 -6.5h182l-4 -100h-69q25 -25 25 -74q0 -69 -44.5 -111t-134.5 -42q-15 0 -29.5 1.5t-28.5 2.5q-26 -3 -44.5 -11t-18.5 -23q0 -12 9.5 -16t28.5 -4h121q73 0 113.5 -33.5t40.5 -97.5
q0 -142 -256 -142zM268 236q53 0 73 18t20 60t-20.5 61t-72.5 19q-49 0 -70.5 -18.5t-21.5 -61.5q0 -40 20 -59t72 -19z" />
    <glyph glyph-name="Gdotaccent" unicode="&#x120;" horiz-adv-x="647" 
d="M321 714v109h117v-109h-117zM372 -10q-167 0 -254 84.5t-87 238.5q0 161 89 251t262 90q59 0 106.5 -7t90.5 -21v-138q-43 16 -89.5 22t-95.5 6q-104 0 -151.5 -49.5t-47.5 -153.5q0 -95 45 -140.5t133 -45.5q58 0 108 16v122h-139v101h274v-319q-34 -22 -94.5 -39.5
t-149.5 -17.5z" />
    <glyph glyph-name="gdotaccent" unicode="&#x121;" horiz-adv-x="563" 
d="M211 535v109h117v-109h-117zM255 -176q-35 0 -74 3t-74 9t-60 14v110q40 -13 96 -20t103 -7q61 0 91.5 6.5t30.5 22.5q0 14 -12 19t-47 5h-131q-64 0 -99.5 23t-35.5 67q0 30 18.5 57t54.5 40q-41 21 -62 53t-21 81q0 92 59.5 134.5t174.5 42.5q24 0 53.5 -3.5t43.5 -6.5
h182l-4 -100h-69q25 -25 25 -74q0 -69 -44.5 -111t-134.5 -42q-15 0 -29.5 1.5t-28.5 2.5q-26 -3 -44.5 -11t-18.5 -23q0 -12 9.5 -16t28.5 -4h121q73 0 113.5 -33.5t40.5 -97.5q0 -142 -256 -142zM268 236q53 0 73 18t20 60t-20.5 61t-72.5 19q-49 0 -70.5 -18.5
t-21.5 -61.5q0 -40 20 -59t72 -19z" />
    <glyph glyph-name="uni0122" unicode="&#x122;" horiz-adv-x="647" 
d="M372 -10q-167 0 -254 84.5t-87 238.5q0 161 89 251t262 90q59 0 106.5 -7t90.5 -21v-138q-43 16 -89.5 22t-95.5 6q-104 0 -151.5 -49.5t-47.5 -153.5q0 -95 45 -140.5t133 -45.5q58 0 108 16v122h-139v101h274v-319q-34 -22 -94.5 -39.5t-149.5 -17.5zM286 -250l33 213
h129l-53 -213h-109z" />
    <glyph glyph-name="uni0123" unicode="&#x123;" horiz-adv-x="563" 
d="M208 522l53 213h109l-33 -213h-129zM255 -176q-35 0 -74 3t-74 9t-60 14v110q40 -13 96 -20t103 -7q61 0 91.5 6.5t30.5 22.5q0 14 -12 19t-47 5h-131q-64 0 -99.5 23t-35.5 67q0 30 18.5 57t54.5 40q-41 21 -62 53t-21 81q0 92 59.5 134.5t174.5 42.5q24 0 53.5 -3.5
t43.5 -6.5h182l-4 -100h-69q25 -25 25 -74q0 -69 -44.5 -111t-134.5 -42q-15 0 -29.5 1.5t-28.5 2.5q-26 -3 -44.5 -11t-18.5 -23q0 -12 9.5 -16t28.5 -4h121q73 0 113.5 -33.5t40.5 -97.5q0 -142 -256 -142zM268 236q53 0 73 18t20 60t-20.5 61t-72.5 19q-49 0 -70.5 -18.5
t-21.5 -61.5q0 -40 20 -59t72 -19z" />
    <glyph glyph-name="Hcircumflex" unicode="&#x124;" horiz-adv-x="676" 
d="M142 687l145 187h100l145 -187h-120l-75 104l-72 -104h-123zM51 0v644h161v-255h252v255h161v-644h-161v255h-252v-255h-161z" />
    <glyph glyph-name="hcircumflex" unicode="&#x125;" horiz-adv-x="595" 
d="M54 706l145 187h100l145 -187h-120l-75 104l-72 -104h-123zM51 0v674h161v-235q27 20 67 32.5t86 12.5q95 0 139.5 -45t44.5 -138v-301h-161v290q0 41 -17 58t-61 17q-26 0 -53 -12t-45 -30v-323h-161z" />
    <glyph glyph-name="Hbar" unicode="&#x126;" horiz-adv-x="677" 
d="M51 0v454h-41v115h41v75h161v-75h252v75h161v-75h41v-115h-41v-454h-161v255h-252v-255h-161zM212 389h252v65h-252v-65z" />
    <glyph glyph-name="hbar" unicode="&#x127;" horiz-adv-x="595" 
d="M51 0v523h-45v101h45v50h161v-50h123v-101h-123v-84q27 20 67 32.5t86 12.5q95 0 139.5 -45t44.5 -138v-301h-162v290q0 41 -16.5 58t-60.5 17q-26 0 -53 -12t-45 -30v-323h-161z" />
    <glyph glyph-name="Itilde" unicode="&#x128;" horiz-adv-x="264" 
d="M222 705q-31 0 -60.5 10.5t-57 20.5t-53.5 10q-29 0 -52.5 -10t-41.5 -28v107q14 14 38.5 23t52.5 9q32 0 60 -10t55 -20.5t56 -10.5q30 0 52 10.5t35 28.5v-108q-10 -13 -32.5 -22.5t-51.5 -9.5zM51 0v644h161v-644h-161z" />
    <glyph glyph-name="itilde" unicode="&#x129;" horiz-adv-x="334" 
d="M257 538q-31 0 -60.5 10.5t-57 20.5t-53.5 10q-29 0 -52.5 -10t-41.5 -28v107q14 14 38.5 23t52.5 9q32 0 60 -10t55 -20.5t56 -10.5q30 0 52 10.5t35 28.5v-108q-10 -13 -32.5 -22.5t-51.5 -9.5zM121 0v355h-70l14 119h217v-474h-161z" />
    <glyph glyph-name="Imacron" unicode="&#x12a;" horiz-adv-x="264" 
d="M-27 723v97h318v-97h-318zM51 0v644h161v-644h-161z" />
    <glyph glyph-name="imacron" unicode="&#x12b;" horiz-adv-x="334" 
d="M9 574v97h318v-97h-318zM121 0v355h-70l14 119h217v-474h-161z" />
    <glyph glyph-name="Ibreve" unicode="&#x12c;" horiz-adv-x="264" 
d="M131 705q-77 0 -125 45t-48 127h106q0 -34 15.5 -58t51.5 -24q37 0 53 24t16 58h106q0 -82 -48.5 -127t-126.5 -45zM51 0v644h161v-644h-161z" />
    <glyph glyph-name="ibreve" unicode="&#x12d;" horiz-adv-x="334" 
d="M170 522q-77 0 -125 45t-48 127h106q0 -34 15.5 -58t51.5 -24q37 0 53 24t16 58h106q0 -82 -48.5 -127t-126.5 -45zM121 0v355h-70l14 119h217v-474h-161z" />
    <glyph glyph-name="Iogonek" unicode="&#x12e;" horiz-adv-x="264" 
d="M51 0v644h161v-644h-22q-28 -21 -45.5 -45.5t-17.5 -51.5q0 -20 12 -29t32 -9q13 0 27 3t23 8v-81q-14 -6 -40 -10.5t-54 -4.5q-51 0 -87 22.5t-36 71.5q0 38 19.5 71t53.5 55h-26z" />
    <glyph glyph-name="iogonek" unicode="&#x12f;" horiz-adv-x="309" 
d="M83 549v121h175v-121h-175zM96 0v355h-70l14 119h217v-474h-22q-28 -21 -45.5 -45.5t-17.5 -51.5q0 -20 12 -29t32 -9q13 0 27 3t23 8v-81q-14 -6 -40 -10.5t-54 -4.5q-51 0 -87 22.5t-36 71.5q0 38 19.5 71t53.5 55h-26z" />
    <glyph glyph-name="Idotaccent" unicode="&#x130;" horiz-adv-x="263" 
d="M73 720v109h117v-109h-117zM51 0v644h161v-644h-161z" />
    <glyph glyph-name="dotlessi" unicode="&#x131;" horiz-adv-x="309" 
d="M96 0v355h-70l14 119h217v-474h-161z" />
    <glyph glyph-name="IJ" unicode="&#x132;" horiz-adv-x="696" 
d="M413 -10q-41 0 -78.5 5.5t-69.5 17.5v135q24 -10 54 -15.5t61 -5.5q59 0 83.5 23.5t24.5 78.5v415h161v-445q0 -101 -60 -155t-176 -54zM51 0v644h161v-644h-161z" />
    <glyph glyph-name="ij" unicode="&#x133;" horiz-adv-x="578" 
d="M83 549v121h175v-121h-175zM352 549v121h175v-121h-175zM354 -234q-71 0 -118 20v109q30 -10 60 -10q70 0 70 60v410h-70l14 119h217v-543q0 -73 -42 -119t-131 -46zM96 0v355h-70l14 119h217v-474h-161z" />
    <glyph glyph-name="Jcircumflex" unicode="&#x134;" horiz-adv-x="441" 
d="M114 687l145 187h100l145 -187h-120l-75 104l-72 -104h-123zM159 -10q-41 0 -78.5 5.5t-69.5 17.5v135q24 -10 54 -15.5t61 -5.5q59 0 83.5 23.5t24.5 78.5v415h161v-445q0 -101 -60 -155t-176 -54z" />
    <glyph glyph-name="jcircumflex" unicode="&#x135;" horiz-adv-x="332" 
d="M-14 521l145 187h100l145 -187h-120l-75 104l-72 -104h-123zM108 -234q-71 0 -118 20v109q30 -10 60 -10q70 0 70 60v410h-70l14 119h217v-543q0 -73 -42 -119t-131 -46z" />
    <glyph glyph-name="uni0136" unicode="&#x136;" horiz-adv-x="663" 
d="M51 0v644h161v-250l222 250h184l-230 -263l244 -381h-172l-172 278l-76 -83v-195h-161zM239 -250l33 213h129l-53 -213h-109z" />
    <glyph glyph-name="uni0137" unicode="&#x137;" horiz-adv-x="592" 
d="M51 0v674h161v-352l155 152h183l-190 -197l201 -277h-171l-131 192l-47 -46v-146h-161zM187 -250l33 213h129l-53 -213h-109z" />
    <glyph glyph-name="kgreenlandic" unicode="&#x138;" horiz-adv-x="592" 
d="M51 0v474h161v-167l155 167h183l-190 -209l201 -265h-171l-130 180l-48 -50v-130h-161z" />
    <glyph glyph-name="Lacute" unicode="&#x139;" horiz-adv-x="527" 
d="M68 688l84 196h132l-92 -196h-124zM51 0v644h161v-520h304v-124h-465z" />
    <glyph glyph-name="lacute" unicode="&#x13a;" horiz-adv-x="308" 
d="M69 741l84 196h132l-92 -196h-124zM197 -10q-78 0 -112 34t-34 109v541h161v-525q0 -23 9.5 -31.5t28.5 -8.5q27 0 48 7v-109q-23 -9 -45.5 -13t-55.5 -4z" />
    <glyph glyph-name="uni013B" unicode="&#x13b;" horiz-adv-x="527" 
d="M51 0v644h161v-520h304v-124h-465zM202 -250l33 213h129l-53 -213h-109z" />
    <glyph glyph-name="uni013C" unicode="&#x13c;" horiz-adv-x="308" 
d="M197 -10q-78 0 -112 34t-34 109v541h161v-525q0 -23 9.5 -31.5t28.5 -8.5q27 0 48 7v-109q-23 -9 -45.5 -13t-55.5 -4zM96 -250l33 213h129l-53 -213h-109z" />
    <glyph glyph-name="Lcaron" unicode="&#x13d;" horiz-adv-x="527" 
d="M51 0v644h161v-520h304v-124h-465zM306 431l33 213h129l-53 -213h-109z" />
    <glyph glyph-name="lcaron" unicode="&#x13e;" horiz-adv-x="426" 
d="M197 -10q-78 0 -112 34t-34 109v541h161v-525q0 -23 9.5 -31.5t28.5 -8.5q27 0 48 7v-109q-23 -9 -45.5 -13t-55.5 -4zM264 461l33 213h129l-53 -213h-109z" />
    <glyph glyph-name="Ldot" unicode="&#x13f;" horiz-adv-x="527" 
d="M51 0v644h161v-520h304v-124h-465zM336 284v109h118v-109h-118z" />
    <glyph glyph-name="ldot" unicode="&#x140;" horiz-adv-x="407" 
d="M197 -10q-78 0 -112 34t-34 109v541h161v-525q0 -23 9.5 -31.5t28.5 -8.5q27 0 48 7v-109q-23 -9 -45.5 -13t-55.5 -4zM284 288v109h118v-109h-118z" />
    <glyph glyph-name="Lslash" unicode="&#x141;" horiz-adv-x="527" 
d="M51 0v249l-78 -34v115l78 34v280h161v-210l106 47v-115l-106 -47v-195h304v-124h-465z" />
    <glyph glyph-name="lslash" unicode="&#x142;" horiz-adv-x="308" 
d="M197 -10q-78 0 -112 34t-34 109v125l-82 -36v115l82 36v301h161v-231l84 37v-115l-84 -37v-179q0 -23 9.5 -31.5t28.5 -8.5q27 0 48 7v-109q-23 -9 -45.5 -13t-55.5 -4z" />
    <glyph glyph-name="Nacute" unicode="&#x143;" horiz-adv-x="676" 
d="M259 688l84 196h132l-92 -196h-124zM51 0v644h138l274 -385v385h162v-644h-139l-274 384v-384h-161z" />
    <glyph glyph-name="nacute" unicode="&#x144;" horiz-adv-x="595" 
d="M213 522l84 196h132l-92 -196h-124zM51 0v474h150l5 -41q29 20 73 35.5t94 15.5q92 0 134 -44t42 -136v-304h-161v291q0 40 -17 57t-61 17q-26 0 -53 -12t-45 -30v-323h-161z" />
    <glyph glyph-name="uni0145" unicode="&#x145;" horiz-adv-x="676" 
d="M51 0v644h138l274 -385v385h162v-644h-139l-274 384v-384h-161zM250 -250l33 213h129l-53 -213h-109z" />
    <glyph glyph-name="uni0146" unicode="&#x146;" horiz-adv-x="595" 
d="M51 0v474h150l5 -41q29 20 73 35.5t94 15.5q92 0 134 -44t42 -136v-304h-161v291q0 40 -17 57t-61 17q-26 0 -53 -12t-45 -30v-323h-161zM213 -250l33 213h129l-53 -213h-109z" />
    <glyph glyph-name="Ncaron" unicode="&#x147;" horiz-adv-x="676" 
d="M288 687l-145 187h123l72 -104l75 104h120l-145 -187h-100zM51 0v644h138l274 -385v385h162v-644h-139l-274 384v-384h-161z" />
    <glyph glyph-name="ncaron" unicode="&#x148;" horiz-adv-x="595" 
d="M236 521l-145 187h123l72 -104l75 104h120l-145 -187h-100zM51 0v474h150l5 -41q29 20 73 35.5t94 15.5q92 0 134 -44t42 -136v-304h-161v291q0 40 -17 57t-61 17q-26 0 -53 -12t-45 -30v-323h-161z" />
    <glyph glyph-name="napostrophe" unicode="&#x149;" horiz-adv-x="691" 
d="M-20 431l33 213h129l-53 -213h-109zM147 0v474h150l5 -41q29 20 73 35.5t94 15.5q92 0 134 -44t42 -136v-304h-161v291q0 40 -17 57t-61 17q-26 0 -53 -12t-45 -30v-323h-161z" />
    <glyph glyph-name="Eng" unicode="&#x14a;" horiz-adv-x="676" 
d="M451 -234q-71 0 -118 20v107q16 -5 31.5 -7.5t28.5 -2.5q37 0 53.5 15.5t16.5 46.5v87l-251 352v-384h-161v644h138l274 -385v385h162v-713q0 -73 -42.5 -119t-131.5 -46z" />
    <glyph glyph-name="eng" unicode="&#x14b;" horiz-adv-x="595" 
d="M375 -234q-71 0 -118 20v107q16 -5 31.5 -7.5t28.5 -2.5q37 0 53.5 15.5t16.5 46.5v346q0 40 -16.5 57t-60.5 17q-26 0 -53 -12t-45 -30v-323h-161v474h150l5 -41q29 20 73 35.5t94 15.5q92 0 134 -44t42 -136v-373q0 -73 -42.5 -119t-131.5 -46z" />
    <glyph glyph-name="Omacron" unicode="&#x14c;" horiz-adv-x="704" 
d="M190 724v97h318v-97h-318zM352 -10q-157 0 -239 80t-82 249q0 179 82 257t239 78t239 -78t82 -257q0 -169 -82 -249t-239 -80zM352 127q81 0 118.5 46.5t37.5 145.5q0 108 -37.5 152.5t-118.5 44.5q-82 0 -119.5 -44.5t-37.5 -152.5q0 -99 37.5 -145.5t119.5 -46.5z" />
    <glyph glyph-name="omacron" unicode="&#x14d;" horiz-adv-x="597" 
d="M136 557v97h318v-97h-318zM298 -10q-137 0 -202 63.5t-65 183.5q0 119 65.5 183t201.5 64q137 0 202.5 -64t65.5 -183q0 -120 -65 -183.5t-203 -63.5zM298 116q56 0 80 28t24 93t-24 93t-80 28q-55 0 -79 -28t-24 -93t24 -93t79 -28z" />
    <glyph glyph-name="Obreve" unicode="&#x14e;" horiz-adv-x="704" 
d="M351 688q-77 0 -125 45t-48 127h106q0 -34 15.5 -58t51.5 -24q37 0 53 24t16 58h106q0 -82 -48.5 -127t-126.5 -45zM352 -10q-157 0 -239 80t-82 249q0 179 82 257t239 78t239 -78t82 -257q0 -169 -82 -249t-239 -80zM352 127q81 0 118.5 46.5t37.5 145.5
q0 108 -37.5 152.5t-118.5 44.5q-82 0 -119.5 -44.5t-37.5 -152.5q0 -99 37.5 -145.5t119.5 -46.5z" />
    <glyph glyph-name="obreve" unicode="&#x14f;" horiz-adv-x="597" 
d="M298 522q-77 0 -125 45t-48 127h106q0 -34 15.5 -58t51.5 -24q37 0 53 24t16 58h106q0 -82 -48.5 -127t-126.5 -45zM298 -10q-137 0 -202 63.5t-65 183.5q0 119 65.5 183t201.5 64q137 0 202.5 -64t65.5 -183q0 -120 -65 -183.5t-203 -63.5zM298 116q56 0 80 28t24 93
t-24 93t-80 28q-55 0 -79 -28t-24 -93t24 -93t79 -28z" />
    <glyph glyph-name="Ohungarumlaut" unicode="&#x150;" horiz-adv-x="704" 
d="M148 688l82 180h139l-97 -180h-124zM379 688l82 180h139l-97 -180h-124zM352 -10q-157 0 -239 80t-82 249q0 179 82 257t239 78t239 -78t82 -257q0 -169 -82 -249t-239 -80zM352 127q81 0 118.5 46.5t37.5 145.5q0 108 -37.5 152.5t-118.5 44.5q-82 0 -119.5 -44.5
t-37.5 -152.5q0 -99 37.5 -145.5t119.5 -46.5z" />
    <glyph glyph-name="ohungarumlaut" unicode="&#x151;" horiz-adv-x="597" 
d="M102 521l82 180h139l-97 -180h-124zM333 521l82 180h139l-97 -180h-124zM298 -10q-137 0 -202 63.5t-65 183.5q0 119 65.5 183t201.5 64q137 0 202.5 -64t65.5 -183q0 -120 -65 -183.5t-203 -63.5zM298 116q56 0 80 28t24 93t-24 93t-80 28q-55 0 -79 -28t-24 -93t24 -93
t79 -28z" />
    <glyph glyph-name="OE" unicode="&#x152;" horiz-adv-x="1015" 
d="M352 -10q-157 0 -239 80t-82 249q0 179 82 257t239 78q92 0 157 -26v16h475v-124h-314v-135h277v-126h-277v-1v-134h314v-124h-475v16q-65 -26 -157 -26zM352 127q81 0 118.5 46.5t37.5 145.5q0 108 -37.5 152.5t-118.5 44.5q-82 0 -119.5 -44.5t-37.5 -152.5
q0 -99 37.5 -145.5t119.5 -46.5z" />
    <glyph glyph-name="oe" unicode="&#x153;" horiz-adv-x="931" 
d="M298 -10q-137 0 -202 63.5t-65 183.5q0 119 65.5 183t201.5 64q125 0 192 -55q31 27 74 41t99 14q113 0 175 -58t62 -156v-85h-336q11 -47 51.5 -65.5t110.5 -18.5q39 0 79.5 7t67.5 18v-105q-34 -16 -81 -23.5t-103 -7.5q-123 0 -194 58q-67 -58 -197 -58zM564 278h196
v21q0 35 -21 55.5t-71 20.5q-58 0 -81 -23.5t-23 -73.5zM298 116q56 0 80 28t24 93t-24 93t-80 28q-55 0 -79 -28t-24 -93t24 -93t79 -28z" />
    <glyph glyph-name="Racute" unicode="&#x154;" horiz-adv-x="626" 
d="M207 688l84 196h132l-92 -196h-124zM51 0v644h322q114 0 168 -60t54 -161q0 -65 -33 -114t-90 -73q14 -11 22.5 -24.5t18.5 -37.5l76 -174h-168l-72 164q-9 21 -23 30.5t-40 9.5h-74v-204h-161zM212 328h119q47 0 73.5 23.5t26.5 71.5q0 97 -93 97h-126v-192z" />
    <glyph glyph-name="racute" unicode="&#x155;" horiz-adv-x="389" 
d="M81 522l84 196h132l-92 -196h-124zM51 0v474h153l5 -44q31 19 77 34.5t92 19.5v-121q-26 -3 -57.5 -9.5t-60 -15.5t-48.5 -19v-319h-161z" />
    <glyph glyph-name="uni0156" unicode="&#x156;" horiz-adv-x="626" 
d="M51 0v644h322q114 0 168 -60t54 -161q0 -65 -33 -114t-90 -73q14 -11 22.5 -24.5t18.5 -37.5l76 -174h-168l-72 164q-9 21 -23 30.5t-40 9.5h-74v-204h-161zM212 328h119q47 0 73.5 23.5t26.5 71.5q0 97 -93 97h-126v-192zM207 -250l33 213h129l-53 -213h-109z" />
    <glyph glyph-name="uni0157" unicode="&#x157;" horiz-adv-x="389" 
d="M51 0v474h153l5 -44q31 19 77 34.5t92 19.5v-121q-26 -3 -57.5 -9.5t-60 -15.5t-48.5 -19v-319h-161zM34 -250l33 213h129l-53 -213h-109z" />
    <glyph glyph-name="Rcaron" unicode="&#x158;" horiz-adv-x="626" 
d="M233 688l-145 187h123l72 -104l75 104h120l-145 -187h-100zM51 0v644h322q114 0 168 -60t54 -161q0 -65 -33 -114t-90 -73q14 -11 22.5 -24.5t18.5 -37.5l76 -174h-168l-72 164q-9 21 -23 30.5t-40 9.5h-74v-204h-161zM212 328h119q47 0 73.5 23.5t26.5 71.5q0 97 -93 97
h-126v-192z" />
    <glyph glyph-name="rcaron" unicode="&#x159;" horiz-adv-x="389" 
d="M158 521l-145 187h123l72 -104l75 104h120l-145 -187h-100zM51 0v474h153l5 -44q31 19 77 34.5t92 19.5v-121q-26 -3 -57.5 -9.5t-60 -15.5t-48.5 -19v-319h-161z" />
    <glyph glyph-name="Sacute" unicode="&#x15a;" horiz-adv-x="555" 
d="M202 689l84 196h132l-92 -196h-124zM256 -10q-64 0 -119.5 9.5t-95.5 27.5v137q44 -19 97.5 -31t101.5 -12q60 0 89.5 11t29.5 48q0 25 -14.5 40t-47 26.5t-88.5 27.5q-66 20 -105 44.5t-56 59.5t-17 86q0 92 66 141t195 49q56 0 109 -8.5t86 -19.5v-138q-43 17 -86.5 25
t-84.5 8q-54 0 -87.5 -10t-33.5 -46q0 -21 12 -33.5t41.5 -22.5t80.5 -24q79 -21 121 -50.5t58 -68t16 -86.5q0 -85 -66 -137.5t-202 -52.5z" />
    <glyph glyph-name="sacute" unicode="&#x15b;" horiz-adv-x="479" 
d="M162 522l84 196h132l-92 -196h-124zM227 -10q-57 0 -108 8t-81 20v123q35 -15 81 -23t82 -8q43 0 62.5 4t19.5 22q0 20 -32 30t-88 29q-65 23 -98.5 53.5t-33.5 90.5q0 70 52.5 107.5t167.5 37.5q45 0 89 -7t72 -16v-121q-28 13 -64 19t-65 6q-37 0 -62.5 -4.5
t-25.5 -21.5q0 -19 28 -26.5t81 -24.5q56 -17 87 -36.5t44 -46.5t13 -68q0 -71 -56 -109t-165 -38z" />
    <glyph glyph-name="Scircumflex" unicode="&#x15c;" horiz-adv-x="555" 
d="M71 689l145 187h100l145 -187h-120l-75 104l-72 -104h-123zM256 -10q-64 0 -119.5 9.5t-95.5 27.5v137q44 -19 97.5 -31t101.5 -12q60 0 89.5 11t29.5 48q0 25 -14.5 40t-47 26.5t-88.5 27.5q-66 20 -105 44.5t-56 59.5t-17 86q0 92 66 141t195 49q56 0 109 -8.5
t86 -19.5v-138q-43 17 -86.5 25t-84.5 8q-54 0 -87.5 -10t-33.5 -46q0 -21 12 -33.5t41.5 -22.5t80.5 -24q79 -21 121 -50.5t58 -68t16 -86.5q0 -85 -66 -137.5t-202 -52.5z" />
    <glyph glyph-name="scircumflex" unicode="&#x15d;" horiz-adv-x="479" 
d="M42 522l145 187h100l145 -187h-120l-75 104l-72 -104h-123zM227 -10q-57 0 -108 8t-81 20v123q35 -15 81 -23t82 -8q43 0 62.5 4t19.5 22q0 20 -32 30t-88 29q-65 23 -98.5 53.5t-33.5 90.5q0 70 52.5 107.5t167.5 37.5q45 0 89 -7t72 -16v-121q-28 13 -64 19t-65 6
q-37 0 -62.5 -4.5t-25.5 -21.5q0 -19 28 -26.5t81 -24.5q56 -17 87 -36.5t44 -46.5t13 -68q0 -71 -56 -109t-165 -38z" />
    <glyph glyph-name="Scedilla" unicode="&#x15e;" horiz-adv-x="555" 
d="M253 -240q-17 0 -42.5 2.5t-36.5 5.5v71q29 -8 60 -8q41 0 58.5 6.5t17.5 28.5q0 23 -18 28.5t-47 5.5h-54l26 91q-52 2 -97 11.5t-79 24.5v137q44 -19 97.5 -31t101.5 -12q60 0 89.5 11t29.5 48q0 25 -14.5 40t-47 26.5t-88.5 27.5q-66 20 -105 44.5t-56 59.5t-17 86
q0 92 66 141t195 49q56 0 109 -8.5t86 -19.5v-138q-43 17 -86.5 25t-84.5 8q-54 0 -87.5 -10t-33.5 -46q0 -21 12 -33.5t41.5 -22.5t80.5 -24q79 -21 121 -50.5t58 -68t16 -86.5q0 -76 -52 -126t-158 -61l-13 -36q56 0 82.5 -25.5t26.5 -67.5q0 -49 -38.5 -76.5
t-118.5 -27.5z" />
    <glyph glyph-name="scedilla" unicode="&#x15f;" horiz-adv-x="479" 
d="M218 -240q-17 0 -42.5 2.5t-36.5 5.5v71q29 -8 60 -8q41 0 58.5 6.5t17.5 28.5q0 23 -18 28.5t-47 5.5h-54l26 91q-44 3 -82 10t-62 17v123q35 -15 81 -23t82 -8q43 0 62.5 4t19.5 22q0 20 -32 30t-88 29q-65 23 -98.5 53.5t-33.5 90.5q0 70 52.5 107.5t167.5 37.5
q45 0 89 -7t72 -16v-121q-28 13 -64 19t-65 6q-37 0 -62.5 -4.5t-25.5 -21.5q0 -19 28 -26.5t81 -24.5q56 -17 87 -36.5t44 -46.5t13 -68q0 -127 -170 -145l-12 -35q56 0 82.5 -25.5t26.5 -67.5q0 -49 -38.5 -76.5t-118.5 -27.5z" />
    <glyph glyph-name="Scaron" unicode="&#x160;" horiz-adv-x="555" 
d="M226 688l-145 187h123l72 -104l75 104h120l-145 -187h-100zM256 -10q-64 0 -119.5 9.5t-95.5 27.5v137q44 -19 97.5 -31t101.5 -12q60 0 89.5 11t29.5 48q0 25 -14.5 40t-47 26.5t-88.5 27.5q-66 20 -105 44.5t-56 59.5t-17 86q0 92 66 141t195 49q56 0 109 -8.5
t86 -19.5v-138q-43 17 -86.5 25t-84.5 8q-54 0 -87.5 -10t-33.5 -46q0 -21 12 -33.5t41.5 -22.5t80.5 -24q79 -21 121 -50.5t58 -68t16 -86.5q0 -85 -66 -137.5t-202 -52.5z" />
    <glyph glyph-name="scaron" unicode="&#x161;" horiz-adv-x="479" 
d="M196 521l-145 187h123l72 -104l75 104h120l-145 -187h-100zM227 -10q-57 0 -108 8t-81 20v123q35 -15 81 -23t82 -8q43 0 62.5 4t19.5 22q0 20 -32 30t-88 29q-65 23 -98.5 53.5t-33.5 90.5q0 70 52.5 107.5t167.5 37.5q45 0 89 -7t72 -16v-121q-28 13 -64 19t-65 6
q-37 0 -62.5 -4.5t-25.5 -21.5q0 -19 28 -26.5t81 -24.5q56 -17 87 -36.5t44 -46.5t13 -68q0 -71 -56 -109t-165 -38z" />
    <glyph glyph-name="uni0162" unicode="&#x162;" horiz-adv-x="561" 
d="M200 0v520h-189v124h539v-124h-189v-520h-34l-15 -43q56 0 82.5 -25.5t26.5 -67.5q0 -49 -38.5 -76.5t-118.5 -27.5q-17 0 -42.5 2.5t-36.5 5.5v71q29 -8 60 -8q41 0 58.5 6.5t17.5 28.5q0 23 -18 28.5t-47 5.5h-54l29 100h-31z" />
    <glyph glyph-name="uni0163" unicode="&#x163;" horiz-adv-x="389" 
d="M229 -240q-17 0 -42.5 2.5t-36.5 5.5v71q29 -8 60 -8q41 0 58.5 6.5t17.5 28.5q0 23 -18 28.5t-47 5.5h-54l27 95q-61 12 -90 55t-29 109v193h-64v122h64v99l161 43v-142h115l-7 -122h-108v-182q0 -34 17 -47.5t51 -13.5q29 0 59 10v-109q-33 -14 -74 -18l-12 -35
q56 0 82.5 -25.5t26.5 -67.5q0 -49 -38.5 -76.5t-118.5 -27.5z" />
    <glyph glyph-name="Tcaron" unicode="&#x164;" horiz-adv-x="561" 
d="M230 688l-145 187h123l72 -104l75 104h120l-145 -187h-100zM200 0v520h-189v124h539v-124h-189v-520h-161z" />
    <glyph glyph-name="tcaron" unicode="&#x165;" horiz-adv-x="385" 
d="M328 558l33 213h129l-53 -213h-109zM246 -10q-88 0 -129.5 45t-41.5 124v193h-64v122h64v99l161 43v-142h115l-7 -122h-108v-182q0 -34 17 -47.5t51 -13.5q29 0 59 10v-109q-47 -20 -117 -20z" />
    <glyph glyph-name="Tbar" unicode="&#x166;" horiz-adv-x="561" 
d="M200 0v279h-109v113h109v128h-189v124h539v-124h-189v-128h106v-113h-106v-279h-161z" />
    <glyph glyph-name="tbar" unicode="&#x167;" horiz-adv-x="374" 
d="M246 -10q-88 0 -129.5 45t-41.5 124v32h-64v99h64v62h-64v122h64v99l162 43v-142h114l-7 -122h-107v-62h115v-99h-115v-21q0 -34 16.5 -47.5t50.5 -13.5q29 0 59 10v-109q-47 -20 -117 -20z" />
    <glyph glyph-name="Utilde" unicode="&#x168;" horiz-adv-x="684" 
d="M432 698q-31 0 -60.5 10.5t-57 20.5t-53.5 10q-29 0 -52.5 -10t-41.5 -28v107q14 14 38.5 23t52.5 9q32 0 60 -10t55 -20.5t56 -10.5q30 0 52 10.5t35 28.5v-108q-10 -13 -32.5 -22.5t-51.5 -9.5zM342 -10q-90 0 -156.5 29t-103 86t-36.5 140v399h161v-384q0 -67 35 -100
t100 -33t100 33t35 100v384h161v-399q0 -83 -36.5 -140t-103 -86t-156.5 -29z" />
    <glyph glyph-name="utilde" unicode="&#x169;" horiz-adv-x="595" 
d="M388 532q-31 0 -60.5 10.5t-57 20.5t-53.5 10q-29 0 -52.5 -10t-41.5 -28v107q14 14 38.5 23t52.5 9q32 0 60 -10t55 -20.5t56 -10.5q30 0 52 10.5t35 28.5v-108q-10 -13 -32.5 -22.5t-51.5 -9.5zM224 -10q-84 0 -131 47.5t-47 138.5v298h161v-289q0 -40 19.5 -58.5
t58.5 -18.5q29 0 55 12t43 30v324h161v-474h-150l-5 40q-29 -22 -70 -36t-95 -14z" />
    <glyph glyph-name="Umacron" unicode="&#x16a;" horiz-adv-x="684" 
d="M182 723v97h318v-97h-318zM342 -10q-90 0 -156.5 29t-103 86t-36.5 140v399h161v-384q0 -67 35 -100t100 -33t100 33t35 100v384h161v-399q0 -83 -36.5 -140t-103 -86t-156.5 -29z" />
    <glyph glyph-name="umacron" unicode="&#x16b;" horiz-adv-x="595" 
d="M138 557v97h318v-97h-318zM224 -10q-84 0 -131 47.5t-47 138.5v298h161v-289q0 -40 19.5 -58.5t58.5 -18.5q29 0 55 12t43 30v324h161v-474h-150l-5 40q-29 -22 -70 -36t-95 -14z" />
    <glyph glyph-name="Ubreve" unicode="&#x16c;" horiz-adv-x="684" 
d="M338 688q-77 0 -125 45t-48 127h106q0 -34 15.5 -58t51.5 -24q37 0 53 24t16 58h106q0 -82 -48.5 -127t-126.5 -45zM342 -10q-90 0 -156.5 29t-103 86t-36.5 140v399h161v-384q0 -67 35 -100t100 -33t100 33t35 100v384h161v-399q0 -83 -36.5 -140t-103 -86t-156.5 -29z
" />
    <glyph glyph-name="ubreve" unicode="&#x16d;" horiz-adv-x="595" 
d="M299 522q-77 0 -125 45t-48 127h106q0 -34 15.5 -58t51.5 -24q37 0 53 24t16 58h106q0 -82 -48.5 -127t-126.5 -45zM224 -10q-84 0 -131 47.5t-47 138.5v298h161v-289q0 -40 19.5 -58.5t58.5 -18.5q29 0 55 12t43 30v324h161v-474h-150l-5 40q-29 -22 -70 -36t-95 -14z
" />
    <glyph glyph-name="Uring" unicode="&#x16e;" horiz-adv-x="684" 
d="M341 687q-61 0 -96 36.5t-35 88.5q0 53 35 89.5t96 36.5q63 0 97.5 -36.5t34.5 -89.5q0 -52 -34.5 -88.5t-97.5 -36.5zM341 757q28 0 43 16t15 39t-15 39.5t-43 16.5q-26 0 -41.5 -16.5t-15.5 -39.5t15.5 -39t41.5 -16zM342 -10q-90 0 -156.5 29t-103 86t-36.5 140v399
h161v-384q0 -67 35 -100t100 -33t100 33t35 100v384h161v-399q0 -83 -36.5 -140t-103 -86t-156.5 -29z" />
    <glyph glyph-name="uring" unicode="&#x16f;" horiz-adv-x="595" 
d="M295 521q-61 0 -96 36.5t-35 88.5q0 53 35 89.5t96 36.5q63 0 97.5 -36.5t34.5 -89.5q0 -52 -34.5 -88.5t-97.5 -36.5zM295 591q28 0 43 16t15 39t-15 39.5t-43 16.5q-26 0 -41.5 -16.5t-15.5 -39.5t15.5 -39t41.5 -16zM224 -10q-84 0 -131 47.5t-47 138.5v298h161v-289
q0 -40 19.5 -58.5t58.5 -18.5q29 0 55 12t43 30v324h161v-474h-150l-5 40q-29 -22 -70 -36t-95 -14z" />
    <glyph glyph-name="Uhungarumlaut" unicode="&#x170;" horiz-adv-x="684" 
d="M142 687l82 180h139l-97 -180h-124zM373 687l82 180h139l-97 -180h-124zM342 -10q-90 0 -156.5 29t-103 86t-36.5 140v399h161v-384q0 -67 35 -100t100 -33t100 33t35 100v384h161v-399q0 -83 -36.5 -140t-103 -86t-156.5 -29z" />
    <glyph glyph-name="uhungarumlaut" unicode="&#x171;" horiz-adv-x="595" 
d="M83 521l82 180h139l-97 -180h-124zM314 521l82 180h139l-97 -180h-124zM224 -10q-84 0 -131 47.5t-47 138.5v298h161v-289q0 -40 19.5 -58.5t58.5 -18.5q29 0 55 12t43 30v324h161v-474h-150l-5 40q-29 -22 -70 -36t-95 -14z" />
    <glyph glyph-name="Uogonek" unicode="&#x172;" horiz-adv-x="684" 
d="M365 -220q-51 0 -87 22.5t-36 71.5q0 34 16.5 64.5t44.5 52.5q-117 10 -187 74.5t-70 179.5v399h161v-384q0 -67 35 -100t100 -33t100 33t35 100v384h161v-399q0 -104 -57.5 -167t-156.5 -81q-26 -20 -42.5 -44t-16.5 -50q0 -20 12 -29t32 -9q13 0 27 3t23 8v-81
q-14 -6 -40 -10.5t-54 -4.5z" />
    <glyph glyph-name="uogonek" unicode="&#x173;" horiz-adv-x="595" 
d="M224 -10q-84 0 -131 47.5t-47 138.5v298h161v-289q0 -40 19.5 -58.5t58.5 -18.5q29 0 55 12t43 30v324h161v-474h-37q-28 -21 -45.5 -45.5t-17.5 -51.5q0 -20 12 -29t32 -9q13 0 27 3t23 8v-81q-14 -6 -40 -10.5t-54 -4.5q-51 0 -87 22.5t-36 71.5q0 38 19.5 71t53.5 55
l-5 40q-29 -22 -70 -36t-95 -14z" />
    <glyph glyph-name="Wcircumflex" unicode="&#x174;" horiz-adv-x="883" 
d="M251 688l145 187h100l145 -187h-120l-75 104l-72 -104h-123zM181 0l-150 644h158l85 -388l88 297v91h132l111 -389l89 389h158l-149 -644h-149l-108 372l-116 -372h-149z" />
    <glyph glyph-name="wcircumflex" unicode="&#x175;" horiz-adv-x="770" 
d="M192 521l145 187h100l145 -187h-120l-75 104l-72 -104h-123zM156 0l-125 474h158l64 -272l67 207v65h121l78 -272l62 272h158l-125 -474h-146l-81 246l-83 -246h-148z" />
    <glyph glyph-name="Ycircumflex" unicode="&#x176;" horiz-adv-x="686" 
d="M148 688l145 187h100l145 -187h-120l-75 104l-72 -104h-123zM262 0v237l-231 407h168l144 -267l144 267h168l-231 -407v-237h-162z" />
    <glyph glyph-name="ycircumflex" unicode="&#x177;" horiz-adv-x="627" 
d="M130 521l145 187h100l145 -187h-120l-75 104l-72 -104h-123zM192 -176q-36 0 -61.5 3.5t-50.5 13.5v112q17 -6 31.5 -8t29.5 -2q41 0 61.5 14.5t41.5 51.5l-213 465h169l125 -301l123 301h168l-181 -435q-27 -65 -60 -113.5t-77 -75t-106 -26.5z" />
    <glyph glyph-name="Ydieresis" unicode="&#x178;" horiz-adv-x="686" 
d="M182 714v109h118v-109h-118zM388 714v109h118v-109h-118zM262 0v237l-231 407h168l144 -267l144 267h168l-231 -407v-237h-162z" />
    <glyph glyph-name="Zacute" unicode="&#x179;" horiz-adv-x="578" 
d="M224 688l84 196h132l-92 -196h-124zM31 0v82l302 434h-287v128h498v-90l-299 -430h305v-124h-519z" />
    <glyph glyph-name="zacute" unicode="&#x17a;" horiz-adv-x="492" 
d="M179 522l84 196h132l-92 -196h-124zM31 0v86l219 260h-211v128h415v-94l-214 -256h221v-124h-430z" />
    <glyph glyph-name="Zdotaccent" unicode="&#x17b;" horiz-adv-x="578" 
d="M240 714v109h117v-109h-117zM31 0v82l302 434h-287v128h498v-90l-299 -430h305v-124h-519z" />
    <glyph glyph-name="zdotaccent" unicode="&#x17c;" horiz-adv-x="492" 
d="M191 548v109h117v-109h-117zM31 0v86l219 260h-211v128h415v-94l-214 -256h221v-124h-430z" />
    <glyph glyph-name="Zcaron" unicode="&#x17d;" horiz-adv-x="578" 
d="M257 688l-145 187h123l72 -104l75 104h120l-145 -187h-100zM31 0v82l302 434h-287v128h498v-90l-299 -430h305v-124h-519z" />
    <glyph glyph-name="zcaron" unicode="&#x17e;" horiz-adv-x="492" 
d="M192 521l-145 187h123l72 -104l75 104h120l-145 -187h-100zM31 0v86l219 260h-211v128h415v-94l-214 -256h221v-124h-430z" />
    <glyph glyph-name="uni018F" unicode="&#x18f;" horiz-adv-x="684" 
d="M333 -10q-148 0 -225 75.5t-77 205.5v118h471q-5 58 -30 90t-73.5 45t-126.5 13q-31 0 -69.5 -5.5t-75 -14.5t-61.5 -20v114q46 17 109.5 30t131.5 13q167 0 256.5 -89.5t89.5 -251.5q0 -99 -34 -171.5t-104.5 -112t-181.5 -39.5zM333 100q88 0 128.5 44t40.5 131h-329
v-40q0 -63 42 -99t118 -36z" />
    <glyph glyph-name="florin" unicode="&#x192;" horiz-adv-x="514" 
d="M19 -123q-36 0 -63 5.5t-50 15.5l23 107q28 -11 57 -11q37 0 57.5 14t28.5 54l60 290h-63l26 122h63l8 39q17 80 71.5 128.5t141.5 48.5q36 0 63.5 -5.5t49.5 -15.5l-23 -108q-13 5 -27 8t-30 3q-39 0 -58 -14.5t-26 -47.5l-8 -36h116l-33 -122h-109l-62 -299
q-17 -82 -69 -129t-144 -47z" />
    <glyph glyph-name="Ohorn" unicode="&#x1a0;" horiz-adv-x="785" 
d="M352 -10q-157 0 -239 80t-82 249q0 179 82 257t239 78q146 0 224 -69q49 2 69.5 24t20.5 79h115q0 -97 -32.5 -142.5t-102.5 -59.5q27 -66 27 -167q0 -169 -82 -249t-239 -80zM352 127q81 0 118.5 46.5t37.5 145.5q0 108 -37.5 152.5t-118.5 44.5q-82 0 -119.5 -44.5
t-37.5 -152.5q0 -99 37.5 -145.5t119.5 -46.5z" />
    <glyph glyph-name="ohorn" unicode="&#x1a1;" horiz-adv-x="707" 
d="M298 -10q-137 0 -202 63.5t-65 183.5q0 119 65.5 183t201.5 64q65 0 113 -15t80 -42q56 0 76.5 25.5t20.5 83.5h115q0 -101 -35.5 -149.5t-112.5 -61.5q11 -41 11 -88q0 -120 -65 -183.5t-203 -63.5zM298 116q56 0 80 28t24 93t-24 93t-80 28q-55 0 -79 -28t-24 -93
t24 -93t79 -28z" />
    <glyph glyph-name="Uhorn" unicode="&#x1af;" horiz-adv-x="834" 
d="M342 -10q-90 0 -156.5 29t-103 86t-36.5 140v399h161v-384q0 -67 35 -100t100 -33t99.5 33t34.5 100v384h162v-59q49 2 69.5 24t20.5 79h115q0 -78 -21 -123.5t-66 -65t-118 -20.5v-234q0 -83 -37 -140t-103.5 -86t-155.5 -29z" />
    <glyph glyph-name="uhorn" unicode="&#x1b0;" horiz-adv-x="745" 
d="M224 -10q-84 0 -131 47.5t-47 138.5v298h161v-289q0 -40 19.5 -58.5t58.5 -18.5q29 0 54.5 12t42.5 30v324h162v-46q44 4 60.5 29.5t16.5 78.5h115q0 -114 -45 -162t-147 -53v-321h-151l-5 40q-29 -22 -69.5 -36t-94.5 -14z" />
    <glyph glyph-name="uni01CD" unicode="&#x1cd;" horiz-adv-x="728" 
d="M313 688l-145 187h123l72 -104l75 104h120l-145 -187h-100zM31 0l246 644h174l246 -644h-168l-58 146h-215l-57 -146h-168zM278 265h171l-86 224z" />
    <glyph glyph-name="uni01CE" unicode="&#x1ce;" horiz-adv-x="561" 
d="M237 521l-145 187h123l72 -104l75 104h120l-145 -187h-100zM199 -10q-45 0 -83.5 16t-61.5 49.5t-23 83.5q0 73 49.5 114.5t148.5 41.5h132v11q0 36 -24 51.5t-90 15.5q-81 0 -159 -25v104q35 14 85.5 23t106.5 9q110 0 172.5 -45t62.5 -143v-296h-141l-8 40
q-26 -24 -66.5 -37t-100.5 -13zM250 89q38 0 66 13t45 33v67h-114q-71 0 -71 -57q0 -26 18 -41t56 -15z" />
    <glyph glyph-name="uni01CF" unicode="&#x1cf;" horiz-adv-x="264" 
d="M81 688l-145 187h123l72 -104l75 104h120l-145 -187h-100zM51 0v644h161v-644h-161z" />
    <glyph glyph-name="uni01D0" unicode="&#x1d0;" horiz-adv-x="334" 
d="M128 521l-145 187h123l72 -104l75 104h120l-145 -187h-100zM121 0v355h-70l14 119h217v-474h-161z" />
    <glyph glyph-name="uni01D1" unicode="&#x1d1;" horiz-adv-x="704" 
d="M301 688l-145 187h123l72 -104l75 104h120l-145 -187h-100zM352 -10q-157 0 -239 80t-82 249q0 179 82 257t239 78t239 -78t82 -257q0 -169 -82 -249t-239 -80zM352 127q81 0 118.5 46.5t37.5 145.5q0 108 -37.5 152.5t-118.5 44.5q-82 0 -119.5 -44.5t-37.5 -152.5
q0 -99 37.5 -145.5t119.5 -46.5z" />
    <glyph glyph-name="uni01D2" unicode="&#x1d2;" horiz-adv-x="597" 
d="M248 521l-145 187h123l72 -104l75 104h120l-145 -187h-100zM298 -10q-137 0 -202 63.5t-65 183.5q0 119 65.5 183t201.5 64q137 0 202.5 -64t65.5 -183q0 -120 -65 -183.5t-203 -63.5zM298 116q56 0 80 28t24 93t-24 93t-80 28q-55 0 -79 -28t-24 -93t24 -93t79 -28z" />
    <glyph glyph-name="uni01D3" unicode="&#x1d3;" horiz-adv-x="684" 
d="M291 688l-145 187h123l72 -104l75 104h120l-145 -187h-100zM342 -10q-90 0 -156.5 29t-103 86t-36.5 140v399h161v-384q0 -67 35 -100t100 -33t100 33t35 100v384h161v-399q0 -83 -36.5 -140t-103 -86t-156.5 -29z" />
    <glyph glyph-name="uni01D4" unicode="&#x1d4;" horiz-adv-x="595" 
d="M246 521l-145 187h123l72 -104l75 104h120l-145 -187h-100zM224 -10q-84 0 -131 47.5t-47 138.5v298h161v-289q0 -40 19.5 -58.5t58.5 -18.5q29 0 55 12t43 30v324h161v-474h-150l-5 40q-29 -22 -70 -36t-95 -14z" />
    <glyph glyph-name="uni01D5" unicode="&#x1d5;" horiz-adv-x="684" 
d="M182 844v97h318v-97h-318zM180 688v109h118v-109h-118zM386 688v109h118v-109h-118zM342 -10q-90 0 -156.5 29t-103 86t-36.5 140v399h161v-384q0 -67 35 -100t100 -33t100 33t35 100v384h161v-399q0 -83 -36.5 -140t-103 -86t-156.5 -29z" />
    <glyph glyph-name="uni01D6" unicode="&#x1d6;" horiz-adv-x="595" 
d="M138 684v97h318v-97h-318zM135 530v109h118v-109h-118zM341 530v109h118v-109h-118zM224 -10q-84 0 -131 47.5t-47 138.5v298h161v-289q0 -40 19.5 -58.5t58.5 -18.5q29 0 55 12t43 30v324h161v-474h-150l-5 40q-29 -22 -70 -36t-95 -14z" />
    <glyph glyph-name="uni01D7" unicode="&#x1d7;" horiz-adv-x="684" 
d="M284 815l58 133h121l-68 -133h-111zM181 689v103h114v-103h-114zM389 689v103h114v-103h-114zM342 -10q-90 0 -156.5 29t-103 86t-36.5 140v399h161v-384q0 -67 35 -100t100 -33t100 33t35 100v384h161v-399q0 -83 -36.5 -140t-103 -86t-156.5 -29z" />
    <glyph glyph-name="uni01D8" unicode="&#x1d8;" horiz-adv-x="595" 
d="M230 656l58 133h121l-68 -133h-111zM127 530v103h114v-103h-114zM335 530v103h114v-103h-114zM224 -10q-84 0 -131 47.5t-47 138.5v298h161v-289q0 -40 19.5 -58.5t58.5 -18.5q29 0 55 12t43 30v324h161v-474h-150l-5 40q-29 -22 -70 -36t-95 -14z" />
    <glyph glyph-name="uni01D9" unicode="&#x1d9;" horiz-adv-x="684" 
d="M287 812l-120 127h119l57 -73l58 73h116l-119 -127h-111zM180 688v103h114v-103h-114zM388 688v103h114v-103h-114zM342 -10q-90 0 -156.5 29t-103 86t-36.5 140v399h161v-384q0 -67 35 -100t100 -33t100 33t35 100v384h161v-399q0 -83 -36.5 -140t-103 -86t-156.5 -29z
" />
    <glyph glyph-name="uni01DA" unicode="&#x1da;" horiz-adv-x="595" 
d="M242 647l-120 127h119l57 -73l58 73h116l-119 -127h-111zM135 523v103h114v-103h-114zM343 523v103h114v-103h-114zM224 -10q-84 0 -131 47.5t-47 138.5v298h161v-289q0 -40 19.5 -58.5t58.5 -18.5q29 0 55 12t43 30v324h161v-474h-150l-5 40q-29 -22 -70 -36t-95 -14z
" />
    <glyph glyph-name="uni01DB" unicode="&#x1db;" horiz-adv-x="684" 
d="M289 814l-68 133h121l58 -133h-111zM181 688v103h114v-103h-114zM389 688v103h114v-103h-114zM342 -10q-90 0 -156.5 29t-103 86t-36.5 140v399h161v-384q0 -67 35 -100t100 -33t100 33t35 100v384h161v-399q0 -83 -36.5 -140t-103 -86t-156.5 -29z" />
    <glyph glyph-name="uni01DC" unicode="&#x1dc;" horiz-adv-x="595" 
d="M246 656l-68 133h121l58 -133h-111zM138 530v103h114v-103h-114zM346 530v103h114v-103h-114zM224 -10q-84 0 -131 47.5t-47 138.5v298h161v-289q0 -40 19.5 -58.5t58.5 -18.5q29 0 55 12t43 30v324h161v-474h-150l-5 40q-29 -22 -70 -36t-95 -14z" />
    <glyph glyph-name="Gcaron" unicode="&#x1e6;" horiz-adv-x="647" 
d="M319 688l-145 187h123l72 -104l75 104h120l-145 -187h-100zM372 -10q-167 0 -254 84.5t-87 238.5q0 161 89 251t262 90q59 0 106.5 -7t90.5 -21v-138q-43 16 -89.5 22t-95.5 6q-104 0 -151.5 -49.5t-47.5 -153.5q0 -95 45 -140.5t133 -45.5q58 0 108 16v122h-139v101h274
v-319q-34 -22 -94.5 -39.5t-149.5 -17.5z" />
    <glyph glyph-name="gcaron" unicode="&#x1e7;" horiz-adv-x="563" 
d="M242 522l-145 187h123l72 -104l75 104h120l-145 -187h-100zM255 -176q-35 0 -74 3t-74 9t-60 14v110q40 -13 96 -20t103 -7q61 0 91.5 6.5t30.5 22.5q0 14 -12 19t-47 5h-131q-64 0 -99.5 23t-35.5 67q0 30 18.5 57t54.5 40q-41 21 -62 53t-21 81q0 92 59.5 134.5
t174.5 42.5q24 0 53.5 -3.5t43.5 -6.5h182l-4 -100h-69q25 -25 25 -74q0 -69 -44.5 -111t-134.5 -42q-15 0 -29.5 1.5t-28.5 2.5q-26 -3 -44.5 -11t-18.5 -23q0 -12 9.5 -16t28.5 -4h121q73 0 113.5 -33.5t40.5 -97.5q0 -142 -256 -142zM268 236q53 0 73 18t20 60t-20.5 61
t-72.5 19q-49 0 -70.5 -18.5t-21.5 -61.5q0 -40 20 -59t72 -19z" />
    <glyph glyph-name="Aringacute" unicode="&#x1fa;" horiz-adv-x="728" 
d="M291 867l84 186h132l-92 -186h-124zM31 0l239 625q-38 35 -38 92q0 53 35 89.5t96 36.5q63 0 97.5 -36.5t34.5 -89.5q0 -56 -37 -91l239 -626h-168l-58 146h-215l-57 -146h-168zM363 662q28 0 43 16t15 39t-15 39.5t-43 16.5q-26 0 -41.5 -16.5t-15.5 -39.5t15.5 -39
t41.5 -16zM278 265h171l-86 224z" />
    <glyph glyph-name="aringacute" unicode="&#x1fb;" horiz-adv-x="561" 
d="M224 795l84 156h132l-92 -156h-124zM300 521q-61 0 -96 36.5t-35 88.5q0 53 35 89.5t96 36.5q63 0 97.5 -36.5t34.5 -89.5q0 -52 -34.5 -88.5t-97.5 -36.5zM300 591q28 0 43 16t15 39t-15 39.5t-43 16.5q-26 0 -41.5 -16.5t-15.5 -39.5t15.5 -39t41.5 -16zM199 -10
q-45 0 -83.5 16t-61.5 49.5t-23 83.5q0 73 49.5 114.5t148.5 41.5h132v11q0 36 -24 51.5t-90 15.5q-81 0 -159 -25v104q35 14 85.5 23t106.5 9q110 0 172.5 -45t62.5 -143v-296h-141l-8 40q-26 -24 -66.5 -37t-100.5 -13zM250 89q38 0 66 13t45 33v67h-114q-71 0 -71 -57
q0 -26 18 -41t56 -15z" />
    <glyph glyph-name="AEacute" unicode="&#x1fc;" horiz-adv-x="854" 
d="M418 688l84 196h132l-92 -196h-124zM31 0l246 644h546v-124h-261v-135h224v-126h-224v-135h261v-124h-421v147h-142l-57 -147h-172zM297 272h105v248h-12z" />
    <glyph glyph-name="aeacute" unicode="&#x1fd;" horiz-adv-x="882" 
d="M371 522l84 196h132l-92 -196h-124zM212 -10q-51 0 -92 16t-65 49.5t-24 83.5q0 73 49.5 114.5t148.5 41.5h132v11q0 36 -24 51.5t-90 15.5q-81 0 -159 -25v104q35 14 85.5 23t106.5 9q108 0 167 -46q61 46 167 46q113 0 175 -58t62 -156v-85h-336q11 -47 51.5 -66.5
t110.5 -19.5q39 0 79.5 7.5t67.5 17.5v-103q-34 -16 -81 -23.5t-103 -7.5q-57 0 -109 19t-84 54q-27 -21 -58 -37.5t-73.5 -26t-103.5 -9.5zM515 278h196v21q0 35 -21 55.5t-71 20.5q-58 0 -81 -23.5t-23 -73.5zM250 89q38 0 65 11.5t46 30.5v71h-114q-71 0 -71 -57
q0 -26 18 -41t56 -15z" />
    <glyph glyph-name="Oslashacute" unicode="&#x1fe;" horiz-adv-x="704" 
d="M257 688l84 196h132l-92 -196h-124zM156 -53l28 74q-76 34 -114.5 107.5t-38.5 190.5q0 179 82 257t239 78q20 0 39 -1.5t37 -3.5l17 44h89l-25 -65q80 -31 122 -106.5t42 -202.5q0 -169 -82 -249t-239 -80q-24 0 -46 2t-42 5l-19 -50h-89zM240 165l136 350q-6 0 -12 0.5
t-12 0.5q-82 0 -119.5 -44.5t-37.5 -152.5q0 -109 45 -154zM352 127q81 0 118.5 46.5t37.5 145.5q0 126 -54 168l-138 -358q8 -1 17 -1.5t19 -0.5z" />
    <glyph glyph-name="oslashacute" unicode="&#x1ff;" horiz-adv-x="597" 
d="M195 522l84 196h132l-92 -196h-124zM141 -53l24 64q-68 26 -101 83t-33 143q0 119 65.5 183t201.5 64q25 0 49 -3l18 47h87l-25 -64q71 -26 105 -83.5t34 -143.5q0 -120 -65 -183.5t-203 -63.5q-28 0 -54 3l-17 -46h-86zM216 141l84 220h-2q-56 0 -82 -29t-26 -95
q0 -67 26 -96zM291 113h7q56 0 82.5 28.5t26.5 95.5q0 68 -30 98z" />
    <glyph glyph-name="uni0218" unicode="&#x218;" horiz-adv-x="555" 
d="M256 -10q-64 0 -119.5 9.5t-95.5 27.5v137q44 -19 97.5 -31t101.5 -12q60 0 89.5 11t29.5 48q0 25 -14.5 40t-47 26.5t-88.5 27.5q-66 20 -105 44.5t-56 59.5t-17 86q0 92 66 141t195 49q56 0 109 -8.5t86 -19.5v-138q-43 17 -86.5 25t-84.5 8q-54 0 -87.5 -10t-33.5 -46
q0 -21 12 -33.5t41.5 -22.5t80.5 -24q79 -21 121 -50.5t58 -68t16 -86.5q0 -85 -66 -137.5t-202 -52.5zM187 -231l30 186h133l-45 -186h-118z" />
    <glyph glyph-name="uni0219" unicode="&#x219;" horiz-adv-x="479" 
d="M227 -10q-57 0 -108 8t-81 20v123q35 -15 81 -23t82 -8q43 0 62.5 4t19.5 22q0 20 -32 30t-88 29q-65 23 -98.5 53.5t-33.5 90.5q0 70 52.5 107.5t167.5 37.5q45 0 89 -7t72 -16v-121q-28 13 -64 19t-65 6q-37 0 -62.5 -4.5t-25.5 -21.5q0 -19 28 -26.5t81 -24.5
q56 -17 87 -36.5t44 -46.5t13 -68q0 -71 -56 -109t-165 -38zM150 -231l30 186h133l-45 -186h-118z" />
    <glyph glyph-name="uni021A" unicode="&#x21a;" horiz-adv-x="561" 
d="M200 0v520h-189v124h539v-124h-189v-520h-161zM187 -258l33 213h129l-53 -213h-109z" />
    <glyph glyph-name="uni021B" unicode="&#x21b;" horiz-adv-x="374" 
d="M246 -10q-88 0 -129.5 45t-41.5 124v193h-64v122h64v99l161 43v-142h115l-7 -122h-108v-182q0 -34 17 -47.5t51 -13.5q29 0 59 10v-109q-47 -20 -117 -20zM136 -258l33 213h129l-53 -213h-109z" />
    <glyph glyph-name="uni0237" unicode="&#x237;" horiz-adv-x="332" 
d="M108 -234q-71 0 -118 20v109q30 -10 60 -10q70 0 70 60v410h-70l14 119h217v-543q0 -73 -42 -119t-131 -46z" />
    <glyph glyph-name="uni0251" unicode="&#x251;" horiz-adv-x="599" 
d="M244 -10q-103 0 -158 54.5t-55 173.5q0 79 29.5 138.5t82.5 93.5t123 34q41 0 67.5 -9.5t52.5 -27.5v27h161v-474h-139l-9 40q-59 -50 -155 -50zM296 107q53 0 90 36v190q-16 17 -34 25t-44 8q-57 0 -85 -35.5t-28 -112.5q0 -63 26 -87t75 -24z" />
    <glyph glyph-name="uni0259" unicode="&#x259;" horiz-adv-x="547" 
d="M268 -10q-113 0 -175 58.5t-62 155.5v84h336q-12 48 -51.5 66.5t-110.5 18.5q-40 0 -80.5 -7t-66.5 -18v104q69 32 184 32q124 0 199 -61.5t75 -185.5q0 -113 -62 -180t-186 -67zM263 98q58 0 81 24t23 74h-196v-22q0 -34 21 -55t71 -21z" />
    <glyph glyph-name="uni02BB" unicode="&#x2bb;" horiz-adv-x="257" 
d="M31 436l74 218h121l-59 -218h-136z" />
    <glyph glyph-name="uni02BC" unicode="&#x2bc;" horiz-adv-x="257" 
d="M31 436l59 218h136l-74 -218h-121z" />
    <glyph glyph-name="uni02BE" unicode="&#x2be;" 
d="M-394 450v98q75 0 75 71q0 69 -75 69v98q84 0 128.5 -45t44.5 -122q0 -78 -44.5 -123.5t-128.5 -45.5z" />
    <glyph glyph-name="uni02BF" unicode="&#x2bf;" 
d="M-221 450q-84 0 -128.5 45.5t-44.5 123.5q0 77 44.5 122t128.5 45v-98q-35 0 -55 -17t-20 -52t20 -53t55 -18v-98z" />
    <glyph glyph-name="circumflex" unicode="&#x2c6;" horiz-adv-x="384" 
d="M-3 529l145 187h100l145 -187h-120l-75 104l-72 -104h-123z" />
    <glyph glyph-name="caron" unicode="&#x2c7;" horiz-adv-x="384" 
d="M142 529l-145 187h123l72 -104l75 104h120l-145 -187h-100z" />
    <glyph glyph-name="uni02C8" unicode="&#x2c8;" 
d="M-81 477v194h104v-194h-104z" />
    <glyph glyph-name="uni02C9" unicode="&#x2c9;" 
d="M111 559v97h318v-97h-318z" />
    <glyph glyph-name="uni02CA" unicode="&#x2ca;" 
d="M-137 522l84 196h131l-92 -196h-123z" />
    <glyph glyph-name="uni02CB" unicode="&#x2cb;" 
d="M-48 522l-92 196h131l84 -196h-123z" />
    <glyph glyph-name="uni02CC" unicode="&#x2cc;" 
d="M-81 -236v195h104v-195h-104z" />
    <glyph glyph-name="breve" unicode="&#x2d8;" horiz-adv-x="347" 
d="M172 533q-77 0 -125 45t-48 127h106q0 -34 15.5 -58t51.5 -24q37 0 53 24t16 58h106q0 -82 -48.5 -127t-126.5 -45z" />
    <glyph glyph-name="dotaccent" unicode="&#x2d9;" horiz-adv-x="145" 
d="M13 555v109h118v-109h-118z" />
    <glyph glyph-name="ring" unicode="&#x2da;" horiz-adv-x="295" 
d="M149 521q-56 0 -92.5 35t-36.5 87q0 53 36.5 88t92.5 35q57 0 93 -35t36 -88q0 -52 -36 -87t-93 -35zM149 595q22 0 35.5 14.5t13.5 33.5q0 20 -13.5 34.5t-35.5 14.5q-21 0 -35 -14.5t-14 -34.5q0 -19 14 -33.5t35 -14.5z" />
    <glyph glyph-name="ogonek" unicode="&#x2db;" horiz-adv-x="246" 
d="M140 -220q-52 0 -88 22.5t-36 71.5q0 38 20 71t54 55h112q-28 -21 -45 -45.5t-17 -51.5q0 -38 44 -38q13 0 26.5 3t22.5 8v-81q-14 -6 -39.5 -10.5t-53.5 -4.5z" />
    <glyph glyph-name="tilde" unicode="&#x2dc;" horiz-adv-x="376" 
d="M277 550q-31 0 -60.5 10.5t-57 20.5t-53.5 10q-29 0 -52.5 -10t-40.5 -28v107q14 14 38.5 23t51.5 9q32 0 60 -10t55 -20.5t56 -10.5q30 0 52 10.5t35 28.5v-108q-10 -13 -32.5 -22.5t-51.5 -9.5z" />
    <glyph glyph-name="hungarumlaut" unicode="&#x2dd;" horiz-adv-x="443" 
d="M227 530l83 180h139l-97 -180h-125zM-4 530l83 180h139l-97 -180h-125z" />
    <glyph glyph-name="gravecomb" unicode="&#x300;" 
d="M-396 522l-93 196h132l84 -196h-123z" />
    <glyph glyph-name="acutecomb" unicode="&#x301;" 
d="M-455 522l84 196h132l-92 -196h-124z" />
    <glyph glyph-name="uni0302" unicode="&#x302;" 
d="M-235 529l145 187h100l145 -187h-120l-75 104l-72 -104h-123z" />
    <glyph glyph-name="tildecomb" unicode="&#x303;" 
d="M-257 550q-31 0 -60.5 10.5t-57 20.5t-53.5 10q-29 0 -52.5 -10t-41.5 -28v107q14 14 38.5 23t52.5 9q32 0 60 -10t55 -20.5t56 -10.5q30 0 52 10.5t35 28.5v-108q-10 -13 -32.5 -22.5t-51.5 -9.5z" />
    <glyph glyph-name="uni0304" unicode="&#x304;" 
d="M-196 559v97h318v-97h-318z" />
    <glyph glyph-name="uni0306" unicode="&#x306;" 
d="M-29 533q-77 0 -125 45t-48 127h106q0 -34 15.5 -58t51.5 -24q37 0 53 24t16 58h106q0 -82 -48.5 -127t-126.5 -45z" />
    <glyph glyph-name="uni0307" unicode="&#x307;" 
d="M-87 555v109h117v-109h-117z" />
    <glyph glyph-name="uni0308" unicode="&#x308;" 
d="M39 555v109h118v-109h-118zM-167 555v109h118v-109h-118z" />
    <glyph glyph-name="hookabovecomb" unicode="&#x309;" 
d="M-392 504v81q53 3 71 14.5t18 31.5q0 19 -17 27.5t-48 8.5q-14 0 -31 -2.5t-29 -6.5v72q40 14 107 14q66 0 101 -27.5t35 -71.5q0 -43 -20.5 -64.5t-64.5 -32.5v-44h-122z" />
    <glyph glyph-name="uni030A" unicode="&#x30a;" 
d="M-29 514q-61 0 -96 36.5t-35 88.5q0 53 35 89.5t96 36.5q63 0 97.5 -36.5t34.5 -89.5q0 -52 -34.5 -88.5t-97.5 -36.5zM-29 584q28 0 43 16t15 39t-15 39.5t-43 16.5q-26 0 -41.5 -16.5t-15.5 -39.5t15.5 -39t41.5 -16z" />
    <glyph glyph-name="uni030B" unicode="&#x30b;" 
d="M-32 530l82 180h139l-97 -180h-124zM-263 530l82 180h139l-97 -180h-124z" />
    <glyph glyph-name="uni030C" unicode="&#x30c;" 
d="M-90 529l-145 187h123l72 -104l75 104h120l-145 -187h-100z" />
    <glyph glyph-name="uni031B" unicode="&#x31b;" 
d="M-143 515v103q61 0 81 23t20 82h115q0 -80 -21.5 -125t-69 -63.5t-125.5 -19.5z" />
    <glyph glyph-name="dotbelowcomb" unicode="&#x323;" 
d="M-387 -189v109h118v-109h-118z" />
    <glyph glyph-name="uni0324" unicode="&#x324;" 
d="M19 -189v109h119v-109h-119zM-193 -189v109h119v-109h-119z" />
    <glyph glyph-name="uni0326" unicode="&#x326;" 
d="M33 -250l33 213h129l-53 -213h-109z" />
    <glyph glyph-name="uni0327" unicode="&#x327;" 
d="M-37 -240q-17 0 -42.5 2.5t-36.5 5.5v71q29 -8 60 -8q41 0 58.5 6.5t17.5 28.5q0 23 -18 28.5t-47 5.5h-54l29 100h96l-15 -43q56 0 82.5 -25.5t26.5 -67.5q0 -49 -38.5 -76.5t-118.5 -27.5z" />
    <glyph glyph-name="uni0328" unicode="&#x328;" 
d="M-13 -220q-51 0 -87 22.5t-36 71.5q0 38 19.5 71t53.5 55h113q-28 -21 -45.5 -45.5t-17.5 -51.5q0 -20 12 -29t32 -9q13 0 27 3t23 8v-81q-14 -6 -40 -10.5t-54 -4.5z" />
    <glyph glyph-name="uni032E" unicode="&#x32e;" 
d="M-29 -227q-77 0 -125 45t-48 127h106q0 -34 15.5 -58t51.5 -24q37 0 53 24t16 58h106q0 -82 -48.5 -127t-126.5 -45z" />
    <glyph glyph-name="uni0331" unicode="&#x331;" 
d="M-196 -144v98h318v-98h-318z" />
    <glyph glyph-name="uni0394" unicode="&#x394;" horiz-adv-x="640" 
d="M31 0v86l220 558h136l222 -559v-85h-578zM184 123h268l-133 338z" />
    <glyph glyph-name="uni03A9" unicode="&#x3a9;" horiz-adv-x="752" 
d="M38 0v122h114q-59 41 -90 102t-31 143q0 99 40.5 172.5t117.5 114.5t187 41t187 -41t117.5 -114.5t40.5 -172.5q0 -82 -31 -143t-90 -102h114v-122h-297v126q73 42 106.5 99t33.5 132q0 91 -48 145.5t-133 54.5t-133 -54.5t-48 -145.5q0 -75 33.5 -132t106.5 -99v-126
h-297z" />
    <glyph glyph-name="uni03BC" unicode="&#x3bc;" horiz-adv-x="600" 
d="M51 -143v617h161v-289q0 -40 19.5 -58.5t58.5 -18.5q29 0 55 12t43 30v324h161v-474h-150l-5 40q-25 -22 -60 -36t-82 -14q-22 0 -40 7v-140h-161z" />
    <glyph glyph-name="pi" unicode="&#x3c0;" horiz-adv-x="683" 
d="M551 -10q-89 0 -131 47.5t-42 134.5v178h-133v-350h-161v350h-63v124h580v-124h-62v-168q0 -34 16.5 -48t50.5 -14q29 0 59 10v-120q-23 -10 -50 -15t-64 -5z" />
    <glyph glyph-name="uni0E01" unicode="&#xe01;" horiz-adv-x="627" 
d="M52 0v171q0 42 16 76.5t59 48.5l-96 27v136q43 34 113 62.5t160 28.5q134 0 201.5 -54.5t67.5 -170.5v-325h-161v324q0 57 -27.5 81t-89.5 24q-39 0 -72.5 -11t-53.5 -28v-11l108 -31v-85q-36 -10 -50 -31t-14 -63v-169h-161z" />
    <glyph glyph-name="uni0E02" unicode="&#xe02;" horiz-adv-x="605" 
d="M295 -10q-122 0 -188 55.5t-66 152.5v30q0 32 12 57.5t27 45.5t27 36.5t12 31.5q0 14 -7 19.5t-24 5.5h-59l13 116h156q47 0 67.5 -21t20.5 -63q0 -34 -12.5 -61t-29.5 -51t-29.5 -49.5t-12.5 -56.5v-44q0 -83 93 -83q95 0 95 88v341h161v-339q0 -99 -68.5 -155
t-187.5 -56z" />
    <glyph glyph-name="uni0E03" unicode="&#xe03;" horiz-adv-x="606" 
d="M296 -10q-121 0 -187 49.5t-66 146.5v14q0 34 17.5 65t40.5 58t40.5 48.5t17.5 36.5q0 19 -16 19q-14 0 -23 -11v-40h-92v164h99v-28q15 11 36.5 19.5t50.5 8.5q89 0 89 -87q0 -40 -15 -70.5t-34.5 -56.5t-34.5 -51t-15 -55v-24q0 -85 92 -85q95 0 95 88v341h161v-339
q0 -99 -68.5 -155t-187.5 -56z" />
    <glyph glyph-name="uni0E04" unicode="&#xe04;" horiz-adv-x="635" 
d="M51 0v327q0 107 66 165t199 58t199 -58t66 -165v-327h-161v333q0 45 -27 70.5t-77 25.5q-52 0 -78 -25t-26 -71v-77q36 26 84 26h59l4 -127h-65q-48 0 -82 -23v-132h-161z" />
    <glyph glyph-name="uni0E05" unicode="&#xe05;" horiz-adv-x="635" 
d="M51 0v387q0 74 35 118.5t109 44.5q33 0 65 -11.5t55 -39.5q23 28 58 39.5t68 11.5q74 0 107 -42.5t33 -120.5v-387h-161v379q0 24 -7 37t-29 13q-16 0 -26 -9t-17 -23h-50q-5 14 -13 23t-24 9q-42 0 -42 -50v-123q34 26 84 26h59l4 -127h-66q-47 0 -81 -23v-132h-161z
" />
    <glyph glyph-name="uni0E06" unicode="&#xe06;" horiz-adv-x="623" 
d="M380 -10q-55 0 -98.5 15.5t-77.5 41.5l-6 -47h-149v194q0 36 17.5 68.5t40.5 60t40.5 49t17.5 36.5q0 19 -16 19q-14 0 -23 -11v-40h-92v164h99v-28q15 11 36.5 19.5t50.5 8.5q89 0 89 -87q0 -43 -15 -76t-34.5 -61.5t-34.5 -58t-15 -64.5v-35q18 -19 49 -33t64 -14
q43 0 64 21t21 67v341h161v-355q0 -93 -51.5 -144t-137.5 -51z" />
    <glyph glyph-name="uni0E07" unicode="&#xe07;" horiz-adv-x="571" 
d="M281 -10q-28 0 -62.5 4t-59.5 13l-148 364h157l108 -265q117 6 117 180q0 77 -24.5 104.5t-85.5 27.5h-40v122h68q242 0 242 -254q0 -104 -34.5 -169.5t-96 -96t-141.5 -30.5z" />
    <glyph glyph-name="uni0E08" unicode="&#xe08;" horiz-adv-x="568" 
d="M277 -10q-28 0 -59 5t-49 12l-67 181h-76l6 122h164l75 -200q51 3 78.5 42.5t27.5 121.5q0 58 -15.5 92t-52 48.5t-99.5 14.5q-40 0 -86 -7t-88 -19v114q45 14 101.5 23.5t113.5 9.5q155 0 220.5 -71t65.5 -205q0 -93 -37 -156.5t-96 -95.5t-127 -32z" />
    <glyph glyph-name="uni0E09" unicode="&#xe09;" horiz-adv-x="601" 
d="M213 -10q-82 0 -129.5 47t-47.5 139v124h161v-100q0 -43 19 -66t63 -23q35 0 61.5 13t45.5 35v148q0 69 -34 95.5t-122 26.5q-27 0 -63 -4t-72 -10.5t-64 -14.5v114q49 17 113.5 26.5t126.5 9.5q148 0 212 -61.5t64 -182.5v-306h-149l-6 48q-32 -25 -76 -41.5t-103 -16.5
z" />
    <glyph glyph-name="uni0E0A" unicode="&#xe0a;" horiz-adv-x="606" 
d="M296 -10q-122 0 -188 55.5t-66 152.5v30q0 32 12 57.5t27 45.5t27 36.5t12 31.5q0 14 -7 19.5t-24 5.5h-59l13 116h155q47 0 67.5 -21t20.5 -63q0 -34 -12.5 -61t-29 -51t-29 -49.5t-12.5 -56.5v-44q0 -83 93 -83q95 0 95 88v56q0 34 -13 48t-40 14h-23l9 112h12
q29 0 41.5 15t12.5 52v54h162v-49q0 -47 -14 -77.5t-53 -49.5q41 -20 54 -50t13 -74v-49q0 -99 -68.5 -155t-187.5 -56z" />
    <glyph glyph-name="uni0E0B" unicode="&#xe0b;" horiz-adv-x="607" 
d="M297 -10q-121 0 -187 50t-66 143v20q0 34 17.5 64.5t40.5 57t40.5 47.5t17.5 36q0 19 -16 19q-14 0 -23 -11v-40h-92v164h99v-28q15 11 36.5 19.5t50.5 8.5q44 0 65.5 -23t21.5 -64q0 -40 -14.5 -71t-34 -57t-34 -51.5t-14.5 -55.5v-24q0 -83 92 -83q95 0 95 88v56
q0 34 -13 48t-40 14h-23l9 112h12q29 0 41.5 15t12.5 52v54h162v-49q0 -47 -14 -77.5t-53 -49.5q41 -20 54 -50t13 -74v-49q0 -99 -68.5 -155t-187.5 -56z" />
    <glyph glyph-name="uni0E0C" unicode="&#xe0c;" horiz-adv-x="958" 
d="M721 -10q-55 0 -95 15.5t-74 41.5l-7 -47h-146v324q0 57 -24.5 81t-83.5 24q-39 0 -70.5 -11t-51.5 -28v-11l108 -31v-85q-36 -10 -50 -29.5t-14 -58.5v-28q0 -34 34 -34h47v-113h-138q-47 0 -75.5 29.5t-28.5 75.5v66q0 42 16 76.5t59 48.5l-96 27v136q43 34 111 62.5
t158 28.5q131 0 194.5 -54.5t63.5 -170.5v-167q18 -19 46.5 -33t59.5 -14q42 0 60.5 21t18.5 67v341h161v-355q0 -93 -48.5 -144t-134.5 -51z" />
    <glyph glyph-name="uni0E0D" unicode="&#xe0d;" horiz-adv-x="973" 
d="M670 -81q-31 0 -68 4.5t-73.5 14t-65.5 24.5v114q30 -15 67 -24.5t73 -14t62 -4.5q68 0 97 13t29 36q0 17 -12 26q-52 -18 -121 -18q-121 0 -190 52.5t-69 170.5v11q0 57 -24.5 81t-83.5 24q-39 0 -70.5 -11t-51.5 -28v-11l108 -31v-85q-36 -10 -50 -29.5t-14 -58.5v-28
q0 -34 34 -34h47v-113h-138q-47 0 -75.5 29.5t-28.5 75.5v66q0 42 16 76.5t59 48.5l-96 27v136q43 34 111 62.5t158 28.5q131 0 194.5 -54.5t63.5 -170.5v-17q0 -56 24 -76.5t76 -20.5q53 0 76.5 26t23.5 81v222h161v-217q0 -93 -46 -151q17 -16 30 -43t13 -58
q0 -76 -66 -114t-180 -38z" />
    <glyph glyph-name="uni0E0E" unicode="&#xe0e;" horiz-adv-x="660" 
d="M156 -198v121q36 16 77 24.5t92 8.5q35 0 67.5 -6t51.5 -15v389q0 57 -26 81t-85 24q-39 0 -72 -11t-54 -28v-11l108 -31v-85q-34 -11 -43.5 -30.5t-9.5 -60.5v-46q0 -65 -33 -95.5t-93 -30.5h-100v113h29q18 0 25 8t7 26v28q0 42 13 73.5t56 47.5l-97 27v136
q44 34 113.5 62.5t159.5 28.5q131 0 197.5 -55t66.5 -170v-519h-154q-55 29 -141 29q-39 0 -81.5 -9.5t-73.5 -23.5z" />
    <glyph glyph-name="uni0E0F" unicode="&#xe0f;" horiz-adv-x="660" 
d="M438 -197q-43 0 -76.5 13.5t-52.5 33.5q-13 -20 -36.5 -32t-61.5 -12h-98l8 118h65q28 0 42 9.5t22 31.5h99q5 -20 16.5 -32t33.5 -12q45 0 45 46v357q0 57 -26 81t-85 24q-39 0 -72 -11t-54 -28v-11l108 -31v-85q-34 -11 -43.5 -30.5t-9.5 -60.5v-46q0 -65 -33 -95.5
t-93 -30.5h-100v113h29q18 0 25 8t7 26v28q0 42 13 73.5t56 47.5l-97 27v136q44 34 113.5 62.5t159.5 28.5q131 0 197.5 -55t66.5 -170v-361q0 -73 -44 -117t-124 -44z" />
    <glyph glyph-name="uni0E10" unicode="&#xe10;" horiz-adv-x="610" 
d="M277 -10q-28 0 -59 5t-49 12l-67 181h-76l6 122h164l75 -200q51 3 78.5 42.5t27.5 121.5q0 58 -15.5 92t-52 48.5t-99.5 14.5q-40 0 -86 -7t-88 -19v114q45 14 101.5 23.5t113.5 9.5q29 0 55 -2.5t48 -7.5h233l-8 -120h-76q17 -29 25.5 -65t8.5 -81q0 -93 -37 -156.5
t-96 -95.5t-127 -32zM355 -213q-45 0 -77.5 13.5t-51.5 34.5q-13 -20 -36 -33t-61 -13h-87l8 115h58q28 0 42.5 10.5t21.5 32.5h102q5 -22 19 -34t39 -12q54 0 54 46v22h129v-22q0 -72 -39.5 -116t-120.5 -44z" />
    <glyph glyph-name="uni0E11" unicode="&#xe11;" horiz-adv-x="620" 
d="M70 0v184q0 35 13.5 67t31.5 61t31.5 53t13.5 43t-16 19q-14 0 -23 -11v-40h-92v164h99v-28q15 11 34 19.5t47 8.5q41 0 66 -28q22 16 54 27t67 11q87 0 128.5 -46.5t41.5 -138.5v-365h-161v362q0 35 -11 50.5t-42 15.5q-13 0 -27.5 -6t-24.5 -14q0 -31 -10.5 -57
t-24 -51t-24 -53.5t-10.5 -65.5v-181h-161z" />
    <glyph glyph-name="uni0E12" unicode="&#xe12;" horiz-adv-x="991" 
d="M261 -10q-67 0 -119 27t-81.5 85.5t-29.5 152.5q0 145 48 220t137 75q41 0 66.5 -14t43.5 -37q22 23 56 37t70 14q77 0 108 -43.5t31 -111.5v-237q18 -19 46.5 -33t59.5 -14q42 0 60.5 21t18.5 67v341h161v-355q0 -93 -48.5 -144t-134.5 -51q-55 0 -95 15.5t-74 41.5
l-7 -47h-145v366q0 31 -6.5 47t-29.5 16q-33 0 -44 -39h-60q-9 19 -17.5 29t-26.5 10q-25 0 -37.5 -23t-16.5 -62.5t-4 -88.5q0 -80 26 -112t78 -32q17 0 34.5 2t30.5 6v-113q-19 -7 -43 -11.5t-56 -4.5z" />
    <glyph glyph-name="uni0E13" unicode="&#xe13;" horiz-adv-x="962" 
d="M583 -10q-85 0 -134 51t-49 144v139q0 57 -25 81t-84 24q-39 0 -70.5 -11t-51.5 -28v-11l108 -31v-85q-36 -10 -50 -29.5t-14 -58.5v-28q0 -34 34 -34h47v-113h-138q-47 0 -75.5 29.5t-28.5 75.5v66q0 42 16 76.5t59 48.5l-96 27v136q43 34 111 62.5t158 28.5
q131 0 194.5 -54.5t63.5 -170.5v-126q0 -46 19.5 -67t61.5 -21q32 0 60.5 14t46.5 33v382h162v-540h-149l-7 47q-33 -27 -73.5 -42t-95.5 -15z" />
    <glyph glyph-name="uni0E14" unicode="&#xe14;" horiz-adv-x="657" 
d="M261 -10q-67 0 -119 27t-81.5 85.5t-29.5 152.5q0 141 73 218t220 77q99 0 160.5 -32t90 -82.5t28.5 -108.5v-327h-162v314q0 52 -24.5 83.5t-95.5 31.5q-66 0 -98 -42.5t-32 -131.5q0 -80 26 -112t78 -32q17 0 34.5 2t30.5 6v-113q-19 -7 -43 -11.5t-56 -4.5z" />
    <glyph glyph-name="uni0E15" unicode="&#xe15;" horiz-adv-x="660" 
d="M261 -10q-67 0 -119 27t-81.5 85.5t-29.5 152.5q0 145 50 220t141 75q41 0 67 -14t44 -37q22 23 57.5 37t72.5 14q76 0 109.5 -43.5t33.5 -111.5v-395h-162v366q0 31 -8 47t-31 16q-34 0 -45 -39h-60q-9 19 -18 29t-27 10q-26 0 -40 -23t-19 -62.5t-5 -88.5
q0 -80 26 -112t78 -32q17 0 34.5 2t30.5 6v-113q-19 -7 -43 -11.5t-56 -4.5z" />
    <glyph glyph-name="uni0E16" unicode="&#xe16;" horiz-adv-x="627" 
d="M156 0q-47 0 -75.5 29.5t-28.5 75.5v66q0 42 16 76.5t59 48.5l-96 27v136q43 34 113 62.5t160 28.5q134 0 201.5 -54.5t67.5 -170.5v-325h-161v324q0 57 -27.5 81t-89.5 24q-39 0 -72.5 -11t-53.5 -28v-11l108 -31v-85q-36 -10 -50 -29.5t-14 -58.5v-28q0 -34 34 -34h47
v-113h-138z" />
    <glyph glyph-name="uni0E17" unicode="&#xe17;" horiz-adv-x="625" 
d="M51 0v540h149l6 -48q34 26 79.5 42t100.5 16q85 0 135 -51t50 -142v-357h-162v343q0 45 -20.5 65t-63.5 20q-33 0 -64 -13.5t-49 -33.5v-381h-161z" />
    <glyph glyph-name="uni0E18" unicode="&#xe18;" horiz-adv-x="544" 
d="M277 -10q-70 0 -132.5 12.5t-104.5 30.5v195h144v-107q15 -6 38.5 -9.5t45.5 -3.5q47 0 71.5 13.5t24.5 47.5q0 26 -20 39.5t-57 23t-89 21.5q-48 12 -86 28t-59.5 43t-21.5 72q0 73 61.5 113.5t188.5 40.5q64 0 119 -7.5t84 -17.5v-122q-33 14 -83 21t-94 7
q-28 0 -55.5 -2t-45.5 -9t-18 -23q0 -18 23.5 -27.5t61 -17t78.5 -19.5q52 -14 88 -32.5t55 -49.5t19 -83q0 -87 -63 -132.5t-173 -45.5z" />
    <glyph glyph-name="uni0E19" unicode="&#xe19;" horiz-adv-x="625" 
d="M238 -10q-85 0 -136 51t-51 144v355h161v-341q0 -46 21 -67t64 -21q33 0 63.5 14t48.5 33v382h162v-540h-149l-7 47q-34 -26 -78 -41.5t-99 -15.5z" />
    <glyph glyph-name="uni0E1A" unicode="&#xe1a;" horiz-adv-x="639" 
d="M318 -10q-122 0 -194.5 57.5t-72.5 175.5v317h161v-322q0 -55 26 -81t80 -26q53 0 79 26t26 81v322h162v-317q0 -118 -72.5 -175.5t-194.5 -57.5z" />
    <glyph glyph-name="uni0E1B" unicode="&#xe1b;" horiz-adv-x="639" 
d="M318 -10q-122 0 -194.5 57.5t-72.5 175.5v317h161v-322q0 -55 26 -81t80 -26q53 0 79 26t26 81v482h162v-477q0 -118 -72.5 -175.5t-194.5 -57.5z" />
    <glyph glyph-name="uni0E1C" unicode="&#xe1c;" horiz-adv-x="650" 
d="M51 0v440q0 43 22 71.5t67 28.5h139l6 -113h-49q-39 0 -39 -41v-183l99 172h56l98 -172v337h146v-540h-147l-125 227l-126 -227h-147z" />
    <glyph glyph-name="uni0E1D" unicode="&#xe1d;" horiz-adv-x="650" 
d="M51 0v440q0 43 22 71.5t67 28.5h139l6 -113h-49q-39 0 -39 -41v-183l99 172h56l98 -172v497h146v-700h-147l-125 227l-126 -227h-147z" />
    <glyph glyph-name="uni0E1E" unicode="&#xe1e;" horiz-adv-x="732" 
d="M138 0l-117 540h149l56 -319l77 224v95h112l93 -319l55 319h148l-118 -540h-136l-88 286l-95 -286h-136z" />
    <glyph glyph-name="uni0E1F" unicode="&#xe1f;" horiz-adv-x="732" 
d="M138 0l-117 540h149l56 -319l77 224v95h112l93 -319l79 479h148l-142 -700h-136l-88 286l-95 -286h-136z" />
    <glyph glyph-name="uni0E20" unicode="&#xe20;" horiz-adv-x="660" 
d="M36 0v113h29q18 0 25 8t7 26v28q0 42 13 73.5t56 47.5l-97 27v136q44 34 113.5 62.5t159.5 28.5q131 0 197.5 -55t66.5 -170v-325h-162v324q0 57 -26 81t-85 24q-39 0 -72 -11t-54 -28v-11l108 -31v-85q-34 -11 -43.5 -30.5t-9.5 -60.5v-46q0 -65 -33 -95.5t-93 -30.5
h-100z" />
    <glyph glyph-name="uni0E21" unicode="&#xe21;" horiz-adv-x="625" 
d="M382 -10q-55 0 -98.5 15.5t-77.5 41.5l-6 -47h-149v540h161v-382q18 -19 49 -33t64 -14q43 0 63.5 21t20.5 67v341h162v-355q0 -93 -51.5 -144t-137.5 -51z" />
    <glyph glyph-name="uni0E22" unicode="&#xe22;" horiz-adv-x="622" 
d="M300 -10q-79 0 -140 18.5t-95.5 57.5t-34.5 102q0 35 15.5 64t46.5 48q-26 14 -43 42t-17 67q0 80 52 120.5t137 40.5q32 0 56.5 -4t42.5 -11v-114q-27 8 -64 8q-31 0 -47.5 -10t-16.5 -36q0 -28 17.5 -38t50.5 -10h53l6 -110h-60q-69 0 -69 -57q0 -28 24.5 -42.5
t81.5 -14.5q110 0 110 89v340h162v-330q0 -115 -70 -167.5t-198 -52.5z" />
    <glyph glyph-name="uni0E23" unicode="&#xe23;" horiz-adv-x="503" 
d="M238 -10q-59 0 -112.5 8.5t-85.5 21.5v126q37 -16 83 -25.5t84 -9.5q57 0 81 8t24 32q0 20 -14 31t-43.5 21.5t-76.5 26.5q-71 26 -109 59.5t-38 96.5q0 73 57.5 118.5t174.5 45.5q49 0 98 -7.5t79 -16.5v-125q-32 14 -74 21t-74 7q-43 0 -72 -8.5t-29 -34.5
q0 -17 15.5 -27.5t45 -19.5t70.5 -24q57 -21 90 -42t46.5 -50t13.5 -74q0 -77 -61.5 -118t-172.5 -41z" />
    <glyph glyph-name="uni0E24" unicode="&#xe24;" horiz-adv-x="627" 
d="M412 -160v484q0 57 -27.5 81t-89.5 24q-39 0 -72.5 -11t-53.5 -28v-11l108 -31v-85q-36 -10 -50 -29.5t-14 -58.5v-28q0 -34 34 -34h47v-113h-138q-47 0 -75.5 29.5t-28.5 75.5v66q0 42 16 76.5t59 48.5l-96 27v136q43 34 113 62.5t160 28.5q134 0 201.5 -54.5
t67.5 -170.5v-485h-161z" />
    <glyph glyph-name="uni0E25" unicode="&#xe25;" horiz-adv-x="602" 
d="M216 -10q-52 0 -94 17t-67 55t-25 100q0 83 55.5 127.5t156.5 44.5h144v20q0 40 -27.5 57.5t-91.5 17.5q-47 0 -92.5 -7t-89.5 -21v116q42 14 99.5 23.5t112.5 9.5q124 0 187.5 -53t63.5 -163v-334h-162v220h-119q-37 0 -58.5 -12t-21.5 -47q0 -32 18.5 -44t58.5 -12
q17 0 32.5 1.5t27.5 5.5v-108q-40 -14 -108 -14z" />
    <glyph glyph-name="uni0E26" unicode="&#xe26;" horiz-adv-x="660" 
d="M444 -160v484q0 57 -26 81t-85 24q-39 0 -72 -11t-54 -28v-11l108 -31v-85q-34 -11 -43.5 -30.5t-9.5 -60.5v-46q0 -65 -33 -95.5t-93 -30.5h-100v113h29q18 0 25 8t7 26v28q0 42 13 73.5t56 47.5l-97 27v136q44 34 113.5 62.5t159.5 28.5q131 0 197.5 -55t66.5 -170
v-485h-162z" />
    <glyph glyph-name="uni0E27" unicode="&#xe27;" horiz-adv-x="514" 
d="M207 -10q-52 0 -98.5 8t-85.5 26v120q32 -15 70 -24t75 -9q85 0 122.5 37t37.5 122q0 84 -37.5 121.5t-121.5 37.5q-37 0 -75.5 -8.5t-70.5 -22.5v118q82 34 185 34q280 0 280 -280t-281 -280z" />
    <glyph glyph-name="uni0E28" unicode="&#xe28;" horiz-adv-x="663" 
d="M51 0v327q0 107 66 165t199 58q27 0 51 -2.5t46 -7.5h219l-8 -120h-66q14 -19 18.5 -47.5t4.5 -59.5v-313h-162v335q0 45 -26.5 69.5t-76.5 24.5q-104 0 -104 -94v-79q36 26 84 26h59l4 -127h-65q-48 0 -82 -23v-132h-161z" />
    <glyph glyph-name="uni0E29" unicode="&#xe29;" horiz-adv-x="650" 
d="M318 -10q-121 0 -194 57.5t-73 175.5v317h162v-322q0 -55 26 -81t79 -26q54 0 80 26t26 81v53h-101v123h101v146h161v-146h59l-11 -123h-48v-48q0 -118 -72.5 -175.5t-194.5 -57.5z" />
    <glyph glyph-name="uni0E2A" unicode="&#xe2a;" horiz-adv-x="626" 
d="M216 -10q-51 0 -93.5 16t-67.5 53t-25 99q0 83 55.5 129.5t156.5 46.5h145v20q0 40 -28 57.5t-91 17.5q-48 0 -93 -7t-89 -21v116q42 14 99 23.5t112 9.5q27 0 51 -2.5t46 -7.5h201l-8 -120h-59q10 -16 15 -41.5t5 -52.5v-326h-161v220h-119q-38 0 -59.5 -12t-21.5 -47
q0 -32 18.5 -44t59.5 -12q16 0 32 1.5t28 5.5v-108q-42 -14 -109 -14z" />
    <glyph glyph-name="uni0E2B" unicode="&#xe2b;" horiz-adv-x="618" 
d="M51 0v540h161v-155h112q44 0 61 20t17 60v75h162v-79q0 -46 -15.5 -82.5t-55.5 -53.5q38 -16 53 -48t15 -74v-203h-162v182q0 44 -17 62t-61 18h-109v-262h-161z" />
    <glyph glyph-name="uni0E2C" unicode="&#xe2c;" horiz-adv-x="732" 
d="M138 0l-117 540h149l57 -324l79 189v95h107l96 -284l32 213q7 45 -2.5 63t-41.5 18h-35l18 104h43q34 0 48.5 13t21.5 44l6 29h137l-10 -49q-8 -40 -26 -62.5t-50 -30.5q48 -31 30 -121l-87 -437h-136l-88 253l-94 -253h-137z" />
    <glyph glyph-name="uni0E2D" unicode="&#xe2d;" horiz-adv-x="593" 
d="M274 -10q-69 0 -131 12.5t-103 30.5v286h240l7 -111h-90v-87q17 -5 36 -7.5t40 -2.5q72 0 100.5 35.5t28.5 120.5q0 63 -16.5 98.5t-53.5 49.5t-99 14q-43 0 -92.5 -7t-94.5 -21v116q49 16 110 24.5t116 8.5q152 0 221 -72t69 -211q0 -135 -68 -206t-220 -71z" />
    <glyph glyph-name="uni0E2E" unicode="&#xe2e;" horiz-adv-x="633" 
d="M274 -10q-69 0 -131 12.5t-103 30.5v286h240l7 -111h-90v-87q17 -5 36 -7.5t40 -2.5q72 0 100.5 35.5t28.5 120.5q0 63 -16.5 98.5t-53.5 49.5t-99 14q-43 0 -92.5 -7t-94.5 -21v116q49 16 110 24.5t116 8.5q28 0 53 -2.5t47 -7.5h230l-8 -120h-68q17 -32 26.5 -70
t9.5 -83q0 -135 -68 -206t-220 -71z" />
    <glyph glyph-name="uni0E2F" unicode="&#xe2f;" horiz-adv-x="599" 
d="M384 0v235q-23 -12 -57.5 -21.5t-72.5 -9.5q-97 0 -155.5 46t-58.5 140q0 44 12 81t34 69h154q-40 -68 -40 -130q0 -46 23 -67t65 -21q32 0 54.5 7.5t41.5 21.5v189h161v-540h-161z" />
    <glyph glyph-name="uni0E30" unicode="&#xe30;" horiz-adv-x="324" 
d="M31 312v162h128v-48h136l-5 -114h-259zM31 49v162h128v-49h136l-5 -113h-259z" />
    <glyph glyph-name="uni0E31" unicode="&#xe31;" 
d="M-328 605v172h126v-67h244l-6 -105h-364z" />
    <glyph glyph-name="uni0E32" unicode="&#xe32;" horiz-adv-x="447" 
d="M232 0v326q0 52 -20 77.5t-76 25.5q-34 0 -68.5 -8t-63.5 -19v114q30 14 75 24t91 10q118 0 170.5 -51.5t52.5 -155.5v-343h-161z" />
    <glyph glyph-name="uni0E33" unicode="&#xe33;" horiz-adv-x="447" 
d="M-133 575q-54 0 -91.5 34.5t-37.5 87.5q0 54 37.5 88.5t91.5 34.5q53 0 90.5 -34.5t37.5 -88.5q0 -53 -37.5 -87.5t-90.5 -34.5zM-133 656q17 0 29 12.5t12 28.5q0 17 -12 29.5t-29 12.5t-29.5 -12.5t-12.5 -29.5q0 -16 12.5 -28.5t29.5 -12.5zM232 0v326q0 52 -20 77.5
t-76 25.5q-34 0 -68.5 -8t-63.5 -19v114q30 14 75 24t91 10q118 0 170.5 -51.5t52.5 -155.5v-343h-161z" />
    <glyph glyph-name="uni0E34" unicode="&#xe34;" 
d="M-512 605l8 109h449v-109h-457z" />
    <glyph glyph-name="uni0E35" unicode="&#xe35;" 
d="M-512 605l8 109h318v78h131v-187h-457z" />
    <glyph glyph-name="uni0E36" unicode="&#xe36;" 
d="M-512 605l8 109h251q2 38 28 66t78 28q53 0 78.5 -29.5t25.5 -70.5q0 -45 -28.5 -74t-81.5 -29h-359zM-147 668q18 0 29 11.5t11 27.5q0 17 -11.5 28.5t-28.5 11.5q-16 0 -28 -11t-12 -29q0 -16 12 -27.5t28 -11.5z" />
    <glyph glyph-name="uni0E37" unicode="&#xe37;" 
d="M-512 605l8 109h172v78h112v-78h53v78h112v-187h-457z" />
    <glyph glyph-name="uni0E38" unicode="&#xe38;" 
d="M-188 -255v109h-60l6 101h187v-210h-133z" />
    <glyph glyph-name="uni0E39" unicode="&#xe39;" 
d="M-203 -267q-68 0 -106 25.5t-38 64.5v37h-56l6 95h161v-92q0 -30 33 -30q35 0 35 30v92h113v-104q0 -31 -15 -58t-47.5 -43.5t-85.5 -16.5z" />
    <glyph glyph-name="uni0E3A" unicode="&#xe3a;" 
d="M-129 -195q-33 0 -56.5 23t-23.5 56q0 34 23.5 57t56.5 23q34 0 57.5 -23t23.5 -57q0 -33 -23.5 -56t-57.5 -23z" />
    <glyph glyph-name="uni0E3F" unicode="&#xe3f;" horiz-adv-x="641" 
d="M262 -86v86h-211v644h211v86h98v-86h31q97 0 146.5 -46t49.5 -130q0 -51 -19.5 -85.5t-51.5 -53.5q44 -16 69 -47t25 -93q0 -92 -54 -140.5t-155 -48.5h-41v-86h-98zM212 382h50v146h-50v-146zM360 383q33 4 48 22t15 49q0 32 -14 50t-49 22v-143zM212 115h50v156h-50
v-156zM360 115q44 0 65 18t21 64q0 35 -19.5 54t-66.5 20v-156z" />
    <glyph glyph-name="uni0E40" unicode="&#xe40;" horiz-adv-x="319" 
d="M164 0q-57 0 -84.5 28t-27.5 80v432h162v-390q0 -37 36 -37h37v-113h-123z" />
    <glyph glyph-name="uni0E41" unicode="&#xe41;" horiz-adv-x="581" 
d="M432 0q-57 0 -84.5 28t-27.5 80v432h162v-390q0 -37 36 -37h32v-113h-118zM162 0q-56 0 -83.5 28t-27.5 80v432h161v-390q0 -37 36 -37h33v-113h-119z" />
    <glyph glyph-name="uni0E42" unicode="&#xe42;" horiz-adv-x="322" 
d="M193 0q-57 0 -84.5 28t-27.5 80v446q0 57 -23.5 89t-71.5 47v104h342v-114h-140q55 -37 55 -120v-410q0 -37 36 -37h37v-113h-123z" />
    <glyph glyph-name="uni0E43" unicode="&#xe43;" horiz-adv-x="307" 
d="M147 0q-56 0 -83.5 28t-27.5 80v317q0 44 15.5 75.5t36 54.5t36 42t15.5 38q0 41 -55 41q-54 0 -103 -30v111q32 19 75.5 29.5t88.5 10.5q78 0 119.5 -30.5t41.5 -90.5q0 -40 -16.5 -69.5t-38 -55.5t-38 -56.5t-16.5 -71.5v-273q0 -37 36 -37h38v-113h-124z" />
    <glyph glyph-name="uni0E44" unicode="&#xe44;" horiz-adv-x="314" 
d="M174 0q-56 0 -83.5 28t-27.5 80v438q0 45 15 80t41 54h-138v114h332v-104q-49 -15 -69 -53t-20 -99v-388q0 -37 36 -37h38v-113h-124z" />
    <glyph glyph-name="uni0E45" unicode="&#xe45;" horiz-adv-x="447" 
d="M232 -160v486q0 52 -20 77.5t-76 25.5q-34 0 -68.5 -8t-63.5 -19v114q30 14 75 24t91 10q118 0 170.5 -51.5t52.5 -155.5v-503h-161z" />
    <glyph glyph-name="uni0E46" unicode="&#xe46;" horiz-adv-x="631" 
d="M415 0v386q0 21 -6.5 32t-26.5 11q-15 0 -25.5 -10.5t-18.5 -28.5h-50q-6 18 -14 28.5t-25 10.5q-41 0 -41 -80q0 -39 17.5 -57t54.5 -18q17 0 34.5 2t30.5 6v-113q-19 -7 -44.5 -11.5t-57.5 -4.5q-95 0 -149 49t-54 143q0 55 18.5 101.5t56 75t92.5 28.5
q35 0 60.5 -11.5t46.5 -39.5q24 28 56 39.5t66 11.5q66 0 103.5 -39t37.5 -110v-401h-162z" />
    <glyph glyph-name="uni0E47" unicode="&#xe47;" 
d="M-368 593q-63 0 -100 33t-37 94q0 58 37.5 94t106.5 36h258l-7 -85h-236q-26 0 -40.5 -10.5t-14.5 -35.5q0 -42 45 -42q23 0 33.5 10.5t10.5 27.5v15h89v-15q0 -19 10 -27t30 -8h62v-85h-73q-24 0 -44.5 7.5t-30.5 23.5q-12 -16 -41.5 -24.5t-57.5 -8.5z" />
    <glyph glyph-name="uni0E48" unicode="&#xe48;" 
d="M-213 596v167h161v-167h-161z" />
    <glyph glyph-name="uni0E49" unicode="&#xe49;" 
d="M-311 600v87h-78v106h183v-86h212l-6 -107h-311z" />
    <glyph glyph-name="uni0E4A" unicode="&#xe4a;" 
d="M-358 590q-55 0 -89.5 27.5t-34.5 82.5q0 53 29.5 83t76.5 30q53 0 69 -36h1q9 17 28 26.5t43 9.5q51 0 73 -24t22 -59v-58h7q10 0 14 5t4 18v112h85v-118q0 -41 -25 -65.5t-68 -24.5h-99v104q0 17 -4.5 25.5t-19.5 8.5q-16 0 -21 -10.5t-5 -24.5v-12h-64v12
q0 14 -5 24.5t-20 10.5q-28 0 -28 -39q0 -22 11.5 -30t32.5 -8h27v-70h-40z" />
    <glyph glyph-name="uni0E4B" unicode="&#xe4b;" 
d="M-254 596v43h-58v90h58v48h141v-48h59v-90h-59v-43h-141z" />
    <glyph glyph-name="uni0E4C" unicode="&#xe4c;" 
d="M-321 599v168h312l-5 -106h-183v-62h-124z" />
    <glyph glyph-name="uni0E4D" unicode="&#xe4d;" 
d="M-133 575q-54 0 -91.5 34.5t-37.5 87.5q0 54 37.5 88.5t91.5 34.5q53 0 90.5 -34.5t37.5 -88.5q0 -53 -37.5 -87.5t-90.5 -34.5zM-133 656q17 0 29 12.5t12 28.5q0 17 -12 29.5t-29 12.5t-29.5 -12.5t-12.5 -29.5q0 -16 12.5 -28.5t29.5 -12.5z" />
    <glyph glyph-name="uni0E4E" unicode="&#xe4e;" 
d="M-213 596q-124 0 -124 76q0 37 23 56t54 24q-12 13 -12 39q0 27 27 46.5t87 19.5q18 0 36.5 -3t29.5 -8v-58q-10 6 -25.5 9t-26.5 3q-38 0 -38 -20q0 -10 9.5 -15t28.5 -9v-54q-9 5 -21.5 7t-22.5 2q-20 0 -33.5 -5.5t-13.5 -21.5q0 -23 42 -23q17 0 34 3.5t28 10.5v-63
q-13 -9 -36 -12.5t-46 -3.5z" />
    <glyph glyph-name="uni0E4F" unicode="&#xe4f;" horiz-adv-x="594" 
d="M296 -10q-73 0 -133.5 35.5t-96 95.5t-35.5 134t35.5 134t96 96t133.5 36q55 0 103.5 -20.5t85 -57t57 -85t20.5 -103.5q0 -74 -36 -134t-96 -95.5t-134 -35.5zM296 87q47 0 85 23t60.5 61t22.5 84t-22.5 84t-60.5 61t-85 23q-46 0 -84 -23t-61 -61t-23 -84t23 -84
t61 -61t84 -23zM296 132q-33 0 -61 16.5t-45 44.5t-17 62t17 62t45 44.5t61 16.5q34 0 62 -16.5t44.5 -44.5t16.5 -62t-16.5 -62t-44.5 -44.5t-62 -16.5zM296 208q20 0 34 14t14 33q0 20 -14 33.5t-34 13.5q-19 0 -32.5 -13.5t-13.5 -33.5q0 -19 13.5 -33t32.5 -14z" />
    <glyph glyph-name="uni0E50" unicode="&#xe50;" horiz-adv-x="608" 
d="M304 -10q-80 0 -141.5 26.5t-96.5 81t-35 139.5q0 84 35.5 139t97 81.5t140.5 26.5t140 -26.5t96.5 -81.5t35.5 -139q0 -85 -35 -139.5t-96 -81t-141 -26.5zM304 112q59 0 89.5 29t30.5 96q0 66 -30.5 95.5t-89.5 29.5q-58 0 -89.5 -29.5t-31.5 -95.5q0 -67 31.5 -96
t89.5 -29z" />
    <glyph glyph-name="uni0E51" unicode="&#xe51;" horiz-adv-x="632" 
d="M299 -108v125q88 23 119 73t31 132q0 68 -31 104t-104 36q-67 0 -99 -24.5t-32 -78.5q0 -46 22.5 -66.5t66.5 -20.5q19 0 42 4.5t39 13.5v-109q-20 -12 -51 -19.5t-69 -7.5q-97 0 -149.5 52t-52.5 152q0 110 72.5 168t210.5 58q144 0 215.5 -67.5t71.5 -198.5
q0 -120 -76 -208t-226 -118z" />
    <glyph glyph-name="uni0E52" unicode="&#xe52;" horiz-adv-x="717" 
d="M372 -10q-149 0 -235 63t-86 187v300h134v-283q0 -47 17.5 -83t58.5 -55.5t111 -19.5q82 0 121 33t39 91v114q0 40 -29 40q-20 0 -26.5 -15.5t-8.5 -34.5h-74q-1 18 -8 34t-24 16q-19 0 -27.5 -16t-8.5 -52q0 -31 15.5 -44t50.5 -13q32 0 57 9v-89q-16 -7 -37 -11.5
t-46 -4.5q-69 0 -110.5 36t-41.5 118q0 93 32 133.5t90 40.5q32 0 55.5 -11t40.5 -37q20 26 49 37t60 11q66 0 95 -37t29 -99v-116q0 -110 -74 -176t-219 -66z" />
    <glyph glyph-name="uni0E53" unicode="&#xe53;" horiz-adv-x="648" 
d="M251 -10q-66 0 -115.5 23.5t-77 75t-27.5 136.5q0 135 50.5 197t129.5 62q71 0 115 -53q24 28 56.5 40.5t66.5 12.5q67 0 108.5 -38t41.5 -104v-342h-149v311q0 26 -9 35.5t-29 9.5q-38 0 -38 -41v-76h-102v77q0 20 -11 30t-28 10q-31 0 -45 -31.5t-14 -101.5
q0 -66 27 -89t82 -23q18 0 36.5 1.5t31.5 5.5v-113q-19 -7 -42.5 -11t-57.5 -4z" />
    <glyph glyph-name="uni0E54" unicode="&#xe54;" horiz-adv-x="621" 
d="M268 -10q-106 0 -171.5 56t-65.5 176q0 126 82.5 194t245.5 68q80 0 134.5 8t98.5 34v-117q-39 -22 -96.5 -31t-128.5 -9q-95 0 -140.5 -34t-45.5 -113q0 -63 28 -90.5t74 -27.5q13 0 25 4q-4 11 -5.5 24.5t-1.5 27.5q0 71 44 108.5t122 37.5q35 0 60.5 -5t50.5 -16v-96
q-33 15 -73 15q-32 0 -50.5 -9.5t-18.5 -36.5q0 -25 14.5 -34.5t40 -10.5t57.5 -1h62v-112h-95q-35 0 -65.5 4t-55.5 14q-30 -16 -61 -22t-65 -6z" />
    <glyph glyph-name="uni0E55" unicode="&#xe55;" horiz-adv-x="619" 
d="M268 -10q-71 0 -124.5 21t-83 69t-29.5 128q0 82 42.5 138t112.5 78q-14 2 -28.5 9t-22.5 12v109q16 -13 45 -26t64 -22.5t68 -15.5t55 -6q77 0 129.5 8.5t95.5 33.5v-117q-39 -22 -96.5 -31t-128.5 -9q-88 0 -137 -37.5t-49 -116.5q0 -63 28 -87t74 -24q13 0 25 4
q-4 11 -5.5 24.5t-1.5 27.5q0 71 44 108.5t122 37.5q35 0 60.5 -5t50.5 -16v-96q-33 15 -73 15q-32 0 -50.5 -9.5t-18.5 -36.5q0 -25 14.5 -34.5t40 -10.5t57.5 -1h62v-112h-95q-35 0 -65.5 4t-55.5 14q-30 -16 -61 -22t-65 -6z" />
    <glyph glyph-name="uni0E56" unicode="&#xe56;" horiz-adv-x="641" 
d="M325 -10q-53 0 -100.5 11t-88.5 36v119q43 -25 87.5 -34.5t87.5 -9.5q69 0 107.5 30t38.5 95q0 125 -118 125q-51 0 -85 -28t-45 -81h-101l-97 287h136l42 -131q29 35 76 55t103 20q86 0 139 -32t78 -88t25 -127q0 -118 -76 -182.5t-209 -64.5z" />
    <glyph glyph-name="uni0E57" unicode="&#xe57;" horiz-adv-x="848" 
d="M251 -10q-100 0 -160 54t-60 181q0 135 48 197t126 62q40 0 66 -13t47 -40q25 28 56 40.5t67 12.5q71 0 105 -37t34 -104v-225h15q39 0 52.5 16t13.5 59v347h136v-324q0 -110 -47 -163t-163 -53h-139v311q0 25 -8 35t-31 10q-16 0 -27 -10.5t-11 -30.5v-76h-110v76
q0 41 -35 41q-33 0 -42.5 -36t-9.5 -97q0 -47 12.5 -72t36.5 -33.5t60 -8.5q15 0 36 2t33 6v-111q-17 -7 -42.5 -11.5t-58.5 -4.5z" />
    <glyph glyph-name="uni0E58" unicode="&#xe58;" horiz-adv-x="624" 
d="M205 -10q-82 0 -128 59.5t-46 174.5q0 128 81 194t239 66q82 0 139 8t103 34v-117q-40 -22 -101 -31t-138 -9q-98 0 -139.5 -31t-41.5 -114q0 -71 15 -95.5t43 -24.5q20 0 33.5 11t13.5 30v73h100v-74q0 -20 15 -30t32 -10t27.5 4.5t18.5 12.5v92h-52l7 91h167v-262
q-25 -25 -56.5 -38.5t-81.5 -13.5q-38 0 -70 12t-55 39q-22 -27 -52 -39t-73 -12z" />
    <glyph glyph-name="uni0E59" unicode="&#xe59;" horiz-adv-x="744" 
d="M222 -10q-55 0 -98 24.5t-68 77t-25 134.5q0 132 48 195t139 63q44 0 69.5 -14t39.5 -40q17 26 48 40t68 14q57 0 93 -28t36 -72v-12h5q25 0 34 12t9 54v82h113v-54q0 -78 -16 -121.5t-54.5 -61.5t-104.5 -18h-78v40q0 31 -7 45t-31 14q-22 0 -30.5 -15.5t-0.5 -42.5
l90 -306h-134l-96 323q-6 20 -15.5 30.5t-33.5 10.5q-27 0 -39.5 -32.5t-12.5 -109.5q0 -70 19.5 -95t57.5 -25q24 0 48 7v-112q-29 -7 -73 -7z" />
    <glyph glyph-name="uni0E5A" unicode="&#xe5a;" horiz-adv-x="938" 
d="M384 0v235q-23 -12 -60 -21.5t-75 -9.5q-97 0 -153 46t-56 140q0 44 12 81t34 69h154q-40 -68 -40 -130q0 -46 23 -67t65 -21q32 0 54.5 7.5t41.5 21.5v189h161v-180q12 -19 34 -28.5t50 -9.5q31 0 52.5 7.5t40.5 21.5v189h162v-540h-162v233q-20 -12 -48.5 -20.5
t-58.5 -8.5q-19 0 -37.5 4t-32.5 14v-222h-161z" />
    <glyph glyph-name="uni0E5B" unicode="&#xe5b;" horiz-adv-x="1152" 
d="M313 22q-84 0 -147.5 31t-99 90.5t-35.5 144.5q0 75 27 134.5t80 93.5t129 34q108 0 164 -50.5t56 -136.5q0 -83 -42.5 -127t-119.5 -61v95q36 16 48.5 35.5t12.5 53.5q0 44 -27.5 69t-83.5 25q-64 0 -95 -44t-31 -115q0 -84 42.5 -128t121.5 -44q106 0 164.5 58.5
t58.5 164.5q0 68 -9 123h109q21 -34 38 -74t28 -79h2q9 26 18 66.5t10 68.5h76q11 -23 24.5 -58.5t21.5 -70.5h2q8 23 16 55t10 57h66q11 -19 21.5 -51.5t15.5 -55.5h2q17 40 16 89h70q1 -13 -0.5 -27.5t-3.5 -25.5h52l-6 -83h-66q-11 -37 -36 -77h-57q-3 15 -12 41t-17 41
h-2q-1 -11 -5.5 -31t-10.5 -40.5t-13 -34.5h-79q-5 28 -16.5 61.5t-24.5 58.5h-2q-4 -32 -13 -70t-21 -72h-78q-4 35 -13.5 75t-23.5 70h-2q-4 -83 -43 -146t-107 -98t-160 -35z" />
    <glyph glyph-name="uni1E0C" unicode="&#x1e0c;" horiz-adv-x="663" 
d="M51 0v644h279q98 0 165 -32.5t102 -104t35 -189.5q0 -166 -76.5 -242t-225.5 -76h-279zM212 124h96q52 0 87.5 15.5t54 57.5t18.5 121q0 80 -16.5 123.5t-52 61t-91.5 17.5h-96v-396zM241 -189v109h118v-109h-118z" />
    <glyph glyph-name="uni1E0D" unicode="&#x1e0d;" horiz-adv-x="598" 
d="M250 -10q-69 0 -118 22t-75 72.5t-26 135.5q0 86 30 144.5t82.5 89t120.5 30.5q37 0 66.5 -8t55.5 -24v222h161v-674h-139l-9 40q-29 -25 -65 -37.5t-84 -12.5zM296 107q53 0 90 36v192q-34 31 -87 31q-51 0 -77.5 -38.5t-26.5 -108.5q0 -68 25.5 -90t75.5 -22zM256 -189
v109h118v-109h-118z" />
    <glyph glyph-name="uni1E0E" unicode="&#x1e0e;" horiz-adv-x="663" 
d="M51 0v644h279q98 0 165 -32.5t102 -104t35 -189.5q0 -166 -76.5 -242t-225.5 -76h-279zM212 124h96q52 0 87.5 15.5t54 57.5t18.5 121q0 80 -16.5 123.5t-52 61t-91.5 17.5h-96v-396zM143 -180v98h318v-98h-318z" />
    <glyph glyph-name="uni1E0F" unicode="&#x1e0f;" horiz-adv-x="598" 
d="M250 -10q-69 0 -118 22t-75 72.5t-26 135.5q0 86 30 144.5t82.5 89t120.5 30.5q37 0 66.5 -8t55.5 -24v222h161v-674h-139l-9 40q-29 -25 -65 -37.5t-84 -12.5zM296 107q53 0 90 36v192q-34 31 -87 31q-51 0 -77.5 -38.5t-26.5 -108.5q0 -68 25.5 -90t75.5 -22zM147 -180
v98h318v-98h-318z" />
    <glyph glyph-name="uni1E20" unicode="&#x1e20;" horiz-adv-x="647" 
d="M215 717v97h318v-97h-318zM372 -10q-167 0 -254 84.5t-87 238.5q0 161 89 251t262 90q59 0 106.5 -7t90.5 -21v-138q-43 16 -89.5 22t-95.5 6q-104 0 -151.5 -49.5t-47.5 -153.5q0 -95 45 -140.5t133 -45.5q58 0 108 16v122h-139v101h274v-319q-34 -22 -94.5 -39.5
t-149.5 -17.5z" />
    <glyph glyph-name="uni1E21" unicode="&#x1e21;" horiz-adv-x="563" 
d="M122 551v97h318v-97h-318zM255 -176q-35 0 -74 3t-74 9t-60 14v110q40 -13 96 -20t103 -7q61 0 91.5 6.5t30.5 22.5q0 14 -12 19t-47 5h-131q-64 0 -99.5 23t-35.5 67q0 30 18.5 57t54.5 40q-41 21 -62 53t-21 81q0 92 59.5 134.5t174.5 42.5q24 0 53.5 -3.5t43.5 -6.5
h182l-4 -100h-69q25 -25 25 -74q0 -69 -44.5 -111t-134.5 -42q-15 0 -29.5 1.5t-28.5 2.5q-26 -3 -44.5 -11t-18.5 -23q0 -12 9.5 -16t28.5 -4h121q73 0 113.5 -33.5t40.5 -97.5q0 -142 -256 -142zM268 236q53 0 73 18t20 60t-20.5 61t-72.5 19q-49 0 -70.5 -18.5
t-21.5 -61.5q0 -40 20 -59t72 -19z" />
    <glyph glyph-name="uni1E24" unicode="&#x1e24;" horiz-adv-x="676" 
d="M51 0v644h161v-255h252v255h161v-644h-161v255h-252v-255h-161zM279 -189v109h118v-109h-118z" />
    <glyph glyph-name="uni1E25" unicode="&#x1e25;" horiz-adv-x="595" 
d="M51 0v674h161v-235q27 20 67 32.5t86 12.5q95 0 139.5 -45t44.5 -138v-301h-161v290q0 41 -17 58t-61 17q-26 0 -53 -12t-45 -30v-323h-161zM244 -189v109h118v-109h-118z" />
    <glyph glyph-name="uni1E2A" unicode="&#x1e2a;" horiz-adv-x="676" 
d="M51 0v644h161v-255h252v255h161v-644h-161v255h-252v-255h-161zM337 -227q-77 0 -125 45t-48 127h106q0 -34 15.5 -58t51.5 -24q37 0 53 24t16 58h106q0 -82 -48.5 -127t-126.5 -45z" />
    <glyph glyph-name="uni1E2B" unicode="&#x1e2b;" horiz-adv-x="595" 
d="M51 0v674h161v-235q27 20 67 32.5t86 12.5q95 0 139.5 -45t44.5 -138v-301h-161v290q0 41 -17 58t-61 17q-26 0 -53 -12t-45 -30v-323h-161zM302 -227q-77 0 -125 45t-48 127h106q0 -34 15.5 -58t51.5 -24q37 0 53 24t16 58h106q0 -82 -48.5 -127t-126.5 -45z" />
    <glyph glyph-name="uni1E36" unicode="&#x1e36;" horiz-adv-x="527" 
d="M51 0v644h161v-520h304v-124h-465zM217 -179v109h118v-109h-118z" />
    <glyph glyph-name="uni1E37" unicode="&#x1e37;" horiz-adv-x="308" 
d="M197 -10q-78 0 -112 34t-34 109v541h161v-525q0 -23 9.5 -31.5t28.5 -8.5q27 0 48 7v-109q-23 -9 -45.5 -13t-55.5 -4zM117 -179v109h118v-109h-118z" />
    <glyph glyph-name="uni1E38" unicode="&#x1e38;" horiz-adv-x="527" 
d="M-10 717v97h318v-97h-318zM51 0v644h161v-520h304v-124h-465zM217 -179v109h118v-109h-118z" />
    <glyph glyph-name="uni1E39" unicode="&#x1e39;" horiz-adv-x="308" 
d="M-26 725v97h318v-97h-318zM197 -10q-78 0 -112 34t-34 109v541h161v-525q0 -23 9.5 -31.5t28.5 -8.5q27 0 48 7v-109q-23 -9 -45.5 -13t-55.5 -4zM117 -179v109h118v-109h-118z" />
    <glyph glyph-name="uni1E3A" unicode="&#x1e3a;" horiz-adv-x="527" 
d="M51 0v644h161v-520h304v-124h-465zM120 -168v98h318v-98h-318z" />
    <glyph glyph-name="uni1E3B" unicode="&#x1e3b;" horiz-adv-x="308" 
d="M197 -10q-78 0 -112 34t-34 109v541h161v-525q0 -23 9.5 -31.5t28.5 -8.5q27 0 48 7v-109q-23 -9 -45.5 -13t-55.5 -4zM7 -168v98h318v-98h-318z" />
    <glyph glyph-name="uni1E42" unicode="&#x1e42;" horiz-adv-x="768" 
d="M51 0v644h159l175 -357l174 357h158v-644h-161v370l-127 -260h-89l-128 260v-370h-161zM332 -179v109h118v-109h-118z" />
    <glyph glyph-name="uni1E43" unicode="&#x1e43;" horiz-adv-x="859" 
d="M51 0v474h149l5 -42q32 23 72 37.5t86 14.5q48 0 75 -14.5t42 -40.5q33 24 74.5 39.5t97.5 15.5q83 0 122 -43t39 -131v-310h-159v291q0 39 -16.5 56.5t-53.5 17.5q-23 0 -45 -9.5t-37 -26.5q2 -11 2.5 -21t0.5 -24v-284h-150v293q0 36 -12.5 54t-47.5 18q-25 0 -47 -13
t-40 -30v-322h-157zM378 -179v109h118v-109h-118z" />
    <glyph glyph-name="uni1E44" unicode="&#x1e44;" horiz-adv-x="676" 
d="M282 714v109h117v-109h-117zM51 0v644h138l274 -385v385h162v-644h-139l-274 384v-384h-161z" />
    <glyph glyph-name="uni1E45" unicode="&#x1e45;" horiz-adv-x="595" 
d="M242 548v109h117v-109h-117zM51 0v474h150l5 -41q29 20 73 35.5t94 15.5q92 0 134 -44t42 -136v-304h-161v291q0 40 -17 57t-61 17q-26 0 -53 -12t-45 -30v-323h-161z" />
    <glyph glyph-name="uni1E46" unicode="&#x1e46;" horiz-adv-x="676" 
d="M51 0v644h138l274 -385v385h162v-644h-139l-274 384v-384h-161zM280 -179v109h118v-109h-118z" />
    <glyph glyph-name="uni1E47" unicode="&#x1e47;" horiz-adv-x="595" 
d="M51 0v474h150l5 -41q29 20 73 35.5t94 15.5q92 0 134 -44t42 -136v-304h-161v291q0 40 -17 57t-61 17q-26 0 -53 -12t-45 -30v-323h-161zM248 -179v109h118v-109h-118z" />
    <glyph glyph-name="uni1E48" unicode="&#x1e48;" horiz-adv-x="676" 
d="M51 0v644h138l274 -385v385h162v-644h-139l-274 384v-384h-161zM183 -166v98h318v-98h-318z" />
    <glyph glyph-name="uni1E49" unicode="&#x1e49;" horiz-adv-x="595" 
d="M51 0v474h150l5 -41q29 20 73 35.5t94 15.5q92 0 134 -44t42 -136v-304h-161v291q0 40 -17 57t-61 17q-26 0 -53 -12t-45 -30v-323h-161zM145 -166v98h318v-98h-318z" />
    <glyph glyph-name="uni1E5A" unicode="&#x1e5a;" horiz-adv-x="626" 
d="M51 0v644h322q114 0 168 -60t54 -161q0 -65 -33 -114t-90 -73q14 -11 22.5 -24.5t18.5 -37.5l76 -174h-168l-72 164q-9 21 -23 30.5t-40 9.5h-74v-204h-161zM212 328h119q47 0 73.5 23.5t26.5 71.5q0 97 -93 97h-126v-192zM245 -179v109h118v-109h-118z" />
    <glyph glyph-name="uni1E5B" unicode="&#x1e5b;" horiz-adv-x="389" 
d="M51 0v474h153l5 -44q31 19 77 34.5t92 19.5v-121q-26 -3 -57.5 -9.5t-60 -15.5t-48.5 -19v-319h-161zM66 -179v109h118v-109h-118z" />
    <glyph glyph-name="uni1E5C" unicode="&#x1e5c;" horiz-adv-x="626" 
d="M119 717v97h318v-97h-318zM51 0v644h322q114 0 168 -60t54 -161q0 -65 -33 -114t-90 -73q14 -11 22.5 -24.5t18.5 -37.5l76 -174h-168l-72 164q-9 21 -23 30.5t-40 9.5h-74v-204h-161zM212 328h119q47 0 73.5 23.5t26.5 71.5q0 97 -93 97h-126v-192zM245 -179v109h118
v-109h-118z" />
    <glyph glyph-name="uni1E5D" unicode="&#x1e5d;" horiz-adv-x="389" 
d="M8 551v97h318v-97h-318zM51 0v474h153l5 -44q31 19 77 34.5t92 19.5v-121q-26 -3 -57.5 -9.5t-60 -15.5t-48.5 -19v-319h-161zM70 -179v109h118v-109h-118z" />
    <glyph glyph-name="uni1E5E" unicode="&#x1e5e;" horiz-adv-x="626" 
d="M51 0v644h322q114 0 168 -60t54 -161q0 -65 -33 -114t-90 -73q14 -11 22.5 -24.5t18.5 -37.5l76 -174h-168l-72 164q-9 21 -23 30.5t-40 9.5h-74v-204h-161zM212 328h119q47 0 73.5 23.5t26.5 71.5q0 97 -93 97h-126v-192zM139 -166v98h318v-98h-318z" />
    <glyph glyph-name="uni1E5F" unicode="&#x1e5f;" horiz-adv-x="389" 
d="M51 0v474h153l5 -44q31 19 77 34.5t92 19.5v-121q-26 -3 -57.5 -9.5t-60 -15.5t-48.5 -19v-319h-161zM-22 -166v98h318v-98h-318z" />
    <glyph glyph-name="uni1E60" unicode="&#x1e60;" horiz-adv-x="555" 
d="M213 714v109h117v-109h-117zM256 -10q-64 0 -119.5 9.5t-95.5 27.5v137q44 -19 97.5 -31t101.5 -12q60 0 89.5 11t29.5 48q0 25 -14.5 40t-47 26.5t-88.5 27.5q-66 20 -105 44.5t-56 59.5t-17 86q0 92 66 141t195 49q56 0 109 -8.5t86 -19.5v-138q-43 17 -86.5 25
t-84.5 8q-54 0 -87.5 -10t-33.5 -46q0 -21 12 -33.5t41.5 -22.5t80.5 -24q79 -21 121 -50.5t58 -68t16 -86.5q0 -85 -66 -137.5t-202 -52.5z" />
    <glyph glyph-name="uni1E61" unicode="&#x1e61;" horiz-adv-x="479" 
d="M173 548v109h117v-109h-117zM227 -10q-57 0 -108 8t-81 20v123q35 -15 81 -23t82 -8q43 0 62.5 4t19.5 22q0 20 -32 30t-88 29q-65 23 -98.5 53.5t-33.5 90.5q0 70 52.5 107.5t167.5 37.5q45 0 89 -7t72 -16v-121q-28 13 -64 19t-65 6q-37 0 -62.5 -4.5t-25.5 -21.5
q0 -19 28 -26.5t81 -24.5q56 -17 87 -36.5t44 -46.5t13 -68q0 -71 -56 -109t-165 -38z" />
    <glyph glyph-name="uni1E62" unicode="&#x1e62;" horiz-adv-x="555" 
d="M256 -10q-64 0 -119.5 9.5t-95.5 27.5v137q44 -19 97.5 -31t101.5 -12q60 0 89.5 11t29.5 48q0 25 -14.5 40t-47 26.5t-88.5 27.5q-66 20 -105 44.5t-56 59.5t-17 86q0 92 66 141t195 49q56 0 109 -8.5t86 -19.5v-138q-43 17 -86.5 25t-84.5 8q-54 0 -87.5 -10t-33.5 -46
q0 -21 12 -33.5t41.5 -22.5t80.5 -24q79 -21 121 -50.5t58 -68t16 -86.5q0 -85 -66 -137.5t-202 -52.5zM213 -179v109h118v-109h-118z" />
    <glyph glyph-name="uni1E63" unicode="&#x1e63;" horiz-adv-x="479" 
d="M227 -10q-57 0 -108 8t-81 20v123q35 -15 81 -23t82 -8q43 0 62.5 4t19.5 22q0 20 -32 30t-88 29q-65 23 -98.5 53.5t-33.5 90.5q0 70 52.5 107.5t167.5 37.5q45 0 89 -7t72 -16v-121q-28 13 -64 19t-65 6q-37 0 -62.5 -4.5t-25.5 -21.5q0 -19 28 -26.5t81 -24.5
q56 -17 87 -36.5t44 -46.5t13 -68q0 -71 -56 -109t-165 -38zM188 -179v109h118v-109h-118z" />
    <glyph glyph-name="uni1E6C" unicode="&#x1e6c;" horiz-adv-x="561" 
d="M200 0v520h-189v124h539v-124h-189v-520h-161zM219 -174v109h118v-109h-118z" />
    <glyph glyph-name="uni1E6D" unicode="&#x1e6d;" horiz-adv-x="374" 
d="M246 -10q-88 0 -129.5 45t-41.5 124v193h-64v122h64v99l161 43v-142h115l-7 -122h-108v-182q0 -34 17 -47.5t51 -13.5q29 0 59 10v-109q-47 -20 -117 -20zM156 -174v109h118v-109h-118z" />
    <glyph glyph-name="uni1E6E" unicode="&#x1e6e;" horiz-adv-x="561" 
d="M200 0v520h-189v124h539v-124h-189v-520h-161zM120 -161v98h318v-98h-318z" />
    <glyph glyph-name="uni1E6F" unicode="&#x1e6f;" horiz-adv-x="374" 
d="M246 -10q-88 0 -129.5 45t-41.5 124v193h-64v122h64v99l161 43v-142h115l-7 -122h-108v-182q0 -34 17 -47.5t51 -13.5q29 0 59 10v-109q-47 -20 -117 -20zM36 -161v98h318v-98h-318z" />
    <glyph glyph-name="Wgrave" unicode="&#x1e80;" horiz-adv-x="883" 
d="M370 688l-93 196h132l84 -196h-123zM181 0l-150 644h158l85 -388l88 297v91h132l111 -389l89 389h158l-149 -644h-149l-108 372l-116 -372h-149z" />
    <glyph glyph-name="wgrave" unicode="&#x1e81;" horiz-adv-x="770" 
d="M316 522l-93 196h132l84 -196h-123zM156 0l-125 474h158l64 -272l67 207v65h121l78 -272l62 272h158l-125 -474h-146l-81 246l-83 -246h-148z" />
    <glyph glyph-name="Wacute" unicode="&#x1e82;" horiz-adv-x="883" 
d="M365 688l84 196h132l-92 -196h-124zM181 0l-150 644h158l85 -388l88 297v91h132l111 -389l89 389h158l-149 -644h-149l-108 372l-116 -372h-149z" />
    <glyph glyph-name="wacute" unicode="&#x1e83;" horiz-adv-x="770" 
d="M316 522l84 196h132l-92 -196h-124zM156 0l-125 474h158l64 -272l67 207v65h121l78 -272l62 272h158l-125 -474h-146l-81 246l-83 -246h-148z" />
    <glyph glyph-name="Wdieresis" unicode="&#x1e84;" horiz-adv-x="883" 
d="M284 714v109h118v-109h-118zM490 714v109h118v-109h-118zM181 0l-150 644h158l85 -388l88 297v91h132l111 -389l89 389h158l-149 -644h-149l-108 372l-116 -372h-149z" />
    <glyph glyph-name="wdieresis" unicode="&#x1e85;" horiz-adv-x="770" 
d="M225 549v109h118v-109h-118zM431 549v109h118v-109h-118zM156 0l-125 474h158l64 -272l67 207v65h121l78 -272l62 272h158l-125 -474h-146l-81 246l-83 -246h-148z" />
    <glyph glyph-name="uni1E8E" unicode="&#x1e8e;" horiz-adv-x="686" 
d="M284 714v109h117v-109h-117zM262 0v237l-231 407h168l144 -267l144 267h168l-231 -407v-237h-162z" />
    <glyph glyph-name="uni1E8F" unicode="&#x1e8f;" horiz-adv-x="627" 
d="M266 549v109h117v-109h-117zM192 -176q-36 0 -61.5 3.5t-50.5 13.5v112q17 -6 31.5 -8t29.5 -2q41 0 61.5 14.5t41.5 51.5l-213 465h169l125 -301l123 301h168l-181 -435q-27 -65 -60 -113.5t-77 -75t-106 -26.5z" />
    <glyph glyph-name="uni1E92" unicode="&#x1e92;" horiz-adv-x="578" 
d="M31 0v82l302 434h-287v128h498v-90l-299 -430h305v-124h-519zM239 -179v109h118v-109h-118z" />
    <glyph glyph-name="uni1E93" unicode="&#x1e93;" horiz-adv-x="492" 
d="M31 0v86l219 260h-211v128h415v-94l-214 -256h221v-124h-430zM182 -179v109h118v-109h-118z" />
    <glyph glyph-name="uni1E97" unicode="&#x1e97;" horiz-adv-x="375" 
d="M17 642v109h118v-109h-118zM223 642v109h118v-109h-118zM246 -10q-88 0 -129.5 45t-41.5 124v193h-64v122h64v99l161 43v-142h115l-7 -122h-108v-182q0 -34 17 -47.5t51 -13.5q29 0 59 10v-109q-47 -20 -117 -20z" />
    <glyph glyph-name="uni1E9E" unicode="&#x1e9e;" horiz-adv-x="633" 
d="M397 -10q-82 0 -140 22v124q21 -9 49 -14t53 -5q84 0 84 69q0 32 -21.5 45.5t-59.5 13.5h-83v109l150 101q0 27 -27.5 45t-85.5 18q-61 0 -89.5 -27t-28.5 -79v-412h-152v413q0 112 70.5 176.5t199.5 64.5q93 0 151.5 -31t85.5 -82.5t27 -113.5l-145 -97h22q63 0 104 -41
t41 -109q0 -85 -55 -137.5t-150 -52.5z" />
    <glyph glyph-name="uni1EA0" unicode="&#x1ea0;" horiz-adv-x="728" 
d="M31 0l246 644h174l246 -644h-168l-58 146h-215l-57 -146h-168zM278 265h171l-86 224zM304 -179v109h118v-109h-118z" />
    <glyph glyph-name="uni1EA1" unicode="&#x1ea1;" horiz-adv-x="561" 
d="M199 -10q-45 0 -83.5 16t-61.5 49.5t-23 83.5q0 73 49.5 114.5t148.5 41.5h132v11q0 36 -24 51.5t-90 15.5q-81 0 -159 -25v104q35 14 85.5 23t106.5 9q110 0 172.5 -45t62.5 -143v-296h-141l-8 40q-26 -24 -66.5 -37t-100.5 -13zM250 89q38 0 66 13t45 33v67h-114
q-71 0 -71 -57q0 -26 18 -41t56 -15zM232 -179v109h118v-109h-118z" />
    <glyph glyph-name="uni1EA2" unicode="&#x1ea2;" horiz-adv-x="728" 
d="M303 688v81q53 3 71 14.5t18 31.5q0 19 -17 27.5t-48 8.5q-14 0 -31 -2.5t-29 -6.5v72q40 14 107 14q66 0 101 -27.5t35 -71.5q0 -43 -20.5 -64.5t-64.5 -32.5v-44h-122zM31 0l246 644h174l246 -644h-168l-58 146h-215l-57 -146h-168zM278 265h171l-86 224z" />
    <glyph glyph-name="uni1EA3" unicode="&#x1ea3;" horiz-adv-x="561" 
d="M222 521v81q53 3 71 14.5t18 31.5q0 19 -17 27.5t-48 8.5q-14 0 -31 -2.5t-29 -6.5v72q40 14 107 14q66 0 101 -27.5t35 -71.5q0 -43 -20.5 -64.5t-64.5 -32.5v-44h-122zM199 -10q-45 0 -83.5 16t-61.5 49.5t-23 83.5q0 73 49.5 114.5t148.5 41.5h132v11q0 36 -24 51.5
t-90 15.5q-81 0 -159 -25v104q35 14 85.5 23t106.5 9q110 0 172.5 -45t62.5 -143v-296h-141l-8 40q-26 -24 -66.5 -37t-100.5 -13zM250 89q38 0 66 13t45 33v67h-114q-71 0 -71 -57q0 -26 18 -41t56 -15z" />
    <glyph glyph-name="uni1EA4" unicode="&#x1ea4;" horiz-adv-x="728" 
d="M472 809l69 149h120l-75 -149h-114zM166 688l134 144h121l134 -144h-129l-65 80l-65 -80h-130zM31 0l246 644h174l246 -644h-168l-58 146h-215l-57 -146h-168zM278 265h171l-86 224z" />
    <glyph glyph-name="uni1EA5" unicode="&#x1ea5;" horiz-adv-x="561" 
d="M403 642l69 149h120l-75 -149h-114zM97 521l134 144h121l134 -144h-129l-65 80l-65 -80h-130zM199 -10q-45 0 -83.5 16t-61.5 49.5t-23 83.5q0 73 49.5 114.5t148.5 41.5h132v11q0 36 -24 51.5t-90 15.5q-81 0 -159 -25v104q35 14 85.5 23t106.5 9q110 0 172.5 -45
t62.5 -143v-296h-141l-8 40q-26 -24 -66.5 -37t-100.5 -13zM250 89q38 0 66 13t45 33v67h-114q-71 0 -71 -57q0 -26 18 -41t56 -15z" />
    <glyph glyph-name="uni1EA6" unicode="&#x1ea6;" horiz-adv-x="728" 
d="M139 809l-75 149h120l69 -149h-114zM170 688l134 144h121l134 -144h-130l-65 80l-65 -80h-129zM31 0l246 644h174l246 -644h-168l-58 146h-215l-57 -146h-168zM278 265h171l-86 224z" />
    <glyph glyph-name="uni1EA7" unicode="&#x1ea7;" horiz-adv-x="561" 
d="M69 642l-75 149h120l69 -149h-114zM100 521l134 144h121l134 -144h-130l-65 80l-65 -80h-129zM199 -10q-45 0 -83.5 16t-61.5 49.5t-23 83.5q0 73 49.5 114.5t148.5 41.5h132v11q0 36 -24 51.5t-90 15.5q-81 0 -159 -25v104q35 14 85.5 23t106.5 9q110 0 172.5 -45
t62.5 -143v-296h-141l-8 40q-26 -24 -66.5 -37t-100.5 -13zM250 89q38 0 66 13t45 33v67h-114q-71 0 -71 -57q0 -26 18 -41t56 -15z" />
    <glyph glyph-name="uni1EA8" unicode="&#x1ea8;" horiz-adv-x="728" 
d="M484 787v71q45 2 59 10.5t14 22.5q0 25 -43 25q-15 0 -28.5 -2.5t-24.5 -7.5v67q17 5 40 8.5t51 3.5q57 0 86 -22.5t29 -60.5q0 -34 -18 -55t-56 -27v-33h-109zM168 688l134 144h121l134 -144h-129l-65 80l-65 -80h-130zM31 0l246 644h174l246 -644h-168l-58 146h-215
l-57 -146h-168zM278 265h171l-86 224z" />
    <glyph glyph-name="uni1EA9" unicode="&#x1ea9;" horiz-adv-x="564" 
d="M409 620v71q45 2 59 10.5t14 22.5q0 25 -43 25q-15 0 -28.5 -2.5t-24.5 -7.5v67q17 5 40 8.5t51 3.5q57 0 86 -22.5t29 -60.5q0 -34 -18 -55t-56 -27v-33h-109zM93 521l134 144h121l134 -144h-129l-65 80l-65 -80h-130zM199 -10q-45 0 -83.5 16t-61.5 49.5t-23 83.5
q0 73 49.5 114.5t148.5 41.5h132v11q0 36 -24 51.5t-90 15.5q-81 0 -159 -25v104q35 14 85.5 23t106.5 9q110 0 172.5 -45t62.5 -143v-296h-141l-8 40q-26 -24 -66.5 -37t-100.5 -13zM250 89q38 0 66 13t45 33v67h-114q-71 0 -71 -57q0 -26 18 -41t56 -15z" />
    <glyph glyph-name="uni1EAA" unicode="&#x1eaa;" horiz-adv-x="728" 
d="M460 847q-30 0 -59 10t-56.5 20t-53.5 10q-57 0 -92 -37v91q14 14 38 23t51 9q32 0 59.5 -10t54 -20.5t55.5 -10.5t51 10.5t35 28.5v-92q-10 -13 -32 -22.5t-51 -9.5zM168 688l134 144h121l134 -144h-129l-65 80l-65 -80h-130zM31 0l246 644h174l246 -644h-168l-58 146
h-215l-57 -146h-168zM278 265h171l-86 224z" />
    <glyph glyph-name="uni1EAB" unicode="&#x1eab;" horiz-adv-x="561" 
d="M386 680q-30 0 -59 10t-56.5 20t-53.5 10q-57 0 -92 -37v91q14 14 38 23t51 9q32 0 59.5 -10t54 -20.5t55.5 -10.5t51 10.5t35 28.5v-92q-10 -13 -32 -22.5t-51 -9.5zM94 521l134 144h121l134 -144h-129l-65 80l-65 -80h-130zM199 -10q-45 0 -83.5 16t-61.5 49.5
t-23 83.5q0 73 49.5 114.5t148.5 41.5h132v11q0 36 -24 51.5t-90 15.5q-81 0 -159 -25v104q35 14 85.5 23t106.5 9q110 0 172.5 -45t62.5 -143v-296h-141l-8 40q-26 -24 -66.5 -37t-100.5 -13zM250 89q38 0 66 13t45 33v67h-114q-71 0 -71 -57q0 -26 18 -41t56 -15z" />
    <glyph glyph-name="uni1EAC" unicode="&#x1eac;" horiz-adv-x="728" 
d="M168 688l145 187h100l145 -187h-120l-75 104l-72 -104h-123zM31 0l246 644h174l246 -644h-168l-58 146h-215l-57 -146h-168zM278 265h171l-86 224zM304 -179v109h118v-109h-118z" />
    <glyph glyph-name="uni1EAD" unicode="&#x1ead;" horiz-adv-x="561" 
d="M98 521l145 187h100l145 -187h-120l-75 104l-72 -104h-123zM199 -10q-45 0 -83.5 16t-61.5 49.5t-23 83.5q0 73 49.5 114.5t148.5 41.5h132v11q0 36 -24 51.5t-90 15.5q-81 0 -159 -25v104q35 14 85.5 23t106.5 9q110 0 172.5 -45t62.5 -143v-296h-141l-8 40
q-26 -24 -66.5 -37t-100.5 -13zM250 89q38 0 66 13t45 33v67h-114q-71 0 -71 -57q0 -26 18 -41t56 -15zM235 -179v109h118v-109h-118z" />
    <glyph glyph-name="uni1EAE" unicode="&#x1eae;" horiz-adv-x="728" 
d="M309 837l66 149h113l-78 -149h-101zM364 688q-76 0 -125 38.5t-49 125.5h93q0 -39 21 -61t60 -22q38 0 59 22t21 61h92q0 -87 -48.5 -125.5t-123.5 -38.5zM31 0l246 644h174l246 -644h-168l-58 146h-215l-57 -146h-168zM278 265h171l-86 224z" />
    <glyph glyph-name="uni1EAF" unicode="&#x1eaf;" horiz-adv-x="561" 
d="M236 671l66 149h113l-78 -149h-101zM291 522q-76 0 -125 38.5t-49 125.5h93q0 -39 21 -61t60 -22q38 0 59 22t21 61h92q0 -87 -48.5 -125.5t-123.5 -38.5zM199 -10q-45 0 -83.5 16t-61.5 49.5t-23 83.5q0 73 49.5 114.5t148.5 41.5h132v11q0 36 -24 51.5t-90 15.5
q-81 0 -159 -25v104q35 14 85.5 23t106.5 9q110 0 172.5 -45t62.5 -143v-296h-141l-8 40q-26 -24 -66.5 -37t-100.5 -13zM250 89q38 0 66 13t45 33v67h-114q-71 0 -71 -57q0 -26 18 -41t56 -15z" />
    <glyph glyph-name="uni1EB0" unicode="&#x1eb0;" horiz-adv-x="728" 
d="M316 837l-78 149h114l66 -149h-102zM363 688q-75 0 -124 38.5t-49 125.5h93q0 -39 20.5 -61t59.5 -22t60 22t21 61h92q0 -87 -49 -125.5t-124 -38.5zM31 0l246 644h174l246 -644h-168l-58 146h-215l-57 -146h-168zM278 265h171l-86 224z" />
    <glyph glyph-name="uni1EB1" unicode="&#x1eb1;" horiz-adv-x="561" 
d="M245 671l-78 149h114l66 -149h-102zM292 522q-75 0 -124 38.5t-49 125.5h93q0 -39 20.5 -61t59.5 -22t60 22t21 61h92q0 -87 -49 -125.5t-124 -38.5zM199 -10q-45 0 -83.5 16t-61.5 49.5t-23 83.5q0 73 49.5 114.5t148.5 41.5h132v11q0 36 -24 51.5t-90 15.5
q-81 0 -159 -25v104q35 14 85.5 23t106.5 9q110 0 172.5 -45t62.5 -143v-296h-141l-8 40q-26 -24 -66.5 -37t-100.5 -13zM250 89q38 0 66 13t45 33v67h-114q-71 0 -71 -57q0 -26 18 -41t56 -15z" />
    <glyph glyph-name="uni1EB2" unicode="&#x1eb2;" horiz-adv-x="728" 
d="M308 844v61q44 2 60.5 12t16.5 27t-12 23.5t-37 6.5q-14 0 -27.5 -3t-24.5 -8v62q37 13 95 13q53 0 82 -23.5t29 -59.5q0 -34 -17.5 -52.5t-58.5 -27.5v-31h-106zM363 688q-75 0 -124 38.5t-49 125.5h93q0 -39 20.5 -61t59.5 -22t60 22t21 61h92q0 -87 -49 -125.5
t-124 -38.5zM31 0l246 644h174l246 -644h-168l-58 146h-215l-57 -146h-168zM278 265h171l-86 224z" />
    <glyph glyph-name="uni1EB3" unicode="&#x1eb3;" horiz-adv-x="561" 
d="M240 678v61q44 2 60.5 12t16.5 27t-12 23.5t-37 6.5q-14 0 -27.5 -3t-24.5 -8v62q37 13 95 13q53 0 82 -23.5t29 -59.5q0 -34 -17.5 -52.5t-58.5 -27.5v-31h-106zM295 522q-75 0 -124 38.5t-49 125.5h93q0 -39 20.5 -61t59.5 -22t60 22t21 61h92q0 -87 -49 -125.5
t-124 -38.5zM199 -10q-45 0 -83.5 16t-61.5 49.5t-23 83.5q0 73 49.5 114.5t148.5 41.5h132v11q0 36 -24 51.5t-90 15.5q-81 0 -159 -25v104q35 14 85.5 23t106.5 9q110 0 172.5 -45t62.5 -143v-296h-141l-8 40q-26 -24 -66.5 -37t-100.5 -13zM250 89q38 0 66 13t45 33v67
h-114q-71 0 -71 -57q0 -26 18 -41t56 -15z" />
    <glyph glyph-name="uni1EB4" unicode="&#x1eb4;" horiz-adv-x="728" 
d="M453 870q-30 0 -59 10t-56.5 20t-53.5 10q-57 0 -92 -37v91q14 14 38 23t51 9q32 0 59.5 -10t54 -20.5t55.5 -10.5t51 10.5t35 28.5v-92q-10 -13 -32 -22.5t-51 -9.5zM363 688q-75 0 -124 38.5t-49 125.5h93q0 -39 20.5 -61t59.5 -22t60 22t21 61h92q0 -87 -49 -125.5
t-124 -38.5zM31 0l246 644h174l246 -644h-168l-58 146h-215l-57 -146h-168zM278 265h171l-86 224z" />
    <glyph glyph-name="uni1EB5" unicode="&#x1eb5;" horiz-adv-x="561" 
d="M389 704q-30 0 -59 10t-56.5 20t-53.5 10q-57 0 -92 -37v91q14 14 38 23t51 9q32 0 59.5 -10t54 -20.5t55.5 -10.5t51 10.5t35 28.5v-92q-10 -13 -32 -22.5t-51 -9.5zM299 522q-75 0 -124 38.5t-49 125.5h93q0 -39 20.5 -61t59.5 -22t60 22t21 61h92q0 -87 -49 -125.5
t-124 -38.5zM199 -10q-45 0 -83.5 16t-61.5 49.5t-23 83.5q0 73 49.5 114.5t148.5 41.5h132v11q0 36 -24 51.5t-90 15.5q-81 0 -159 -25v104q35 14 85.5 23t106.5 9q110 0 172.5 -45t62.5 -143v-296h-141l-8 40q-26 -24 -66.5 -37t-100.5 -13zM250 89q38 0 66 13t45 33v67
h-114q-71 0 -71 -57q0 -26 18 -41t56 -15z" />
    <glyph glyph-name="uni1EB6" unicode="&#x1eb6;" horiz-adv-x="728" 
d="M362 688q-77 0 -125 45t-48 127h106q0 -34 15.5 -58t51.5 -24q37 0 53 24t16 58h106q0 -82 -48.5 -127t-126.5 -45zM31 0l246 644h174l246 -644h-168l-58 146h-215l-57 -146h-168zM278 265h171l-86 224zM304 -179v109h118v-109h-118z" />
    <glyph glyph-name="uni1EB7" unicode="&#x1eb7;" horiz-adv-x="561" 
d="M299 522q-77 0 -125 45t-48 127h106q0 -34 15.5 -58t51.5 -24q37 0 53 24t16 58h106q0 -82 -48.5 -127t-126.5 -45zM199 -10q-45 0 -83.5 16t-61.5 49.5t-23 83.5q0 73 49.5 114.5t148.5 41.5h132v11q0 36 -24 51.5t-90 15.5q-81 0 -159 -25v104q35 14 85.5 23t106.5 9
q110 0 172.5 -45t62.5 -143v-296h-141l-8 40q-26 -24 -66.5 -37t-100.5 -13zM250 89q38 0 66 13t45 33v67h-114q-71 0 -71 -57q0 -26 18 -41t56 -15zM244 -179v109h118v-109h-118z" />
    <glyph glyph-name="uni1EB8" unicode="&#x1eb8;" horiz-adv-x="552" 
d="M51 0v644h475v-124h-314v-135h277v-126h-277v-135h314v-124h-475zM222 -179v109h118v-109h-118z" />
    <glyph glyph-name="uni1EB9" unicode="&#x1eb9;" horiz-adv-x="547" 
d="M305 -10q-124 0 -199 61.5t-75 185.5q0 113 62 180t186 67q113 0 175 -58t62 -156v-85h-336q11 -47 51.5 -65.5t110.5 -18.5q39 0 79.5 7t67.5 18v-105q-34 -16 -81 -23.5t-103 -7.5zM180 278h196v21q0 35 -21 55.5t-71 20.5q-58 0 -81 -23.5t-23 -73.5zM226 -179v109
h118v-109h-118z" />
    <glyph glyph-name="uni1EBA" unicode="&#x1eba;" horiz-adv-x="552" 
d="M224 688v81q53 3 71 14.5t18 31.5q0 19 -17 27.5t-48 8.5q-14 0 -31 -2.5t-29 -6.5v72q40 14 107 14q66 0 101 -27.5t35 -71.5q0 -43 -20.5 -64.5t-64.5 -32.5v-44h-122zM51 0v644h475v-124h-314v-135h277v-126h-277v-135h314v-124h-475z" />
    <glyph glyph-name="uni1EBB" unicode="&#x1ebb;" horiz-adv-x="547" 
d="M221 521v81q53 3 71 14.5t18 31.5q0 19 -17 27.5t-48 8.5q-14 0 -31 -2.5t-29 -6.5v72q40 14 107 14q66 0 101 -27.5t35 -71.5q0 -43 -20.5 -64.5t-64.5 -32.5v-44h-122zM305 -10q-124 0 -199 61.5t-75 185.5q0 113 62 180t186 67q113 0 175 -58t62 -156v-85h-336
q11 -47 51.5 -65.5t110.5 -18.5q39 0 79.5 7t67.5 18v-105q-34 -16 -81 -23.5t-103 -7.5zM180 278h196v21q0 35 -21 55.5t-71 20.5q-58 0 -81 -23.5t-23 -73.5z" />
    <glyph glyph-name="uni1EBC" unicode="&#x1ebc;" horiz-adv-x="552" 
d="M381 698q-31 0 -60.5 10.5t-57 20.5t-53.5 10q-29 0 -52.5 -10t-41.5 -28v107q14 14 38.5 23t52.5 9q32 0 60 -10t55 -20.5t56 -10.5q30 0 52 10.5t35 28.5v-108q-10 -13 -32.5 -22.5t-51.5 -9.5zM51 0v644h475v-124h-314v-135h277v-126h-277v-135h314v-124h-475z" />
    <glyph glyph-name="uni1EBD" unicode="&#x1ebd;" horiz-adv-x="547" 
d="M379 532q-31 0 -60.5 10.5t-57 20.5t-53.5 10q-29 0 -52.5 -10t-41.5 -28v107q14 14 38.5 23t52.5 9q32 0 60 -10t55 -20.5t56 -10.5q30 0 52 10.5t35 28.5v-108q-10 -13 -32.5 -22.5t-51.5 -9.5zM305 -10q-124 0 -199 61.5t-75 185.5q0 113 62 180t186 67q113 0 175 -58
t62 -156v-85h-336q11 -47 51.5 -65.5t110.5 -18.5q39 0 79.5 7t67.5 18v-105q-34 -16 -81 -23.5t-103 -7.5zM180 278h196v21q0 35 -21 55.5t-71 20.5q-58 0 -81 -23.5t-23 -73.5z" />
    <glyph glyph-name="uni1EBE" unicode="&#x1ebe;" horiz-adv-x="552" 
d="M390 809l69 149h120l-75 -149h-114zM84 688l134 144h121l134 -144h-129l-65 80l-65 -80h-130zM51 0v644h475v-124h-314v-135h277v-126h-277v-135h314v-124h-475z" />
    <glyph glyph-name="uni1EBF" unicode="&#x1ebf;" horiz-adv-x="547" 
d="M392 642l69 149h120l-75 -149h-114zM86 521l134 144h121l134 -144h-129l-65 80l-65 -80h-130zM305 -10q-124 0 -199 61.5t-75 185.5q0 113 62 180t186 67q113 0 175 -58t62 -156v-85h-336q11 -47 51.5 -65.5t110.5 -18.5q39 0 79.5 7t67.5 18v-105q-34 -16 -81 -23.5
t-103 -7.5zM180 278h196v21q0 35 -21 55.5t-71 20.5q-58 0 -81 -23.5t-23 -73.5z" />
    <glyph glyph-name="uni1EC0" unicode="&#x1ec0;" horiz-adv-x="552" 
d="M61 809l-75 149h120l69 -149h-114zM92 688l134 144h121l134 -144h-130l-65 80l-65 -80h-129zM51 0v644h475v-124h-314v-135h277v-126h-277v-135h314v-124h-475z" />
    <glyph glyph-name="uni1EC1" unicode="&#x1ec1;" horiz-adv-x="547" 
d="M55 643l-75 149h120l69 -149h-114zM86 522l134 144h121l134 -144h-130l-65 80l-65 -80h-129zM305 -10q-124 0 -199 61.5t-75 185.5q0 113 62 180t186 67q113 0 175 -58t62 -156v-85h-336q11 -47 51.5 -65.5t110.5 -18.5q39 0 79.5 7t67.5 18v-105q-34 -16 -81 -23.5
t-103 -7.5zM180 278h196v21q0 35 -21 55.5t-71 20.5q-58 0 -81 -23.5t-23 -73.5z" />
    <glyph glyph-name="uni1EC2" unicode="&#x1ec2;" horiz-adv-x="552" 
d="M404 787v71q45 2 59 10.5t14 22.5q0 25 -43 25q-15 0 -28.5 -2.5t-24.5 -7.5v67q17 5 40 8.5t51 3.5q57 0 86 -22.5t29 -60.5q0 -34 -18 -55t-56 -27v-33h-109zM88 688l134 144h121l134 -144h-129l-65 80l-65 -80h-130zM51 0v644h475v-124h-314v-135h277v-126h-277v-135
h314v-124h-475z" />
    <glyph glyph-name="uni1EC3" unicode="&#x1ec3;" horiz-adv-x="547" 
d="M402 620v71q45 2 59 10.5t14 22.5q0 25 -43 25q-15 0 -28.5 -2.5t-24.5 -7.5v67q17 5 40 8.5t51 3.5q57 0 86 -22.5t29 -60.5q0 -34 -18 -55t-56 -27v-33h-109zM86 521l134 144h121l134 -144h-129l-65 80l-65 -80h-130zM305 -10q-124 0 -199 61.5t-75 185.5q0 113 62 180
t186 67q113 0 175 -58t62 -156v-85h-336q11 -47 51.5 -65.5t110.5 -18.5q39 0 79.5 7t67.5 18v-105q-34 -16 -81 -23.5t-103 -7.5zM180 278h196v21q0 35 -21 55.5t-71 20.5q-58 0 -81 -23.5t-23 -73.5z" />
    <glyph glyph-name="uni1EC4" unicode="&#x1ec4;" horiz-adv-x="552" 
d="M385 847q-30 0 -59 10t-56.5 20t-53.5 10q-57 0 -92 -37v91q14 14 38 23t51 9q32 0 59.5 -10t54 -20.5t55.5 -10.5t51 10.5t35 28.5v-92q-10 -13 -32 -22.5t-51 -9.5zM93 688l134 144h121l134 -144h-129l-65 80l-65 -80h-130zM51 0v644h475v-124h-314v-135h277v-126h-277
v-135h314v-124h-475z" />
    <glyph glyph-name="uni1EC5" unicode="&#x1ec5;" horiz-adv-x="547" 
d="M380 680q-30 0 -59 10t-56.5 20t-53.5 10q-57 0 -92 -37v91q14 14 38 23t51 9q32 0 59.5 -10t54 -20.5t55.5 -10.5t51 10.5t35 28.5v-92q-10 -13 -32 -22.5t-51 -9.5zM88 521l134 144h121l134 -144h-129l-65 80l-65 -80h-130zM305 -10q-124 0 -199 61.5t-75 185.5
q0 113 62 180t186 67q113 0 175 -58t62 -156v-85h-336q11 -47 51.5 -65.5t110.5 -18.5q39 0 79.5 7t67.5 18v-105q-34 -16 -81 -23.5t-103 -7.5zM180 278h196v21q0 35 -21 55.5t-71 20.5q-58 0 -81 -23.5t-23 -73.5z" />
    <glyph glyph-name="uni1EC6" unicode="&#x1ec6;" horiz-adv-x="552" 
d="M86 688l145 187h100l145 -187h-120l-75 104l-72 -104h-123zM51 0v644h475v-124h-314v-135h277v-126h-277v-135h314v-124h-475zM223 -179v109h118v-109h-118z" />
    <glyph glyph-name="uni1EC7" unicode="&#x1ec7;" horiz-adv-x="547" 
d="M87 521l145 187h100l145 -187h-120l-75 104l-72 -104h-123zM305 -10q-124 0 -199 61.5t-75 185.5q0 113 62 180t186 67q113 0 175 -58t62 -156v-85h-336q11 -47 51.5 -65.5t110.5 -18.5q39 0 79.5 7t67.5 18v-105q-34 -16 -81 -23.5t-103 -7.5zM180 278h196v21
q0 35 -21 55.5t-71 20.5q-58 0 -81 -23.5t-23 -73.5zM223 -179v109h118v-109h-118z" />
    <glyph glyph-name="uni1EC8" unicode="&#x1ec8;" horiz-adv-x="264" 
d="M66 688v81q53 3 71 14.5t18 31.5q0 19 -17 27.5t-48 8.5q-14 0 -31 -2.5t-29 -6.5v72q40 14 107 14q66 0 101 -27.5t35 -71.5q0 -43 -20.5 -64.5t-64.5 -32.5v-44h-122zM51 0v644h161v-644h-161z" />
    <glyph glyph-name="uni1EC9" unicode="&#x1ec9;" horiz-adv-x="334" 
d="M108 521v81q53 3 71 14.5t18 31.5q0 19 -17 27.5t-48 8.5q-14 0 -31 -2.5t-29 -6.5v72q40 14 107 14q66 0 101 -27.5t35 -71.5q0 -43 -20.5 -64.5t-64.5 -32.5v-44h-122zM121 0v355h-70l14 119h217v-474h-161z" />
    <glyph glyph-name="uni1ECA" unicode="&#x1eca;" horiz-adv-x="263" 
d="M51 0v644h161v-644h-161zM72 -179v109h118v-109h-118z" />
    <glyph glyph-name="uni1ECB" unicode="&#x1ecb;" horiz-adv-x="334" 
d="M108 549v121h175v-121h-175zM121 0v355h-70l14 119h217v-474h-161zM140 -179v109h118v-109h-118z" />
    <glyph glyph-name="uni1ECC" unicode="&#x1ecc;" horiz-adv-x="704" 
d="M352 -10q-157 0 -239 80t-82 249q0 179 82 257t239 78t239 -78t82 -257q0 -169 -82 -249t-239 -80zM352 127q81 0 118.5 46.5t37.5 145.5q0 108 -37.5 152.5t-118.5 44.5q-82 0 -119.5 -44.5t-37.5 -152.5q0 -99 37.5 -145.5t119.5 -46.5zM293 -179v109h118v-109h-118z
" />
    <glyph glyph-name="uni1ECD" unicode="&#x1ecd;" horiz-adv-x="597" 
d="M298 -10q-137 0 -202 63.5t-65 183.5q0 119 65.5 183t201.5 64q137 0 202.5 -64t65.5 -183q0 -120 -65 -183.5t-203 -63.5zM298 116q56 0 80 28t24 93t-24 93t-80 28q-55 0 -79 -28t-24 -93t24 -93t79 -28zM239 -179v109h118v-109h-118z" />
    <glyph glyph-name="uni1ECE" unicode="&#x1ece;" horiz-adv-x="704" 
d="M288 688v81q53 3 71 14.5t18 31.5q0 19 -17 27.5t-48 8.5q-14 0 -31 -2.5t-29 -6.5v72q40 14 107 14q66 0 101 -27.5t35 -71.5q0 -43 -20.5 -64.5t-64.5 -32.5v-44h-122zM352 -10q-157 0 -239 80t-82 249q0 179 82 257t239 78t239 -78t82 -257q0 -169 -82 -249t-239 -80z
M352 127q81 0 118.5 46.5t37.5 145.5q0 108 -37.5 152.5t-118.5 44.5q-82 0 -119.5 -44.5t-37.5 -152.5q0 -99 37.5 -145.5t119.5 -46.5z" />
    <glyph glyph-name="uni1ECF" unicode="&#x1ecf;" horiz-adv-x="597" 
d="M232 521v81q53 3 71 14.5t18 31.5q0 19 -17 27.5t-48 8.5q-14 0 -31 -2.5t-29 -6.5v72q40 14 107 14q66 0 101 -27.5t35 -71.5q0 -43 -20.5 -64.5t-64.5 -32.5v-44h-122zM298 -10q-137 0 -202 63.5t-65 183.5q0 119 65.5 183t201.5 64q137 0 202.5 -64t65.5 -183
q0 -120 -65 -183.5t-203 -63.5zM298 116q56 0 80 28t24 93t-24 93t-80 28q-55 0 -79 -28t-24 -93t24 -93t79 -28z" />
    <glyph glyph-name="uni1ED0" unicode="&#x1ed0;" horiz-adv-x="704" 
d="M462 809l69 149h120l-75 -149h-114zM156 688l134 144h121l134 -144h-129l-65 80l-65 -80h-130zM352 -10q-157 0 -239 80t-82 249q0 179 82 257t239 78t239 -78t82 -257q0 -169 -82 -249t-239 -80zM352 127q81 0 118.5 46.5t37.5 145.5q0 108 -37.5 152.5t-118.5 44.5
q-82 0 -119.5 -44.5t-37.5 -152.5q0 -99 37.5 -145.5t119.5 -46.5z" />
    <glyph glyph-name="uni1ED1" unicode="&#x1ed1;" horiz-adv-x="597" 
d="M409 642l69 149h120l-75 -149h-114zM103 521l134 144h121l134 -144h-129l-65 80l-65 -80h-130zM298 -10q-137 0 -202 63.5t-65 183.5q0 119 65.5 183t201.5 64q137 0 202.5 -64t65.5 -183q0 -120 -65 -183.5t-203 -63.5zM298 116q56 0 80 28t24 93t-24 93t-80 28
q-55 0 -79 -28t-24 -93t24 -93t79 -28z" />
    <glyph glyph-name="uni1ED2" unicode="&#x1ed2;" horiz-adv-x="704" 
d="M126 809l-75 149h120l69 -149h-114zM157 688l134 144h121l134 -144h-130l-65 80l-65 -80h-129zM352 -10q-157 0 -239 80t-82 249q0 179 82 257t239 78t239 -78t82 -257q0 -169 -82 -249t-239 -80zM352 127q81 0 118.5 46.5t37.5 145.5q0 108 -37.5 152.5t-118.5 44.5
q-82 0 -119.5 -44.5t-37.5 -152.5q0 -99 37.5 -145.5t119.5 -46.5z" />
    <glyph glyph-name="uni1ED3" unicode="&#x1ed3;" horiz-adv-x="597" 
d="M70 642l-75 149h120l69 -149h-114zM101 521l134 144h121l134 -144h-130l-65 80l-65 -80h-129zM298 -10q-137 0 -202 63.5t-65 183.5q0 119 65.5 183t201.5 64q137 0 202.5 -64t65.5 -183q0 -120 -65 -183.5t-203 -63.5zM298 116q56 0 80 28t24 93t-24 93t-80 28
q-55 0 -79 -28t-24 -93t24 -93t79 -28z" />
    <glyph glyph-name="uni1ED4" unicode="&#x1ed4;" horiz-adv-x="704" 
d="M472 787v71q45 2 59 10.5t14 22.5q0 25 -43 25q-15 0 -28.5 -2.5t-24.5 -7.5v67q17 5 40 8.5t51 3.5q57 0 86 -22.5t29 -60.5q0 -34 -18 -55t-56 -27v-33h-109zM156 688l134 144h121l134 -144h-129l-65 80l-65 -80h-130zM352 -10q-157 0 -239 80t-82 249q0 179 82 257
t239 78t239 -78t82 -257q0 -169 -82 -249t-239 -80zM352 127q81 0 118.5 46.5t37.5 145.5q0 108 -37.5 152.5t-118.5 44.5q-82 0 -119.5 -44.5t-37.5 -152.5q0 -99 37.5 -145.5t119.5 -46.5z" />
    <glyph glyph-name="uni1ED5" unicode="&#x1ed5;" horiz-adv-x="597" 
d="M417 620v71q45 2 59 10.5t14 22.5q0 25 -43 25q-15 0 -28.5 -2.5t-24.5 -7.5v67q17 5 40 8.5t51 3.5q57 0 86 -22.5t29 -60.5q0 -34 -18 -55t-56 -27v-33h-109zM101 521l134 144h121l134 -144h-129l-65 80l-65 -80h-130zM298 -10q-137 0 -202 63.5t-65 183.5
q0 119 65.5 183t201.5 64q137 0 202.5 -64t65.5 -183q0 -120 -65 -183.5t-203 -63.5zM298 116q56 0 80 28t24 93t-24 93t-80 28q-55 0 -79 -28t-24 -93t24 -93t79 -28z" />
    <glyph glyph-name="uni1ED6" unicode="&#x1ed6;" horiz-adv-x="704" 
d="M440 847q-30 0 -59 10t-56.5 20t-53.5 10q-57 0 -92 -37v91q14 14 38 23t51 9q32 0 59.5 -10t54 -20.5t55.5 -10.5t51 10.5t35 28.5v-92q-10 -13 -32 -22.5t-51 -9.5zM156 688l134 144h121l134 -144h-129l-65 80l-65 -80h-130zM352 -10q-157 0 -239 80t-82 249
q0 179 82 257t239 78t239 -78t82 -257q0 -169 -82 -249t-239 -80zM352 127q81 0 118.5 46.5t37.5 145.5q0 108 -37.5 152.5t-118.5 44.5q-82 0 -119.5 -44.5t-37.5 -152.5q0 -99 37.5 -145.5t119.5 -46.5z" />
    <glyph glyph-name="uni1ED7" unicode="&#x1ed7;" horiz-adv-x="597" 
d="M388 680q-30 0 -59 10t-56.5 20t-53.5 10q-57 0 -92 -37v91q14 14 38 23t51 9q32 0 59.5 -10t54 -20.5t55.5 -10.5t51 10.5t35 28.5v-92q-10 -13 -32 -22.5t-51 -9.5zM101 521l134 144h121l134 -144h-129l-65 80l-65 -80h-130zM298 -10q-137 0 -202 63.5t-65 183.5
q0 119 65.5 183t201.5 64q137 0 202.5 -64t65.5 -183q0 -120 -65 -183.5t-203 -63.5zM298 116q56 0 80 28t24 93t-24 93t-80 28q-55 0 -79 -28t-24 -93t24 -93t79 -28z" />
    <glyph glyph-name="uni1ED8" unicode="&#x1ed8;" horiz-adv-x="704" 
d="M156 689l145 187h100l145 -187h-120l-75 104l-72 -104h-123zM352 -10q-157 0 -239 80t-82 249q0 179 82 257t239 78t239 -78t82 -257q0 -169 -82 -249t-239 -80zM352 127q81 0 118.5 46.5t37.5 145.5q0 108 -37.5 152.5t-118.5 44.5q-82 0 -119.5 -44.5t-37.5 -152.5
q0 -99 37.5 -145.5t119.5 -46.5zM292 -179v109h118v-109h-118z" />
    <glyph glyph-name="uni1ED9" unicode="&#x1ed9;" horiz-adv-x="597" 
d="M103 521l145 187h100l145 -187h-120l-75 104l-72 -104h-123zM298 -10q-137 0 -202 63.5t-65 183.5q0 119 65.5 183t201.5 64q137 0 202.5 -64t65.5 -183q0 -120 -65 -183.5t-203 -63.5zM298 116q56 0 80 28t24 93t-24 93t-80 28q-55 0 -79 -28t-24 -93t24 -93t79 -28z
M239 -179v109h118v-109h-118z" />
    <glyph glyph-name="uni1EDA" unicode="&#x1eda;" horiz-adv-x="785" 
d="M291 688l84 196h132l-92 -196h-124zM352 -10q-157 0 -239 80t-82 249q0 179 82 257t239 78q146 0 224 -69q49 2 69.5 24t20.5 79h115q0 -97 -32.5 -142.5t-102.5 -59.5q27 -66 27 -167q0 -169 -82 -249t-239 -80zM352 127q81 0 118.5 46.5t37.5 145.5q0 108 -37.5 152.5
t-118.5 44.5q-82 0 -119.5 -44.5t-37.5 -152.5q0 -99 37.5 -145.5t119.5 -46.5z" />
    <glyph glyph-name="uni1EDB" unicode="&#x1edb;" horiz-adv-x="707" 
d="M232 522l84 196h132l-92 -196h-124zM298 -10q-137 0 -202 63.5t-65 183.5q0 119 65.5 183t201.5 64q65 0 113 -15t80 -42q56 0 76.5 25.5t20.5 83.5h115q0 -101 -35.5 -149.5t-112.5 -61.5q11 -41 11 -88q0 -120 -65 -183.5t-203 -63.5zM298 116q56 0 80 28t24 93t-24 93
t-80 28q-55 0 -79 -28t-24 -93t24 -93t79 -28z" />
    <glyph glyph-name="uni1EDC" unicode="&#x1edc;" horiz-adv-x="785" 
d="M307 688l-93 196h132l84 -196h-123zM352 -10q-157 0 -239 80t-82 249q0 179 82 257t239 78q146 0 224 -69q49 2 69.5 24t20.5 79h115q0 -97 -32.5 -142.5t-102.5 -59.5q27 -66 27 -167q0 -169 -82 -249t-239 -80zM352 127q81 0 118.5 46.5t37.5 145.5q0 108 -37.5 152.5
t-118.5 44.5q-82 0 -119.5 -44.5t-37.5 -152.5q0 -99 37.5 -145.5t119.5 -46.5z" />
    <glyph glyph-name="uni1EDD" unicode="&#x1edd;" horiz-adv-x="707" 
d="M245 522l-93 196h132l84 -196h-123zM298 -10q-137 0 -202 63.5t-65 183.5q0 119 65.5 183t201.5 64q65 0 113 -15t80 -42q56 0 76.5 25.5t20.5 83.5h115q0 -101 -35.5 -149.5t-112.5 -61.5q11 -41 11 -88q0 -120 -65 -183.5t-203 -63.5zM298 116q56 0 80 28t24 93t-24 93
t-80 28q-55 0 -79 -28t-24 -93t24 -93t79 -28z" />
    <glyph glyph-name="uni1EDE" unicode="&#x1ede;" horiz-adv-x="785" 
d="M291 688v81q53 3 71 14.5t18 31.5q0 19 -17 27.5t-48 8.5q-14 0 -31 -2.5t-29 -6.5v72q40 14 107 14q66 0 101 -27.5t35 -71.5q0 -43 -20.5 -64.5t-64.5 -32.5v-44h-122zM352 -10q-157 0 -239 80t-82 249q0 179 82 257t239 78q146 0 224 -69q49 2 69.5 24t20.5 79h115
q0 -97 -32.5 -142.5t-102.5 -59.5q27 -66 27 -167q0 -169 -82 -249t-239 -80zM352 127q81 0 118.5 46.5t37.5 145.5q0 108 -37.5 152.5t-118.5 44.5q-82 0 -119.5 -44.5t-37.5 -152.5q0 -99 37.5 -145.5t119.5 -46.5z" />
    <glyph glyph-name="uni1EDF" unicode="&#x1edf;" horiz-adv-x="707" 
d="M233 521v81q53 3 71 14.5t18 31.5q0 19 -17 27.5t-48 8.5q-14 0 -31 -2.5t-29 -6.5v72q40 14 107 14q66 0 101 -27.5t35 -71.5q0 -43 -20.5 -64.5t-64.5 -32.5v-44h-122zM298 -10q-137 0 -202 63.5t-65 183.5q0 119 65.5 183t201.5 64q65 0 113 -15t80 -42
q56 0 76.5 25.5t20.5 83.5h115q0 -101 -35.5 -149.5t-112.5 -61.5q11 -41 11 -88q0 -120 -65 -183.5t-203 -63.5zM298 116q56 0 80 28t24 93t-24 93t-80 28q-55 0 -79 -28t-24 -93t24 -93t79 -28z" />
    <glyph glyph-name="uni1EE0" unicode="&#x1ee0;" horiz-adv-x="785" 
d="M449 694q-31 0 -60.5 10.5t-57 20.5t-53.5 10q-29 0 -52.5 -10t-41.5 -28v107q14 14 38.5 23t52.5 9q32 0 60 -10t55 -20.5t56 -10.5q30 0 52 10.5t35 28.5v-108q-10 -13 -32.5 -22.5t-51.5 -9.5zM352 -10q-157 0 -239 80t-82 249q0 179 82 257t239 78q146 0 224 -69
q49 2 69.5 24t20.5 79h115q0 -97 -32.5 -142.5t-102.5 -59.5q27 -66 27 -167q0 -169 -82 -249t-239 -80zM352 127q81 0 118.5 46.5t37.5 145.5q0 108 -37.5 152.5t-118.5 44.5q-82 0 -119.5 -44.5t-37.5 -152.5q0 -99 37.5 -145.5t119.5 -46.5z" />
    <glyph glyph-name="uni1EE1" unicode="&#x1ee1;" horiz-adv-x="707" 
d="M393 528q-31 0 -60.5 10.5t-57 20.5t-53.5 10q-29 0 -52.5 -10t-41.5 -28v107q14 14 38.5 23t52.5 9q32 0 60 -10t55 -20.5t56 -10.5q30 0 52 10.5t35 28.5v-108q-10 -13 -32.5 -22.5t-51.5 -9.5zM298 -10q-137 0 -202 63.5t-65 183.5q0 119 65.5 183t201.5 64
q65 0 113 -15t80 -42q56 0 76.5 25.5t20.5 83.5h115q0 -101 -35.5 -149.5t-112.5 -61.5q11 -41 11 -88q0 -120 -65 -183.5t-203 -63.5zM298 116q56 0 80 28t24 93t-24 93t-80 28q-55 0 -79 -28t-24 -93t24 -93t79 -28z" />
    <glyph glyph-name="uni1EE2" unicode="&#x1ee2;" horiz-adv-x="785" 
d="M352 -10q-157 0 -239 80t-82 249q0 179 82 257t239 78q146 0 224 -69q49 2 69.5 24t20.5 79h115q0 -97 -32.5 -142.5t-102.5 -59.5q27 -66 27 -167q0 -169 -82 -249t-239 -80zM352 127q81 0 118.5 46.5t37.5 145.5q0 108 -37.5 152.5t-118.5 44.5q-82 0 -119.5 -44.5
t-37.5 -152.5q0 -99 37.5 -145.5t119.5 -46.5zM294 -179v109h118v-109h-118z" />
    <glyph glyph-name="uni1EE3" unicode="&#x1ee3;" horiz-adv-x="707" 
d="M298 -10q-137 0 -202 63.5t-65 183.5q0 119 65.5 183t201.5 64q65 0 113 -15t80 -42q56 0 76.5 25.5t20.5 83.5h115q0 -101 -35.5 -149.5t-112.5 -61.5q11 -41 11 -88q0 -120 -65 -183.5t-203 -63.5zM298 116q56 0 80 28t24 93t-24 93t-80 28q-55 0 -79 -28t-24 -93
t24 -93t79 -28zM243 -179v109h118v-109h-118z" />
    <glyph glyph-name="uni1EE4" unicode="&#x1ee4;" horiz-adv-x="684" 
d="M342 -10q-90 0 -156.5 29t-103 86t-36.5 140v399h161v-384q0 -67 35 -100t100 -33t100 33t35 100v384h161v-399q0 -83 -36.5 -140t-103 -86t-156.5 -29zM282 -179v109h118v-109h-118z" />
    <glyph glyph-name="uni1EE5" unicode="&#x1ee5;" horiz-adv-x="595" 
d="M224 -10q-84 0 -131 47.5t-47 138.5v298h161v-289q0 -40 19.5 -58.5t58.5 -18.5q29 0 55 12t43 30v324h161v-474h-150l-5 40q-29 -22 -70 -36t-95 -14zM233 -179v109h118v-109h-118z" />
    <glyph glyph-name="uni1EE6" unicode="&#x1ee6;" horiz-adv-x="684" 
d="M279 688v81q53 3 71 14.5t18 31.5q0 19 -17 27.5t-48 8.5q-14 0 -31 -2.5t-29 -6.5v72q40 14 107 14q66 0 101 -27.5t35 -71.5q0 -43 -20.5 -64.5t-64.5 -32.5v-44h-122zM342 -10q-90 0 -156.5 29t-103 86t-36.5 140v399h161v-384q0 -67 35 -100t100 -33t100 33t35 100
v384h161v-399q0 -83 -36.5 -140t-103 -86t-156.5 -29z" />
    <glyph glyph-name="uni1EE7" unicode="&#x1ee7;" horiz-adv-x="595" 
d="M234 521v81q53 3 71 14.5t18 31.5q0 19 -17 27.5t-48 8.5q-14 0 -31 -2.5t-29 -6.5v72q40 14 107 14q66 0 101 -27.5t35 -71.5q0 -43 -20.5 -64.5t-64.5 -32.5v-44h-122zM224 -10q-84 0 -131 47.5t-47 138.5v298h161v-289q0 -40 19.5 -58.5t58.5 -18.5q29 0 55 12t43 30
v324h161v-474h-150l-5 40q-29 -22 -70 -36t-95 -14z" />
    <glyph glyph-name="uni1EE8" unicode="&#x1ee8;" horiz-adv-x="834" 
d="M278 688l84 196h132l-92 -196h-124zM342 -10q-90 0 -156.5 29t-103 86t-36.5 140v399h161v-384q0 -67 35 -100t100 -33t99.5 33t34.5 100v384h162v-59q49 2 69.5 24t20.5 79h115q0 -78 -21 -123.5t-66 -65t-118 -20.5v-234q0 -83 -37 -140t-103.5 -86t-155.5 -29z" />
    <glyph glyph-name="uni1EE9" unicode="&#x1ee9;" horiz-adv-x="745" 
d="M226 522l84 196h132l-92 -196h-124zM224 -10q-84 0 -131 47.5t-47 138.5v298h161v-289q0 -40 19.5 -58.5t58.5 -18.5q29 0 54.5 12t42.5 30v324h162v-46q44 4 60.5 29.5t16.5 78.5h115q0 -114 -45 -162t-147 -53v-321h-151l-5 40q-29 -22 -69.5 -36t-94.5 -14z" />
    <glyph glyph-name="uni1EEA" unicode="&#x1eea;" horiz-adv-x="834" 
d="M288 688l-93 196h132l84 -196h-123zM342 -10q-90 0 -156.5 29t-103 86t-36.5 140v399h161v-384q0 -67 35 -100t100 -33t99.5 33t34.5 100v384h162v-59q49 2 69.5 24t20.5 79h115q0 -78 -21 -123.5t-66 -65t-118 -20.5v-234q0 -83 -37 -140t-103.5 -86t-155.5 -29z" />
    <glyph glyph-name="uni1EEB" unicode="&#x1eeb;" horiz-adv-x="745" 
d="M225 522l-93 196h132l84 -196h-123zM224 -10q-84 0 -131 47.5t-47 138.5v298h161v-289q0 -40 19.5 -58.5t58.5 -18.5q29 0 54.5 12t42.5 30v324h162v-46q44 4 60.5 29.5t16.5 78.5h115q0 -114 -45 -162t-147 -53v-321h-151l-5 40q-29 -22 -69.5 -36t-94.5 -14z" />
    <glyph glyph-name="uni1EEC" unicode="&#x1eec;" horiz-adv-x="834" 
d="M268 688v81q53 3 71 14.5t18 31.5q0 19 -17 27.5t-48 8.5q-14 0 -31 -2.5t-29 -6.5v72q40 14 107 14q66 0 101 -27.5t35 -71.5q0 -43 -20.5 -64.5t-64.5 -32.5v-44h-122zM342 -10q-90 0 -156.5 29t-103 86t-36.5 140v399h161v-384q0 -67 35 -100t100 -33t99.5 33
t34.5 100v384h162v-59q49 2 69.5 24t20.5 79h115q0 -78 -21 -123.5t-66 -65t-118 -20.5v-234q0 -83 -37 -140t-103.5 -86t-155.5 -29z" />
    <glyph glyph-name="uni1EED" unicode="&#x1eed;" horiz-adv-x="745" 
d="M221 521v81q53 3 71 14.5t18 31.5q0 19 -17 27.5t-48 8.5q-14 0 -31 -2.5t-29 -6.5v72q40 14 107 14q66 0 101 -27.5t35 -71.5q0 -43 -20.5 -64.5t-64.5 -32.5v-44h-122zM224 -10q-84 0 -131 47.5t-47 138.5v298h161v-289q0 -40 19.5 -58.5t58.5 -18.5q29 0 54.5 12
t42.5 30v324h162v-46q44 4 60.5 29.5t16.5 78.5h115q0 -114 -45 -162t-147 -53v-321h-151l-5 40q-29 -22 -69.5 -36t-94.5 -14z" />
    <glyph glyph-name="uni1EEE" unicode="&#x1eee;" horiz-adv-x="834" 
d="M435 694q-31 0 -60.5 10.5t-57 20.5t-53.5 10q-29 0 -52.5 -10t-41.5 -28v107q14 14 38.5 23t52.5 9q32 0 60 -10t55 -20.5t56 -10.5q30 0 52 10.5t35 28.5v-108q-10 -13 -32.5 -22.5t-51.5 -9.5zM342 -10q-90 0 -156.5 29t-103 86t-36.5 140v399h161v-384q0 -67 35 -100
t100 -33t99.5 33t34.5 100v384h162v-59q49 2 69.5 24t20.5 79h115q0 -78 -21 -123.5t-66 -65t-118 -20.5v-234q0 -83 -37 -140t-103.5 -86t-155.5 -29z" />
    <glyph glyph-name="uni1EEF" unicode="&#x1eef;" horiz-adv-x="745" 
d="M390 528q-31 0 -60.5 10.5t-57 20.5t-53.5 10q-29 0 -52.5 -10t-41.5 -28v107q14 14 38.5 23t52.5 9q32 0 60 -10t55 -20.5t56 -10.5q30 0 52 10.5t35 28.5v-108q-10 -13 -32.5 -22.5t-51.5 -9.5zM224 -10q-84 0 -131 47.5t-47 138.5v298h161v-289q0 -40 19.5 -58.5
t58.5 -18.5q29 0 54.5 12t42.5 30v324h162v-46q44 4 60.5 29.5t16.5 78.5h115q0 -114 -45 -162t-147 -53v-321h-151l-5 40q-29 -22 -69.5 -36t-94.5 -14z" />
    <glyph glyph-name="uni1EF0" unicode="&#x1ef0;" horiz-adv-x="834" 
d="M342 -10q-90 0 -156.5 29t-103 86t-36.5 140v399h161v-384q0 -67 35 -100t100 -33t99.5 33t34.5 100v384h162v-59q49 2 69.5 24t20.5 79h115q0 -78 -21 -123.5t-66 -65t-118 -20.5v-234q0 -83 -37 -140t-103.5 -86t-155.5 -29zM284 -179v109h118v-109h-118z" />
    <glyph glyph-name="uni1EF1" unicode="&#x1ef1;" horiz-adv-x="745" 
d="M224 -10q-84 0 -131 47.5t-47 138.5v298h161v-289q0 -40 19.5 -58.5t58.5 -18.5q29 0 54.5 12t42.5 30v324h162v-46q44 4 60.5 29.5t16.5 78.5h115q0 -114 -45 -162t-147 -53v-321h-151l-5 40q-29 -22 -69.5 -36t-94.5 -14zM237 -179v109h118v-109h-118z" />
    <glyph glyph-name="Ygrave" unicode="&#x1ef2;" horiz-adv-x="686" 
d="M283 688l-93 196h132l84 -196h-123zM262 0v237l-231 407h168l144 -267l144 267h168l-231 -407v-237h-162z" />
    <glyph glyph-name="ygrave" unicode="&#x1ef3;" horiz-adv-x="627" 
d="M262 522l-93 196h132l84 -196h-123zM192 -176q-36 0 -61.5 3.5t-50.5 13.5v112q17 -6 31.5 -8t29.5 -2q41 0 61.5 14.5t41.5 51.5l-213 465h169l125 -301l123 301h168l-181 -435q-27 -65 -60 -113.5t-77 -75t-106 -26.5z" />
    <glyph glyph-name="uni1EF4" unicode="&#x1ef4;" horiz-adv-x="686" 
d="M262 0v237l-231 407h168l144 -267l144 267h168l-231 -407v-237h-162zM284 -173v109h118v-109h-118z" />
    <glyph glyph-name="uni1EF5" unicode="&#x1ef5;" horiz-adv-x="627" 
d="M192 -176q-36 0 -61.5 3.5t-50.5 13.5v112q17 -6 31.5 -8t29.5 -2q41 0 61.5 14.5t41.5 51.5l-213 465h169l125 -301l123 301h168l-181 -435q-27 -65 -60 -113.5t-77 -75t-106 -26.5zM430 -174v109h118v-109h-118z" />
    <glyph glyph-name="uni1EF6" unicode="&#x1ef6;" horiz-adv-x="686" 
d="M277 688v81q53 3 71 14.5t18 31.5q0 19 -17 27.5t-48 8.5q-14 0 -31 -2.5t-29 -6.5v72q40 14 107 14q66 0 101 -27.5t35 -71.5q0 -43 -20.5 -64.5t-64.5 -32.5v-44h-122zM262 0v237l-231 407h168l144 -267l144 267h168l-231 -407v-237h-162z" />
    <glyph glyph-name="uni1EF7" unicode="&#x1ef7;" horiz-adv-x="627" 
d="M264 521v81q53 3 71 14.5t18 31.5q0 19 -17 27.5t-48 8.5q-14 0 -31 -2.5t-29 -6.5v72q40 14 107 14q66 0 101 -27.5t35 -71.5q0 -43 -20.5 -64.5t-64.5 -32.5v-44h-122zM192 -176q-36 0 -61.5 3.5t-50.5 13.5v112q17 -6 31.5 -8t29.5 -2q41 0 61.5 14.5t41.5 51.5
l-213 465h169l125 -301l123 301h168l-181 -435q-27 -65 -60 -113.5t-77 -75t-106 -26.5z" />
    <glyph glyph-name="uni1EF8" unicode="&#x1ef8;" horiz-adv-x="686" 
d="M433 698q-31 0 -60.5 10.5t-57 20.5t-53.5 10q-29 0 -52.5 -10t-41.5 -28v107q14 14 38.5 23t52.5 9q32 0 60 -10t55 -20.5t56 -10.5q30 0 52 10.5t35 28.5v-108q-10 -13 -32.5 -22.5t-51.5 -9.5zM262 0v237l-231 407h168l144 -267l144 267h168l-231 -407v-237h-162z" />
    <glyph glyph-name="uni1EF9" unicode="&#x1ef9;" horiz-adv-x="627" 
d="M415 532q-31 0 -60.5 10.5t-57 20.5t-53.5 10q-29 0 -52.5 -10t-41.5 -28v107q14 14 38.5 23t52.5 9q32 0 60 -10t55 -20.5t56 -10.5q30 0 52 10.5t35 28.5v-108q-10 -13 -32.5 -22.5t-51.5 -9.5zM192 -176q-36 0 -61.5 3.5t-50.5 13.5v112q17 -6 31.5 -8t29.5 -2
q41 0 61.5 14.5t41.5 51.5l-213 465h169l125 -301l123 301h168l-181 -435q-27 -65 -60 -113.5t-77 -75t-106 -26.5z" />
    <glyph glyph-name="uni2007" unicode="&#x2007;" horiz-adv-x="661" 
 />
    <glyph glyph-name="uni2010" unicode="&#x2010;" horiz-adv-x="490" 
d="M31 215v125h428v-125h-428z" />
    <glyph glyph-name="figuredash" unicode="&#x2012;" horiz-adv-x="583" 
d="M31 215v125h521v-125h-521z" />
    <glyph glyph-name="endash" unicode="&#x2013;" horiz-adv-x="557" 
d="M31 215v125h495v-125h-495z" />
    <glyph glyph-name="emdash" unicode="&#x2014;" horiz-adv-x="820" 
d="M31 215v125h758v-125h-758z" />
    <glyph glyph-name="uni2015" unicode="&#x2015;" horiz-adv-x="863" 
d="M31 215v125h801v-125h-801z" />
    <glyph glyph-name="quoteleft" unicode="&#x2018;" horiz-adv-x="257" 
d="M31 436l74 218h121l-59 -218h-136z" />
    <glyph glyph-name="quoteright" unicode="&#x2019;" horiz-adv-x="257" 
d="M31 436l59 218h136l-74 -218h-121z" />
    <glyph glyph-name="quotesinglbase" unicode="&#x201a;" horiz-adv-x="257" 
d="M31 -185l59 218h136l-74 -218h-121z" />
    <glyph glyph-name="quotedblleft" unicode="&#x201c;" horiz-adv-x="412" 
d="M31 436l74 218h109l-59 -218h-124zM198 436l74 218h108l-58 -218h-124z" />
    <glyph glyph-name="quotedblright" unicode="&#x201d;" horiz-adv-x="412" 
d="M31 436l59 218h124l-74 -218h-109zM198 436l58 218h124l-74 -218h-108z" />
    <glyph glyph-name="quotedblbase" unicode="&#x201e;" horiz-adv-x="412" 
d="M31 -106l59 217h124l-74 -217h-109zM198 -106l58 217h124l-74 -217h-108z" />
    <glyph glyph-name="dagger" unicode="&#x2020;" horiz-adv-x="556" 
d="M198 0l4 394l-171 -4v123l171 -4l-7 191h166l-7 -191l171 4v-123l-171 4l4 -394h-160z" />
    <glyph glyph-name="daggerdbl" unicode="&#x2021;" horiz-adv-x="556" 
d="M198 0l4 164l-171 -1v119l171 -2l-7 70l7 69l-171 -1v118l171 -2l-7 166h166l-7 -166l171 2v-118l-171 1l7 -69l-7 -70l171 2v-119l-171 1l4 -164h-160z" />
    <glyph glyph-name="bullet" unicode="&#x2022;" horiz-adv-x="325" 
d="M162 156q-37 0 -66.5 17.5t-47 47t-17.5 66.5t17.5 66.5t47 47.5t66.5 18t66.5 -18t47.5 -47.5t18 -66.5t-18 -66.5t-47.5 -47t-66.5 -17.5z" />
    <glyph glyph-name="ellipsis" unicode="&#x2026;" horiz-adv-x="602" 
d="M442 0v118h129v-118h-129zM31 0v118h129v-118h-129zM237 0v118h128v-118h-128z" />
    <glyph glyph-name="perthousand" unicode="&#x2030;" horiz-adv-x="1083" 
d="M179 349q-73 0 -110.5 41t-37.5 105q0 74 37.5 116.5t110.5 42.5q74 0 111.5 -42.5t37.5 -116.5q0 -64 -37.5 -105t-111.5 -41zM133 0l337 644h153l-338 -644h-152zM179 437q32 0 45.5 16.5t13.5 44.5q0 68 -59 68q-58 0 -58 -68q0 -28 13.5 -44.5t44.5 -16.5zM577 -10
q-73 0 -110.5 40.5t-37.5 104.5q0 74 37.5 116.5t110.5 42.5q74 0 111.5 -42.5t37.5 -116.5q0 -64 -37.5 -104.5t-111.5 -40.5zM903 -10q-73 0 -111 40.5t-38 104.5q0 74 38 116.5t111 42.5t110.5 -42.5t37.5 -116.5q0 -64 -37.5 -104.5t-110.5 -40.5zM577 77
q32 0 45.5 16.5t13.5 44.5q0 68 -59 68q-58 0 -58 -68q0 -28 13.5 -44.5t44.5 -16.5zM903 77q32 0 45.5 16.5t13.5 44.5q0 68 -59 68t-59 -68q0 -28 14 -44.5t45 -16.5z" />
    <glyph glyph-name="minute" unicode="&#x2032;" horiz-adv-x="196" 
d="M31 431v213h134l-15 -213h-119z" />
    <glyph glyph-name="second" unicode="&#x2033;" horiz-adv-x="382" 
d="M217 431v213h134l-15 -213h-119zM31 431v213h134l-15 -213h-119z" />
    <glyph glyph-name="guilsinglleft" unicode="&#x2039;" horiz-adv-x="390" 
d="M297 58l-266 196v61l266 196l61 -90l-184 -137l184 -137z" />
    <glyph glyph-name="guilsinglright" unicode="&#x203a;" horiz-adv-x="390" 
d="M92 58l-61 89l184 137l-184 137l61 90l266 -196v-61z" />
    <glyph glyph-name="fraction" unicode="&#x2044;" horiz-adv-x="184" 
d="M-149 0l317 662h165l-317 -662h-165z" />
    <glyph glyph-name="uni2070" unicode="&#x2070;" horiz-adv-x="365" 
d="M182 362q-78 0 -115.5 38t-37.5 105q0 71 36.5 110t116.5 39q81 0 117.5 -39t36.5 -110q0 -67 -37.5 -105t-116.5 -38zM182 441q29 0 40 15.5t11 48.5q0 37 -10.5 53.5t-40.5 16.5q-29 0 -39.5 -16.5t-10.5 -53.5q0 -33 11 -48.5t39 -15.5z" />
    <glyph glyph-name="uni2074" unicode="&#x2074;" horiz-adv-x="295" 
d="M144 370v46h-133v70l132 168h111v-164h29v-74h-29v-46h-110zM110 490h62v81z" />
    <glyph glyph-name="uni2075" unicode="&#x2075;" horiz-adv-x="303" 
d="M130 362q-25 0 -53.5 3.5t-45.5 10.5v71q15 -7 36.5 -10.5t37.5 -3.5q31 0 44.5 7t13.5 21q0 16 -11.5 22t-37.5 6h-82v50l7 105h214l-5 -69h-115l-2 -27h36q104 0 104 -88q0 -43 -34 -70.5t-107 -27.5z" />
    <glyph glyph-name="uni2076" unicode="&#x2076;" horiz-adv-x="319" 
d="M161 362q-58 0 -94 28t-36 85v56q0 56 37.5 89.5t105.5 33.5q23 0 47 -3t39 -9v-68q-14 6 -35.5 9t-41.5 3q-31 0 -48 -11t-17 -28v-5q13 10 30.5 14.5t34.5 4.5q56 0 80.5 -24.5t24.5 -74.5q0 -47 -31 -73.5t-96 -26.5zM160 426q22 0 30.5 9t8.5 26t-7.5 26t-30.5 9
q-21 0 -43 -15v-16q0 -39 42 -39z" />
    <glyph glyph-name="uni2077" unicode="&#x2077;" horiz-adv-x="290" 
d="M63 370l84 192h-126v82h248v-62l-92 -212h-114z" />
    <glyph glyph-name="uni2078" unicode="&#x2078;" horiz-adv-x="333" 
d="M166 362q-60 0 -97.5 21.5t-37.5 63.5q0 45 39 65q-17 10 -24.5 25t-7.5 33q0 42 34.5 63t93.5 21t93.5 -21t34.5 -63q0 -18 -7 -33.5t-25 -27.5q40 -20 40 -62t-38 -63.5t-98 -21.5zM176 535q17 6 22 12.5t5 20.5q0 27 -37 27t-37 -27q0 -23 23 -28zM166 420q44 0 44 29
q0 12 -7 18t-24 10l-27 6q-13 -4 -21 -10.5t-8 -22.5q0 -30 43 -30z" />
    <glyph glyph-name="uni2079" unicode="&#x2079;" horiz-adv-x="319" 
d="M145 362q-23 0 -47 3t-39 8v68q14 -5 35.5 -8t41.5 -3q31 0 48 11t17 27v5q-27 -19 -62 -19q-56 0 -82 25t-26 75q0 47 32 73.5t96 26.5q62 0 95.5 -28.5t33.5 -85.5v-56q0 -55 -37.5 -88.5t-105.5 -33.5zM157 519q12 0 23 4t21 11v16q0 40 -42 40q-22 0 -31 -9.5
t-9 -26.5t8 -26t30 -9z" />
    <glyph glyph-name="uni207D" unicode="&#x207d;" horiz-adv-x="224" 
d="M85 352q-26 29 -40 71.5t-14 90.5q0 47 14 90t40 72h108q-34 -33 -48.5 -75.5t-14.5 -86.5q0 -46 14.5 -88t48.5 -74h-108z" />
    <glyph glyph-name="uni207E" unicode="&#x207e;" horiz-adv-x="224" 
d="M31 352q34 32 48.5 74t14.5 88q0 44 -14.5 86.5t-48.5 75.5h108q26 -29 40 -72t14 -90q0 -48 -14 -90.5t-40 -71.5h-108z" />
    <glyph glyph-name="uni207F" unicode="&#x207f;" horiz-adv-x="350" 
d="M36 386v262h87l2 -22q41 27 101 27q44 0 68.5 -24.5t24.5 -71.5v-171h-93v156q0 22 -9 31t-31 9q-13 0 -30 -6t-27 -16v-174h-93z" />
    <glyph glyph-name="uni2080" unicode="&#x2080;" horiz-adv-x="365" 
d="M182 -128q-78 0 -115.5 38t-37.5 105q0 71 36.5 110t116.5 39q81 0 117.5 -39t36.5 -110q0 -67 -37.5 -105t-116.5 -38zM182 -49q29 0 40 15.5t11 48.5q0 37 -10.5 53.5t-40.5 16.5q-29 0 -39.5 -16.5t-10.5 -53.5q0 -33 11 -48.5t39 -15.5z" />
    <glyph glyph-name="uni2081" unicode="&#x2081;" horiz-adv-x="219" 
d="M83 -120v176l-63 -12v85l177 35v-284h-114z" />
    <glyph glyph-name="uni2082" unicode="&#x2082;" horiz-adv-x="304" 
d="M31 -120v48q15 22 31 35.5t38 30.5q32 25 43.5 35.5t11.5 23.5q0 28 -47 28q-16 0 -35 -4.5t-36 -11.5v80q17 7 49.5 13t63.5 6q59 0 90 -24.5t31 -61.5q0 -27 -10.5 -44.5t-33.5 -39.5q-13 -11 -21 -17t-19 -17h86v-80h-242z" />
    <glyph glyph-name="uni2083" unicode="&#x2083;" horiz-adv-x="308" 
d="M138 -128q-15 0 -36.5 2t-40.5 5t-30 7v69q18 -8 38.5 -11.5t38.5 -3.5q29 0 41.5 5.5t12.5 18.5q0 25 -46 25h-44l5 59h37q42 0 42 26q0 11 -13 15.5t-36 4.5q-40 0 -72 -15v70q16 5 45.5 10t57.5 5q71 0 102 -24t31 -59q0 -20 -8 -36.5t-25 -26.5q39 -13 39 -59
q0 -87 -139 -87z" />
    <glyph glyph-name="uni2084" unicode="&#x2084;" horiz-adv-x="295" 
d="M144 -120v46h-133v70l132 168h111v-164h29v-74h-29v-46h-110zM110 0h62v81z" />
    <glyph glyph-name="uni2085" unicode="&#x2085;" horiz-adv-x="303" 
d="M130 -128q-25 0 -53.5 3.5t-45.5 10.5v71q15 -7 36.5 -10.5t37.5 -3.5q31 0 44.5 7t13.5 21q0 16 -11.5 22t-37.5 6h-82v50l7 105h214l-5 -69h-115l-2 -27h36q104 0 104 -88q0 -43 -34 -70.5t-107 -27.5z" />
    <glyph glyph-name="uni2086" unicode="&#x2086;" horiz-adv-x="319" 
d="M161 -128q-58 0 -94 28t-36 85v56q0 56 37.5 89.5t105.5 33.5q23 0 47 -3t39 -9v-68q-14 6 -35.5 9t-41.5 3q-31 0 -48 -11t-17 -28v-5q13 10 30.5 14.5t34.5 4.5q56 0 80.5 -24.5t24.5 -74.5q0 -47 -31 -73.5t-96 -26.5zM160 -64q22 0 30.5 9t8.5 26t-7.5 26t-30.5 9
q-21 0 -43 -15v-16q0 -39 42 -39z" />
    <glyph glyph-name="uni2087" unicode="&#x2087;" horiz-adv-x="290" 
d="M63 -120l84 192h-126v82h248v-62l-92 -212h-114z" />
    <glyph glyph-name="uni2088" unicode="&#x2088;" horiz-adv-x="333" 
d="M166 -128q-60 0 -97.5 21.5t-37.5 63.5q0 45 39 65q-17 10 -24.5 25t-7.5 33q0 42 34.5 63t93.5 21t93.5 -21t34.5 -63q0 -18 -7 -33.5t-25 -27.5q40 -20 40 -62t-38 -63.5t-98 -21.5zM176 45q17 6 22 12.5t5 20.5q0 27 -37 27t-37 -27q0 -23 23 -28zM166 -70q44 0 44 29
q0 12 -7 18t-24 10l-27 6q-13 -4 -21 -10.5t-8 -22.5q0 -30 43 -30z" />
    <glyph glyph-name="uni2089" unicode="&#x2089;" horiz-adv-x="319" 
d="M145 -128q-23 0 -47 3t-39 8v68q14 -5 35.5 -8t41.5 -3q31 0 48 11t17 27v5q-27 -19 -62 -19q-56 0 -82 25t-26 75q0 47 32 73.5t96 26.5q62 0 95.5 -28.5t33.5 -85.5v-56q0 -55 -37.5 -88.5t-105.5 -33.5zM157 29q12 0 23 4t21 11v16q0 40 -42 40q-22 0 -31 -9.5
t-9 -26.5t8 -26t30 -9z" />
    <glyph glyph-name="uni208D" unicode="&#x208d;" horiz-adv-x="224" 
d="M85 -146q-26 29 -40 71.5t-14 90.5q0 47 14 90t40 72h108q-34 -33 -48.5 -75.5t-14.5 -86.5q0 -46 14.5 -88t48.5 -74h-108z" />
    <glyph glyph-name="uni208E" unicode="&#x208e;" horiz-adv-x="224" 
d="M31 -146q34 32 48.5 74t14.5 88q0 44 -14.5 86.5t-48.5 75.5h108q26 -29 40 -72t14 -90q0 -48 -14 -90.5t-40 -71.5h-108z" />
    <glyph glyph-name="colonmonetary" unicode="&#x20a1;" horiz-adv-x="579" 
d="M124 -31l26 102q-54 32 -83.5 91t-29.5 149q0 146 65.5 218.5t185.5 82.5l15 59h80l-15 -58q26 -2 50 -6l16 64h80l-21 -82q5 -1 9.5 -3t9.5 -4v-118q-12 5 -23.5 9t-23.5 8l-85 -336q65 6 133 33v-119q-38 -13 -76.5 -20.5t-86.5 -8.5l-15 -61h-80l16 64q-25 3 -49 9
l-18 -73h-80zM300 146l89 350q-22 3 -47 3h-3l-87 -340q19 -8 48 -13zM188 222l67 262q-43 -18 -62 -60.5t-19 -112.5q0 -27 3.5 -49t10.5 -40z" />
    <glyph glyph-name="lira" unicode="&#x20a4;" horiz-adv-x="489" 
d="M31 0v121h23q27 0 37 16t11 42h-64v97h64v35h-64v97h64v45q0 89 44.5 145t140.5 56q41 0 72.5 -6.5t56.5 -17.5v-107q-14 7 -35 10t-41 3q-49 0 -63 -22t-14 -66v-40h151l-6 -97h-145v-35h151l-6 -97h-145q0 -39 -22 -58h217v-121h-427z" />
    <glyph glyph-name="uni20A6" unicode="&#x20a6;" horiz-adv-x="682" 
d="M88 0v162h-57v102h57v76h-57v102h57v202h139l205 -384v384h161v-202h57v-102h-57v-76h57v-102h-57v-162h-139l-204 382v-382h-162z" />
    <glyph glyph-name="peseta" unicode="&#x20a7;" horiz-adv-x="1301" 
d="M727 -10q-89 0 -130.5 45t-41.5 124v80h-113q-28 -25 -67.5 -38.5t-86.5 -13.5h-76v-187h-161v644h241q77 0 126.5 -30.5t73.5 -82.5t24 -117q0 -30 -6 -57h45v117l162 35v-152h114l-3 -118h-111v-70q0 -63 67 -63q29 0 59 10v-106q-47 -20 -116 -20zM212 313h42
q50 0 75 27.5t25 73.5q0 50 -24 77t-74 27h-44v-205zM1049 -10q-57 0 -107.5 8t-80.5 20v123q35 -15 81 -23t82 -8q43 0 62.5 4t19.5 22q0 20 -32.5 30t-88.5 29q-65 23 -98.5 53.5t-33.5 90.5q0 70 53 107.5t168 37.5q44 0 88 -7t72 -16v-121q-28 13 -63.5 19t-64.5 6
q-37 0 -62.5 -4.5t-25.5 -21.5q0 -19 28 -26.5t81 -24.5q55 -17 86 -36.5t44 -46.5t13 -68q0 -71 -55.5 -109t-165.5 -38z" />
    <glyph glyph-name="dong" unicode="&#x20ab;" horiz-adv-x="583" 
d="M250 -10q-97 0 -158 58t-61 185q0 86 29.5 141.5t80.5 82.5t116 27q76 0 129 -32v69h-150v102h150v51h161v-51h30v-102h-30v-521h-139l-9 40q-29 -25 -65 -37.5t-84 -12.5zM296 107q53 0 90 36v192q-34 31 -87 31q-51 0 -77.5 -32t-26.5 -102q0 -68 25.5 -96.5
t75.5 -28.5zM70 -161v114h460v-114h-460z" />
    <glyph glyph-name="Euro" unicode="&#x20ac;" horiz-adv-x="583" 
d="M390 -10q-136 0 -208.5 55.5t-96.5 152.5h-64v85h52v61h-52v85h62q22 104 93.5 164.5t211.5 60.5q56 0 94.5 -9t78.5 -24v-139q-41 19 -76.5 26.5t-85.5 7.5q-66 0 -100.5 -21.5t-48.5 -65.5h167v-85h-180v-61h180v-85h-164q17 -37 52 -54t97 -17q48 0 82 7t78 25v-139
q-27 -10 -51.5 -16.5t-53 -10t-67.5 -3.5z" />
    <glyph glyph-name="uni20B1" unicode="&#x20b1;" horiz-adv-x="623" 
d="M57 0v331h-35v80h35v24h-35v80h35v129h272q83 0 134 -35.5t72 -93.5h54v-80h-39v-24h39v-80h-55q-24 -60 -78 -94.5t-131 -34.5h-133v-202h-135zM187 515h199q-14 13 -33.5 20t-45.5 7h-120v-27zM187 411h231q0 2 0.5 5t0.5 6v6t-1 7h-231v-24zM187 304h115q49 0 81 27
h-196v-27z" />
    <glyph glyph-name="uni20B2" unicode="&#x20b2;" horiz-adv-x="647" 
d="M315 -120v113q-136 13 -207 96.5t-71 221.5q0 145 69.5 234t208.5 105v85h99v-82q44 -2 82.5 -8.5t72.5 -17.5v-116q-36 13 -75 19.5t-80 7.5v-178h193v-315q-28 -18 -76 -33t-117 -20v-112h-99zM315 108v424q-76 -16 -108.5 -71t-32.5 -150q0 -176 141 -203zM414 106
q45 6 79 18v150h-79v-168z" />
    <glyph glyph-name="uni20B5" unicode="&#x20b5;" horiz-adv-x="603" 
d="M292 -120v117q-124 20 -189.5 104t-65.5 215q0 140 64 226t191 106v87h99v-81q50 -1 92 -9.5t79 -22.5v-118q-81 32 -171 35v-435q44 1 88 9.5t84 24.5v-119q-37 -13 -79.5 -20t-92.5 -9v-110h-99zM292 116v411q-62 -19 -90 -72t-28 -139q0 -161 118 -200z" />
    <glyph glyph-name="uni20B9" unicode="&#x20b9;" horiz-adv-x="456" 
d="M193 0l-66 153q-13 30 -33 42.5t-63 12.5v94h59q48 0 80 17t36 63h-174v96h173q-8 34 -35.5 51.5t-69.5 17.5h-69v97h394v-97h-96q15 -12 24 -30t13 -39h59v-96h-58q-7 -56 -41 -91t-93 -53q26 -15 37 -32.5t24 -46.5l67 -159h-168z" />
    <glyph glyph-name="uni20BA" unicode="&#x20ba;" horiz-adv-x="584" 
d="M116 0v292l-79 -26v72l79 26v66l-79 -26v72l79 26v142h127v-100l168 56v-71l-168 -56v-67l168 56v-71l-168 -56v-241q174 9 174 177v55h128v-42q0 -142 -84 -213t-239 -71h-106z" />
    <glyph glyph-name="uni20BD" unicode="&#x20bd;" horiz-adv-x="647" 
d="M84 0v63h-53v117h53v46h-53v120h53v298h305q116 0 171 -56.5t55 -154.5q0 -100 -64.5 -153.5t-170.5 -53.5h-134v-46h106v-117h-106v-63h-162zM246 346h103q51 0 77 19.5t26 65.5q0 49 -24 71t-74 22h-108v-178z" />
    <glyph glyph-name="uni210A" unicode="&#x210a;" horiz-adv-x="599" 
d="M252 -176q-16 0 -42 1.5t-51 4t-39 4.5v119q20 -6 52 -9.5t54 -3.5q86 0 123 16t37 57v18q-53 -34 -133 -34q-63 0 -113.5 20.5t-79.5 69.5t-29 133q0 85 30 144t81 89.5t115 30.5q50 0 83.5 -13.5t58.5 -37.5l9 41h139v-431q0 -63 -31 -112.5t-96 -78t-168 -28.5z
M298 114q28 0 49.5 8t38.5 23v185q-32 36 -87 36q-56 0 -80 -36.5t-24 -108.5q0 -62 22.5 -84.5t80.5 -22.5z" />
    <glyph glyph-name="uni2113" unicode="&#x2113;" horiz-adv-x="431" 
d="M251 -10q-86 0 -130.5 47.5t-44.5 124.5v111q-13 -4 -31 -10t-38 -11v123q20 5 36.5 10t32.5 14v173q0 87 43.5 132.5t122.5 45.5q80 0 118 -48t38 -122q0 -65 -23.5 -114t-62.5 -84t-87 -60v-166q0 -25 8 -40t29 -15q26 0 34.5 18t8.5 52h112q0 -34 -5.5 -66.5
t-22.5 -58.5t-50 -41t-88 -15zM202 451q41 27 58 54t17 61q0 24 -7.5 42.5t-29.5 18.5q-23 0 -30.5 -17t-7.5 -49v-110z" />
    <glyph glyph-name="uni2117" unicode="&#x2117;" horiz-adv-x="726" 
d="M363 -10q-69 0 -129 26t-105.5 71.5t-71.5 105.5t-26 129t26 129t71.5 105.5t105.5 71.5t129 26t129 -26t105.5 -71.5t71.5 -105.5t26 -129t-26 -129t-71.5 -105.5t-105.5 -71.5t-129 -26zM363 75q69 0 123.5 32t86.5 87.5t32 127.5t-32 127.5t-86.5 87t-123.5 31.5
q-68 0 -123 -31.5t-87 -87t-32 -127.5t32 -127.5t87 -87.5t123 -32zM234 135v374h187q64 0 95.5 -36t31.5 -91t-33.5 -91.5t-94.5 -36.5h-97v-119h-89zM323 325h55q38 0 59.5 9.5t21.5 47.5q0 32 -16 44t-48 12h-72v-113z" />
    <glyph glyph-name="uni2120" unicode="&#x2120;" horiz-adv-x="662" 
d="M163 360q-34 0 -64.5 4.5t-47.5 11.5v73q21 -10 47 -14.5t49 -4.5q17 0 31.5 2.5t14.5 13.5t-15 16.5t-42 15.5q-50 19 -70 37t-20 52q0 41 32 64t99 23q26 0 54.5 -4t44.5 -9v-72q-16 6 -37.5 10t-37.5 4q-22 0 -38 -3t-16 -14q0 -10 16 -16t45 -16q34 -10 60 -28.5
t26 -59.5q0 -31 -18.5 -50t-48 -27.5t-64.5 -8.5zM312 362v282h87l76 -139l76 139h87v-282h-93v133l-50 -109h-39l-51 109v-133h-93z" />
    <glyph glyph-name="trademark" unicode="&#x2122;" horiz-adv-x="676" 
d="M318 362v282h87l76 -139l76 139h87v-282h-93v133l-50 -109h-39l-51 109v-133h-93zM115 362v193h-84v89h265v-89h-84v-193h-97z" />
    <glyph glyph-name="uni2126" unicode="&#x2126;" horiz-adv-x="752" 
d="M38 0v122h114q-59 41 -90 102t-31 143q0 99 40.5 172.5t117.5 114.5t187 41t187 -41t117.5 -114.5t40.5 -172.5q0 -82 -31 -143t-90 -102h114v-122h-297v126q73 42 106.5 99t33.5 132q0 91 -48 145.5t-133 54.5t-133 -54.5t-48 -145.5q0 -75 33.5 -132t106.5 -99v-126
h-297z" />
    <glyph glyph-name="estimated" unicode="&#x212e;" horiz-adv-x="762" 
d="M387 -14q-76 0 -141 26.5t-113 73.5t-75 110.5t-27 136.5q0 85 28.5 149.5t77.5 108.5t112 66t132 22t132 -24t112 -67.5t77 -104t28 -133.5v-17h-555v-221q28 -37 85 -62t127 -25q62 0 106 11t79.5 36.5t70.5 70.5h46q-58 -90 -130 -123.5t-172 -33.5zM175 373h413v193
q-29 32 -83 53.5t-125 21.5q-66 0 -117 -19.5t-88 -54.5v-194z" />
    <glyph glyph-name="uni2153" unicode="&#x2153;" horiz-adv-x="692" 
d="M94 370v176l-63 -12v85l177 35v-284h-114zM84 0l337 644h153l-338 -644h-152zM508 -9q-15 0 -36 2t-40.5 5.5t-30.5 7.5v68q19 -7 39.5 -11t37.5 -4q29 0 41.5 5.5t12.5 18.5q0 25 -45 25h-44l5 60h36q43 0 43 25q0 11 -13.5 16t-36.5 5q-19 0 -38 -4.5t-33 -10.5v69
q15 6 45 10.5t58 4.5q71 0 102 -23.5t31 -58.5q0 -44 -34 -63q39 -13 39 -60q0 -87 -139 -87z" />
    <glyph glyph-name="uni2154" unicode="&#x2154;" horiz-adv-x="726" 
d="M31 370v48q15 22 31 35.5t38 30.5q32 25 43.5 35.5t11.5 23.5q0 28 -47 28q-16 0 -35 -4.5t-36 -11.5v80q17 7 49.5 13t63.5 6q59 0 90 -24.5t31 -61.5q0 -27 -10.5 -44.5t-33.5 -39.5q-13 -11 -21 -17t-19 -17h86v-80h-242zM99 0l337 644h153l-338 -644h-152zM523 -9
q-15 0 -36 2t-40.5 5t-30.5 7v69q19 -8 39.5 -11.5t37.5 -3.5q29 0 41.5 5.5t12.5 18.5q0 25 -45 25h-44l5 59h36q43 0 43 26q0 11 -13.5 15.5t-36.5 4.5q-39 0 -71 -15v70q15 5 45 10t58 5q71 0 102 -24t31 -59q0 -20 -8.5 -36.5t-25.5 -26.5q39 -13 39 -59q0 -87 -139 -87
z" />
    <glyph glyph-name="oneeighth" unicode="&#x215b;" horiz-adv-x="691" 
d="M94 370v176l-63 -12v85l177 35v-284h-114zM84 0l337 644h153l-338 -644h-152zM513 -10q-60 0 -97.5 21.5t-37.5 63.5q0 45 39 65q-17 10 -24.5 25t-7.5 33q0 42 34.5 63t93.5 21t93.5 -21t34.5 -63q0 -18 -7 -33.5t-25 -27.5q40 -20 40 -62t-38 -63.5t-98 -21.5zM523 163
q17 6 22 12.5t5 20.5q0 27 -37 27t-37 -27q0 -23 23 -28zM513 48q44 0 44 29q0 12 -7 18t-24 10l-27 6q-13 -4 -21 -10.5t-8 -22.5q0 -30 43 -30z" />
    <glyph glyph-name="threeeighths" unicode="&#x215c;" horiz-adv-x="702" 
d="M138 362q-15 0 -36.5 2t-40.5 5t-30 7v69q18 -8 38.5 -11.5t38.5 -3.5q29 0 41.5 5.5t12.5 18.5q0 25 -46 25h-44l5 59h37q42 0 42 26q0 11 -13 15.5t-36 4.5q-40 0 -72 -15v70q16 5 45.5 10t57.5 5q71 0 102 -24t31 -59q0 -20 -8 -36.5t-25 -26.5q39 -13 39 -59
q0 -87 -139 -87zM87 0l338 644h153l-339 -644h-152zM517 -10q-60 0 -98 21.5t-38 63.5q0 45 40 65q-17 10 -24.5 25t-7.5 33q0 42 34.5 63t93.5 21t93.5 -21t34.5 -63q0 -18 -7 -33.5t-26 -27.5q22 -10 31 -25.5t9 -36.5q0 -42 -37.5 -63.5t-97.5 -21.5zM527 163
q16 6 21.5 12.5t5.5 20.5q0 27 -37 27t-37 -27q0 -23 23 -28zM517 48q43 0 43 29q0 12 -7 18t-24 10l-26 6q-14 -4 -22 -10.5t-8 -22.5q0 -30 44 -30z" />
    <glyph glyph-name="fiveeighths" unicode="&#x215d;" horiz-adv-x="688" 
d="M84 0l337 644h153l-338 -644h-152zM130 362q-25 0 -53.5 3.5t-45.5 10.5v71q15 -7 36.5 -10.5t37.5 -3.5q31 0 44.5 7t13.5 21q0 16 -11.5 22t-37.5 6h-82v50l7 105h214l-5 -69h-115l-2 -27h36q104 0 104 -88q0 -43 -34 -70.5t-107 -27.5zM513 -10q-60 0 -97.5 21.5
t-37.5 63.5q0 45 39 65q-17 10 -24.5 25t-7.5 33q0 42 34.5 63t93.5 21t93.5 -21t34.5 -63q0 -18 -7 -33.5t-25 -27.5q40 -20 40 -62t-38 -63.5t-98 -21.5zM523 163q17 6 22 12.5t5 20.5q0 27 -37 27t-37 -27q0 -23 23 -28zM513 48q44 0 44 29q0 12 -7 18t-24 10l-27 6
q-13 -4 -21 -10.5t-8 -22.5q0 -30 43 -30z" />
    <glyph glyph-name="seveneighths" unicode="&#x215e;" horiz-adv-x="687" 
d="M79 0l337 644h153l-338 -644h-152zM73 370l84 192h-126v82h248v-62l-92 -212h-114zM508 -10q-60 0 -97.5 21.5t-37.5 63.5q0 45 39 65q-17 10 -24.5 25t-7.5 33q0 42 34.5 63t93.5 21t93.5 -21t34.5 -63q0 -18 -7 -33.5t-25 -27.5q40 -20 40 -62t-38 -63.5t-98 -21.5z
M518 163q17 6 22 12.5t5 20.5q0 27 -37 27t-37 -27q0 -23 23 -28zM508 48q44 0 44 29q0 12 -7 18t-24 10l-27 6q-13 -4 -21 -10.5t-8 -22.5q0 -30 43 -30z" />
    <glyph glyph-name="arrowleft" unicode="&#x2190;" horiz-adv-x="733" 
d="M279 45l-248 199v45l248 199l48 -65l-130 -104h505v-105h-505l130 -104z" />
    </font>
</defs>
</svg>
